<svg width="16" height="16" viewBox="0 0 16 16" fill="none" xmlns="http://www.w3.org/2000/svg">
<path d="M10.424 11.2429H7.87652V6.9407H9.73517V9.6052H10.489C11.5938 9.6052 12.3347 8.99431 12.3347 7.88952C12.3347 6.82372 11.5938 6.17384 10.489 6.17384H9.81316H9.73517H3.14541V4.54915H7.87652H10.463C12.8546 4.54915 14.2323 5.92689 14.2323 7.87652C14.2323 9.81316 12.8286 11.2429 10.424 11.2429ZM6.68075 8.39643H5.00406V11.2429H3.14541V6.9407H7.30463L6.68075 8.39643ZM13.7774 0H2.22258C1.00081 0 0 1.00081 0 2.22258V13.7774C0 15.0122 1.00081 16 2.22258 16H13.7774C14.9992 16 16 14.9992 16 13.7774V2.22258C16 1.00081 14.9992 0 13.7774 0Z" fill="#EC6A2D"/>
</svg>
