{
	"asset":{
		"version":"2.0",
		"generator":"Created using the official Cinema 4D glTF Exporter 1.000x290161"
	},
	"scenes":[{
		"nodes":[0,
		1]
	}],
	"nodes":[{
		"name":"Áîáûøêà-Âûòÿíóòü2",
		"translation":[4.163210868835449,
		-0.6940889954566956,
		-2.9630653858184816],
		"rotation":[-7.850464144297406e-17,
		-0.7071067094802856,
		7.850462820808426e-17,
		-0.7071068286895752],
		"scale":[254.0,
		253.99996948242188,
		253.99996948242188],
		"mesh":0
	},
	{
		"name":"Áîáûøêà-Âûòÿíóòü2.1",
		"translation":[4.163210868835449,
		-0.6940889954566956,
		-2.9630653858184816],
		"rotation":[-7.850464144297406e-17,
		-0.7071067094802856,
		7.850462820808426e-17,
		-0.7071068286895752],
		"scale":[254.0,
		253.99996948242188,
		253.99996948242188],
		"mesh":1
	}],
	"meshes":[{
		"primitives":[{
			"attributes":{
				"POSITION":1,
				"NORMAL":2,
				"TEXCOORD_0":3
			},
			"indices":0,
			"material":0
		}]
	},
	{
		"primitives":[{
			"attributes":{
				"POSITION":5,
				"NORMAL":6,
				"TEXCOORD_0":7
			},
			"indices":4,
			"material":1
		}]
	}],
	"accessors":[{
		"bufferView":0,
		"type":"SCALAR",
		"componentType":5123,
		"count":24972,
		"byteOffset":0,
		"min":[0],
		"max":[8752]
	},
	{
		"bufferView":1,
		"type":"VEC3",
		"componentType":5126,
		"count":8753,
		"byteOffset":0,
		"min":[-0.025999998673796655,
		-0.004024363588541746,
		-0.013250002637505532],
		"max":[0.025999998673796655,
		0.03522563725709915,
		0.013250000774860382]
	},
	{
		"bufferView":1,
		"type":"VEC3",
		"componentType":5126,
		"count":8753,
		"byteOffset":12,
		"min":[-1.0,
		-1.0,
		-1.0],
		"max":[1.0,
		1.0,
		1.0]
	},
	{
		"bufferView":1,
		"type":"VEC2",
		"componentType":5126,
		"count":8753,
		"byteOffset":24,
		"min":[-2.5961199856538998e-9,
		-7.152557373046875e-7],
		"max":[1.000006079673767,
		1.0]
	},
	{
		"bufferView":2,
		"type":"SCALAR",
		"componentType":5123,
		"count":2604,
		"byteOffset":0,
		"min":[0],
		"max":[1046]
	},
	{
		"bufferView":3,
		"type":"VEC3",
		"componentType":5126,
		"count":1047,
		"byteOffset":0,
		"min":[-0.024000007659196855,
		-0.004024363588541746,
		-0.013250002637505532],
		"max":[0.024000389501452447,
		0.03322567045688629,
		0.013250000774860382]
	},
	{
		"bufferView":3,
		"type":"VEC3",
		"componentType":5126,
		"count":1047,
		"byteOffset":12,
		"min":[-1.0,
		-1.0,
		-1.0],
		"max":[1.0,
		1.0,
		1.0]
	},
	{
		"bufferView":3,
		"type":"VEC2",
		"componentType":5126,
		"count":1047,
		"byteOffset":24,
		"min":[-3.4570996065852457e-10,
		-7.152557373046875e-7],
		"max":[1.0,
		1.0]
	}],
	"bufferViews":[{
		"buffer":0,
		"byteOffset":0,
		"byteLength":49944,
		"target":34963
	},
	{
		"buffer":0,
		"byteOffset":49944,
		"byteLength":280096,
		"target":34962,
		"byteStride":32
	},
	{
		"buffer":1,
		"byteOffset":0,
		"byteLength":5208,
		"target":34963
	},
	{
		"buffer":1,
		"byteOffset":5208,
		"byteLength":33504,
		"target":34962,
		"byteStride":32
	}],
	"buffers":[{
		"uri":"data:application/octet-stream;base64,",
		"byteLength":330040
	},
	{
		"uri":"data:application/octet-stream;base64,",
		"byteLength":38712
	}],
	"materials":[{
		"pbrMetallicRoughness":{
			"baseColorFactor":[0.30064094066619875,
			0.22964093089103697,
			0.027911592274904266,
			1.0],
			"metallicFactor":1.0,
			"roughnessFactor":0.0
		},
		"emissiveFactor":[0.0,
		0.0,
		0.0],
		"alphaMode":"OPAQUE",
		"doubleSided":false,
		"name":"1"
	},
	{
		"pbrMetallicRoughness":{
			"baseColorFactor":[0.46,
			0.35136541276047697,
			0.04270653364110997,
			1.0],
			"metallicFactor":1.0,
			"roughnessFactor":1.0
		},
		"emissiveFactor":[0.0,
		0.0,
		0.0],
		"alphaMode":"OPAQUE",
		"doubleSided":false,
		"name":"1.2"
	}]
}