{
    "asset" : {
        "generator" : "Khronos glTF Blender I/O v3.2.40",
        "version" : "2.0"
    },
    "extensionsUsed" : [
        "KHR_materials_clearcoat"
    ],
    "scene" : 0,
    "scenes" : [
        {
            "name" : "Scene",
            "nodes" : [
                0
            ]
        }
    ],
    "nodes" : [
        {
            "mesh" : 0,
            "name" : "123",
            "scale" : [
                100,
                99.99999237060547,
                99.99999237060547
            ]
        }
    ],
    "materials" : [
        {
            "doubleSided" : true,
            "extensions" : {
                "KHR_materials_clearcoat" : {
                    "clearcoatFactor" : 1,
                    "clearcoatRoughnessFactor" : 0.22090910375118256
                }
            },
            "name" : "default.003",
            "pbrMetallicRoughness" : {
                "baseColorFactor" : [
                    1,
                    0.33023330569267273,
                    0,
                    1
                ],
                "metallicFactor" : 0.8454545736312866,
                "roughnessFactor" : 0.2499999701976776
            }
        }
    ],
    "meshes" : [
        {
            "name" : "123",
            "primitives" : [
                {
                    "attributes" : {
                        "POSITION" : 0,
                        "NORMAL" : 1,
                        "TEXCOORD_0" : 2
                    },
                    "indices" : 3,
                    "material" : 0
                }
            ]
        }
    ],
    "accessors" : [
        {
            "bufferView" : 0,
            "componentType" : 5126,
            "count" : 9851,
            "max" : [
                0.025999998673796654,
                0.03522563725709915,
                0.013250000774860382
            ],
            "min" : [
                -0.025999998673796654,
                -0.004024363588541746,
                -0.013250000774860382
            ],
            "type" : "VEC3"
        },
        {
            "bufferView" : 1,
            "componentType" : 5126,
            "count" : 9851,
            "type" : "VEC3"
        },
        {
            "bufferView" : 2,
            "componentType" : 5126,
            "count" : 9851,
            "type" : "VEC2"
        },
        {
            "bufferView" : 3,
            "componentType" : 5123,
            "count" : 25176,
            "type" : "SCALAR"
        }
    ],
    "bufferViews" : [
        {
            "buffer" : 0,
            "byteLength" : 118212,
            "byteOffset" : 0
        },
        {
            "buffer" : 0,
            "byteLength" : 118212,
            "byteOffset" : 118212
        },
        {
            "buffer" : 0,
            "byteLength" : 78808,
            "byteOffset" : 236424
        },
        {
            "buffer" : 0,
            "byteLength" : 50352,
            "byteOffset" : 315232
        }
    ],
    "buffers" : [
        {
            "byteLength" : 365584,
            "uri" : "data:application/octet-stream;base64,"
        }
    ]
}
