{
    "asset" : {
        "generator" : "Khronos glTF Blender I/O v1.7.33",
        "version" : "2.0"
    },
    "extensionsUsed" : [
        "KHR_materials_clearcoat"
    ],
    "scene" : 0,
    "scenes" : [
        {
            "name" : "Scene",
            "nodes" : [
                0,
                1,
                2
            ]
        }
    ],
    "nodes" : [
        {
            "mesh" : 0,
            "name" : "F1_cap",
            "rotation" : [
                0.7071068286895752,
                0,
                0,
                0.7071067094802856
            ]
        },
        {
            "mesh" : 1,
            "name" : "NONE(1)",
            "rotation" : [
                0.7071068286895752,
                0,
                0,
                0.7071067094802856
            ]
        },
        {
            "mesh" : 2,
            "name" : "NONE(2)",
            "rotation" : [
                0.7071068286895752,
                0,
                0,
                0.7071067094802856
            ]
        }
    ],
    "materials" : [
        {
            "doubleSided" : true,
            "emissiveFactor" : [
                0.0038221257273107767,
                0.00225837342441082,
                0
            ],
            "extensions" : {
                "KHR_materials_clearcoat" : {
                    "clearcoatFactor" : 0.46136361360549927,
                    "clearcoatRoughnessFactor" : 0
                }
            },
            "name" : "default",
            "pbrMetallicRoughness" : {
                "baseColorFactor" : [
                    0.461783230304718,
                    0.18420301377773285,
                    0,
                    1
                ],
                "roughnessFactor" : 0.5022727251052856
            }
        }
    ],
    "meshes" : [
        {
            "name" : "F1_cap",
            "primitives" : [
                {
                    "attributes" : {
                        "POSITION" : 0,
                        "NORMAL" : 1,
                        "TEXCOORD_0" : 2
                    },
                    "indices" : 3,
                    "material" : 0
                }
            ]
        },
        {
            "name" : "NONE(1)",
            "primitives" : [
                {
                    "attributes" : {
                        "POSITION" : 4,
                        "NORMAL" : 5,
                        "TEXCOORD_0" : 6
                    },
                    "indices" : 7,
                    "material" : 0
                }
            ]
        },
        {
            "name" : "NONE(2)",
            "primitives" : [
                {
                    "attributes" : {
                        "POSITION" : 8,
                        "NORMAL" : 9,
                        "TEXCOORD_0" : 10
                    },
                    "indices" : 11,
                    "material" : 0
                }
            ]
        }
    ],
    "accessors" : [
        {
            "bufferView" : 0,
            "componentType" : 5126,
            "count" : 2164,
            "max" : [
                4.2238969802856445,
                5.600836753845215,
                -3.731951951980591
            ],
            "min" : [
                1.6758381128311157,
                2.9987518787384033,
                -6.136115074157715
            ],
            "type" : "VEC3"
        },
        {
            "bufferView" : 1,
            "componentType" : 5126,
            "count" : 2164,
            "type" : "VEC3"
        },
        {
            "bufferView" : 2,
            "componentType" : 5126,
            "count" : 2164,
            "type" : "VEC2"
        },
        {
            "bufferView" : 3,
            "componentType" : 5123,
            "count" : 3714,
            "type" : "SCALAR"
        },
        {
            "bufferView" : 4,
            "componentType" : 5126,
            "count" : 23604,
            "max" : [
                4.224865913391113,
                6.082232475280762,
                -1.167456030845642
            ],
            "min" : [
                1.6748723983764648,
                0.4822079539299011,
                -5.835594654083252
            ],
            "type" : "VEC3"
        },
        {
            "bufferView" : 5,
            "componentType" : 5126,
            "count" : 23604,
            "type" : "VEC3"
        },
        {
            "bufferView" : 6,
            "componentType" : 5126,
            "count" : 23604,
            "type" : "VEC2"
        },
        {
            "bufferView" : 7,
            "componentType" : 5123,
            "count" : 69666,
            "type" : "SCALAR"
        },
        {
            "bufferView" : 8,
            "componentType" : 5126,
            "count" : 82,
            "max" : [
                3.8814175128936768,
                4.171755313873291,
                -3.5739893913269043
            ],
            "min" : [
                2.018317461013794,
                2.904994487762451,
                -4.969161033630371
            ],
            "type" : "VEC3"
        },
        {
            "bufferView" : 9,
            "componentType" : 5126,
            "count" : 82,
            "type" : "VEC3"
        },
        {
            "bufferView" : 10,
            "componentType" : 5126,
            "count" : 82,
            "type" : "VEC2"
        },
        {
            "bufferView" : 11,
            "componentType" : 5123,
            "count" : 228,
            "type" : "SCALAR"
        }
    ],
    "bufferViews" : [
        {
            "buffer" : 0,
            "byteLength" : 25968,
            "byteOffset" : 0
        },
        {
            "buffer" : 0,
            "byteLength" : 25968,
            "byteOffset" : 25968
        },
        {
            "buffer" : 0,
            "byteLength" : 17312,
            "byteOffset" : 51936
        },
        {
            "buffer" : 0,
            "byteLength" : 7428,
            "byteOffset" : 69248
        },
        {
            "buffer" : 0,
            "byteLength" : 283248,
            "byteOffset" : 76676
        },
        {
            "buffer" : 0,
            "byteLength" : 283248,
            "byteOffset" : 359924
        },
        {
            "buffer" : 0,
            "byteLength" : 188832,
            "byteOffset" : 643172
        },
        {
            "buffer" : 0,
            "byteLength" : 139332,
            "byteOffset" : 832004
        },
        {
            "buffer" : 0,
            "byteLength" : 984,
            "byteOffset" : 971336
        },
        {
            "buffer" : 0,
            "byteLength" : 984,
            "byteOffset" : 972320
        },
        {
            "buffer" : 0,
            "byteLength" : 656,
            "byteOffset" : 973304
        },
        {
            "buffer" : 0,
            "byteLength" : 456,
            "byteOffset" : 973960
        }
    ],
    "buffers" : [
        {
            "byteLength" : 974416,
            "uri" : "data:application/octet-stream;base64,"
        }
    ]
}
