{
	"asset":{
		"version":"2.0",
		"generator":"Created using the official Cinema 4D glTF Exporter 1.000x290161"
	},
	"scenes":[{
		"nodes":[0]
	}],
	"nodes":[{
		"name":"Áîáûøêà-Âûòÿíóòü2",
		"translation":[0.0,
		0.0,
		0.0],
		"rotation":[-6.717942824252532e-8,
		0.0,
		0.0,
		-1.0],
		"scale":[100.0,
		99.99999237060547,
		99.99999237060547],
		"mesh":0
	}],
	"meshes":[{
		"primitives":[{
			"attributes":{
				"POSITION":1,
				"NORMAL":2,
				"TEXCOORD_0":3
			},
			"indices":0,
			"material":0
		}]
	}],
	"accessors":[{
		"bufferView":0,
		"type":"SCALAR",
		"componentType":5123,
		"count":25176,
		"byteOffset":0,
		"min":[0],
		"max":[8823]
	},
	{
		"bufferView":1,
		"type":"VEC3",
		"componentType":5126,
		"count":8824,
		"byteOffset":0,
		"min":[-0.025999998673796655,
		-0.004024363588541746,
		-0.013250000774860382],
		"max":[0.025999998673796655,
		0.03522563725709915,
		0.013250000774860382]
	},
	{
		"bufferView":1,
		"type":"VEC3",
		"componentType":5126,
		"count":8824,
		"byteOffset":12,
		"min":[-1.0,
		-1.0,
		-1.0],
		"max":[1.0,
		1.0,
		1.0]
	},
	{
		"bufferView":1,
		"type":"VEC2",
		"componentType":5126,
		"count":8824,
		"byteOffset":24,
		"min":[-2.5961197636092949e-9,
		-7.152557373046875e-7],
		"max":[1.0000059604644776,
		1.0]
	}],
	"bufferViews":[{
		"buffer":0,
		"byteOffset":0,
		"byteLength":50352,
		"target":34963
	},
	{
		"buffer":0,
		"byteOffset":50352,
		"byteLength":282368,
		"target":34962,
		"byteStride":32
	}],
	"buffers":[{
		"uri":"data:application/octet-stream;base64,",
		"byteLength":332720
	}],
	"materials":[{
		"pbrMetallicRoughness":{
			"baseColorFactor":[0.76,
			0.60116,
			0.25839999999999999,
			1.0],
			"metallicFactor":0.22,
			"roughnessFactor":0.18
		},
		"emissiveFactor":[0.0,
		0.0,
		0.0],
		"alphaMode":"OPAQUE",
		"doubleSided":false,
		"name":"default.003"
	}]
}