{
    "asset" : {
        "generator" : "Khronos glTF Blender I/O v1.8.19",
        "version" : "2.0"
    },
    "scene" : 0,
    "scenes" : [
        {
            "name" : "Scene",
            "nodes" : [
                0,
                1
            ]
        }
    ],
    "nodes" : [
        {
            "mesh" : 0,
            "name" : "\u00c1\u00ee\u00e1\u00fb\u00f8\u00ea\u00e0-\u00c2\u00fb\u00f2\u00ff\u00ed\u00f3\u00f2\u00fc2",
            "rotation" : [
                0.5,
                0.5,
                -0.5,
                0.4999999701976776
            ],
            "scale" : [
                2.5399999618530273,
                2.5399997234344482,
                2.5399997234344482
            ],
            "translation" : [
                4.163210868835449,
                -0.6940889954566956,
                -2.9630656242370605
            ]
        },
        {
            "mesh" : 1,
            "name" : "Object001",
            "rotation" : [
                0.5,
                0.5,
                -0.4999999701976776,
                0.5000000596046448
            ],
            "scale" : [
                2.5399999618530273,
                2.5399997234344482,
                2.5399997234344482
            ],
            "translation" : [
                4.163210868835449,
                -0.6940889954566956,
                -2.9630656242370605
            ]
        }
    ],
    "animations" : [
        {
            "channels" : [
                {
                    "sampler" : 0,
                    "target" : {
                        "node" : 0,
                        "path" : "translation"
                    }
                },
                {
                    "sampler" : 1,
                    "target" : {
                        "node" : 0,
                        "path" : "rotation"
                    }
                },
                {
                    "sampler" : 2,
                    "target" : {
                        "node" : 0,
                        "path" : "scale"
                    }
                }
            ],
            "name" : "\u00c1\u00ee\u00e1\u00fb\u00f8\u00ea\u00e0-\u00c2\u00fb\u00f2\u00ff\u00ed\u00f3\u00f2\u00fc2|Take 001|BaseLayer",
            "samplers" : [
                {
                    "input" : 8,
                    "interpolation" : "STEP",
                    "output" : 9
                },
                {
                    "input" : 8,
                    "interpolation" : "STEP",
                    "output" : 10
                },
                {
                    "input" : 8,
                    "interpolation" : "STEP",
                    "output" : 11
                }
            ]
        },
        {
            "channels" : [
                {
                    "sampler" : 0,
                    "target" : {
                        "node" : 1,
                        "path" : "translation"
                    }
                },
                {
                    "sampler" : 1,
                    "target" : {
                        "node" : 1,
                        "path" : "rotation"
                    }
                },
                {
                    "sampler" : 2,
                    "target" : {
                        "node" : 1,
                        "path" : "scale"
                    }
                }
            ],
            "name" : "Object001|Take 001|BaseLayer",
            "samplers" : [
                {
                    "input" : 8,
                    "interpolation" : "STEP",
                    "output" : 12
                },
                {
                    "input" : 8,
                    "interpolation" : "STEP",
                    "output" : 13
                },
                {
                    "input" : 8,
                    "interpolation" : "STEP",
                    "output" : 14
                }
            ]
        }
    ],
    "materials" : [
        {
            "doubleSided" : true,
            "name" : "Metal Hammered",
            "pbrMetallicRoughness" : {
                "baseColorFactor" : [
                    0.4558335244655609,
                    0.2335430532693863,
                    0.047525860369205475,
                    1
                ],
                "metallicFactor" : 0.800000011920929
            }
        },
        {
            "doubleSided" : true,
            "name" : "Material #47",
            "pbrMetallicRoughness" : {
                "baseColorFactor" : [
                    0.6173855066299438,
                    0.3635143041610718,
                    0.10717166215181351,
                    1
                ],
                "roughnessFactor" : 0.20000000298023224
            }
        }
    ],
    "meshes" : [
        {
            "name" : "\u041c\u0435\u0448",
            "primitives" : [
                {
                    "attributes" : {
                        "POSITION" : 0,
                        "NORMAL" : 1,
                        "TEXCOORD_0" : 2
                    },
                    "indices" : 3,
                    "material" : 0
                }
            ]
        },
        {
            "name" : "\u041c\u0435\u0448.001",
            "primitives" : [
                {
                    "attributes" : {
                        "POSITION" : 4,
                        "NORMAL" : 5,
                        "TEXCOORD_0" : 6
                    },
                    "indices" : 7,
                    "material" : 1
                }
            ]
        }
    ],
    "accessors" : [
        {
            "bufferView" : 0,
            "componentType" : 5126,
            "count" : 1107,
            "max" : [
                2.4000039100646973,
                1.3250000476837158,
                0.40243637561798096
            ],
            "min" : [
                -2.4000039100646973,
                -1.3250000476837158,
                -3.3225674629211426
            ],
            "type" : "VEC3"
        },
        {
            "bufferView" : 1,
            "componentType" : 5126,
            "count" : 1107,
            "type" : "VEC3"
        },
        {
            "bufferView" : 2,
            "componentType" : 5126,
            "count" : 1107,
            "type" : "VEC2"
        },
        {
            "bufferView" : 3,
            "componentType" : 5123,
            "count" : 2784,
            "type" : "SCALAR"
        },
        {
            "bufferView" : 4,
            "componentType" : 5126,
            "count" : 7720,
            "max" : [
                2.5999999046325684,
                1.3250000476837158,
                0.40243637561798096
            ],
            "min" : [
                -2.5999999046325684,
                -1.3250000476837158,
                -3.5225636959075928
            ],
            "type" : "VEC3"
        },
        {
            "bufferView" : 5,
            "componentType" : 5126,
            "count" : 7720,
            "type" : "VEC3"
        },
        {
            "bufferView" : 6,
            "componentType" : 5126,
            "count" : 7720,
            "type" : "VEC2"
        },
        {
            "bufferView" : 7,
            "componentType" : 5123,
            "count" : 22392,
            "type" : "SCALAR"
        },
        {
            "bufferView" : 8,
            "componentType" : 5126,
            "count" : 1,
            "max" : [
                0.03333333333333333
            ],
            "min" : [
                0.03333333333333333
            ],
            "type" : "SCALAR"
        },
        {
            "bufferView" : 9,
            "componentType" : 5126,
            "count" : 1,
            "type" : "VEC3"
        },
        {
            "bufferView" : 10,
            "componentType" : 5126,
            "count" : 1,
            "type" : "VEC4"
        },
        {
            "bufferView" : 11,
            "componentType" : 5126,
            "count" : 1,
            "type" : "VEC3"
        },
        {
            "bufferView" : 12,
            "componentType" : 5126,
            "count" : 1,
            "type" : "VEC3"
        },
        {
            "bufferView" : 13,
            "componentType" : 5126,
            "count" : 1,
            "type" : "VEC4"
        },
        {
            "bufferView" : 14,
            "componentType" : 5126,
            "count" : 1,
            "type" : "VEC3"
        }
    ],
    "bufferViews" : [
        {
            "buffer" : 0,
            "byteLength" : 13284,
            "byteOffset" : 0
        },
        {
            "buffer" : 0,
            "byteLength" : 13284,
            "byteOffset" : 13284
        },
        {
            "buffer" : 0,
            "byteLength" : 8856,
            "byteOffset" : 26568
        },
        {
            "buffer" : 0,
            "byteLength" : 5568,
            "byteOffset" : 35424
        },
        {
            "buffer" : 0,
            "byteLength" : 92640,
            "byteOffset" : 40992
        },
        {
            "buffer" : 0,
            "byteLength" : 92640,
            "byteOffset" : 133632
        },
        {
            "buffer" : 0,
            "byteLength" : 61760,
            "byteOffset" : 226272
        },
        {
            "buffer" : 0,
            "byteLength" : 44784,
            "byteOffset" : 288032
        },
        {
            "buffer" : 0,
            "byteLength" : 4,
            "byteOffset" : 332816
        },
        {
            "buffer" : 0,
            "byteLength" : 12,
            "byteOffset" : 332820
        },
        {
            "buffer" : 0,
            "byteLength" : 16,
            "byteOffset" : 332832
        },
        {
            "buffer" : 0,
            "byteLength" : 12,
            "byteOffset" : 332848
        },
        {
            "buffer" : 0,
            "byteLength" : 12,
            "byteOffset" : 332860
        },
        {
            "buffer" : 0,
            "byteLength" : 16,
            "byteOffset" : 332872
        },
        {
            "buffer" : 0,
            "byteLength" : 12,
            "byteOffset" : 332888
        }
    ],
    "buffers" : [
        {
            "byteLength" : 332900,
            "uri" : "data:application/octet-stream;base64,"
        }
    ]
}
