<svg width="100" height="97" viewBox="0 0 100 97" fill="none" xmlns="http://www.w3.org/2000/svg">
<path d="M64.6112 68.2002H48.821V42.366H60.3414V58.366H65.0141C71.8619 58.366 76.454 54.6977 76.454 48.0636C76.454 41.6636 71.8619 37.7612 65.0141 37.7612H60.8248H60.3414H19.4961V28.0051H48.821H64.8529C79.6765 28.0051 88.2161 36.2782 88.2161 47.9856C88.2161 59.6148 79.5153 68.2002 64.6112 68.2002ZM41.4092 51.1075H31.0166V68.2002H19.4961V42.366H45.2762L41.4092 51.1075ZM85.3964 0.687988H13.7762C6.20333 0.687988 0 6.69774 0 14.0343V83.4197C0 90.8343 6.20333 96.766 13.7762 96.766H85.3964C92.9693 96.766 99.1726 90.7563 99.1726 83.4197V14.0343C99.1726 6.69774 92.9693 0.687988 85.3964 0.687988Z" fill="white"/>
</svg>
