<svg width="57" height="53" viewBox="0 0 57 53" fill="none" xmlns="http://www.w3.org/2000/svg">
<path d="M39.5998 19.0246C41.1304 21.2881 41.9361 23.9417 41.9361 26.7515C41.9361 34.0881 36.6995 40.2539 28.8043 40.2539C20.9898 40.2539 15.5921 33.932 15.5921 26.7515C15.5921 19.4149 20.8287 13.249 28.6433 13.249H52.7315C47.9783 5.6783 39.2775 0.76123 28.8043 0.76123C12.8529 0.76123 0.929688 12.3905 0.929688 26.8295C0.929688 41.3466 12.7724 52.8978 28.7238 52.8978C44.6752 52.8978 56.5984 41.2685 56.5984 26.8295C56.5984 24.0978 56.1956 21.5222 55.39 19.1027H39.5998V19.0246Z" fill="white"/>
</svg>
