<svg width="16" height="16" viewBox="0 0 16 16" fill="none" xmlns="http://www.w3.org/2000/svg">
<path d="M4.6276 3.33351C4.62743 3.68713 4.48678 4.0262 4.23661 4.27613C3.98644 4.52605 3.64723 4.66636 3.2936 4.66618C2.93998 4.666 2.60091 4.52536 2.35099 4.27518C2.10107 4.02501 1.96076 3.6858 1.96094 3.33218C1.96111 2.97856 2.10176 2.63949 2.35193 2.38956C2.60211 2.13964 2.94132 1.99934 3.29494 1.99951C3.64856 1.99969 3.98763 2.14033 4.23755 2.39051C4.48748 2.64068 4.62778 2.97989 4.6276 3.33351ZM4.6676 5.65351H2.00094V14.0002H4.6676V5.65351ZM8.88094 5.65351H6.2276V14.0002H8.85427V9.62018C8.85427 7.18018 12.0343 6.95351 12.0343 9.62018V14.0002H14.6676V8.71351C14.6676 4.60018 9.96094 4.75351 8.85427 6.77351L8.88094 5.65351Z" fill="white"/>
</svg>
