<svg width="64" height="64" viewBox="0 0 64 64" fill="none" xmlns="http://www.w3.org/2000/svg">
<mask id="path-1-outside-1_1440_31979" maskUnits="userSpaceOnUse" x="5" y="2" width="54" height="60" fill="black">
<rect fill="white" x="5" y="2" width="54" height="60"/>
<path fill-rule="evenodd" clip-rule="evenodd" d="M16.4474 3.03432C15.4037 3.20695 14.5644 3.64123 13.8202 4.39362C12.9824 5.24066 12.5561 6.22436 12.5063 7.42541C12.4528 8.71518 12.9248 9.92384 13.8407 10.8428C14.4841 11.4883 15.2673 11.9079 16.2157 12.1152C16.676 12.2159 17.5816 12.2168 18.0341 12.117C19.0247 11.8988 19.7401 11.5088 20.4248 10.814C21.3183 9.90729 21.7487 8.86096 21.7487 7.5955C21.7487 6.34875 21.3038 5.26738 20.4249 4.37794C19.7393 3.68416 18.8887 3.23435 17.9382 3.06299C17.5496 2.99298 16.7862 2.97829 16.4474 3.03432ZM32.4027 3.58628C32.2092 3.63922 31.7835 3.90051 31.5801 4.0912C31.4505 4.2127 31.3104 4.41498 31.0022 4.92618C30.3153 6.06528 29.296 7.75136 29.1268 8.02845C29.0385 8.17303 28.6127 8.87581 28.1806 9.59018C27.7485 10.3046 27.1797 11.2439 26.9165 11.6776C26.6533 12.1114 26.2079 12.8489 25.9266 13.3167C25.6454 13.7844 25.3928 14.1898 25.3655 14.2176C25.32 14.2637 24.6387 14.2724 17.4351 14.3191C12.4875 14.3512 9.47292 14.382 9.33521 14.4019C9.04298 14.4443 8.46445 14.6369 8.09975 14.8132C7.67288 15.0197 7.1995 15.3531 6.84958 15.6938C6.35142 16.1789 6.13789 16.5375 6.04622 17.0432C5.98873 17.3602 5.99071 16.3593 6.02043 30.1401L6.03851 38.5363L6.11244 38.826C6.22139 39.2531 6.36486 39.5079 6.67393 39.8234C6.88638 40.0402 6.98314 40.1133 7.19304 40.2156C7.77958 40.5014 8.39634 40.5084 8.98295 40.2357L9.20397 40.133L9.20531 49.2307C9.20604 54.4218 9.21827 58.3816 9.23373 58.4522C9.43704 59.3798 9.8674 60.0577 10.532 60.4972C10.9918 60.8012 11.5024 60.9663 12.0731 60.9954C12.4788 61.0161 12.8171 60.9681 13.2181 60.833C13.5907 60.7075 13.812 60.5965 14.0981 60.3916C14.676 59.9778 15.0973 59.3851 15.3118 58.6841C15.5085 58.0415 15.4939 58.3687 15.5037 54.3855C15.5086 52.387 15.5216 47.7006 15.5326 43.9714L15.5525 37.191H17.2526H18.9527L18.9709 37.8173C18.9809 38.1617 19.0304 42.7576 19.0809 48.0304C19.1314 53.3031 19.1782 57.7425 19.1849 57.8955C19.2279 58.8793 19.5204 59.5832 20.1207 60.1479C20.4778 60.4838 20.8878 60.7072 21.4163 60.854C21.7642 60.9507 22.4957 60.9507 22.8436 60.854C23.3861 60.7033 23.7924 60.4791 24.1614 60.1269C24.6023 59.7061 24.8978 59.157 25.0296 58.514C25.0552 58.3891 25.1084 54.948 25.3303 39.0466C25.4473 30.6591 25.4739 28.8441 25.5465 24.2952L25.5793 22.2386L25.7035 22.0067C25.7718 21.8791 25.9471 21.566 26.0932 21.3109C26.5615 20.4927 26.7218 20.2014 26.7996 20.0275C26.8415 19.9339 27.0131 19.6069 27.181 19.3007C27.349 18.9946 27.5413 18.6397 27.6084 18.5121C27.6755 18.3846 27.8329 18.0923 27.9583 17.8627C28.1879 17.4421 28.4986 16.8676 29.0202 15.8989C29.1759 15.6098 29.4164 15.1645 29.5546 14.9093C29.6928 14.6542 30.5154 13.1304 31.3826 11.523C32.2498 9.91567 33.0833 8.37095 33.2347 8.0903C33.3862 7.80966 33.6372 7.34346 33.7927 7.05431C33.9481 6.76515 34.1141 6.46901 34.1617 6.39618C34.5149 5.85502 34.5532 5.74196 34.5521 5.24517C34.5511 4.82515 34.5015 4.65759 34.2765 4.31435C33.9597 3.83093 33.3937 3.54267 32.7695 3.54691C32.6437 3.54775 32.4787 3.56547 32.4027 3.58628ZM17.9374 3.91885C19.1329 4.16409 20.1557 5.01722 20.6379 6.17136C20.8122 6.58842 20.8857 6.94264 20.9027 7.44706C20.9276 8.18939 20.8384 8.60902 20.5125 9.28093C20.0359 10.2634 19.1524 10.969 18.0296 11.2637C17.7198 11.3451 17.6513 11.3518 17.1303 11.3517C16.6401 11.3517 16.5284 11.3422 16.2767 11.2788C14.8438 10.9182 13.8106 9.90438 13.4368 8.49233C13.3453 8.14662 13.324 7.33121 13.3958 6.92436C13.6226 5.63944 14.573 4.50986 15.8041 4.06194C16.4429 3.82954 17.2409 3.77601 17.9374 3.91885ZM33.2013 4.46425C33.3961 4.55167 33.5479 4.69919 33.6404 4.89099C33.7112 5.03785 33.7197 5.08764 33.7096 5.29864C33.703 5.43623 33.6774 5.57861 33.6498 5.63174C33.5654 5.79419 33.2209 6.3981 33.1029 6.59043C33.0404 6.69248 32.9377 6.87339 32.8747 6.99246C32.8117 7.11152 32.6546 7.40376 32.5255 7.64189C32.3964 7.88001 32.1631 8.31142 32.007 8.60057C31.851 8.88972 31.6102 9.33505 31.472 9.59018C31.3338 9.84532 30.6279 11.1535 29.9033 12.4972C29.1787 13.8409 28.4692 15.156 28.3267 15.4196C27.7547 16.4774 27.5532 16.8506 27.2662 17.3834C26.9897 17.8969 26.626 18.5699 26.0547 19.6255C25.4476 20.7472 25.0882 21.3958 24.9071 21.6968C24.8204 21.841 24.7437 21.9871 24.7367 22.0215C24.7297 22.0559 24.6957 24.1645 24.661 26.7074C24.5781 32.789 24.4016 45.4298 24.3253 50.7518C24.2918 53.082 24.2566 55.6635 24.247 56.4884C24.2283 58.1008 24.2033 58.4248 24.0701 58.7837C23.6181 60.0018 22.1087 60.483 20.9894 59.7659C20.5459 59.4818 20.1977 58.9707 20.1044 58.4667C20.037 58.1033 20.0005 56.0225 19.9196 47.953C19.879 43.8964 19.837 39.7285 19.8264 38.6909C19.8082 36.9187 19.8035 36.7968 19.7486 36.6776C19.6847 36.5392 19.5974 36.4825 19.3253 36.4028C19.178 36.3597 18.9082 36.3548 17.115 36.3626L15.0725 36.3715L14.9243 36.4455C14.822 36.4966 14.7637 36.5496 14.736 36.6168C14.7033 36.6963 14.6927 38.6008 14.6781 46.9956C14.6682 52.6504 14.6526 57.4762 14.6434 57.7197C14.6278 58.1309 14.6189 58.1825 14.519 58.4464C14.3715 58.8357 14.2571 59.0459 14.0625 59.2852C13.7682 59.6471 13.3449 59.9277 12.8623 60.0806C12.6674 60.1424 12.5706 60.153 12.2068 60.1522C11.8081 60.1514 11.7624 60.145 11.5129 60.0553C10.8549 59.8186 10.4155 59.3813 10.2009 58.7497C10.1191 58.509 10.1078 58.4266 10.0834 57.8956C10.0447 57.0508 10.0491 39.4077 10.0882 38.7682C10.128 38.1171 10.1767 21.6933 10.1392 21.5446C10.0839 21.3246 9.83774 21.1901 9.62254 21.2621C9.50651 21.301 9.37381 21.4301 9.3428 21.5342C9.31177 21.6385 9.30226 22.7587 9.29522 27.1403C9.29168 29.343 9.27692 31.2913 9.26241 31.4699C9.24793 31.6484 9.23229 33.381 9.22766 35.3201L9.21921 38.8455L9.12965 39.0096C9.01414 39.221 8.85003 39.3696 8.59801 39.4907C8.41509 39.5786 8.36887 39.5877 8.10648 39.5868C7.8461 39.586 7.79617 39.5761 7.61185 39.4883C7.25547 39.3186 6.9957 38.9698 6.9186 38.5575C6.89882 38.4516 6.87644 34.6496 6.85553 27.842L6.82312 17.2906L6.89867 17.0674C6.99381 16.7862 7.11304 16.6093 7.40458 16.3164C7.8604 15.8587 8.61797 15.4293 9.23354 15.2799L9.52407 15.2094L14.3256 15.1744C16.9664 15.1552 20.6066 15.1306 22.4149 15.1198C25.694 15.1002 25.7029 15.1 25.7982 15.0349C25.906 14.9611 25.9576 14.8876 26.2985 14.3218C26.7035 13.6493 27.1953 12.8353 27.5411 12.2652C27.7217 11.9676 27.9822 11.5362 28.12 11.3065C28.2579 11.0769 28.5696 10.562 28.8128 10.1623C29.056 9.76259 29.444 9.12244 29.6752 8.73974C29.9063 8.35704 30.3316 7.65426 30.6202 7.17801C30.9088 6.70176 31.1686 6.26528 31.1976 6.20807C31.2266 6.15082 31.3041 6.02558 31.3698 5.92974C31.4355 5.83387 31.6394 5.52582 31.823 5.24517C32.0065 4.96453 32.2112 4.68094 32.2778 4.61498C32.5101 4.38502 32.8874 4.32341 33.2013 4.46425ZM53.1841 13.8124C53.1362 13.8269 53.0691 13.864 53.0351 13.8947C52.905 14.0122 52.8901 14.1116 52.8901 14.862C52.8901 15.5402 52.8874 15.5742 52.8324 15.5742C52.6917 15.5742 52.0496 15.7651 51.8148 15.8767C50.4288 16.5356 49.8234 17.9269 50.3891 19.1532C50.7633 19.9645 51.6379 20.5957 52.6538 20.7878L52.9511 20.844V21.4048C52.9511 21.7133 52.9602 22.6792 52.9714 23.5515L52.9916 25.1373L52.857 25.1161C51.8711 24.9609 51.1024 24.3775 50.8324 23.5794C50.7793 23.4223 50.7395 23.3995 50.5183 23.3988C50.3724 23.3983 50.2247 23.4625 50.1958 23.5389C50.1231 23.731 50.3588 24.2235 50.7238 24.6421C51.146 25.1264 51.9736 25.5444 52.733 25.6571L52.9816 25.6939L52.9819 25.961C52.9824 26.371 53.0134 27.3294 53.0298 27.4395C53.0473 27.5568 53.2093 27.7126 53.3453 27.7429C53.4624 27.769 53.6377 27.6864 53.7265 27.5633C53.7862 27.4806 53.7899 27.4291 53.7984 26.566L53.8073 25.6559H53.8803C53.9205 25.6559 54.0468 25.6341 54.161 25.6074C56.0191 25.1731 57.0149 23.5503 56.3325 22.0686C56.1575 21.6885 55.7805 21.2552 55.3928 20.9882C55.002 20.7192 54.3859 20.4554 53.99 20.3876L53.759 20.3481L53.7403 19.2059C53.7301 18.5777 53.7198 17.6206 53.7174 17.0789L53.7132 16.0942L53.8733 16.1161C54.2747 16.1713 54.732 16.352 55.0854 16.5951C55.3179 16.7551 55.6294 17.0994 55.7498 17.3294C55.9589 17.7291 56.2416 17.7877 56.4188 17.4679L56.4867 17.3454L56.3961 17.1633C55.9961 16.3601 55.1106 15.7658 54.0456 15.5859L53.7226 15.5313L53.695 14.782C53.6679 14.0438 53.6664 14.0316 53.5913 13.9491C53.521 13.8719 53.3514 13.7769 53.295 13.7832C53.2819 13.7847 53.232 13.7978 53.1841 13.8124ZM52.9272 18.1952C52.935 19.3305 52.9368 20.2652 52.9311 20.2722C52.9254 20.2792 52.8007 20.255 52.6539 20.2184C52.3315 20.1378 51.9065 19.9338 51.6482 19.7358C50.5913 18.9249 50.5875 17.4937 51.6402 16.6721C51.9443 16.4348 52.6026 16.141 52.8481 16.133L52.9128 16.1309L52.9272 18.1952ZM54.097 21.0178C54.4248 21.1028 54.85 21.3184 55.1202 21.5365C55.7678 22.0592 56.022 22.8407 55.7883 23.5903C55.6539 24.0214 55.2531 24.4914 54.7914 24.7594C54.5407 24.9049 54.1336 25.0577 53.9158 25.0879L53.7742 25.1076V23.7323C53.7742 22.9758 53.7651 22.0415 53.7541 21.6561C53.7308 20.8446 53.6939 20.9132 54.097 21.0178ZM53.2712 28.8913C50.9344 28.9179 49.6338 28.9438 49.5595 28.9653C49.4941 28.9842 49.4169 29.0371 49.3791 29.0891L49.3129 29.1799L49.3193 31.2449C49.3227 32.3807 49.3526 39.3183 49.3857 46.6619C49.4364 57.9546 49.4523 60.0318 49.4886 60.1299C49.5122 60.1937 49.5401 60.2856 49.5507 60.3341C49.5792 60.4652 49.6502 60.5595 49.7601 60.6124C49.8456 60.6535 50.355 60.6621 53.7596 60.6796C57.6508 60.6996 57.6614 60.6995 57.7586 60.6366C57.896 60.5477 57.9483 60.4526 57.9841 60.2269C58.0054 60.0929 58.0053 57.9795 57.9837 53.582C57.9663 50.0353 57.9448 45.0182 57.936 42.4329C57.9272 39.8475 57.9131 37.2799 57.9048 36.7272C57.8965 36.1744 57.8885 34.2887 57.8872 32.5368C57.8857 30.5896 57.8731 29.2974 57.8549 29.2123C57.7938 28.9269 57.6328 28.8392 57.182 28.8458C57.0096 28.8483 55.2497 28.8688 53.2712 28.8913ZM57.0787 32.1579C57.0893 33.5229 57.1181 39.6218 57.1426 45.711C57.167 51.8002 57.1932 57.4807 57.2008 58.3343L57.2146 59.8864L53.7491 59.869C51.843 59.8594 50.2749 59.8429 50.2642 59.8322C50.245 59.8131 50.1026 29.7721 50.1217 29.7528C50.1328 29.7415 54.4489 29.6894 56.0341 29.6814L57.0593 29.6762L57.0787 32.1579ZM42.2353 39.3389C39.384 39.3707 39.1176 39.3781 39.027 39.4272C38.9146 39.4882 38.8472 39.5801 38.8047 39.7305C38.7685 39.8585 38.9431 59.7191 38.9837 60.1021C39.0076 60.3269 39.0227 60.372 39.1 60.4505C39.1564 60.5077 39.2366 60.5489 39.3196 60.5633C39.3915 60.5758 41.1804 60.5681 43.2949 60.5462C47.553 60.502 47.2741 60.5187 47.4078 60.2993C47.4744 60.19 47.4749 60.1794 47.4695 58.8877C47.4665 58.1719 47.4497 53.5853 47.432 48.6953C47.4144 43.8052 47.3924 39.7288 47.3832 39.6366C47.3703 39.5074 47.3467 39.449 47.2802 39.3815L47.194 39.294L46.2694 39.2991C45.7609 39.3019 43.9456 39.3198 42.2353 39.3389ZM46.5906 41.4355C46.6007 42.1712 46.616 44.9231 46.6248 47.551C46.6335 50.1789 46.6496 53.9868 46.6606 56.013L46.6805 59.6971L44.397 59.7192C43.141 59.7314 41.5852 59.7435 40.9397 59.7462L39.766 59.7511L39.6762 49.9873C39.6267 44.6173 39.5954 40.2144 39.6065 40.2031C39.6176 40.1918 41.1327 40.1657 42.9735 40.145C44.8143 40.1243 46.3771 40.1053 46.4464 40.1027L46.5724 40.098L46.5906 41.4355ZM28.8204 50.2741C28.6951 50.3115 28.5752 50.4473 28.535 50.5972C28.5118 50.6838 28.5018 52.1451 28.5017 55.4679C28.5016 59.9264 28.5048 60.2214 28.5549 60.321C28.5842 60.3793 28.6469 60.4558 28.6942 60.4911C28.78 60.5549 28.7921 60.5552 32.5659 60.5643C35.1021 60.5705 36.3874 60.563 36.4601 60.5417C36.6159 60.4959 36.6953 60.3935 36.7639 60.1504C36.8226 59.942 36.8241 59.8256 36.8234 55.3443C36.8228 50.9437 36.8204 50.7465 36.7664 50.6259C36.6985 50.4743 36.5097 50.3088 36.3829 50.2896C36.1988 50.2618 28.9118 50.2469 28.8204 50.2741ZM36.0239 55.4138L36.0162 59.7511H32.6628H29.3094L29.301 55.4834C29.2964 53.1361 29.3001 51.1843 29.3092 51.1461L29.3258 51.0765H32.6787H36.0317L36.0239 55.4138Z"/>
</mask>
<path fill-rule="evenodd" clip-rule="evenodd" d="M16.4474 3.03432C15.4037 3.20695 14.5644 3.64123 13.8202 4.39362C12.9824 5.24066 12.5561 6.22436 12.5063 7.42541C12.4528 8.71518 12.9248 9.92384 13.8407 10.8428C14.4841 11.4883 15.2673 11.9079 16.2157 12.1152C16.676 12.2159 17.5816 12.2168 18.0341 12.117C19.0247 11.8988 19.7401 11.5088 20.4248 10.814C21.3183 9.90729 21.7487 8.86096 21.7487 7.5955C21.7487 6.34875 21.3038 5.26738 20.4249 4.37794C19.7393 3.68416 18.8887 3.23435 17.9382 3.06299C17.5496 2.99298 16.7862 2.97829 16.4474 3.03432ZM32.4027 3.58628C32.2092 3.63922 31.7835 3.90051 31.5801 4.0912C31.4505 4.2127 31.3104 4.41498 31.0022 4.92618C30.3153 6.06528 29.296 7.75136 29.1268 8.02845C29.0385 8.17303 28.6127 8.87581 28.1806 9.59018C27.7485 10.3046 27.1797 11.2439 26.9165 11.6776C26.6533 12.1114 26.2079 12.8489 25.9266 13.3167C25.6454 13.7844 25.3928 14.1898 25.3655 14.2176C25.32 14.2637 24.6387 14.2724 17.4351 14.3191C12.4875 14.3512 9.47292 14.382 9.33521 14.4019C9.04298 14.4443 8.46445 14.6369 8.09975 14.8132C7.67288 15.0197 7.1995 15.3531 6.84958 15.6938C6.35142 16.1789 6.13789 16.5375 6.04622 17.0432C5.98873 17.3602 5.99071 16.3593 6.02043 30.1401L6.03851 38.5363L6.11244 38.826C6.22139 39.2531 6.36486 39.5079 6.67393 39.8234C6.88638 40.0402 6.98314 40.1133 7.19304 40.2156C7.77958 40.5014 8.39634 40.5084 8.98295 40.2357L9.20397 40.133L9.20531 49.2307C9.20604 54.4218 9.21827 58.3816 9.23373 58.4522C9.43704 59.3798 9.8674 60.0577 10.532 60.4972C10.9918 60.8012 11.5024 60.9663 12.0731 60.9954C12.4788 61.0161 12.8171 60.9681 13.2181 60.833C13.5907 60.7075 13.812 60.5965 14.0981 60.3916C14.676 59.9778 15.0973 59.3851 15.3118 58.6841C15.5085 58.0415 15.4939 58.3687 15.5037 54.3855C15.5086 52.387 15.5216 47.7006 15.5326 43.9714L15.5525 37.191H17.2526H18.9527L18.9709 37.8173C18.9809 38.1617 19.0304 42.7576 19.0809 48.0304C19.1314 53.3031 19.1782 57.7425 19.1849 57.8955C19.2279 58.8793 19.5204 59.5832 20.1207 60.1479C20.4778 60.4838 20.8878 60.7072 21.4163 60.854C21.7642 60.9507 22.4957 60.9507 22.8436 60.854C23.3861 60.7033 23.7924 60.4791 24.1614 60.1269C24.6023 59.7061 24.8978 59.157 25.0296 58.514C25.0552 58.3891 25.1084 54.948 25.3303 39.0466C25.4473 30.6591 25.4739 28.8441 25.5465 24.2952L25.5793 22.2386L25.7035 22.0067C25.7718 21.8791 25.9471 21.566 26.0932 21.3109C26.5615 20.4927 26.7218 20.2014 26.7996 20.0275C26.8415 19.9339 27.0131 19.6069 27.181 19.3007C27.349 18.9946 27.5413 18.6397 27.6084 18.5121C27.6755 18.3846 27.8329 18.0923 27.9583 17.8627C28.1879 17.4421 28.4986 16.8676 29.0202 15.8989C29.1759 15.6098 29.4164 15.1645 29.5546 14.9093C29.6928 14.6542 30.5154 13.1304 31.3826 11.523C32.2498 9.91567 33.0833 8.37095 33.2347 8.0903C33.3862 7.80966 33.6372 7.34346 33.7927 7.05431C33.9481 6.76515 34.1141 6.46901 34.1617 6.39618C34.5149 5.85502 34.5532 5.74196 34.5521 5.24517C34.5511 4.82515 34.5015 4.65759 34.2765 4.31435C33.9597 3.83093 33.3937 3.54267 32.7695 3.54691C32.6437 3.54775 32.4787 3.56547 32.4027 3.58628ZM17.9374 3.91885C19.1329 4.16409 20.1557 5.01722 20.6379 6.17136C20.8122 6.58842 20.8857 6.94264 20.9027 7.44706C20.9276 8.18939 20.8384 8.60902 20.5125 9.28093C20.0359 10.2634 19.1524 10.969 18.0296 11.2637C17.7198 11.3451 17.6513 11.3518 17.1303 11.3517C16.6401 11.3517 16.5284 11.3422 16.2767 11.2788C14.8438 10.9182 13.8106 9.90438 13.4368 8.49233C13.3453 8.14662 13.324 7.33121 13.3958 6.92436C13.6226 5.63944 14.573 4.50986 15.8041 4.06194C16.4429 3.82954 17.2409 3.77601 17.9374 3.91885ZM33.2013 4.46425C33.3961 4.55167 33.5479 4.69919 33.6404 4.89099C33.7112 5.03785 33.7197 5.08764 33.7096 5.29864C33.703 5.43623 33.6774 5.57861 33.6498 5.63174C33.5654 5.79419 33.2209 6.3981 33.1029 6.59043C33.0404 6.69248 32.9377 6.87339 32.8747 6.99246C32.8117 7.11152 32.6546 7.40376 32.5255 7.64189C32.3964 7.88001 32.1631 8.31142 32.007 8.60057C31.851 8.88972 31.6102 9.33505 31.472 9.59018C31.3338 9.84532 30.6279 11.1535 29.9033 12.4972C29.1787 13.8409 28.4692 15.156 28.3267 15.4196C27.7547 16.4774 27.5532 16.8506 27.2662 17.3834C26.9897 17.8969 26.626 18.5699 26.0547 19.6255C25.4476 20.7472 25.0882 21.3958 24.9071 21.6968C24.8204 21.841 24.7437 21.9871 24.7367 22.0215C24.7297 22.0559 24.6957 24.1645 24.661 26.7074C24.5781 32.789 24.4016 45.4298 24.3253 50.7518C24.2918 53.082 24.2566 55.6635 24.247 56.4884C24.2283 58.1008 24.2033 58.4248 24.0701 58.7837C23.6181 60.0018 22.1087 60.483 20.9894 59.7659C20.5459 59.4818 20.1977 58.9707 20.1044 58.4667C20.037 58.1033 20.0005 56.0225 19.9196 47.953C19.879 43.8964 19.837 39.7285 19.8264 38.6909C19.8082 36.9187 19.8035 36.7968 19.7486 36.6776C19.6847 36.5392 19.5974 36.4825 19.3253 36.4028C19.178 36.3597 18.9082 36.3548 17.115 36.3626L15.0725 36.3715L14.9243 36.4455C14.822 36.4966 14.7637 36.5496 14.736 36.6168C14.7033 36.6963 14.6927 38.6008 14.6781 46.9956C14.6682 52.6504 14.6526 57.4762 14.6434 57.7197C14.6278 58.1309 14.6189 58.1825 14.519 58.4464C14.3715 58.8357 14.2571 59.0459 14.0625 59.2852C13.7682 59.6471 13.3449 59.9277 12.8623 60.0806C12.6674 60.1424 12.5706 60.153 12.2068 60.1522C11.8081 60.1514 11.7624 60.145 11.5129 60.0553C10.8549 59.8186 10.4155 59.3813 10.2009 58.7497C10.1191 58.509 10.1078 58.4266 10.0834 57.8956C10.0447 57.0508 10.0491 39.4077 10.0882 38.7682C10.128 38.1171 10.1767 21.6933 10.1392 21.5446C10.0839 21.3246 9.83774 21.1901 9.62254 21.2621C9.50651 21.301 9.37381 21.4301 9.3428 21.5342C9.31177 21.6385 9.30226 22.7587 9.29522 27.1403C9.29168 29.343 9.27692 31.2913 9.26241 31.4699C9.24793 31.6484 9.23229 33.381 9.22766 35.3201L9.21921 38.8455L9.12965 39.0096C9.01414 39.221 8.85003 39.3696 8.59801 39.4907C8.41509 39.5786 8.36887 39.5877 8.10648 39.5868C7.8461 39.586 7.79617 39.5761 7.61185 39.4883C7.25547 39.3186 6.9957 38.9698 6.9186 38.5575C6.89882 38.4516 6.87644 34.6496 6.85553 27.842L6.82312 17.2906L6.89867 17.0674C6.99381 16.7862 7.11304 16.6093 7.40458 16.3164C7.8604 15.8587 8.61797 15.4293 9.23354 15.2799L9.52407 15.2094L14.3256 15.1744C16.9664 15.1552 20.6066 15.1306 22.4149 15.1198C25.694 15.1002 25.7029 15.1 25.7982 15.0349C25.906 14.9611 25.9576 14.8876 26.2985 14.3218C26.7035 13.6493 27.1953 12.8353 27.5411 12.2652C27.7217 11.9676 27.9822 11.5362 28.12 11.3065C28.2579 11.0769 28.5696 10.562 28.8128 10.1623C29.056 9.76259 29.444 9.12244 29.6752 8.73974C29.9063 8.35704 30.3316 7.65426 30.6202 7.17801C30.9088 6.70176 31.1686 6.26528 31.1976 6.20807C31.2266 6.15082 31.3041 6.02558 31.3698 5.92974C31.4355 5.83387 31.6394 5.52582 31.823 5.24517C32.0065 4.96453 32.2112 4.68094 32.2778 4.61498C32.5101 4.38502 32.8874 4.32341 33.2013 4.46425ZM53.1841 13.8124C53.1362 13.8269 53.0691 13.864 53.0351 13.8947C52.905 14.0122 52.8901 14.1116 52.8901 14.862C52.8901 15.5402 52.8874 15.5742 52.8324 15.5742C52.6917 15.5742 52.0496 15.7651 51.8148 15.8767C50.4288 16.5356 49.8234 17.9269 50.3891 19.1532C50.7633 19.9645 51.6379 20.5957 52.6538 20.7878L52.9511 20.844V21.4048C52.9511 21.7133 52.9602 22.6792 52.9714 23.5515L52.9916 25.1373L52.857 25.1161C51.8711 24.9609 51.1024 24.3775 50.8324 23.5794C50.7793 23.4223 50.7395 23.3995 50.5183 23.3988C50.3724 23.3983 50.2247 23.4625 50.1958 23.5389C50.1231 23.731 50.3588 24.2235 50.7238 24.6421C51.146 25.1264 51.9736 25.5444 52.733 25.6571L52.9816 25.6939L52.9819 25.961C52.9824 26.371 53.0134 27.3294 53.0298 27.4395C53.0473 27.5568 53.2093 27.7126 53.3453 27.7429C53.4624 27.769 53.6377 27.6864 53.7265 27.5633C53.7862 27.4806 53.7899 27.4291 53.7984 26.566L53.8073 25.6559H53.8803C53.9205 25.6559 54.0468 25.6341 54.161 25.6074C56.0191 25.1731 57.0149 23.5503 56.3325 22.0686C56.1575 21.6885 55.7805 21.2552 55.3928 20.9882C55.002 20.7192 54.3859 20.4554 53.99 20.3876L53.759 20.3481L53.7403 19.2059C53.7301 18.5777 53.7198 17.6206 53.7174 17.0789L53.7132 16.0942L53.8733 16.1161C54.2747 16.1713 54.732 16.352 55.0854 16.5951C55.3179 16.7551 55.6294 17.0994 55.7498 17.3294C55.9589 17.7291 56.2416 17.7877 56.4188 17.4679L56.4867 17.3454L56.3961 17.1633C55.9961 16.3601 55.1106 15.7658 54.0456 15.5859L53.7226 15.5313L53.695 14.782C53.6679 14.0438 53.6664 14.0316 53.5913 13.9491C53.521 13.8719 53.3514 13.7769 53.295 13.7832C53.2819 13.7847 53.232 13.7978 53.1841 13.8124ZM52.9272 18.1952C52.935 19.3305 52.9368 20.2652 52.9311 20.2722C52.9254 20.2792 52.8007 20.255 52.6539 20.2184C52.3315 20.1378 51.9065 19.9338 51.6482 19.7358C50.5913 18.9249 50.5875 17.4937 51.6402 16.6721C51.9443 16.4348 52.6026 16.141 52.8481 16.133L52.9128 16.1309L52.9272 18.1952ZM54.097 21.0178C54.4248 21.1028 54.85 21.3184 55.1202 21.5365C55.7678 22.0592 56.022 22.8407 55.7883 23.5903C55.6539 24.0214 55.2531 24.4914 54.7914 24.7594C54.5407 24.9049 54.1336 25.0577 53.9158 25.0879L53.7742 25.1076V23.7323C53.7742 22.9758 53.7651 22.0415 53.7541 21.6561C53.7308 20.8446 53.6939 20.9132 54.097 21.0178ZM53.2712 28.8913C50.9344 28.9179 49.6338 28.9438 49.5595 28.9653C49.4941 28.9842 49.4169 29.0371 49.3791 29.0891L49.3129 29.1799L49.3193 31.2449C49.3227 32.3807 49.3526 39.3183 49.3857 46.6619C49.4364 57.9546 49.4523 60.0318 49.4886 60.1299C49.5122 60.1937 49.5401 60.2856 49.5507 60.3341C49.5792 60.4652 49.6502 60.5595 49.7601 60.6124C49.8456 60.6535 50.355 60.6621 53.7596 60.6796C57.6508 60.6996 57.6614 60.6995 57.7586 60.6366C57.896 60.5477 57.9483 60.4526 57.9841 60.2269C58.0054 60.0929 58.0053 57.9795 57.9837 53.582C57.9663 50.0353 57.9448 45.0182 57.936 42.4329C57.9272 39.8475 57.9131 37.2799 57.9048 36.7272C57.8965 36.1744 57.8885 34.2887 57.8872 32.5368C57.8857 30.5896 57.8731 29.2974 57.8549 29.2123C57.7938 28.9269 57.6328 28.8392 57.182 28.8458C57.0096 28.8483 55.2497 28.8688 53.2712 28.8913ZM57.0787 32.1579C57.0893 33.5229 57.1181 39.6218 57.1426 45.711C57.167 51.8002 57.1932 57.4807 57.2008 58.3343L57.2146 59.8864L53.7491 59.869C51.843 59.8594 50.2749 59.8429 50.2642 59.8322C50.245 59.8131 50.1026 29.7721 50.1217 29.7528C50.1328 29.7415 54.4489 29.6894 56.0341 29.6814L57.0593 29.6762L57.0787 32.1579ZM42.2353 39.3389C39.384 39.3707 39.1176 39.3781 39.027 39.4272C38.9146 39.4882 38.8472 39.5801 38.8047 39.7305C38.7685 39.8585 38.9431 59.7191 38.9837 60.1021C39.0076 60.3269 39.0227 60.372 39.1 60.4505C39.1564 60.5077 39.2366 60.5489 39.3196 60.5633C39.3915 60.5758 41.1804 60.5681 43.2949 60.5462C47.553 60.502 47.2741 60.5187 47.4078 60.2993C47.4744 60.19 47.4749 60.1794 47.4695 58.8877C47.4665 58.1719 47.4497 53.5853 47.432 48.6953C47.4144 43.8052 47.3924 39.7288 47.3832 39.6366C47.3703 39.5074 47.3467 39.449 47.2802 39.3815L47.194 39.294L46.2694 39.2991C45.7609 39.3019 43.9456 39.3198 42.2353 39.3389ZM46.5906 41.4355C46.6007 42.1712 46.616 44.9231 46.6248 47.551C46.6335 50.1789 46.6496 53.9868 46.6606 56.013L46.6805 59.6971L44.397 59.7192C43.141 59.7314 41.5852 59.7435 40.9397 59.7462L39.766 59.7511L39.6762 49.9873C39.6267 44.6173 39.5954 40.2144 39.6065 40.2031C39.6176 40.1918 41.1327 40.1657 42.9735 40.145C44.8143 40.1243 46.3771 40.1053 46.4464 40.1027L46.5724 40.098L46.5906 41.4355ZM28.8204 50.2741C28.6951 50.3115 28.5752 50.4473 28.535 50.5972C28.5118 50.6838 28.5018 52.1451 28.5017 55.4679C28.5016 59.9264 28.5048 60.2214 28.5549 60.321C28.5842 60.3793 28.6469 60.4558 28.6942 60.4911C28.78 60.5549 28.7921 60.5552 32.5659 60.5643C35.1021 60.5705 36.3874 60.563 36.4601 60.5417C36.6159 60.4959 36.6953 60.3935 36.7639 60.1504C36.8226 59.942 36.8241 59.8256 36.8234 55.3443C36.8228 50.9437 36.8204 50.7465 36.7664 50.6259C36.6985 50.4743 36.5097 50.3088 36.3829 50.2896C36.1988 50.2618 28.9118 50.2469 28.8204 50.2741ZM36.0239 55.4138L36.0162 59.7511H32.6628H29.3094L29.301 55.4834C29.2964 53.1361 29.3001 51.1843 29.3092 51.1461L29.3258 51.0765H32.6787H36.0317L36.0239 55.4138Z" fill="#EC6A2D"/>
<path fill-rule="evenodd" clip-rule="evenodd" d="M16.4474 3.03432C15.4037 3.20695 14.5644 3.64123 13.8202 4.39362C12.9824 5.24066 12.5561 6.22436 12.5063 7.42541C12.4528 8.71518 12.9248 9.92384 13.8407 10.8428C14.4841 11.4883 15.2673 11.9079 16.2157 12.1152C16.676 12.2159 17.5816 12.2168 18.0341 12.117C19.0247 11.8988 19.7401 11.5088 20.4248 10.814C21.3183 9.90729 21.7487 8.86096 21.7487 7.5955C21.7487 6.34875 21.3038 5.26738 20.4249 4.37794C19.7393 3.68416 18.8887 3.23435 17.9382 3.06299C17.5496 2.99298 16.7862 2.97829 16.4474 3.03432ZM32.4027 3.58628C32.2092 3.63922 31.7835 3.90051 31.5801 4.0912C31.4505 4.2127 31.3104 4.41498 31.0022 4.92618C30.3153 6.06528 29.296 7.75136 29.1268 8.02845C29.0385 8.17303 28.6127 8.87581 28.1806 9.59018C27.7485 10.3046 27.1797 11.2439 26.9165 11.6776C26.6533 12.1114 26.2079 12.8489 25.9266 13.3167C25.6454 13.7844 25.3928 14.1898 25.3655 14.2176C25.32 14.2637 24.6387 14.2724 17.4351 14.3191C12.4875 14.3512 9.47292 14.382 9.33521 14.4019C9.04298 14.4443 8.46445 14.6369 8.09975 14.8132C7.67288 15.0197 7.1995 15.3531 6.84958 15.6938C6.35142 16.1789 6.13789 16.5375 6.04622 17.0432C5.98873 17.3602 5.99071 16.3593 6.02043 30.1401L6.03851 38.5363L6.11244 38.826C6.22139 39.2531 6.36486 39.5079 6.67393 39.8234C6.88638 40.0402 6.98314 40.1133 7.19304 40.2156C7.77958 40.5014 8.39634 40.5084 8.98295 40.2357L9.20397 40.133L9.20531 49.2307C9.20604 54.4218 9.21827 58.3816 9.23373 58.4522C9.43704 59.3798 9.8674 60.0577 10.532 60.4972C10.9918 60.8012 11.5024 60.9663 12.0731 60.9954C12.4788 61.0161 12.8171 60.9681 13.2181 60.833C13.5907 60.7075 13.812 60.5965 14.0981 60.3916C14.676 59.9778 15.0973 59.3851 15.3118 58.6841C15.5085 58.0415 15.4939 58.3687 15.5037 54.3855C15.5086 52.387 15.5216 47.7006 15.5326 43.9714L15.5525 37.191H17.2526H18.9527L18.9709 37.8173C18.9809 38.1617 19.0304 42.7576 19.0809 48.0304C19.1314 53.3031 19.1782 57.7425 19.1849 57.8955C19.2279 58.8793 19.5204 59.5832 20.1207 60.1479C20.4778 60.4838 20.8878 60.7072 21.4163 60.854C21.7642 60.9507 22.4957 60.9507 22.8436 60.854C23.3861 60.7033 23.7924 60.4791 24.1614 60.1269C24.6023 59.7061 24.8978 59.157 25.0296 58.514C25.0552 58.3891 25.1084 54.948 25.3303 39.0466C25.4473 30.6591 25.4739 28.8441 25.5465 24.2952L25.5793 22.2386L25.7035 22.0067C25.7718 21.8791 25.9471 21.566 26.0932 21.3109C26.5615 20.4927 26.7218 20.2014 26.7996 20.0275C26.8415 19.9339 27.0131 19.6069 27.181 19.3007C27.349 18.9946 27.5413 18.6397 27.6084 18.5121C27.6755 18.3846 27.8329 18.0923 27.9583 17.8627C28.1879 17.4421 28.4986 16.8676 29.0202 15.8989C29.1759 15.6098 29.4164 15.1645 29.5546 14.9093C29.6928 14.6542 30.5154 13.1304 31.3826 11.523C32.2498 9.91567 33.0833 8.37095 33.2347 8.0903C33.3862 7.80966 33.6372 7.34346 33.7927 7.05431C33.9481 6.76515 34.1141 6.46901 34.1617 6.39618C34.5149 5.85502 34.5532 5.74196 34.5521 5.24517C34.5511 4.82515 34.5015 4.65759 34.2765 4.31435C33.9597 3.83093 33.3937 3.54267 32.7695 3.54691C32.6437 3.54775 32.4787 3.56547 32.4027 3.58628ZM17.9374 3.91885C19.1329 4.16409 20.1557 5.01722 20.6379 6.17136C20.8122 6.58842 20.8857 6.94264 20.9027 7.44706C20.9276 8.18939 20.8384 8.60902 20.5125 9.28093C20.0359 10.2634 19.1524 10.969 18.0296 11.2637C17.7198 11.3451 17.6513 11.3518 17.1303 11.3517C16.6401 11.3517 16.5284 11.3422 16.2767 11.2788C14.8438 10.9182 13.8106 9.90438 13.4368 8.49233C13.3453 8.14662 13.324 7.33121 13.3958 6.92436C13.6226 5.63944 14.573 4.50986 15.8041 4.06194C16.4429 3.82954 17.2409 3.77601 17.9374 3.91885ZM33.2013 4.46425C33.3961 4.55167 33.5479 4.69919 33.6404 4.89099C33.7112 5.03785 33.7197 5.08764 33.7096 5.29864C33.703 5.43623 33.6774 5.57861 33.6498 5.63174C33.5654 5.79419 33.2209 6.3981 33.1029 6.59043C33.0404 6.69248 32.9377 6.87339 32.8747 6.99246C32.8117 7.11152 32.6546 7.40376 32.5255 7.64189C32.3964 7.88001 32.1631 8.31142 32.007 8.60057C31.851 8.88972 31.6102 9.33505 31.472 9.59018C31.3338 9.84532 30.6279 11.1535 29.9033 12.4972C29.1787 13.8409 28.4692 15.156 28.3267 15.4196C27.7547 16.4774 27.5532 16.8506 27.2662 17.3834C26.9897 17.8969 26.626 18.5699 26.0547 19.6255C25.4476 20.7472 25.0882 21.3958 24.9071 21.6968C24.8204 21.841 24.7437 21.9871 24.7367 22.0215C24.7297 22.0559 24.6957 24.1645 24.661 26.7074C24.5781 32.789 24.4016 45.4298 24.3253 50.7518C24.2918 53.082 24.2566 55.6635 24.247 56.4884C24.2283 58.1008 24.2033 58.4248 24.0701 58.7837C23.6181 60.0018 22.1087 60.483 20.9894 59.7659C20.5459 59.4818 20.1977 58.9707 20.1044 58.4667C20.037 58.1033 20.0005 56.0225 19.9196 47.953C19.879 43.8964 19.837 39.7285 19.8264 38.6909C19.8082 36.9187 19.8035 36.7968 19.7486 36.6776C19.6847 36.5392 19.5974 36.4825 19.3253 36.4028C19.178 36.3597 18.9082 36.3548 17.115 36.3626L15.0725 36.3715L14.9243 36.4455C14.822 36.4966 14.7637 36.5496 14.736 36.6168C14.7033 36.6963 14.6927 38.6008 14.6781 46.9956C14.6682 52.6504 14.6526 57.4762 14.6434 57.7197C14.6278 58.1309 14.6189 58.1825 14.519 58.4464C14.3715 58.8357 14.2571 59.0459 14.0625 59.2852C13.7682 59.6471 13.3449 59.9277 12.8623 60.0806C12.6674 60.1424 12.5706 60.153 12.2068 60.1522C11.8081 60.1514 11.7624 60.145 11.5129 60.0553C10.8549 59.8186 10.4155 59.3813 10.2009 58.7497C10.1191 58.509 10.1078 58.4266 10.0834 57.8956C10.0447 57.0508 10.0491 39.4077 10.0882 38.7682C10.128 38.1171 10.1767 21.6933 10.1392 21.5446C10.0839 21.3246 9.83774 21.1901 9.62254 21.2621C9.50651 21.301 9.37381 21.4301 9.3428 21.5342C9.31177 21.6385 9.30226 22.7587 9.29522 27.1403C9.29168 29.343 9.27692 31.2913 9.26241 31.4699C9.24793 31.6484 9.23229 33.381 9.22766 35.3201L9.21921 38.8455L9.12965 39.0096C9.01414 39.221 8.85003 39.3696 8.59801 39.4907C8.41509 39.5786 8.36887 39.5877 8.10648 39.5868C7.8461 39.586 7.79617 39.5761 7.61185 39.4883C7.25547 39.3186 6.9957 38.9698 6.9186 38.5575C6.89882 38.4516 6.87644 34.6496 6.85553 27.842L6.82312 17.2906L6.89867 17.0674C6.99381 16.7862 7.11304 16.6093 7.40458 16.3164C7.8604 15.8587 8.61797 15.4293 9.23354 15.2799L9.52407 15.2094L14.3256 15.1744C16.9664 15.1552 20.6066 15.1306 22.4149 15.1198C25.694 15.1002 25.7029 15.1 25.7982 15.0349C25.906 14.9611 25.9576 14.8876 26.2985 14.3218C26.7035 13.6493 27.1953 12.8353 27.5411 12.2652C27.7217 11.9676 27.9822 11.5362 28.12 11.3065C28.2579 11.0769 28.5696 10.562 28.8128 10.1623C29.056 9.76259 29.444 9.12244 29.6752 8.73974C29.9063 8.35704 30.3316 7.65426 30.6202 7.17801C30.9088 6.70176 31.1686 6.26528 31.1976 6.20807C31.2266 6.15082 31.3041 6.02558 31.3698 5.92974C31.4355 5.83387 31.6394 5.52582 31.823 5.24517C32.0065 4.96453 32.2112 4.68094 32.2778 4.61498C32.5101 4.38502 32.8874 4.32341 33.2013 4.46425ZM53.1841 13.8124C53.1362 13.8269 53.0691 13.864 53.0351 13.8947C52.905 14.0122 52.8901 14.1116 52.8901 14.862C52.8901 15.5402 52.8874 15.5742 52.8324 15.5742C52.6917 15.5742 52.0496 15.7651 51.8148 15.8767C50.4288 16.5356 49.8234 17.9269 50.3891 19.1532C50.7633 19.9645 51.6379 20.5957 52.6538 20.7878L52.9511 20.844V21.4048C52.9511 21.7133 52.9602 22.6792 52.9714 23.5515L52.9916 25.1373L52.857 25.1161C51.8711 24.9609 51.1024 24.3775 50.8324 23.5794C50.7793 23.4223 50.7395 23.3995 50.5183 23.3988C50.3724 23.3983 50.2247 23.4625 50.1958 23.5389C50.1231 23.731 50.3588 24.2235 50.7238 24.6421C51.146 25.1264 51.9736 25.5444 52.733 25.6571L52.9816 25.6939L52.9819 25.961C52.9824 26.371 53.0134 27.3294 53.0298 27.4395C53.0473 27.5568 53.2093 27.7126 53.3453 27.7429C53.4624 27.769 53.6377 27.6864 53.7265 27.5633C53.7862 27.4806 53.7899 27.4291 53.7984 26.566L53.8073 25.6559H53.8803C53.9205 25.6559 54.0468 25.6341 54.161 25.6074C56.0191 25.1731 57.0149 23.5503 56.3325 22.0686C56.1575 21.6885 55.7805 21.2552 55.3928 20.9882C55.002 20.7192 54.3859 20.4554 53.99 20.3876L53.759 20.3481L53.7403 19.2059C53.7301 18.5777 53.7198 17.6206 53.7174 17.0789L53.7132 16.0942L53.8733 16.1161C54.2747 16.1713 54.732 16.352 55.0854 16.5951C55.3179 16.7551 55.6294 17.0994 55.7498 17.3294C55.9589 17.7291 56.2416 17.7877 56.4188 17.4679L56.4867 17.3454L56.3961 17.1633C55.9961 16.3601 55.1106 15.7658 54.0456 15.5859L53.7226 15.5313L53.695 14.782C53.6679 14.0438 53.6664 14.0316 53.5913 13.9491C53.521 13.8719 53.3514 13.7769 53.295 13.7832C53.2819 13.7847 53.232 13.7978 53.1841 13.8124ZM52.9272 18.1952C52.935 19.3305 52.9368 20.2652 52.9311 20.2722C52.9254 20.2792 52.8007 20.255 52.6539 20.2184C52.3315 20.1378 51.9065 19.9338 51.6482 19.7358C50.5913 18.9249 50.5875 17.4937 51.6402 16.6721C51.9443 16.4348 52.6026 16.141 52.8481 16.133L52.9128 16.1309L52.9272 18.1952ZM54.097 21.0178C54.4248 21.1028 54.85 21.3184 55.1202 21.5365C55.7678 22.0592 56.022 22.8407 55.7883 23.5903C55.6539 24.0214 55.2531 24.4914 54.7914 24.7594C54.5407 24.9049 54.1336 25.0577 53.9158 25.0879L53.7742 25.1076V23.7323C53.7742 22.9758 53.7651 22.0415 53.7541 21.6561C53.7308 20.8446 53.6939 20.9132 54.097 21.0178ZM53.2712 28.8913C50.9344 28.9179 49.6338 28.9438 49.5595 28.9653C49.4941 28.9842 49.4169 29.0371 49.3791 29.0891L49.3129 29.1799L49.3193 31.2449C49.3227 32.3807 49.3526 39.3183 49.3857 46.6619C49.4364 57.9546 49.4523 60.0318 49.4886 60.1299C49.5122 60.1937 49.5401 60.2856 49.5507 60.3341C49.5792 60.4652 49.6502 60.5595 49.7601 60.6124C49.8456 60.6535 50.355 60.6621 53.7596 60.6796C57.6508 60.6996 57.6614 60.6995 57.7586 60.6366C57.896 60.5477 57.9483 60.4526 57.9841 60.2269C58.0054 60.0929 58.0053 57.9795 57.9837 53.582C57.9663 50.0353 57.9448 45.0182 57.936 42.4329C57.9272 39.8475 57.9131 37.2799 57.9048 36.7272C57.8965 36.1744 57.8885 34.2887 57.8872 32.5368C57.8857 30.5896 57.8731 29.2974 57.8549 29.2123C57.7938 28.9269 57.6328 28.8392 57.182 28.8458C57.0096 28.8483 55.2497 28.8688 53.2712 28.8913ZM57.0787 32.1579C57.0893 33.5229 57.1181 39.6218 57.1426 45.711C57.167 51.8002 57.1932 57.4807 57.2008 58.3343L57.2146 59.8864L53.7491 59.869C51.843 59.8594 50.2749 59.8429 50.2642 59.8322C50.245 59.8131 50.1026 29.7721 50.1217 29.7528C50.1328 29.7415 54.4489 29.6894 56.0341 29.6814L57.0593 29.6762L57.0787 32.1579ZM42.2353 39.3389C39.384 39.3707 39.1176 39.3781 39.027 39.4272C38.9146 39.4882 38.8472 39.5801 38.8047 39.7305C38.7685 39.8585 38.9431 59.7191 38.9837 60.1021C39.0076 60.3269 39.0227 60.372 39.1 60.4505C39.1564 60.5077 39.2366 60.5489 39.3196 60.5633C39.3915 60.5758 41.1804 60.5681 43.2949 60.5462C47.553 60.502 47.2741 60.5187 47.4078 60.2993C47.4744 60.19 47.4749 60.1794 47.4695 58.8877C47.4665 58.1719 47.4497 53.5853 47.432 48.6953C47.4144 43.8052 47.3924 39.7288 47.3832 39.6366C47.3703 39.5074 47.3467 39.449 47.2802 39.3815L47.194 39.294L46.2694 39.2991C45.7609 39.3019 43.9456 39.3198 42.2353 39.3389ZM46.5906 41.4355C46.6007 42.1712 46.616 44.9231 46.6248 47.551C46.6335 50.1789 46.6496 53.9868 46.6606 56.013L46.6805 59.6971L44.397 59.7192C43.141 59.7314 41.5852 59.7435 40.9397 59.7462L39.766 59.7511L39.6762 49.9873C39.6267 44.6173 39.5954 40.2144 39.6065 40.2031C39.6176 40.1918 41.1327 40.1657 42.9735 40.145C44.8143 40.1243 46.3771 40.1053 46.4464 40.1027L46.5724 40.098L46.5906 41.4355ZM28.8204 50.2741C28.6951 50.3115 28.5752 50.4473 28.535 50.5972C28.5118 50.6838 28.5018 52.1451 28.5017 55.4679C28.5016 59.9264 28.5048 60.2214 28.5549 60.321C28.5842 60.3793 28.6469 60.4558 28.6942 60.4911C28.78 60.5549 28.7921 60.5552 32.5659 60.5643C35.1021 60.5705 36.3874 60.563 36.4601 60.5417C36.6159 60.4959 36.6953 60.3935 36.7639 60.1504C36.8226 59.942 36.8241 59.8256 36.8234 55.3443C36.8228 50.9437 36.8204 50.7465 36.7664 50.6259C36.6985 50.4743 36.5097 50.3088 36.3829 50.2896C36.1988 50.2618 28.9118 50.2469 28.8204 50.2741ZM36.0239 55.4138L36.0162 59.7511H32.6628H29.3094L29.301 55.4834C29.2964 53.1361 29.3001 51.1843 29.3092 51.1461L29.3258 51.0765H32.6787H36.0317L36.0239 55.4138Z" stroke="#EC6A2D" stroke-width="0.2" mask="url(#path-1-outside-1_1440_31979)"/>
</svg>
