<svg width="64" height="64" viewBox="0 0 64 64" fill="none" xmlns="http://www.w3.org/2000/svg">
<mask id="path-1-outside-1_1424_31876" maskUnits="userSpaceOnUse" x="8" y="1.5" width="48" height="61" fill="black">
<rect fill="white" x="8" y="1.5" width="48" height="61"/>
<path fill-rule="evenodd" clip-rule="evenodd" d="M9.19998 2.61144C9.09239 2.70618 9.07075 2.74639 9.05525 2.8802C9.04521 2.96676 9.0287 4.09451 9.0185 5.38632L9 7.73506L9.09076 7.88804C9.15611 7.99821 9.2181 8.05789 9.31222 8.10139C9.43861 8.15974 9.49337 8.16204 10.9529 8.17076L12.4628 8.17977L12.4805 8.25712C12.4903 8.29967 12.6967 9.54571 12.9393 11.0261C13.5506 14.7567 14.1002 18.1052 14.3307 19.504C14.4377 20.1532 14.6943 21.7142 14.9008 22.9729C15.1074 24.2317 15.3574 25.7538 15.4564 26.3554C15.5554 26.9571 15.7992 28.4404 15.9982 29.6516C16.3556 31.8273 16.6306 33.2009 16.8282 33.797C16.8728 33.9316 16.9628 34.2036 17.0282 34.4016C17.4462 35.6673 18.1252 36.9656 18.9178 38.0144C19.788 39.1659 20.8928 40.2181 22.1279 41.0714C22.406 41.2635 23.2589 41.7864 23.3265 41.8063C23.3456 41.8119 23.3737 42.5482 23.3979 43.6777L23.438 45.5398L23.5164 45.6134C23.5596 45.6538 23.6473 45.6987 23.7114 45.7133C23.7756 45.7278 24.5785 45.7487 25.4958 45.7598L27.1637 45.7799L27.1536 45.8986C27.1127 46.3826 26.9114 47.2009 26.6886 47.7883C25.6133 50.6235 23.1019 53.6824 20.2808 55.5932C19.3509 56.223 18.2252 56.7852 17.4904 56.9866C17.1812 57.0713 17.0428 57.1514 16.982 57.2807C16.9543 57.3395 16.9466 57.8453 16.9533 59.1596L16.9624 60.958L17.039 61.0758C17.1706 61.2778 17.2511 61.3023 17.8124 61.3114C21.8265 61.3761 33.8766 61.4649 42.763 61.4952C45.6452 61.505 45.6457 61.505 45.7381 61.4448C45.884 61.3497 45.9718 61.2129 45.9913 61.0501C46.0012 60.9678 46.0258 60.154 46.046 59.2417C46.0805 57.6888 46.0792 57.5762 46.0262 57.4779C45.9535 57.343 45.8536 57.2838 45.5604 57.2023C45.0868 57.0705 44.2002 56.656 43.5425 56.2589C40.8223 54.6165 38.132 51.5907 36.8756 48.7605C36.4195 47.7332 36.1642 46.8585 36.0858 46.054L36.0641 45.8315L37.8088 45.8381C39.181 45.8432 39.5691 45.8367 39.627 45.8076C39.8008 45.7202 39.7964 45.7545 39.8661 43.9409C39.902 43.0088 39.9393 42.1781 39.9491 42.0948L39.9669 41.9435L40.3977 41.6956C42.8665 40.2746 44.7466 38.2832 45.907 35.8602C46.2246 35.1968 46.635 34.0814 46.7932 33.4516C47.1494 32.0331 47.0893 32.3307 47.7908 28.5073C48.3134 25.6589 48.773 23.1544 49.2607 20.4972C49.5034 19.1751 49.8492 17.2903 50.0293 16.3086C50.2094 15.327 50.6146 13.119 50.9297 11.402C51.2449 9.68501 51.5028 8.27172 51.5028 8.26133C51.5028 8.25096 52.1753 8.23309 52.9972 8.2216C54.5878 8.19938 54.6248 8.1959 54.7993 8.05242C54.9874 7.89777 54.9781 8.02374 54.9945 5.4101C55.006 3.58664 55.0002 2.97859 54.9704 2.89934C54.9489 2.84182 54.8896 2.76387 54.8386 2.7261L54.7459 2.65744L49.0296 2.63876C45.8855 2.62848 41.0549 2.6136 38.2948 2.60565C35.5346 2.59773 31.7095 2.58484 29.7945 2.57698C27.8795 2.56909 23.054 2.55611 19.0711 2.5481C15.0883 2.5401 11.2664 2.526 10.578 2.51678L9.32651 2.5L9.19998 2.61144ZM27.1782 3.34247C32.5452 3.3587 36.9384 3.37448 36.9409 3.37753C36.9433 3.38055 36.9622 6.41435 36.9828 10.1193C37.0034 13.8243 37.0298 18.164 37.0415 19.7631L37.0627 22.6707L37.1668 22.7625C37.288 22.8695 37.3988 22.9005 37.5629 22.8735C37.6971 22.8513 37.4741 23.0361 40.7727 20.2139L42.9728 18.3315L43.3228 18.6301C43.5153 18.7943 44.6454 19.7544 45.8342 20.7636L47.9956 22.5986L47.952 22.8361C47.7508 23.9313 46.8601 28.7838 46.5979 30.213C46.4179 31.1946 46.2262 32.1662 46.1721 32.372C45.788 33.8313 45.6017 34.4311 45.3392 35.0529C44.2664 37.5942 42.3489 39.6979 39.7986 41.1318C39.5739 41.2582 39.2502 41.4269 39.0794 41.5067L38.7688 41.6519L31.5436 41.5383C25.3143 41.4405 24.3032 41.4187 24.2078 41.3807C24.0126 41.3029 23.2852 40.8809 22.8472 40.5914C21.0889 39.4294 19.6826 37.9218 18.7246 36.172C18.1475 35.1178 17.7685 34.0839 17.4475 32.6887C17.422 32.5779 17.3571 32.3058 17.3032 32.0842C17.2195 31.7403 16.8677 29.6343 15.6221 22.0229C15.5068 21.3184 15.1611 19.2133 14.8539 17.345C14.0387 12.3873 13.5943 9.68188 13.4825 8.99659C13.4283 8.66409 13.3752 8.34789 13.3644 8.29392L13.3449 8.19578L15.4713 8.21271C16.7893 8.22319 17.6408 8.21916 17.7111 8.20206C17.8496 8.16837 17.9824 8.03584 18.0107 7.90307C18.0366 7.78147 17.9511 7.61586 17.8183 7.5303C17.7289 7.47272 17.673 7.47022 16.0528 7.45076C15.1326 7.4397 13.3682 7.42194 12.132 7.41129L9.88432 7.39194V6.68046C9.88432 6.28913 9.8941 5.36338 9.90603 4.62322L9.92777 3.27746L13.6739 3.2952C15.7343 3.30493 21.8113 3.3262 27.1782 3.34247ZM47.7965 3.40853C47.799 3.41035 47.8101 4.53885 47.8214 5.91633C47.8327 7.29381 47.8489 8.64106 47.8575 8.91023C47.8661 9.17939 47.8808 10.4878 47.8902 11.8178C47.8995 13.1477 47.9142 14.5209 47.9229 14.8692C47.9316 15.2176 47.9462 16.5195 47.9555 17.7624C47.9648 19.0053 47.9815 20.3651 47.9927 20.7843L48.013 21.5464L47.6878 21.2737C47.509 21.1237 46.4328 20.2108 45.2964 19.2449C43.9192 18.0744 43.1868 17.4717 43.1 17.4374C42.9227 17.3673 42.7444 17.4085 42.6189 17.5487C42.5365 17.6407 38.7884 20.8641 38.1951 21.353L37.9426 21.5612L37.923 20.6621C37.9122 20.1677 37.8885 16.4533 37.8704 12.4079C37.8522 8.36255 37.8292 4.67317 37.8193 4.20929L37.8012 3.36584L42.7967 3.38556C45.5442 3.39639 47.7941 3.40672 47.7965 3.40853ZM53.2276 3.42618L54.1187 3.42621L54.1103 5.43414L54.1019 7.44206L51.427 7.46648C49.9558 7.47989 48.7444 7.48409 48.735 7.47583C48.7125 7.45597 48.6951 6.67439 48.6773 4.86809L48.6626 3.38804L50.4996 3.40709C51.5099 3.41757 52.7375 3.42615 53.2276 3.42618ZM50.6198 8.26971C50.6195 8.28951 50.4597 9.17363 50.2644 10.2345C50.0693 11.2953 49.6692 13.4743 49.3754 15.0768C49.0816 16.6793 48.8385 17.9877 48.8353 17.9844C48.832 17.981 48.8202 17.1103 48.8091 16.0495C48.798 14.9887 48.7817 13.6544 48.7729 13.0844C48.7641 12.5144 48.7477 11.1966 48.7365 10.1558L48.7161 8.26363L49.4474 8.25528C49.8497 8.25071 50.278 8.24397 50.3994 8.24034C50.5584 8.23556 50.62 8.2438 50.6198 8.26971ZM43.0809 33.7806C42.9384 33.8352 42.8699 33.9353 42.7108 34.3207C42.4784 34.8837 42.0466 35.6269 41.61 36.2152C40.5558 37.636 39.0968 38.7388 37.8397 39.0651C37.4585 39.164 37.3088 39.3542 37.4163 39.6031C37.525 39.8544 37.7664 39.8939 38.2621 39.7412C40.2614 39.1253 42.2184 37.2784 43.3711 34.9197C43.6992 34.2482 43.7374 34.0682 43.5873 33.9001C43.453 33.7498 43.2725 33.7072 43.0809 33.7806ZM33.1207 42.3306C36.3617 42.3814 39.0226 42.4313 39.034 42.4413C39.0573 42.4618 38.9564 45.0557 38.9314 45.0777C38.9226 45.0855 37.1684 45.0766 35.0333 45.0579C32.8982 45.0392 29.6102 45.0156 27.7267 45.0053L24.302 44.9865L24.3009 44.8254C24.3003 44.7368 24.2866 44.127 24.2705 43.4702C24.2487 42.5832 24.2508 42.2658 24.2786 42.2364C24.3216 42.1907 23.9817 42.1871 33.1207 42.3306ZM33.0802 45.8188C34.231 45.8284 35.1751 45.8381 35.1782 45.8406C35.1813 45.843 35.2004 45.9809 35.2207 46.147C35.3784 47.4419 35.8334 48.716 36.6754 50.2203C38.1784 52.9054 40.6547 55.4741 43.1694 56.9564L43.542 57.1761L38.4255 57.1598C32.1823 57.1399 30.5757 57.1277 24.7761 57.0562C22.2767 57.0254 20.0639 57.0001 19.8586 57L19.4856 56.9997L19.933 56.7412C21.3364 55.9302 22.7854 54.7529 24.0435 53.4013C26.2549 51.0256 27.8164 48.1176 28.0168 46.0015L28.0391 45.7657L29.5135 45.7836C30.3244 45.7934 31.9294 45.8093 33.0802 45.8188ZM29.1471 47.2889C29.0148 47.3464 28.959 47.4373 28.9295 47.6438C28.8524 48.1844 28.7013 48.8737 28.6109 49.0976C28.4492 49.4979 27.9634 50.2667 27.7082 50.526C27.4897 50.748 27.4406 50.8264 27.4406 50.953C27.4406 51.0187 27.4629 51.1104 27.4902 51.1568C27.592 51.3301 27.9063 51.389 28.0956 51.2703C28.3288 51.1241 28.7842 50.5436 29.1045 49.9843C29.4078 49.4546 29.4868 49.2056 29.6145 48.3762C29.7421 47.5474 29.7223 47.3855 29.4804 47.2844C29.3486 47.2294 29.2823 47.2302 29.1471 47.2889ZM24.2203 57.8239C28.3556 57.8788 31.7426 57.9041 37.2322 57.921C41.314 57.9335 44.7767 57.9451 44.9271 57.9467L45.2006 57.9497L45.18 58.9501C45.1686 59.5003 45.1505 60.13 45.1396 60.3494L45.1199 60.7483L41.6501 60.7297C31.6747 60.6764 17.8724 60.5632 17.8454 60.5346C17.8411 60.53 17.8294 59.9011 17.8195 59.1372L17.8015 57.7482L18.2156 57.7489C18.4434 57.7493 21.1455 57.783 24.2203 57.8239Z"/>
</mask>
<path fill-rule="evenodd" clip-rule="evenodd" d="M9.19998 2.61144C9.09239 2.70618 9.07075 2.74639 9.05525 2.8802C9.04521 2.96676 9.0287 4.09451 9.0185 5.38632L9 7.73506L9.09076 7.88804C9.15611 7.99821 9.2181 8.05789 9.31222 8.10139C9.43861 8.15974 9.49337 8.16204 10.9529 8.17076L12.4628 8.17977L12.4805 8.25712C12.4903 8.29967 12.6967 9.54571 12.9393 11.0261C13.5506 14.7567 14.1002 18.1052 14.3307 19.504C14.4377 20.1532 14.6943 21.7142 14.9008 22.9729C15.1074 24.2317 15.3574 25.7538 15.4564 26.3554C15.5554 26.9571 15.7992 28.4404 15.9982 29.6516C16.3556 31.8273 16.6306 33.2009 16.8282 33.797C16.8728 33.9316 16.9628 34.2036 17.0282 34.4016C17.4462 35.6673 18.1252 36.9656 18.9178 38.0144C19.788 39.1659 20.8928 40.2181 22.1279 41.0714C22.406 41.2635 23.2589 41.7864 23.3265 41.8063C23.3456 41.8119 23.3737 42.5482 23.3979 43.6777L23.438 45.5398L23.5164 45.6134C23.5596 45.6538 23.6473 45.6987 23.7114 45.7133C23.7756 45.7278 24.5785 45.7487 25.4958 45.7598L27.1637 45.7799L27.1536 45.8986C27.1127 46.3826 26.9114 47.2009 26.6886 47.7883C25.6133 50.6235 23.1019 53.6824 20.2808 55.5932C19.3509 56.223 18.2252 56.7852 17.4904 56.9866C17.1812 57.0713 17.0428 57.1514 16.982 57.2807C16.9543 57.3395 16.9466 57.8453 16.9533 59.1596L16.9624 60.958L17.039 61.0758C17.1706 61.2778 17.2511 61.3023 17.8124 61.3114C21.8265 61.3761 33.8766 61.4649 42.763 61.4952C45.6452 61.505 45.6457 61.505 45.7381 61.4448C45.884 61.3497 45.9718 61.2129 45.9913 61.0501C46.0012 60.9678 46.0258 60.154 46.046 59.2417C46.0805 57.6888 46.0792 57.5762 46.0262 57.4779C45.9535 57.343 45.8536 57.2838 45.5604 57.2023C45.0868 57.0705 44.2002 56.656 43.5425 56.2589C40.8223 54.6165 38.132 51.5907 36.8756 48.7605C36.4195 47.7332 36.1642 46.8585 36.0858 46.054L36.0641 45.8315L37.8088 45.8381C39.181 45.8432 39.5691 45.8367 39.627 45.8076C39.8008 45.7202 39.7964 45.7545 39.8661 43.9409C39.902 43.0088 39.9393 42.1781 39.9491 42.0948L39.9669 41.9435L40.3977 41.6956C42.8665 40.2746 44.7466 38.2832 45.907 35.8602C46.2246 35.1968 46.635 34.0814 46.7932 33.4516C47.1494 32.0331 47.0893 32.3307 47.7908 28.5073C48.3134 25.6589 48.773 23.1544 49.2607 20.4972C49.5034 19.1751 49.8492 17.2903 50.0293 16.3086C50.2094 15.327 50.6146 13.119 50.9297 11.402C51.2449 9.68501 51.5028 8.27172 51.5028 8.26133C51.5028 8.25096 52.1753 8.23309 52.9972 8.2216C54.5878 8.19938 54.6248 8.1959 54.7993 8.05242C54.9874 7.89777 54.9781 8.02374 54.9945 5.4101C55.006 3.58664 55.0002 2.97859 54.9704 2.89934C54.9489 2.84182 54.8896 2.76387 54.8386 2.7261L54.7459 2.65744L49.0296 2.63876C45.8855 2.62848 41.0549 2.6136 38.2948 2.60565C35.5346 2.59773 31.7095 2.58484 29.7945 2.57698C27.8795 2.56909 23.054 2.55611 19.0711 2.5481C15.0883 2.5401 11.2664 2.526 10.578 2.51678L9.32651 2.5L9.19998 2.61144ZM27.1782 3.34247C32.5452 3.3587 36.9384 3.37448 36.9409 3.37753C36.9433 3.38055 36.9622 6.41435 36.9828 10.1193C37.0034 13.8243 37.0298 18.164 37.0415 19.7631L37.0627 22.6707L37.1668 22.7625C37.288 22.8695 37.3988 22.9005 37.5629 22.8735C37.6971 22.8513 37.4741 23.0361 40.7727 20.2139L42.9728 18.3315L43.3228 18.6301C43.5153 18.7943 44.6454 19.7544 45.8342 20.7636L47.9956 22.5986L47.952 22.8361C47.7508 23.9313 46.8601 28.7838 46.5979 30.213C46.4179 31.1946 46.2262 32.1662 46.1721 32.372C45.788 33.8313 45.6017 34.4311 45.3392 35.0529C44.2664 37.5942 42.3489 39.6979 39.7986 41.1318C39.5739 41.2582 39.2502 41.4269 39.0794 41.5067L38.7688 41.6519L31.5436 41.5383C25.3143 41.4405 24.3032 41.4187 24.2078 41.3807C24.0126 41.3029 23.2852 40.8809 22.8472 40.5914C21.0889 39.4294 19.6826 37.9218 18.7246 36.172C18.1475 35.1178 17.7685 34.0839 17.4475 32.6887C17.422 32.5779 17.3571 32.3058 17.3032 32.0842C17.2195 31.7403 16.8677 29.6343 15.6221 22.0229C15.5068 21.3184 15.1611 19.2133 14.8539 17.345C14.0387 12.3873 13.5943 9.68188 13.4825 8.99659C13.4283 8.66409 13.3752 8.34789 13.3644 8.29392L13.3449 8.19578L15.4713 8.21271C16.7893 8.22319 17.6408 8.21916 17.7111 8.20206C17.8496 8.16837 17.9824 8.03584 18.0107 7.90307C18.0366 7.78147 17.9511 7.61586 17.8183 7.5303C17.7289 7.47272 17.673 7.47022 16.0528 7.45076C15.1326 7.4397 13.3682 7.42194 12.132 7.41129L9.88432 7.39194V6.68046C9.88432 6.28913 9.8941 5.36338 9.90603 4.62322L9.92777 3.27746L13.6739 3.2952C15.7343 3.30493 21.8113 3.3262 27.1782 3.34247ZM47.7965 3.40853C47.799 3.41035 47.8101 4.53885 47.8214 5.91633C47.8327 7.29381 47.8489 8.64106 47.8575 8.91023C47.8661 9.17939 47.8808 10.4878 47.8902 11.8178C47.8995 13.1477 47.9142 14.5209 47.9229 14.8692C47.9316 15.2176 47.9462 16.5195 47.9555 17.7624C47.9648 19.0053 47.9815 20.3651 47.9927 20.7843L48.013 21.5464L47.6878 21.2737C47.509 21.1237 46.4328 20.2108 45.2964 19.2449C43.9192 18.0744 43.1868 17.4717 43.1 17.4374C42.9227 17.3673 42.7444 17.4085 42.6189 17.5487C42.5365 17.6407 38.7884 20.8641 38.1951 21.353L37.9426 21.5612L37.923 20.6621C37.9122 20.1677 37.8885 16.4533 37.8704 12.4079C37.8522 8.36255 37.8292 4.67317 37.8193 4.20929L37.8012 3.36584L42.7967 3.38556C45.5442 3.39639 47.7941 3.40672 47.7965 3.40853ZM53.2276 3.42618L54.1187 3.42621L54.1103 5.43414L54.1019 7.44206L51.427 7.46648C49.9558 7.47989 48.7444 7.48409 48.735 7.47583C48.7125 7.45597 48.6951 6.67439 48.6773 4.86809L48.6626 3.38804L50.4996 3.40709C51.5099 3.41757 52.7375 3.42615 53.2276 3.42618ZM50.6198 8.26971C50.6195 8.28951 50.4597 9.17363 50.2644 10.2345C50.0693 11.2953 49.6692 13.4743 49.3754 15.0768C49.0816 16.6793 48.8385 17.9877 48.8353 17.9844C48.832 17.981 48.8202 17.1103 48.8091 16.0495C48.798 14.9887 48.7817 13.6544 48.7729 13.0844C48.7641 12.5144 48.7477 11.1966 48.7365 10.1558L48.7161 8.26363L49.4474 8.25528C49.8497 8.25071 50.278 8.24397 50.3994 8.24034C50.5584 8.23556 50.62 8.2438 50.6198 8.26971ZM43.0809 33.7806C42.9384 33.8352 42.8699 33.9353 42.7108 34.3207C42.4784 34.8837 42.0466 35.6269 41.61 36.2152C40.5558 37.636 39.0968 38.7388 37.8397 39.0651C37.4585 39.164 37.3088 39.3542 37.4163 39.6031C37.525 39.8544 37.7664 39.8939 38.2621 39.7412C40.2614 39.1253 42.2184 37.2784 43.3711 34.9197C43.6992 34.2482 43.7374 34.0682 43.5873 33.9001C43.453 33.7498 43.2725 33.7072 43.0809 33.7806ZM33.1207 42.3306C36.3617 42.3814 39.0226 42.4313 39.034 42.4413C39.0573 42.4618 38.9564 45.0557 38.9314 45.0777C38.9226 45.0855 37.1684 45.0766 35.0333 45.0579C32.8982 45.0392 29.6102 45.0156 27.7267 45.0053L24.302 44.9865L24.3009 44.8254C24.3003 44.7368 24.2866 44.127 24.2705 43.4702C24.2487 42.5832 24.2508 42.2658 24.2786 42.2364C24.3216 42.1907 23.9817 42.1871 33.1207 42.3306ZM33.0802 45.8188C34.231 45.8284 35.1751 45.8381 35.1782 45.8406C35.1813 45.843 35.2004 45.9809 35.2207 46.147C35.3784 47.4419 35.8334 48.716 36.6754 50.2203C38.1784 52.9054 40.6547 55.4741 43.1694 56.9564L43.542 57.1761L38.4255 57.1598C32.1823 57.1399 30.5757 57.1277 24.7761 57.0562C22.2767 57.0254 20.0639 57.0001 19.8586 57L19.4856 56.9997L19.933 56.7412C21.3364 55.9302 22.7854 54.7529 24.0435 53.4013C26.2549 51.0256 27.8164 48.1176 28.0168 46.0015L28.0391 45.7657L29.5135 45.7836C30.3244 45.7934 31.9294 45.8093 33.0802 45.8188ZM29.1471 47.2889C29.0148 47.3464 28.959 47.4373 28.9295 47.6438C28.8524 48.1844 28.7013 48.8737 28.6109 49.0976C28.4492 49.4979 27.9634 50.2667 27.7082 50.526C27.4897 50.748 27.4406 50.8264 27.4406 50.953C27.4406 51.0187 27.4629 51.1104 27.4902 51.1568C27.592 51.3301 27.9063 51.389 28.0956 51.2703C28.3288 51.1241 28.7842 50.5436 29.1045 49.9843C29.4078 49.4546 29.4868 49.2056 29.6145 48.3762C29.7421 47.5474 29.7223 47.3855 29.4804 47.2844C29.3486 47.2294 29.2823 47.2302 29.1471 47.2889ZM24.2203 57.8239C28.3556 57.8788 31.7426 57.9041 37.2322 57.921C41.314 57.9335 44.7767 57.9451 44.9271 57.9467L45.2006 57.9497L45.18 58.9501C45.1686 59.5003 45.1505 60.13 45.1396 60.3494L45.1199 60.7483L41.6501 60.7297C31.6747 60.6764 17.8724 60.5632 17.8454 60.5346C17.8411 60.53 17.8294 59.9011 17.8195 59.1372L17.8015 57.7482L18.2156 57.7489C18.4434 57.7493 21.1455 57.783 24.2203 57.8239Z" fill="#EC6A2D"/>
<path fill-rule="evenodd" clip-rule="evenodd" d="M9.19998 2.61144C9.09239 2.70618 9.07075 2.74639 9.05525 2.8802C9.04521 2.96676 9.0287 4.09451 9.0185 5.38632L9 7.73506L9.09076 7.88804C9.15611 7.99821 9.2181 8.05789 9.31222 8.10139C9.43861 8.15974 9.49337 8.16204 10.9529 8.17076L12.4628 8.17977L12.4805 8.25712C12.4903 8.29967 12.6967 9.54571 12.9393 11.0261C13.5506 14.7567 14.1002 18.1052 14.3307 19.504C14.4377 20.1532 14.6943 21.7142 14.9008 22.9729C15.1074 24.2317 15.3574 25.7538 15.4564 26.3554C15.5554 26.9571 15.7992 28.4404 15.9982 29.6516C16.3556 31.8273 16.6306 33.2009 16.8282 33.797C16.8728 33.9316 16.9628 34.2036 17.0282 34.4016C17.4462 35.6673 18.1252 36.9656 18.9178 38.0144C19.788 39.1659 20.8928 40.2181 22.1279 41.0714C22.406 41.2635 23.2589 41.7864 23.3265 41.8063C23.3456 41.8119 23.3737 42.5482 23.3979 43.6777L23.438 45.5398L23.5164 45.6134C23.5596 45.6538 23.6473 45.6987 23.7114 45.7133C23.7756 45.7278 24.5785 45.7487 25.4958 45.7598L27.1637 45.7799L27.1536 45.8986C27.1127 46.3826 26.9114 47.2009 26.6886 47.7883C25.6133 50.6235 23.1019 53.6824 20.2808 55.5932C19.3509 56.223 18.2252 56.7852 17.4904 56.9866C17.1812 57.0713 17.0428 57.1514 16.982 57.2807C16.9543 57.3395 16.9466 57.8453 16.9533 59.1596L16.9624 60.958L17.039 61.0758C17.1706 61.2778 17.2511 61.3023 17.8124 61.3114C21.8265 61.3761 33.8766 61.4649 42.763 61.4952C45.6452 61.505 45.6457 61.505 45.7381 61.4448C45.884 61.3497 45.9718 61.2129 45.9913 61.0501C46.0012 60.9678 46.0258 60.154 46.046 59.2417C46.0805 57.6888 46.0792 57.5762 46.0262 57.4779C45.9535 57.343 45.8536 57.2838 45.5604 57.2023C45.0868 57.0705 44.2002 56.656 43.5425 56.2589C40.8223 54.6165 38.132 51.5907 36.8756 48.7605C36.4195 47.7332 36.1642 46.8585 36.0858 46.054L36.0641 45.8315L37.8088 45.8381C39.181 45.8432 39.5691 45.8367 39.627 45.8076C39.8008 45.7202 39.7964 45.7545 39.8661 43.9409C39.902 43.0088 39.9393 42.1781 39.9491 42.0948L39.9669 41.9435L40.3977 41.6956C42.8665 40.2746 44.7466 38.2832 45.907 35.8602C46.2246 35.1968 46.635 34.0814 46.7932 33.4516C47.1494 32.0331 47.0893 32.3307 47.7908 28.5073C48.3134 25.6589 48.773 23.1544 49.2607 20.4972C49.5034 19.1751 49.8492 17.2903 50.0293 16.3086C50.2094 15.327 50.6146 13.119 50.9297 11.402C51.2449 9.68501 51.5028 8.27172 51.5028 8.26133C51.5028 8.25096 52.1753 8.23309 52.9972 8.2216C54.5878 8.19938 54.6248 8.1959 54.7993 8.05242C54.9874 7.89777 54.9781 8.02374 54.9945 5.4101C55.006 3.58664 55.0002 2.97859 54.9704 2.89934C54.9489 2.84182 54.8896 2.76387 54.8386 2.7261L54.7459 2.65744L49.0296 2.63876C45.8855 2.62848 41.0549 2.6136 38.2948 2.60565C35.5346 2.59773 31.7095 2.58484 29.7945 2.57698C27.8795 2.56909 23.054 2.55611 19.0711 2.5481C15.0883 2.5401 11.2664 2.526 10.578 2.51678L9.32651 2.5L9.19998 2.61144ZM27.1782 3.34247C32.5452 3.3587 36.9384 3.37448 36.9409 3.37753C36.9433 3.38055 36.9622 6.41435 36.9828 10.1193C37.0034 13.8243 37.0298 18.164 37.0415 19.7631L37.0627 22.6707L37.1668 22.7625C37.288 22.8695 37.3988 22.9005 37.5629 22.8735C37.6971 22.8513 37.4741 23.0361 40.7727 20.2139L42.9728 18.3315L43.3228 18.6301C43.5153 18.7943 44.6454 19.7544 45.8342 20.7636L47.9956 22.5986L47.952 22.8361C47.7508 23.9313 46.8601 28.7838 46.5979 30.213C46.4179 31.1946 46.2262 32.1662 46.1721 32.372C45.788 33.8313 45.6017 34.4311 45.3392 35.0529C44.2664 37.5942 42.3489 39.6979 39.7986 41.1318C39.5739 41.2582 39.2502 41.4269 39.0794 41.5067L38.7688 41.6519L31.5436 41.5383C25.3143 41.4405 24.3032 41.4187 24.2078 41.3807C24.0126 41.3029 23.2852 40.8809 22.8472 40.5914C21.0889 39.4294 19.6826 37.9218 18.7246 36.172C18.1475 35.1178 17.7685 34.0839 17.4475 32.6887C17.422 32.5779 17.3571 32.3058 17.3032 32.0842C17.2195 31.7403 16.8677 29.6343 15.6221 22.0229C15.5068 21.3184 15.1611 19.2133 14.8539 17.345C14.0387 12.3873 13.5943 9.68188 13.4825 8.99659C13.4283 8.66409 13.3752 8.34789 13.3644 8.29392L13.3449 8.19578L15.4713 8.21271C16.7893 8.22319 17.6408 8.21916 17.7111 8.20206C17.8496 8.16837 17.9824 8.03584 18.0107 7.90307C18.0366 7.78147 17.9511 7.61586 17.8183 7.5303C17.7289 7.47272 17.673 7.47022 16.0528 7.45076C15.1326 7.4397 13.3682 7.42194 12.132 7.41129L9.88432 7.39194V6.68046C9.88432 6.28913 9.8941 5.36338 9.90603 4.62322L9.92777 3.27746L13.6739 3.2952C15.7343 3.30493 21.8113 3.3262 27.1782 3.34247ZM47.7965 3.40853C47.799 3.41035 47.8101 4.53885 47.8214 5.91633C47.8327 7.29381 47.8489 8.64106 47.8575 8.91023C47.8661 9.17939 47.8808 10.4878 47.8902 11.8178C47.8995 13.1477 47.9142 14.5209 47.9229 14.8692C47.9316 15.2176 47.9462 16.5195 47.9555 17.7624C47.9648 19.0053 47.9815 20.3651 47.9927 20.7843L48.013 21.5464L47.6878 21.2737C47.509 21.1237 46.4328 20.2108 45.2964 19.2449C43.9192 18.0744 43.1868 17.4717 43.1 17.4374C42.9227 17.3673 42.7444 17.4085 42.6189 17.5487C42.5365 17.6407 38.7884 20.8641 38.1951 21.353L37.9426 21.5612L37.923 20.6621C37.9122 20.1677 37.8885 16.4533 37.8704 12.4079C37.8522 8.36255 37.8292 4.67317 37.8193 4.20929L37.8012 3.36584L42.7967 3.38556C45.5442 3.39639 47.7941 3.40672 47.7965 3.40853ZM53.2276 3.42618L54.1187 3.42621L54.1103 5.43414L54.1019 7.44206L51.427 7.46648C49.9558 7.47989 48.7444 7.48409 48.735 7.47583C48.7125 7.45597 48.6951 6.67439 48.6773 4.86809L48.6626 3.38804L50.4996 3.40709C51.5099 3.41757 52.7375 3.42615 53.2276 3.42618ZM50.6198 8.26971C50.6195 8.28951 50.4597 9.17363 50.2644 10.2345C50.0693 11.2953 49.6692 13.4743 49.3754 15.0768C49.0816 16.6793 48.8385 17.9877 48.8353 17.9844C48.832 17.981 48.8202 17.1103 48.8091 16.0495C48.798 14.9887 48.7817 13.6544 48.7729 13.0844C48.7641 12.5144 48.7477 11.1966 48.7365 10.1558L48.7161 8.26363L49.4474 8.25528C49.8497 8.25071 50.278 8.24397 50.3994 8.24034C50.5584 8.23556 50.62 8.2438 50.6198 8.26971ZM43.0809 33.7806C42.9384 33.8352 42.8699 33.9353 42.7108 34.3207C42.4784 34.8837 42.0466 35.6269 41.61 36.2152C40.5558 37.636 39.0968 38.7388 37.8397 39.0651C37.4585 39.164 37.3088 39.3542 37.4163 39.6031C37.525 39.8544 37.7664 39.8939 38.2621 39.7412C40.2614 39.1253 42.2184 37.2784 43.3711 34.9197C43.6992 34.2482 43.7374 34.0682 43.5873 33.9001C43.453 33.7498 43.2725 33.7072 43.0809 33.7806ZM33.1207 42.3306C36.3617 42.3814 39.0226 42.4313 39.034 42.4413C39.0573 42.4618 38.9564 45.0557 38.9314 45.0777C38.9226 45.0855 37.1684 45.0766 35.0333 45.0579C32.8982 45.0392 29.6102 45.0156 27.7267 45.0053L24.302 44.9865L24.3009 44.8254C24.3003 44.7368 24.2866 44.127 24.2705 43.4702C24.2487 42.5832 24.2508 42.2658 24.2786 42.2364C24.3216 42.1907 23.9817 42.1871 33.1207 42.3306ZM33.0802 45.8188C34.231 45.8284 35.1751 45.8381 35.1782 45.8406C35.1813 45.843 35.2004 45.9809 35.2207 46.147C35.3784 47.4419 35.8334 48.716 36.6754 50.2203C38.1784 52.9054 40.6547 55.4741 43.1694 56.9564L43.542 57.1761L38.4255 57.1598C32.1823 57.1399 30.5757 57.1277 24.7761 57.0562C22.2767 57.0254 20.0639 57.0001 19.8586 57L19.4856 56.9997L19.933 56.7412C21.3364 55.9302 22.7854 54.7529 24.0435 53.4013C26.2549 51.0256 27.8164 48.1176 28.0168 46.0015L28.0391 45.7657L29.5135 45.7836C30.3244 45.7934 31.9294 45.8093 33.0802 45.8188ZM29.1471 47.2889C29.0148 47.3464 28.959 47.4373 28.9295 47.6438C28.8524 48.1844 28.7013 48.8737 28.6109 49.0976C28.4492 49.4979 27.9634 50.2667 27.7082 50.526C27.4897 50.748 27.4406 50.8264 27.4406 50.953C27.4406 51.0187 27.4629 51.1104 27.4902 51.1568C27.592 51.3301 27.9063 51.389 28.0956 51.2703C28.3288 51.1241 28.7842 50.5436 29.1045 49.9843C29.4078 49.4546 29.4868 49.2056 29.6145 48.3762C29.7421 47.5474 29.7223 47.3855 29.4804 47.2844C29.3486 47.2294 29.2823 47.2302 29.1471 47.2889ZM24.2203 57.8239C28.3556 57.8788 31.7426 57.9041 37.2322 57.921C41.314 57.9335 44.7767 57.9451 44.9271 57.9467L45.2006 57.9497L45.18 58.9501C45.1686 59.5003 45.1505 60.13 45.1396 60.3494L45.1199 60.7483L41.6501 60.7297C31.6747 60.6764 17.8724 60.5632 17.8454 60.5346C17.8411 60.53 17.8294 59.9011 17.8195 59.1372L17.8015 57.7482L18.2156 57.7489C18.4434 57.7493 21.1455 57.783 24.2203 57.8239Z" stroke="#EC6A2D" stroke-width="0.2" mask="url(#path-1-outside-1_1424_31876)"/>
</svg>
