<svg width="64" height="64" viewBox="0 0 64 64" fill="none" xmlns="http://www.w3.org/2000/svg">
<mask id="path-1-outside-1_1424_31849" maskUnits="userSpaceOnUse" x="1" y="11.75" width="62" height="40" fill="black">
<rect fill="white" x="1" y="11.75" width="62" height="40"/>
<path fill-rule="evenodd" clip-rule="evenodd" d="M31.0784 12.7899C30.8232 12.8392 30.4949 12.9905 30.353 13.1243C30.2104 13.2588 30.1922 13.3456 30.2112 13.8007L30.2265 14.1681L29.9721 14.2488C29.2164 14.4887 28.419 14.958 27.7475 15.5582C27.4706 15.8058 26.9102 16.4376 26.6623 16.7818C25.9362 17.7899 25.401 18.9766 25.0688 20.3146C24.9666 20.726 24.8506 21.3593 24.8087 21.7345L24.7783 22.006L24.5803 22.083C24.0335 22.2955 23.7581 22.5568 23.7581 22.8628C23.7581 23.3306 24.236 23.6341 25.386 23.8969C25.5829 23.9419 25.747 23.9831 25.7507 23.9885C25.7544 23.9939 25.7481 24.106 25.7367 24.2377C25.7059 24.5919 25.7075 25.6351 25.7394 26.0546C25.8691 27.7615 26.3361 29.3404 27.102 30.6624C27.5809 31.489 28.3056 32.3117 28.9733 32.7871C29.8271 33.395 30.6715 33.6807 31.6145 33.6807C33.3441 33.6807 34.9466 32.6311 36.0968 30.7449C36.6142 29.8963 37.0578 28.7435 37.2947 27.6321C37.5502 26.433 37.6145 25.2853 37.5047 23.8851C37.5014 23.8431 37.554 23.8196 37.8223 23.7438C38.762 23.478 39.1584 23.1911 39.1584 22.7768C39.1584 22.4775 38.9644 22.2691 38.4853 22.0535C38.2868 21.9641 38.2472 21.9363 38.2472 21.8857C38.2472 21.7601 38.121 20.9687 38.0395 20.5838C37.7896 19.4027 37.3477 18.2676 36.7698 17.3221C36.3887 16.6986 35.7372 15.9058 35.2735 15.5011C34.545 14.8653 33.7876 14.4405 32.9362 14.1903L32.8505 14.1651L32.8355 13.7013C32.8273 13.4462 32.819 13.2285 32.8172 13.2175C32.8087 13.1675 32.6908 13.0693 32.5522 12.9968C32.123 12.7721 31.5719 12.6947 31.0784 12.7899ZM51.5449 13.168C51.3571 13.2068 51.1046 13.3239 50.997 13.422L50.9022 13.5085L50.8953 13.8491L50.8884 14.1898L50.6804 14.2537C49.4238 14.6392 48.3059 15.6283 47.5467 17.0263C47.3826 17.3285 47.1157 17.9689 47.0009 18.3362C46.8908 18.6885 46.7576 19.2867 46.703 19.6743L46.6614 19.9701L46.511 20.0238C46.0135 20.2015 45.7816 20.4785 45.8967 20.7576C45.9992 21.0062 46.4017 21.2021 47.1424 21.3638C47.2898 21.396 47.4138 21.4264 47.4181 21.4313C47.4224 21.4362 47.4156 21.6292 47.403 21.8601C47.3244 23.3013 47.6308 24.7686 48.2632 25.98C48.5681 26.564 49.0862 27.235 49.5174 27.6045C51.2503 29.0892 53.4347 28.8799 54.989 27.0802C56.1645 25.7191 56.7774 23.5756 56.5882 21.4878L56.5726 21.3154L56.7042 21.2819C57.4782 21.0848 57.8176 20.8826 57.8653 20.5901C57.901 20.371 57.7075 20.1513 57.3498 20.005C57.1543 19.925 57.1825 19.991 57.0818 19.3785C56.9053 18.3044 56.535 17.3275 55.9768 16.4629C55.7315 16.0829 55.2203 15.4951 54.883 15.2051C54.3855 14.7774 53.7456 14.4177 53.1768 14.2461L52.9321 14.1723V13.8266C52.9321 13.5368 52.9253 13.4731 52.8898 13.4323C52.8355 13.3698 52.634 13.2674 52.4512 13.2094C52.2808 13.1553 51.7282 13.13 51.5449 13.168ZM11.7244 13.2525C11.5366 13.2914 11.2841 13.4084 11.1765 13.5065L11.0816 13.593L11.0748 13.9336L11.0679 14.2743L10.8599 14.3382C9.6033 14.7237 8.48541 15.7128 7.72618 17.1108C7.56205 17.413 7.29522 18.0534 7.18041 18.4207C7.07028 18.773 6.93711 19.3712 6.8825 19.7588L6.84085 20.0546L6.69045 20.1083C6.19295 20.286 5.96113 20.563 6.07623 20.8421C6.17873 21.0907 6.58122 21.2866 7.3219 21.4483C7.46924 21.4805 7.59328 21.5109 7.59756 21.5158C7.60187 21.5207 7.59506 21.7137 7.58248 21.9446C7.50392 23.3858 7.8103 24.8531 8.4427 26.0645C8.74756 26.6485 9.26564 27.3195 9.69684 27.689C11.4298 29.1737 13.6142 28.9644 15.1685 27.1647C16.344 25.8036 16.9569 23.6602 16.7677 21.5723L16.7521 21.3999L16.8837 21.3664C17.6577 21.1693 17.9971 20.9671 18.0448 20.6747C18.0805 20.4556 17.8869 20.2359 17.5293 20.0895C17.3337 20.0095 17.362 20.0755 17.2613 19.463C17.0847 18.3889 16.7145 17.4121 16.1563 16.5474C15.911 16.1674 15.3998 15.5796 15.0625 15.2896C14.565 14.8619 13.925 14.5022 13.3563 14.3306L13.1116 14.2568V13.9111C13.1116 13.6213 13.1047 13.5576 13.0693 13.5168C13.015 13.4543 12.8135 13.3519 12.6307 13.2939C12.4602 13.2398 11.9077 13.2145 11.7244 13.2525ZM31.9999 13.3795C32.0839 13.4016 32.1896 13.4375 32.2347 13.4592L32.3167 13.4986L32.3345 16.4069C32.3443 18.0064 32.3621 19.3446 32.3739 19.3805C32.4041 19.4717 32.5029 19.539 32.6067 19.539C32.6963 19.539 32.7708 19.4833 32.8211 19.3788C32.8407 19.3381 32.8462 18.6766 32.8408 17.0333C32.8367 15.7745 32.838 14.7446 32.8437 14.7446C32.8494 14.7446 32.9428 14.7751 33.0512 14.8125C34.6411 15.3602 35.9955 16.7049 36.8547 18.5887C37.3377 19.6478 37.6821 20.9855 37.746 22.051C37.7552 22.204 37.7782 22.3717 37.7971 22.4237C37.8557 22.5853 38.0067 22.6618 38.1288 22.5918C38.1711 22.5674 38.2181 22.5475 38.2333 22.5475C38.2751 22.5475 38.6063 22.7351 38.6246 22.7692C38.6338 22.7864 38.586 22.8309 38.5121 22.874C37.7883 23.2962 36.0094 23.6107 33.4746 23.7647C32.6718 23.8134 29.645 23.8137 28.8856 23.765C27.9993 23.7083 26.5429 23.5629 26.4346 23.5204C26.4193 23.5144 26.2376 23.4821 26.0308 23.4487C25.4035 23.3474 24.7865 23.1747 24.4726 23.0125C24.2169 22.8804 24.2233 22.8581 24.5641 22.6911C24.7331 22.6083 24.7454 22.6061 24.7763 22.6529C24.7942 22.6801 24.8093 22.7099 24.8097 22.7191C24.8112 22.7493 24.934 22.8011 25.0042 22.8011C25.0951 22.8011 25.1927 22.7097 25.2228 22.5964C25.2362 22.5463 25.2542 22.3975 25.2629 22.2658C25.3192 21.4122 25.5231 20.4239 25.8266 19.5334C26.4022 17.8445 27.4411 16.3742 28.6594 15.5241C28.9357 15.3313 29.2975 15.1272 29.6129 14.9861C29.9174 14.8499 30.1889 14.7564 30.2098 14.7804C30.2172 14.7889 30.2332 15.7636 30.2453 16.9463C30.2575 18.1291 30.2711 19.1695 30.2756 19.2583C30.2882 19.5087 30.418 19.6302 30.5993 19.5614C30.7692 19.4968 30.7649 19.5385 30.7601 18.0145C30.7577 17.2619 30.7475 16.1263 30.7373 15.4911C30.7272 14.8558 30.7194 14.1557 30.72 13.9353C30.7213 13.4797 30.7141 13.4966 30.9454 13.4091C31.2209 13.305 31.6686 13.2924 31.9999 13.3795ZM52.3124 13.6059C52.4039 13.6303 52.4911 13.662 52.506 13.6763C52.5252 13.6946 52.5384 14.3337 52.5508 15.8502C52.5699 18.1794 52.5648 18.1026 52.7033 18.1426C52.7387 18.1528 52.7961 18.1496 52.831 18.1355C52.9629 18.0821 52.9613 18.1079 52.9448 16.307C52.9364 15.3925 52.936 14.6368 52.9437 14.6279C52.9743 14.5927 53.474 14.7808 53.7814 14.9434C55.2409 15.7151 56.3395 17.3904 56.686 19.3727C56.7191 19.5618 56.7537 19.8306 56.763 19.97C56.7723 20.1095 56.7949 20.257 56.8132 20.298C56.8584 20.3987 56.9615 20.4372 57.0848 20.3994C57.1699 20.3732 57.199 20.3787 57.3238 20.4445C57.4977 20.5361 57.4861 20.5652 57.2333 20.6731C56.8279 20.8461 56.0596 21.0156 55.2449 21.1118C52.3344 21.4555 48.3737 21.3279 46.7644 20.8384C46.5042 20.7593 46.2671 20.6412 46.2884 20.6014C46.307 20.567 46.4162 20.5028 46.5397 20.4538C46.6346 20.4162 46.6414 20.4174 46.6894 20.481C46.7508 20.5623 46.8814 20.5703 46.9596 20.4974C47.0054 20.4548 47.0186 20.3959 47.0479 20.1056C47.2824 17.7829 48.3868 15.8862 50.0318 14.981C50.2821 14.8433 50.7847 14.6319 50.8617 14.6319C50.9038 14.6319 50.9183 15.0453 50.9373 16.7857C50.9519 18.1307 50.952 18.1315 51.089 18.1711C51.1696 18.1944 51.2692 18.1347 51.309 18.0394C51.3311 17.9863 51.3321 17.4715 51.3131 15.8456C51.2893 13.808 51.2901 13.7199 51.3327 13.6906C51.515 13.5649 52.0014 13.5229 52.3124 13.6059ZM12.4918 13.6904C12.5834 13.7149 12.6706 13.7465 12.6855 13.7608C12.7047 13.7791 12.7179 14.4182 12.7303 15.9347C12.7494 18.2639 12.7443 18.1871 12.8828 18.2271C12.9182 18.2373 12.9756 18.2342 13.0105 18.22C13.1424 18.1666 13.1408 18.1924 13.1243 16.3916C13.1159 15.477 13.1154 14.7214 13.1232 14.7124C13.1538 14.6772 13.6535 14.8654 13.9608 15.0279C15.4204 15.7997 16.519 17.4749 16.8655 19.4572C16.8986 19.6463 16.9332 19.9151 16.9425 20.0545C16.9518 20.194 16.9744 20.3416 16.9927 20.3825C17.0379 20.4832 17.141 20.5218 17.2643 20.4839C17.3494 20.4577 17.3785 20.4632 17.5033 20.529C17.6772 20.6206 17.6656 20.6498 17.4128 20.7576C17.0074 20.9306 16.2391 21.1001 15.4244 21.1963C12.5139 21.54 8.55323 21.4124 6.94391 20.9229C6.68372 20.8438 6.44658 20.7257 6.46793 20.6859C6.48645 20.6515 6.59568 20.5873 6.71921 20.5383C6.81407 20.5007 6.82085 20.5019 6.86885 20.5655C6.93033 20.6469 7.0609 20.6548 7.13912 20.5819C7.18484 20.5393 7.19811 20.4804 7.2274 20.1901C7.46187 17.8674 8.56625 15.9707 10.2113 15.0656C10.4616 14.9278 10.9641 14.7164 11.0412 14.7164C11.0833 14.7164 11.0978 15.1298 11.1167 16.8702C11.1314 18.2153 11.1315 18.216 11.2684 18.2556C11.3491 18.2789 11.4487 18.2193 11.4884 18.1239C11.5106 18.0708 11.5115 17.556 11.4926 15.9301C11.4688 13.8925 11.4696 13.8044 11.5122 13.7751C11.6945 13.6494 12.1809 13.6074 12.4918 13.6904ZM56.2038 21.5546C56.2337 21.7949 56.2254 22.7755 56.191 23.0828C55.9481 25.2476 54.9553 26.9859 53.5125 27.7726C52.5112 28.3185 51.406 28.3028 50.3989 27.7282C49.8702 27.4265 49.3658 26.95 48.9663 26.3747C48.1006 25.1282 47.6586 23.3256 47.8077 21.6495L47.8212 21.4979L47.972 21.5139C48.0549 21.5226 48.2935 21.5493 48.5021 21.5731C49.463 21.6827 50.1293 21.7129 51.6227 21.7145C53.0707 21.716 53.4508 21.7014 54.5719 21.6011C55.0166 21.5613 56.022 21.4322 56.0771 21.4079C56.1628 21.37 56.184 21.3945 56.2038 21.5546ZM16.3833 21.6391C16.4132 21.8794 16.4049 22.86 16.3704 23.1673C16.1276 25.3321 15.1348 27.0704 13.6919 27.8571C12.6907 28.403 11.5854 28.3873 10.5784 27.8127C10.0497 27.511 9.54532 27.0345 9.14574 26.4592C8.28009 25.2127 7.8381 23.4101 7.98718 21.734L8.00064 21.5824L8.15145 21.5984C8.2344 21.6072 8.47298 21.6338 8.68162 21.6576C9.64246 21.7672 10.3088 21.7974 11.8022 21.799C13.2502 21.8005 13.6303 21.7859 14.7514 21.6856C15.1961 21.6458 16.2015 21.5167 16.2566 21.4924C16.3422 21.4545 16.3634 21.479 16.3833 21.6391ZM37.0088 24.0194C37.0433 24.2237 37.054 25.5344 37.0247 25.9461C36.9371 27.1751 36.6437 28.4051 36.1945 29.4265C35.8448 30.2219 35.4839 30.8019 34.9692 31.3957C34.4555 31.9884 33.9677 32.3872 33.4075 32.6723C32.8316 32.9654 32.4019 33.0793 31.7829 33.1027C30.9766 33.1332 30.3808 32.9857 29.6686 32.5795C28.1727 31.7261 27.0355 29.9855 26.5007 27.7307C26.2727 26.7697 26.1713 25.6346 26.2228 24.6199C26.2376 24.3302 26.2543 24.0877 26.2601 24.0811C26.2659 24.0744 26.4019 24.0878 26.5624 24.1109C27.5448 24.2519 28.816 24.3444 30.2072 24.376C31.1744 24.3979 32.6986 24.3792 33.4134 24.3366C34.3261 24.2822 35.2058 24.2023 35.9099 24.1097C36.2561 24.0642 36.8985 23.96 36.9378 23.9429C36.9866 23.9217 36.9937 23.9294 37.0088 24.0194ZM44.8921 30.5177C44.543 30.6215 44.3377 30.7126 44.0292 30.9005C43.0507 31.4963 42.2573 32.467 41.9756 33.4129L41.9102 33.6323L41.8923 34.9281C41.8825 35.6408 41.8733 36.4306 41.8719 36.6832L41.8695 37.1426L41.7654 37.0691C41.3929 36.8062 40.8289 36.5445 40.4377 36.4532C39.8247 36.31 39.6446 36.2894 38.8713 36.2744C38.0774 36.2589 37.8341 36.2821 37.5846 36.397C37.4655 36.4518 37.4527 36.469 36.1786 38.2802C34.5165 40.6429 34.4672 40.7119 34.4414 40.7072C34.428 40.7048 33.8041 39.8028 33.055 38.7028C32.306 37.6028 31.6404 36.6424 31.5761 36.5686C31.3742 36.3371 31.1989 36.3285 31.0225 36.5412C30.942 36.6384 30.6084 37.1231 28.8113 39.7534L28.1513 40.7194L28.0985 40.6407C28.0245 40.5304 26.9684 38.9366 26.1144 37.6464C25.2302 36.3107 25.1804 36.2398 25.112 36.2201C25.0817 36.2113 24.5582 36.2023 23.9486 36.1999L22.8403 36.1957L22.4894 36.3036C22.2964 36.3629 22.1353 36.4073 22.1313 36.4022C22.1273 36.3971 22.118 35.8288 22.1107 35.1393L22.0974 33.8858L22.0321 33.6463C21.7779 32.7145 20.9584 31.7062 19.9624 31.1001C19.3904 30.752 18.816 30.6105 17.8669 30.5842C17.2258 30.5664 16.9702 30.5922 16.795 30.6926C16.7204 30.7354 16.4484 31.0846 15.6502 32.1623C15.0743 32.9398 14.5511 33.6438 14.4875 33.7269L14.3718 33.8778L13.2716 32.3506C12.6665 31.5106 12.1379 30.7945 12.0969 30.7592C11.9924 30.6692 11.9246 30.6513 11.8273 30.6883C11.7409 30.7211 11.7616 30.6934 9.969 33.176C9.70269 33.5448 9.47598 33.8427 9.46518 33.838C9.45437 33.8333 9.37083 33.7217 9.27954 33.59C8.56101 32.5535 7.20907 30.6356 7.16482 30.59C7.11276 30.5363 7.06932 30.5332 6.25654 30.5241C5.41252 30.5147 5.39994 30.5154 5.13603 30.5866C4.78394 30.6816 4.52252 30.7937 4.21228 30.9827C3.22952 31.5814 2.43509 32.5526 2.15544 33.4974L2.09051 33.7168L2.07108 35.2098C2.06038 36.0309 2.04004 37.5077 2.02585 38.4915C2.01165 39.4753 2.00002 40.5189 2.00002 40.8106L2 41.341L2.07154 41.4233C2.16381 41.5295 2.30789 41.5373 2.40476 41.4415C2.49738 41.3498 2.51169 41.2201 2.51277 40.4634C2.51375 39.7803 2.57888 34.8005 2.59567 34.1252C2.60328 33.8189 2.61561 33.7135 2.65913 33.5832C2.79455 33.1776 3.07019 32.7272 3.42284 32.3352C3.97206 31.7247 4.58092 31.3133 5.19046 31.1406L5.46319 31.0634L6.18091 31.077L6.89863 31.0906L7.28228 31.6401C7.49327 31.9423 7.99413 32.66 8.39524 33.2349C8.79639 33.8098 9.16909 34.3292 9.22345 34.3892C9.32213 34.4979 9.32262 34.4981 9.47311 34.4788C9.55606 34.4682 9.65364 34.4381 9.68999 34.4121C9.72633 34.386 9.956 34.0877 10.2003 33.7492C10.4447 33.4107 10.6527 33.1445 10.6626 33.1577C10.6726 33.1708 10.767 33.321 10.8726 33.4914L11.0645 33.8013L11.0351 34.2802C11.0189 34.5435 10.9895 35.0189 10.9698 35.3365C10.95 35.6541 10.9172 36.1865 10.8967 36.5196C10.8763 36.8528 10.8431 37.3915 10.8229 37.7169C10.8027 38.0422 10.7695 38.581 10.749 38.9141C10.7285 39.2472 10.6956 39.762 10.6757 40.0583C10.6558 40.3545 10.6326 40.7854 10.624 41.016L10.6086 41.4352L10.6764 41.5127C10.7273 41.5708 10.7682 41.5902 10.8404 41.5902C10.9619 41.5902 11.021 41.5538 11.0675 41.4501C11.1039 41.3693 11.1105 41.2858 11.2138 39.5901C11.2341 39.257 11.2618 38.8134 11.2754 38.6042C11.289 38.395 11.3224 37.8563 11.3495 37.407C11.3767 36.9577 11.4153 36.3302 11.4353 36.0126C11.5033 34.9323 11.5205 34.6464 11.5206 34.593C11.5207 34.5551 11.5456 34.5772 11.6069 34.6696C11.6755 34.773 11.7188 34.8083 11.8193 34.8426C11.8888 34.8664 11.9607 34.8858 11.9791 34.8858C12.0567 34.8858 12.1639 34.7884 12.2961 34.5977L12.4371 34.3944L12.4564 34.4781C12.467 34.5242 12.5141 34.8946 12.5611 35.3013C12.6081 35.708 12.6858 36.3735 12.7337 36.7802C12.7817 37.1869 12.8417 37.6971 12.867 37.914C12.8924 38.1309 12.9409 38.5429 12.9748 38.8295C13.0087 39.1162 13.0866 39.7817 13.1478 40.3085C13.209 40.8352 13.2653 41.3007 13.2728 41.3429C13.2803 41.3851 13.3196 41.4517 13.36 41.4908C13.5015 41.6279 13.7173 41.5574 13.7603 41.3599C13.7682 41.3236 13.7352 40.958 13.6869 40.5476C13.6386 40.1372 13.5605 39.4718 13.5133 39.069C13.3728 37.8701 13.3391 37.5834 13.2485 36.8154C13.201 36.4126 13.1233 35.7534 13.0758 35.3506C13.0283 34.9478 12.9723 34.4597 12.9512 34.2661C12.9302 34.0724 12.9034 33.8797 12.8916 33.8378C12.8724 33.7696 12.8892 33.7341 13.0518 33.4997C13.1517 33.3557 13.2431 33.2379 13.2549 33.2379C13.2668 33.2379 13.4709 33.5077 13.7085 33.8374C13.973 34.2044 14.1663 34.4482 14.2068 34.4659C14.2733 34.495 14.4705 34.4773 14.5721 34.4331C14.6014 34.4204 15.141 33.7158 15.7714 32.8674C16.4017 32.019 16.946 31.2873 16.9809 31.2414L17.0444 31.158L17.7518 31.1638C18.1409 31.1669 18.5529 31.1816 18.6673 31.1963C19.413 31.2922 20.2054 31.7951 20.8701 32.5942C21.1413 32.9203 21.3203 33.2087 21.4611 33.5465C21.5562 33.7746 21.563 33.8078 21.5804 34.1328C21.5905 34.3223 21.6028 34.9712 21.6077 35.5749L21.6166 36.6725L21.4208 36.7963C20.0729 37.6484 18.9431 39.1762 18.7032 40.471C18.6776 40.609 18.6642 40.9522 18.655 41.7105C18.6479 42.2873 18.62 44.5448 18.5929 46.7272C18.5659 48.9096 18.5509 50.7387 18.5595 50.7919C18.5905 50.9817 18.7844 51.1192 18.9525 51.0707C19.0634 51.0386 19.1751 50.8853 19.1907 50.7436C19.1983 50.6748 19.2319 48.3748 19.2653 45.6325C19.3328 40.0973 19.3142 40.534 19.5028 40.069C19.7202 39.5331 19.9938 39.1021 20.4523 38.5732C20.9994 37.9421 21.6083 37.4647 22.2248 37.1836C22.317 37.1415 22.5318 37.0668 22.702 37.0176L23.0116 36.9281L23.9233 36.9375L24.8349 36.947L25.0996 37.346C27.363 40.7584 27.8362 41.4611 27.9028 41.5095C27.9679 41.5569 28.0064 41.5631 28.1487 41.5492C28.2414 41.5401 28.3535 41.5129 28.3978 41.4888C28.4544 41.4579 28.6511 41.1918 29.0613 40.5916C29.3819 40.1223 29.6526 39.7438 29.6628 39.7505C29.6729 39.7571 29.7967 39.96 29.9378 40.2014L30.1943 40.6401L30.121 41.8827C29.7038 48.947 29.5978 50.8429 29.6155 50.9216C29.6252 50.9643 29.6638 51.0388 29.7013 51.0871C29.8423 51.2687 30.1272 51.2094 30.21 50.9813C30.2476 50.8778 30.2562 50.7435 30.5741 45.2945C30.6492 44.0085 30.7267 42.6902 30.7464 42.3648C30.7661 42.0395 30.7823 41.7417 30.7823 41.7032C30.7824 41.6434 30.795 41.6548 30.8696 41.7822C30.971 41.9555 31.0503 42.018 31.2327 42.0684C31.4609 42.1314 31.5372 42.078 31.8008 41.6705C31.8923 41.529 31.9703 41.4246 31.9742 41.4384C31.978 41.4521 32.2173 43.5839 32.5058 46.1757C32.9208 49.9029 33.0398 50.9064 33.0751 50.9759C33.138 51.0997 33.2797 51.1792 33.3938 51.1546C33.5078 51.1299 33.6372 50.9835 33.6574 50.856C33.6721 50.7638 32.5682 40.7361 32.5312 40.6251C32.5195 40.5901 32.5828 40.4714 32.7526 40.2099C32.8834 40.0084 32.9974 39.8442 33.0061 39.8448C33.0148 39.8454 33.265 40.2035 33.5622 40.6406C33.8593 41.0777 34.1402 41.465 34.1863 41.5014C34.2614 41.5608 34.2875 41.5658 34.4409 41.5499C34.7554 41.5174 34.4731 41.8795 37.1536 38.0704C37.3983 37.7225 37.6525 37.3612 37.7182 37.2675C37.8279 37.1113 37.8483 37.0952 37.963 37.0743C38.1302 37.0439 39.3233 37.0509 39.7514 37.0849C40.1524 37.1168 40.4708 37.2014 40.8435 37.3752C42.0726 37.9482 43.3466 39.4121 43.644 40.5932L43.7055 40.8375L43.7666 45.8407C43.8002 48.5924 43.8337 50.8853 43.841 50.936C43.8698 51.1351 44.0652 51.2888 44.2292 51.2413C44.3238 51.214 44.4358 51.0884 44.4616 50.9806C44.4828 50.8923 44.3897 41.9158 44.3579 40.9845C44.3369 40.3679 44.0855 39.6922 43.5982 38.9422C43.3866 38.6164 42.8814 38.0147 42.5831 37.733L42.3634 37.5256L42.3753 36.8184C42.3818 36.4294 42.3956 35.5598 42.4059 34.8858C42.4238 33.7134 42.427 33.6534 42.4792 33.4987C42.6167 33.0905 42.8913 32.6421 43.2434 32.2507C43.7926 31.6402 44.4014 31.2288 45.011 31.0561L45.2837 30.9789L46.0014 30.9925L46.7192 31.006L47.1028 31.5555C47.3138 31.8578 47.8146 32.5755 48.2158 33.1504C48.6169 33.7253 48.9896 34.2447 49.044 34.3046C49.1426 34.4134 49.1431 34.4136 49.2936 34.3943C49.3766 34.3837 49.4742 34.3536 49.5105 34.3275C49.5468 34.3015 49.7765 34.0032 50.0209 33.6647C50.2652 33.3262 50.4732 33.06 50.4832 33.0732C50.4931 33.0863 50.5875 33.2365 50.6931 33.4069L50.885 33.7168L50.8556 34.1957C50.8394 34.459 50.8101 34.9344 50.7903 35.252C50.7705 35.5696 50.7377 36.102 50.7172 36.4351C50.6968 36.7682 50.6636 37.307 50.6434 37.6323C50.6232 37.9577 50.59 38.4964 50.5695 38.8295C50.5491 39.1627 50.5161 39.6775 50.4962 39.9737C50.4763 40.2699 50.4531 40.7009 50.4446 40.9315L50.4291 41.3507L50.4969 41.4282C50.5478 41.4863 50.5887 41.5057 50.6609 41.5057C50.7824 41.5057 50.8415 41.4693 50.8881 41.3656C50.9244 41.2848 50.931 41.2013 51.0343 39.5056C51.0546 39.1725 51.0823 38.7288 51.0959 38.5197C51.1095 38.3105 51.1429 37.7718 51.1701 37.3225C51.1972 36.8732 51.2359 36.2457 51.2558 35.9281C51.3238 34.8478 51.341 34.5619 51.3411 34.5085C51.3412 34.4706 51.3661 34.4927 51.4274 34.5851C51.496 34.6885 51.5393 34.7238 51.6399 34.7581C51.7093 34.7819 51.7812 34.8013 51.7997 34.8013C51.8773 34.8013 51.9844 34.7039 52.1167 34.5132L52.2576 34.3099L52.2769 34.3936C52.2875 34.4397 52.3347 34.8101 52.3816 35.2168C52.4286 35.6235 52.5063 36.289 52.5543 36.6957C52.6022 37.1024 52.6622 37.6126 52.6876 37.8295C52.7129 38.0464 52.7614 38.4584 52.7953 38.745C52.8292 39.0317 52.9071 39.6972 52.9683 40.2239C53.0295 40.7507 53.0858 41.2162 53.0933 41.2584C53.1008 41.3006 53.1401 41.3671 53.1805 41.4063C53.3221 41.5434 53.5378 41.4728 53.5808 41.2754C53.5888 41.2391 53.5557 40.8735 53.5074 40.4631C53.4591 40.0527 53.381 39.3873 53.3338 38.9845C53.1933 37.7856 53.1596 37.4989 53.0691 36.7309C53.0216 36.3281 52.9438 35.6689 52.8964 35.2661C52.8488 34.8633 52.7928 34.3752 52.7717 34.1816C52.7507 33.9879 52.7239 33.7952 52.7121 33.7533C52.6929 33.6851 52.7097 33.6496 52.8723 33.4152C52.9722 33.2712 53.0636 33.1534 53.0755 33.1534C53.0873 33.1534 53.2914 33.4232 53.529 33.7529C53.7935 34.1199 53.9868 34.3637 54.0274 34.3814C54.0938 34.4105 54.291 34.3928 54.3926 34.3486C54.4219 34.3359 54.9616 33.6313 55.5919 32.7829C56.2222 31.9345 56.7665 31.2028 56.8014 31.1569L56.8649 31.0735L57.5724 31.0793C58.5404 31.0872 58.7645 31.1216 59.2289 31.3339C60.0402 31.7049 60.8921 32.5714 61.253 33.3928C61.304 33.509 61.3584 33.6548 61.3739 33.7168C61.4051 33.842 61.4303 35.1375 61.475 38.9141C61.4968 40.7634 61.5104 41.3144 61.5355 41.3841C61.6021 41.5688 61.8197 41.6097 61.941 41.4604L62 41.3878L61.9947 40.4678C61.9887 39.446 61.9449 35.6775 61.9256 34.5259C61.9139 33.8316 61.9092 33.7714 61.8502 33.5541C61.5997 32.6318 60.7754 31.6195 59.7829 31.0156C59.2109 30.6674 58.6365 30.526 57.6874 30.4997C57.0463 30.4819 56.7907 30.5077 56.6155 30.6081C56.5409 30.6509 56.2689 31.0001 55.4707 32.0778C54.8948 32.8553 54.3716 33.5593 54.308 33.6424L54.1923 33.7933L53.0921 32.2661C52.487 31.4261 51.9584 30.71 51.9175 30.6747C51.8129 30.5847 51.7451 30.5668 51.6479 30.6038C51.5614 30.6366 51.5821 30.6089 49.7895 33.0915C49.5232 33.4603 49.2965 33.7582 49.2857 33.7535C49.2749 33.7488 49.1913 33.6372 49.1001 33.5055C48.3815 32.469 47.0296 30.551 46.9853 30.5054C46.933 30.4516 46.8924 30.4488 46.046 30.4434L45.1613 30.4376L44.8921 30.5177ZM52.2366 31.9598C52.5047 32.3336 52.724 32.6556 52.724 32.6754C52.724 32.7093 51.7568 34.1357 51.745 34.119C51.742 34.1147 51.6848 34.0224 51.618 33.914C51.5512 33.8055 51.3398 33.4656 51.1482 33.1585C50.9566 32.8515 50.8032 32.5913 50.8074 32.5802C50.8157 32.5582 51.737 31.2801 51.7446 31.2801C51.7471 31.2801 51.9686 31.586 52.2366 31.9598ZM12.4161 32.0443C12.6842 32.4181 12.9035 32.7401 12.9035 32.7599C12.9035 32.7939 11.9363 34.2202 11.9245 34.2035C11.9215 34.1992 11.8643 34.1069 11.7975 33.9985C11.7307 33.89 11.5193 33.5501 11.3277 33.243C11.1361 32.936 10.9827 32.6758 10.9869 32.6647C10.9952 32.6427 11.9165 31.3646 11.924 31.3646C11.9266 31.3646 12.148 31.6705 12.4161 32.0443ZM31.9483 38.2795C32.2964 38.7903 32.5784 39.2185 32.5749 39.231C32.5563 39.2975 31.3157 41.1673 31.2984 41.155C31.2796 41.1417 31.1635 40.9479 30.3562 39.5827C30.2118 39.3384 30.0972 39.1212 30.1015 39.1C30.112 39.0484 31.2798 37.3381 31.2997 37.3451C31.3083 37.3482 31.6001 37.7686 31.9483 38.2795Z"/>
</mask>
<path fill-rule="evenodd" clip-rule="evenodd" d="M31.0784 12.7899C30.8232 12.8392 30.4949 12.9905 30.353 13.1243C30.2104 13.2588 30.1922 13.3456 30.2112 13.8007L30.2265 14.1681L29.9721 14.2488C29.2164 14.4887 28.419 14.958 27.7475 15.5582C27.4706 15.8058 26.9102 16.4376 26.6623 16.7818C25.9362 17.7899 25.401 18.9766 25.0688 20.3146C24.9666 20.726 24.8506 21.3593 24.8087 21.7345L24.7783 22.006L24.5803 22.083C24.0335 22.2955 23.7581 22.5568 23.7581 22.8628C23.7581 23.3306 24.236 23.6341 25.386 23.8969C25.5829 23.9419 25.747 23.9831 25.7507 23.9885C25.7544 23.9939 25.7481 24.106 25.7367 24.2377C25.7059 24.5919 25.7075 25.6351 25.7394 26.0546C25.8691 27.7615 26.3361 29.3404 27.102 30.6624C27.5809 31.489 28.3056 32.3117 28.9733 32.7871C29.8271 33.395 30.6715 33.6807 31.6145 33.6807C33.3441 33.6807 34.9466 32.6311 36.0968 30.7449C36.6142 29.8963 37.0578 28.7435 37.2947 27.6321C37.5502 26.433 37.6145 25.2853 37.5047 23.8851C37.5014 23.8431 37.554 23.8196 37.8223 23.7438C38.762 23.478 39.1584 23.1911 39.1584 22.7768C39.1584 22.4775 38.9644 22.2691 38.4853 22.0535C38.2868 21.9641 38.2472 21.9363 38.2472 21.8857C38.2472 21.7601 38.121 20.9687 38.0395 20.5838C37.7896 19.4027 37.3477 18.2676 36.7698 17.3221C36.3887 16.6986 35.7372 15.9058 35.2735 15.5011C34.545 14.8653 33.7876 14.4405 32.9362 14.1903L32.8505 14.1651L32.8355 13.7013C32.8273 13.4462 32.819 13.2285 32.8172 13.2175C32.8087 13.1675 32.6908 13.0693 32.5522 12.9968C32.123 12.7721 31.5719 12.6947 31.0784 12.7899ZM51.5449 13.168C51.3571 13.2068 51.1046 13.3239 50.997 13.422L50.9022 13.5085L50.8953 13.8491L50.8884 14.1898L50.6804 14.2537C49.4238 14.6392 48.3059 15.6283 47.5467 17.0263C47.3826 17.3285 47.1157 17.9689 47.0009 18.3362C46.8908 18.6885 46.7576 19.2867 46.703 19.6743L46.6614 19.9701L46.511 20.0238C46.0135 20.2015 45.7816 20.4785 45.8967 20.7576C45.9992 21.0062 46.4017 21.2021 47.1424 21.3638C47.2898 21.396 47.4138 21.4264 47.4181 21.4313C47.4224 21.4362 47.4156 21.6292 47.403 21.8601C47.3244 23.3013 47.6308 24.7686 48.2632 25.98C48.5681 26.564 49.0862 27.235 49.5174 27.6045C51.2503 29.0892 53.4347 28.8799 54.989 27.0802C56.1645 25.7191 56.7774 23.5756 56.5882 21.4878L56.5726 21.3154L56.7042 21.2819C57.4782 21.0848 57.8176 20.8826 57.8653 20.5901C57.901 20.371 57.7075 20.1513 57.3498 20.005C57.1543 19.925 57.1825 19.991 57.0818 19.3785C56.9053 18.3044 56.535 17.3275 55.9768 16.4629C55.7315 16.0829 55.2203 15.4951 54.883 15.2051C54.3855 14.7774 53.7456 14.4177 53.1768 14.2461L52.9321 14.1723V13.8266C52.9321 13.5368 52.9253 13.4731 52.8898 13.4323C52.8355 13.3698 52.634 13.2674 52.4512 13.2094C52.2808 13.1553 51.7282 13.13 51.5449 13.168ZM11.7244 13.2525C11.5366 13.2914 11.2841 13.4084 11.1765 13.5065L11.0816 13.593L11.0748 13.9336L11.0679 14.2743L10.8599 14.3382C9.6033 14.7237 8.48541 15.7128 7.72618 17.1108C7.56205 17.413 7.29522 18.0534 7.18041 18.4207C7.07028 18.773 6.93711 19.3712 6.8825 19.7588L6.84085 20.0546L6.69045 20.1083C6.19295 20.286 5.96113 20.563 6.07623 20.8421C6.17873 21.0907 6.58122 21.2866 7.3219 21.4483C7.46924 21.4805 7.59328 21.5109 7.59756 21.5158C7.60187 21.5207 7.59506 21.7137 7.58248 21.9446C7.50392 23.3858 7.8103 24.8531 8.4427 26.0645C8.74756 26.6485 9.26564 27.3195 9.69684 27.689C11.4298 29.1737 13.6142 28.9644 15.1685 27.1647C16.344 25.8036 16.9569 23.6602 16.7677 21.5723L16.7521 21.3999L16.8837 21.3664C17.6577 21.1693 17.9971 20.9671 18.0448 20.6747C18.0805 20.4556 17.8869 20.2359 17.5293 20.0895C17.3337 20.0095 17.362 20.0755 17.2613 19.463C17.0847 18.3889 16.7145 17.4121 16.1563 16.5474C15.911 16.1674 15.3998 15.5796 15.0625 15.2896C14.565 14.8619 13.925 14.5022 13.3563 14.3306L13.1116 14.2568V13.9111C13.1116 13.6213 13.1047 13.5576 13.0693 13.5168C13.015 13.4543 12.8135 13.3519 12.6307 13.2939C12.4602 13.2398 11.9077 13.2145 11.7244 13.2525ZM31.9999 13.3795C32.0839 13.4016 32.1896 13.4375 32.2347 13.4592L32.3167 13.4986L32.3345 16.4069C32.3443 18.0064 32.3621 19.3446 32.3739 19.3805C32.4041 19.4717 32.5029 19.539 32.6067 19.539C32.6963 19.539 32.7708 19.4833 32.8211 19.3788C32.8407 19.3381 32.8462 18.6766 32.8408 17.0333C32.8367 15.7745 32.838 14.7446 32.8437 14.7446C32.8494 14.7446 32.9428 14.7751 33.0512 14.8125C34.6411 15.3602 35.9955 16.7049 36.8547 18.5887C37.3377 19.6478 37.6821 20.9855 37.746 22.051C37.7552 22.204 37.7782 22.3717 37.7971 22.4237C37.8557 22.5853 38.0067 22.6618 38.1288 22.5918C38.1711 22.5674 38.2181 22.5475 38.2333 22.5475C38.2751 22.5475 38.6063 22.7351 38.6246 22.7692C38.6338 22.7864 38.586 22.8309 38.5121 22.874C37.7883 23.2962 36.0094 23.6107 33.4746 23.7647C32.6718 23.8134 29.645 23.8137 28.8856 23.765C27.9993 23.7083 26.5429 23.5629 26.4346 23.5204C26.4193 23.5144 26.2376 23.4821 26.0308 23.4487C25.4035 23.3474 24.7865 23.1747 24.4726 23.0125C24.2169 22.8804 24.2233 22.8581 24.5641 22.6911C24.7331 22.6083 24.7454 22.6061 24.7763 22.6529C24.7942 22.6801 24.8093 22.7099 24.8097 22.7191C24.8112 22.7493 24.934 22.8011 25.0042 22.8011C25.0951 22.8011 25.1927 22.7097 25.2228 22.5964C25.2362 22.5463 25.2542 22.3975 25.2629 22.2658C25.3192 21.4122 25.5231 20.4239 25.8266 19.5334C26.4022 17.8445 27.4411 16.3742 28.6594 15.5241C28.9357 15.3313 29.2975 15.1272 29.6129 14.9861C29.9174 14.8499 30.1889 14.7564 30.2098 14.7804C30.2172 14.7889 30.2332 15.7636 30.2453 16.9463C30.2575 18.1291 30.2711 19.1695 30.2756 19.2583C30.2882 19.5087 30.418 19.6302 30.5993 19.5614C30.7692 19.4968 30.7649 19.5385 30.7601 18.0145C30.7577 17.2619 30.7475 16.1263 30.7373 15.4911C30.7272 14.8558 30.7194 14.1557 30.72 13.9353C30.7213 13.4797 30.7141 13.4966 30.9454 13.4091C31.2209 13.305 31.6686 13.2924 31.9999 13.3795ZM52.3124 13.6059C52.4039 13.6303 52.4911 13.662 52.506 13.6763C52.5252 13.6946 52.5384 14.3337 52.5508 15.8502C52.5699 18.1794 52.5648 18.1026 52.7033 18.1426C52.7387 18.1528 52.7961 18.1496 52.831 18.1355C52.9629 18.0821 52.9613 18.1079 52.9448 16.307C52.9364 15.3925 52.936 14.6368 52.9437 14.6279C52.9743 14.5927 53.474 14.7808 53.7814 14.9434C55.2409 15.7151 56.3395 17.3904 56.686 19.3727C56.7191 19.5618 56.7537 19.8306 56.763 19.97C56.7723 20.1095 56.7949 20.257 56.8132 20.298C56.8584 20.3987 56.9615 20.4372 57.0848 20.3994C57.1699 20.3732 57.199 20.3787 57.3238 20.4445C57.4977 20.5361 57.4861 20.5652 57.2333 20.6731C56.8279 20.8461 56.0596 21.0156 55.2449 21.1118C52.3344 21.4555 48.3737 21.3279 46.7644 20.8384C46.5042 20.7593 46.2671 20.6412 46.2884 20.6014C46.307 20.567 46.4162 20.5028 46.5397 20.4538C46.6346 20.4162 46.6414 20.4174 46.6894 20.481C46.7508 20.5623 46.8814 20.5703 46.9596 20.4974C47.0054 20.4548 47.0186 20.3959 47.0479 20.1056C47.2824 17.7829 48.3868 15.8862 50.0318 14.981C50.2821 14.8433 50.7847 14.6319 50.8617 14.6319C50.9038 14.6319 50.9183 15.0453 50.9373 16.7857C50.9519 18.1307 50.952 18.1315 51.089 18.1711C51.1696 18.1944 51.2692 18.1347 51.309 18.0394C51.3311 17.9863 51.3321 17.4715 51.3131 15.8456C51.2893 13.808 51.2901 13.7199 51.3327 13.6906C51.515 13.5649 52.0014 13.5229 52.3124 13.6059ZM12.4918 13.6904C12.5834 13.7149 12.6706 13.7465 12.6855 13.7608C12.7047 13.7791 12.7179 14.4182 12.7303 15.9347C12.7494 18.2639 12.7443 18.1871 12.8828 18.2271C12.9182 18.2373 12.9756 18.2342 13.0105 18.22C13.1424 18.1666 13.1408 18.1924 13.1243 16.3916C13.1159 15.477 13.1154 14.7214 13.1232 14.7124C13.1538 14.6772 13.6535 14.8654 13.9608 15.0279C15.4204 15.7997 16.519 17.4749 16.8655 19.4572C16.8986 19.6463 16.9332 19.9151 16.9425 20.0545C16.9518 20.194 16.9744 20.3416 16.9927 20.3825C17.0379 20.4832 17.141 20.5218 17.2643 20.4839C17.3494 20.4577 17.3785 20.4632 17.5033 20.529C17.6772 20.6206 17.6656 20.6498 17.4128 20.7576C17.0074 20.9306 16.2391 21.1001 15.4244 21.1963C12.5139 21.54 8.55323 21.4124 6.94391 20.9229C6.68372 20.8438 6.44658 20.7257 6.46793 20.6859C6.48645 20.6515 6.59568 20.5873 6.71921 20.5383C6.81407 20.5007 6.82085 20.5019 6.86885 20.5655C6.93033 20.6469 7.0609 20.6548 7.13912 20.5819C7.18484 20.5393 7.19811 20.4804 7.2274 20.1901C7.46187 17.8674 8.56625 15.9707 10.2113 15.0656C10.4616 14.9278 10.9641 14.7164 11.0412 14.7164C11.0833 14.7164 11.0978 15.1298 11.1167 16.8702C11.1314 18.2153 11.1315 18.216 11.2684 18.2556C11.3491 18.2789 11.4487 18.2193 11.4884 18.1239C11.5106 18.0708 11.5115 17.556 11.4926 15.9301C11.4688 13.8925 11.4696 13.8044 11.5122 13.7751C11.6945 13.6494 12.1809 13.6074 12.4918 13.6904ZM56.2038 21.5546C56.2337 21.7949 56.2254 22.7755 56.191 23.0828C55.9481 25.2476 54.9553 26.9859 53.5125 27.7726C52.5112 28.3185 51.406 28.3028 50.3989 27.7282C49.8702 27.4265 49.3658 26.95 48.9663 26.3747C48.1006 25.1282 47.6586 23.3256 47.8077 21.6495L47.8212 21.4979L47.972 21.5139C48.0549 21.5226 48.2935 21.5493 48.5021 21.5731C49.463 21.6827 50.1293 21.7129 51.6227 21.7145C53.0707 21.716 53.4508 21.7014 54.5719 21.6011C55.0166 21.5613 56.022 21.4322 56.0771 21.4079C56.1628 21.37 56.184 21.3945 56.2038 21.5546ZM16.3833 21.6391C16.4132 21.8794 16.4049 22.86 16.3704 23.1673C16.1276 25.3321 15.1348 27.0704 13.6919 27.8571C12.6907 28.403 11.5854 28.3873 10.5784 27.8127C10.0497 27.511 9.54532 27.0345 9.14574 26.4592C8.28009 25.2127 7.8381 23.4101 7.98718 21.734L8.00064 21.5824L8.15145 21.5984C8.2344 21.6072 8.47298 21.6338 8.68162 21.6576C9.64246 21.7672 10.3088 21.7974 11.8022 21.799C13.2502 21.8005 13.6303 21.7859 14.7514 21.6856C15.1961 21.6458 16.2015 21.5167 16.2566 21.4924C16.3422 21.4545 16.3634 21.479 16.3833 21.6391ZM37.0088 24.0194C37.0433 24.2237 37.054 25.5344 37.0247 25.9461C36.9371 27.1751 36.6437 28.4051 36.1945 29.4265C35.8448 30.2219 35.4839 30.8019 34.9692 31.3957C34.4555 31.9884 33.9677 32.3872 33.4075 32.6723C32.8316 32.9654 32.4019 33.0793 31.7829 33.1027C30.9766 33.1332 30.3808 32.9857 29.6686 32.5795C28.1727 31.7261 27.0355 29.9855 26.5007 27.7307C26.2727 26.7697 26.1713 25.6346 26.2228 24.6199C26.2376 24.3302 26.2543 24.0877 26.2601 24.0811C26.2659 24.0744 26.4019 24.0878 26.5624 24.1109C27.5448 24.2519 28.816 24.3444 30.2072 24.376C31.1744 24.3979 32.6986 24.3792 33.4134 24.3366C34.3261 24.2822 35.2058 24.2023 35.9099 24.1097C36.2561 24.0642 36.8985 23.96 36.9378 23.9429C36.9866 23.9217 36.9937 23.9294 37.0088 24.0194ZM44.8921 30.5177C44.543 30.6215 44.3377 30.7126 44.0292 30.9005C43.0507 31.4963 42.2573 32.467 41.9756 33.4129L41.9102 33.6323L41.8923 34.9281C41.8825 35.6408 41.8733 36.4306 41.8719 36.6832L41.8695 37.1426L41.7654 37.0691C41.3929 36.8062 40.8289 36.5445 40.4377 36.4532C39.8247 36.31 39.6446 36.2894 38.8713 36.2744C38.0774 36.2589 37.8341 36.2821 37.5846 36.397C37.4655 36.4518 37.4527 36.469 36.1786 38.2802C34.5165 40.6429 34.4672 40.7119 34.4414 40.7072C34.428 40.7048 33.8041 39.8028 33.055 38.7028C32.306 37.6028 31.6404 36.6424 31.5761 36.5686C31.3742 36.3371 31.1989 36.3285 31.0225 36.5412C30.942 36.6384 30.6084 37.1231 28.8113 39.7534L28.1513 40.7194L28.0985 40.6407C28.0245 40.5304 26.9684 38.9366 26.1144 37.6464C25.2302 36.3107 25.1804 36.2398 25.112 36.2201C25.0817 36.2113 24.5582 36.2023 23.9486 36.1999L22.8403 36.1957L22.4894 36.3036C22.2964 36.3629 22.1353 36.4073 22.1313 36.4022C22.1273 36.3971 22.118 35.8288 22.1107 35.1393L22.0974 33.8858L22.0321 33.6463C21.7779 32.7145 20.9584 31.7062 19.9624 31.1001C19.3904 30.752 18.816 30.6105 17.8669 30.5842C17.2258 30.5664 16.9702 30.5922 16.795 30.6926C16.7204 30.7354 16.4484 31.0846 15.6502 32.1623C15.0743 32.9398 14.5511 33.6438 14.4875 33.7269L14.3718 33.8778L13.2716 32.3506C12.6665 31.5106 12.1379 30.7945 12.0969 30.7592C11.9924 30.6692 11.9246 30.6513 11.8273 30.6883C11.7409 30.7211 11.7616 30.6934 9.969 33.176C9.70269 33.5448 9.47598 33.8427 9.46518 33.838C9.45437 33.8333 9.37083 33.7217 9.27954 33.59C8.56101 32.5535 7.20907 30.6356 7.16482 30.59C7.11276 30.5363 7.06932 30.5332 6.25654 30.5241C5.41252 30.5147 5.39994 30.5154 5.13603 30.5866C4.78394 30.6816 4.52252 30.7937 4.21228 30.9827C3.22952 31.5814 2.43509 32.5526 2.15544 33.4974L2.09051 33.7168L2.07108 35.2098C2.06038 36.0309 2.04004 37.5077 2.02585 38.4915C2.01165 39.4753 2.00002 40.5189 2.00002 40.8106L2 41.341L2.07154 41.4233C2.16381 41.5295 2.30789 41.5373 2.40476 41.4415C2.49738 41.3498 2.51169 41.2201 2.51277 40.4634C2.51375 39.7803 2.57888 34.8005 2.59567 34.1252C2.60328 33.8189 2.61561 33.7135 2.65913 33.5832C2.79455 33.1776 3.07019 32.7272 3.42284 32.3352C3.97206 31.7247 4.58092 31.3133 5.19046 31.1406L5.46319 31.0634L6.18091 31.077L6.89863 31.0906L7.28228 31.6401C7.49327 31.9423 7.99413 32.66 8.39524 33.2349C8.79639 33.8098 9.16909 34.3292 9.22345 34.3892C9.32213 34.4979 9.32262 34.4981 9.47311 34.4788C9.55606 34.4682 9.65364 34.4381 9.68999 34.4121C9.72633 34.386 9.956 34.0877 10.2003 33.7492C10.4447 33.4107 10.6527 33.1445 10.6626 33.1577C10.6726 33.1708 10.767 33.321 10.8726 33.4914L11.0645 33.8013L11.0351 34.2802C11.0189 34.5435 10.9895 35.0189 10.9698 35.3365C10.95 35.6541 10.9172 36.1865 10.8967 36.5196C10.8763 36.8528 10.8431 37.3915 10.8229 37.7169C10.8027 38.0422 10.7695 38.581 10.749 38.9141C10.7285 39.2472 10.6956 39.762 10.6757 40.0583C10.6558 40.3545 10.6326 40.7854 10.624 41.016L10.6086 41.4352L10.6764 41.5127C10.7273 41.5708 10.7682 41.5902 10.8404 41.5902C10.9619 41.5902 11.021 41.5538 11.0675 41.4501C11.1039 41.3693 11.1105 41.2858 11.2138 39.5901C11.2341 39.257 11.2618 38.8134 11.2754 38.6042C11.289 38.395 11.3224 37.8563 11.3495 37.407C11.3767 36.9577 11.4153 36.3302 11.4353 36.0126C11.5033 34.9323 11.5205 34.6464 11.5206 34.593C11.5207 34.5551 11.5456 34.5772 11.6069 34.6696C11.6755 34.773 11.7188 34.8083 11.8193 34.8426C11.8888 34.8664 11.9607 34.8858 11.9791 34.8858C12.0567 34.8858 12.1639 34.7884 12.2961 34.5977L12.4371 34.3944L12.4564 34.4781C12.467 34.5242 12.5141 34.8946 12.5611 35.3013C12.6081 35.708 12.6858 36.3735 12.7337 36.7802C12.7817 37.1869 12.8417 37.6971 12.867 37.914C12.8924 38.1309 12.9409 38.5429 12.9748 38.8295C13.0087 39.1162 13.0866 39.7817 13.1478 40.3085C13.209 40.8352 13.2653 41.3007 13.2728 41.3429C13.2803 41.3851 13.3196 41.4517 13.36 41.4908C13.5015 41.6279 13.7173 41.5574 13.7603 41.3599C13.7682 41.3236 13.7352 40.958 13.6869 40.5476C13.6386 40.1372 13.5605 39.4718 13.5133 39.069C13.3728 37.8701 13.3391 37.5834 13.2485 36.8154C13.201 36.4126 13.1233 35.7534 13.0758 35.3506C13.0283 34.9478 12.9723 34.4597 12.9512 34.2661C12.9302 34.0724 12.9034 33.8797 12.8916 33.8378C12.8724 33.7696 12.8892 33.7341 13.0518 33.4997C13.1517 33.3557 13.2431 33.2379 13.2549 33.2379C13.2668 33.2379 13.4709 33.5077 13.7085 33.8374C13.973 34.2044 14.1663 34.4482 14.2068 34.4659C14.2733 34.495 14.4705 34.4773 14.5721 34.4331C14.6014 34.4204 15.141 33.7158 15.7714 32.8674C16.4017 32.019 16.946 31.2873 16.9809 31.2414L17.0444 31.158L17.7518 31.1638C18.1409 31.1669 18.5529 31.1816 18.6673 31.1963C19.413 31.2922 20.2054 31.7951 20.8701 32.5942C21.1413 32.9203 21.3203 33.2087 21.4611 33.5465C21.5562 33.7746 21.563 33.8078 21.5804 34.1328C21.5905 34.3223 21.6028 34.9712 21.6077 35.5749L21.6166 36.6725L21.4208 36.7963C20.0729 37.6484 18.9431 39.1762 18.7032 40.471C18.6776 40.609 18.6642 40.9522 18.655 41.7105C18.6479 42.2873 18.62 44.5448 18.5929 46.7272C18.5659 48.9096 18.5509 50.7387 18.5595 50.7919C18.5905 50.9817 18.7844 51.1192 18.9525 51.0707C19.0634 51.0386 19.1751 50.8853 19.1907 50.7436C19.1983 50.6748 19.2319 48.3748 19.2653 45.6325C19.3328 40.0973 19.3142 40.534 19.5028 40.069C19.7202 39.5331 19.9938 39.1021 20.4523 38.5732C20.9994 37.9421 21.6083 37.4647 22.2248 37.1836C22.317 37.1415 22.5318 37.0668 22.702 37.0176L23.0116 36.9281L23.9233 36.9375L24.8349 36.947L25.0996 37.346C27.363 40.7584 27.8362 41.4611 27.9028 41.5095C27.9679 41.5569 28.0064 41.5631 28.1487 41.5492C28.2414 41.5401 28.3535 41.5129 28.3978 41.4888C28.4544 41.4579 28.6511 41.1918 29.0613 40.5916C29.3819 40.1223 29.6526 39.7438 29.6628 39.7505C29.6729 39.7571 29.7967 39.96 29.9378 40.2014L30.1943 40.6401L30.121 41.8827C29.7038 48.947 29.5978 50.8429 29.6155 50.9216C29.6252 50.9643 29.6638 51.0388 29.7013 51.0871C29.8423 51.2687 30.1272 51.2094 30.21 50.9813C30.2476 50.8778 30.2562 50.7435 30.5741 45.2945C30.6492 44.0085 30.7267 42.6902 30.7464 42.3648C30.7661 42.0395 30.7823 41.7417 30.7823 41.7032C30.7824 41.6434 30.795 41.6548 30.8696 41.7822C30.971 41.9555 31.0503 42.018 31.2327 42.0684C31.4609 42.1314 31.5372 42.078 31.8008 41.6705C31.8923 41.529 31.9703 41.4246 31.9742 41.4384C31.978 41.4521 32.2173 43.5839 32.5058 46.1757C32.9208 49.9029 33.0398 50.9064 33.0751 50.9759C33.138 51.0997 33.2797 51.1792 33.3938 51.1546C33.5078 51.1299 33.6372 50.9835 33.6574 50.856C33.6721 50.7638 32.5682 40.7361 32.5312 40.6251C32.5195 40.5901 32.5828 40.4714 32.7526 40.2099C32.8834 40.0084 32.9974 39.8442 33.0061 39.8448C33.0148 39.8454 33.265 40.2035 33.5622 40.6406C33.8593 41.0777 34.1402 41.465 34.1863 41.5014C34.2614 41.5608 34.2875 41.5658 34.4409 41.5499C34.7554 41.5174 34.4731 41.8795 37.1536 38.0704C37.3983 37.7225 37.6525 37.3612 37.7182 37.2675C37.8279 37.1113 37.8483 37.0952 37.963 37.0743C38.1302 37.0439 39.3233 37.0509 39.7514 37.0849C40.1524 37.1168 40.4708 37.2014 40.8435 37.3752C42.0726 37.9482 43.3466 39.4121 43.644 40.5932L43.7055 40.8375L43.7666 45.8407C43.8002 48.5924 43.8337 50.8853 43.841 50.936C43.8698 51.1351 44.0652 51.2888 44.2292 51.2413C44.3238 51.214 44.4358 51.0884 44.4616 50.9806C44.4828 50.8923 44.3897 41.9158 44.3579 40.9845C44.3369 40.3679 44.0855 39.6922 43.5982 38.9422C43.3866 38.6164 42.8814 38.0147 42.5831 37.733L42.3634 37.5256L42.3753 36.8184C42.3818 36.4294 42.3956 35.5598 42.4059 34.8858C42.4238 33.7134 42.427 33.6534 42.4792 33.4987C42.6167 33.0905 42.8913 32.6421 43.2434 32.2507C43.7926 31.6402 44.4014 31.2288 45.011 31.0561L45.2837 30.9789L46.0014 30.9925L46.7192 31.006L47.1028 31.5555C47.3138 31.8578 47.8146 32.5755 48.2158 33.1504C48.6169 33.7253 48.9896 34.2447 49.044 34.3046C49.1426 34.4134 49.1431 34.4136 49.2936 34.3943C49.3766 34.3837 49.4742 34.3536 49.5105 34.3275C49.5468 34.3015 49.7765 34.0032 50.0209 33.6647C50.2652 33.3262 50.4732 33.06 50.4832 33.0732C50.4931 33.0863 50.5875 33.2365 50.6931 33.4069L50.885 33.7168L50.8556 34.1957C50.8394 34.459 50.8101 34.9344 50.7903 35.252C50.7705 35.5696 50.7377 36.102 50.7172 36.4351C50.6968 36.7682 50.6636 37.307 50.6434 37.6323C50.6232 37.9577 50.59 38.4964 50.5695 38.8295C50.5491 39.1627 50.5161 39.6775 50.4962 39.9737C50.4763 40.2699 50.4531 40.7009 50.4446 40.9315L50.4291 41.3507L50.4969 41.4282C50.5478 41.4863 50.5887 41.5057 50.6609 41.5057C50.7824 41.5057 50.8415 41.4693 50.8881 41.3656C50.9244 41.2848 50.931 41.2013 51.0343 39.5056C51.0546 39.1725 51.0823 38.7288 51.0959 38.5197C51.1095 38.3105 51.1429 37.7718 51.1701 37.3225C51.1972 36.8732 51.2359 36.2457 51.2558 35.9281C51.3238 34.8478 51.341 34.5619 51.3411 34.5085C51.3412 34.4706 51.3661 34.4927 51.4274 34.5851C51.496 34.6885 51.5393 34.7238 51.6399 34.7581C51.7093 34.7819 51.7812 34.8013 51.7997 34.8013C51.8773 34.8013 51.9844 34.7039 52.1167 34.5132L52.2576 34.3099L52.2769 34.3936C52.2875 34.4397 52.3347 34.8101 52.3816 35.2168C52.4286 35.6235 52.5063 36.289 52.5543 36.6957C52.6022 37.1024 52.6622 37.6126 52.6876 37.8295C52.7129 38.0464 52.7614 38.4584 52.7953 38.745C52.8292 39.0317 52.9071 39.6972 52.9683 40.2239C53.0295 40.7507 53.0858 41.2162 53.0933 41.2584C53.1008 41.3006 53.1401 41.3671 53.1805 41.4063C53.3221 41.5434 53.5378 41.4728 53.5808 41.2754C53.5888 41.2391 53.5557 40.8735 53.5074 40.4631C53.4591 40.0527 53.381 39.3873 53.3338 38.9845C53.1933 37.7856 53.1596 37.4989 53.0691 36.7309C53.0216 36.3281 52.9438 35.6689 52.8964 35.2661C52.8488 34.8633 52.7928 34.3752 52.7717 34.1816C52.7507 33.9879 52.7239 33.7952 52.7121 33.7533C52.6929 33.6851 52.7097 33.6496 52.8723 33.4152C52.9722 33.2712 53.0636 33.1534 53.0755 33.1534C53.0873 33.1534 53.2914 33.4232 53.529 33.7529C53.7935 34.1199 53.9868 34.3637 54.0274 34.3814C54.0938 34.4105 54.291 34.3928 54.3926 34.3486C54.4219 34.3359 54.9616 33.6313 55.5919 32.7829C56.2222 31.9345 56.7665 31.2028 56.8014 31.1569L56.8649 31.0735L57.5724 31.0793C58.5404 31.0872 58.7645 31.1216 59.2289 31.3339C60.0402 31.7049 60.8921 32.5714 61.253 33.3928C61.304 33.509 61.3584 33.6548 61.3739 33.7168C61.4051 33.842 61.4303 35.1375 61.475 38.9141C61.4968 40.7634 61.5104 41.3144 61.5355 41.3841C61.6021 41.5688 61.8197 41.6097 61.941 41.4604L62 41.3878L61.9947 40.4678C61.9887 39.446 61.9449 35.6775 61.9256 34.5259C61.9139 33.8316 61.9092 33.7714 61.8502 33.5541C61.5997 32.6318 60.7754 31.6195 59.7829 31.0156C59.2109 30.6674 58.6365 30.526 57.6874 30.4997C57.0463 30.4819 56.7907 30.5077 56.6155 30.6081C56.5409 30.6509 56.2689 31.0001 55.4707 32.0778C54.8948 32.8553 54.3716 33.5593 54.308 33.6424L54.1923 33.7933L53.0921 32.2661C52.487 31.4261 51.9584 30.71 51.9175 30.6747C51.8129 30.5847 51.7451 30.5668 51.6479 30.6038C51.5614 30.6366 51.5821 30.6089 49.7895 33.0915C49.5232 33.4603 49.2965 33.7582 49.2857 33.7535C49.2749 33.7488 49.1913 33.6372 49.1001 33.5055C48.3815 32.469 47.0296 30.551 46.9853 30.5054C46.933 30.4516 46.8924 30.4488 46.046 30.4434L45.1613 30.4376L44.8921 30.5177ZM52.2366 31.9598C52.5047 32.3336 52.724 32.6556 52.724 32.6754C52.724 32.7093 51.7568 34.1357 51.745 34.119C51.742 34.1147 51.6848 34.0224 51.618 33.914C51.5512 33.8055 51.3398 33.4656 51.1482 33.1585C50.9566 32.8515 50.8032 32.5913 50.8074 32.5802C50.8157 32.5582 51.737 31.2801 51.7446 31.2801C51.7471 31.2801 51.9686 31.586 52.2366 31.9598ZM12.4161 32.0443C12.6842 32.4181 12.9035 32.7401 12.9035 32.7599C12.9035 32.7939 11.9363 34.2202 11.9245 34.2035C11.9215 34.1992 11.8643 34.1069 11.7975 33.9985C11.7307 33.89 11.5193 33.5501 11.3277 33.243C11.1361 32.936 10.9827 32.6758 10.9869 32.6647C10.9952 32.6427 11.9165 31.3646 11.924 31.3646C11.9266 31.3646 12.148 31.6705 12.4161 32.0443ZM31.9483 38.2795C32.2964 38.7903 32.5784 39.2185 32.5749 39.231C32.5563 39.2975 31.3157 41.1673 31.2984 41.155C31.2796 41.1417 31.1635 40.9479 30.3562 39.5827C30.2118 39.3384 30.0972 39.1212 30.1015 39.1C30.112 39.0484 31.2798 37.3381 31.2997 37.3451C31.3083 37.3482 31.6001 37.7686 31.9483 38.2795Z" fill="#EC6A2D"/>
<path fill-rule="evenodd" clip-rule="evenodd" d="M31.0784 12.7899C30.8232 12.8392 30.4949 12.9905 30.353 13.1243C30.2104 13.2588 30.1922 13.3456 30.2112 13.8007L30.2265 14.1681L29.9721 14.2488C29.2164 14.4887 28.419 14.958 27.7475 15.5582C27.4706 15.8058 26.9102 16.4376 26.6623 16.7818C25.9362 17.7899 25.401 18.9766 25.0688 20.3146C24.9666 20.726 24.8506 21.3593 24.8087 21.7345L24.7783 22.006L24.5803 22.083C24.0335 22.2955 23.7581 22.5568 23.7581 22.8628C23.7581 23.3306 24.236 23.6341 25.386 23.8969C25.5829 23.9419 25.747 23.9831 25.7507 23.9885C25.7544 23.9939 25.7481 24.106 25.7367 24.2377C25.7059 24.5919 25.7075 25.6351 25.7394 26.0546C25.8691 27.7615 26.3361 29.3404 27.102 30.6624C27.5809 31.489 28.3056 32.3117 28.9733 32.7871C29.8271 33.395 30.6715 33.6807 31.6145 33.6807C33.3441 33.6807 34.9466 32.6311 36.0968 30.7449C36.6142 29.8963 37.0578 28.7435 37.2947 27.6321C37.5502 26.433 37.6145 25.2853 37.5047 23.8851C37.5014 23.8431 37.554 23.8196 37.8223 23.7438C38.762 23.478 39.1584 23.1911 39.1584 22.7768C39.1584 22.4775 38.9644 22.2691 38.4853 22.0535C38.2868 21.9641 38.2472 21.9363 38.2472 21.8857C38.2472 21.7601 38.121 20.9687 38.0395 20.5838C37.7896 19.4027 37.3477 18.2676 36.7698 17.3221C36.3887 16.6986 35.7372 15.9058 35.2735 15.5011C34.545 14.8653 33.7876 14.4405 32.9362 14.1903L32.8505 14.1651L32.8355 13.7013C32.8273 13.4462 32.819 13.2285 32.8172 13.2175C32.8087 13.1675 32.6908 13.0693 32.5522 12.9968C32.123 12.7721 31.5719 12.6947 31.0784 12.7899ZM51.5449 13.168C51.3571 13.2068 51.1046 13.3239 50.997 13.422L50.9022 13.5085L50.8953 13.8491L50.8884 14.1898L50.6804 14.2537C49.4238 14.6392 48.3059 15.6283 47.5467 17.0263C47.3826 17.3285 47.1157 17.9689 47.0009 18.3362C46.8908 18.6885 46.7576 19.2867 46.703 19.6743L46.6614 19.9701L46.511 20.0238C46.0135 20.2015 45.7816 20.4785 45.8967 20.7576C45.9992 21.0062 46.4017 21.2021 47.1424 21.3638C47.2898 21.396 47.4138 21.4264 47.4181 21.4313C47.4224 21.4362 47.4156 21.6292 47.403 21.8601C47.3244 23.3013 47.6308 24.7686 48.2632 25.98C48.5681 26.564 49.0862 27.235 49.5174 27.6045C51.2503 29.0892 53.4347 28.8799 54.989 27.0802C56.1645 25.7191 56.7774 23.5756 56.5882 21.4878L56.5726 21.3154L56.7042 21.2819C57.4782 21.0848 57.8176 20.8826 57.8653 20.5901C57.901 20.371 57.7075 20.1513 57.3498 20.005C57.1543 19.925 57.1825 19.991 57.0818 19.3785C56.9053 18.3044 56.535 17.3275 55.9768 16.4629C55.7315 16.0829 55.2203 15.4951 54.883 15.2051C54.3855 14.7774 53.7456 14.4177 53.1768 14.2461L52.9321 14.1723V13.8266C52.9321 13.5368 52.9253 13.4731 52.8898 13.4323C52.8355 13.3698 52.634 13.2674 52.4512 13.2094C52.2808 13.1553 51.7282 13.13 51.5449 13.168ZM11.7244 13.2525C11.5366 13.2914 11.2841 13.4084 11.1765 13.5065L11.0816 13.593L11.0748 13.9336L11.0679 14.2743L10.8599 14.3382C9.6033 14.7237 8.48541 15.7128 7.72618 17.1108C7.56205 17.413 7.29522 18.0534 7.18041 18.4207C7.07028 18.773 6.93711 19.3712 6.8825 19.7588L6.84085 20.0546L6.69045 20.1083C6.19295 20.286 5.96113 20.563 6.07623 20.8421C6.17873 21.0907 6.58122 21.2866 7.3219 21.4483C7.46924 21.4805 7.59328 21.5109 7.59756 21.5158C7.60187 21.5207 7.59506 21.7137 7.58248 21.9446C7.50392 23.3858 7.8103 24.8531 8.4427 26.0645C8.74756 26.6485 9.26564 27.3195 9.69684 27.689C11.4298 29.1737 13.6142 28.9644 15.1685 27.1647C16.344 25.8036 16.9569 23.6602 16.7677 21.5723L16.7521 21.3999L16.8837 21.3664C17.6577 21.1693 17.9971 20.9671 18.0448 20.6747C18.0805 20.4556 17.8869 20.2359 17.5293 20.0895C17.3337 20.0095 17.362 20.0755 17.2613 19.463C17.0847 18.3889 16.7145 17.4121 16.1563 16.5474C15.911 16.1674 15.3998 15.5796 15.0625 15.2896C14.565 14.8619 13.925 14.5022 13.3563 14.3306L13.1116 14.2568V13.9111C13.1116 13.6213 13.1047 13.5576 13.0693 13.5168C13.015 13.4543 12.8135 13.3519 12.6307 13.2939C12.4602 13.2398 11.9077 13.2145 11.7244 13.2525ZM31.9999 13.3795C32.0839 13.4016 32.1896 13.4375 32.2347 13.4592L32.3167 13.4986L32.3345 16.4069C32.3443 18.0064 32.3621 19.3446 32.3739 19.3805C32.4041 19.4717 32.5029 19.539 32.6067 19.539C32.6963 19.539 32.7708 19.4833 32.8211 19.3788C32.8407 19.3381 32.8462 18.6766 32.8408 17.0333C32.8367 15.7745 32.838 14.7446 32.8437 14.7446C32.8494 14.7446 32.9428 14.7751 33.0512 14.8125C34.6411 15.3602 35.9955 16.7049 36.8547 18.5887C37.3377 19.6478 37.6821 20.9855 37.746 22.051C37.7552 22.204 37.7782 22.3717 37.7971 22.4237C37.8557 22.5853 38.0067 22.6618 38.1288 22.5918C38.1711 22.5674 38.2181 22.5475 38.2333 22.5475C38.2751 22.5475 38.6063 22.7351 38.6246 22.7692C38.6338 22.7864 38.586 22.8309 38.5121 22.874C37.7883 23.2962 36.0094 23.6107 33.4746 23.7647C32.6718 23.8134 29.645 23.8137 28.8856 23.765C27.9993 23.7083 26.5429 23.5629 26.4346 23.5204C26.4193 23.5144 26.2376 23.4821 26.0308 23.4487C25.4035 23.3474 24.7865 23.1747 24.4726 23.0125C24.2169 22.8804 24.2233 22.8581 24.5641 22.6911C24.7331 22.6083 24.7454 22.6061 24.7763 22.6529C24.7942 22.6801 24.8093 22.7099 24.8097 22.7191C24.8112 22.7493 24.934 22.8011 25.0042 22.8011C25.0951 22.8011 25.1927 22.7097 25.2228 22.5964C25.2362 22.5463 25.2542 22.3975 25.2629 22.2658C25.3192 21.4122 25.5231 20.4239 25.8266 19.5334C26.4022 17.8445 27.4411 16.3742 28.6594 15.5241C28.9357 15.3313 29.2975 15.1272 29.6129 14.9861C29.9174 14.8499 30.1889 14.7564 30.2098 14.7804C30.2172 14.7889 30.2332 15.7636 30.2453 16.9463C30.2575 18.1291 30.2711 19.1695 30.2756 19.2583C30.2882 19.5087 30.418 19.6302 30.5993 19.5614C30.7692 19.4968 30.7649 19.5385 30.7601 18.0145C30.7577 17.2619 30.7475 16.1263 30.7373 15.4911C30.7272 14.8558 30.7194 14.1557 30.72 13.9353C30.7213 13.4797 30.7141 13.4966 30.9454 13.4091C31.2209 13.305 31.6686 13.2924 31.9999 13.3795ZM52.3124 13.6059C52.4039 13.6303 52.4911 13.662 52.506 13.6763C52.5252 13.6946 52.5384 14.3337 52.5508 15.8502C52.5699 18.1794 52.5648 18.1026 52.7033 18.1426C52.7387 18.1528 52.7961 18.1496 52.831 18.1355C52.9629 18.0821 52.9613 18.1079 52.9448 16.307C52.9364 15.3925 52.936 14.6368 52.9437 14.6279C52.9743 14.5927 53.474 14.7808 53.7814 14.9434C55.2409 15.7151 56.3395 17.3904 56.686 19.3727C56.7191 19.5618 56.7537 19.8306 56.763 19.97C56.7723 20.1095 56.7949 20.257 56.8132 20.298C56.8584 20.3987 56.9615 20.4372 57.0848 20.3994C57.1699 20.3732 57.199 20.3787 57.3238 20.4445C57.4977 20.5361 57.4861 20.5652 57.2333 20.6731C56.8279 20.8461 56.0596 21.0156 55.2449 21.1118C52.3344 21.4555 48.3737 21.3279 46.7644 20.8384C46.5042 20.7593 46.2671 20.6412 46.2884 20.6014C46.307 20.567 46.4162 20.5028 46.5397 20.4538C46.6346 20.4162 46.6414 20.4174 46.6894 20.481C46.7508 20.5623 46.8814 20.5703 46.9596 20.4974C47.0054 20.4548 47.0186 20.3959 47.0479 20.1056C47.2824 17.7829 48.3868 15.8862 50.0318 14.981C50.2821 14.8433 50.7847 14.6319 50.8617 14.6319C50.9038 14.6319 50.9183 15.0453 50.9373 16.7857C50.9519 18.1307 50.952 18.1315 51.089 18.1711C51.1696 18.1944 51.2692 18.1347 51.309 18.0394C51.3311 17.9863 51.3321 17.4715 51.3131 15.8456C51.2893 13.808 51.2901 13.7199 51.3327 13.6906C51.515 13.5649 52.0014 13.5229 52.3124 13.6059ZM12.4918 13.6904C12.5834 13.7149 12.6706 13.7465 12.6855 13.7608C12.7047 13.7791 12.7179 14.4182 12.7303 15.9347C12.7494 18.2639 12.7443 18.1871 12.8828 18.2271C12.9182 18.2373 12.9756 18.2342 13.0105 18.22C13.1424 18.1666 13.1408 18.1924 13.1243 16.3916C13.1159 15.477 13.1154 14.7214 13.1232 14.7124C13.1538 14.6772 13.6535 14.8654 13.9608 15.0279C15.4204 15.7997 16.519 17.4749 16.8655 19.4572C16.8986 19.6463 16.9332 19.9151 16.9425 20.0545C16.9518 20.194 16.9744 20.3416 16.9927 20.3825C17.0379 20.4832 17.141 20.5218 17.2643 20.4839C17.3494 20.4577 17.3785 20.4632 17.5033 20.529C17.6772 20.6206 17.6656 20.6498 17.4128 20.7576C17.0074 20.9306 16.2391 21.1001 15.4244 21.1963C12.5139 21.54 8.55323 21.4124 6.94391 20.9229C6.68372 20.8438 6.44658 20.7257 6.46793 20.6859C6.48645 20.6515 6.59568 20.5873 6.71921 20.5383C6.81407 20.5007 6.82085 20.5019 6.86885 20.5655C6.93033 20.6469 7.0609 20.6548 7.13912 20.5819C7.18484 20.5393 7.19811 20.4804 7.2274 20.1901C7.46187 17.8674 8.56625 15.9707 10.2113 15.0656C10.4616 14.9278 10.9641 14.7164 11.0412 14.7164C11.0833 14.7164 11.0978 15.1298 11.1167 16.8702C11.1314 18.2153 11.1315 18.216 11.2684 18.2556C11.3491 18.2789 11.4487 18.2193 11.4884 18.1239C11.5106 18.0708 11.5115 17.556 11.4926 15.9301C11.4688 13.8925 11.4696 13.8044 11.5122 13.7751C11.6945 13.6494 12.1809 13.6074 12.4918 13.6904ZM56.2038 21.5546C56.2337 21.7949 56.2254 22.7755 56.191 23.0828C55.9481 25.2476 54.9553 26.9859 53.5125 27.7726C52.5112 28.3185 51.406 28.3028 50.3989 27.7282C49.8702 27.4265 49.3658 26.95 48.9663 26.3747C48.1006 25.1282 47.6586 23.3256 47.8077 21.6495L47.8212 21.4979L47.972 21.5139C48.0549 21.5226 48.2935 21.5493 48.5021 21.5731C49.463 21.6827 50.1293 21.7129 51.6227 21.7145C53.0707 21.716 53.4508 21.7014 54.5719 21.6011C55.0166 21.5613 56.022 21.4322 56.0771 21.4079C56.1628 21.37 56.184 21.3945 56.2038 21.5546ZM16.3833 21.6391C16.4132 21.8794 16.4049 22.86 16.3704 23.1673C16.1276 25.3321 15.1348 27.0704 13.6919 27.8571C12.6907 28.403 11.5854 28.3873 10.5784 27.8127C10.0497 27.511 9.54532 27.0345 9.14574 26.4592C8.28009 25.2127 7.8381 23.4101 7.98718 21.734L8.00064 21.5824L8.15145 21.5984C8.2344 21.6072 8.47298 21.6338 8.68162 21.6576C9.64246 21.7672 10.3088 21.7974 11.8022 21.799C13.2502 21.8005 13.6303 21.7859 14.7514 21.6856C15.1961 21.6458 16.2015 21.5167 16.2566 21.4924C16.3422 21.4545 16.3634 21.479 16.3833 21.6391ZM37.0088 24.0194C37.0433 24.2237 37.054 25.5344 37.0247 25.9461C36.9371 27.1751 36.6437 28.4051 36.1945 29.4265C35.8448 30.2219 35.4839 30.8019 34.9692 31.3957C34.4555 31.9884 33.9677 32.3872 33.4075 32.6723C32.8316 32.9654 32.4019 33.0793 31.7829 33.1027C30.9766 33.1332 30.3808 32.9857 29.6686 32.5795C28.1727 31.7261 27.0355 29.9855 26.5007 27.7307C26.2727 26.7697 26.1713 25.6346 26.2228 24.6199C26.2376 24.3302 26.2543 24.0877 26.2601 24.0811C26.2659 24.0744 26.4019 24.0878 26.5624 24.1109C27.5448 24.2519 28.816 24.3444 30.2072 24.376C31.1744 24.3979 32.6986 24.3792 33.4134 24.3366C34.3261 24.2822 35.2058 24.2023 35.9099 24.1097C36.2561 24.0642 36.8985 23.96 36.9378 23.9429C36.9866 23.9217 36.9937 23.9294 37.0088 24.0194ZM44.8921 30.5177C44.543 30.6215 44.3377 30.7126 44.0292 30.9005C43.0507 31.4963 42.2573 32.467 41.9756 33.4129L41.9102 33.6323L41.8923 34.9281C41.8825 35.6408 41.8733 36.4306 41.8719 36.6832L41.8695 37.1426L41.7654 37.0691C41.3929 36.8062 40.8289 36.5445 40.4377 36.4532C39.8247 36.31 39.6446 36.2894 38.8713 36.2744C38.0774 36.2589 37.8341 36.2821 37.5846 36.397C37.4655 36.4518 37.4527 36.469 36.1786 38.2802C34.5165 40.6429 34.4672 40.7119 34.4414 40.7072C34.428 40.7048 33.8041 39.8028 33.055 38.7028C32.306 37.6028 31.6404 36.6424 31.5761 36.5686C31.3742 36.3371 31.1989 36.3285 31.0225 36.5412C30.942 36.6384 30.6084 37.1231 28.8113 39.7534L28.1513 40.7194L28.0985 40.6407C28.0245 40.5304 26.9684 38.9366 26.1144 37.6464C25.2302 36.3107 25.1804 36.2398 25.112 36.2201C25.0817 36.2113 24.5582 36.2023 23.9486 36.1999L22.8403 36.1957L22.4894 36.3036C22.2964 36.3629 22.1353 36.4073 22.1313 36.4022C22.1273 36.3971 22.118 35.8288 22.1107 35.1393L22.0974 33.8858L22.0321 33.6463C21.7779 32.7145 20.9584 31.7062 19.9624 31.1001C19.3904 30.752 18.816 30.6105 17.8669 30.5842C17.2258 30.5664 16.9702 30.5922 16.795 30.6926C16.7204 30.7354 16.4484 31.0846 15.6502 32.1623C15.0743 32.9398 14.5511 33.6438 14.4875 33.7269L14.3718 33.8778L13.2716 32.3506C12.6665 31.5106 12.1379 30.7945 12.0969 30.7592C11.9924 30.6692 11.9246 30.6513 11.8273 30.6883C11.7409 30.7211 11.7616 30.6934 9.969 33.176C9.70269 33.5448 9.47598 33.8427 9.46518 33.838C9.45437 33.8333 9.37083 33.7217 9.27954 33.59C8.56101 32.5535 7.20907 30.6356 7.16482 30.59C7.11276 30.5363 7.06932 30.5332 6.25654 30.5241C5.41252 30.5147 5.39994 30.5154 5.13603 30.5866C4.78394 30.6816 4.52252 30.7937 4.21228 30.9827C3.22952 31.5814 2.43509 32.5526 2.15544 33.4974L2.09051 33.7168L2.07108 35.2098C2.06038 36.0309 2.04004 37.5077 2.02585 38.4915C2.01165 39.4753 2.00002 40.5189 2.00002 40.8106L2 41.341L2.07154 41.4233C2.16381 41.5295 2.30789 41.5373 2.40476 41.4415C2.49738 41.3498 2.51169 41.2201 2.51277 40.4634C2.51375 39.7803 2.57888 34.8005 2.59567 34.1252C2.60328 33.8189 2.61561 33.7135 2.65913 33.5832C2.79455 33.1776 3.07019 32.7272 3.42284 32.3352C3.97206 31.7247 4.58092 31.3133 5.19046 31.1406L5.46319 31.0634L6.18091 31.077L6.89863 31.0906L7.28228 31.6401C7.49327 31.9423 7.99413 32.66 8.39524 33.2349C8.79639 33.8098 9.16909 34.3292 9.22345 34.3892C9.32213 34.4979 9.32262 34.4981 9.47311 34.4788C9.55606 34.4682 9.65364 34.4381 9.68999 34.4121C9.72633 34.386 9.956 34.0877 10.2003 33.7492C10.4447 33.4107 10.6527 33.1445 10.6626 33.1577C10.6726 33.1708 10.767 33.321 10.8726 33.4914L11.0645 33.8013L11.0351 34.2802C11.0189 34.5435 10.9895 35.0189 10.9698 35.3365C10.95 35.6541 10.9172 36.1865 10.8967 36.5196C10.8763 36.8528 10.8431 37.3915 10.8229 37.7169C10.8027 38.0422 10.7695 38.581 10.749 38.9141C10.7285 39.2472 10.6956 39.762 10.6757 40.0583C10.6558 40.3545 10.6326 40.7854 10.624 41.016L10.6086 41.4352L10.6764 41.5127C10.7273 41.5708 10.7682 41.5902 10.8404 41.5902C10.9619 41.5902 11.021 41.5538 11.0675 41.4501C11.1039 41.3693 11.1105 41.2858 11.2138 39.5901C11.2341 39.257 11.2618 38.8134 11.2754 38.6042C11.289 38.395 11.3224 37.8563 11.3495 37.407C11.3767 36.9577 11.4153 36.3302 11.4353 36.0126C11.5033 34.9323 11.5205 34.6464 11.5206 34.593C11.5207 34.5551 11.5456 34.5772 11.6069 34.6696C11.6755 34.773 11.7188 34.8083 11.8193 34.8426C11.8888 34.8664 11.9607 34.8858 11.9791 34.8858C12.0567 34.8858 12.1639 34.7884 12.2961 34.5977L12.4371 34.3944L12.4564 34.4781C12.467 34.5242 12.5141 34.8946 12.5611 35.3013C12.6081 35.708 12.6858 36.3735 12.7337 36.7802C12.7817 37.1869 12.8417 37.6971 12.867 37.914C12.8924 38.1309 12.9409 38.5429 12.9748 38.8295C13.0087 39.1162 13.0866 39.7817 13.1478 40.3085C13.209 40.8352 13.2653 41.3007 13.2728 41.3429C13.2803 41.3851 13.3196 41.4517 13.36 41.4908C13.5015 41.6279 13.7173 41.5574 13.7603 41.3599C13.7682 41.3236 13.7352 40.958 13.6869 40.5476C13.6386 40.1372 13.5605 39.4718 13.5133 39.069C13.3728 37.8701 13.3391 37.5834 13.2485 36.8154C13.201 36.4126 13.1233 35.7534 13.0758 35.3506C13.0283 34.9478 12.9723 34.4597 12.9512 34.2661C12.9302 34.0724 12.9034 33.8797 12.8916 33.8378C12.8724 33.7696 12.8892 33.7341 13.0518 33.4997C13.1517 33.3557 13.2431 33.2379 13.2549 33.2379C13.2668 33.2379 13.4709 33.5077 13.7085 33.8374C13.973 34.2044 14.1663 34.4482 14.2068 34.4659C14.2733 34.495 14.4705 34.4773 14.5721 34.4331C14.6014 34.4204 15.141 33.7158 15.7714 32.8674C16.4017 32.019 16.946 31.2873 16.9809 31.2414L17.0444 31.158L17.7518 31.1638C18.1409 31.1669 18.5529 31.1816 18.6673 31.1963C19.413 31.2922 20.2054 31.7951 20.8701 32.5942C21.1413 32.9203 21.3203 33.2087 21.4611 33.5465C21.5562 33.7746 21.563 33.8078 21.5804 34.1328C21.5905 34.3223 21.6028 34.9712 21.6077 35.5749L21.6166 36.6725L21.4208 36.7963C20.0729 37.6484 18.9431 39.1762 18.7032 40.471C18.6776 40.609 18.6642 40.9522 18.655 41.7105C18.6479 42.2873 18.62 44.5448 18.5929 46.7272C18.5659 48.9096 18.5509 50.7387 18.5595 50.7919C18.5905 50.9817 18.7844 51.1192 18.9525 51.0707C19.0634 51.0386 19.1751 50.8853 19.1907 50.7436C19.1983 50.6748 19.2319 48.3748 19.2653 45.6325C19.3328 40.0973 19.3142 40.534 19.5028 40.069C19.7202 39.5331 19.9938 39.1021 20.4523 38.5732C20.9994 37.9421 21.6083 37.4647 22.2248 37.1836C22.317 37.1415 22.5318 37.0668 22.702 37.0176L23.0116 36.9281L23.9233 36.9375L24.8349 36.947L25.0996 37.346C27.363 40.7584 27.8362 41.4611 27.9028 41.5095C27.9679 41.5569 28.0064 41.5631 28.1487 41.5492C28.2414 41.5401 28.3535 41.5129 28.3978 41.4888C28.4544 41.4579 28.6511 41.1918 29.0613 40.5916C29.3819 40.1223 29.6526 39.7438 29.6628 39.7505C29.6729 39.7571 29.7967 39.96 29.9378 40.2014L30.1943 40.6401L30.121 41.8827C29.7038 48.947 29.5978 50.8429 29.6155 50.9216C29.6252 50.9643 29.6638 51.0388 29.7013 51.0871C29.8423 51.2687 30.1272 51.2094 30.21 50.9813C30.2476 50.8778 30.2562 50.7435 30.5741 45.2945C30.6492 44.0085 30.7267 42.6902 30.7464 42.3648C30.7661 42.0395 30.7823 41.7417 30.7823 41.7032C30.7824 41.6434 30.795 41.6548 30.8696 41.7822C30.971 41.9555 31.0503 42.018 31.2327 42.0684C31.4609 42.1314 31.5372 42.078 31.8008 41.6705C31.8923 41.529 31.9703 41.4246 31.9742 41.4384C31.978 41.4521 32.2173 43.5839 32.5058 46.1757C32.9208 49.9029 33.0398 50.9064 33.0751 50.9759C33.138 51.0997 33.2797 51.1792 33.3938 51.1546C33.5078 51.1299 33.6372 50.9835 33.6574 50.856C33.6721 50.7638 32.5682 40.7361 32.5312 40.6251C32.5195 40.5901 32.5828 40.4714 32.7526 40.2099C32.8834 40.0084 32.9974 39.8442 33.0061 39.8448C33.0148 39.8454 33.265 40.2035 33.5622 40.6406C33.8593 41.0777 34.1402 41.465 34.1863 41.5014C34.2614 41.5608 34.2875 41.5658 34.4409 41.5499C34.7554 41.5174 34.4731 41.8795 37.1536 38.0704C37.3983 37.7225 37.6525 37.3612 37.7182 37.2675C37.8279 37.1113 37.8483 37.0952 37.963 37.0743C38.1302 37.0439 39.3233 37.0509 39.7514 37.0849C40.1524 37.1168 40.4708 37.2014 40.8435 37.3752C42.0726 37.9482 43.3466 39.4121 43.644 40.5932L43.7055 40.8375L43.7666 45.8407C43.8002 48.5924 43.8337 50.8853 43.841 50.936C43.8698 51.1351 44.0652 51.2888 44.2292 51.2413C44.3238 51.214 44.4358 51.0884 44.4616 50.9806C44.4828 50.8923 44.3897 41.9158 44.3579 40.9845C44.3369 40.3679 44.0855 39.6922 43.5982 38.9422C43.3866 38.6164 42.8814 38.0147 42.5831 37.733L42.3634 37.5256L42.3753 36.8184C42.3818 36.4294 42.3956 35.5598 42.4059 34.8858C42.4238 33.7134 42.427 33.6534 42.4792 33.4987C42.6167 33.0905 42.8913 32.6421 43.2434 32.2507C43.7926 31.6402 44.4014 31.2288 45.011 31.0561L45.2837 30.9789L46.0014 30.9925L46.7192 31.006L47.1028 31.5555C47.3138 31.8578 47.8146 32.5755 48.2158 33.1504C48.6169 33.7253 48.9896 34.2447 49.044 34.3046C49.1426 34.4134 49.1431 34.4136 49.2936 34.3943C49.3766 34.3837 49.4742 34.3536 49.5105 34.3275C49.5468 34.3015 49.7765 34.0032 50.0209 33.6647C50.2652 33.3262 50.4732 33.06 50.4832 33.0732C50.4931 33.0863 50.5875 33.2365 50.6931 33.4069L50.885 33.7168L50.8556 34.1957C50.8394 34.459 50.8101 34.9344 50.7903 35.252C50.7705 35.5696 50.7377 36.102 50.7172 36.4351C50.6968 36.7682 50.6636 37.307 50.6434 37.6323C50.6232 37.9577 50.59 38.4964 50.5695 38.8295C50.5491 39.1627 50.5161 39.6775 50.4962 39.9737C50.4763 40.2699 50.4531 40.7009 50.4446 40.9315L50.4291 41.3507L50.4969 41.4282C50.5478 41.4863 50.5887 41.5057 50.6609 41.5057C50.7824 41.5057 50.8415 41.4693 50.8881 41.3656C50.9244 41.2848 50.931 41.2013 51.0343 39.5056C51.0546 39.1725 51.0823 38.7288 51.0959 38.5197C51.1095 38.3105 51.1429 37.7718 51.1701 37.3225C51.1972 36.8732 51.2359 36.2457 51.2558 35.9281C51.3238 34.8478 51.341 34.5619 51.3411 34.5085C51.3412 34.4706 51.3661 34.4927 51.4274 34.5851C51.496 34.6885 51.5393 34.7238 51.6399 34.7581C51.7093 34.7819 51.7812 34.8013 51.7997 34.8013C51.8773 34.8013 51.9844 34.7039 52.1167 34.5132L52.2576 34.3099L52.2769 34.3936C52.2875 34.4397 52.3347 34.8101 52.3816 35.2168C52.4286 35.6235 52.5063 36.289 52.5543 36.6957C52.6022 37.1024 52.6622 37.6126 52.6876 37.8295C52.7129 38.0464 52.7614 38.4584 52.7953 38.745C52.8292 39.0317 52.9071 39.6972 52.9683 40.2239C53.0295 40.7507 53.0858 41.2162 53.0933 41.2584C53.1008 41.3006 53.1401 41.3671 53.1805 41.4063C53.3221 41.5434 53.5378 41.4728 53.5808 41.2754C53.5888 41.2391 53.5557 40.8735 53.5074 40.4631C53.4591 40.0527 53.381 39.3873 53.3338 38.9845C53.1933 37.7856 53.1596 37.4989 53.0691 36.7309C53.0216 36.3281 52.9438 35.6689 52.8964 35.2661C52.8488 34.8633 52.7928 34.3752 52.7717 34.1816C52.7507 33.9879 52.7239 33.7952 52.7121 33.7533C52.6929 33.6851 52.7097 33.6496 52.8723 33.4152C52.9722 33.2712 53.0636 33.1534 53.0755 33.1534C53.0873 33.1534 53.2914 33.4232 53.529 33.7529C53.7935 34.1199 53.9868 34.3637 54.0274 34.3814C54.0938 34.4105 54.291 34.3928 54.3926 34.3486C54.4219 34.3359 54.9616 33.6313 55.5919 32.7829C56.2222 31.9345 56.7665 31.2028 56.8014 31.1569L56.8649 31.0735L57.5724 31.0793C58.5404 31.0872 58.7645 31.1216 59.2289 31.3339C60.0402 31.7049 60.8921 32.5714 61.253 33.3928C61.304 33.509 61.3584 33.6548 61.3739 33.7168C61.4051 33.842 61.4303 35.1375 61.475 38.9141C61.4968 40.7634 61.5104 41.3144 61.5355 41.3841C61.6021 41.5688 61.8197 41.6097 61.941 41.4604L62 41.3878L61.9947 40.4678C61.9887 39.446 61.9449 35.6775 61.9256 34.5259C61.9139 33.8316 61.9092 33.7714 61.8502 33.5541C61.5997 32.6318 60.7754 31.6195 59.7829 31.0156C59.2109 30.6674 58.6365 30.526 57.6874 30.4997C57.0463 30.4819 56.7907 30.5077 56.6155 30.6081C56.5409 30.6509 56.2689 31.0001 55.4707 32.0778C54.8948 32.8553 54.3716 33.5593 54.308 33.6424L54.1923 33.7933L53.0921 32.2661C52.487 31.4261 51.9584 30.71 51.9175 30.6747C51.8129 30.5847 51.7451 30.5668 51.6479 30.6038C51.5614 30.6366 51.5821 30.6089 49.7895 33.0915C49.5232 33.4603 49.2965 33.7582 49.2857 33.7535C49.2749 33.7488 49.1913 33.6372 49.1001 33.5055C48.3815 32.469 47.0296 30.551 46.9853 30.5054C46.933 30.4516 46.8924 30.4488 46.046 30.4434L45.1613 30.4376L44.8921 30.5177ZM52.2366 31.9598C52.5047 32.3336 52.724 32.6556 52.724 32.6754C52.724 32.7093 51.7568 34.1357 51.745 34.119C51.742 34.1147 51.6848 34.0224 51.618 33.914C51.5512 33.8055 51.3398 33.4656 51.1482 33.1585C50.9566 32.8515 50.8032 32.5913 50.8074 32.5802C50.8157 32.5582 51.737 31.2801 51.7446 31.2801C51.7471 31.2801 51.9686 31.586 52.2366 31.9598ZM12.4161 32.0443C12.6842 32.4181 12.9035 32.7401 12.9035 32.7599C12.9035 32.7939 11.9363 34.2202 11.9245 34.2035C11.9215 34.1992 11.8643 34.1069 11.7975 33.9985C11.7307 33.89 11.5193 33.5501 11.3277 33.243C11.1361 32.936 10.9827 32.6758 10.9869 32.6647C10.9952 32.6427 11.9165 31.3646 11.924 31.3646C11.9266 31.3646 12.148 31.6705 12.4161 32.0443ZM31.9483 38.2795C32.2964 38.7903 32.5784 39.2185 32.5749 39.231C32.5563 39.2975 31.3157 41.1673 31.2984 41.155C31.2796 41.1417 31.1635 40.9479 30.3562 39.5827C30.2118 39.3384 30.0972 39.1212 30.1015 39.1C30.112 39.0484 31.2798 37.3381 31.2997 37.3451C31.3083 37.3482 31.6001 37.7686 31.9483 38.2795Z" stroke="#EC6A2D" stroke-width="0.8" mask="url(#path-1-outside-1_1424_31849)"/>
</svg>
