<svg width="19" height="19" viewBox="0 0 19 19" fill="none" xmlns="http://www.w3.org/2000/svg">
<path d="M16.1676 2.80782C14.4523 1.04205 12.0811 0.0834961 9.65951 0.0834961C4.51356 0.0834961 0.376622 4.27088 0.427073 9.36638C0.427073 10.9808 0.881127 12.5448 1.63788 13.9574L0.326172 18.7502L5.21987 17.4889C6.58203 18.2457 8.09554 18.5988 9.60906 18.5988C14.7046 18.5988 18.8415 14.4114 18.8415 9.31593C18.8415 6.84386 17.8829 4.52314 16.1676 2.80782ZM9.65951 17.0348C8.29734 17.0348 6.93518 16.6817 5.77482 15.9754L5.47212 15.824L2.54599 16.5808L3.30275 13.7051L3.10095 13.4024C0.881127 9.82043 1.94059 5.07809 5.57302 2.85827C9.20545 0.638451 13.8973 1.69791 16.1172 5.33034C18.337 8.96278 17.2775 13.6547 13.6451 15.8745C12.4847 16.6312 11.0721 17.0348 9.65951 17.0348ZM14.0991 11.4348L13.5442 11.1826C13.5442 11.1826 12.737 10.8294 12.2325 10.5772C12.182 10.5772 12.1316 10.5267 12.0811 10.5267C11.9298 10.5267 11.8289 10.5772 11.728 10.6276C11.728 10.6276 11.6775 10.6781 10.9712 11.4853C10.9208 11.5862 10.8199 11.6366 10.719 11.6366H10.6685C10.6181 11.6366 10.5172 11.5862 10.4667 11.5357L10.2145 11.4348C9.65951 11.1826 9.155 10.8799 8.7514 10.4763C8.6505 10.3754 8.49915 10.2745 8.39824 10.1736C8.04509 9.82043 7.69194 9.41683 7.43969 8.96278L7.38924 8.86187C7.33879 8.81142 7.33879 8.76097 7.28833 8.66007C7.28833 8.55917 7.28833 8.45827 7.33879 8.40782C7.33879 8.40782 7.54059 8.15557 7.69194 8.00422C7.79284 7.90332 7.84329 7.75196 7.94419 7.65106C8.04509 7.49971 8.09554 7.29791 8.04509 7.14656C7.99464 6.89431 7.38924 5.53214 7.23788 5.22944C7.13698 5.07809 7.03608 5.02764 6.88473 4.97719H6.73338C6.63248 4.97719 6.48113 4.97719 6.32978 4.97719C6.22888 4.97719 6.12797 5.02764 6.02707 5.02764L5.97662 5.07809C5.87572 5.12854 5.77482 5.22944 5.67392 5.27989C5.57302 5.38079 5.52257 5.48169 5.42167 5.58259C5.06851 6.03665 4.86671 6.5916 4.86671 7.14656C4.86671 7.55016 4.96761 7.95377 5.11897 8.30692L5.16942 8.45827C5.62347 9.41683 6.22888 10.2745 7.03608 11.0312L7.23788 11.233C7.38924 11.3844 7.54059 11.4853 7.64149 11.6366C8.70095 12.5448 9.91176 13.2006 11.2739 13.5538C11.4253 13.6042 11.6271 13.6042 11.7784 13.6547C11.9298 13.6547 12.1316 13.6547 12.2829 13.6547C12.5352 13.6547 12.8379 13.5538 13.0397 13.4529C13.191 13.352 13.2919 13.352 13.3928 13.2511L13.4937 13.1502C13.5946 13.0493 13.6955 12.9988 13.7964 12.8979C13.8973 12.797 13.9982 12.6961 14.0487 12.5952C14.1496 12.3934 14.2 12.1412 14.2505 11.8889C14.2505 11.788 14.2505 11.6366 14.2505 11.5357C14.2505 11.5357 14.2 11.4853 14.0991 11.4348Z" fill="white"/>
</svg>
