<svg width="20" height="21" viewBox="0 0 20 21" fill="none" xmlns="http://www.w3.org/2000/svg">
<path d="M5.83333 5.50008V3.00008C5.83333 2.77907 5.92113 2.56711 6.07741 2.41083C6.23369 2.25455 6.44565 2.16675 6.66667 2.16675H16.6667C16.8877 2.16675 17.0996 2.25455 17.2559 2.41083C17.4122 2.56711 17.5 2.77907 17.5 3.00008V14.6667C17.5 14.8878 17.4122 15.0997 17.2559 15.256C17.0996 15.4123 16.8877 15.5001 16.6667 15.5001H14.1667V18.0001C14.1667 18.4601 13.7917 18.8334 13.3275 18.8334H3.33917C3.22927 18.8341 3.12033 18.813 3.0186 18.7714C2.91687 18.7299 2.82436 18.6686 2.74638 18.5912C2.6684 18.5137 2.60649 18.4216 2.56421 18.3202C2.52193 18.2188 2.50011 18.11 2.5 18.0001L2.5025 6.33342C2.5025 5.87341 2.8775 5.50008 3.34083 5.50008H5.83333ZM4.16833 7.16675L4.16667 17.1667H12.5V7.16675H4.16833ZM7.5 5.50008H14.1667V13.8334H15.8333V3.83341H7.5V5.50008ZM5.83333 9.66675H10.8333V11.3334H5.83333V9.66675ZM5.83333 13.0001H10.8333V14.6667H5.83333V13.0001Z" fill="black"/>
</svg>
