<svg width="32" height="32" viewBox="0 0 32 32" fill="none" xmlns="http://www.w3.org/2000/svg">
<circle cx="16" cy="16" r="15.5" stroke="#D8D8D8" stroke-dasharray="1 1"/>
<path d="M8.66675 17.6666C8.66634 16.9302 8.8537 16.2059 9.21112 15.5621C9.56854 14.9183 10.0842 14.3763 10.7094 13.9873C10.8744 12.7007 11.5026 11.5183 12.4764 10.6614C13.4502 9.80447 14.7029 9.33179 16.0001 9.33179C17.2972 9.33179 18.5499 9.80447 19.5237 10.6614C20.4976 11.5183 21.1257 12.7007 21.2907 13.9873C22.0662 14.4697 22.6695 15.1849 23.0143 16.0306C23.3591 16.8763 23.4279 17.8093 23.2108 18.6965C22.9938 19.5836 22.502 20.3795 21.8056 20.9705C21.1093 21.5615 20.244 21.9173 19.3334 21.9873L12.6667 21.9999C10.4294 21.8173 8.66675 19.9479 8.66675 17.6666ZM19.2321 20.6579C19.8626 20.6094 20.4617 20.3629 20.9438 19.9536C21.4259 19.5443 21.7663 18.9931 21.9164 18.3788C22.0665 17.7644 22.0186 17.1183 21.7796 16.5328C21.5405 15.9473 21.1226 15.4524 20.5854 15.1186L20.0474 14.7833L19.9674 14.1553C19.8428 13.1911 19.3713 12.3052 18.6411 11.6633C17.9109 11.0214 16.972 10.6674 15.9997 10.6674C15.0275 10.6674 14.0886 11.0214 13.3584 11.6633C12.6282 12.3052 12.1567 13.1911 12.0321 14.1553L11.9521 14.7833L11.4154 15.1186C10.8783 15.4523 10.4603 15.9473 10.2213 16.5327C9.98222 17.1181 9.93427 17.7641 10.0843 18.3785C10.2343 18.9928 10.5746 19.544 11.0566 19.9534C11.5386 20.3627 12.1376 20.6093 12.7681 20.6579L12.8834 20.6666H19.1167L19.2321 20.6579ZM16.6667 15.9999H18.6667L16.0001 19.3333L13.3334 15.9999H15.3334V13.3333H16.6667V15.9999Z" fill="#EC6A2D"/>
</svg>
