<svg width="64" height="64" viewBox="0 0 64 64" fill="none" xmlns="http://www.w3.org/2000/svg">
<mask id="path-1-outside-1_1269_30118" maskUnits="userSpaceOnUse" x="1.625" y="3.375" width="61" height="57" fill="black">
<rect fill="white" x="1.625" y="3.375" width="61" height="57"/>
<path fill-rule="evenodd" clip-rule="evenodd" d="M2.71808 34.8148C2.76928 34.8328 2.88898 34.8623 2.98404 34.8804C3.36217 34.9524 4.8469 35.3644 5.19463 35.4938C5.65393 35.6648 5.7786 35.7222 6.22221 35.9671C6.98926 36.3906 7.81541 37.0512 8.37258 37.6866C10.1387 39.7008 10.7182 42.3509 9.89972 44.6697C9.52419 45.7334 8.6815 46.9005 7.44338 48.0718C7.1148 48.3827 6.84596 48.6511 6.84596 48.6682C6.84596 48.6854 6.88069 48.692 6.92317 48.683C7.79702 48.496 9.80033 48.2353 10.7163 48.1894C11.9735 48.1263 13.3314 48.2985 14.3332 48.648C15.9464 49.2108 17.1921 50.2393 17.9083 51.5997C18.5279 52.7768 18.7375 53.6259 18.7776 55.1225C18.8033 56.0786 18.795 56.067 19.1978 55.7109C19.6071 55.3492 20.7763 54.5975 21.3426 54.3321C21.9648 54.0405 22.8355 53.7934 23.5068 53.7179C23.9588 53.6671 24.8548 53.6756 25.2933 53.735C26.8268 53.9424 28.2043 54.5883 29.3242 55.6249C30.1292 56.37 30.9648 57.5591 31.5875 58.8453C31.7285 59.1366 31.8602 59.375 31.8802 59.375C31.9002 59.375 32.0473 59.114 32.2072 58.7951C32.8666 57.4794 33.6934 56.3374 34.5209 55.5995C36.4315 53.8958 39.0616 53.3069 41.492 54.0389C42.1814 54.2465 42.8412 54.5767 43.7023 55.1451C44.1745 55.4569 44.359 55.5945 44.6289 55.8366C44.8069 55.9964 44.8675 56.033 44.9291 56.0181C45.0048 55.9997 45.0064 55.9898 45.0065 55.5343C45.0069 54.3397 45.223 53.1781 45.5955 52.3694C46.0717 51.3355 46.479 50.7528 47.1484 50.1476C48.5691 48.8634 50.7258 48.2098 53.088 48.3478C53.9466 48.3979 55.5885 48.6123 56.6122 48.808C56.8158 48.847 56.9903 48.8716 56.9998 48.8627C57.0181 48.8458 56.8499 48.6756 56.1914 48.0449C55.7546 47.6265 55.4726 47.2947 54.9281 46.5584C54.0508 45.3719 53.6562 44.2032 53.6552 42.7879C53.6543 41.5868 53.8939 40.5989 54.449 39.515C54.8875 38.6588 55.4036 37.9859 56.1426 37.3066C57.0934 36.4327 58.2175 35.816 59.4709 35.4808C60.0193 35.3342 60.7702 35.1468 61.0667 35.0827C61.3018 35.0318 61.3735 34.9967 61.375 34.9316C61.3753 34.9186 61.2048 34.8287 60.996 34.7318C60.1671 34.3468 58.9647 33.6271 58.4444 33.2045C56.8816 31.9349 55.8473 30.0986 55.484 27.9486C55.3945 27.4191 55.3949 25.8958 55.4846 25.3747C55.6778 24.2528 56.0734 23.3023 56.7146 22.4195C57.1817 21.7764 57.5288 21.4135 58.1896 20.8772C58.2965 20.7905 58.4164 20.6814 58.4559 20.6347C58.5215 20.5574 58.5231 20.5454 58.4736 20.4997C58.4337 20.4627 58.3505 20.4494 58.1586 20.4494C58.0153 20.4494 57.804 20.4355 57.6893 20.4185C57.5745 20.4014 57.2767 20.3582 57.0275 20.3224C56.7783 20.2866 56.4 20.2216 56.1868 20.178C55.5516 20.0479 54.1889 19.6012 53.6156 19.335C50.6696 17.967 48.793 15.5644 48.6569 12.9866C48.6266 12.4117 48.6933 11.8774 48.8874 11.1391C48.9842 10.7713 49.5557 9.25845 49.7578 8.83535C49.8037 8.73919 49.8345 8.66055 49.8262 8.66055C49.818 8.66055 49.6664 8.77138 49.4895 8.90681C48.5843 9.59959 47.7649 10.1097 46.8423 10.5547C45.8528 11.032 45.2678 11.2507 44.4753 11.4398C43.473 11.6789 42.6433 11.7599 41.4717 11.7331C39.8025 11.695 38.3917 11.3809 36.959 10.7285C35.0081 9.84004 33.6222 8.47771 32.9965 6.83343C32.9167 6.62371 32.8306 6.40207 32.8052 6.3409C32.7688 6.25323 32.2738 4.83348 32.2208 4.66472C32.2139 4.64286 32.1719 4.625 32.1274 4.625C32.0519 4.625 32.0257 4.68283 31.7418 5.47501C31.5743 5.94253 31.4253 6.34646 31.4108 6.37268C31.3962 6.3989 31.3432 6.53474 31.2931 6.67455C30.4039 9.1519 27.7626 10.9992 24.3438 11.5346C22.0888 11.8877 19.6622 11.5689 17.8445 10.6805C16.3723 9.96099 15.803 9.61389 14.7068 8.7671C14.5451 8.64222 14.4081 8.54413 14.4023 8.54918C14.3964 8.5542 14.4293 8.64212 14.4753 8.74451C14.5649 8.94377 14.8456 9.65244 14.9078 9.83626C14.9285 9.89743 15.005 10.1119 15.0778 10.3129C15.5453 11.6029 15.6375 12.6418 15.3867 13.7924C15.1842 14.7218 14.6724 15.7336 13.9772 16.579C12.8441 17.9571 11.1645 19.0446 9.28246 19.619C8.9899 19.7083 8.68105 19.8043 8.59612 19.8324C8.12553 19.9882 6.71288 20.2164 6.01648 20.2491C5.45894 20.2753 5.45924 20.2787 6.06717 20.8036C7.72437 22.2344 8.57024 23.9632 8.65343 26.0897C8.74632 28.4642 7.82186 30.8214 6.14771 32.4789C5.61106 33.0101 5.00393 33.4375 4.01025 33.9836C3.70572 34.151 3.27072 34.3737 3.04354 34.4785C2.606 34.6805 2.53757 34.7512 2.71808 34.8148ZM5.65447 33.9914C7.58264 32.67 8.95408 30.5246 9.40552 28.1233C9.56756 27.2613 9.60699 26.1674 9.5051 25.3607C9.28874 23.6481 8.62045 22.1906 7.54918 21.0949L7.32588 20.8665L7.48912 20.8463C9.64862 20.5792 11.6206 19.7773 13.2313 18.5111C14.2143 17.7383 15.0643 16.7393 15.5955 15.7323C16.1669 14.649 16.4204 13.6803 16.4204 12.5799C16.4204 12.0068 16.3655 11.5672 16.2305 11.0584C16.1839 10.883 16.1458 10.7295 16.1458 10.7175C16.1458 10.7054 16.3427 10.8158 16.5834 10.9627C17.8 11.7053 19.1786 12.1718 20.8644 12.4113C21.472 12.4976 22.8624 12.5318 23.5148 12.4765C26.908 12.1888 29.8749 10.6661 31.3828 8.43812C31.6711 8.01219 31.9047 7.56072 32.0886 7.07392C32.0981 7.04891 32.1885 7.21697 32.2895 7.44741C32.7771 8.56001 33.5959 9.556 34.6941 10.3724C36.2736 11.5465 38.2523 12.2854 40.4422 12.5187C42.3168 12.7184 44.2364 12.4932 45.936 11.8741C46.6105 11.6284 47.3655 11.258 47.8666 10.9269C47.9581 10.8664 48.0374 10.8215 48.0428 10.8271C48.0483 10.8327 48.0161 10.9707 47.9714 11.1338C47.7947 11.7784 47.7709 11.9712 47.7709 12.7596C47.7709 13.5346 47.7958 13.7453 47.9607 14.3643C48.3227 15.723 49.1872 17.1067 50.343 18.177C51.3085 19.071 52.3801 19.7409 53.74 20.3003C54.3762 20.562 55.4805 20.8618 56.2108 20.9709C56.3996 20.9991 56.6064 21.0302 56.6706 21.04L56.7871 21.0578L56.5978 21.2382C55.5345 22.2514 54.8257 23.7328 54.5578 25.5018C54.4748 26.0499 54.4749 27.2963 54.5581 27.8532C54.8166 29.5839 55.4534 31.109 56.4622 32.4131C57.1181 33.261 58.0255 34.056 58.8807 34.5319C59.0374 34.6191 59.1336 34.6904 59.1064 34.699C57.5644 35.1924 56.5347 35.7695 55.5038 36.7182C54.2549 37.8674 53.4349 39.1992 52.9993 40.7861C52.8163 41.4525 52.7504 41.9633 52.7491 42.7244C52.7472 43.8238 52.9123 44.6389 53.3348 45.616C53.6133 46.2601 54.1525 47.0648 54.6316 47.5514L54.7695 47.6914L54.6151 47.6687C53.7372 47.5397 53.1684 47.4915 52.5218 47.4914C50.0709 47.4911 47.9124 48.2512 46.4305 49.6365C45.1917 50.7945 44.4828 52.2907 44.3139 54.1037L44.2737 54.5363L43.9451 54.3058C42.5619 53.3353 40.9166 52.8516 39.1725 52.9028C38.0121 52.9368 37.0677 53.156 35.9982 53.6394C35.1003 54.0453 34.3775 54.5331 33.6765 55.2063C33.0068 55.8495 32.5619 56.4437 32.1206 57.2842L31.8754 57.7514L31.8154 57.5969C31.6043 57.0535 30.98 56.1049 30.4442 55.5135C29.3514 54.3072 27.7906 53.4059 26.1622 53.0405C25.4782 52.887 25.1006 52.8467 24.3476 52.8467C23.5522 52.8467 23.1793 52.8902 22.4307 53.0702C21.4587 53.3039 20.5138 53.7359 19.732 54.3041L19.5261 54.4537L19.5008 54.0627C19.4579 53.3979 19.269 52.5218 19.0418 51.9339C18.8813 51.5182 18.4977 50.8198 18.2261 50.4485C16.9826 48.749 15.0996 47.7351 12.5769 47.4069C11.9159 47.3209 10.5472 47.3288 9.78609 47.4231C9.46856 47.4624 9.18287 47.5035 9.15123 47.5144C9.11959 47.5253 9.18006 47.4422 9.28555 47.3298C10.2434 46.3091 10.8311 45.1147 11.0903 43.6618C11.1868 43.1215 11.1776 41.8396 11.0734 41.2786C10.6164 38.8202 9.18809 36.7688 7.00313 35.4328C6.54513 35.1528 5.6437 34.7386 5.15993 34.5859L4.82946 34.4816L5.14278 34.3045C5.31511 34.2071 5.54538 34.0662 5.65447 33.9914ZM13.9846 32.715C14.1626 36.1002 15.4116 39.3072 17.6042 42.0094C20.3707 45.4188 24.4504 47.7128 29.0147 48.4256C30.1678 48.6057 30.7362 48.6481 32.0002 48.6484C33.1905 48.6487 33.706 48.6135 34.7971 48.4576C37.7083 48.0415 40.5031 46.9413 42.8959 45.2695C43.8253 44.6202 45.0622 43.5368 45.7654 42.7562C47.6085 40.7101 48.8532 38.4404 49.5206 35.9084C50.229 33.2211 50.2106 30.5513 49.4649 27.8056C49.2246 26.9206 48.7146 25.5988 48.3646 24.9538L48.2656 24.7712L49.5054 23.1902C50.1873 22.3207 50.761 21.5735 50.7801 21.5298C50.7994 21.4861 50.8221 21.3789 50.8307 21.2915C50.8435 21.1619 50.8315 21.1126 50.7661 21.0241C50.7107 20.9493 50.1424 20.5784 48.9356 19.8294C47.341 18.8397 47.1695 18.7413 47.0061 18.7215C46.7875 18.695 46.5841 18.7764 46.4826 18.9309C46.4467 18.9855 46.1423 19.3767 45.8062 19.8L45.1951 20.5698L44.6117 20.0392C42.3165 17.9518 39.4744 16.4806 36.3539 15.7647C34.1468 15.2583 32.0387 15.1413 29.7482 15.3979C25.9432 15.8243 22.2691 17.4552 19.478 19.9568C16.3389 22.7703 14.4287 26.481 14.0391 30.5224C13.9719 31.2188 13.9508 32.0715 13.9846 32.715ZM14.9586 30.3794C15.3293 27.1429 16.6506 24.245 18.893 21.7508C19.3382 21.2556 20.4287 20.2436 20.9502 19.8417C22.897 18.3414 25.0443 17.2911 27.3775 16.698C30.2961 15.9561 33.2274 15.9087 36.072 16.5574C39.173 17.2647 41.9322 18.7121 44.1824 20.812C44.6249 21.225 44.6431 21.2471 44.5972 21.3154C44.545 21.3931 43.9535 22.1424 40.8539 26.0579C38.4356 29.1127 35.8772 32.3473 33.6656 35.1458C32.7817 36.2643 32.0514 37.1866 32.0427 37.1954C32.034 37.2041 31.7699 36.9669 31.4559 36.6682C28.3482 33.7126 20.6945 26.5223 20.6248 26.4929C20.4078 26.4014 20.2425 26.4579 19.9333 26.7294C19.6095 27.0136 17.0558 29.4794 17.0135 29.5486C16.9617 29.6336 16.9585 29.7601 17.0053 29.8769C17.0258 29.9281 20.0591 32.7625 24.1003 36.5069C31.5545 43.4134 31.9462 43.7692 32.4238 44.0691C32.5549 44.1514 32.5832 44.1569 32.7724 44.1369C32.8856 44.1249 33.0187 44.0959 33.0681 44.0725C33.1538 44.0319 33.5855 43.4886 37.6109 38.3552C40.6122 34.5277 43.7492 30.5287 44.8162 29.1698C45.421 28.3996 46.3018 27.2744 46.7737 26.6693C47.2455 26.0642 47.647 25.5731 47.6659 25.5778C47.7104 25.5891 47.9853 26.2177 48.2026 26.8046C48.694 28.1324 48.9847 29.4661 49.0926 30.8878C49.1433 31.5564 49.1157 32.9943 49.0397 33.6365C48.52 38.0304 46.0907 42.0009 42.3144 44.6284C39.6916 46.4533 36.6648 47.5166 33.3558 47.7757C32.8229 47.8174 31.2435 47.8177 30.6754 47.7762C28.4287 47.6122 26.3093 47.0642 24.3071 46.1297C21.1247 44.6443 18.5674 42.3369 16.8982 39.4447C15.7712 37.4921 15.0994 35.3387 14.9125 33.0804C14.8689 32.5542 14.8969 30.9187 14.9586 30.3794ZM19.2521 28.569L20.4183 27.4447L20.9841 27.9747C22.0302 28.9544 23.354 30.2025 26.9726 33.6206C31.7947 38.1753 31.6889 38.0767 31.8145 38.1319C31.9667 38.1988 32.2335 38.1938 32.3613 38.1216C32.4609 38.0654 32.6372 37.8493 34.3219 35.7178C35.3406 34.4288 38.7877 30.0721 40.1673 28.3299C40.7831 27.5522 41.5809 26.5441 41.9403 26.0897C44.5695 22.765 46.4611 20.3744 46.7253 20.0425C46.9415 19.7709 47.0488 19.6603 47.0767 19.6802C47.0988 19.696 47.707 20.0906 48.4282 20.557C49.1495 21.0234 49.7458 21.4152 49.7534 21.4277C49.761 21.4402 49.4636 21.8365 49.0924 22.3083C48.7213 22.7802 47.7167 24.06 46.86 25.1523C46.0034 26.2446 44.59 28.0463 43.7192 29.156C42.8483 30.2658 41.2501 32.3035 40.1674 33.6841C39.0848 35.0648 37.4813 37.1096 36.604 38.2281C35.7268 39.3466 34.4993 40.9124 33.8764 41.7076C33.2535 42.5028 32.7318 43.1661 32.7172 43.1817C32.7025 43.1973 32.57 43.1125 32.4226 42.9932C32.0572 42.6974 18.0653 29.7504 18.0767 29.7186C18.0817 29.7047 18.6106 29.1873 19.2521 28.569Z"/>
</mask>
<path fill-rule="evenodd" clip-rule="evenodd" d="M2.71808 34.8148C2.76928 34.8328 2.88898 34.8623 2.98404 34.8804C3.36217 34.9524 4.8469 35.3644 5.19463 35.4938C5.65393 35.6648 5.7786 35.7222 6.22221 35.9671C6.98926 36.3906 7.81541 37.0512 8.37258 37.6866C10.1387 39.7008 10.7182 42.3509 9.89972 44.6697C9.52419 45.7334 8.6815 46.9005 7.44338 48.0718C7.1148 48.3827 6.84596 48.6511 6.84596 48.6682C6.84596 48.6854 6.88069 48.692 6.92317 48.683C7.79702 48.496 9.80033 48.2353 10.7163 48.1894C11.9735 48.1263 13.3314 48.2985 14.3332 48.648C15.9464 49.2108 17.1921 50.2393 17.9083 51.5997C18.5279 52.7768 18.7375 53.6259 18.7776 55.1225C18.8033 56.0786 18.795 56.067 19.1978 55.7109C19.6071 55.3492 20.7763 54.5975 21.3426 54.3321C21.9648 54.0405 22.8355 53.7934 23.5068 53.7179C23.9588 53.6671 24.8548 53.6756 25.2933 53.735C26.8268 53.9424 28.2043 54.5883 29.3242 55.6249C30.1292 56.37 30.9648 57.5591 31.5875 58.8453C31.7285 59.1366 31.8602 59.375 31.8802 59.375C31.9002 59.375 32.0473 59.114 32.2072 58.7951C32.8666 57.4794 33.6934 56.3374 34.5209 55.5995C36.4315 53.8958 39.0616 53.3069 41.492 54.0389C42.1814 54.2465 42.8412 54.5767 43.7023 55.1451C44.1745 55.4569 44.359 55.5945 44.6289 55.8366C44.8069 55.9964 44.8675 56.033 44.9291 56.0181C45.0048 55.9997 45.0064 55.9898 45.0065 55.5343C45.0069 54.3397 45.223 53.1781 45.5955 52.3694C46.0717 51.3355 46.479 50.7528 47.1484 50.1476C48.5691 48.8634 50.7258 48.2098 53.088 48.3478C53.9466 48.3979 55.5885 48.6123 56.6122 48.808C56.8158 48.847 56.9903 48.8716 56.9998 48.8627C57.0181 48.8458 56.8499 48.6756 56.1914 48.0449C55.7546 47.6265 55.4726 47.2947 54.9281 46.5584C54.0508 45.3719 53.6562 44.2032 53.6552 42.7879C53.6543 41.5868 53.8939 40.5989 54.449 39.515C54.8875 38.6588 55.4036 37.9859 56.1426 37.3066C57.0934 36.4327 58.2175 35.816 59.4709 35.4808C60.0193 35.3342 60.7702 35.1468 61.0667 35.0827C61.3018 35.0318 61.3735 34.9967 61.375 34.9316C61.3753 34.9186 61.2048 34.8287 60.996 34.7318C60.1671 34.3468 58.9647 33.6271 58.4444 33.2045C56.8816 31.9349 55.8473 30.0986 55.484 27.9486C55.3945 27.4191 55.3949 25.8958 55.4846 25.3747C55.6778 24.2528 56.0734 23.3023 56.7146 22.4195C57.1817 21.7764 57.5288 21.4135 58.1896 20.8772C58.2965 20.7905 58.4164 20.6814 58.4559 20.6347C58.5215 20.5574 58.5231 20.5454 58.4736 20.4997C58.4337 20.4627 58.3505 20.4494 58.1586 20.4494C58.0153 20.4494 57.804 20.4355 57.6893 20.4185C57.5745 20.4014 57.2767 20.3582 57.0275 20.3224C56.7783 20.2866 56.4 20.2216 56.1868 20.178C55.5516 20.0479 54.1889 19.6012 53.6156 19.335C50.6696 17.967 48.793 15.5644 48.6569 12.9866C48.6266 12.4117 48.6933 11.8774 48.8874 11.1391C48.9842 10.7713 49.5557 9.25845 49.7578 8.83535C49.8037 8.73919 49.8345 8.66055 49.8262 8.66055C49.818 8.66055 49.6664 8.77138 49.4895 8.90681C48.5843 9.59959 47.7649 10.1097 46.8423 10.5547C45.8528 11.032 45.2678 11.2507 44.4753 11.4398C43.473 11.6789 42.6433 11.7599 41.4717 11.7331C39.8025 11.695 38.3917 11.3809 36.959 10.7285C35.0081 9.84004 33.6222 8.47771 32.9965 6.83343C32.9167 6.62371 32.8306 6.40207 32.8052 6.3409C32.7688 6.25323 32.2738 4.83348 32.2208 4.66472C32.2139 4.64286 32.1719 4.625 32.1274 4.625C32.0519 4.625 32.0257 4.68283 31.7418 5.47501C31.5743 5.94253 31.4253 6.34646 31.4108 6.37268C31.3962 6.3989 31.3432 6.53474 31.2931 6.67455C30.4039 9.1519 27.7626 10.9992 24.3438 11.5346C22.0888 11.8877 19.6622 11.5689 17.8445 10.6805C16.3723 9.96099 15.803 9.61389 14.7068 8.7671C14.5451 8.64222 14.4081 8.54413 14.4023 8.54918C14.3964 8.5542 14.4293 8.64212 14.4753 8.74451C14.5649 8.94377 14.8456 9.65244 14.9078 9.83626C14.9285 9.89743 15.005 10.1119 15.0778 10.3129C15.5453 11.6029 15.6375 12.6418 15.3867 13.7924C15.1842 14.7218 14.6724 15.7336 13.9772 16.579C12.8441 17.9571 11.1645 19.0446 9.28246 19.619C8.9899 19.7083 8.68105 19.8043 8.59612 19.8324C8.12553 19.9882 6.71288 20.2164 6.01648 20.2491C5.45894 20.2753 5.45924 20.2787 6.06717 20.8036C7.72437 22.2344 8.57024 23.9632 8.65343 26.0897C8.74632 28.4642 7.82186 30.8214 6.14771 32.4789C5.61106 33.0101 5.00393 33.4375 4.01025 33.9836C3.70572 34.151 3.27072 34.3737 3.04354 34.4785C2.606 34.6805 2.53757 34.7512 2.71808 34.8148ZM5.65447 33.9914C7.58264 32.67 8.95408 30.5246 9.40552 28.1233C9.56756 27.2613 9.60699 26.1674 9.5051 25.3607C9.28874 23.6481 8.62045 22.1906 7.54918 21.0949L7.32588 20.8665L7.48912 20.8463C9.64862 20.5792 11.6206 19.7773 13.2313 18.5111C14.2143 17.7383 15.0643 16.7393 15.5955 15.7323C16.1669 14.649 16.4204 13.6803 16.4204 12.5799C16.4204 12.0068 16.3655 11.5672 16.2305 11.0584C16.1839 10.883 16.1458 10.7295 16.1458 10.7175C16.1458 10.7054 16.3427 10.8158 16.5834 10.9627C17.8 11.7053 19.1786 12.1718 20.8644 12.4113C21.472 12.4976 22.8624 12.5318 23.5148 12.4765C26.908 12.1888 29.8749 10.6661 31.3828 8.43812C31.6711 8.01219 31.9047 7.56072 32.0886 7.07392C32.0981 7.04891 32.1885 7.21697 32.2895 7.44741C32.7771 8.56001 33.5959 9.556 34.6941 10.3724C36.2736 11.5465 38.2523 12.2854 40.4422 12.5187C42.3168 12.7184 44.2364 12.4932 45.936 11.8741C46.6105 11.6284 47.3655 11.258 47.8666 10.9269C47.9581 10.8664 48.0374 10.8215 48.0428 10.8271C48.0483 10.8327 48.0161 10.9707 47.9714 11.1338C47.7947 11.7784 47.7709 11.9712 47.7709 12.7596C47.7709 13.5346 47.7958 13.7453 47.9607 14.3643C48.3227 15.723 49.1872 17.1067 50.343 18.177C51.3085 19.071 52.3801 19.7409 53.74 20.3003C54.3762 20.562 55.4805 20.8618 56.2108 20.9709C56.3996 20.9991 56.6064 21.0302 56.6706 21.04L56.7871 21.0578L56.5978 21.2382C55.5345 22.2514 54.8257 23.7328 54.5578 25.5018C54.4748 26.0499 54.4749 27.2963 54.5581 27.8532C54.8166 29.5839 55.4534 31.109 56.4622 32.4131C57.1181 33.261 58.0255 34.056 58.8807 34.5319C59.0374 34.6191 59.1336 34.6904 59.1064 34.699C57.5644 35.1924 56.5347 35.7695 55.5038 36.7182C54.2549 37.8674 53.4349 39.1992 52.9993 40.7861C52.8163 41.4525 52.7504 41.9633 52.7491 42.7244C52.7472 43.8238 52.9123 44.6389 53.3348 45.616C53.6133 46.2601 54.1525 47.0648 54.6316 47.5514L54.7695 47.6914L54.6151 47.6687C53.7372 47.5397 53.1684 47.4915 52.5218 47.4914C50.0709 47.4911 47.9124 48.2512 46.4305 49.6365C45.1917 50.7945 44.4828 52.2907 44.3139 54.1037L44.2737 54.5363L43.9451 54.3058C42.5619 53.3353 40.9166 52.8516 39.1725 52.9028C38.0121 52.9368 37.0677 53.156 35.9982 53.6394C35.1003 54.0453 34.3775 54.5331 33.6765 55.2063C33.0068 55.8495 32.5619 56.4437 32.1206 57.2842L31.8754 57.7514L31.8154 57.5969C31.6043 57.0535 30.98 56.1049 30.4442 55.5135C29.3514 54.3072 27.7906 53.4059 26.1622 53.0405C25.4782 52.887 25.1006 52.8467 24.3476 52.8467C23.5522 52.8467 23.1793 52.8902 22.4307 53.0702C21.4587 53.3039 20.5138 53.7359 19.732 54.3041L19.5261 54.4537L19.5008 54.0627C19.4579 53.3979 19.269 52.5218 19.0418 51.9339C18.8813 51.5182 18.4977 50.8198 18.2261 50.4485C16.9826 48.749 15.0996 47.7351 12.5769 47.4069C11.9159 47.3209 10.5472 47.3288 9.78609 47.4231C9.46856 47.4624 9.18287 47.5035 9.15123 47.5144C9.11959 47.5253 9.18006 47.4422 9.28555 47.3298C10.2434 46.3091 10.8311 45.1147 11.0903 43.6618C11.1868 43.1215 11.1776 41.8396 11.0734 41.2786C10.6164 38.8202 9.18809 36.7688 7.00313 35.4328C6.54513 35.1528 5.6437 34.7386 5.15993 34.5859L4.82946 34.4816L5.14278 34.3045C5.31511 34.2071 5.54538 34.0662 5.65447 33.9914ZM13.9846 32.715C14.1626 36.1002 15.4116 39.3072 17.6042 42.0094C20.3707 45.4188 24.4504 47.7128 29.0147 48.4256C30.1678 48.6057 30.7362 48.6481 32.0002 48.6484C33.1905 48.6487 33.706 48.6135 34.7971 48.4576C37.7083 48.0415 40.5031 46.9413 42.8959 45.2695C43.8253 44.6202 45.0622 43.5368 45.7654 42.7562C47.6085 40.7101 48.8532 38.4404 49.5206 35.9084C50.229 33.2211 50.2106 30.5513 49.4649 27.8056C49.2246 26.9206 48.7146 25.5988 48.3646 24.9538L48.2656 24.7712L49.5054 23.1902C50.1873 22.3207 50.761 21.5735 50.7801 21.5298C50.7994 21.4861 50.8221 21.3789 50.8307 21.2915C50.8435 21.1619 50.8315 21.1126 50.7661 21.0241C50.7107 20.9493 50.1424 20.5784 48.9356 19.8294C47.341 18.8397 47.1695 18.7413 47.0061 18.7215C46.7875 18.695 46.5841 18.7764 46.4826 18.9309C46.4467 18.9855 46.1423 19.3767 45.8062 19.8L45.1951 20.5698L44.6117 20.0392C42.3165 17.9518 39.4744 16.4806 36.3539 15.7647C34.1468 15.2583 32.0387 15.1413 29.7482 15.3979C25.9432 15.8243 22.2691 17.4552 19.478 19.9568C16.3389 22.7703 14.4287 26.481 14.0391 30.5224C13.9719 31.2188 13.9508 32.0715 13.9846 32.715ZM14.9586 30.3794C15.3293 27.1429 16.6506 24.245 18.893 21.7508C19.3382 21.2556 20.4287 20.2436 20.9502 19.8417C22.897 18.3414 25.0443 17.2911 27.3775 16.698C30.2961 15.9561 33.2274 15.9087 36.072 16.5574C39.173 17.2647 41.9322 18.7121 44.1824 20.812C44.6249 21.225 44.6431 21.2471 44.5972 21.3154C44.545 21.3931 43.9535 22.1424 40.8539 26.0579C38.4356 29.1127 35.8772 32.3473 33.6656 35.1458C32.7817 36.2643 32.0514 37.1866 32.0427 37.1954C32.034 37.2041 31.7699 36.9669 31.4559 36.6682C28.3482 33.7126 20.6945 26.5223 20.6248 26.4929C20.4078 26.4014 20.2425 26.4579 19.9333 26.7294C19.6095 27.0136 17.0558 29.4794 17.0135 29.5486C16.9617 29.6336 16.9585 29.7601 17.0053 29.8769C17.0258 29.9281 20.0591 32.7625 24.1003 36.5069C31.5545 43.4134 31.9462 43.7692 32.4238 44.0691C32.5549 44.1514 32.5832 44.1569 32.7724 44.1369C32.8856 44.1249 33.0187 44.0959 33.0681 44.0725C33.1538 44.0319 33.5855 43.4886 37.6109 38.3552C40.6122 34.5277 43.7492 30.5287 44.8162 29.1698C45.421 28.3996 46.3018 27.2744 46.7737 26.6693C47.2455 26.0642 47.647 25.5731 47.6659 25.5778C47.7104 25.5891 47.9853 26.2177 48.2026 26.8046C48.694 28.1324 48.9847 29.4661 49.0926 30.8878C49.1433 31.5564 49.1157 32.9943 49.0397 33.6365C48.52 38.0304 46.0907 42.0009 42.3144 44.6284C39.6916 46.4533 36.6648 47.5166 33.3558 47.7757C32.8229 47.8174 31.2435 47.8177 30.6754 47.7762C28.4287 47.6122 26.3093 47.0642 24.3071 46.1297C21.1247 44.6443 18.5674 42.3369 16.8982 39.4447C15.7712 37.4921 15.0994 35.3387 14.9125 33.0804C14.8689 32.5542 14.8969 30.9187 14.9586 30.3794ZM19.2521 28.569L20.4183 27.4447L20.9841 27.9747C22.0302 28.9544 23.354 30.2025 26.9726 33.6206C31.7947 38.1753 31.6889 38.0767 31.8145 38.1319C31.9667 38.1988 32.2335 38.1938 32.3613 38.1216C32.4609 38.0654 32.6372 37.8493 34.3219 35.7178C35.3406 34.4288 38.7877 30.0721 40.1673 28.3299C40.7831 27.5522 41.5809 26.5441 41.9403 26.0897C44.5695 22.765 46.4611 20.3744 46.7253 20.0425C46.9415 19.7709 47.0488 19.6603 47.0767 19.6802C47.0988 19.696 47.707 20.0906 48.4282 20.557C49.1495 21.0234 49.7458 21.4152 49.7534 21.4277C49.761 21.4402 49.4636 21.8365 49.0924 22.3083C48.7213 22.7802 47.7167 24.06 46.86 25.1523C46.0034 26.2446 44.59 28.0463 43.7192 29.156C42.8483 30.2658 41.2501 32.3035 40.1674 33.6841C39.0848 35.0648 37.4813 37.1096 36.604 38.2281C35.7268 39.3466 34.4993 40.9124 33.8764 41.7076C33.2535 42.5028 32.7318 43.1661 32.7172 43.1817C32.7025 43.1973 32.57 43.1125 32.4226 42.9932C32.0572 42.6974 18.0653 29.7504 18.0767 29.7186C18.0817 29.7047 18.6106 29.1873 19.2521 28.569Z" fill="#EC6A2D"/>
<path fill-rule="evenodd" clip-rule="evenodd" d="M2.71808 34.8148C2.76928 34.8328 2.88898 34.8623 2.98404 34.8804C3.36217 34.9524 4.8469 35.3644 5.19463 35.4938C5.65393 35.6648 5.7786 35.7222 6.22221 35.9671C6.98926 36.3906 7.81541 37.0512 8.37258 37.6866C10.1387 39.7008 10.7182 42.3509 9.89972 44.6697C9.52419 45.7334 8.6815 46.9005 7.44338 48.0718C7.1148 48.3827 6.84596 48.6511 6.84596 48.6682C6.84596 48.6854 6.88069 48.692 6.92317 48.683C7.79702 48.496 9.80033 48.2353 10.7163 48.1894C11.9735 48.1263 13.3314 48.2985 14.3332 48.648C15.9464 49.2108 17.1921 50.2393 17.9083 51.5997C18.5279 52.7768 18.7375 53.6259 18.7776 55.1225C18.8033 56.0786 18.795 56.067 19.1978 55.7109C19.6071 55.3492 20.7763 54.5975 21.3426 54.3321C21.9648 54.0405 22.8355 53.7934 23.5068 53.7179C23.9588 53.6671 24.8548 53.6756 25.2933 53.735C26.8268 53.9424 28.2043 54.5883 29.3242 55.6249C30.1292 56.37 30.9648 57.5591 31.5875 58.8453C31.7285 59.1366 31.8602 59.375 31.8802 59.375C31.9002 59.375 32.0473 59.114 32.2072 58.7951C32.8666 57.4794 33.6934 56.3374 34.5209 55.5995C36.4315 53.8958 39.0616 53.3069 41.492 54.0389C42.1814 54.2465 42.8412 54.5767 43.7023 55.1451C44.1745 55.4569 44.359 55.5945 44.6289 55.8366C44.8069 55.9964 44.8675 56.033 44.9291 56.0181C45.0048 55.9997 45.0064 55.9898 45.0065 55.5343C45.0069 54.3397 45.223 53.1781 45.5955 52.3694C46.0717 51.3355 46.479 50.7528 47.1484 50.1476C48.5691 48.8634 50.7258 48.2098 53.088 48.3478C53.9466 48.3979 55.5885 48.6123 56.6122 48.808C56.8158 48.847 56.9903 48.8716 56.9998 48.8627C57.0181 48.8458 56.8499 48.6756 56.1914 48.0449C55.7546 47.6265 55.4726 47.2947 54.9281 46.5584C54.0508 45.3719 53.6562 44.2032 53.6552 42.7879C53.6543 41.5868 53.8939 40.5989 54.449 39.515C54.8875 38.6588 55.4036 37.9859 56.1426 37.3066C57.0934 36.4327 58.2175 35.816 59.4709 35.4808C60.0193 35.3342 60.7702 35.1468 61.0667 35.0827C61.3018 35.0318 61.3735 34.9967 61.375 34.9316C61.3753 34.9186 61.2048 34.8287 60.996 34.7318C60.1671 34.3468 58.9647 33.6271 58.4444 33.2045C56.8816 31.9349 55.8473 30.0986 55.484 27.9486C55.3945 27.4191 55.3949 25.8958 55.4846 25.3747C55.6778 24.2528 56.0734 23.3023 56.7146 22.4195C57.1817 21.7764 57.5288 21.4135 58.1896 20.8772C58.2965 20.7905 58.4164 20.6814 58.4559 20.6347C58.5215 20.5574 58.5231 20.5454 58.4736 20.4997C58.4337 20.4627 58.3505 20.4494 58.1586 20.4494C58.0153 20.4494 57.804 20.4355 57.6893 20.4185C57.5745 20.4014 57.2767 20.3582 57.0275 20.3224C56.7783 20.2866 56.4 20.2216 56.1868 20.178C55.5516 20.0479 54.1889 19.6012 53.6156 19.335C50.6696 17.967 48.793 15.5644 48.6569 12.9866C48.6266 12.4117 48.6933 11.8774 48.8874 11.1391C48.9842 10.7713 49.5557 9.25845 49.7578 8.83535C49.8037 8.73919 49.8345 8.66055 49.8262 8.66055C49.818 8.66055 49.6664 8.77138 49.4895 8.90681C48.5843 9.59959 47.7649 10.1097 46.8423 10.5547C45.8528 11.032 45.2678 11.2507 44.4753 11.4398C43.473 11.6789 42.6433 11.7599 41.4717 11.7331C39.8025 11.695 38.3917 11.3809 36.959 10.7285C35.0081 9.84004 33.6222 8.47771 32.9965 6.83343C32.9167 6.62371 32.8306 6.40207 32.8052 6.3409C32.7688 6.25323 32.2738 4.83348 32.2208 4.66472C32.2139 4.64286 32.1719 4.625 32.1274 4.625C32.0519 4.625 32.0257 4.68283 31.7418 5.47501C31.5743 5.94253 31.4253 6.34646 31.4108 6.37268C31.3962 6.3989 31.3432 6.53474 31.2931 6.67455C30.4039 9.1519 27.7626 10.9992 24.3438 11.5346C22.0888 11.8877 19.6622 11.5689 17.8445 10.6805C16.3723 9.96099 15.803 9.61389 14.7068 8.7671C14.5451 8.64222 14.4081 8.54413 14.4023 8.54918C14.3964 8.5542 14.4293 8.64212 14.4753 8.74451C14.5649 8.94377 14.8456 9.65244 14.9078 9.83626C14.9285 9.89743 15.005 10.1119 15.0778 10.3129C15.5453 11.6029 15.6375 12.6418 15.3867 13.7924C15.1842 14.7218 14.6724 15.7336 13.9772 16.579C12.8441 17.9571 11.1645 19.0446 9.28246 19.619C8.9899 19.7083 8.68105 19.8043 8.59612 19.8324C8.12553 19.9882 6.71288 20.2164 6.01648 20.2491C5.45894 20.2753 5.45924 20.2787 6.06717 20.8036C7.72437 22.2344 8.57024 23.9632 8.65343 26.0897C8.74632 28.4642 7.82186 30.8214 6.14771 32.4789C5.61106 33.0101 5.00393 33.4375 4.01025 33.9836C3.70572 34.151 3.27072 34.3737 3.04354 34.4785C2.606 34.6805 2.53757 34.7512 2.71808 34.8148ZM5.65447 33.9914C7.58264 32.67 8.95408 30.5246 9.40552 28.1233C9.56756 27.2613 9.60699 26.1674 9.5051 25.3607C9.28874 23.6481 8.62045 22.1906 7.54918 21.0949L7.32588 20.8665L7.48912 20.8463C9.64862 20.5792 11.6206 19.7773 13.2313 18.5111C14.2143 17.7383 15.0643 16.7393 15.5955 15.7323C16.1669 14.649 16.4204 13.6803 16.4204 12.5799C16.4204 12.0068 16.3655 11.5672 16.2305 11.0584C16.1839 10.883 16.1458 10.7295 16.1458 10.7175C16.1458 10.7054 16.3427 10.8158 16.5834 10.9627C17.8 11.7053 19.1786 12.1718 20.8644 12.4113C21.472 12.4976 22.8624 12.5318 23.5148 12.4765C26.908 12.1888 29.8749 10.6661 31.3828 8.43812C31.6711 8.01219 31.9047 7.56072 32.0886 7.07392C32.0981 7.04891 32.1885 7.21697 32.2895 7.44741C32.7771 8.56001 33.5959 9.556 34.6941 10.3724C36.2736 11.5465 38.2523 12.2854 40.4422 12.5187C42.3168 12.7184 44.2364 12.4932 45.936 11.8741C46.6105 11.6284 47.3655 11.258 47.8666 10.9269C47.9581 10.8664 48.0374 10.8215 48.0428 10.8271C48.0483 10.8327 48.0161 10.9707 47.9714 11.1338C47.7947 11.7784 47.7709 11.9712 47.7709 12.7596C47.7709 13.5346 47.7958 13.7453 47.9607 14.3643C48.3227 15.723 49.1872 17.1067 50.343 18.177C51.3085 19.071 52.3801 19.7409 53.74 20.3003C54.3762 20.562 55.4805 20.8618 56.2108 20.9709C56.3996 20.9991 56.6064 21.0302 56.6706 21.04L56.7871 21.0578L56.5978 21.2382C55.5345 22.2514 54.8257 23.7328 54.5578 25.5018C54.4748 26.0499 54.4749 27.2963 54.5581 27.8532C54.8166 29.5839 55.4534 31.109 56.4622 32.4131C57.1181 33.261 58.0255 34.056 58.8807 34.5319C59.0374 34.6191 59.1336 34.6904 59.1064 34.699C57.5644 35.1924 56.5347 35.7695 55.5038 36.7182C54.2549 37.8674 53.4349 39.1992 52.9993 40.7861C52.8163 41.4525 52.7504 41.9633 52.7491 42.7244C52.7472 43.8238 52.9123 44.6389 53.3348 45.616C53.6133 46.2601 54.1525 47.0648 54.6316 47.5514L54.7695 47.6914L54.6151 47.6687C53.7372 47.5397 53.1684 47.4915 52.5218 47.4914C50.0709 47.4911 47.9124 48.2512 46.4305 49.6365C45.1917 50.7945 44.4828 52.2907 44.3139 54.1037L44.2737 54.5363L43.9451 54.3058C42.5619 53.3353 40.9166 52.8516 39.1725 52.9028C38.0121 52.9368 37.0677 53.156 35.9982 53.6394C35.1003 54.0453 34.3775 54.5331 33.6765 55.2063C33.0068 55.8495 32.5619 56.4437 32.1206 57.2842L31.8754 57.7514L31.8154 57.5969C31.6043 57.0535 30.98 56.1049 30.4442 55.5135C29.3514 54.3072 27.7906 53.4059 26.1622 53.0405C25.4782 52.887 25.1006 52.8467 24.3476 52.8467C23.5522 52.8467 23.1793 52.8902 22.4307 53.0702C21.4587 53.3039 20.5138 53.7359 19.732 54.3041L19.5261 54.4537L19.5008 54.0627C19.4579 53.3979 19.269 52.5218 19.0418 51.9339C18.8813 51.5182 18.4977 50.8198 18.2261 50.4485C16.9826 48.749 15.0996 47.7351 12.5769 47.4069C11.9159 47.3209 10.5472 47.3288 9.78609 47.4231C9.46856 47.4624 9.18287 47.5035 9.15123 47.5144C9.11959 47.5253 9.18006 47.4422 9.28555 47.3298C10.2434 46.3091 10.8311 45.1147 11.0903 43.6618C11.1868 43.1215 11.1776 41.8396 11.0734 41.2786C10.6164 38.8202 9.18809 36.7688 7.00313 35.4328C6.54513 35.1528 5.6437 34.7386 5.15993 34.5859L4.82946 34.4816L5.14278 34.3045C5.31511 34.2071 5.54538 34.0662 5.65447 33.9914ZM13.9846 32.715C14.1626 36.1002 15.4116 39.3072 17.6042 42.0094C20.3707 45.4188 24.4504 47.7128 29.0147 48.4256C30.1678 48.6057 30.7362 48.6481 32.0002 48.6484C33.1905 48.6487 33.706 48.6135 34.7971 48.4576C37.7083 48.0415 40.5031 46.9413 42.8959 45.2695C43.8253 44.6202 45.0622 43.5368 45.7654 42.7562C47.6085 40.7101 48.8532 38.4404 49.5206 35.9084C50.229 33.2211 50.2106 30.5513 49.4649 27.8056C49.2246 26.9206 48.7146 25.5988 48.3646 24.9538L48.2656 24.7712L49.5054 23.1902C50.1873 22.3207 50.761 21.5735 50.7801 21.5298C50.7994 21.4861 50.8221 21.3789 50.8307 21.2915C50.8435 21.1619 50.8315 21.1126 50.7661 21.0241C50.7107 20.9493 50.1424 20.5784 48.9356 19.8294C47.341 18.8397 47.1695 18.7413 47.0061 18.7215C46.7875 18.695 46.5841 18.7764 46.4826 18.9309C46.4467 18.9855 46.1423 19.3767 45.8062 19.8L45.1951 20.5698L44.6117 20.0392C42.3165 17.9518 39.4744 16.4806 36.3539 15.7647C34.1468 15.2583 32.0387 15.1413 29.7482 15.3979C25.9432 15.8243 22.2691 17.4552 19.478 19.9568C16.3389 22.7703 14.4287 26.481 14.0391 30.5224C13.9719 31.2188 13.9508 32.0715 13.9846 32.715ZM14.9586 30.3794C15.3293 27.1429 16.6506 24.245 18.893 21.7508C19.3382 21.2556 20.4287 20.2436 20.9502 19.8417C22.897 18.3414 25.0443 17.2911 27.3775 16.698C30.2961 15.9561 33.2274 15.9087 36.072 16.5574C39.173 17.2647 41.9322 18.7121 44.1824 20.812C44.6249 21.225 44.6431 21.2471 44.5972 21.3154C44.545 21.3931 43.9535 22.1424 40.8539 26.0579C38.4356 29.1127 35.8772 32.3473 33.6656 35.1458C32.7817 36.2643 32.0514 37.1866 32.0427 37.1954C32.034 37.2041 31.7699 36.9669 31.4559 36.6682C28.3482 33.7126 20.6945 26.5223 20.6248 26.4929C20.4078 26.4014 20.2425 26.4579 19.9333 26.7294C19.6095 27.0136 17.0558 29.4794 17.0135 29.5486C16.9617 29.6336 16.9585 29.7601 17.0053 29.8769C17.0258 29.9281 20.0591 32.7625 24.1003 36.5069C31.5545 43.4134 31.9462 43.7692 32.4238 44.0691C32.5549 44.1514 32.5832 44.1569 32.7724 44.1369C32.8856 44.1249 33.0187 44.0959 33.0681 44.0725C33.1538 44.0319 33.5855 43.4886 37.6109 38.3552C40.6122 34.5277 43.7492 30.5287 44.8162 29.1698C45.421 28.3996 46.3018 27.2744 46.7737 26.6693C47.2455 26.0642 47.647 25.5731 47.6659 25.5778C47.7104 25.5891 47.9853 26.2177 48.2026 26.8046C48.694 28.1324 48.9847 29.4661 49.0926 30.8878C49.1433 31.5564 49.1157 32.9943 49.0397 33.6365C48.52 38.0304 46.0907 42.0009 42.3144 44.6284C39.6916 46.4533 36.6648 47.5166 33.3558 47.7757C32.8229 47.8174 31.2435 47.8177 30.6754 47.7762C28.4287 47.6122 26.3093 47.0642 24.3071 46.1297C21.1247 44.6443 18.5674 42.3369 16.8982 39.4447C15.7712 37.4921 15.0994 35.3387 14.9125 33.0804C14.8689 32.5542 14.8969 30.9187 14.9586 30.3794ZM19.2521 28.569L20.4183 27.4447L20.9841 27.9747C22.0302 28.9544 23.354 30.2025 26.9726 33.6206C31.7947 38.1753 31.6889 38.0767 31.8145 38.1319C31.9667 38.1988 32.2335 38.1938 32.3613 38.1216C32.4609 38.0654 32.6372 37.8493 34.3219 35.7178C35.3406 34.4288 38.7877 30.0721 40.1673 28.3299C40.7831 27.5522 41.5809 26.5441 41.9403 26.0897C44.5695 22.765 46.4611 20.3744 46.7253 20.0425C46.9415 19.7709 47.0488 19.6603 47.0767 19.6802C47.0988 19.696 47.707 20.0906 48.4282 20.557C49.1495 21.0234 49.7458 21.4152 49.7534 21.4277C49.761 21.4402 49.4636 21.8365 49.0924 22.3083C48.7213 22.7802 47.7167 24.06 46.86 25.1523C46.0034 26.2446 44.59 28.0463 43.7192 29.156C42.8483 30.2658 41.2501 32.3035 40.1674 33.6841C39.0848 35.0648 37.4813 37.1096 36.604 38.2281C35.7268 39.3466 34.4993 40.9124 33.8764 41.7076C33.2535 42.5028 32.7318 43.1661 32.7172 43.1817C32.7025 43.1973 32.57 43.1125 32.4226 42.9932C32.0572 42.6974 18.0653 29.7504 18.0767 29.7186C18.0817 29.7047 18.6106 29.1873 19.2521 28.569Z" stroke="#EC6A2D" stroke-width="0.6" mask="url(#path-1-outside-1_1269_30118)"/>
</svg>
