<svg width="64" height="66" viewBox="0 0 64 66" fill="none" xmlns="http://www.w3.org/2000/svg">
<mask id="path-1-outside-1_1440_31976" maskUnits="userSpaceOnUse" x="7" y="-0.5" width="50" height="67" fill="black">
<rect fill="white" x="7" y="-0.5" width="50" height="67"/>
<path fill-rule="evenodd" clip-rule="evenodd" d="M20.4902 0.55122C20.4419 0.579259 19.684 1.1554 18.806 1.83149C17.9281 2.50758 16.8699 3.32228 16.4547 3.64191C15.9161 4.05649 15.6851 4.25341 15.6488 4.32886C15.5916 4.44763 15.6077 4.63655 15.6859 4.76609C15.7319 4.84234 18.1165 7.1331 18.5493 7.51687C18.7839 7.72493 18.9743 7.80536 19.1603 7.77507C19.2987 7.75253 19.1112 7.90086 21.9851 5.54049C24.2527 3.67812 24.1915 3.73721 24.1006 3.498C24.0751 3.43104 23.6029 2.96415 22.6818 2.09525C21.9225 1.37895 21.263 0.77114 21.2163 0.744565C21.1696 0.718019 21.0805 0.652078 21.0182 0.59802C20.9208 0.513494 20.8822 0.499826 20.7415 0.500002C20.6424 0.500119 20.5434 0.520284 20.4902 0.55122ZM21.8483 2.43458C22.4662 3.01581 22.9928 3.5165 23.0184 3.54723C23.0613 3.59865 23.0357 3.62696 22.6981 3.90216C22.4963 4.06665 22.1719 4.33325 21.9772 4.49463C21.7825 4.65605 21.2211 5.11707 20.7297 5.51918C20.2383 5.92127 19.6639 6.39491 19.4532 6.57172L19.0702 6.89317L18.9914 6.81365C18.9481 6.76992 18.4604 6.30362 17.9078 5.77744C17.3552 5.25124 16.838 4.7581 16.7586 4.6816L16.6141 4.54249L17.6183 3.76905C18.1706 3.34367 19.0928 2.63232 19.6677 2.18826C20.2425 1.74421 20.7155 1.38021 20.7188 1.37936C20.7221 1.37854 21.2303 1.85338 21.8483 2.43458ZM26.7872 4.78845C26.5825 4.81992 26.5373 4.83982 26.3826 4.96669C26.1634 5.1464 23.4706 7.45851 21.8361 8.87036C20.4417 10.0749 20.4849 10.023 20.6364 10.3103C20.7232 10.4748 20.3856 10.1473 33.2718 22.5678C36.47 25.6504 40.056 29.1077 41.2406 30.2506C42.4253 31.3935 43.5066 32.431 43.6435 32.556C44.0163 32.8964 44.1748 32.9604 44.3671 32.8479C44.4859 32.7786 50.2202 27.6684 50.3032 27.558C50.3871 27.4463 50.3724 27.2316 50.2732 27.1222C50.2352 27.0803 48.6739 25.5619 46.8037 23.7481C44.9334 21.9343 43.0705 20.1266 42.6639 19.731C42.2572 19.3354 40.9739 18.0898 39.8121 16.963C35.6587 12.9347 34.6938 11.9985 33.3271 10.6704C29.433 6.88635 27.3288 4.85709 27.2612 4.8205C27.1447 4.7574 27.0367 4.75011 26.7872 4.78845ZM27.9835 6.63142C28.5637 7.19483 30.0025 8.59091 31.1808 9.73382C32.3592 10.8767 34.7412 13.1882 36.4743 14.8703C38.2073 16.5525 40.2026 18.4886 40.9083 19.1727C45.8633 23.9765 49.3049 27.3208 49.3139 27.3406C49.3197 27.3534 48.168 28.393 46.7545 29.6507L44.1846 31.9376L44.0928 31.8551C44.0423 31.8097 43.2979 31.0943 42.4385 30.2653C36.6076 24.6403 23.0671 11.5878 22.2399 10.7946C21.8914 10.4605 21.6059 10.1773 21.6055 10.1653C21.6044 10.135 26.8775 5.59429 26.9057 5.60131C26.9184 5.60447 27.4033 6.06802 27.9835 6.63142ZM23.4098 14.9695C23.2822 15.0178 22.2464 15.6894 21.5474 16.1771C17.956 18.683 14.9668 21.6269 12.7807 24.8107C11.4943 26.6843 10.5316 28.4828 9.76704 30.4409C7.3537 36.6213 7.41325 43.309 9.94034 49.904C10.6329 51.7114 11.3175 53.148 12.2976 54.8503C14.3539 58.4219 16.9685 61.6915 20.3368 64.9035C20.601 65.1554 20.7836 65.3038 20.8762 65.3419C21.0105 65.3971 21.1269 65.4003 23.6967 65.4195C25.1709 65.4305 31.7506 65.4557 38.3184 65.4755C50.099 65.5111 50.2614 65.5108 50.3853 65.455C50.522 65.3935 50.6351 65.2421 50.6351 65.1208C50.6351 65.0121 50.5033 64.8542 50.3627 64.7942C50.2498 64.7461 49.5012 64.7405 37.6019 64.6994C30.6494 64.6753 24.1265 64.6548 23.1066 64.6539L21.2523 64.6522L21.0195 64.4268C20.0483 63.4867 19.2482 62.6702 18.5329 61.8892C14.4128 57.3911 11.5245 52.495 10.0295 47.4748C9.03003 44.1183 8.67848 40.5661 9.01573 37.231C9.46573 32.7811 11.0981 28.5807 13.8837 24.7044C15.8701 21.9403 18.6011 19.2677 21.6932 17.0619C22.2245 16.683 23.2839 15.9677 23.6387 15.7484C23.8979 15.5882 24.0338 15.4313 24.0338 15.2924C24.0338 15.1928 23.9147 15.0378 23.7957 14.9823C23.6615 14.9199 23.5508 14.9162 23.4098 14.9695ZM26.4689 19.6044C26.2811 19.6924 25.2626 20.4809 24.6257 21.0312C21.0792 24.0959 18.6536 27.981 17.5814 32.314C16.2733 37.6001 17.0885 43.0954 19.9045 47.9737C23.739 54.6165 30.9856 59.2215 39.1977 60.2339C40.5433 60.3998 40.8995 60.419 42.8301 60.43C43.8129 60.4356 45.8428 60.467 47.341 60.4997C50.3728 60.566 50.1765 60.5745 50.3187 60.3706C50.3802 60.2825 50.3825 60.122 50.3911 55.4137L50.3999 50.5479L51.2171 50.546C51.6666 50.5449 52.8005 50.5337 53.7369 50.521C55.5826 50.4959 55.5553 50.4985 55.7897 50.3269C55.9906 50.1798 55.9919 50.1714 55.9982 48.9002C56.0036 47.808 56.0002 47.7354 55.9397 47.6455C55.9044 47.593 55.825 47.5245 55.7634 47.4932C55.658 47.4398 55.5853 47.4367 54.5509 47.4416C51.2608 47.457 35.494 47.5929 35.3825 47.6068C35.3103 47.6158 35.2099 47.6487 35.1594 47.6799C34.9782 47.7919 34.9744 47.8227 34.9744 49.1723C34.9744 50.5501 34.9711 50.5276 35.1936 50.6597L35.3116 50.7298L37.3345 50.7118C38.4471 50.7018 39.6648 50.6855 40.0404 50.6755L40.7235 50.6572L40.715 53.6098C40.7104 55.2338 40.7024 57.2481 40.6973 58.0861L40.688 59.6098L40.225 59.5713C37.8635 59.375 35.3021 58.7863 33.0475 57.9217C25.9218 55.1892 20.5884 49.6034 18.6433 42.8358C17.3278 38.2591 17.6792 33.3453 19.6293 29.0466C21.1916 25.6028 23.5062 22.776 26.704 20.4066C26.99 20.1948 27.0719 20.1169 27.0992 20.031C27.2051 19.6981 26.8222 19.4389 26.4689 19.6044ZM50.298 28.2239C50.2033 28.2452 49.6897 28.6743 47.7031 30.392C46.3408 31.5698 45.1917 32.5721 45.1496 32.6192C44.8513 32.9528 45.2933 33.3806 45.7088 33.1607C45.7716 33.1275 46.9499 32.1233 48.3274 30.9291C50.5513 29.0011 50.8341 28.7458 50.8527 28.6498C50.9063 28.3714 50.62 28.1516 50.298 28.2239ZM50.5704 29.3607C50.4819 29.3914 50.2324 29.5994 47.9776 31.5224C47.1557 32.2234 46.4626 32.8308 46.4373 32.8723C46.3874 32.9543 46.4079 33.0896 46.4912 33.2266C46.5719 33.3594 47.3813 34.0021 47.5166 34.0408C47.6735 34.0858 47.8277 34.0599 47.9995 33.9596C48.226 33.8275 51.8862 30.6436 51.9407 30.5312C52.0148 30.3787 51.9702 30.2433 51.8002 30.1045C51.7212 30.04 51.5334 29.8668 51.3829 29.7196C51.0267 29.371 50.8128 29.2766 50.5704 29.3607ZM49.3185 31.7767C48.4461 32.531 47.7134 33.1519 47.6903 33.1565C47.6673 33.161 47.6118 33.1309 47.567 33.0896L47.4856 33.0144L47.7876 32.7554C47.9537 32.613 48.6861 31.9878 49.4151 31.3661L50.7405 30.2359L50.8226 30.3206L50.9047 30.4053L49.3185 31.7767ZM55.1193 48.9641V49.7217L54.2005 49.74C53.6952 49.75 51.4612 49.7784 49.236 49.8031C47.0108 49.8277 43.089 49.8727 40.5209 49.903C37.9528 49.9334 35.8493 49.9559 35.8466 49.953C35.8438 49.9502 35.8497 49.589 35.8596 49.1504L35.8776 48.3528L36.8758 48.3505C37.4248 48.3491 41.2724 48.3181 45.4261 48.2814C49.5799 48.2447 53.46 48.2129 54.0488 48.2106L55.1193 48.2065V48.9641ZM49.4979 55.1649C49.488 57.6882 49.4751 59.7576 49.469 59.7636C49.463 59.7696 48.164 59.746 46.5824 59.7113C44.6993 59.6698 43.439 59.6549 42.9312 59.668C42.5047 59.679 42.0268 59.6786 41.8692 59.6671L41.5826 59.6462L41.6047 55.1681C41.6169 52.7052 41.6348 50.6831 41.6445 50.6747C41.6628 50.6588 46.8077 50.5892 48.533 50.5815L49.5158 50.5772L49.4979 55.1649Z"/>
</mask>
<path fill-rule="evenodd" clip-rule="evenodd" d="M20.4902 0.55122C20.4419 0.579259 19.684 1.1554 18.806 1.83149C17.9281 2.50758 16.8699 3.32228 16.4547 3.64191C15.9161 4.05649 15.6851 4.25341 15.6488 4.32886C15.5916 4.44763 15.6077 4.63655 15.6859 4.76609C15.7319 4.84234 18.1165 7.1331 18.5493 7.51687C18.7839 7.72493 18.9743 7.80536 19.1603 7.77507C19.2987 7.75253 19.1112 7.90086 21.9851 5.54049C24.2527 3.67812 24.1915 3.73721 24.1006 3.498C24.0751 3.43104 23.6029 2.96415 22.6818 2.09525C21.9225 1.37895 21.263 0.77114 21.2163 0.744565C21.1696 0.718019 21.0805 0.652078 21.0182 0.59802C20.9208 0.513494 20.8822 0.499826 20.7415 0.500002C20.6424 0.500119 20.5434 0.520284 20.4902 0.55122ZM21.8483 2.43458C22.4662 3.01581 22.9928 3.5165 23.0184 3.54723C23.0613 3.59865 23.0357 3.62696 22.6981 3.90216C22.4963 4.06665 22.1719 4.33325 21.9772 4.49463C21.7825 4.65605 21.2211 5.11707 20.7297 5.51918C20.2383 5.92127 19.6639 6.39491 19.4532 6.57172L19.0702 6.89317L18.9914 6.81365C18.9481 6.76992 18.4604 6.30362 17.9078 5.77744C17.3552 5.25124 16.838 4.7581 16.7586 4.6816L16.6141 4.54249L17.6183 3.76905C18.1706 3.34367 19.0928 2.63232 19.6677 2.18826C20.2425 1.74421 20.7155 1.38021 20.7188 1.37936C20.7221 1.37854 21.2303 1.85338 21.8483 2.43458ZM26.7872 4.78845C26.5825 4.81992 26.5373 4.83982 26.3826 4.96669C26.1634 5.1464 23.4706 7.45851 21.8361 8.87036C20.4417 10.0749 20.4849 10.023 20.6364 10.3103C20.7232 10.4748 20.3856 10.1473 33.2718 22.5678C36.47 25.6504 40.056 29.1077 41.2406 30.2506C42.4253 31.3935 43.5066 32.431 43.6435 32.556C44.0163 32.8964 44.1748 32.9604 44.3671 32.8479C44.4859 32.7786 50.2202 27.6684 50.3032 27.558C50.3871 27.4463 50.3724 27.2316 50.2732 27.1222C50.2352 27.0803 48.6739 25.5619 46.8037 23.7481C44.9334 21.9343 43.0705 20.1266 42.6639 19.731C42.2572 19.3354 40.9739 18.0898 39.8121 16.963C35.6587 12.9347 34.6938 11.9985 33.3271 10.6704C29.433 6.88635 27.3288 4.85709 27.2612 4.8205C27.1447 4.7574 27.0367 4.75011 26.7872 4.78845ZM27.9835 6.63142C28.5637 7.19483 30.0025 8.59091 31.1808 9.73382C32.3592 10.8767 34.7412 13.1882 36.4743 14.8703C38.2073 16.5525 40.2026 18.4886 40.9083 19.1727C45.8633 23.9765 49.3049 27.3208 49.3139 27.3406C49.3197 27.3534 48.168 28.393 46.7545 29.6507L44.1846 31.9376L44.0928 31.8551C44.0423 31.8097 43.2979 31.0943 42.4385 30.2653C36.6076 24.6403 23.0671 11.5878 22.2399 10.7946C21.8914 10.4605 21.6059 10.1773 21.6055 10.1653C21.6044 10.135 26.8775 5.59429 26.9057 5.60131C26.9184 5.60447 27.4033 6.06802 27.9835 6.63142ZM23.4098 14.9695C23.2822 15.0178 22.2464 15.6894 21.5474 16.1771C17.956 18.683 14.9668 21.6269 12.7807 24.8107C11.4943 26.6843 10.5316 28.4828 9.76704 30.4409C7.3537 36.6213 7.41325 43.309 9.94034 49.904C10.6329 51.7114 11.3175 53.148 12.2976 54.8503C14.3539 58.4219 16.9685 61.6915 20.3368 64.9035C20.601 65.1554 20.7836 65.3038 20.8762 65.3419C21.0105 65.3971 21.1269 65.4003 23.6967 65.4195C25.1709 65.4305 31.7506 65.4557 38.3184 65.4755C50.099 65.5111 50.2614 65.5108 50.3853 65.455C50.522 65.3935 50.6351 65.2421 50.6351 65.1208C50.6351 65.0121 50.5033 64.8542 50.3627 64.7942C50.2498 64.7461 49.5012 64.7405 37.6019 64.6994C30.6494 64.6753 24.1265 64.6548 23.1066 64.6539L21.2523 64.6522L21.0195 64.4268C20.0483 63.4867 19.2482 62.6702 18.5329 61.8892C14.4128 57.3911 11.5245 52.495 10.0295 47.4748C9.03003 44.1183 8.67848 40.5661 9.01573 37.231C9.46573 32.7811 11.0981 28.5807 13.8837 24.7044C15.8701 21.9403 18.6011 19.2677 21.6932 17.0619C22.2245 16.683 23.2839 15.9677 23.6387 15.7484C23.8979 15.5882 24.0338 15.4313 24.0338 15.2924C24.0338 15.1928 23.9147 15.0378 23.7957 14.9823C23.6615 14.9199 23.5508 14.9162 23.4098 14.9695ZM26.4689 19.6044C26.2811 19.6924 25.2626 20.4809 24.6257 21.0312C21.0792 24.0959 18.6536 27.981 17.5814 32.314C16.2733 37.6001 17.0885 43.0954 19.9045 47.9737C23.739 54.6165 30.9856 59.2215 39.1977 60.2339C40.5433 60.3998 40.8995 60.419 42.8301 60.43C43.8129 60.4356 45.8428 60.467 47.341 60.4997C50.3728 60.566 50.1765 60.5745 50.3187 60.3706C50.3802 60.2825 50.3825 60.122 50.3911 55.4137L50.3999 50.5479L51.2171 50.546C51.6666 50.5449 52.8005 50.5337 53.7369 50.521C55.5826 50.4959 55.5553 50.4985 55.7897 50.3269C55.9906 50.1798 55.9919 50.1714 55.9982 48.9002C56.0036 47.808 56.0002 47.7354 55.9397 47.6455C55.9044 47.593 55.825 47.5245 55.7634 47.4932C55.658 47.4398 55.5853 47.4367 54.5509 47.4416C51.2608 47.457 35.494 47.5929 35.3825 47.6068C35.3103 47.6158 35.2099 47.6487 35.1594 47.6799C34.9782 47.7919 34.9744 47.8227 34.9744 49.1723C34.9744 50.5501 34.9711 50.5276 35.1936 50.6597L35.3116 50.7298L37.3345 50.7118C38.4471 50.7018 39.6648 50.6855 40.0404 50.6755L40.7235 50.6572L40.715 53.6098C40.7104 55.2338 40.7024 57.2481 40.6973 58.0861L40.688 59.6098L40.225 59.5713C37.8635 59.375 35.3021 58.7863 33.0475 57.9217C25.9218 55.1892 20.5884 49.6034 18.6433 42.8358C17.3278 38.2591 17.6792 33.3453 19.6293 29.0466C21.1916 25.6028 23.5062 22.776 26.704 20.4066C26.99 20.1948 27.0719 20.1169 27.0992 20.031C27.2051 19.6981 26.8222 19.4389 26.4689 19.6044ZM50.298 28.2239C50.2033 28.2452 49.6897 28.6743 47.7031 30.392C46.3408 31.5698 45.1917 32.5721 45.1496 32.6192C44.8513 32.9528 45.2933 33.3806 45.7088 33.1607C45.7716 33.1275 46.9499 32.1233 48.3274 30.9291C50.5513 29.0011 50.8341 28.7458 50.8527 28.6498C50.9063 28.3714 50.62 28.1516 50.298 28.2239ZM50.5704 29.3607C50.4819 29.3914 50.2324 29.5994 47.9776 31.5224C47.1557 32.2234 46.4626 32.8308 46.4373 32.8723C46.3874 32.9543 46.4079 33.0896 46.4912 33.2266C46.5719 33.3594 47.3813 34.0021 47.5166 34.0408C47.6735 34.0858 47.8277 34.0599 47.9995 33.9596C48.226 33.8275 51.8862 30.6436 51.9407 30.5312C52.0148 30.3787 51.9702 30.2433 51.8002 30.1045C51.7212 30.04 51.5334 29.8668 51.3829 29.7196C51.0267 29.371 50.8128 29.2766 50.5704 29.3607ZM49.3185 31.7767C48.4461 32.531 47.7134 33.1519 47.6903 33.1565C47.6673 33.161 47.6118 33.1309 47.567 33.0896L47.4856 33.0144L47.7876 32.7554C47.9537 32.613 48.6861 31.9878 49.4151 31.3661L50.7405 30.2359L50.8226 30.3206L50.9047 30.4053L49.3185 31.7767ZM55.1193 48.9641V49.7217L54.2005 49.74C53.6952 49.75 51.4612 49.7784 49.236 49.8031C47.0108 49.8277 43.089 49.8727 40.5209 49.903C37.9528 49.9334 35.8493 49.9559 35.8466 49.953C35.8438 49.9502 35.8497 49.589 35.8596 49.1504L35.8776 48.3528L36.8758 48.3505C37.4248 48.3491 41.2724 48.3181 45.4261 48.2814C49.5799 48.2447 53.46 48.2129 54.0488 48.2106L55.1193 48.2065V48.9641ZM49.4979 55.1649C49.488 57.6882 49.4751 59.7576 49.469 59.7636C49.463 59.7696 48.164 59.746 46.5824 59.7113C44.6993 59.6698 43.439 59.6549 42.9312 59.668C42.5047 59.679 42.0268 59.6786 41.8692 59.6671L41.5826 59.6462L41.6047 55.1681C41.6169 52.7052 41.6348 50.6831 41.6445 50.6747C41.6628 50.6588 46.8077 50.5892 48.533 50.5815L49.5158 50.5772L49.4979 55.1649Z" fill="#EC6A2D"/>
<path fill-rule="evenodd" clip-rule="evenodd" d="M20.4902 0.55122C20.4419 0.579259 19.684 1.1554 18.806 1.83149C17.9281 2.50758 16.8699 3.32228 16.4547 3.64191C15.9161 4.05649 15.6851 4.25341 15.6488 4.32886C15.5916 4.44763 15.6077 4.63655 15.6859 4.76609C15.7319 4.84234 18.1165 7.1331 18.5493 7.51687C18.7839 7.72493 18.9743 7.80536 19.1603 7.77507C19.2987 7.75253 19.1112 7.90086 21.9851 5.54049C24.2527 3.67812 24.1915 3.73721 24.1006 3.498C24.0751 3.43104 23.6029 2.96415 22.6818 2.09525C21.9225 1.37895 21.263 0.77114 21.2163 0.744565C21.1696 0.718019 21.0805 0.652078 21.0182 0.59802C20.9208 0.513494 20.8822 0.499826 20.7415 0.500002C20.6424 0.500119 20.5434 0.520284 20.4902 0.55122ZM21.8483 2.43458C22.4662 3.01581 22.9928 3.5165 23.0184 3.54723C23.0613 3.59865 23.0357 3.62696 22.6981 3.90216C22.4963 4.06665 22.1719 4.33325 21.9772 4.49463C21.7825 4.65605 21.2211 5.11707 20.7297 5.51918C20.2383 5.92127 19.6639 6.39491 19.4532 6.57172L19.0702 6.89317L18.9914 6.81365C18.9481 6.76992 18.4604 6.30362 17.9078 5.77744C17.3552 5.25124 16.838 4.7581 16.7586 4.6816L16.6141 4.54249L17.6183 3.76905C18.1706 3.34367 19.0928 2.63232 19.6677 2.18826C20.2425 1.74421 20.7155 1.38021 20.7188 1.37936C20.7221 1.37854 21.2303 1.85338 21.8483 2.43458ZM26.7872 4.78845C26.5825 4.81992 26.5373 4.83982 26.3826 4.96669C26.1634 5.1464 23.4706 7.45851 21.8361 8.87036C20.4417 10.0749 20.4849 10.023 20.6364 10.3103C20.7232 10.4748 20.3856 10.1473 33.2718 22.5678C36.47 25.6504 40.056 29.1077 41.2406 30.2506C42.4253 31.3935 43.5066 32.431 43.6435 32.556C44.0163 32.8964 44.1748 32.9604 44.3671 32.8479C44.4859 32.7786 50.2202 27.6684 50.3032 27.558C50.3871 27.4463 50.3724 27.2316 50.2732 27.1222C50.2352 27.0803 48.6739 25.5619 46.8037 23.7481C44.9334 21.9343 43.0705 20.1266 42.6639 19.731C42.2572 19.3354 40.9739 18.0898 39.8121 16.963C35.6587 12.9347 34.6938 11.9985 33.3271 10.6704C29.433 6.88635 27.3288 4.85709 27.2612 4.8205C27.1447 4.7574 27.0367 4.75011 26.7872 4.78845ZM27.9835 6.63142C28.5637 7.19483 30.0025 8.59091 31.1808 9.73382C32.3592 10.8767 34.7412 13.1882 36.4743 14.8703C38.2073 16.5525 40.2026 18.4886 40.9083 19.1727C45.8633 23.9765 49.3049 27.3208 49.3139 27.3406C49.3197 27.3534 48.168 28.393 46.7545 29.6507L44.1846 31.9376L44.0928 31.8551C44.0423 31.8097 43.2979 31.0943 42.4385 30.2653C36.6076 24.6403 23.0671 11.5878 22.2399 10.7946C21.8914 10.4605 21.6059 10.1773 21.6055 10.1653C21.6044 10.135 26.8775 5.59429 26.9057 5.60131C26.9184 5.60447 27.4033 6.06802 27.9835 6.63142ZM23.4098 14.9695C23.2822 15.0178 22.2464 15.6894 21.5474 16.1771C17.956 18.683 14.9668 21.6269 12.7807 24.8107C11.4943 26.6843 10.5316 28.4828 9.76704 30.4409C7.3537 36.6213 7.41325 43.309 9.94034 49.904C10.6329 51.7114 11.3175 53.148 12.2976 54.8503C14.3539 58.4219 16.9685 61.6915 20.3368 64.9035C20.601 65.1554 20.7836 65.3038 20.8762 65.3419C21.0105 65.3971 21.1269 65.4003 23.6967 65.4195C25.1709 65.4305 31.7506 65.4557 38.3184 65.4755C50.099 65.5111 50.2614 65.5108 50.3853 65.455C50.522 65.3935 50.6351 65.2421 50.6351 65.1208C50.6351 65.0121 50.5033 64.8542 50.3627 64.7942C50.2498 64.7461 49.5012 64.7405 37.6019 64.6994C30.6494 64.6753 24.1265 64.6548 23.1066 64.6539L21.2523 64.6522L21.0195 64.4268C20.0483 63.4867 19.2482 62.6702 18.5329 61.8892C14.4128 57.3911 11.5245 52.495 10.0295 47.4748C9.03003 44.1183 8.67848 40.5661 9.01573 37.231C9.46573 32.7811 11.0981 28.5807 13.8837 24.7044C15.8701 21.9403 18.6011 19.2677 21.6932 17.0619C22.2245 16.683 23.2839 15.9677 23.6387 15.7484C23.8979 15.5882 24.0338 15.4313 24.0338 15.2924C24.0338 15.1928 23.9147 15.0378 23.7957 14.9823C23.6615 14.9199 23.5508 14.9162 23.4098 14.9695ZM26.4689 19.6044C26.2811 19.6924 25.2626 20.4809 24.6257 21.0312C21.0792 24.0959 18.6536 27.981 17.5814 32.314C16.2733 37.6001 17.0885 43.0954 19.9045 47.9737C23.739 54.6165 30.9856 59.2215 39.1977 60.2339C40.5433 60.3998 40.8995 60.419 42.8301 60.43C43.8129 60.4356 45.8428 60.467 47.341 60.4997C50.3728 60.566 50.1765 60.5745 50.3187 60.3706C50.3802 60.2825 50.3825 60.122 50.3911 55.4137L50.3999 50.5479L51.2171 50.546C51.6666 50.5449 52.8005 50.5337 53.7369 50.521C55.5826 50.4959 55.5553 50.4985 55.7897 50.3269C55.9906 50.1798 55.9919 50.1714 55.9982 48.9002C56.0036 47.808 56.0002 47.7354 55.9397 47.6455C55.9044 47.593 55.825 47.5245 55.7634 47.4932C55.658 47.4398 55.5853 47.4367 54.5509 47.4416C51.2608 47.457 35.494 47.5929 35.3825 47.6068C35.3103 47.6158 35.2099 47.6487 35.1594 47.6799C34.9782 47.7919 34.9744 47.8227 34.9744 49.1723C34.9744 50.5501 34.9711 50.5276 35.1936 50.6597L35.3116 50.7298L37.3345 50.7118C38.4471 50.7018 39.6648 50.6855 40.0404 50.6755L40.7235 50.6572L40.715 53.6098C40.7104 55.2338 40.7024 57.2481 40.6973 58.0861L40.688 59.6098L40.225 59.5713C37.8635 59.375 35.3021 58.7863 33.0475 57.9217C25.9218 55.1892 20.5884 49.6034 18.6433 42.8358C17.3278 38.2591 17.6792 33.3453 19.6293 29.0466C21.1916 25.6028 23.5062 22.776 26.704 20.4066C26.99 20.1948 27.0719 20.1169 27.0992 20.031C27.2051 19.6981 26.8222 19.4389 26.4689 19.6044ZM50.298 28.2239C50.2033 28.2452 49.6897 28.6743 47.7031 30.392C46.3408 31.5698 45.1917 32.5721 45.1496 32.6192C44.8513 32.9528 45.2933 33.3806 45.7088 33.1607C45.7716 33.1275 46.9499 32.1233 48.3274 30.9291C50.5513 29.0011 50.8341 28.7458 50.8527 28.6498C50.9063 28.3714 50.62 28.1516 50.298 28.2239ZM50.5704 29.3607C50.4819 29.3914 50.2324 29.5994 47.9776 31.5224C47.1557 32.2234 46.4626 32.8308 46.4373 32.8723C46.3874 32.9543 46.4079 33.0896 46.4912 33.2266C46.5719 33.3594 47.3813 34.0021 47.5166 34.0408C47.6735 34.0858 47.8277 34.0599 47.9995 33.9596C48.226 33.8275 51.8862 30.6436 51.9407 30.5312C52.0148 30.3787 51.9702 30.2433 51.8002 30.1045C51.7212 30.04 51.5334 29.8668 51.3829 29.7196C51.0267 29.371 50.8128 29.2766 50.5704 29.3607ZM49.3185 31.7767C48.4461 32.531 47.7134 33.1519 47.6903 33.1565C47.6673 33.161 47.6118 33.1309 47.567 33.0896L47.4856 33.0144L47.7876 32.7554C47.9537 32.613 48.6861 31.9878 49.4151 31.3661L50.7405 30.2359L50.8226 30.3206L50.9047 30.4053L49.3185 31.7767ZM55.1193 48.9641V49.7217L54.2005 49.74C53.6952 49.75 51.4612 49.7784 49.236 49.8031C47.0108 49.8277 43.089 49.8727 40.5209 49.903C37.9528 49.9334 35.8493 49.9559 35.8466 49.953C35.8438 49.9502 35.8497 49.589 35.8596 49.1504L35.8776 48.3528L36.8758 48.3505C37.4248 48.3491 41.2724 48.3181 45.4261 48.2814C49.5799 48.2447 53.46 48.2129 54.0488 48.2106L55.1193 48.2065V48.9641ZM49.4979 55.1649C49.488 57.6882 49.4751 59.7576 49.469 59.7636C49.463 59.7696 48.164 59.746 46.5824 59.7113C44.6993 59.6698 43.439 59.6549 42.9312 59.668C42.5047 59.679 42.0268 59.6786 41.8692 59.6671L41.5826 59.6462L41.6047 55.1681C41.6169 52.7052 41.6348 50.6831 41.6445 50.6747C41.6628 50.6588 46.8077 50.5892 48.533 50.5815L49.5158 50.5772L49.4979 55.1649Z" stroke="#EC6A2D" stroke-width="0.2" mask="url(#path-1-outside-1_1440_31976)"/>
</svg>
