<svg width="64" height="64" viewBox="0 0 64 64" fill="none" xmlns="http://www.w3.org/2000/svg">
<mask id="path-1-outside-1_1424_31879" maskUnits="userSpaceOnUse" x="3.875" y="4.25" width="56" height="56" fill="black">
<rect fill="white" x="3.875" y="4.25" width="56" height="56"/>
<path fill-rule="evenodd" clip-rule="evenodd" d="M4.93507 53.661C5.32916 55.2277 6.36171 56.6943 7.77031 57.6882C8.74912 58.3789 9.90384 58.8536 11.0614 59.0411C11.4308 59.101 11.6243 59.1037 16.4114 59.1159C26.9135 59.1427 43.3385 59.218 44.6049 59.2451C45.3878 59.2619 45.5313 59.2428 45.9494 59.0667C46.3142 58.9131 46.5648 58.7602 46.934 58.466C47.4677 58.0408 47.8528 57.5454 48.1658 56.8815C48.4349 56.3109 48.5684 55.7528 48.5967 55.0808C48.6053 54.8759 48.6273 50.8172 48.6457 46.0616C48.6641 41.306 48.6874 37.369 48.6975 37.3127C48.7099 37.2439 48.8696 37.008 49.1857 36.5918C49.5881 36.0619 49.6605 35.9804 49.6909 36.023C49.7104 36.0503 50.1846 37.0244 50.7447 38.1876C51.3048 39.3507 51.8519 40.484 51.9605 40.706C52.0691 40.928 52.3929 41.5986 52.6799 42.1963C52.967 42.7939 53.2973 43.4785 53.414 43.7176C53.5307 43.9566 53.7488 44.4107 53.8988 44.7266C54.2714 45.5116 54.3146 45.5809 54.4707 45.644C54.5742 45.6858 54.6174 45.6889 54.6987 45.6605C54.9049 45.5886 54.9294 45.5323 55.2341 44.4316C55.3902 43.8681 55.5421 43.3233 55.5719 43.2208C55.6016 43.1184 55.6678 42.8808 55.719 42.693C55.8543 42.1965 55.8548 42.1953 55.8989 42.2065C55.9211 42.2121 56.1441 42.2927 56.3944 42.3856C56.6447 42.4786 57.0147 42.6159 57.2166 42.6909C57.4184 42.7659 57.7752 42.9006 58.0094 42.9903C58.3764 43.1308 58.4656 43.1536 58.6554 43.155C58.9015 43.1568 59.0079 43.1068 59.0827 42.9538C59.1866 42.7414 59.1939 42.7591 57.9507 40.2092C57.8258 39.9531 57.5714 39.4292 57.3854 39.045C57.1994 38.6608 56.7732 37.7806 56.4383 37.089C56.1035 36.3974 55.6639 35.4893 55.4615 35.071C55.2591 34.6526 55.024 34.168 54.939 33.9939L54.7845 33.6776L54.8627 33.6617C54.9057 33.653 55.1919 33.6373 55.4988 33.627C56.1769 33.6041 56.3292 33.577 56.4346 33.4607C56.5184 33.3683 56.5706 33.2187 56.5706 33.0711C56.5706 32.9709 56.4153 32.5489 55.927 31.3216C55.7485 30.8731 55.5947 30.4734 55.5852 30.4334C55.5689 30.3649 55.6309 30.3264 56.616 29.7922C57.1924 29.4796 57.7012 29.1908 57.7466 29.1504C57.8418 29.0657 57.9045 28.8945 57.8779 28.7922C57.8019 28.5005 57.7517 28.4412 56.8953 27.6313C56.4341 27.195 56.0444 26.8198 56.0294 26.7974C56.0099 26.7684 56.1943 26.4482 56.6707 25.6839C57.3926 24.5253 57.4167 24.4724 57.3194 24.2556C57.234 24.0652 57.0678 23.9195 56.6567 23.6743C56.2656 23.4412 55.0099 22.68 54.9884 22.6632C54.974 22.6518 55.0021 22.5895 55.5022 21.5258C55.7332 21.0344 55.9307 20.5845 55.9411 20.5259C55.977 20.3237 55.8123 20.1035 55.5215 19.9649C55.4525 19.9321 55.0625 19.8986 54.0845 19.8416C53.3462 19.7986 52.7363 19.7572 52.7292 19.7496C52.722 19.742 52.7312 19.184 52.7496 18.5095C52.7798 17.4028 52.7784 17.2711 52.7358 17.1585C52.6681 16.9797 52.5448 16.9085 52.3027 16.9085C52.0645 16.9085 52.0603 16.9101 50.5983 17.5737C49.9703 17.8588 49.4463 18.0807 49.4339 18.0669C49.4216 18.053 49.2714 17.8487 49.1001 17.6128L48.7887 17.1839L48.7963 15.3308L48.8039 13.4778L50.3308 13.4547C51.1706 13.4421 53.146 13.4211 54.7207 13.4081C57.844 13.3824 57.6835 13.393 57.8153 13.2046C57.9344 13.0345 57.9256 12.557 57.7858 11.5994C57.4654 9.40552 56.6724 7.52714 55.5744 6.36142C54.9464 5.69462 54.277 5.29321 53.5457 5.14487C53.3018 5.09541 53.0167 5.07536 52.1747 5.04841C51.5899 5.02969 50.9623 5.00119 50.7799 4.98501C50.3899 4.95046 47.0907 4.8114 46.0731 4.78662C44.1252 4.73915 39.6901 4.73797 29.835 4.78228C23.8756 4.80907 18.7223 4.8358 18.3831 4.8417C17.7223 4.85322 17.3311 4.915 16.7534 5.0992C16.3422 5.23032 15.6424 5.54681 15.5455 5.6456C15.5235 5.66798 15.4086 5.74666 15.2903 5.8204C14.5822 6.26173 13.869 6.99112 13.4004 7.75322C13.1378 8.18024 12.8948 8.8033 12.7838 9.33433L12.7159 9.65898L12.725 31.3116L12.7341 52.9643L9.2895 52.9393C5.29161 52.9103 5.75649 52.9104 5.32238 52.9382C5.00002 52.9588 4.97286 52.9655 4.92964 53.0353C4.85509 53.1556 4.85676 53.3497 4.93507 53.661ZM7.04142 53.743C9.88097 53.7887 10.5531 53.7954 12.0993 53.7933C14.0517 53.7905 35.5816 53.9076 38.2431 53.9353L40.1325 53.9551L40.114 54.0856C40.0912 54.2462 40.1426 54.8475 40.2042 55.1422C40.4376 56.258 40.9926 57.3404 41.7322 58.1224L41.9891 58.3941L38.8191 58.3746C32.6477 58.3366 15.9184 58.2888 13.9933 58.3035C12.9193 58.3118 11.882 58.3057 11.6882 58.2901C10.7412 58.2138 9.93491 57.9809 9.07485 57.5349C7.76121 56.8539 6.79752 55.9144 6.14324 54.6772C6.02335 54.4504 5.77496 53.8391 5.77273 53.7652C5.77164 53.7294 5.97437 53.7258 7.04142 53.743ZM13.5317 9.5348C13.6672 8.9441 13.8264 8.55287 14.1263 8.07407C14.5888 7.33546 15.3315 6.67102 16.1726 6.24341C16.6244 6.01372 17.3072 5.7791 17.6931 5.72098C18.1198 5.65671 19.4511 5.64215 26.8839 5.62042C30.3158 5.61039 33.1699 5.59673 33.2265 5.59012C33.6459 5.54091 45.4085 5.60846 46.6603 5.6673C47.0318 5.68474 47.7829 5.71353 48.3295 5.73126C49.2296 5.76044 49.9539 5.79599 50.6364 5.84455L50.8832 5.86209L50.7832 5.94076C50.5753 6.10429 49.9997 6.75506 49.8001 7.05231C49.2706 7.84059 48.9347 8.59149 48.5064 9.94436C48.3568 10.4169 48.0941 11.8158 48.0674 12.2825C48.061 12.3934 48.0479 13.3002 48.0381 14.2975L48.0205 16.1106L47.9098 15.9827C47.7869 15.8405 47.6905 15.7908 47.5379 15.7908C47.3133 15.7908 47.3325 15.7691 46.3526 17.1258C45.9765 17.6466 45.664 18.0784 45.6582 18.0854C45.6525 18.0924 45.281 17.9334 44.8327 17.7321C44.3844 17.5308 43.8016 17.2692 43.5376 17.1507C43.1236 16.9648 43.0284 16.9335 42.8451 16.923C42.5863 16.9081 42.463 16.9656 42.3766 17.1416C42.3197 17.2577 42.3191 17.2882 42.3516 18.504C42.3722 19.2745 42.3744 19.7545 42.3574 19.7656C42.3423 19.7754 41.7649 19.815 41.0743 19.8534C40.3836 19.8918 39.7617 19.9369 39.692 19.9536C39.5181 19.9953 39.2603 20.1825 39.204 20.308C39.1443 20.4411 39.1459 20.5069 39.2137 20.6956L39.2696 20.8509L35.7121 20.8589C33.7555 20.8634 28.4243 20.8706 23.865 20.8751C16.9344 20.8819 15.5596 20.8902 15.4793 20.9257C15.332 20.9907 15.2559 21.1135 15.2559 21.2861C15.2559 21.459 15.332 21.5815 15.4801 21.6469C15.5619 21.683 17.4527 21.6897 27.6248 21.6897L39.6727 21.6897L39.8998 22.1712C40.0247 22.436 40.1269 22.6582 40.1269 22.6651C40.1269 22.6774 39.8088 22.875 38.7321 23.5315C37.9786 23.991 37.9709 23.9967 37.8675 24.1555C37.7575 24.3245 37.7315 24.4447 37.7751 24.582C37.7932 24.6391 38.0174 25.021 38.2732 25.4309C38.5291 25.8407 38.7362 26.1793 38.7334 26.1832C38.7306 26.1872 38.6895 26.1788 38.6421 26.1645C38.5947 26.1502 37.3183 26.1492 35.8057 26.1622C33.3237 26.1837 33.0453 26.1911 32.9518 26.238C32.678 26.3754 32.668 26.7418 32.9328 26.9314L33.0356 27.005L35.7811 26.9839C37.2911 26.9723 38.5737 26.9501 38.6313 26.9346C38.7644 26.8986 38.8587 26.7925 38.9051 26.6264L38.9416 26.4957L39.0342 26.6462C39.1059 26.7629 39.1187 26.8045 39.0909 26.8315C39.0712 26.8506 38.6918 27.2117 38.2476 27.634C37.563 28.285 37.4256 28.4301 37.3447 28.5878C37.2383 28.7952 37.2267 28.9105 37.2964 29.0659C37.3557 29.1979 37.331 29.1827 38.5266 29.8246C39.0757 30.1194 39.5349 30.3698 39.5471 30.3812C39.5593 30.3925 39.4226 30.7782 39.2435 31.2383C38.589 32.9192 38.5712 32.9687 38.571 33.115C38.5707 33.2904 38.6456 33.4512 38.7679 33.5375C38.8711 33.6104 38.9987 33.6246 39.8848 33.6618L40.362 33.6818L39.9691 34.4928C39.753 34.9389 39.368 35.7369 39.1136 36.2663C38.8592 36.7956 38.4761 37.592 38.2623 38.036C38.0485 38.4799 37.6719 39.2623 37.4253 39.7746C37.1788 40.2869 36.822 41.0273 36.6323 41.4201C36.4427 41.8128 36.2521 42.2087 36.2088 42.2997L36.13 42.4653L36.0595 42.3848C36.0206 42.3405 35.9553 42.2908 35.9141 42.2742C35.8409 42.2448 30.8193 42.2087 20.189 42.1612C14.9294 42.1378 15.3184 42.1252 15.1704 42.324C15.0311 42.5113 15.1335 42.841 15.3549 42.9182C15.4422 42.9486 17.68 42.9683 25.6458 43.0089C35.3952 43.0586 35.8298 43.0585 35.9346 43.0057L36.044 42.9505L36.1203 43.0463C36.2843 43.2524 36.55 43.2428 37.1647 43.0085C37.6865 42.8097 38.4142 42.5376 38.879 42.3677C39.0566 42.3027 39.2228 42.2405 39.2484 42.2294C39.2857 42.2131 39.3098 42.2623 39.3722 42.4821C39.67 43.5313 39.7638 43.8655 39.9495 44.5403C40.0646 44.9587 40.1846 45.3605 40.2161 45.4332C40.3539 45.7519 40.7244 45.7765 40.9001 45.4786C40.9376 45.4151 41.3556 44.5527 41.829 43.5623C42.3023 42.5719 42.838 41.4542 43.0193 41.0786C43.2007 40.7029 43.6696 39.7249 44.0615 38.9053C44.9813 36.9813 45.4448 36.0229 45.4676 35.998C45.4776 35.987 45.8822 36.4957 46.3667 37.1283C46.8512 37.7609 47.2849 38.3077 47.3305 38.3435C47.4503 38.4375 47.695 38.4337 47.8201 38.3359L47.9129 38.2633L47.8945 41.0215C47.8844 42.5385 47.8633 46.2595 47.8475 49.2905C47.8219 54.2258 47.8061 55.1842 47.7451 55.5154C47.5836 56.391 47.2878 57.0216 46.7917 57.5474C46.4729 57.8854 46.176 58.0892 45.7641 58.2527C45.2904 58.4409 45.1275 58.4649 44.3259 58.4649C43.6245 58.4649 43.6014 58.4629 43.401 58.3845C43.1907 58.3023 42.6874 57.9554 42.4467 57.7267C41.7762 57.0897 41.2216 56.0938 40.9858 55.103C40.9158 54.8091 40.9066 54.7123 40.9075 54.2735C40.9084 53.8405 40.9167 53.7533 40.9729 53.5934C41.0082 53.4926 41.0372 53.3577 41.0372 53.2937L41.0372 53.1774L40.883 53.159C40.6331 53.1291 37.8452 53.107 25.3668 53.0364C18.8718 52.9997 13.5467 52.9579 13.5332 52.9437C13.5198 52.9295 13.5054 46.1604 13.5013 37.9014C13.4971 29.6424 13.4902 22.6405 13.4859 22.3417C13.4815 22.0429 13.4789 19.088 13.48 15.7752C13.4817 10.2206 13.4858 9.73524 13.5317 9.5348ZM15.2469 47.9387C15.2747 48.0466 15.3452 48.1353 15.4412 48.1829C15.5576 48.2406 16.0822 48.2458 28.631 48.3125C30.246 48.3211 32.565 48.3351 33.7844 48.3435C35.0037 48.3519 37.6068 48.367 39.569 48.377C43.0411 48.3946 43.1394 48.3935 43.2372 48.3359C43.3483 48.2704 43.445 48.1079 43.445 47.9865C43.445 47.8632 43.3464 47.6998 43.2368 47.6415C43.1448 47.5926 42.8793 47.5869 39.9507 47.57C38.1985 47.56 35.7143 47.5448 34.4304 47.5364C33.1464 47.5279 30.735 47.5139 29.0715 47.5053C25.9085 47.4889 22.8456 47.4707 18.2804 47.4414C15.6973 47.4248 15.5593 47.4267 15.4635 47.4801C15.295 47.5743 15.2032 47.7685 15.2469 47.9387ZM15.2768 37.3678C15.3057 37.4272 15.3715 37.5057 15.4232 37.5421C15.5138 37.6061 15.5574 37.6091 16.6711 37.6276C17.3059 37.6382 19.063 37.6505 20.5759 37.6551C23.315 37.6634 23.3269 37.6631 23.4095 37.5993C23.5288 37.507 23.6056 37.3285 23.5823 37.1973C23.5563 37.0504 23.436 36.9096 23.3067 36.8749C23.2445 36.8582 21.5824 36.8374 19.3815 36.8259C15.7345 36.8068 15.5597 36.8084 15.4635 36.8621C15.2641 36.9734 15.1868 37.1827 15.2768 37.3678ZM15.2937 32.0936C15.3334 32.156 15.4024 32.2133 15.4625 32.2337C15.5359 32.2587 17.6613 32.2717 23.0865 32.2803L30.6087 32.2923L30.6916 32.2281C30.8139 32.1337 30.8879 31.9577 30.8634 31.8197C30.8344 31.6565 30.6858 31.511 30.5232 31.4866C30.4515 31.4758 27.0257 31.4711 22.9102 31.476L15.4276 31.485L15.327 31.601C15.2012 31.7463 15.1888 31.9288 15.2937 32.0936ZM15.3021 26.9337C15.3437 26.9859 15.4263 27.0436 15.4856 27.062C15.5598 27.0848 16.3835 27.0923 18.1189 27.0858C20.5939 27.0765 20.6462 27.0751 20.7469 27.0134C21.0365 26.836 20.9873 26.3942 20.6653 26.2818C20.5809 26.2523 19.9869 26.248 18.0401 26.2623C15.2973 26.2826 15.4259 26.2735 15.2878 26.459C15.1965 26.5817 15.2034 26.8096 15.3021 26.9337ZM15.2768 16.1287C15.3086 16.1968 15.3677 16.2539 15.445 16.291C15.5563 16.3445 15.6742 16.3483 17.2233 16.3488C18.3308 16.3491 18.9206 16.338 18.9974 16.3155C19.33 16.2178 19.401 15.8063 19.1224 15.591C19.0407 15.5279 19.0113 15.5269 17.2871 15.5269C15.6557 15.5269 15.5282 15.5307 15.4381 15.5827C15.2459 15.6937 15.1793 15.9193 15.2768 16.1287ZM15.3406 10.8413C15.4392 11.0121 15.512 11.0251 16.3717 11.0251C17.7047 11.0251 27.5289 10.9791 29.6441 10.963C30.7504 10.9545 33.109 10.9398 34.8855 10.9302C38.4823 10.9108 38.2449 10.9264 38.3893 10.6991C38.5176 10.4968 38.4133 10.2076 38.1859 10.1356C38.0943 10.1066 35.5921 10.1105 26.8456 10.1534C16.1408 10.206 15.6173 10.2111 15.5002 10.2648C15.2957 10.3585 15.22 10.6321 15.3406 10.8413ZM20.1151 16.0618C20.1378 16.117 20.2 16.1903 20.2534 16.2247C20.3503 16.2872 20.3706 16.2873 32.3391 16.2874C45.3709 16.2875 44.4484 16.3003 44.5845 16.1174C44.7247 15.9289 44.6772 15.6525 44.4845 15.5353C44.3975 15.4825 43.8528 15.48 32.4054 15.4802C20.7761 15.4805 20.4137 15.4822 20.2937 15.5383C20.0986 15.6295 20.0255 15.8439 20.1151 16.0618ZM22.7412 26.7374C22.7826 26.8394 22.9408 26.9632 23.0601 26.987C23.1203 26.9989 24.8855 27 26.9829 26.9893C30.6049 26.9708 30.8016 26.967 30.9003 26.9129C31.0135 26.8507 31.1123 26.6882 31.1123 26.5641C31.1123 26.4426 31.0155 26.2801 30.9045 26.215C30.8069 26.1579 30.6899 26.1565 26.9133 26.1678C23.3067 26.1786 23.0156 26.1833 22.9274 26.2327C22.8751 26.262 22.8111 26.3201 22.7853 26.3618C22.7283 26.4537 22.7054 26.6491 22.7412 26.7374ZM37.5245 41.3638C38 40.381 38.5487 39.242 39.2474 37.7876C40.0291 36.1603 40.827 34.5029 41.0294 34.0857L41.1987 33.7369L41.4979 33.7364L41.797 33.7359L41.8123 33.8679C41.8207 33.9405 41.8485 34.5796 41.8741 35.2883C41.8997 35.9969 41.9283 36.6187 41.9376 36.6699C41.9809 36.9079 42.1357 37.0577 42.3387 37.0578C42.4202 37.0579 42.735 36.9247 43.4839 36.5732C44.052 36.3066 44.5284 36.0811 44.5427 36.0721C44.5569 36.0631 44.3141 36.5852 44.0031 37.2321C43.6921 37.8792 43.1799 38.9464 42.8649 39.6038C42.5499 40.2612 42.1173 41.1624 41.9036 41.6064C41.6899 42.0503 41.3261 42.8088 41.0952 43.2919C40.8643 43.7749 40.6666 44.1591 40.6559 44.1457C40.6357 44.1202 40.5714 43.9 40.2725 42.8327C39.8824 41.4395 39.8271 41.2932 39.6792 41.265C39.5718 41.2446 39.1689 41.3841 37.4915 42.0229C37.3099 42.0921 37.1612 42.1411 37.1612 42.1317C37.1612 42.1224 37.3247 41.7768 37.5245 41.3638ZM39.0496 27.9734C39.4726 27.5703 39.8483 27.197 39.8847 27.1438C39.9669 27.0233 39.976 26.737 39.9023 26.5858C39.8757 26.5312 39.585 26.056 39.2563 25.5298C38.9276 25.0037 38.6587 24.5614 38.6587 24.547C38.6587 24.5327 38.7281 24.4792 38.8129 24.4281C38.8977 24.3771 39.1322 24.2339 39.3341 24.1098C39.536 23.9857 39.7738 23.8397 39.8626 23.7854C40.8852 23.16 40.8703 23.1709 40.9382 23.0024C41.0279 22.7798 41.0056 22.7071 40.5375 21.6989C40.2949 21.1765 40.1 20.7461 40.1043 20.7423C40.1087 20.7386 40.7006 20.7007 41.4197 20.6581C42.4379 20.5979 42.7466 20.57 42.8145 20.5324C42.9398 20.4629 43.1188 20.2578 43.1472 20.1511C43.1606 20.1008 43.1584 19.574 43.1424 18.9804C43.1263 18.3867 43.1213 17.8924 43.1312 17.8819C43.141 17.8715 43.338 17.9477 43.5687 18.0512C45.136 18.7545 45.4685 18.9006 45.5652 18.9282C45.6859 18.9626 45.8968 18.9222 46.0361 18.838C46.0804 18.8112 46.3044 18.5303 46.5339 18.2137C47.3929 17.0287 47.5323 16.8432 47.5564 16.8525C47.5701 16.8576 47.881 17.274 48.2474 17.7778C48.6138 18.2815 48.941 18.7254 48.9745 18.7641C49.0507 18.8523 49.3831 18.9644 49.4893 18.9377C49.564 18.919 50.7936 18.3786 51.5912 18.0139C51.8 17.9185 51.9752 17.8452 51.9808 17.851C51.9863 17.8568 51.9768 18.3541 51.9597 18.9562C51.9379 19.7246 51.9378 20.0804 51.9596 20.1501C51.9959 20.2664 52.2052 20.4927 52.3179 20.5375C52.361 20.5546 52.9358 20.5978 53.5952 20.6334C54.2546 20.6691 54.8415 20.7082 54.8995 20.7205L55.0049 20.7428L54.5692 21.6845C54.1956 22.4918 54.1334 22.6469 54.1339 22.7711C54.1345 22.9732 54.2302 23.1383 54.4123 23.2518C54.5981 23.3675 55.6018 23.9787 56.0273 24.2353C56.205 24.3424 56.3795 24.449 56.4152 24.4723C56.4788 24.5139 56.4689 24.5322 55.8484 25.5259C55.5011 26.082 55.2044 26.572 55.189 26.6147C55.1394 26.7526 55.1572 26.9746 55.2277 27.0982C55.2637 27.1615 55.6368 27.537 56.0567 27.9326C56.4766 28.3283 56.8376 28.6692 56.859 28.6903C56.8903 28.7211 56.7683 28.7982 56.2277 29.0889C54.6786 29.9219 54.7344 29.8795 54.7368 30.2221C54.7384 30.446 54.6993 30.3355 55.4166 32.1468C55.5539 32.4937 55.6617 32.7821 55.656 32.7876C55.6503 32.7933 55.0332 32.8277 54.2847 32.8641C53.329 32.9107 52.8954 32.9429 52.8283 32.9726C52.6915 33.033 52.6052 33.179 52.5738 33.4034C52.5589 33.5095 52.5277 34.1393 52.5045 34.8031C52.4813 35.4668 52.4565 36.0161 52.4494 36.0235C52.4388 36.0348 51.4379 35.5742 50.1032 34.9439C49.9618 34.8772 49.8053 34.8226 49.7553 34.8226C49.5529 34.8226 49.4966 34.8837 48.522 36.1619C47.7585 37.1633 47.5688 37.395 47.5396 37.3624C47.5197 37.3401 47.0987 36.791 46.6041 36.1421C45.6909 34.9439 45.5816 34.8242 45.4002 34.8231C45.3526 34.8228 44.8708 35.0313 44.3137 35.2933C42.5671 36.1148 42.6817 36.0647 42.6806 36.0074C42.68 35.979 42.6552 35.3683 42.6254 34.6502C42.5755 33.448 42.5663 33.3345 42.5093 33.2163C42.4385 33.0696 42.3584 33.001 42.2117 32.9617C42.1552 32.9466 41.5276 32.91 40.817 32.8803C40.1064 32.8507 39.515 32.8173 39.5028 32.8061C39.4827 32.7875 39.733 32.116 40.2112 30.9052C40.3651 30.5157 40.3912 30.4221 40.3912 30.2595C40.3912 30.0342 40.3404 29.915 40.2084 29.8307C40.0716 29.7433 39.594 29.4812 38.8709 29.0969C38.5274 28.9143 38.254 28.7517 38.2634 28.7355C38.2728 28.7194 38.6266 28.3764 39.0496 27.9734ZM39.6484 10.698C39.6774 10.7572 39.7474 10.834 39.8039 10.8688C39.9044 10.9305 39.9552 10.9321 42.0943 10.9402C44.5404 10.9495 44.4086 10.9608 44.5554 10.7301C44.6732 10.5452 44.6039 10.2907 44.4064 10.1825C44.3205 10.1355 44.0993 10.1292 42.1236 10.1175C40.0492 10.1052 39.9309 10.1075 39.8354 10.1612C39.6321 10.2755 39.5528 10.5032 39.6484 10.698ZM41.4935 28.0543C41.7619 30.0853 42.8649 31.7967 44.5531 32.8018C45.4682 33.3466 46.6925 33.6522 47.7414 33.5975C48.1495 33.5763 48.6473 33.5173 48.6864 33.4856C48.7026 33.4725 48.8239 33.4326 48.956 33.397C49.3393 33.2935 49.686 33.1558 50.0959 32.9442C50.7759 32.5931 51.2271 32.2438 51.7854 31.6357C52.6345 30.711 53.1561 29.6208 53.3877 28.2872C53.4616 27.8614 53.4763 26.8597 53.4153 26.3966C53.0982 23.9866 51.5159 21.962 49.3759 21.2278C48.5667 20.9502 48.3157 20.9015 47.6147 20.8862C46.2585 20.8566 44.932 21.3095 43.8325 22.1776C43.5467 22.4033 43.0228 22.9386 42.7908 23.2421C42.1409 24.0921 41.6975 25.1432 41.5203 26.2536C41.4533 26.6734 41.4389 27.6414 41.4935 28.0543ZM42.2414 26.8026C42.4072 24.6865 43.6877 22.8532 45.5298 22.0941C46.1808 21.8259 46.7124 21.7257 47.5412 21.7151C48.0645 21.7084 48.1201 21.7133 48.4368 21.7947C48.9781 21.9337 49.3721 22.0746 49.7336 22.2584C51.2505 23.0294 52.3329 24.5439 52.6223 26.3002C52.7224 26.9077 52.7075 27.7999 52.5876 28.3803C52.4103 29.2384 52.0254 30.0883 51.5191 30.7399C51.1694 31.1899 50.6228 31.6944 50.1791 31.9766C48.92 32.7774 47.3314 32.9899 45.9409 32.5434C43.9017 31.8887 42.4177 29.954 42.2438 27.7236C42.2096 27.2852 42.2094 27.211 42.2414 26.8026ZM48.9371 11.9099C49.254 9.37587 50.1834 7.3612 51.4692 6.42153C51.9702 6.05539 52.3863 5.91387 52.9588 5.91493C53.4037 5.91574 53.6743 5.98081 54.06 6.1797C55.1974 6.76621 56.158 8.22349 56.7013 10.1868C56.8717 10.8026 56.9653 11.2632 57.0389 11.8478C57.0722 12.1125 57.1058 12.3794 57.1136 12.441L57.1278 12.5529L56.1959 12.5728C55.6833 12.5837 53.8198 12.6018 52.0548 12.6129L48.8458 12.6333L48.8614 12.5122C48.87 12.4456 48.904 12.1746 48.9371 11.9099ZM50.9349 36.2228C51.9961 36.7212 52.66 37.0247 52.7297 37.043C52.9012 37.0882 53.137 36.9256 53.1916 36.7246C53.2059 36.6718 53.2413 35.9789 53.2703 35.1848L53.323 33.7408L53.5953 33.7192C53.7451 33.7074 53.8844 33.7046 53.9051 33.7131C53.9442 33.7291 53.9932 33.8272 54.9483 35.8006C55.2706 36.4665 55.7374 37.4305 55.9857 37.9428C57.6421 41.3606 58.0004 42.104 57.9952 42.1112C57.9919 42.1157 57.931 42.0968 57.8598 42.0693C57.7887 42.0418 57.5851 41.9658 57.4074 41.9003C57.2298 41.8348 56.7615 41.6616 56.3668 41.5153C55.8949 41.3404 55.606 41.2493 55.523 41.2493C55.3989 41.2493 55.3955 41.2522 55.3117 41.4278C55.2649 41.526 55.2133 41.6553 55.1971 41.715C55.1809 41.7748 55.0863 42.1101 54.987 42.4602C54.8877 42.8102 54.7662 43.2433 54.717 43.4226C54.6678 43.6019 54.5982 43.8453 54.5624 43.9634L54.4971 44.1782L54.1496 43.4511C53.9585 43.0512 53.7199 42.5564 53.6195 42.3515C53.519 42.1466 53.2219 41.5318 52.9591 40.9854C52.6963 40.439 52.3592 39.7404 52.21 39.4331C52.0608 39.1257 51.6837 38.3433 51.3719 37.6944C51.0601 37.0456 50.7555 36.4169 50.6951 36.2973C50.6347 36.1778 50.5885 36.0767 50.5923 36.0726C50.5961 36.0685 50.7503 36.1361 50.9349 36.2228Z"/>
</mask>
<path fill-rule="evenodd" clip-rule="evenodd" d="M4.93507 53.661C5.32916 55.2277 6.36171 56.6943 7.77031 57.6882C8.74912 58.3789 9.90384 58.8536 11.0614 59.0411C11.4308 59.101 11.6243 59.1037 16.4114 59.1159C26.9135 59.1427 43.3385 59.218 44.6049 59.2451C45.3878 59.2619 45.5313 59.2428 45.9494 59.0667C46.3142 58.9131 46.5648 58.7602 46.934 58.466C47.4677 58.0408 47.8528 57.5454 48.1658 56.8815C48.4349 56.3109 48.5684 55.7528 48.5967 55.0808C48.6053 54.8759 48.6273 50.8172 48.6457 46.0616C48.6641 41.306 48.6874 37.369 48.6975 37.3127C48.7099 37.2439 48.8696 37.008 49.1857 36.5918C49.5881 36.0619 49.6605 35.9804 49.6909 36.023C49.7104 36.0503 50.1846 37.0244 50.7447 38.1876C51.3048 39.3507 51.8519 40.484 51.9605 40.706C52.0691 40.928 52.3929 41.5986 52.6799 42.1963C52.967 42.7939 53.2973 43.4785 53.414 43.7176C53.5307 43.9566 53.7488 44.4107 53.8988 44.7266C54.2714 45.5116 54.3146 45.5809 54.4707 45.644C54.5742 45.6858 54.6174 45.6889 54.6987 45.6605C54.9049 45.5886 54.9294 45.5323 55.2341 44.4316C55.3902 43.8681 55.5421 43.3233 55.5719 43.2208C55.6016 43.1184 55.6678 42.8808 55.719 42.693C55.8543 42.1965 55.8548 42.1953 55.8989 42.2065C55.9211 42.2121 56.1441 42.2927 56.3944 42.3856C56.6447 42.4786 57.0147 42.6159 57.2166 42.6909C57.4184 42.7659 57.7752 42.9006 58.0094 42.9903C58.3764 43.1308 58.4656 43.1536 58.6554 43.155C58.9015 43.1568 59.0079 43.1068 59.0827 42.9538C59.1866 42.7414 59.1939 42.7591 57.9507 40.2092C57.8258 39.9531 57.5714 39.4292 57.3854 39.045C57.1994 38.6608 56.7732 37.7806 56.4383 37.089C56.1035 36.3974 55.6639 35.4893 55.4615 35.071C55.2591 34.6526 55.024 34.168 54.939 33.9939L54.7845 33.6776L54.8627 33.6617C54.9057 33.653 55.1919 33.6373 55.4988 33.627C56.1769 33.6041 56.3292 33.577 56.4346 33.4607C56.5184 33.3683 56.5706 33.2187 56.5706 33.0711C56.5706 32.9709 56.4153 32.5489 55.927 31.3216C55.7485 30.8731 55.5947 30.4734 55.5852 30.4334C55.5689 30.3649 55.6309 30.3264 56.616 29.7922C57.1924 29.4796 57.7012 29.1908 57.7466 29.1504C57.8418 29.0657 57.9045 28.8945 57.8779 28.7922C57.8019 28.5005 57.7517 28.4412 56.8953 27.6313C56.4341 27.195 56.0444 26.8198 56.0294 26.7974C56.0099 26.7684 56.1943 26.4482 56.6707 25.6839C57.3926 24.5253 57.4167 24.4724 57.3194 24.2556C57.234 24.0652 57.0678 23.9195 56.6567 23.6743C56.2656 23.4412 55.0099 22.68 54.9884 22.6632C54.974 22.6518 55.0021 22.5895 55.5022 21.5258C55.7332 21.0344 55.9307 20.5845 55.9411 20.5259C55.977 20.3237 55.8123 20.1035 55.5215 19.9649C55.4525 19.9321 55.0625 19.8986 54.0845 19.8416C53.3462 19.7986 52.7363 19.7572 52.7292 19.7496C52.722 19.742 52.7312 19.184 52.7496 18.5095C52.7798 17.4028 52.7784 17.2711 52.7358 17.1585C52.6681 16.9797 52.5448 16.9085 52.3027 16.9085C52.0645 16.9085 52.0603 16.9101 50.5983 17.5737C49.9703 17.8588 49.4463 18.0807 49.4339 18.0669C49.4216 18.053 49.2714 17.8487 49.1001 17.6128L48.7887 17.1839L48.7963 15.3308L48.8039 13.4778L50.3308 13.4547C51.1706 13.4421 53.146 13.4211 54.7207 13.4081C57.844 13.3824 57.6835 13.393 57.8153 13.2046C57.9344 13.0345 57.9256 12.557 57.7858 11.5994C57.4654 9.40552 56.6724 7.52714 55.5744 6.36142C54.9464 5.69462 54.277 5.29321 53.5457 5.14487C53.3018 5.09541 53.0167 5.07536 52.1747 5.04841C51.5899 5.02969 50.9623 5.00119 50.7799 4.98501C50.3899 4.95046 47.0907 4.8114 46.0731 4.78662C44.1252 4.73915 39.6901 4.73797 29.835 4.78228C23.8756 4.80907 18.7223 4.8358 18.3831 4.8417C17.7223 4.85322 17.3311 4.915 16.7534 5.0992C16.3422 5.23032 15.6424 5.54681 15.5455 5.6456C15.5235 5.66798 15.4086 5.74666 15.2903 5.8204C14.5822 6.26173 13.869 6.99112 13.4004 7.75322C13.1378 8.18024 12.8948 8.8033 12.7838 9.33433L12.7159 9.65898L12.725 31.3116L12.7341 52.9643L9.2895 52.9393C5.29161 52.9103 5.75649 52.9104 5.32238 52.9382C5.00002 52.9588 4.97286 52.9655 4.92964 53.0353C4.85509 53.1556 4.85676 53.3497 4.93507 53.661ZM7.04142 53.743C9.88097 53.7887 10.5531 53.7954 12.0993 53.7933C14.0517 53.7905 35.5816 53.9076 38.2431 53.9353L40.1325 53.9551L40.114 54.0856C40.0912 54.2462 40.1426 54.8475 40.2042 55.1422C40.4376 56.258 40.9926 57.3404 41.7322 58.1224L41.9891 58.3941L38.8191 58.3746C32.6477 58.3366 15.9184 58.2888 13.9933 58.3035C12.9193 58.3118 11.882 58.3057 11.6882 58.2901C10.7412 58.2138 9.93491 57.9809 9.07485 57.5349C7.76121 56.8539 6.79752 55.9144 6.14324 54.6772C6.02335 54.4504 5.77496 53.8391 5.77273 53.7652C5.77164 53.7294 5.97437 53.7258 7.04142 53.743ZM13.5317 9.5348C13.6672 8.9441 13.8264 8.55287 14.1263 8.07407C14.5888 7.33546 15.3315 6.67102 16.1726 6.24341C16.6244 6.01372 17.3072 5.7791 17.6931 5.72098C18.1198 5.65671 19.4511 5.64215 26.8839 5.62042C30.3158 5.61039 33.1699 5.59673 33.2265 5.59012C33.6459 5.54091 45.4085 5.60846 46.6603 5.6673C47.0318 5.68474 47.7829 5.71353 48.3295 5.73126C49.2296 5.76044 49.9539 5.79599 50.6364 5.84455L50.8832 5.86209L50.7832 5.94076C50.5753 6.10429 49.9997 6.75506 49.8001 7.05231C49.2706 7.84059 48.9347 8.59149 48.5064 9.94436C48.3568 10.4169 48.0941 11.8158 48.0674 12.2825C48.061 12.3934 48.0479 13.3002 48.0381 14.2975L48.0205 16.1106L47.9098 15.9827C47.7869 15.8405 47.6905 15.7908 47.5379 15.7908C47.3133 15.7908 47.3325 15.7691 46.3526 17.1258C45.9765 17.6466 45.664 18.0784 45.6582 18.0854C45.6525 18.0924 45.281 17.9334 44.8327 17.7321C44.3844 17.5308 43.8016 17.2692 43.5376 17.1507C43.1236 16.9648 43.0284 16.9335 42.8451 16.923C42.5863 16.9081 42.463 16.9656 42.3766 17.1416C42.3197 17.2577 42.3191 17.2882 42.3516 18.504C42.3722 19.2745 42.3744 19.7545 42.3574 19.7656C42.3423 19.7754 41.7649 19.815 41.0743 19.8534C40.3836 19.8918 39.7617 19.9369 39.692 19.9536C39.5181 19.9953 39.2603 20.1825 39.204 20.308C39.1443 20.4411 39.1459 20.5069 39.2137 20.6956L39.2696 20.8509L35.7121 20.8589C33.7555 20.8634 28.4243 20.8706 23.865 20.8751C16.9344 20.8819 15.5596 20.8902 15.4793 20.9257C15.332 20.9907 15.2559 21.1135 15.2559 21.2861C15.2559 21.459 15.332 21.5815 15.4801 21.6469C15.5619 21.683 17.4527 21.6897 27.6248 21.6897L39.6727 21.6897L39.8998 22.1712C40.0247 22.436 40.1269 22.6582 40.1269 22.6651C40.1269 22.6774 39.8088 22.875 38.7321 23.5315C37.9786 23.991 37.9709 23.9967 37.8675 24.1555C37.7575 24.3245 37.7315 24.4447 37.7751 24.582C37.7932 24.6391 38.0174 25.021 38.2732 25.4309C38.5291 25.8407 38.7362 26.1793 38.7334 26.1832C38.7306 26.1872 38.6895 26.1788 38.6421 26.1645C38.5947 26.1502 37.3183 26.1492 35.8057 26.1622C33.3237 26.1837 33.0453 26.1911 32.9518 26.238C32.678 26.3754 32.668 26.7418 32.9328 26.9314L33.0356 27.005L35.7811 26.9839C37.2911 26.9723 38.5737 26.9501 38.6313 26.9346C38.7644 26.8986 38.8587 26.7925 38.9051 26.6264L38.9416 26.4957L39.0342 26.6462C39.1059 26.7629 39.1187 26.8045 39.0909 26.8315C39.0712 26.8506 38.6918 27.2117 38.2476 27.634C37.563 28.285 37.4256 28.4301 37.3447 28.5878C37.2383 28.7952 37.2267 28.9105 37.2964 29.0659C37.3557 29.1979 37.331 29.1827 38.5266 29.8246C39.0757 30.1194 39.5349 30.3698 39.5471 30.3812C39.5593 30.3925 39.4226 30.7782 39.2435 31.2383C38.589 32.9192 38.5712 32.9687 38.571 33.115C38.5707 33.2904 38.6456 33.4512 38.7679 33.5375C38.8711 33.6104 38.9987 33.6246 39.8848 33.6618L40.362 33.6818L39.9691 34.4928C39.753 34.9389 39.368 35.7369 39.1136 36.2663C38.8592 36.7956 38.4761 37.592 38.2623 38.036C38.0485 38.4799 37.6719 39.2623 37.4253 39.7746C37.1788 40.2869 36.822 41.0273 36.6323 41.4201C36.4427 41.8128 36.2521 42.2087 36.2088 42.2997L36.13 42.4653L36.0595 42.3848C36.0206 42.3405 35.9553 42.2908 35.9141 42.2742C35.8409 42.2448 30.8193 42.2087 20.189 42.1612C14.9294 42.1378 15.3184 42.1252 15.1704 42.324C15.0311 42.5113 15.1335 42.841 15.3549 42.9182C15.4422 42.9486 17.68 42.9683 25.6458 43.0089C35.3952 43.0586 35.8298 43.0585 35.9346 43.0057L36.044 42.9505L36.1203 43.0463C36.2843 43.2524 36.55 43.2428 37.1647 43.0085C37.6865 42.8097 38.4142 42.5376 38.879 42.3677C39.0566 42.3027 39.2228 42.2405 39.2484 42.2294C39.2857 42.2131 39.3098 42.2623 39.3722 42.4821C39.67 43.5313 39.7638 43.8655 39.9495 44.5403C40.0646 44.9587 40.1846 45.3605 40.2161 45.4332C40.3539 45.7519 40.7244 45.7765 40.9001 45.4786C40.9376 45.4151 41.3556 44.5527 41.829 43.5623C42.3023 42.5719 42.838 41.4542 43.0193 41.0786C43.2007 40.7029 43.6696 39.7249 44.0615 38.9053C44.9813 36.9813 45.4448 36.0229 45.4676 35.998C45.4776 35.987 45.8822 36.4957 46.3667 37.1283C46.8512 37.7609 47.2849 38.3077 47.3305 38.3435C47.4503 38.4375 47.695 38.4337 47.8201 38.3359L47.9129 38.2633L47.8945 41.0215C47.8844 42.5385 47.8633 46.2595 47.8475 49.2905C47.8219 54.2258 47.8061 55.1842 47.7451 55.5154C47.5836 56.391 47.2878 57.0216 46.7917 57.5474C46.4729 57.8854 46.176 58.0892 45.7641 58.2527C45.2904 58.4409 45.1275 58.4649 44.3259 58.4649C43.6245 58.4649 43.6014 58.4629 43.401 58.3845C43.1907 58.3023 42.6874 57.9554 42.4467 57.7267C41.7762 57.0897 41.2216 56.0938 40.9858 55.103C40.9158 54.8091 40.9066 54.7123 40.9075 54.2735C40.9084 53.8405 40.9167 53.7533 40.9729 53.5934C41.0082 53.4926 41.0372 53.3577 41.0372 53.2937L41.0372 53.1774L40.883 53.159C40.6331 53.1291 37.8452 53.107 25.3668 53.0364C18.8718 52.9997 13.5467 52.9579 13.5332 52.9437C13.5198 52.9295 13.5054 46.1604 13.5013 37.9014C13.4971 29.6424 13.4902 22.6405 13.4859 22.3417C13.4815 22.0429 13.4789 19.088 13.48 15.7752C13.4817 10.2206 13.4858 9.73524 13.5317 9.5348ZM15.2469 47.9387C15.2747 48.0466 15.3452 48.1353 15.4412 48.1829C15.5576 48.2406 16.0822 48.2458 28.631 48.3125C30.246 48.3211 32.565 48.3351 33.7844 48.3435C35.0037 48.3519 37.6068 48.367 39.569 48.377C43.0411 48.3946 43.1394 48.3935 43.2372 48.3359C43.3483 48.2704 43.445 48.1079 43.445 47.9865C43.445 47.8632 43.3464 47.6998 43.2368 47.6415C43.1448 47.5926 42.8793 47.5869 39.9507 47.57C38.1985 47.56 35.7143 47.5448 34.4304 47.5364C33.1464 47.5279 30.735 47.5139 29.0715 47.5053C25.9085 47.4889 22.8456 47.4707 18.2804 47.4414C15.6973 47.4248 15.5593 47.4267 15.4635 47.4801C15.295 47.5743 15.2032 47.7685 15.2469 47.9387ZM15.2768 37.3678C15.3057 37.4272 15.3715 37.5057 15.4232 37.5421C15.5138 37.6061 15.5574 37.6091 16.6711 37.6276C17.3059 37.6382 19.063 37.6505 20.5759 37.6551C23.315 37.6634 23.3269 37.6631 23.4095 37.5993C23.5288 37.507 23.6056 37.3285 23.5823 37.1973C23.5563 37.0504 23.436 36.9096 23.3067 36.8749C23.2445 36.8582 21.5824 36.8374 19.3815 36.8259C15.7345 36.8068 15.5597 36.8084 15.4635 36.8621C15.2641 36.9734 15.1868 37.1827 15.2768 37.3678ZM15.2937 32.0936C15.3334 32.156 15.4024 32.2133 15.4625 32.2337C15.5359 32.2587 17.6613 32.2717 23.0865 32.2803L30.6087 32.2923L30.6916 32.2281C30.8139 32.1337 30.8879 31.9577 30.8634 31.8197C30.8344 31.6565 30.6858 31.511 30.5232 31.4866C30.4515 31.4758 27.0257 31.4711 22.9102 31.476L15.4276 31.485L15.327 31.601C15.2012 31.7463 15.1888 31.9288 15.2937 32.0936ZM15.3021 26.9337C15.3437 26.9859 15.4263 27.0436 15.4856 27.062C15.5598 27.0848 16.3835 27.0923 18.1189 27.0858C20.5939 27.0765 20.6462 27.0751 20.7469 27.0134C21.0365 26.836 20.9873 26.3942 20.6653 26.2818C20.5809 26.2523 19.9869 26.248 18.0401 26.2623C15.2973 26.2826 15.4259 26.2735 15.2878 26.459C15.1965 26.5817 15.2034 26.8096 15.3021 26.9337ZM15.2768 16.1287C15.3086 16.1968 15.3677 16.2539 15.445 16.291C15.5563 16.3445 15.6742 16.3483 17.2233 16.3488C18.3308 16.3491 18.9206 16.338 18.9974 16.3155C19.33 16.2178 19.401 15.8063 19.1224 15.591C19.0407 15.5279 19.0113 15.5269 17.2871 15.5269C15.6557 15.5269 15.5282 15.5307 15.4381 15.5827C15.2459 15.6937 15.1793 15.9193 15.2768 16.1287ZM15.3406 10.8413C15.4392 11.0121 15.512 11.0251 16.3717 11.0251C17.7047 11.0251 27.5289 10.9791 29.6441 10.963C30.7504 10.9545 33.109 10.9398 34.8855 10.9302C38.4823 10.9108 38.2449 10.9264 38.3893 10.6991C38.5176 10.4968 38.4133 10.2076 38.1859 10.1356C38.0943 10.1066 35.5921 10.1105 26.8456 10.1534C16.1408 10.206 15.6173 10.2111 15.5002 10.2648C15.2957 10.3585 15.22 10.6321 15.3406 10.8413ZM20.1151 16.0618C20.1378 16.117 20.2 16.1903 20.2534 16.2247C20.3503 16.2872 20.3706 16.2873 32.3391 16.2874C45.3709 16.2875 44.4484 16.3003 44.5845 16.1174C44.7247 15.9289 44.6772 15.6525 44.4845 15.5353C44.3975 15.4825 43.8528 15.48 32.4054 15.4802C20.7761 15.4805 20.4137 15.4822 20.2937 15.5383C20.0986 15.6295 20.0255 15.8439 20.1151 16.0618ZM22.7412 26.7374C22.7826 26.8394 22.9408 26.9632 23.0601 26.987C23.1203 26.9989 24.8855 27 26.9829 26.9893C30.6049 26.9708 30.8016 26.967 30.9003 26.9129C31.0135 26.8507 31.1123 26.6882 31.1123 26.5641C31.1123 26.4426 31.0155 26.2801 30.9045 26.215C30.8069 26.1579 30.6899 26.1565 26.9133 26.1678C23.3067 26.1786 23.0156 26.1833 22.9274 26.2327C22.8751 26.262 22.8111 26.3201 22.7853 26.3618C22.7283 26.4537 22.7054 26.6491 22.7412 26.7374ZM37.5245 41.3638C38 40.381 38.5487 39.242 39.2474 37.7876C40.0291 36.1603 40.827 34.5029 41.0294 34.0857L41.1987 33.7369L41.4979 33.7364L41.797 33.7359L41.8123 33.8679C41.8207 33.9405 41.8485 34.5796 41.8741 35.2883C41.8997 35.9969 41.9283 36.6187 41.9376 36.6699C41.9809 36.9079 42.1357 37.0577 42.3387 37.0578C42.4202 37.0579 42.735 36.9247 43.4839 36.5732C44.052 36.3066 44.5284 36.0811 44.5427 36.0721C44.5569 36.0631 44.3141 36.5852 44.0031 37.2321C43.6921 37.8792 43.1799 38.9464 42.8649 39.6038C42.5499 40.2612 42.1173 41.1624 41.9036 41.6064C41.6899 42.0503 41.3261 42.8088 41.0952 43.2919C40.8643 43.7749 40.6666 44.1591 40.6559 44.1457C40.6357 44.1202 40.5714 43.9 40.2725 42.8327C39.8824 41.4395 39.8271 41.2932 39.6792 41.265C39.5718 41.2446 39.1689 41.3841 37.4915 42.0229C37.3099 42.0921 37.1612 42.1411 37.1612 42.1317C37.1612 42.1224 37.3247 41.7768 37.5245 41.3638ZM39.0496 27.9734C39.4726 27.5703 39.8483 27.197 39.8847 27.1438C39.9669 27.0233 39.976 26.737 39.9023 26.5858C39.8757 26.5312 39.585 26.056 39.2563 25.5298C38.9276 25.0037 38.6587 24.5614 38.6587 24.547C38.6587 24.5327 38.7281 24.4792 38.8129 24.4281C38.8977 24.3771 39.1322 24.2339 39.3341 24.1098C39.536 23.9857 39.7738 23.8397 39.8626 23.7854C40.8852 23.16 40.8703 23.1709 40.9382 23.0024C41.0279 22.7798 41.0056 22.7071 40.5375 21.6989C40.2949 21.1765 40.1 20.7461 40.1043 20.7423C40.1087 20.7386 40.7006 20.7007 41.4197 20.6581C42.4379 20.5979 42.7466 20.57 42.8145 20.5324C42.9398 20.4629 43.1188 20.2578 43.1472 20.1511C43.1606 20.1008 43.1584 19.574 43.1424 18.9804C43.1263 18.3867 43.1213 17.8924 43.1312 17.8819C43.141 17.8715 43.338 17.9477 43.5687 18.0512C45.136 18.7545 45.4685 18.9006 45.5652 18.9282C45.6859 18.9626 45.8968 18.9222 46.0361 18.838C46.0804 18.8112 46.3044 18.5303 46.5339 18.2137C47.3929 17.0287 47.5323 16.8432 47.5564 16.8525C47.5701 16.8576 47.881 17.274 48.2474 17.7778C48.6138 18.2815 48.941 18.7254 48.9745 18.7641C49.0507 18.8523 49.3831 18.9644 49.4893 18.9377C49.564 18.919 50.7936 18.3786 51.5912 18.0139C51.8 17.9185 51.9752 17.8452 51.9808 17.851C51.9863 17.8568 51.9768 18.3541 51.9597 18.9562C51.9379 19.7246 51.9378 20.0804 51.9596 20.1501C51.9959 20.2664 52.2052 20.4927 52.3179 20.5375C52.361 20.5546 52.9358 20.5978 53.5952 20.6334C54.2546 20.6691 54.8415 20.7082 54.8995 20.7205L55.0049 20.7428L54.5692 21.6845C54.1956 22.4918 54.1334 22.6469 54.1339 22.7711C54.1345 22.9732 54.2302 23.1383 54.4123 23.2518C54.5981 23.3675 55.6018 23.9787 56.0273 24.2353C56.205 24.3424 56.3795 24.449 56.4152 24.4723C56.4788 24.5139 56.4689 24.5322 55.8484 25.5259C55.5011 26.082 55.2044 26.572 55.189 26.6147C55.1394 26.7526 55.1572 26.9746 55.2277 27.0982C55.2637 27.1615 55.6368 27.537 56.0567 27.9326C56.4766 28.3283 56.8376 28.6692 56.859 28.6903C56.8903 28.7211 56.7683 28.7982 56.2277 29.0889C54.6786 29.9219 54.7344 29.8795 54.7368 30.2221C54.7384 30.446 54.6993 30.3355 55.4166 32.1468C55.5539 32.4937 55.6617 32.7821 55.656 32.7876C55.6503 32.7933 55.0332 32.8277 54.2847 32.8641C53.329 32.9107 52.8954 32.9429 52.8283 32.9726C52.6915 33.033 52.6052 33.179 52.5738 33.4034C52.5589 33.5095 52.5277 34.1393 52.5045 34.8031C52.4813 35.4668 52.4565 36.0161 52.4494 36.0235C52.4388 36.0348 51.4379 35.5742 50.1032 34.9439C49.9618 34.8772 49.8053 34.8226 49.7553 34.8226C49.5529 34.8226 49.4966 34.8837 48.522 36.1619C47.7585 37.1633 47.5688 37.395 47.5396 37.3624C47.5197 37.3401 47.0987 36.791 46.6041 36.1421C45.6909 34.9439 45.5816 34.8242 45.4002 34.8231C45.3526 34.8228 44.8708 35.0313 44.3137 35.2933C42.5671 36.1148 42.6817 36.0647 42.6806 36.0074C42.68 35.979 42.6552 35.3683 42.6254 34.6502C42.5755 33.448 42.5663 33.3345 42.5093 33.2163C42.4385 33.0696 42.3584 33.001 42.2117 32.9617C42.1552 32.9466 41.5276 32.91 40.817 32.8803C40.1064 32.8507 39.515 32.8173 39.5028 32.8061C39.4827 32.7875 39.733 32.116 40.2112 30.9052C40.3651 30.5157 40.3912 30.4221 40.3912 30.2595C40.3912 30.0342 40.3404 29.915 40.2084 29.8307C40.0716 29.7433 39.594 29.4812 38.8709 29.0969C38.5274 28.9143 38.254 28.7517 38.2634 28.7355C38.2728 28.7194 38.6266 28.3764 39.0496 27.9734ZM39.6484 10.698C39.6774 10.7572 39.7474 10.834 39.8039 10.8688C39.9044 10.9305 39.9552 10.9321 42.0943 10.9402C44.5404 10.9495 44.4086 10.9608 44.5554 10.7301C44.6732 10.5452 44.6039 10.2907 44.4064 10.1825C44.3205 10.1355 44.0993 10.1292 42.1236 10.1175C40.0492 10.1052 39.9309 10.1075 39.8354 10.1612C39.6321 10.2755 39.5528 10.5032 39.6484 10.698ZM41.4935 28.0543C41.7619 30.0853 42.8649 31.7967 44.5531 32.8018C45.4682 33.3466 46.6925 33.6522 47.7414 33.5975C48.1495 33.5763 48.6473 33.5173 48.6864 33.4856C48.7026 33.4725 48.8239 33.4326 48.956 33.397C49.3393 33.2935 49.686 33.1558 50.0959 32.9442C50.7759 32.5931 51.2271 32.2438 51.7854 31.6357C52.6345 30.711 53.1561 29.6208 53.3877 28.2872C53.4616 27.8614 53.4763 26.8597 53.4153 26.3966C53.0982 23.9866 51.5159 21.962 49.3759 21.2278C48.5667 20.9502 48.3157 20.9015 47.6147 20.8862C46.2585 20.8566 44.932 21.3095 43.8325 22.1776C43.5467 22.4033 43.0228 22.9386 42.7908 23.2421C42.1409 24.0921 41.6975 25.1432 41.5203 26.2536C41.4533 26.6734 41.4389 27.6414 41.4935 28.0543ZM42.2414 26.8026C42.4072 24.6865 43.6877 22.8532 45.5298 22.0941C46.1808 21.8259 46.7124 21.7257 47.5412 21.7151C48.0645 21.7084 48.1201 21.7133 48.4368 21.7947C48.9781 21.9337 49.3721 22.0746 49.7336 22.2584C51.2505 23.0294 52.3329 24.5439 52.6223 26.3002C52.7224 26.9077 52.7075 27.7999 52.5876 28.3803C52.4103 29.2384 52.0254 30.0883 51.5191 30.7399C51.1694 31.1899 50.6228 31.6944 50.1791 31.9766C48.92 32.7774 47.3314 32.9899 45.9409 32.5434C43.9017 31.8887 42.4177 29.954 42.2438 27.7236C42.2096 27.2852 42.2094 27.211 42.2414 26.8026ZM48.9371 11.9099C49.254 9.37587 50.1834 7.3612 51.4692 6.42153C51.9702 6.05539 52.3863 5.91387 52.9588 5.91493C53.4037 5.91574 53.6743 5.98081 54.06 6.1797C55.1974 6.76621 56.158 8.22349 56.7013 10.1868C56.8717 10.8026 56.9653 11.2632 57.0389 11.8478C57.0722 12.1125 57.1058 12.3794 57.1136 12.441L57.1278 12.5529L56.1959 12.5728C55.6833 12.5837 53.8198 12.6018 52.0548 12.6129L48.8458 12.6333L48.8614 12.5122C48.87 12.4456 48.904 12.1746 48.9371 11.9099ZM50.9349 36.2228C51.9961 36.7212 52.66 37.0247 52.7297 37.043C52.9012 37.0882 53.137 36.9256 53.1916 36.7246C53.2059 36.6718 53.2413 35.9789 53.2703 35.1848L53.323 33.7408L53.5953 33.7192C53.7451 33.7074 53.8844 33.7046 53.9051 33.7131C53.9442 33.7291 53.9932 33.8272 54.9483 35.8006C55.2706 36.4665 55.7374 37.4305 55.9857 37.9428C57.6421 41.3606 58.0004 42.104 57.9952 42.1112C57.9919 42.1157 57.931 42.0968 57.8598 42.0693C57.7887 42.0418 57.5851 41.9658 57.4074 41.9003C57.2298 41.8348 56.7615 41.6616 56.3668 41.5153C55.8949 41.3404 55.606 41.2493 55.523 41.2493C55.3989 41.2493 55.3955 41.2522 55.3117 41.4278C55.2649 41.526 55.2133 41.6553 55.1971 41.715C55.1809 41.7748 55.0863 42.1101 54.987 42.4602C54.8877 42.8102 54.7662 43.2433 54.717 43.4226C54.6678 43.6019 54.5982 43.8453 54.5624 43.9634L54.4971 44.1782L54.1496 43.4511C53.9585 43.0512 53.7199 42.5564 53.6195 42.3515C53.519 42.1466 53.2219 41.5318 52.9591 40.9854C52.6963 40.439 52.3592 39.7404 52.21 39.4331C52.0608 39.1257 51.6837 38.3433 51.3719 37.6944C51.0601 37.0456 50.7555 36.4169 50.6951 36.2973C50.6347 36.1778 50.5885 36.0767 50.5923 36.0726C50.5961 36.0685 50.7503 36.1361 50.9349 36.2228Z" fill="#EC6A2D"/>
<path fill-rule="evenodd" clip-rule="evenodd" d="M4.93507 53.661C5.32916 55.2277 6.36171 56.6943 7.77031 57.6882C8.74912 58.3789 9.90384 58.8536 11.0614 59.0411C11.4308 59.101 11.6243 59.1037 16.4114 59.1159C26.9135 59.1427 43.3385 59.218 44.6049 59.2451C45.3878 59.2619 45.5313 59.2428 45.9494 59.0667C46.3142 58.9131 46.5648 58.7602 46.934 58.466C47.4677 58.0408 47.8528 57.5454 48.1658 56.8815C48.4349 56.3109 48.5684 55.7528 48.5967 55.0808C48.6053 54.8759 48.6273 50.8172 48.6457 46.0616C48.6641 41.306 48.6874 37.369 48.6975 37.3127C48.7099 37.2439 48.8696 37.008 49.1857 36.5918C49.5881 36.0619 49.6605 35.9804 49.6909 36.023C49.7104 36.0503 50.1846 37.0244 50.7447 38.1876C51.3048 39.3507 51.8519 40.484 51.9605 40.706C52.0691 40.928 52.3929 41.5986 52.6799 42.1963C52.967 42.7939 53.2973 43.4785 53.414 43.7176C53.5307 43.9566 53.7488 44.4107 53.8988 44.7266C54.2714 45.5116 54.3146 45.5809 54.4707 45.644C54.5742 45.6858 54.6174 45.6889 54.6987 45.6605C54.9049 45.5886 54.9294 45.5323 55.2341 44.4316C55.3902 43.8681 55.5421 43.3233 55.5719 43.2208C55.6016 43.1184 55.6678 42.8808 55.719 42.693C55.8543 42.1965 55.8548 42.1953 55.8989 42.2065C55.9211 42.2121 56.1441 42.2927 56.3944 42.3856C56.6447 42.4786 57.0147 42.6159 57.2166 42.6909C57.4184 42.7659 57.7752 42.9006 58.0094 42.9903C58.3764 43.1308 58.4656 43.1536 58.6554 43.155C58.9015 43.1568 59.0079 43.1068 59.0827 42.9538C59.1866 42.7414 59.1939 42.7591 57.9507 40.2092C57.8258 39.9531 57.5714 39.4292 57.3854 39.045C57.1994 38.6608 56.7732 37.7806 56.4383 37.089C56.1035 36.3974 55.6639 35.4893 55.4615 35.071C55.2591 34.6526 55.024 34.168 54.939 33.9939L54.7845 33.6776L54.8627 33.6617C54.9057 33.653 55.1919 33.6373 55.4988 33.627C56.1769 33.6041 56.3292 33.577 56.4346 33.4607C56.5184 33.3683 56.5706 33.2187 56.5706 33.0711C56.5706 32.9709 56.4153 32.5489 55.927 31.3216C55.7485 30.8731 55.5947 30.4734 55.5852 30.4334C55.5689 30.3649 55.6309 30.3264 56.616 29.7922C57.1924 29.4796 57.7012 29.1908 57.7466 29.1504C57.8418 29.0657 57.9045 28.8945 57.8779 28.7922C57.8019 28.5005 57.7517 28.4412 56.8953 27.6313C56.4341 27.195 56.0444 26.8198 56.0294 26.7974C56.0099 26.7684 56.1943 26.4482 56.6707 25.6839C57.3926 24.5253 57.4167 24.4724 57.3194 24.2556C57.234 24.0652 57.0678 23.9195 56.6567 23.6743C56.2656 23.4412 55.0099 22.68 54.9884 22.6632C54.974 22.6518 55.0021 22.5895 55.5022 21.5258C55.7332 21.0344 55.9307 20.5845 55.9411 20.5259C55.977 20.3237 55.8123 20.1035 55.5215 19.9649C55.4525 19.9321 55.0625 19.8986 54.0845 19.8416C53.3462 19.7986 52.7363 19.7572 52.7292 19.7496C52.722 19.742 52.7312 19.184 52.7496 18.5095C52.7798 17.4028 52.7784 17.2711 52.7358 17.1585C52.6681 16.9797 52.5448 16.9085 52.3027 16.9085C52.0645 16.9085 52.0603 16.9101 50.5983 17.5737C49.9703 17.8588 49.4463 18.0807 49.4339 18.0669C49.4216 18.053 49.2714 17.8487 49.1001 17.6128L48.7887 17.1839L48.7963 15.3308L48.8039 13.4778L50.3308 13.4547C51.1706 13.4421 53.146 13.4211 54.7207 13.4081C57.844 13.3824 57.6835 13.393 57.8153 13.2046C57.9344 13.0345 57.9256 12.557 57.7858 11.5994C57.4654 9.40552 56.6724 7.52714 55.5744 6.36142C54.9464 5.69462 54.277 5.29321 53.5457 5.14487C53.3018 5.09541 53.0167 5.07536 52.1747 5.04841C51.5899 5.02969 50.9623 5.00119 50.7799 4.98501C50.3899 4.95046 47.0907 4.8114 46.0731 4.78662C44.1252 4.73915 39.6901 4.73797 29.835 4.78228C23.8756 4.80907 18.7223 4.8358 18.3831 4.8417C17.7223 4.85322 17.3311 4.915 16.7534 5.0992C16.3422 5.23032 15.6424 5.54681 15.5455 5.6456C15.5235 5.66798 15.4086 5.74666 15.2903 5.8204C14.5822 6.26173 13.869 6.99112 13.4004 7.75322C13.1378 8.18024 12.8948 8.8033 12.7838 9.33433L12.7159 9.65898L12.725 31.3116L12.7341 52.9643L9.2895 52.9393C5.29161 52.9103 5.75649 52.9104 5.32238 52.9382C5.00002 52.9588 4.97286 52.9655 4.92964 53.0353C4.85509 53.1556 4.85676 53.3497 4.93507 53.661ZM7.04142 53.743C9.88097 53.7887 10.5531 53.7954 12.0993 53.7933C14.0517 53.7905 35.5816 53.9076 38.2431 53.9353L40.1325 53.9551L40.114 54.0856C40.0912 54.2462 40.1426 54.8475 40.2042 55.1422C40.4376 56.258 40.9926 57.3404 41.7322 58.1224L41.9891 58.3941L38.8191 58.3746C32.6477 58.3366 15.9184 58.2888 13.9933 58.3035C12.9193 58.3118 11.882 58.3057 11.6882 58.2901C10.7412 58.2138 9.93491 57.9809 9.07485 57.5349C7.76121 56.8539 6.79752 55.9144 6.14324 54.6772C6.02335 54.4504 5.77496 53.8391 5.77273 53.7652C5.77164 53.7294 5.97437 53.7258 7.04142 53.743ZM13.5317 9.5348C13.6672 8.9441 13.8264 8.55287 14.1263 8.07407C14.5888 7.33546 15.3315 6.67102 16.1726 6.24341C16.6244 6.01372 17.3072 5.7791 17.6931 5.72098C18.1198 5.65671 19.4511 5.64215 26.8839 5.62042C30.3158 5.61039 33.1699 5.59673 33.2265 5.59012C33.6459 5.54091 45.4085 5.60846 46.6603 5.6673C47.0318 5.68474 47.7829 5.71353 48.3295 5.73126C49.2296 5.76044 49.9539 5.79599 50.6364 5.84455L50.8832 5.86209L50.7832 5.94076C50.5753 6.10429 49.9997 6.75506 49.8001 7.05231C49.2706 7.84059 48.9347 8.59149 48.5064 9.94436C48.3568 10.4169 48.0941 11.8158 48.0674 12.2825C48.061 12.3934 48.0479 13.3002 48.0381 14.2975L48.0205 16.1106L47.9098 15.9827C47.7869 15.8405 47.6905 15.7908 47.5379 15.7908C47.3133 15.7908 47.3325 15.7691 46.3526 17.1258C45.9765 17.6466 45.664 18.0784 45.6582 18.0854C45.6525 18.0924 45.281 17.9334 44.8327 17.7321C44.3844 17.5308 43.8016 17.2692 43.5376 17.1507C43.1236 16.9648 43.0284 16.9335 42.8451 16.923C42.5863 16.9081 42.463 16.9656 42.3766 17.1416C42.3197 17.2577 42.3191 17.2882 42.3516 18.504C42.3722 19.2745 42.3744 19.7545 42.3574 19.7656C42.3423 19.7754 41.7649 19.815 41.0743 19.8534C40.3836 19.8918 39.7617 19.9369 39.692 19.9536C39.5181 19.9953 39.2603 20.1825 39.204 20.308C39.1443 20.4411 39.1459 20.5069 39.2137 20.6956L39.2696 20.8509L35.7121 20.8589C33.7555 20.8634 28.4243 20.8706 23.865 20.8751C16.9344 20.8819 15.5596 20.8902 15.4793 20.9257C15.332 20.9907 15.2559 21.1135 15.2559 21.2861C15.2559 21.459 15.332 21.5815 15.4801 21.6469C15.5619 21.683 17.4527 21.6897 27.6248 21.6897L39.6727 21.6897L39.8998 22.1712C40.0247 22.436 40.1269 22.6582 40.1269 22.6651C40.1269 22.6774 39.8088 22.875 38.7321 23.5315C37.9786 23.991 37.9709 23.9967 37.8675 24.1555C37.7575 24.3245 37.7315 24.4447 37.7751 24.582C37.7932 24.6391 38.0174 25.021 38.2732 25.4309C38.5291 25.8407 38.7362 26.1793 38.7334 26.1832C38.7306 26.1872 38.6895 26.1788 38.6421 26.1645C38.5947 26.1502 37.3183 26.1492 35.8057 26.1622C33.3237 26.1837 33.0453 26.1911 32.9518 26.238C32.678 26.3754 32.668 26.7418 32.9328 26.9314L33.0356 27.005L35.7811 26.9839C37.2911 26.9723 38.5737 26.9501 38.6313 26.9346C38.7644 26.8986 38.8587 26.7925 38.9051 26.6264L38.9416 26.4957L39.0342 26.6462C39.1059 26.7629 39.1187 26.8045 39.0909 26.8315C39.0712 26.8506 38.6918 27.2117 38.2476 27.634C37.563 28.285 37.4256 28.4301 37.3447 28.5878C37.2383 28.7952 37.2267 28.9105 37.2964 29.0659C37.3557 29.1979 37.331 29.1827 38.5266 29.8246C39.0757 30.1194 39.5349 30.3698 39.5471 30.3812C39.5593 30.3925 39.4226 30.7782 39.2435 31.2383C38.589 32.9192 38.5712 32.9687 38.571 33.115C38.5707 33.2904 38.6456 33.4512 38.7679 33.5375C38.8711 33.6104 38.9987 33.6246 39.8848 33.6618L40.362 33.6818L39.9691 34.4928C39.753 34.9389 39.368 35.7369 39.1136 36.2663C38.8592 36.7956 38.4761 37.592 38.2623 38.036C38.0485 38.4799 37.6719 39.2623 37.4253 39.7746C37.1788 40.2869 36.822 41.0273 36.6323 41.4201C36.4427 41.8128 36.2521 42.2087 36.2088 42.2997L36.13 42.4653L36.0595 42.3848C36.0206 42.3405 35.9553 42.2908 35.9141 42.2742C35.8409 42.2448 30.8193 42.2087 20.189 42.1612C14.9294 42.1378 15.3184 42.1252 15.1704 42.324C15.0311 42.5113 15.1335 42.841 15.3549 42.9182C15.4422 42.9486 17.68 42.9683 25.6458 43.0089C35.3952 43.0586 35.8298 43.0585 35.9346 43.0057L36.044 42.9505L36.1203 43.0463C36.2843 43.2524 36.55 43.2428 37.1647 43.0085C37.6865 42.8097 38.4142 42.5376 38.879 42.3677C39.0566 42.3027 39.2228 42.2405 39.2484 42.2294C39.2857 42.2131 39.3098 42.2623 39.3722 42.4821C39.67 43.5313 39.7638 43.8655 39.9495 44.5403C40.0646 44.9587 40.1846 45.3605 40.2161 45.4332C40.3539 45.7519 40.7244 45.7765 40.9001 45.4786C40.9376 45.4151 41.3556 44.5527 41.829 43.5623C42.3023 42.5719 42.838 41.4542 43.0193 41.0786C43.2007 40.7029 43.6696 39.7249 44.0615 38.9053C44.9813 36.9813 45.4448 36.0229 45.4676 35.998C45.4776 35.987 45.8822 36.4957 46.3667 37.1283C46.8512 37.7609 47.2849 38.3077 47.3305 38.3435C47.4503 38.4375 47.695 38.4337 47.8201 38.3359L47.9129 38.2633L47.8945 41.0215C47.8844 42.5385 47.8633 46.2595 47.8475 49.2905C47.8219 54.2258 47.8061 55.1842 47.7451 55.5154C47.5836 56.391 47.2878 57.0216 46.7917 57.5474C46.4729 57.8854 46.176 58.0892 45.7641 58.2527C45.2904 58.4409 45.1275 58.4649 44.3259 58.4649C43.6245 58.4649 43.6014 58.4629 43.401 58.3845C43.1907 58.3023 42.6874 57.9554 42.4467 57.7267C41.7762 57.0897 41.2216 56.0938 40.9858 55.103C40.9158 54.8091 40.9066 54.7123 40.9075 54.2735C40.9084 53.8405 40.9167 53.7533 40.9729 53.5934C41.0082 53.4926 41.0372 53.3577 41.0372 53.2937L41.0372 53.1774L40.883 53.159C40.6331 53.1291 37.8452 53.107 25.3668 53.0364C18.8718 52.9997 13.5467 52.9579 13.5332 52.9437C13.5198 52.9295 13.5054 46.1604 13.5013 37.9014C13.4971 29.6424 13.4902 22.6405 13.4859 22.3417C13.4815 22.0429 13.4789 19.088 13.48 15.7752C13.4817 10.2206 13.4858 9.73524 13.5317 9.5348ZM15.2469 47.9387C15.2747 48.0466 15.3452 48.1353 15.4412 48.1829C15.5576 48.2406 16.0822 48.2458 28.631 48.3125C30.246 48.3211 32.565 48.3351 33.7844 48.3435C35.0037 48.3519 37.6068 48.367 39.569 48.377C43.0411 48.3946 43.1394 48.3935 43.2372 48.3359C43.3483 48.2704 43.445 48.1079 43.445 47.9865C43.445 47.8632 43.3464 47.6998 43.2368 47.6415C43.1448 47.5926 42.8793 47.5869 39.9507 47.57C38.1985 47.56 35.7143 47.5448 34.4304 47.5364C33.1464 47.5279 30.735 47.5139 29.0715 47.5053C25.9085 47.4889 22.8456 47.4707 18.2804 47.4414C15.6973 47.4248 15.5593 47.4267 15.4635 47.4801C15.295 47.5743 15.2032 47.7685 15.2469 47.9387ZM15.2768 37.3678C15.3057 37.4272 15.3715 37.5057 15.4232 37.5421C15.5138 37.6061 15.5574 37.6091 16.6711 37.6276C17.3059 37.6382 19.063 37.6505 20.5759 37.6551C23.315 37.6634 23.3269 37.6631 23.4095 37.5993C23.5288 37.507 23.6056 37.3285 23.5823 37.1973C23.5563 37.0504 23.436 36.9096 23.3067 36.8749C23.2445 36.8582 21.5824 36.8374 19.3815 36.8259C15.7345 36.8068 15.5597 36.8084 15.4635 36.8621C15.2641 36.9734 15.1868 37.1827 15.2768 37.3678ZM15.2937 32.0936C15.3334 32.156 15.4024 32.2133 15.4625 32.2337C15.5359 32.2587 17.6613 32.2717 23.0865 32.2803L30.6087 32.2923L30.6916 32.2281C30.8139 32.1337 30.8879 31.9577 30.8634 31.8197C30.8344 31.6565 30.6858 31.511 30.5232 31.4866C30.4515 31.4758 27.0257 31.4711 22.9102 31.476L15.4276 31.485L15.327 31.601C15.2012 31.7463 15.1888 31.9288 15.2937 32.0936ZM15.3021 26.9337C15.3437 26.9859 15.4263 27.0436 15.4856 27.062C15.5598 27.0848 16.3835 27.0923 18.1189 27.0858C20.5939 27.0765 20.6462 27.0751 20.7469 27.0134C21.0365 26.836 20.9873 26.3942 20.6653 26.2818C20.5809 26.2523 19.9869 26.248 18.0401 26.2623C15.2973 26.2826 15.4259 26.2735 15.2878 26.459C15.1965 26.5817 15.2034 26.8096 15.3021 26.9337ZM15.2768 16.1287C15.3086 16.1968 15.3677 16.2539 15.445 16.291C15.5563 16.3445 15.6742 16.3483 17.2233 16.3488C18.3308 16.3491 18.9206 16.338 18.9974 16.3155C19.33 16.2178 19.401 15.8063 19.1224 15.591C19.0407 15.5279 19.0113 15.5269 17.2871 15.5269C15.6557 15.5269 15.5282 15.5307 15.4381 15.5827C15.2459 15.6937 15.1793 15.9193 15.2768 16.1287ZM15.3406 10.8413C15.4392 11.0121 15.512 11.0251 16.3717 11.0251C17.7047 11.0251 27.5289 10.9791 29.6441 10.963C30.7504 10.9545 33.109 10.9398 34.8855 10.9302C38.4823 10.9108 38.2449 10.9264 38.3893 10.6991C38.5176 10.4968 38.4133 10.2076 38.1859 10.1356C38.0943 10.1066 35.5921 10.1105 26.8456 10.1534C16.1408 10.206 15.6173 10.2111 15.5002 10.2648C15.2957 10.3585 15.22 10.6321 15.3406 10.8413ZM20.1151 16.0618C20.1378 16.117 20.2 16.1903 20.2534 16.2247C20.3503 16.2872 20.3706 16.2873 32.3391 16.2874C45.3709 16.2875 44.4484 16.3003 44.5845 16.1174C44.7247 15.9289 44.6772 15.6525 44.4845 15.5353C44.3975 15.4825 43.8528 15.48 32.4054 15.4802C20.7761 15.4805 20.4137 15.4822 20.2937 15.5383C20.0986 15.6295 20.0255 15.8439 20.1151 16.0618ZM22.7412 26.7374C22.7826 26.8394 22.9408 26.9632 23.0601 26.987C23.1203 26.9989 24.8855 27 26.9829 26.9893C30.6049 26.9708 30.8016 26.967 30.9003 26.9129C31.0135 26.8507 31.1123 26.6882 31.1123 26.5641C31.1123 26.4426 31.0155 26.2801 30.9045 26.215C30.8069 26.1579 30.6899 26.1565 26.9133 26.1678C23.3067 26.1786 23.0156 26.1833 22.9274 26.2327C22.8751 26.262 22.8111 26.3201 22.7853 26.3618C22.7283 26.4537 22.7054 26.6491 22.7412 26.7374ZM37.5245 41.3638C38 40.381 38.5487 39.242 39.2474 37.7876C40.0291 36.1603 40.827 34.5029 41.0294 34.0857L41.1987 33.7369L41.4979 33.7364L41.797 33.7359L41.8123 33.8679C41.8207 33.9405 41.8485 34.5796 41.8741 35.2883C41.8997 35.9969 41.9283 36.6187 41.9376 36.6699C41.9809 36.9079 42.1357 37.0577 42.3387 37.0578C42.4202 37.0579 42.735 36.9247 43.4839 36.5732C44.052 36.3066 44.5284 36.0811 44.5427 36.0721C44.5569 36.0631 44.3141 36.5852 44.0031 37.2321C43.6921 37.8792 43.1799 38.9464 42.8649 39.6038C42.5499 40.2612 42.1173 41.1624 41.9036 41.6064C41.6899 42.0503 41.3261 42.8088 41.0952 43.2919C40.8643 43.7749 40.6666 44.1591 40.6559 44.1457C40.6357 44.1202 40.5714 43.9 40.2725 42.8327C39.8824 41.4395 39.8271 41.2932 39.6792 41.265C39.5718 41.2446 39.1689 41.3841 37.4915 42.0229C37.3099 42.0921 37.1612 42.1411 37.1612 42.1317C37.1612 42.1224 37.3247 41.7768 37.5245 41.3638ZM39.0496 27.9734C39.4726 27.5703 39.8483 27.197 39.8847 27.1438C39.9669 27.0233 39.976 26.737 39.9023 26.5858C39.8757 26.5312 39.585 26.056 39.2563 25.5298C38.9276 25.0037 38.6587 24.5614 38.6587 24.547C38.6587 24.5327 38.7281 24.4792 38.8129 24.4281C38.8977 24.3771 39.1322 24.2339 39.3341 24.1098C39.536 23.9857 39.7738 23.8397 39.8626 23.7854C40.8852 23.16 40.8703 23.1709 40.9382 23.0024C41.0279 22.7798 41.0056 22.7071 40.5375 21.6989C40.2949 21.1765 40.1 20.7461 40.1043 20.7423C40.1087 20.7386 40.7006 20.7007 41.4197 20.6581C42.4379 20.5979 42.7466 20.57 42.8145 20.5324C42.9398 20.4629 43.1188 20.2578 43.1472 20.1511C43.1606 20.1008 43.1584 19.574 43.1424 18.9804C43.1263 18.3867 43.1213 17.8924 43.1312 17.8819C43.141 17.8715 43.338 17.9477 43.5687 18.0512C45.136 18.7545 45.4685 18.9006 45.5652 18.9282C45.6859 18.9626 45.8968 18.9222 46.0361 18.838C46.0804 18.8112 46.3044 18.5303 46.5339 18.2137C47.3929 17.0287 47.5323 16.8432 47.5564 16.8525C47.5701 16.8576 47.881 17.274 48.2474 17.7778C48.6138 18.2815 48.941 18.7254 48.9745 18.7641C49.0507 18.8523 49.3831 18.9644 49.4893 18.9377C49.564 18.919 50.7936 18.3786 51.5912 18.0139C51.8 17.9185 51.9752 17.8452 51.9808 17.851C51.9863 17.8568 51.9768 18.3541 51.9597 18.9562C51.9379 19.7246 51.9378 20.0804 51.9596 20.1501C51.9959 20.2664 52.2052 20.4927 52.3179 20.5375C52.361 20.5546 52.9358 20.5978 53.5952 20.6334C54.2546 20.6691 54.8415 20.7082 54.8995 20.7205L55.0049 20.7428L54.5692 21.6845C54.1956 22.4918 54.1334 22.6469 54.1339 22.7711C54.1345 22.9732 54.2302 23.1383 54.4123 23.2518C54.5981 23.3675 55.6018 23.9787 56.0273 24.2353C56.205 24.3424 56.3795 24.449 56.4152 24.4723C56.4788 24.5139 56.4689 24.5322 55.8484 25.5259C55.5011 26.082 55.2044 26.572 55.189 26.6147C55.1394 26.7526 55.1572 26.9746 55.2277 27.0982C55.2637 27.1615 55.6368 27.537 56.0567 27.9326C56.4766 28.3283 56.8376 28.6692 56.859 28.6903C56.8903 28.7211 56.7683 28.7982 56.2277 29.0889C54.6786 29.9219 54.7344 29.8795 54.7368 30.2221C54.7384 30.446 54.6993 30.3355 55.4166 32.1468C55.5539 32.4937 55.6617 32.7821 55.656 32.7876C55.6503 32.7933 55.0332 32.8277 54.2847 32.8641C53.329 32.9107 52.8954 32.9429 52.8283 32.9726C52.6915 33.033 52.6052 33.179 52.5738 33.4034C52.5589 33.5095 52.5277 34.1393 52.5045 34.8031C52.4813 35.4668 52.4565 36.0161 52.4494 36.0235C52.4388 36.0348 51.4379 35.5742 50.1032 34.9439C49.9618 34.8772 49.8053 34.8226 49.7553 34.8226C49.5529 34.8226 49.4966 34.8837 48.522 36.1619C47.7585 37.1633 47.5688 37.395 47.5396 37.3624C47.5197 37.3401 47.0987 36.791 46.6041 36.1421C45.6909 34.9439 45.5816 34.8242 45.4002 34.8231C45.3526 34.8228 44.8708 35.0313 44.3137 35.2933C42.5671 36.1148 42.6817 36.0647 42.6806 36.0074C42.68 35.979 42.6552 35.3683 42.6254 34.6502C42.5755 33.448 42.5663 33.3345 42.5093 33.2163C42.4385 33.0696 42.3584 33.001 42.2117 32.9617C42.1552 32.9466 41.5276 32.91 40.817 32.8803C40.1064 32.8507 39.515 32.8173 39.5028 32.8061C39.4827 32.7875 39.733 32.116 40.2112 30.9052C40.3651 30.5157 40.3912 30.4221 40.3912 30.2595C40.3912 30.0342 40.3404 29.915 40.2084 29.8307C40.0716 29.7433 39.594 29.4812 38.8709 29.0969C38.5274 28.9143 38.254 28.7517 38.2634 28.7355C38.2728 28.7194 38.6266 28.3764 39.0496 27.9734ZM39.6484 10.698C39.6774 10.7572 39.7474 10.834 39.8039 10.8688C39.9044 10.9305 39.9552 10.9321 42.0943 10.9402C44.5404 10.9495 44.4086 10.9608 44.5554 10.7301C44.6732 10.5452 44.6039 10.2907 44.4064 10.1825C44.3205 10.1355 44.0993 10.1292 42.1236 10.1175C40.0492 10.1052 39.9309 10.1075 39.8354 10.1612C39.6321 10.2755 39.5528 10.5032 39.6484 10.698ZM41.4935 28.0543C41.7619 30.0853 42.8649 31.7967 44.5531 32.8018C45.4682 33.3466 46.6925 33.6522 47.7414 33.5975C48.1495 33.5763 48.6473 33.5173 48.6864 33.4856C48.7026 33.4725 48.8239 33.4326 48.956 33.397C49.3393 33.2935 49.686 33.1558 50.0959 32.9442C50.7759 32.5931 51.2271 32.2438 51.7854 31.6357C52.6345 30.711 53.1561 29.6208 53.3877 28.2872C53.4616 27.8614 53.4763 26.8597 53.4153 26.3966C53.0982 23.9866 51.5159 21.962 49.3759 21.2278C48.5667 20.9502 48.3157 20.9015 47.6147 20.8862C46.2585 20.8566 44.932 21.3095 43.8325 22.1776C43.5467 22.4033 43.0228 22.9386 42.7908 23.2421C42.1409 24.0921 41.6975 25.1432 41.5203 26.2536C41.4533 26.6734 41.4389 27.6414 41.4935 28.0543ZM42.2414 26.8026C42.4072 24.6865 43.6877 22.8532 45.5298 22.0941C46.1808 21.8259 46.7124 21.7257 47.5412 21.7151C48.0645 21.7084 48.1201 21.7133 48.4368 21.7947C48.9781 21.9337 49.3721 22.0746 49.7336 22.2584C51.2505 23.0294 52.3329 24.5439 52.6223 26.3002C52.7224 26.9077 52.7075 27.7999 52.5876 28.3803C52.4103 29.2384 52.0254 30.0883 51.5191 30.7399C51.1694 31.1899 50.6228 31.6944 50.1791 31.9766C48.92 32.7774 47.3314 32.9899 45.9409 32.5434C43.9017 31.8887 42.4177 29.954 42.2438 27.7236C42.2096 27.2852 42.2094 27.211 42.2414 26.8026ZM48.9371 11.9099C49.254 9.37587 50.1834 7.3612 51.4692 6.42153C51.9702 6.05539 52.3863 5.91387 52.9588 5.91493C53.4037 5.91574 53.6743 5.98081 54.06 6.1797C55.1974 6.76621 56.158 8.22349 56.7013 10.1868C56.8717 10.8026 56.9653 11.2632 57.0389 11.8478C57.0722 12.1125 57.1058 12.3794 57.1136 12.441L57.1278 12.5529L56.1959 12.5728C55.6833 12.5837 53.8198 12.6018 52.0548 12.6129L48.8458 12.6333L48.8614 12.5122C48.87 12.4456 48.904 12.1746 48.9371 11.9099ZM50.9349 36.2228C51.9961 36.7212 52.66 37.0247 52.7297 37.043C52.9012 37.0882 53.137 36.9256 53.1916 36.7246C53.2059 36.6718 53.2413 35.9789 53.2703 35.1848L53.323 33.7408L53.5953 33.7192C53.7451 33.7074 53.8844 33.7046 53.9051 33.7131C53.9442 33.7291 53.9932 33.8272 54.9483 35.8006C55.2706 36.4665 55.7374 37.4305 55.9857 37.9428C57.6421 41.3606 58.0004 42.104 57.9952 42.1112C57.9919 42.1157 57.931 42.0968 57.8598 42.0693C57.7887 42.0418 57.5851 41.9658 57.4074 41.9003C57.2298 41.8348 56.7615 41.6616 56.3668 41.5153C55.8949 41.3404 55.606 41.2493 55.523 41.2493C55.3989 41.2493 55.3955 41.2522 55.3117 41.4278C55.2649 41.526 55.2133 41.6553 55.1971 41.715C55.1809 41.7748 55.0863 42.1101 54.987 42.4602C54.8877 42.8102 54.7662 43.2433 54.717 43.4226C54.6678 43.6019 54.5982 43.8453 54.5624 43.9634L54.4971 44.1782L54.1496 43.4511C53.9585 43.0512 53.7199 42.5564 53.6195 42.3515C53.519 42.1466 53.2219 41.5318 52.9591 40.9854C52.6963 40.439 52.3592 39.7404 52.21 39.4331C52.0608 39.1257 51.6837 38.3433 51.3719 37.6944C51.0601 37.0456 50.7555 36.4169 50.6951 36.2973C50.6347 36.1778 50.5885 36.0767 50.5923 36.0726C50.5961 36.0685 50.7503 36.1361 50.9349 36.2228Z" stroke="#EC6A2D" stroke-width="0.2" mask="url(#path-1-outside-1_1424_31879)"/>
</svg>
