<svg width="64" height="64" viewBox="0 0 64 64" fill="none" xmlns="http://www.w3.org/2000/svg">
<mask id="path-1-outside-1_1269_30142" maskUnits="userSpaceOnUse" x="9.5" y="1" width="45" height="62" fill="black">
<rect fill="white" x="9.5" y="1" width="45" height="62"/>
<path fill-rule="evenodd" clip-rule="evenodd" d="M45.1031 2.01363C44.845 2.03271 44.3345 2.15762 44.017 2.27934C43.6631 2.41502 43.155 2.72942 42.8643 2.99258C42.3656 3.44409 42.057 3.93237 41.8727 4.56172C41.7888 4.84788 41.7763 4.9494 41.7763 5.34553C41.7763 5.73846 41.7888 5.84237 41.8681 6.10629C41.9815 6.48383 42.0641 6.66786 42.2692 7.00075L42.4292 7.26039L41.8612 9.22245L41.2933 11.1845L41.3527 11.2927C41.42 11.4155 41.5579 11.4892 41.72 11.4892C41.819 11.4892 42.0641 11.3841 42.6862 11.0749L42.8299 11.0035L43.037 11.5114C43.2883 12.1277 43.3252 12.1718 43.5892 12.1718C43.7305 12.1718 43.8093 12.1547 43.8817 12.1084C43.9893 12.0393 43.9748 12.0713 44.7512 10.1998C45.4158 8.59807 45.3738 8.68432 45.4955 8.67371C45.5531 8.66867 45.6159 8.68232 45.6351 8.70405C45.6543 8.72577 45.9196 9.20771 46.2245 9.77505C47.1433 11.4842 47.3123 11.7752 47.4237 11.8391C47.5654 11.9205 47.7615 11.9145 47.8711 11.8255C47.9674 11.7472 47.9839 11.7083 48.225 10.9886C48.3145 10.7216 48.3937 10.487 48.4008 10.4672C48.4128 10.4345 49.3662 10.7423 49.66 10.8737C49.7874 10.9307 50.0005 10.8853 50.0828 10.7838C50.2033 10.6349 50.162 10.5292 49.6317 9.63003C49.354 9.15913 48.9624 8.49386 48.7616 8.15166L48.3966 7.52944L48.5651 7.3325C48.8911 6.9516 49.1684 6.36845 49.2609 5.8691C49.3173 5.56434 49.2863 4.80723 49.2071 4.55672C49.0643 4.10518 48.8948 3.77506 48.6371 3.4467C47.8403 2.43134 46.5469 1.90687 45.1031 2.01363ZM46.3421 2.71898C47.284 2.95487 48.0519 3.57027 48.3984 4.36707C48.5581 4.73438 48.6028 4.99773 48.5849 5.46689C48.5701 5.85362 48.5576 5.91952 48.4452 6.20298C48.091 7.09637 47.3124 7.7378 46.2957 7.97369C46.0735 8.02527 45.913 8.03901 45.5241 8.03983C45.0897 8.04071 44.9974 8.03146 44.7244 7.95955C43.6927 7.68784 42.9416 7.04713 42.6202 6.16469C42.0773 4.67443 43.0755 3.08372 44.7874 2.71067C45.1294 2.63616 45.1533 2.63428 45.6293 2.64468C45.9621 2.65196 46.1547 2.67205 46.3421 2.71898ZM43.5211 8.15154C43.8067 8.31746 44.4703 8.57665 44.6094 8.57665C44.6839 8.57665 44.6808 8.59522 44.5609 8.86988C44.4799 9.05565 44.0715 10.029 43.6753 10.981C43.6562 11.0269 43.6276 11.0575 43.6117 11.049C43.5959 11.0405 43.5331 10.9043 43.4723 10.7464C43.3238 10.3609 43.202 10.2732 42.8597 10.3055C42.822 10.309 42.6666 10.373 42.5144 10.4477C42.3623 10.5224 42.2294 10.5762 42.2191 10.5672C42.2087 10.5583 42.217 10.4925 42.2375 10.4209C42.2579 10.3494 42.4358 9.73421 42.6327 9.05389L42.9908 7.81699L43.0999 7.8936C43.1599 7.93574 43.3494 8.05178 43.5211 8.15154ZM48.4278 8.92561C48.7284 9.43458 48.9845 9.87847 48.9968 9.91203C49.019 9.9724 49.0171 9.97234 48.8326 9.90781C48.355 9.74079 48.2942 9.72514 48.1918 9.74286C48.002 9.77568 47.8652 9.92768 47.754 10.2292C47.6984 10.3799 47.6345 10.563 47.6119 10.636C47.5888 10.7109 47.5578 10.7572 47.5408 10.7422C47.5242 10.7275 47.4009 10.5108 47.2669 10.2605C47.1328 10.0102 46.8782 9.54068 46.7011 9.21714C46.5241 8.89357 46.392 8.61976 46.4076 8.6086C46.4233 8.59746 46.5465 8.55651 46.6816 8.51758C47.004 8.42465 47.4489 8.23524 47.6462 8.10694C47.733 8.05048 47.8214 8.00336 47.8426 8.00224C47.8638 8.00112 48.1271 8.41664 48.4278 8.92561ZM30.3709 10.136C29.0483 10.4083 28.0063 11.1474 27.4682 12.195C26.5281 14.0253 27.4308 16.1628 29.5115 17.0333C29.9932 17.2348 30.7112 17.3752 31.2591 17.3749C31.7909 17.3746 32.5543 17.2134 33.0511 16.9964C34.2421 16.4763 35.0615 15.5258 35.3149 14.3701C35.3855 14.0484 35.3864 13.362 35.3168 13.0472C35.2165 12.5937 34.9864 12.0885 34.7107 11.7168C34.1305 10.9342 33.2793 10.4044 32.2137 10.1626C31.9388 10.1002 31.776 10.0847 31.3004 10.0752C30.7841 10.065 30.6838 10.0715 30.3709 10.136ZM32.0508 10.8544C32.7613 11.0093 33.5421 11.4811 33.9547 12.005C34.1427 12.2435 34.3512 12.6351 34.444 12.9238C34.5725 13.3236 34.5956 13.883 34.5 14.2804C34.2099 15.4864 33.1828 16.377 31.8253 16.5997C30.5772 16.8045 29.2414 16.3197 28.5009 15.3932C27.8073 14.5254 27.7087 13.3697 28.2467 12.4135C28.4552 12.043 28.6605 11.8017 28.9993 11.5291C29.4589 11.1595 30.1364 10.8733 30.7392 10.7943C31.0894 10.7484 31.6913 10.776 32.0508 10.8544ZM41.4456 12.3761C41.3603 12.4116 41.3117 12.4688 40.0862 13.977C39.6455 14.5193 38.9905 15.3248 38.6307 15.767C38.2708 16.2092 37.9154 16.6461 37.8409 16.7379C37.7664 16.8297 37.4057 17.2734 37.0392 17.7239C36.6728 18.1744 36.2713 18.6692 36.1471 18.8235L35.9212 19.1039L30.9362 19.1117C25.3191 19.1205 25.826 19.0982 25.2362 19.3624C24.4518 19.7138 23.607 20.4305 23.2612 21.0379L23.1451 21.2418L23.1214 22.5016C23.0704 25.213 22.9793 33.8802 22.9989 34.1525C23.0261 34.5312 23.1235 34.8354 23.2997 35.0919C23.7724 35.7802 24.8375 36.0247 25.6969 35.6423L25.8986 35.5525L25.8992 41.2768C25.8997 46.2036 25.907 47.0306 25.9515 47.2123C26.067 47.6839 26.5003 48.2695 26.9186 48.5195L27.0686 48.6091L26.8081 48.6279C26.6647 48.6383 25.737 48.6485 24.7463 48.6507C22.779 48.655 22.7865 48.6544 22.6473 48.8317C22.5876 48.9077 22.5833 49.0531 22.5742 51.2562L22.5646 53.5999L21.8376 53.5984C21.4378 53.5976 18.8615 53.5791 16.1126 53.5573C13.0438 53.533 11.0695 53.5285 10.9977 53.5457C10.862 53.5781 10.6231 53.7549 10.5502 53.8768C10.5076 53.948 10.4999 54.3596 10.5 56.5489C10.5001 59.0621 10.5021 59.1396 10.5686 59.2339C10.7423 59.4804 11.1866 59.4822 11.3482 59.2371C11.3848 59.1816 11.3979 58.6713 11.4119 56.7653C11.4215 55.4443 11.4384 54.3556 11.4495 54.3461C11.4605 54.3366 14.0561 54.3493 17.2175 54.3744C21.3561 54.4072 22.9977 54.4108 23.0804 54.3872C23.1437 54.3691 23.2338 54.3148 23.2808 54.2666C23.475 54.0669 23.4724 54.0998 23.4905 51.7089C23.4996 50.4937 23.5155 49.4921 23.5258 49.4833C23.5425 49.4688 36.7273 49.3869 39.5139 49.384L40.6594 49.3828L40.6539 52.9752L40.6484 56.5676L40.7539 56.6993C40.8184 56.78 40.9204 56.8567 41.0169 56.8971C41.174 56.9629 41.1913 56.9634 46.5764 57.0422C49.5474 57.0857 52.1084 57.1289 52.2676 57.1382L52.557 57.1551V59.3984C52.557 61.2311 52.5658 61.6596 52.6051 61.7394C52.7683 62.0707 53.2766 62.0909 53.4394 61.7726C53.5028 61.6486 53.5052 61.5375 53.4961 59.1447C53.4872 56.8171 53.4823 56.6407 53.4246 56.5646C53.3332 56.4439 53.2163 56.3894 52.9886 56.3609C52.8766 56.3469 50.4883 56.3001 47.6813 56.2568C44.8743 56.2136 42.3527 56.1701 42.0778 56.1602L41.5779 56.1421L41.5778 52.5273C41.5777 48.9925 41.5761 48.9104 41.509 48.8151C41.4713 48.7616 41.3726 48.6865 41.2899 48.6483L41.1395 48.5788L38.4035 48.5883L35.6675 48.5977L35.8078 48.5147C36.3123 48.2162 36.5876 47.9072 36.8453 47.3501C36.9208 47.1869 36.923 47.1416 36.95 45.287C36.9957 42.1404 37.0522 37.1559 37.0893 33.0148C37.1086 30.8623 37.1394 27.9936 37.1579 26.64L37.1913 24.1789L38.0574 23.1055C38.5337 22.5151 39.0682 21.8546 39.2452 21.6376C39.4222 21.4207 39.6597 21.1272 39.773 20.9854C39.8863 20.8435 40.0789 20.6046 40.2009 20.4544C40.3229 20.3042 40.5525 20.0206 40.711 19.8242C40.8695 19.6277 41.1463 19.2864 41.3262 19.0657C41.5061 18.845 41.6898 18.6166 41.7344 18.5582C41.7791 18.4998 42.4564 17.6602 43.2397 16.6924C44.6379 14.9647 44.6638 14.93 44.6643 14.7856C44.6646 14.6574 44.6487 14.6246 44.541 14.5314C44.4275 14.4333 44.4041 14.4257 44.2589 14.4398C44.0683 14.4584 44.0099 14.5012 43.7728 14.7962C43.6722 14.9213 43.4242 15.2285 43.2217 15.4788C43.0192 15.7291 42.6665 16.166 42.4379 16.4497C42.2094 16.7333 40.7744 18.5082 39.2492 20.3937C37.7239 22.2793 36.4506 23.8649 36.4195 23.9172C36.3693 24.002 36.3605 24.3393 36.3395 26.9967C36.3265 28.638 36.2848 32.4179 36.2467 35.3964C36.2087 38.375 36.1678 42.0544 36.1559 43.5728C36.144 45.0913 36.123 46.514 36.1092 46.7344C36.0853 47.1189 36.0788 47.1444 35.9505 47.3631C35.5468 48.0511 34.6025 48.3263 33.8191 47.9842C33.392 47.7977 33.0486 47.4148 32.9509 47.0163C32.9201 46.8907 32.915 45.2159 32.9304 40.2355C32.9468 34.9159 32.942 33.601 32.9061 33.5165C32.8815 33.4587 32.8077 33.3801 32.7421 33.342C32.624 33.2733 32.6136 33.2727 31.5145 33.2757C30.9048 33.2774 30.3671 33.2881 30.3195 33.2996C30.2719 33.3111 30.2045 33.3626 30.1697 33.4142C30.1093 33.5037 30.106 33.8131 30.0977 40.2242C30.0889 46.9204 30.0887 46.9411 30.0161 47.1529C29.8368 47.6767 29.3146 48.1053 28.7412 48.1993C27.8613 48.3437 27.0137 47.8915 26.7902 47.1586C26.7511 47.0305 26.7391 45.074 26.721 35.9134C26.709 29.8138 26.6876 24.6404 26.6735 24.4169L26.6478 24.0105L26.5357 23.9239C26.3284 23.7637 25.9336 23.8299 25.8321 24.042C25.7976 24.114 25.7987 25.1616 25.8373 29.1483C25.8645 31.9586 25.8728 34.2361 25.8561 34.3281C25.7472 34.9287 25.0544 35.2728 24.4334 35.0346C24.2008 34.9454 23.9163 34.6843 23.8622 34.5103C23.8368 34.4288 23.8244 33.9728 23.8262 33.1847C23.831 31.1168 23.9035 23.4455 23.9282 22.3949L23.9518 21.3924L24.0746 21.2129C24.1421 21.1141 24.3789 20.8744 24.6007 20.6802C25.0456 20.2908 25.4606 20.0327 25.841 19.9088L26.0756 19.8325H31.1746C35.9803 19.8325 36.2776 19.8294 36.3447 19.7794C36.4081 19.7321 36.6797 19.4062 37.4384 18.4672C37.9237 17.8666 39.5404 15.879 40.0172 15.2968C40.2905 14.963 40.8521 14.2736 41.2652 13.7646C42.0157 12.8401 42.0164 12.8391 42.0164 12.6775C42.0164 12.5331 42.0041 12.5062 41.9018 12.4272C41.7784 12.3318 41.5997 12.3118 41.4456 12.3761ZM32.1389 40.5162C32.1262 46.7551 32.1286 47.0709 32.1889 47.2563C32.343 47.7291 32.6999 48.1803 33.1234 48.4375L33.3654 48.5845L32.71 48.6043C32.3495 48.6152 31.5282 48.6242 30.8848 48.6242L29.715 48.6243L29.9278 48.486C30.3187 48.2318 30.6325 47.8155 30.805 47.3225L30.8961 47.0618L30.9061 40.5162L30.9161 33.9705H31.5342H32.1522L32.1389 40.5162Z"/>
</mask>
<path fill-rule="evenodd" clip-rule="evenodd" d="M45.1031 2.01363C44.845 2.03271 44.3345 2.15762 44.017 2.27934C43.6631 2.41502 43.155 2.72942 42.8643 2.99258C42.3656 3.44409 42.057 3.93237 41.8727 4.56172C41.7888 4.84788 41.7763 4.9494 41.7763 5.34553C41.7763 5.73846 41.7888 5.84237 41.8681 6.10629C41.9815 6.48383 42.0641 6.66786 42.2692 7.00075L42.4292 7.26039L41.8612 9.22245L41.2933 11.1845L41.3527 11.2927C41.42 11.4155 41.5579 11.4892 41.72 11.4892C41.819 11.4892 42.0641 11.3841 42.6862 11.0749L42.8299 11.0035L43.037 11.5114C43.2883 12.1277 43.3252 12.1718 43.5892 12.1718C43.7305 12.1718 43.8093 12.1547 43.8817 12.1084C43.9893 12.0393 43.9748 12.0713 44.7512 10.1998C45.4158 8.59807 45.3738 8.68432 45.4955 8.67371C45.5531 8.66867 45.6159 8.68232 45.6351 8.70405C45.6543 8.72577 45.9196 9.20771 46.2245 9.77505C47.1433 11.4842 47.3123 11.7752 47.4237 11.8391C47.5654 11.9205 47.7615 11.9145 47.8711 11.8255C47.9674 11.7472 47.9839 11.7083 48.225 10.9886C48.3145 10.7216 48.3937 10.487 48.4008 10.4672C48.4128 10.4345 49.3662 10.7423 49.66 10.8737C49.7874 10.9307 50.0005 10.8853 50.0828 10.7838C50.2033 10.6349 50.162 10.5292 49.6317 9.63003C49.354 9.15913 48.9624 8.49386 48.7616 8.15166L48.3966 7.52944L48.5651 7.3325C48.8911 6.9516 49.1684 6.36845 49.2609 5.8691C49.3173 5.56434 49.2863 4.80723 49.2071 4.55672C49.0643 4.10518 48.8948 3.77506 48.6371 3.4467C47.8403 2.43134 46.5469 1.90687 45.1031 2.01363ZM46.3421 2.71898C47.284 2.95487 48.0519 3.57027 48.3984 4.36707C48.5581 4.73438 48.6028 4.99773 48.5849 5.46689C48.5701 5.85362 48.5576 5.91952 48.4452 6.20298C48.091 7.09637 47.3124 7.7378 46.2957 7.97369C46.0735 8.02527 45.913 8.03901 45.5241 8.03983C45.0897 8.04071 44.9974 8.03146 44.7244 7.95955C43.6927 7.68784 42.9416 7.04713 42.6202 6.16469C42.0773 4.67443 43.0755 3.08372 44.7874 2.71067C45.1294 2.63616 45.1533 2.63428 45.6293 2.64468C45.9621 2.65196 46.1547 2.67205 46.3421 2.71898ZM43.5211 8.15154C43.8067 8.31746 44.4703 8.57665 44.6094 8.57665C44.6839 8.57665 44.6808 8.59522 44.5609 8.86988C44.4799 9.05565 44.0715 10.029 43.6753 10.981C43.6562 11.0269 43.6276 11.0575 43.6117 11.049C43.5959 11.0405 43.5331 10.9043 43.4723 10.7464C43.3238 10.3609 43.202 10.2732 42.8597 10.3055C42.822 10.309 42.6666 10.373 42.5144 10.4477C42.3623 10.5224 42.2294 10.5762 42.2191 10.5672C42.2087 10.5583 42.217 10.4925 42.2375 10.4209C42.2579 10.3494 42.4358 9.73421 42.6327 9.05389L42.9908 7.81699L43.0999 7.8936C43.1599 7.93574 43.3494 8.05178 43.5211 8.15154ZM48.4278 8.92561C48.7284 9.43458 48.9845 9.87847 48.9968 9.91203C49.019 9.9724 49.0171 9.97234 48.8326 9.90781C48.355 9.74079 48.2942 9.72514 48.1918 9.74286C48.002 9.77568 47.8652 9.92768 47.754 10.2292C47.6984 10.3799 47.6345 10.563 47.6119 10.636C47.5888 10.7109 47.5578 10.7572 47.5408 10.7422C47.5242 10.7275 47.4009 10.5108 47.2669 10.2605C47.1328 10.0102 46.8782 9.54068 46.7011 9.21714C46.5241 8.89357 46.392 8.61976 46.4076 8.6086C46.4233 8.59746 46.5465 8.55651 46.6816 8.51758C47.004 8.42465 47.4489 8.23524 47.6462 8.10694C47.733 8.05048 47.8214 8.00336 47.8426 8.00224C47.8638 8.00112 48.1271 8.41664 48.4278 8.92561ZM30.3709 10.136C29.0483 10.4083 28.0063 11.1474 27.4682 12.195C26.5281 14.0253 27.4308 16.1628 29.5115 17.0333C29.9932 17.2348 30.7112 17.3752 31.2591 17.3749C31.7909 17.3746 32.5543 17.2134 33.0511 16.9964C34.2421 16.4763 35.0615 15.5258 35.3149 14.3701C35.3855 14.0484 35.3864 13.362 35.3168 13.0472C35.2165 12.5937 34.9864 12.0885 34.7107 11.7168C34.1305 10.9342 33.2793 10.4044 32.2137 10.1626C31.9388 10.1002 31.776 10.0847 31.3004 10.0752C30.7841 10.065 30.6838 10.0715 30.3709 10.136ZM32.0508 10.8544C32.7613 11.0093 33.5421 11.4811 33.9547 12.005C34.1427 12.2435 34.3512 12.6351 34.444 12.9238C34.5725 13.3236 34.5956 13.883 34.5 14.2804C34.2099 15.4864 33.1828 16.377 31.8253 16.5997C30.5772 16.8045 29.2414 16.3197 28.5009 15.3932C27.8073 14.5254 27.7087 13.3697 28.2467 12.4135C28.4552 12.043 28.6605 11.8017 28.9993 11.5291C29.4589 11.1595 30.1364 10.8733 30.7392 10.7943C31.0894 10.7484 31.6913 10.776 32.0508 10.8544ZM41.4456 12.3761C41.3603 12.4116 41.3117 12.4688 40.0862 13.977C39.6455 14.5193 38.9905 15.3248 38.6307 15.767C38.2708 16.2092 37.9154 16.6461 37.8409 16.7379C37.7664 16.8297 37.4057 17.2734 37.0392 17.7239C36.6728 18.1744 36.2713 18.6692 36.1471 18.8235L35.9212 19.1039L30.9362 19.1117C25.3191 19.1205 25.826 19.0982 25.2362 19.3624C24.4518 19.7138 23.607 20.4305 23.2612 21.0379L23.1451 21.2418L23.1214 22.5016C23.0704 25.213 22.9793 33.8802 22.9989 34.1525C23.0261 34.5312 23.1235 34.8354 23.2997 35.0919C23.7724 35.7802 24.8375 36.0247 25.6969 35.6423L25.8986 35.5525L25.8992 41.2768C25.8997 46.2036 25.907 47.0306 25.9515 47.2123C26.067 47.6839 26.5003 48.2695 26.9186 48.5195L27.0686 48.6091L26.8081 48.6279C26.6647 48.6383 25.737 48.6485 24.7463 48.6507C22.779 48.655 22.7865 48.6544 22.6473 48.8317C22.5876 48.9077 22.5833 49.0531 22.5742 51.2562L22.5646 53.5999L21.8376 53.5984C21.4378 53.5976 18.8615 53.5791 16.1126 53.5573C13.0438 53.533 11.0695 53.5285 10.9977 53.5457C10.862 53.5781 10.6231 53.7549 10.5502 53.8768C10.5076 53.948 10.4999 54.3596 10.5 56.5489C10.5001 59.0621 10.5021 59.1396 10.5686 59.2339C10.7423 59.4804 11.1866 59.4822 11.3482 59.2371C11.3848 59.1816 11.3979 58.6713 11.4119 56.7653C11.4215 55.4443 11.4384 54.3556 11.4495 54.3461C11.4605 54.3366 14.0561 54.3493 17.2175 54.3744C21.3561 54.4072 22.9977 54.4108 23.0804 54.3872C23.1437 54.3691 23.2338 54.3148 23.2808 54.2666C23.475 54.0669 23.4724 54.0998 23.4905 51.7089C23.4996 50.4937 23.5155 49.4921 23.5258 49.4833C23.5425 49.4688 36.7273 49.3869 39.5139 49.384L40.6594 49.3828L40.6539 52.9752L40.6484 56.5676L40.7539 56.6993C40.8184 56.78 40.9204 56.8567 41.0169 56.8971C41.174 56.9629 41.1913 56.9634 46.5764 57.0422C49.5474 57.0857 52.1084 57.1289 52.2676 57.1382L52.557 57.1551V59.3984C52.557 61.2311 52.5658 61.6596 52.6051 61.7394C52.7683 62.0707 53.2766 62.0909 53.4394 61.7726C53.5028 61.6486 53.5052 61.5375 53.4961 59.1447C53.4872 56.8171 53.4823 56.6407 53.4246 56.5646C53.3332 56.4439 53.2163 56.3894 52.9886 56.3609C52.8766 56.3469 50.4883 56.3001 47.6813 56.2568C44.8743 56.2136 42.3527 56.1701 42.0778 56.1602L41.5779 56.1421L41.5778 52.5273C41.5777 48.9925 41.5761 48.9104 41.509 48.8151C41.4713 48.7616 41.3726 48.6865 41.2899 48.6483L41.1395 48.5788L38.4035 48.5883L35.6675 48.5977L35.8078 48.5147C36.3123 48.2162 36.5876 47.9072 36.8453 47.3501C36.9208 47.1869 36.923 47.1416 36.95 45.287C36.9957 42.1404 37.0522 37.1559 37.0893 33.0148C37.1086 30.8623 37.1394 27.9936 37.1579 26.64L37.1913 24.1789L38.0574 23.1055C38.5337 22.5151 39.0682 21.8546 39.2452 21.6376C39.4222 21.4207 39.6597 21.1272 39.773 20.9854C39.8863 20.8435 40.0789 20.6046 40.2009 20.4544C40.3229 20.3042 40.5525 20.0206 40.711 19.8242C40.8695 19.6277 41.1463 19.2864 41.3262 19.0657C41.5061 18.845 41.6898 18.6166 41.7344 18.5582C41.7791 18.4998 42.4564 17.6602 43.2397 16.6924C44.6379 14.9647 44.6638 14.93 44.6643 14.7856C44.6646 14.6574 44.6487 14.6246 44.541 14.5314C44.4275 14.4333 44.4041 14.4257 44.2589 14.4398C44.0683 14.4584 44.0099 14.5012 43.7728 14.7962C43.6722 14.9213 43.4242 15.2285 43.2217 15.4788C43.0192 15.7291 42.6665 16.166 42.4379 16.4497C42.2094 16.7333 40.7744 18.5082 39.2492 20.3937C37.7239 22.2793 36.4506 23.8649 36.4195 23.9172C36.3693 24.002 36.3605 24.3393 36.3395 26.9967C36.3265 28.638 36.2848 32.4179 36.2467 35.3964C36.2087 38.375 36.1678 42.0544 36.1559 43.5728C36.144 45.0913 36.123 46.514 36.1092 46.7344C36.0853 47.1189 36.0788 47.1444 35.9505 47.3631C35.5468 48.0511 34.6025 48.3263 33.8191 47.9842C33.392 47.7977 33.0486 47.4148 32.9509 47.0163C32.9201 46.8907 32.915 45.2159 32.9304 40.2355C32.9468 34.9159 32.942 33.601 32.9061 33.5165C32.8815 33.4587 32.8077 33.3801 32.7421 33.342C32.624 33.2733 32.6136 33.2727 31.5145 33.2757C30.9048 33.2774 30.3671 33.2881 30.3195 33.2996C30.2719 33.3111 30.2045 33.3626 30.1697 33.4142C30.1093 33.5037 30.106 33.8131 30.0977 40.2242C30.0889 46.9204 30.0887 46.9411 30.0161 47.1529C29.8368 47.6767 29.3146 48.1053 28.7412 48.1993C27.8613 48.3437 27.0137 47.8915 26.7902 47.1586C26.7511 47.0305 26.7391 45.074 26.721 35.9134C26.709 29.8138 26.6876 24.6404 26.6735 24.4169L26.6478 24.0105L26.5357 23.9239C26.3284 23.7637 25.9336 23.8299 25.8321 24.042C25.7976 24.114 25.7987 25.1616 25.8373 29.1483C25.8645 31.9586 25.8728 34.2361 25.8561 34.3281C25.7472 34.9287 25.0544 35.2728 24.4334 35.0346C24.2008 34.9454 23.9163 34.6843 23.8622 34.5103C23.8368 34.4288 23.8244 33.9728 23.8262 33.1847C23.831 31.1168 23.9035 23.4455 23.9282 22.3949L23.9518 21.3924L24.0746 21.2129C24.1421 21.1141 24.3789 20.8744 24.6007 20.6802C25.0456 20.2908 25.4606 20.0327 25.841 19.9088L26.0756 19.8325H31.1746C35.9803 19.8325 36.2776 19.8294 36.3447 19.7794C36.4081 19.7321 36.6797 19.4062 37.4384 18.4672C37.9237 17.8666 39.5404 15.879 40.0172 15.2968C40.2905 14.963 40.8521 14.2736 41.2652 13.7646C42.0157 12.8401 42.0164 12.8391 42.0164 12.6775C42.0164 12.5331 42.0041 12.5062 41.9018 12.4272C41.7784 12.3318 41.5997 12.3118 41.4456 12.3761ZM32.1389 40.5162C32.1262 46.7551 32.1286 47.0709 32.1889 47.2563C32.343 47.7291 32.6999 48.1803 33.1234 48.4375L33.3654 48.5845L32.71 48.6043C32.3495 48.6152 31.5282 48.6242 30.8848 48.6242L29.715 48.6243L29.9278 48.486C30.3187 48.2318 30.6325 47.8155 30.805 47.3225L30.8961 47.0618L30.9061 40.5162L30.9161 33.9705H31.5342H32.1522L32.1389 40.5162Z" fill="#EC6A2D"/>
<path fill-rule="evenodd" clip-rule="evenodd" d="M45.1031 2.01363C44.845 2.03271 44.3345 2.15762 44.017 2.27934C43.6631 2.41502 43.155 2.72942 42.8643 2.99258C42.3656 3.44409 42.057 3.93237 41.8727 4.56172C41.7888 4.84788 41.7763 4.9494 41.7763 5.34553C41.7763 5.73846 41.7888 5.84237 41.8681 6.10629C41.9815 6.48383 42.0641 6.66786 42.2692 7.00075L42.4292 7.26039L41.8612 9.22245L41.2933 11.1845L41.3527 11.2927C41.42 11.4155 41.5579 11.4892 41.72 11.4892C41.819 11.4892 42.0641 11.3841 42.6862 11.0749L42.8299 11.0035L43.037 11.5114C43.2883 12.1277 43.3252 12.1718 43.5892 12.1718C43.7305 12.1718 43.8093 12.1547 43.8817 12.1084C43.9893 12.0393 43.9748 12.0713 44.7512 10.1998C45.4158 8.59807 45.3738 8.68432 45.4955 8.67371C45.5531 8.66867 45.6159 8.68232 45.6351 8.70405C45.6543 8.72577 45.9196 9.20771 46.2245 9.77505C47.1433 11.4842 47.3123 11.7752 47.4237 11.8391C47.5654 11.9205 47.7615 11.9145 47.8711 11.8255C47.9674 11.7472 47.9839 11.7083 48.225 10.9886C48.3145 10.7216 48.3937 10.487 48.4008 10.4672C48.4128 10.4345 49.3662 10.7423 49.66 10.8737C49.7874 10.9307 50.0005 10.8853 50.0828 10.7838C50.2033 10.6349 50.162 10.5292 49.6317 9.63003C49.354 9.15913 48.9624 8.49386 48.7616 8.15166L48.3966 7.52944L48.5651 7.3325C48.8911 6.9516 49.1684 6.36845 49.2609 5.8691C49.3173 5.56434 49.2863 4.80723 49.2071 4.55672C49.0643 4.10518 48.8948 3.77506 48.6371 3.4467C47.8403 2.43134 46.5469 1.90687 45.1031 2.01363ZM46.3421 2.71898C47.284 2.95487 48.0519 3.57027 48.3984 4.36707C48.5581 4.73438 48.6028 4.99773 48.5849 5.46689C48.5701 5.85362 48.5576 5.91952 48.4452 6.20298C48.091 7.09637 47.3124 7.7378 46.2957 7.97369C46.0735 8.02527 45.913 8.03901 45.5241 8.03983C45.0897 8.04071 44.9974 8.03146 44.7244 7.95955C43.6927 7.68784 42.9416 7.04713 42.6202 6.16469C42.0773 4.67443 43.0755 3.08372 44.7874 2.71067C45.1294 2.63616 45.1533 2.63428 45.6293 2.64468C45.9621 2.65196 46.1547 2.67205 46.3421 2.71898ZM43.5211 8.15154C43.8067 8.31746 44.4703 8.57665 44.6094 8.57665C44.6839 8.57665 44.6808 8.59522 44.5609 8.86988C44.4799 9.05565 44.0715 10.029 43.6753 10.981C43.6562 11.0269 43.6276 11.0575 43.6117 11.049C43.5959 11.0405 43.5331 10.9043 43.4723 10.7464C43.3238 10.3609 43.202 10.2732 42.8597 10.3055C42.822 10.309 42.6666 10.373 42.5144 10.4477C42.3623 10.5224 42.2294 10.5762 42.2191 10.5672C42.2087 10.5583 42.217 10.4925 42.2375 10.4209C42.2579 10.3494 42.4358 9.73421 42.6327 9.05389L42.9908 7.81699L43.0999 7.8936C43.1599 7.93574 43.3494 8.05178 43.5211 8.15154ZM48.4278 8.92561C48.7284 9.43458 48.9845 9.87847 48.9968 9.91203C49.019 9.9724 49.0171 9.97234 48.8326 9.90781C48.355 9.74079 48.2942 9.72514 48.1918 9.74286C48.002 9.77568 47.8652 9.92768 47.754 10.2292C47.6984 10.3799 47.6345 10.563 47.6119 10.636C47.5888 10.7109 47.5578 10.7572 47.5408 10.7422C47.5242 10.7275 47.4009 10.5108 47.2669 10.2605C47.1328 10.0102 46.8782 9.54068 46.7011 9.21714C46.5241 8.89357 46.392 8.61976 46.4076 8.6086C46.4233 8.59746 46.5465 8.55651 46.6816 8.51758C47.004 8.42465 47.4489 8.23524 47.6462 8.10694C47.733 8.05048 47.8214 8.00336 47.8426 8.00224C47.8638 8.00112 48.1271 8.41664 48.4278 8.92561ZM30.3709 10.136C29.0483 10.4083 28.0063 11.1474 27.4682 12.195C26.5281 14.0253 27.4308 16.1628 29.5115 17.0333C29.9932 17.2348 30.7112 17.3752 31.2591 17.3749C31.7909 17.3746 32.5543 17.2134 33.0511 16.9964C34.2421 16.4763 35.0615 15.5258 35.3149 14.3701C35.3855 14.0484 35.3864 13.362 35.3168 13.0472C35.2165 12.5937 34.9864 12.0885 34.7107 11.7168C34.1305 10.9342 33.2793 10.4044 32.2137 10.1626C31.9388 10.1002 31.776 10.0847 31.3004 10.0752C30.7841 10.065 30.6838 10.0715 30.3709 10.136ZM32.0508 10.8544C32.7613 11.0093 33.5421 11.4811 33.9547 12.005C34.1427 12.2435 34.3512 12.6351 34.444 12.9238C34.5725 13.3236 34.5956 13.883 34.5 14.2804C34.2099 15.4864 33.1828 16.377 31.8253 16.5997C30.5772 16.8045 29.2414 16.3197 28.5009 15.3932C27.8073 14.5254 27.7087 13.3697 28.2467 12.4135C28.4552 12.043 28.6605 11.8017 28.9993 11.5291C29.4589 11.1595 30.1364 10.8733 30.7392 10.7943C31.0894 10.7484 31.6913 10.776 32.0508 10.8544ZM41.4456 12.3761C41.3603 12.4116 41.3117 12.4688 40.0862 13.977C39.6455 14.5193 38.9905 15.3248 38.6307 15.767C38.2708 16.2092 37.9154 16.6461 37.8409 16.7379C37.7664 16.8297 37.4057 17.2734 37.0392 17.7239C36.6728 18.1744 36.2713 18.6692 36.1471 18.8235L35.9212 19.1039L30.9362 19.1117C25.3191 19.1205 25.826 19.0982 25.2362 19.3624C24.4518 19.7138 23.607 20.4305 23.2612 21.0379L23.1451 21.2418L23.1214 22.5016C23.0704 25.213 22.9793 33.8802 22.9989 34.1525C23.0261 34.5312 23.1235 34.8354 23.2997 35.0919C23.7724 35.7802 24.8375 36.0247 25.6969 35.6423L25.8986 35.5525L25.8992 41.2768C25.8997 46.2036 25.907 47.0306 25.9515 47.2123C26.067 47.6839 26.5003 48.2695 26.9186 48.5195L27.0686 48.6091L26.8081 48.6279C26.6647 48.6383 25.737 48.6485 24.7463 48.6507C22.779 48.655 22.7865 48.6544 22.6473 48.8317C22.5876 48.9077 22.5833 49.0531 22.5742 51.2562L22.5646 53.5999L21.8376 53.5984C21.4378 53.5976 18.8615 53.5791 16.1126 53.5573C13.0438 53.533 11.0695 53.5285 10.9977 53.5457C10.862 53.5781 10.6231 53.7549 10.5502 53.8768C10.5076 53.948 10.4999 54.3596 10.5 56.5489C10.5001 59.0621 10.5021 59.1396 10.5686 59.2339C10.7423 59.4804 11.1866 59.4822 11.3482 59.2371C11.3848 59.1816 11.3979 58.6713 11.4119 56.7653C11.4215 55.4443 11.4384 54.3556 11.4495 54.3461C11.4605 54.3366 14.0561 54.3493 17.2175 54.3744C21.3561 54.4072 22.9977 54.4108 23.0804 54.3872C23.1437 54.3691 23.2338 54.3148 23.2808 54.2666C23.475 54.0669 23.4724 54.0998 23.4905 51.7089C23.4996 50.4937 23.5155 49.4921 23.5258 49.4833C23.5425 49.4688 36.7273 49.3869 39.5139 49.384L40.6594 49.3828L40.6539 52.9752L40.6484 56.5676L40.7539 56.6993C40.8184 56.78 40.9204 56.8567 41.0169 56.8971C41.174 56.9629 41.1913 56.9634 46.5764 57.0422C49.5474 57.0857 52.1084 57.1289 52.2676 57.1382L52.557 57.1551V59.3984C52.557 61.2311 52.5658 61.6596 52.6051 61.7394C52.7683 62.0707 53.2766 62.0909 53.4394 61.7726C53.5028 61.6486 53.5052 61.5375 53.4961 59.1447C53.4872 56.8171 53.4823 56.6407 53.4246 56.5646C53.3332 56.4439 53.2163 56.3894 52.9886 56.3609C52.8766 56.3469 50.4883 56.3001 47.6813 56.2568C44.8743 56.2136 42.3527 56.1701 42.0778 56.1602L41.5779 56.1421L41.5778 52.5273C41.5777 48.9925 41.5761 48.9104 41.509 48.8151C41.4713 48.7616 41.3726 48.6865 41.2899 48.6483L41.1395 48.5788L38.4035 48.5883L35.6675 48.5977L35.8078 48.5147C36.3123 48.2162 36.5876 47.9072 36.8453 47.3501C36.9208 47.1869 36.923 47.1416 36.95 45.287C36.9957 42.1404 37.0522 37.1559 37.0893 33.0148C37.1086 30.8623 37.1394 27.9936 37.1579 26.64L37.1913 24.1789L38.0574 23.1055C38.5337 22.5151 39.0682 21.8546 39.2452 21.6376C39.4222 21.4207 39.6597 21.1272 39.773 20.9854C39.8863 20.8435 40.0789 20.6046 40.2009 20.4544C40.3229 20.3042 40.5525 20.0206 40.711 19.8242C40.8695 19.6277 41.1463 19.2864 41.3262 19.0657C41.5061 18.845 41.6898 18.6166 41.7344 18.5582C41.7791 18.4998 42.4564 17.6602 43.2397 16.6924C44.6379 14.9647 44.6638 14.93 44.6643 14.7856C44.6646 14.6574 44.6487 14.6246 44.541 14.5314C44.4275 14.4333 44.4041 14.4257 44.2589 14.4398C44.0683 14.4584 44.0099 14.5012 43.7728 14.7962C43.6722 14.9213 43.4242 15.2285 43.2217 15.4788C43.0192 15.7291 42.6665 16.166 42.4379 16.4497C42.2094 16.7333 40.7744 18.5082 39.2492 20.3937C37.7239 22.2793 36.4506 23.8649 36.4195 23.9172C36.3693 24.002 36.3605 24.3393 36.3395 26.9967C36.3265 28.638 36.2848 32.4179 36.2467 35.3964C36.2087 38.375 36.1678 42.0544 36.1559 43.5728C36.144 45.0913 36.123 46.514 36.1092 46.7344C36.0853 47.1189 36.0788 47.1444 35.9505 47.3631C35.5468 48.0511 34.6025 48.3263 33.8191 47.9842C33.392 47.7977 33.0486 47.4148 32.9509 47.0163C32.9201 46.8907 32.915 45.2159 32.9304 40.2355C32.9468 34.9159 32.942 33.601 32.9061 33.5165C32.8815 33.4587 32.8077 33.3801 32.7421 33.342C32.624 33.2733 32.6136 33.2727 31.5145 33.2757C30.9048 33.2774 30.3671 33.2881 30.3195 33.2996C30.2719 33.3111 30.2045 33.3626 30.1697 33.4142C30.1093 33.5037 30.106 33.8131 30.0977 40.2242C30.0889 46.9204 30.0887 46.9411 30.0161 47.1529C29.8368 47.6767 29.3146 48.1053 28.7412 48.1993C27.8613 48.3437 27.0137 47.8915 26.7902 47.1586C26.7511 47.0305 26.7391 45.074 26.721 35.9134C26.709 29.8138 26.6876 24.6404 26.6735 24.4169L26.6478 24.0105L26.5357 23.9239C26.3284 23.7637 25.9336 23.8299 25.8321 24.042C25.7976 24.114 25.7987 25.1616 25.8373 29.1483C25.8645 31.9586 25.8728 34.2361 25.8561 34.3281C25.7472 34.9287 25.0544 35.2728 24.4334 35.0346C24.2008 34.9454 23.9163 34.6843 23.8622 34.5103C23.8368 34.4288 23.8244 33.9728 23.8262 33.1847C23.831 31.1168 23.9035 23.4455 23.9282 22.3949L23.9518 21.3924L24.0746 21.2129C24.1421 21.1141 24.3789 20.8744 24.6007 20.6802C25.0456 20.2908 25.4606 20.0327 25.841 19.9088L26.0756 19.8325H31.1746C35.9803 19.8325 36.2776 19.8294 36.3447 19.7794C36.4081 19.7321 36.6797 19.4062 37.4384 18.4672C37.9237 17.8666 39.5404 15.879 40.0172 15.2968C40.2905 14.963 40.8521 14.2736 41.2652 13.7646C42.0157 12.8401 42.0164 12.8391 42.0164 12.6775C42.0164 12.5331 42.0041 12.5062 41.9018 12.4272C41.7784 12.3318 41.5997 12.3118 41.4456 12.3761ZM32.1389 40.5162C32.1262 46.7551 32.1286 47.0709 32.1889 47.2563C32.343 47.7291 32.6999 48.1803 33.1234 48.4375L33.3654 48.5845L32.71 48.6043C32.3495 48.6152 31.5282 48.6242 30.8848 48.6242L29.715 48.6243L29.9278 48.486C30.3187 48.2318 30.6325 47.8155 30.805 47.3225L30.8961 47.0618L30.9061 40.5162L30.9161 33.9705H31.5342H32.1522L32.1389 40.5162Z" stroke="#EC6A2D" stroke-width="0.2" mask="url(#path-1-outside-1_1269_30142)"/>
</svg>
