<svg width="64" height="64" viewBox="0 0 64 64" fill="none" xmlns="http://www.w3.org/2000/svg">
<mask id="path-1-outside-1_1424_31882" maskUnits="userSpaceOnUse" x="6.5" y="4.5" width="51" height="55" fill="black">
<rect fill="white" x="6.5" y="4.5" width="51" height="55"/>
<path fill-rule="evenodd" clip-rule="evenodd" d="M7.55426 53.0648C7.91021 54.5884 8.84283 56.0147 10.1151 56.9812C10.9992 57.6528 12.0422 58.1145 13.0877 58.2969C13.4214 58.3551 13.5961 58.3577 17.92 58.3696C27.4057 58.3957 42.2412 58.4689 43.3851 58.4953C44.0922 58.5116 44.2218 58.493 44.5995 58.3218C44.9289 58.1724 45.1553 58.0237 45.4888 57.7376C45.9708 57.324 46.3187 56.8423 46.6014 56.1967C46.8444 55.6418 46.965 55.0991 46.9905 54.4455C46.9983 54.2462 47.0182 50.2993 47.0348 45.6746C47.0514 41.0499 47.0725 37.2212 47.0816 37.1665C47.0928 37.0995 47.2371 36.8702 47.5225 36.4654C47.886 35.9501 47.9514 35.8708 47.9789 35.9122C47.9965 35.9388 48.4248 36.8861 48.9307 38.0173C49.4366 39.1484 49.9307 40.2505 50.0288 40.4664C50.1269 40.6823 50.4194 41.3344 50.6786 41.9156C50.9379 42.4968 51.2363 43.1626 51.3417 43.3951C51.4471 43.6275 51.6441 44.0691 51.7795 44.3763C52.1161 45.1397 52.1551 45.2072 52.2961 45.2684C52.3896 45.3091 52.4286 45.3121 52.5021 45.2845C52.6883 45.2146 52.7105 45.1598 52.9857 44.0895C53.1266 43.5415 53.2639 43.0116 53.2907 42.912C53.3175 42.8123 53.3774 42.5814 53.4236 42.3987C53.5458 41.9159 53.5462 41.9147 53.5861 41.9256C53.6061 41.931 53.8075 42.0094 54.0336 42.0998C54.2597 42.1902 54.5939 42.3238 54.7763 42.3967C54.9586 42.4696 55.2808 42.6006 55.4924 42.6878C55.8238 42.8245 55.9044 42.8466 56.0758 42.848C56.2981 42.8498 56.3942 42.8011 56.4618 42.6524C56.5556 42.4458 56.5622 42.463 55.4393 39.9833C55.3265 39.7342 55.0967 39.2247 54.9288 38.8511C54.7607 38.4775 54.3758 37.6215 54.0733 36.949C53.7709 36.2764 53.3738 35.3933 53.191 34.9864C53.0082 34.5796 52.7958 34.1083 52.7191 33.9391L52.5795 33.6314L52.6502 33.616C52.689 33.6075 52.9476 33.5923 53.2247 33.5822C53.8372 33.56 53.9748 33.5336 54.07 33.4205C54.1456 33.3306 54.1928 33.1852 54.1928 33.0417C54.1928 32.9442 54.0526 32.5338 53.6114 31.3403C53.4503 30.9041 53.3113 30.5154 53.3028 30.4765C53.2881 30.41 53.3441 30.3725 54.2338 29.853C54.7544 29.549 55.214 29.2681 55.255 29.2288C55.341 29.1465 55.3976 28.98 55.3736 28.8805C55.3049 28.5968 55.2596 28.5391 54.4861 27.7515C54.0695 27.3273 53.7176 26.9624 53.704 26.9406C53.6864 26.9124 53.8529 26.601 54.2832 25.8577C54.9353 24.731 54.957 24.6795 54.8691 24.4687C54.792 24.2836 54.6419 24.1419 54.2706 23.9035C53.9173 23.6767 52.7832 22.9366 52.7637 22.9201C52.7507 22.9091 52.7761 22.8485 53.2278 21.8141C53.4364 21.3362 53.6148 20.8986 53.6242 20.8417C53.6566 20.645 53.5079 20.4309 53.2452 20.2962C53.1829 20.2642 52.8306 20.2317 51.9473 20.1763C51.2805 20.1344 50.7296 20.0942 50.7231 20.0868C50.7166 20.0794 50.7249 19.5367 50.7415 18.8808C50.7688 17.8045 50.7676 17.6765 50.7291 17.567C50.668 17.3931 50.5566 17.3238 50.3379 17.3238C50.1228 17.3238 50.119 17.3254 48.7985 17.9708C48.2312 18.248 47.7579 18.4638 47.7468 18.4503C47.7356 18.4369 47.5999 18.2381 47.4453 18.0087L47.164 17.5917L47.1709 15.7896L47.1777 13.9876L48.5568 13.9652C49.3154 13.9528 51.0996 13.9325 52.5219 13.9198C55.343 13.8948 55.198 13.9051 55.3171 13.7219C55.4246 13.5565 55.4167 13.0922 55.2904 12.1609C55.001 10.0274 54.2847 8.20071 53.293 7.06707C52.7258 6.41863 52.1212 6.02826 51.4607 5.884C51.2403 5.83591 50.9829 5.8164 50.2223 5.7902C49.6941 5.77199 49.1272 5.74428 48.9625 5.72854C48.6102 5.69494 45.6303 5.55971 44.7111 5.53561C42.9518 5.48945 38.9459 5.4883 30.0445 5.53139C24.6618 5.55744 20.0072 5.58344 19.7009 5.58918C19.104 5.60038 18.7507 5.66046 18.2289 5.8396C17.8575 5.9671 17.2254 6.27488 17.1378 6.37095C17.118 6.39272 17.0143 6.46923 16.9074 6.54094C16.2678 6.97012 15.6236 7.67943 15.2003 8.42057C14.9631 8.83583 14.7437 9.44174 14.6434 9.95815L14.5821 10.2739L14.5904 31.3306L14.5986 52.3873L11.4873 52.363C7.87629 52.3348 8.29619 52.3349 7.90408 52.3619C7.61293 52.382 7.58839 52.3885 7.54935 52.4563C7.48201 52.5733 7.48352 52.7621 7.55426 53.0648ZM9.45676 53.1446C12.0215 53.189 12.6286 53.1955 14.0252 53.1934C15.7886 53.1908 35.235 53.3046 37.6389 53.3316L39.3455 53.3508L39.3288 53.4778C39.3082 53.6339 39.3546 54.2187 39.4103 54.5053C39.6211 55.5903 40.1223 56.643 40.7903 57.4034L41.0224 57.6676L38.1592 57.6487C32.585 57.6118 17.4747 57.5652 15.7359 57.5796C14.7658 57.5876 13.8289 57.5817 13.6539 57.5665C12.7985 57.4924 12.0702 57.2658 11.2934 56.8321C10.1069 56.1698 9.23647 55.2562 8.64551 54.053C8.53722 53.8325 8.31287 53.238 8.31085 53.1661C8.30987 53.1313 8.49298 53.1279 9.45676 53.1446ZM15.319 10.1531C15.4413 9.57866 15.5851 9.1982 15.856 8.73258C16.2738 8.0143 16.9446 7.36815 17.7043 6.95231C18.1123 6.72895 18.7291 6.50077 19.0776 6.44426C19.4631 6.38176 20.6655 6.3676 27.379 6.34646C30.4788 6.33671 33.0567 6.32343 33.1078 6.317C33.4866 6.26914 44.1109 6.33484 45.2416 6.39205C45.5771 6.40902 46.2556 6.43701 46.7493 6.45425C47.5622 6.48263 48.2165 6.5172 48.8328 6.56442L49.0557 6.58148L48.9654 6.65799C48.7777 6.81701 48.2578 7.44988 48.0775 7.73894C47.5993 8.50553 47.2959 9.23576 46.909 10.5514C46.7738 11.0109 46.5366 12.3713 46.5124 12.8251C46.5067 12.9331 46.4948 13.8149 46.4861 14.7847L46.4701 16.548L46.3702 16.4235C46.2592 16.2853 46.1721 16.2369 46.0342 16.2369C45.8313 16.2369 45.8487 16.2158 44.9637 17.5352C44.6239 18.0417 44.3416 18.4616 44.3364 18.4684C44.3312 18.4752 43.9957 18.3205 43.5908 18.1248C43.1859 17.929 42.6595 17.6746 42.4211 17.5594C42.0471 17.3786 41.9611 17.3482 41.7956 17.3379C41.5618 17.3235 41.4505 17.3794 41.3725 17.5505C41.321 17.6634 41.3205 17.6931 41.3498 18.8754C41.3684 19.6248 41.3704 20.0915 41.355 20.1023C41.3414 20.1119 40.8199 20.1503 40.1961 20.1877C39.5723 20.2251 39.0105 20.2689 38.9476 20.2851C38.7905 20.3257 38.5577 20.5078 38.5068 20.6298C38.4529 20.7592 38.4544 20.8232 38.5156 21.0067L38.5661 21.1578L35.3529 21.1656C33.5856 21.1699 28.7704 21.1769 24.6523 21.1813C18.3923 21.1879 17.1506 21.196 17.078 21.2305C16.945 21.2938 16.8763 21.4131 16.8763 21.581C16.8763 21.7491 16.945 21.8682 17.0788 21.9318C17.1527 21.967 18.8605 21.9735 28.0482 21.9735L38.9301 21.9735L39.1353 22.4417C39.2481 22.6992 39.3404 22.9154 39.3404 22.922C39.3404 22.934 39.0531 23.1261 38.0806 23.7646C37.4001 24.2115 37.393 24.2169 37.2997 24.3714C37.2004 24.5357 37.1768 24.6527 37.2162 24.7862C37.2326 24.8417 37.435 25.2131 37.6662 25.6117C37.8973 26.0102 38.0843 26.3395 38.0818 26.3433C38.0792 26.3472 38.0421 26.339 37.9993 26.3251C37.9565 26.3112 36.8037 26.3102 35.4374 26.3229C33.1956 26.3438 32.9442 26.351 32.8597 26.3966C32.6124 26.5302 32.6034 26.8865 32.8425 27.0709L32.9354 27.1425L35.4152 27.122C36.7791 27.1107 37.9375 27.0891 37.9895 27.074C38.1098 27.039 38.195 26.9358 38.2369 26.7743L38.2698 26.6472L38.3534 26.7936C38.4182 26.907 38.4298 26.9475 38.4047 26.9737C38.3869 26.9923 38.0442 27.3435 37.643 27.7542C37.0246 28.3872 36.9006 28.5283 36.8275 28.6817C36.7314 28.8834 36.7209 28.9955 36.7839 29.1467C36.8374 29.275 36.8151 29.2602 37.895 29.8845C38.391 30.1711 38.8057 30.4147 38.8167 30.4257C38.8277 30.4367 38.7043 30.8118 38.5425 31.2593C37.9513 32.8939 37.9353 32.9421 37.9351 33.0843C37.9348 33.2549 38.0025 33.4112 38.113 33.4952C38.2062 33.5661 38.3214 33.5799 39.1217 33.616L39.5528 33.6355L39.1979 34.4242C39.0027 34.858 38.655 35.6341 38.4252 36.1489C38.1954 36.6636 37.8494 37.4381 37.6563 37.8698C37.4631 38.3016 37.123 39.0624 36.9003 39.5606C36.6777 40.0588 36.3553 40.7789 36.184 41.1608C36.0127 41.5427 35.8406 41.9277 35.8015 42.0163L35.7303 42.1772L35.6666 42.099C35.6316 42.0559 35.5725 42.0075 35.5354 41.9915C35.4692 41.9628 30.9336 41.9277 21.332 41.8816C16.5814 41.8587 16.9327 41.8465 16.7991 42.0399C16.6732 42.222 16.7657 42.5426 16.9657 42.6177C17.0446 42.6472 19.0658 42.6665 26.2607 42.7059C35.0667 42.7543 35.4591 42.7541 35.5538 42.7027L35.6527 42.6491L35.7215 42.7422C35.8697 42.9427 36.1096 42.9333 36.6649 42.7055C37.1362 42.5121 37.7935 42.2476 38.2133 42.0823C38.3737 42.0192 38.5239 41.9586 38.5469 41.9478C38.5806 41.932 38.6024 41.9799 38.6588 42.1936C38.9278 43.2139 39.0124 43.5389 39.1802 44.1952C39.2842 44.602 39.3926 44.9928 39.421 45.0635C39.5454 45.3734 39.8801 45.3973 40.0388 45.1076C40.0727 45.0458 40.4502 44.2072 40.8778 43.2441C41.3053 42.281 41.7891 41.194 41.9529 40.8287C42.1167 40.4634 42.5403 39.5123 42.8942 38.7152C43.725 36.8442 44.1437 35.9122 44.1642 35.8879C44.1733 35.8773 44.5388 36.3719 44.9764 36.9871C45.414 37.6023 45.8057 38.1341 45.8469 38.1689C45.9551 38.2603 46.1761 38.2566 46.2891 38.1615L46.373 38.0909L46.3563 40.7732C46.3472 42.2484 46.3281 45.8671 46.3139 48.8146C46.2908 53.6141 46.2765 54.5461 46.2213 54.8682C46.0755 55.7196 45.8083 56.3329 45.3603 56.8443C45.0723 57.1729 44.8041 57.3711 44.4321 57.5302C44.0043 57.7131 43.8571 57.7365 43.1331 57.7365C42.4996 57.7365 42.4787 57.7345 42.2976 57.6584C42.1077 57.5784 41.6531 57.241 41.4357 57.0186C40.8301 56.3991 40.3292 55.4306 40.1162 54.4672C40.053 54.1814 40.0447 54.0872 40.0455 53.6605C40.0463 53.2394 40.0538 53.1546 40.1045 52.9991C40.1365 52.901 40.1626 52.7699 40.1626 52.7076L40.1626 52.5945L40.0234 52.5766C39.7976 52.5475 37.2796 52.5261 26.0087 52.4574C20.1423 52.4217 15.3325 52.3811 15.3203 52.3673C15.3082 52.3534 15.2952 45.7707 15.2915 37.739C15.2877 29.7073 15.2815 22.8981 15.2776 22.6075C15.2736 22.3169 15.2712 19.4433 15.2722 16.2218C15.2738 10.8201 15.2775 10.348 15.319 10.1531ZM16.8682 47.5C16.8933 47.605 16.957 47.6912 17.0436 47.7375C17.1488 47.7936 17.6226 47.7986 28.9571 47.8636C30.4158 47.8719 32.5104 47.8855 33.6117 47.8937C34.713 47.9019 37.0642 47.9165 38.8365 47.9262C41.9726 47.9434 42.0614 47.9423 42.1497 47.8863C42.2501 47.8226 42.3374 47.6645 42.3374 47.5465C42.3374 47.4266 42.2483 47.2677 42.1493 47.211C42.0662 47.1635 41.8265 47.1579 39.1813 47.1415C37.5986 47.1317 35.3548 47.117 34.1952 47.1088C33.0355 47.1005 30.8574 47.0869 29.3549 47.0785C26.498 47.0626 23.7315 47.0449 19.6081 47.0164C17.275 47.0002 17.1503 47.0021 17.0638 47.0541C16.9116 47.1456 16.8287 47.3345 16.8682 47.5ZM16.8952 37.2201C16.9213 37.2779 16.9807 37.3542 17.0274 37.3896C17.1092 37.4518 17.1486 37.4547 18.1546 37.4727C18.7279 37.483 20.315 37.495 21.6814 37.4994C24.1555 37.5075 24.1662 37.5072 24.2408 37.4452C24.3486 37.3555 24.418 37.1818 24.397 37.0542C24.3734 36.9114 24.2647 36.7745 24.148 36.7407C24.0918 36.7244 22.5906 36.7043 20.6026 36.6931C17.3086 36.6745 17.1507 36.6761 17.0638 36.7283C16.8837 36.8365 16.8139 37.0401 16.8952 37.2201ZM16.9104 32.091C16.9463 32.1517 17.0086 32.2074 17.0629 32.2273C17.1292 32.2516 19.0489 32.2642 23.9491 32.2726L30.7433 32.2842L30.8183 32.2219C30.9287 32.13 30.9955 31.9588 30.9734 31.8246C30.9472 31.666 30.813 31.5244 30.6662 31.5007C30.6014 31.4902 27.5071 31.4856 23.7899 31.4904L17.0313 31.4992L16.9406 31.612C16.8269 31.7532 16.8157 31.9308 16.9104 32.091ZM16.918 27.0731C16.9556 27.1239 17.0302 27.1801 17.0838 27.1979C17.1508 27.2201 17.8948 27.2274 19.4622 27.2211C21.6978 27.2121 21.7449 27.2107 21.8359 27.1506C22.0975 26.9781 22.053 26.5485 21.7622 26.4392C21.686 26.4105 21.1495 26.4063 19.3911 26.4203C16.9137 26.44 17.0298 26.4311 16.9052 26.6115C16.8227 26.7308 16.8288 26.9525 16.918 27.0731ZM16.8952 16.5655C16.9239 16.6318 16.9773 16.6873 17.0471 16.7234C17.1476 16.7754 17.2541 16.7791 18.6533 16.7795C19.6536 16.7798 20.1863 16.7691 20.2558 16.7471C20.5562 16.6522 20.6203 16.252 20.3686 16.0426C20.2948 15.9813 20.2683 15.9803 18.711 15.9803C17.2374 15.9803 17.1222 15.984 17.0409 16.0346C16.8673 16.1425 16.8071 16.3619 16.8952 16.5655ZM16.9528 11.4236C17.0418 11.5897 17.1076 11.6023 17.8841 11.6023C19.0881 11.6023 27.9615 11.5576 29.8721 11.542C30.8713 11.5337 33.0017 11.5194 34.6063 11.5101C37.8549 11.4912 37.6406 11.5065 37.7709 11.2853C37.8869 11.0886 37.7926 10.8074 37.5873 10.7374C37.5045 10.7091 35.2445 10.713 27.3445 10.7547C17.6755 10.8058 17.2027 10.8108 17.097 10.863C16.9123 10.9542 16.8439 11.2202 16.9528 11.4236ZM21.2652 16.5005C21.2857 16.5541 21.3419 16.6254 21.3902 16.6589C21.4777 16.7196 21.4961 16.7198 32.3063 16.7199C44.0769 16.72 43.2437 16.7324 43.3666 16.5545C43.4933 16.3713 43.4504 16.1024 43.2763 15.9885C43.1978 15.9371 42.7057 15.9347 32.3662 15.9349C21.8622 15.9351 21.5349 15.9368 21.4266 15.9913C21.2504 16.0801 21.1843 16.2886 21.2652 16.5005ZM23.6372 26.8822C23.6746 26.9815 23.8175 27.1019 23.9253 27.1249C23.9796 27.1366 25.574 27.1376 27.4684 27.1272C30.7399 27.1092 30.9176 27.1055 31.0067 27.0529C31.109 26.9925 31.1982 26.8344 31.1982 26.7137C31.1982 26.5956 31.1108 26.4376 31.0105 26.3742C30.9224 26.3187 30.8167 26.3173 27.4055 26.3283C24.148 26.3388 23.8851 26.3434 23.8054 26.3914C23.7581 26.4199 23.7004 26.4764 23.677 26.5169C23.6256 26.6064 23.6049 26.7964 23.6372 26.8822ZM36.9899 41.1061C37.4193 40.1504 37.915 39.0427 38.5461 37.6283C39.2521 36.0458 39.9728 34.434 40.1556 34.0283L40.3085 33.6891L40.5787 33.6886L40.8489 33.6882L40.8627 33.8165C40.8703 33.8871 40.8954 34.5086 40.9186 35.1978C40.9417 35.8869 40.9675 36.4915 40.9759 36.5414C41.015 36.7728 41.1548 36.9185 41.3382 36.9186C41.4118 36.9187 41.6961 36.7892 42.3726 36.4473C42.8857 36.188 43.316 35.9688 43.3288 35.96C43.3417 35.9513 43.1224 36.459 42.8415 37.0881C42.5606 37.7174 42.098 38.7552 41.8135 39.3946C41.5289 40.0339 41.1382 40.9102 40.9452 41.342C40.7522 41.7737 40.4236 42.5113 40.215 42.9811C40.0064 43.4509 39.8279 43.8245 39.8182 43.8114C39.8 43.7866 39.7419 43.5724 39.472 42.5346C39.1196 41.1797 39.0696 41.0374 38.9361 41.01C38.839 40.9901 38.4751 41.1258 36.9601 41.747C36.796 41.8143 36.6617 41.8619 36.6617 41.8529C36.6617 41.8438 36.8094 41.5077 36.9899 41.1061ZM38.3674 28.0842C38.7494 27.6923 39.0888 27.3292 39.1216 27.2775C39.196 27.1603 39.2041 26.8819 39.1376 26.7348C39.1135 26.6817 38.851 26.2196 38.5541 25.7079C38.2572 25.1962 38.0143 24.7661 38.0143 24.7522C38.0143 24.7382 38.077 24.6861 38.1536 24.6365C38.2302 24.5869 38.442 24.4476 38.6243 24.3269C38.8067 24.2062 39.0215 24.0643 39.1017 24.0115C40.0253 23.4033 40.0119 23.4139 40.0732 23.2501C40.1543 23.0335 40.1341 22.9629 39.7112 21.9824C39.4921 21.4744 39.3161 21.0558 39.32 21.0522C39.324 21.0486 39.8586 21.0117 40.5082 20.9703C41.4278 20.9117 41.7066 20.8846 41.768 20.848C41.8811 20.7804 42.0428 20.581 42.0684 20.4772C42.0805 20.4283 42.0786 19.916 42.0641 19.3387C42.0496 18.7614 42.045 18.2807 42.054 18.2705C42.0629 18.2603 42.2407 18.3344 42.4491 18.4351C43.8648 19.1191 44.1651 19.2611 44.2524 19.2879C44.3615 19.3214 44.552 19.2821 44.6778 19.2002C44.7178 19.1742 44.9201 18.901 45.1274 18.5931C45.9033 17.4408 46.0292 17.2604 46.051 17.2694C46.0633 17.2744 46.3441 17.6793 46.6751 18.1692C47.006 18.6591 47.3015 19.0907 47.3318 19.1284C47.4006 19.2141 47.7009 19.3231 47.7968 19.2972C47.8643 19.279 48.9748 18.7535 49.6953 18.3988C49.8838 18.306 50.0422 18.2347 50.0471 18.2404C50.0521 18.2461 50.0435 18.7297 50.0281 19.3152C50.0084 20.0625 50.0084 20.4084 50.028 20.4762C50.0608 20.5894 50.2498 20.8094 50.3516 20.8529C50.3906 20.8696 50.9097 20.9116 51.5053 20.9463C52.1009 20.9809 52.631 21.019 52.6834 21.031L52.7786 21.0526L52.3851 21.9684C52.0476 22.7535 51.9915 22.9043 51.9919 23.0251C51.9925 23.2216 52.0789 23.3822 52.2434 23.4925C52.4112 23.6051 53.3178 24.1995 53.7021 24.449C53.8626 24.5531 54.0202 24.6569 54.0524 24.6795C54.1099 24.72 54.101 24.7377 53.5405 25.7041C53.2268 26.2449 52.9588 26.7214 52.9449 26.7629C52.9001 26.8971 52.9161 27.1129 52.9798 27.2332C53.0124 27.2947 53.3494 27.6598 53.7286 28.0446C54.1079 28.4294 54.434 28.7609 54.4533 28.7814C54.4816 28.8114 54.3714 28.8863 53.883 29.169C52.4839 29.9791 52.5343 29.9379 52.5365 30.2711C52.5379 30.4888 52.5026 30.3813 53.1505 32.1427C53.2745 32.4801 53.3718 32.7605 53.3667 32.766C53.3615 32.7714 52.8042 32.8049 52.1281 32.8403C51.2649 32.8856 50.8732 32.917 50.8126 32.9458C50.6891 33.0046 50.6112 33.1465 50.5828 33.3648C50.5693 33.4679 50.5412 34.0804 50.5202 34.7259C50.4992 35.3714 50.4768 35.9055 50.4704 35.9128C50.4609 35.9237 49.5568 35.4758 48.3513 34.8629C48.2236 34.798 48.0822 34.7449 48.037 34.7449C47.8542 34.7449 47.8034 34.8043 46.9231 36.0473C46.2335 37.0212 46.0622 37.2465 46.0358 37.2148C46.0178 37.1931 45.6375 36.6591 45.1908 36.0281C44.366 34.8629 44.2673 34.7464 44.1034 34.7454C44.0604 34.7451 43.6252 34.9479 43.1221 35.2027C41.5445 36.0015 41.648 35.9528 41.647 35.8971C41.6465 35.8695 41.6241 35.2756 41.5971 34.5773C41.5521 33.4082 41.5438 33.2977 41.4923 33.1829C41.4283 33.0401 41.356 32.9735 41.2235 32.9353C41.1724 32.9205 40.6055 32.8849 39.9637 32.8561C39.3219 32.8273 38.7878 32.7948 38.7767 32.7839C38.7586 32.7658 38.9846 32.1128 39.4166 30.9354C39.5556 30.5565 39.5791 30.4655 39.5791 30.3074C39.5791 30.0883 39.5332 29.9724 39.414 29.8904C39.2905 29.8054 38.8591 29.5506 38.206 29.1768C37.8957 28.9992 37.6487 28.8411 37.6573 28.8254C37.6658 28.8097 37.9854 28.4761 38.3674 28.0842ZM38.9082 11.2843C38.9344 11.3418 38.9976 11.4166 39.0487 11.4504C39.1395 11.5104 39.1853 11.5119 41.1174 11.5199C43.3268 11.5289 43.2077 11.5399 43.3404 11.3155C43.4467 11.1357 43.3842 10.8882 43.2058 10.783C43.1282 10.7372 42.9284 10.7311 41.1439 10.7197C39.2702 10.7078 39.1634 10.71 39.0771 10.7622C38.8935 10.8734 38.8219 11.0949 38.9082 11.2843ZM40.5748 28.1629C40.8172 30.138 41.8134 31.8023 43.3383 32.7797C44.1648 33.3095 45.2707 33.6067 46.218 33.5536C46.5867 33.5329 47.0363 33.4756 47.0716 33.4448C47.0862 33.432 47.1958 33.3932 47.3151 33.3585C47.6613 33.2579 47.9744 33.124 48.3447 32.9182C48.9589 32.5768 49.3664 32.2371 49.8707 31.6457C50.6376 30.7465 51.1087 29.6863 51.3179 28.3894C51.3847 27.9753 51.3979 27.0012 51.3429 26.5508C51.0564 24.2072 49.6273 22.2383 47.6944 21.5243C46.9634 21.2543 46.7367 21.207 46.1036 21.1921C44.8786 21.1633 43.6805 21.6038 42.6874 22.4479C42.4293 22.6674 41.956 23.188 41.7465 23.4831C41.1596 24.3097 40.7591 25.3319 40.599 26.4118C40.5385 26.82 40.5255 27.7613 40.5748 28.1629ZM41.2503 26.9456C41.4001 24.8878 42.5566 23.1049 44.2205 22.3668C44.8085 22.1059 45.2886 22.0085 46.0373 21.9981C46.5099 21.9916 46.5601 21.9964 46.8462 22.0756C47.3351 22.2108 47.6909 22.3478 48.0175 22.5265C49.3875 23.2763 50.3652 24.7491 50.6266 26.4571C50.717 27.0479 50.7036 27.9155 50.5952 28.48C50.4351 29.3144 50.0875 30.1409 49.6302 30.7746C49.3143 31.2122 48.8206 31.7029 48.4199 31.9772C47.2826 32.756 45.8477 32.9626 44.5918 32.5285C42.75 31.8918 41.4096 30.0104 41.2525 27.8413C41.2216 27.4149 41.2214 27.3428 41.2503 26.9456ZM47.2981 12.4628C47.5842 9.99855 48.4238 8.03933 49.5851 7.12552C50.0376 6.76946 50.4134 6.63184 50.9306 6.63287C51.3324 6.63365 51.5768 6.69694 51.9251 6.89035C52.9525 7.46072 53.8201 8.87789 54.3109 10.7871C54.4648 11.386 54.5493 11.834 54.6158 12.4024C54.6458 12.6598 54.6762 12.9194 54.6833 12.9793L54.6961 13.0881L53.8543 13.1075C53.3913 13.1181 51.7082 13.1357 50.1141 13.1465L47.2156 13.1663L47.2297 13.0485C47.2374 12.9838 47.2682 12.7202 47.2981 12.4628ZM49.1025 36.1066C50.061 36.5913 50.6607 36.8864 50.7236 36.9042C50.8785 36.9481 51.0915 36.79 51.1408 36.5945C51.1537 36.5433 51.1857 35.8694 51.2119 35.0971L51.2595 33.6929L51.5054 33.6719C51.6407 33.6604 51.7666 33.6576 51.7852 33.6659C51.8205 33.6816 51.8648 33.7769 52.7275 35.696C53.0186 36.3436 53.4403 37.2811 53.6645 37.7793C55.1606 41.103 55.4843 41.8259 55.4795 41.8329C55.4765 41.8372 55.4215 41.8189 55.3572 41.7922C55.293 41.7654 55.1091 41.6915 54.9486 41.6278C54.7882 41.5642 54.3652 41.3956 54.0087 41.2534C53.5825 41.0833 53.3215 40.9948 53.2466 40.9948C53.1345 40.9948 53.1314 40.9975 53.0557 41.1684C53.0134 41.2638 52.9668 41.3895 52.9522 41.4476C52.9375 41.5058 52.8522 41.8318 52.7625 42.1723C52.6728 42.5127 52.563 42.9339 52.5186 43.1082C52.4742 43.2826 52.4113 43.5192 52.3789 43.6341L52.32 43.843L52.0061 43.1359C51.8335 42.7471 51.618 42.2659 51.5273 42.0666C51.4366 41.8673 51.1682 41.2695 50.9308 40.7381C50.6934 40.2067 50.389 39.5274 50.2542 39.2285C50.1195 38.9296 49.7788 38.1687 49.4972 37.5377C49.2155 36.9067 48.9405 36.2953 48.8859 36.179C48.8314 36.0628 48.7896 35.9645 48.793 35.9605C48.7965 35.9566 48.9357 36.0223 49.1025 36.1066Z"/>
</mask>
<path fill-rule="evenodd" clip-rule="evenodd" d="M7.55426 53.0648C7.91021 54.5884 8.84283 56.0147 10.1151 56.9812C10.9992 57.6528 12.0422 58.1145 13.0877 58.2969C13.4214 58.3551 13.5961 58.3577 17.92 58.3696C27.4057 58.3957 42.2412 58.4689 43.3851 58.4953C44.0922 58.5116 44.2218 58.493 44.5995 58.3218C44.9289 58.1724 45.1553 58.0237 45.4888 57.7376C45.9708 57.324 46.3187 56.8423 46.6014 56.1967C46.8444 55.6418 46.965 55.0991 46.9905 54.4455C46.9983 54.2462 47.0182 50.2993 47.0348 45.6746C47.0514 41.0499 47.0725 37.2212 47.0816 37.1665C47.0928 37.0995 47.2371 36.8702 47.5225 36.4654C47.886 35.9501 47.9514 35.8708 47.9789 35.9122C47.9965 35.9388 48.4248 36.8861 48.9307 38.0173C49.4366 39.1484 49.9307 40.2505 50.0288 40.4664C50.1269 40.6823 50.4194 41.3344 50.6786 41.9156C50.9379 42.4968 51.2363 43.1626 51.3417 43.3951C51.4471 43.6275 51.6441 44.0691 51.7795 44.3763C52.1161 45.1397 52.1551 45.2072 52.2961 45.2684C52.3896 45.3091 52.4286 45.3121 52.5021 45.2845C52.6883 45.2146 52.7105 45.1598 52.9857 44.0895C53.1266 43.5415 53.2639 43.0116 53.2907 42.912C53.3175 42.8123 53.3774 42.5814 53.4236 42.3987C53.5458 41.9159 53.5462 41.9147 53.5861 41.9256C53.6061 41.931 53.8075 42.0094 54.0336 42.0998C54.2597 42.1902 54.5939 42.3238 54.7763 42.3967C54.9586 42.4696 55.2808 42.6006 55.4924 42.6878C55.8238 42.8245 55.9044 42.8466 56.0758 42.848C56.2981 42.8498 56.3942 42.8011 56.4618 42.6524C56.5556 42.4458 56.5622 42.463 55.4393 39.9833C55.3265 39.7342 55.0967 39.2247 54.9288 38.8511C54.7607 38.4775 54.3758 37.6215 54.0733 36.949C53.7709 36.2764 53.3738 35.3933 53.191 34.9864C53.0082 34.5796 52.7958 34.1083 52.7191 33.9391L52.5795 33.6314L52.6502 33.616C52.689 33.6075 52.9476 33.5923 53.2247 33.5822C53.8372 33.56 53.9748 33.5336 54.07 33.4205C54.1456 33.3306 54.1928 33.1852 54.1928 33.0417C54.1928 32.9442 54.0526 32.5338 53.6114 31.3403C53.4503 30.9041 53.3113 30.5154 53.3028 30.4765C53.2881 30.41 53.3441 30.3725 54.2338 29.853C54.7544 29.549 55.214 29.2681 55.255 29.2288C55.341 29.1465 55.3976 28.98 55.3736 28.8805C55.3049 28.5968 55.2596 28.5391 54.4861 27.7515C54.0695 27.3273 53.7176 26.9624 53.704 26.9406C53.6864 26.9124 53.8529 26.601 54.2832 25.8577C54.9353 24.731 54.957 24.6795 54.8691 24.4687C54.792 24.2836 54.6419 24.1419 54.2706 23.9035C53.9173 23.6767 52.7832 22.9366 52.7637 22.9201C52.7507 22.9091 52.7761 22.8485 53.2278 21.8141C53.4364 21.3362 53.6148 20.8986 53.6242 20.8417C53.6566 20.645 53.5079 20.4309 53.2452 20.2962C53.1829 20.2642 52.8306 20.2317 51.9473 20.1763C51.2805 20.1344 50.7296 20.0942 50.7231 20.0868C50.7166 20.0794 50.7249 19.5367 50.7415 18.8808C50.7688 17.8045 50.7676 17.6765 50.7291 17.567C50.668 17.3931 50.5566 17.3238 50.3379 17.3238C50.1228 17.3238 50.119 17.3254 48.7985 17.9708C48.2312 18.248 47.7579 18.4638 47.7468 18.4503C47.7356 18.4369 47.5999 18.2381 47.4453 18.0087L47.164 17.5917L47.1709 15.7896L47.1777 13.9876L48.5568 13.9652C49.3154 13.9528 51.0996 13.9325 52.5219 13.9198C55.343 13.8948 55.198 13.9051 55.3171 13.7219C55.4246 13.5565 55.4167 13.0922 55.2904 12.1609C55.001 10.0274 54.2847 8.20071 53.293 7.06707C52.7258 6.41863 52.1212 6.02826 51.4607 5.884C51.2403 5.83591 50.9829 5.8164 50.2223 5.7902C49.6941 5.77199 49.1272 5.74428 48.9625 5.72854C48.6102 5.69494 45.6303 5.55971 44.7111 5.53561C42.9518 5.48945 38.9459 5.4883 30.0445 5.53139C24.6618 5.55744 20.0072 5.58344 19.7009 5.58918C19.104 5.60038 18.7507 5.66046 18.2289 5.8396C17.8575 5.9671 17.2254 6.27488 17.1378 6.37095C17.118 6.39272 17.0143 6.46923 16.9074 6.54094C16.2678 6.97012 15.6236 7.67943 15.2003 8.42057C14.9631 8.83583 14.7437 9.44174 14.6434 9.95815L14.5821 10.2739L14.5904 31.3306L14.5986 52.3873L11.4873 52.363C7.87629 52.3348 8.29619 52.3349 7.90408 52.3619C7.61293 52.382 7.58839 52.3885 7.54935 52.4563C7.48201 52.5733 7.48352 52.7621 7.55426 53.0648ZM9.45676 53.1446C12.0215 53.189 12.6286 53.1955 14.0252 53.1934C15.7886 53.1908 35.235 53.3046 37.6389 53.3316L39.3455 53.3508L39.3288 53.4778C39.3082 53.6339 39.3546 54.2187 39.4103 54.5053C39.6211 55.5903 40.1223 56.643 40.7903 57.4034L41.0224 57.6676L38.1592 57.6487C32.585 57.6118 17.4747 57.5652 15.7359 57.5796C14.7658 57.5876 13.8289 57.5817 13.6539 57.5665C12.7985 57.4924 12.0702 57.2658 11.2934 56.8321C10.1069 56.1698 9.23647 55.2562 8.64551 54.053C8.53722 53.8325 8.31287 53.238 8.31085 53.1661C8.30987 53.1313 8.49298 53.1279 9.45676 53.1446ZM15.319 10.1531C15.4413 9.57866 15.5851 9.1982 15.856 8.73258C16.2738 8.0143 16.9446 7.36815 17.7043 6.95231C18.1123 6.72895 18.7291 6.50077 19.0776 6.44426C19.4631 6.38176 20.6655 6.3676 27.379 6.34646C30.4788 6.33671 33.0567 6.32343 33.1078 6.317C33.4866 6.26914 44.1109 6.33484 45.2416 6.39205C45.5771 6.40902 46.2556 6.43701 46.7493 6.45425C47.5622 6.48263 48.2165 6.5172 48.8328 6.56442L49.0557 6.58148L48.9654 6.65799C48.7777 6.81701 48.2578 7.44988 48.0775 7.73894C47.5993 8.50553 47.2959 9.23576 46.909 10.5514C46.7738 11.0109 46.5366 12.3713 46.5124 12.8251C46.5067 12.9331 46.4948 13.8149 46.4861 14.7847L46.4701 16.548L46.3702 16.4235C46.2592 16.2853 46.1721 16.2369 46.0342 16.2369C45.8313 16.2369 45.8487 16.2158 44.9637 17.5352C44.6239 18.0417 44.3416 18.4616 44.3364 18.4684C44.3312 18.4752 43.9957 18.3205 43.5908 18.1248C43.1859 17.929 42.6595 17.6746 42.4211 17.5594C42.0471 17.3786 41.9611 17.3482 41.7956 17.3379C41.5618 17.3235 41.4505 17.3794 41.3725 17.5505C41.321 17.6634 41.3205 17.6931 41.3498 18.8754C41.3684 19.6248 41.3704 20.0915 41.355 20.1023C41.3414 20.1119 40.8199 20.1503 40.1961 20.1877C39.5723 20.2251 39.0105 20.2689 38.9476 20.2851C38.7905 20.3257 38.5577 20.5078 38.5068 20.6298C38.4529 20.7592 38.4544 20.8232 38.5156 21.0067L38.5661 21.1578L35.3529 21.1656C33.5856 21.1699 28.7704 21.1769 24.6523 21.1813C18.3923 21.1879 17.1506 21.196 17.078 21.2305C16.945 21.2938 16.8763 21.4131 16.8763 21.581C16.8763 21.7491 16.945 21.8682 17.0788 21.9318C17.1527 21.967 18.8605 21.9735 28.0482 21.9735L38.9301 21.9735L39.1353 22.4417C39.2481 22.6992 39.3404 22.9154 39.3404 22.922C39.3404 22.934 39.0531 23.1261 38.0806 23.7646C37.4001 24.2115 37.393 24.2169 37.2997 24.3714C37.2004 24.5357 37.1768 24.6527 37.2162 24.7862C37.2326 24.8417 37.435 25.2131 37.6662 25.6117C37.8973 26.0102 38.0843 26.3395 38.0818 26.3433C38.0792 26.3472 38.0421 26.339 37.9993 26.3251C37.9565 26.3112 36.8037 26.3102 35.4374 26.3229C33.1956 26.3438 32.9442 26.351 32.8597 26.3966C32.6124 26.5302 32.6034 26.8865 32.8425 27.0709L32.9354 27.1425L35.4152 27.122C36.7791 27.1107 37.9375 27.0891 37.9895 27.074C38.1098 27.039 38.195 26.9358 38.2369 26.7743L38.2698 26.6472L38.3534 26.7936C38.4182 26.907 38.4298 26.9475 38.4047 26.9737C38.3869 26.9923 38.0442 27.3435 37.643 27.7542C37.0246 28.3872 36.9006 28.5283 36.8275 28.6817C36.7314 28.8834 36.7209 28.9955 36.7839 29.1467C36.8374 29.275 36.8151 29.2602 37.895 29.8845C38.391 30.1711 38.8057 30.4147 38.8167 30.4257C38.8277 30.4367 38.7043 30.8118 38.5425 31.2593C37.9513 32.8939 37.9353 32.9421 37.9351 33.0843C37.9348 33.2549 38.0025 33.4112 38.113 33.4952C38.2062 33.5661 38.3214 33.5799 39.1217 33.616L39.5528 33.6355L39.1979 34.4242C39.0027 34.858 38.655 35.6341 38.4252 36.1489C38.1954 36.6636 37.8494 37.4381 37.6563 37.8698C37.4631 38.3016 37.123 39.0624 36.9003 39.5606C36.6777 40.0588 36.3553 40.7789 36.184 41.1608C36.0127 41.5427 35.8406 41.9277 35.8015 42.0163L35.7303 42.1772L35.6666 42.099C35.6316 42.0559 35.5725 42.0075 35.5354 41.9915C35.4692 41.9628 30.9336 41.9277 21.332 41.8816C16.5814 41.8587 16.9327 41.8465 16.7991 42.0399C16.6732 42.222 16.7657 42.5426 16.9657 42.6177C17.0446 42.6472 19.0658 42.6665 26.2607 42.7059C35.0667 42.7543 35.4591 42.7541 35.5538 42.7027L35.6527 42.6491L35.7215 42.7422C35.8697 42.9427 36.1096 42.9333 36.6649 42.7055C37.1362 42.5121 37.7935 42.2476 38.2133 42.0823C38.3737 42.0192 38.5239 41.9586 38.5469 41.9478C38.5806 41.932 38.6024 41.9799 38.6588 42.1936C38.9278 43.2139 39.0124 43.5389 39.1802 44.1952C39.2842 44.602 39.3926 44.9928 39.421 45.0635C39.5454 45.3734 39.8801 45.3973 40.0388 45.1076C40.0727 45.0458 40.4502 44.2072 40.8778 43.2441C41.3053 42.281 41.7891 41.194 41.9529 40.8287C42.1167 40.4634 42.5403 39.5123 42.8942 38.7152C43.725 36.8442 44.1437 35.9122 44.1642 35.8879C44.1733 35.8773 44.5388 36.3719 44.9764 36.9871C45.414 37.6023 45.8057 38.1341 45.8469 38.1689C45.9551 38.2603 46.1761 38.2566 46.2891 38.1615L46.373 38.0909L46.3563 40.7732C46.3472 42.2484 46.3281 45.8671 46.3139 48.8146C46.2908 53.6141 46.2765 54.5461 46.2213 54.8682C46.0755 55.7196 45.8083 56.3329 45.3603 56.8443C45.0723 57.1729 44.8041 57.3711 44.4321 57.5302C44.0043 57.7131 43.8571 57.7365 43.1331 57.7365C42.4996 57.7365 42.4787 57.7345 42.2976 57.6584C42.1077 57.5784 41.6531 57.241 41.4357 57.0186C40.8301 56.3991 40.3292 55.4306 40.1162 54.4672C40.053 54.1814 40.0447 54.0872 40.0455 53.6605C40.0463 53.2394 40.0538 53.1546 40.1045 52.9991C40.1365 52.901 40.1626 52.7699 40.1626 52.7076L40.1626 52.5945L40.0234 52.5766C39.7976 52.5475 37.2796 52.5261 26.0087 52.4574C20.1423 52.4217 15.3325 52.3811 15.3203 52.3673C15.3082 52.3534 15.2952 45.7707 15.2915 37.739C15.2877 29.7073 15.2815 22.8981 15.2776 22.6075C15.2736 22.3169 15.2712 19.4433 15.2722 16.2218C15.2738 10.8201 15.2775 10.348 15.319 10.1531ZM16.8682 47.5C16.8933 47.605 16.957 47.6912 17.0436 47.7375C17.1488 47.7936 17.6226 47.7986 28.9571 47.8636C30.4158 47.8719 32.5104 47.8855 33.6117 47.8937C34.713 47.9019 37.0642 47.9165 38.8365 47.9262C41.9726 47.9434 42.0614 47.9423 42.1497 47.8863C42.2501 47.8226 42.3374 47.6645 42.3374 47.5465C42.3374 47.4266 42.2483 47.2677 42.1493 47.211C42.0662 47.1635 41.8265 47.1579 39.1813 47.1415C37.5986 47.1317 35.3548 47.117 34.1952 47.1088C33.0355 47.1005 30.8574 47.0869 29.3549 47.0785C26.498 47.0626 23.7315 47.0449 19.6081 47.0164C17.275 47.0002 17.1503 47.0021 17.0638 47.0541C16.9116 47.1456 16.8287 47.3345 16.8682 47.5ZM16.8952 37.2201C16.9213 37.2779 16.9807 37.3542 17.0274 37.3896C17.1092 37.4518 17.1486 37.4547 18.1546 37.4727C18.7279 37.483 20.315 37.495 21.6814 37.4994C24.1555 37.5075 24.1662 37.5072 24.2408 37.4452C24.3486 37.3555 24.418 37.1818 24.397 37.0542C24.3734 36.9114 24.2647 36.7745 24.148 36.7407C24.0918 36.7244 22.5906 36.7043 20.6026 36.6931C17.3086 36.6745 17.1507 36.6761 17.0638 36.7283C16.8837 36.8365 16.8139 37.0401 16.8952 37.2201ZM16.9104 32.091C16.9463 32.1517 17.0086 32.2074 17.0629 32.2273C17.1292 32.2516 19.0489 32.2642 23.9491 32.2726L30.7433 32.2842L30.8183 32.2219C30.9287 32.13 30.9955 31.9588 30.9734 31.8246C30.9472 31.666 30.813 31.5244 30.6662 31.5007C30.6014 31.4902 27.5071 31.4856 23.7899 31.4904L17.0313 31.4992L16.9406 31.612C16.8269 31.7532 16.8157 31.9308 16.9104 32.091ZM16.918 27.0731C16.9556 27.1239 17.0302 27.1801 17.0838 27.1979C17.1508 27.2201 17.8948 27.2274 19.4622 27.2211C21.6978 27.2121 21.7449 27.2107 21.8359 27.1506C22.0975 26.9781 22.053 26.5485 21.7622 26.4392C21.686 26.4105 21.1495 26.4063 19.3911 26.4203C16.9137 26.44 17.0298 26.4311 16.9052 26.6115C16.8227 26.7308 16.8288 26.9525 16.918 27.0731ZM16.8952 16.5655C16.9239 16.6318 16.9773 16.6873 17.0471 16.7234C17.1476 16.7754 17.2541 16.7791 18.6533 16.7795C19.6536 16.7798 20.1863 16.7691 20.2558 16.7471C20.5562 16.6522 20.6203 16.252 20.3686 16.0426C20.2948 15.9813 20.2683 15.9803 18.711 15.9803C17.2374 15.9803 17.1222 15.984 17.0409 16.0346C16.8673 16.1425 16.8071 16.3619 16.8952 16.5655ZM16.9528 11.4236C17.0418 11.5897 17.1076 11.6023 17.8841 11.6023C19.0881 11.6023 27.9615 11.5576 29.8721 11.542C30.8713 11.5337 33.0017 11.5194 34.6063 11.5101C37.8549 11.4912 37.6406 11.5065 37.7709 11.2853C37.8869 11.0886 37.7926 10.8074 37.5873 10.7374C37.5045 10.7091 35.2445 10.713 27.3445 10.7547C17.6755 10.8058 17.2027 10.8108 17.097 10.863C16.9123 10.9542 16.8439 11.2202 16.9528 11.4236ZM21.2652 16.5005C21.2857 16.5541 21.3419 16.6254 21.3902 16.6589C21.4777 16.7196 21.4961 16.7198 32.3063 16.7199C44.0769 16.72 43.2437 16.7324 43.3666 16.5545C43.4933 16.3713 43.4504 16.1024 43.2763 15.9885C43.1978 15.9371 42.7057 15.9347 32.3662 15.9349C21.8622 15.9351 21.5349 15.9368 21.4266 15.9913C21.2504 16.0801 21.1843 16.2886 21.2652 16.5005ZM23.6372 26.8822C23.6746 26.9815 23.8175 27.1019 23.9253 27.1249C23.9796 27.1366 25.574 27.1376 27.4684 27.1272C30.7399 27.1092 30.9176 27.1055 31.0067 27.0529C31.109 26.9925 31.1982 26.8344 31.1982 26.7137C31.1982 26.5956 31.1108 26.4376 31.0105 26.3742C30.9224 26.3187 30.8167 26.3173 27.4055 26.3283C24.148 26.3388 23.8851 26.3434 23.8054 26.3914C23.7581 26.4199 23.7004 26.4764 23.677 26.5169C23.6256 26.6064 23.6049 26.7964 23.6372 26.8822ZM36.9899 41.1061C37.4193 40.1504 37.915 39.0427 38.5461 37.6283C39.2521 36.0458 39.9728 34.434 40.1556 34.0283L40.3085 33.6891L40.5787 33.6886L40.8489 33.6882L40.8627 33.8165C40.8703 33.8871 40.8954 34.5086 40.9186 35.1978C40.9417 35.8869 40.9675 36.4915 40.9759 36.5414C41.015 36.7728 41.1548 36.9185 41.3382 36.9186C41.4118 36.9187 41.6961 36.7892 42.3726 36.4473C42.8857 36.188 43.316 35.9688 43.3288 35.96C43.3417 35.9513 43.1224 36.459 42.8415 37.0881C42.5606 37.7174 42.098 38.7552 41.8135 39.3946C41.5289 40.0339 41.1382 40.9102 40.9452 41.342C40.7522 41.7737 40.4236 42.5113 40.215 42.9811C40.0064 43.4509 39.8279 43.8245 39.8182 43.8114C39.8 43.7866 39.7419 43.5724 39.472 42.5346C39.1196 41.1797 39.0696 41.0374 38.9361 41.01C38.839 40.9901 38.4751 41.1258 36.9601 41.747C36.796 41.8143 36.6617 41.8619 36.6617 41.8529C36.6617 41.8438 36.8094 41.5077 36.9899 41.1061ZM38.3674 28.0842C38.7494 27.6923 39.0888 27.3292 39.1216 27.2775C39.196 27.1603 39.2041 26.8819 39.1376 26.7348C39.1135 26.6817 38.851 26.2196 38.5541 25.7079C38.2572 25.1962 38.0143 24.7661 38.0143 24.7522C38.0143 24.7382 38.077 24.6861 38.1536 24.6365C38.2302 24.5869 38.442 24.4476 38.6243 24.3269C38.8067 24.2062 39.0215 24.0643 39.1017 24.0115C40.0253 23.4033 40.0119 23.4139 40.0732 23.2501C40.1543 23.0335 40.1341 22.9629 39.7112 21.9824C39.4921 21.4744 39.3161 21.0558 39.32 21.0522C39.324 21.0486 39.8586 21.0117 40.5082 20.9703C41.4278 20.9117 41.7066 20.8846 41.768 20.848C41.8811 20.7804 42.0428 20.581 42.0684 20.4772C42.0805 20.4283 42.0786 19.916 42.0641 19.3387C42.0496 18.7614 42.045 18.2807 42.054 18.2705C42.0629 18.2603 42.2407 18.3344 42.4491 18.4351C43.8648 19.1191 44.1651 19.2611 44.2524 19.2879C44.3615 19.3214 44.552 19.2821 44.6778 19.2002C44.7178 19.1742 44.9201 18.901 45.1274 18.5931C45.9033 17.4408 46.0292 17.2604 46.051 17.2694C46.0633 17.2744 46.3441 17.6793 46.6751 18.1692C47.006 18.6591 47.3015 19.0907 47.3318 19.1284C47.4006 19.2141 47.7009 19.3231 47.7968 19.2972C47.8643 19.279 48.9748 18.7535 49.6953 18.3988C49.8838 18.306 50.0422 18.2347 50.0471 18.2404C50.0521 18.2461 50.0435 18.7297 50.0281 19.3152C50.0084 20.0625 50.0084 20.4084 50.028 20.4762C50.0608 20.5894 50.2498 20.8094 50.3516 20.8529C50.3906 20.8696 50.9097 20.9116 51.5053 20.9463C52.1009 20.9809 52.631 21.019 52.6834 21.031L52.7786 21.0526L52.3851 21.9684C52.0476 22.7535 51.9915 22.9043 51.9919 23.0251C51.9925 23.2216 52.0789 23.3822 52.2434 23.4925C52.4112 23.6051 53.3178 24.1995 53.7021 24.449C53.8626 24.5531 54.0202 24.6569 54.0524 24.6795C54.1099 24.72 54.101 24.7377 53.5405 25.7041C53.2268 26.2449 52.9588 26.7214 52.9449 26.7629C52.9001 26.8971 52.9161 27.1129 52.9798 27.2332C53.0124 27.2947 53.3494 27.6598 53.7286 28.0446C54.1079 28.4294 54.434 28.7609 54.4533 28.7814C54.4816 28.8114 54.3714 28.8863 53.883 29.169C52.4839 29.9791 52.5343 29.9379 52.5365 30.2711C52.5379 30.4888 52.5026 30.3813 53.1505 32.1427C53.2745 32.4801 53.3718 32.7605 53.3667 32.766C53.3615 32.7714 52.8042 32.8049 52.1281 32.8403C51.2649 32.8856 50.8732 32.917 50.8126 32.9458C50.6891 33.0046 50.6112 33.1465 50.5828 33.3648C50.5693 33.4679 50.5412 34.0804 50.5202 34.7259C50.4992 35.3714 50.4768 35.9055 50.4704 35.9128C50.4609 35.9237 49.5568 35.4758 48.3513 34.8629C48.2236 34.798 48.0822 34.7449 48.037 34.7449C47.8542 34.7449 47.8034 34.8043 46.9231 36.0473C46.2335 37.0212 46.0622 37.2465 46.0358 37.2148C46.0178 37.1931 45.6375 36.6591 45.1908 36.0281C44.366 34.8629 44.2673 34.7464 44.1034 34.7454C44.0604 34.7451 43.6252 34.9479 43.1221 35.2027C41.5445 36.0015 41.648 35.9528 41.647 35.8971C41.6465 35.8695 41.6241 35.2756 41.5971 34.5773C41.5521 33.4082 41.5438 33.2977 41.4923 33.1829C41.4283 33.0401 41.356 32.9735 41.2235 32.9353C41.1724 32.9205 40.6055 32.8849 39.9637 32.8561C39.3219 32.8273 38.7878 32.7948 38.7767 32.7839C38.7586 32.7658 38.9846 32.1128 39.4166 30.9354C39.5556 30.5565 39.5791 30.4655 39.5791 30.3074C39.5791 30.0883 39.5332 29.9724 39.414 29.8904C39.2905 29.8054 38.8591 29.5506 38.206 29.1768C37.8957 28.9992 37.6487 28.8411 37.6573 28.8254C37.6658 28.8097 37.9854 28.4761 38.3674 28.0842ZM38.9082 11.2843C38.9344 11.3418 38.9976 11.4166 39.0487 11.4504C39.1395 11.5104 39.1853 11.5119 41.1174 11.5199C43.3268 11.5289 43.2077 11.5399 43.3404 11.3155C43.4467 11.1357 43.3842 10.8882 43.2058 10.783C43.1282 10.7372 42.9284 10.7311 41.1439 10.7197C39.2702 10.7078 39.1634 10.71 39.0771 10.7622C38.8935 10.8734 38.8219 11.0949 38.9082 11.2843ZM40.5748 28.1629C40.8172 30.138 41.8134 31.8023 43.3383 32.7797C44.1648 33.3095 45.2707 33.6067 46.218 33.5536C46.5867 33.5329 47.0363 33.4756 47.0716 33.4448C47.0862 33.432 47.1958 33.3932 47.3151 33.3585C47.6613 33.2579 47.9744 33.124 48.3447 32.9182C48.9589 32.5768 49.3664 32.2371 49.8707 31.6457C50.6376 30.7465 51.1087 29.6863 51.3179 28.3894C51.3847 27.9753 51.3979 27.0012 51.3429 26.5508C51.0564 24.2072 49.6273 22.2383 47.6944 21.5243C46.9634 21.2543 46.7367 21.207 46.1036 21.1921C44.8786 21.1633 43.6805 21.6038 42.6874 22.4479C42.4293 22.6674 41.956 23.188 41.7465 23.4831C41.1596 24.3097 40.7591 25.3319 40.599 26.4118C40.5385 26.82 40.5255 27.7613 40.5748 28.1629ZM41.2503 26.9456C41.4001 24.8878 42.5566 23.1049 44.2205 22.3668C44.8085 22.1059 45.2886 22.0085 46.0373 21.9981C46.5099 21.9916 46.5601 21.9964 46.8462 22.0756C47.3351 22.2108 47.6909 22.3478 48.0175 22.5265C49.3875 23.2763 50.3652 24.7491 50.6266 26.4571C50.717 27.0479 50.7036 27.9155 50.5952 28.48C50.4351 29.3144 50.0875 30.1409 49.6302 30.7746C49.3143 31.2122 48.8206 31.7029 48.4199 31.9772C47.2826 32.756 45.8477 32.9626 44.5918 32.5285C42.75 31.8918 41.4096 30.0104 41.2525 27.8413C41.2216 27.4149 41.2214 27.3428 41.2503 26.9456ZM47.2981 12.4628C47.5842 9.99855 48.4238 8.03933 49.5851 7.12552C50.0376 6.76946 50.4134 6.63184 50.9306 6.63287C51.3324 6.63365 51.5768 6.69694 51.9251 6.89035C52.9525 7.46072 53.8201 8.87789 54.3109 10.7871C54.4648 11.386 54.5493 11.834 54.6158 12.4024C54.6458 12.6598 54.6762 12.9194 54.6833 12.9793L54.6961 13.0881L53.8543 13.1075C53.3913 13.1181 51.7082 13.1357 50.1141 13.1465L47.2156 13.1663L47.2297 13.0485C47.2374 12.9838 47.2682 12.7202 47.2981 12.4628ZM49.1025 36.1066C50.061 36.5913 50.6607 36.8864 50.7236 36.9042C50.8785 36.9481 51.0915 36.79 51.1408 36.5945C51.1537 36.5433 51.1857 35.8694 51.2119 35.0971L51.2595 33.6929L51.5054 33.6719C51.6407 33.6604 51.7666 33.6576 51.7852 33.6659C51.8205 33.6816 51.8648 33.7769 52.7275 35.696C53.0186 36.3436 53.4403 37.2811 53.6645 37.7793C55.1606 41.103 55.4843 41.8259 55.4795 41.8329C55.4765 41.8372 55.4215 41.8189 55.3572 41.7922C55.293 41.7654 55.1091 41.6915 54.9486 41.6278C54.7882 41.5642 54.3652 41.3956 54.0087 41.2534C53.5825 41.0833 53.3215 40.9948 53.2466 40.9948C53.1345 40.9948 53.1314 40.9975 53.0557 41.1684C53.0134 41.2638 52.9668 41.3895 52.9522 41.4476C52.9375 41.5058 52.8522 41.8318 52.7625 42.1723C52.6728 42.5127 52.563 42.9339 52.5186 43.1082C52.4742 43.2826 52.4113 43.5192 52.3789 43.6341L52.32 43.843L52.0061 43.1359C51.8335 42.7471 51.618 42.2659 51.5273 42.0666C51.4366 41.8673 51.1682 41.2695 50.9308 40.7381C50.6934 40.2067 50.389 39.5274 50.2542 39.2285C50.1195 38.9296 49.7788 38.1687 49.4972 37.5377C49.2155 36.9067 48.9405 36.2953 48.8859 36.179C48.8314 36.0628 48.7896 35.9645 48.793 35.9605C48.7965 35.9566 48.9357 36.0223 49.1025 36.1066Z" fill="#EC6A2D"/>
<path fill-rule="evenodd" clip-rule="evenodd" d="M7.55426 53.0648C7.91021 54.5884 8.84283 56.0147 10.1151 56.9812C10.9992 57.6528 12.0422 58.1145 13.0877 58.2969C13.4214 58.3551 13.5961 58.3577 17.92 58.3696C27.4057 58.3957 42.2412 58.4689 43.3851 58.4953C44.0922 58.5116 44.2218 58.493 44.5995 58.3218C44.9289 58.1724 45.1553 58.0237 45.4888 57.7376C45.9708 57.324 46.3187 56.8423 46.6014 56.1967C46.8444 55.6418 46.965 55.0991 46.9905 54.4455C46.9983 54.2462 47.0182 50.2993 47.0348 45.6746C47.0514 41.0499 47.0725 37.2212 47.0816 37.1665C47.0928 37.0995 47.2371 36.8702 47.5225 36.4654C47.886 35.9501 47.9514 35.8708 47.9789 35.9122C47.9965 35.9388 48.4248 36.8861 48.9307 38.0173C49.4366 39.1484 49.9307 40.2505 50.0288 40.4664C50.1269 40.6823 50.4194 41.3344 50.6786 41.9156C50.9379 42.4968 51.2363 43.1626 51.3417 43.3951C51.4471 43.6275 51.6441 44.0691 51.7795 44.3763C52.1161 45.1397 52.1551 45.2072 52.2961 45.2684C52.3896 45.3091 52.4286 45.3121 52.5021 45.2845C52.6883 45.2146 52.7105 45.1598 52.9857 44.0895C53.1266 43.5415 53.2639 43.0116 53.2907 42.912C53.3175 42.8123 53.3774 42.5814 53.4236 42.3987C53.5458 41.9159 53.5462 41.9147 53.5861 41.9256C53.6061 41.931 53.8075 42.0094 54.0336 42.0998C54.2597 42.1902 54.5939 42.3238 54.7763 42.3967C54.9586 42.4696 55.2808 42.6006 55.4924 42.6878C55.8238 42.8245 55.9044 42.8466 56.0758 42.848C56.2981 42.8498 56.3942 42.8011 56.4618 42.6524C56.5556 42.4458 56.5622 42.463 55.4393 39.9833C55.3265 39.7342 55.0967 39.2247 54.9288 38.8511C54.7607 38.4775 54.3758 37.6215 54.0733 36.949C53.7709 36.2764 53.3738 35.3933 53.191 34.9864C53.0082 34.5796 52.7958 34.1083 52.7191 33.9391L52.5795 33.6314L52.6502 33.616C52.689 33.6075 52.9476 33.5923 53.2247 33.5822C53.8372 33.56 53.9748 33.5336 54.07 33.4205C54.1456 33.3306 54.1928 33.1852 54.1928 33.0417C54.1928 32.9442 54.0526 32.5338 53.6114 31.3403C53.4503 30.9041 53.3113 30.5154 53.3028 30.4765C53.2881 30.41 53.3441 30.3725 54.2338 29.853C54.7544 29.549 55.214 29.2681 55.255 29.2288C55.341 29.1465 55.3976 28.98 55.3736 28.8805C55.3049 28.5968 55.2596 28.5391 54.4861 27.7515C54.0695 27.3273 53.7176 26.9624 53.704 26.9406C53.6864 26.9124 53.8529 26.601 54.2832 25.8577C54.9353 24.731 54.957 24.6795 54.8691 24.4687C54.792 24.2836 54.6419 24.1419 54.2706 23.9035C53.9173 23.6767 52.7832 22.9366 52.7637 22.9201C52.7507 22.9091 52.7761 22.8485 53.2278 21.8141C53.4364 21.3362 53.6148 20.8986 53.6242 20.8417C53.6566 20.645 53.5079 20.4309 53.2452 20.2962C53.1829 20.2642 52.8306 20.2317 51.9473 20.1763C51.2805 20.1344 50.7296 20.0942 50.7231 20.0868C50.7166 20.0794 50.7249 19.5367 50.7415 18.8808C50.7688 17.8045 50.7676 17.6765 50.7291 17.567C50.668 17.3931 50.5566 17.3238 50.3379 17.3238C50.1228 17.3238 50.119 17.3254 48.7985 17.9708C48.2312 18.248 47.7579 18.4638 47.7468 18.4503C47.7356 18.4369 47.5999 18.2381 47.4453 18.0087L47.164 17.5917L47.1709 15.7896L47.1777 13.9876L48.5568 13.9652C49.3154 13.9528 51.0996 13.9325 52.5219 13.9198C55.343 13.8948 55.198 13.9051 55.3171 13.7219C55.4246 13.5565 55.4167 13.0922 55.2904 12.1609C55.001 10.0274 54.2847 8.20071 53.293 7.06707C52.7258 6.41863 52.1212 6.02826 51.4607 5.884C51.2403 5.83591 50.9829 5.8164 50.2223 5.7902C49.6941 5.77199 49.1272 5.74428 48.9625 5.72854C48.6102 5.69494 45.6303 5.55971 44.7111 5.53561C42.9518 5.48945 38.9459 5.4883 30.0445 5.53139C24.6618 5.55744 20.0072 5.58344 19.7009 5.58918C19.104 5.60038 18.7507 5.66046 18.2289 5.8396C17.8575 5.9671 17.2254 6.27488 17.1378 6.37095C17.118 6.39272 17.0143 6.46923 16.9074 6.54094C16.2678 6.97012 15.6236 7.67943 15.2003 8.42057C14.9631 8.83583 14.7437 9.44174 14.6434 9.95815L14.5821 10.2739L14.5904 31.3306L14.5986 52.3873L11.4873 52.363C7.87629 52.3348 8.29619 52.3349 7.90408 52.3619C7.61293 52.382 7.58839 52.3885 7.54935 52.4563C7.48201 52.5733 7.48352 52.7621 7.55426 53.0648ZM9.45676 53.1446C12.0215 53.189 12.6286 53.1955 14.0252 53.1934C15.7886 53.1908 35.235 53.3046 37.6389 53.3316L39.3455 53.3508L39.3288 53.4778C39.3082 53.6339 39.3546 54.2187 39.4103 54.5053C39.6211 55.5903 40.1223 56.643 40.7903 57.4034L41.0224 57.6676L38.1592 57.6487C32.585 57.6118 17.4747 57.5652 15.7359 57.5796C14.7658 57.5876 13.8289 57.5817 13.6539 57.5665C12.7985 57.4924 12.0702 57.2658 11.2934 56.8321C10.1069 56.1698 9.23647 55.2562 8.64551 54.053C8.53722 53.8325 8.31287 53.238 8.31085 53.1661C8.30987 53.1313 8.49298 53.1279 9.45676 53.1446ZM15.319 10.1531C15.4413 9.57866 15.5851 9.1982 15.856 8.73258C16.2738 8.0143 16.9446 7.36815 17.7043 6.95231C18.1123 6.72895 18.7291 6.50077 19.0776 6.44426C19.4631 6.38176 20.6655 6.3676 27.379 6.34646C30.4788 6.33671 33.0567 6.32343 33.1078 6.317C33.4866 6.26914 44.1109 6.33484 45.2416 6.39205C45.5771 6.40902 46.2556 6.43701 46.7493 6.45425C47.5622 6.48263 48.2165 6.5172 48.8328 6.56442L49.0557 6.58148L48.9654 6.65799C48.7777 6.81701 48.2578 7.44988 48.0775 7.73894C47.5993 8.50553 47.2959 9.23576 46.909 10.5514C46.7738 11.0109 46.5366 12.3713 46.5124 12.8251C46.5067 12.9331 46.4948 13.8149 46.4861 14.7847L46.4701 16.548L46.3702 16.4235C46.2592 16.2853 46.1721 16.2369 46.0342 16.2369C45.8313 16.2369 45.8487 16.2158 44.9637 17.5352C44.6239 18.0417 44.3416 18.4616 44.3364 18.4684C44.3312 18.4752 43.9957 18.3205 43.5908 18.1248C43.1859 17.929 42.6595 17.6746 42.4211 17.5594C42.0471 17.3786 41.9611 17.3482 41.7956 17.3379C41.5618 17.3235 41.4505 17.3794 41.3725 17.5505C41.321 17.6634 41.3205 17.6931 41.3498 18.8754C41.3684 19.6248 41.3704 20.0915 41.355 20.1023C41.3414 20.1119 40.8199 20.1503 40.1961 20.1877C39.5723 20.2251 39.0105 20.2689 38.9476 20.2851C38.7905 20.3257 38.5577 20.5078 38.5068 20.6298C38.4529 20.7592 38.4544 20.8232 38.5156 21.0067L38.5661 21.1578L35.3529 21.1656C33.5856 21.1699 28.7704 21.1769 24.6523 21.1813C18.3923 21.1879 17.1506 21.196 17.078 21.2305C16.945 21.2938 16.8763 21.4131 16.8763 21.581C16.8763 21.7491 16.945 21.8682 17.0788 21.9318C17.1527 21.967 18.8605 21.9735 28.0482 21.9735L38.9301 21.9735L39.1353 22.4417C39.2481 22.6992 39.3404 22.9154 39.3404 22.922C39.3404 22.934 39.0531 23.1261 38.0806 23.7646C37.4001 24.2115 37.393 24.2169 37.2997 24.3714C37.2004 24.5357 37.1768 24.6527 37.2162 24.7862C37.2326 24.8417 37.435 25.2131 37.6662 25.6117C37.8973 26.0102 38.0843 26.3395 38.0818 26.3433C38.0792 26.3472 38.0421 26.339 37.9993 26.3251C37.9565 26.3112 36.8037 26.3102 35.4374 26.3229C33.1956 26.3438 32.9442 26.351 32.8597 26.3966C32.6124 26.5302 32.6034 26.8865 32.8425 27.0709L32.9354 27.1425L35.4152 27.122C36.7791 27.1107 37.9375 27.0891 37.9895 27.074C38.1098 27.039 38.195 26.9358 38.2369 26.7743L38.2698 26.6472L38.3534 26.7936C38.4182 26.907 38.4298 26.9475 38.4047 26.9737C38.3869 26.9923 38.0442 27.3435 37.643 27.7542C37.0246 28.3872 36.9006 28.5283 36.8275 28.6817C36.7314 28.8834 36.7209 28.9955 36.7839 29.1467C36.8374 29.275 36.8151 29.2602 37.895 29.8845C38.391 30.1711 38.8057 30.4147 38.8167 30.4257C38.8277 30.4367 38.7043 30.8118 38.5425 31.2593C37.9513 32.8939 37.9353 32.9421 37.9351 33.0843C37.9348 33.2549 38.0025 33.4112 38.113 33.4952C38.2062 33.5661 38.3214 33.5799 39.1217 33.616L39.5528 33.6355L39.1979 34.4242C39.0027 34.858 38.655 35.6341 38.4252 36.1489C38.1954 36.6636 37.8494 37.4381 37.6563 37.8698C37.4631 38.3016 37.123 39.0624 36.9003 39.5606C36.6777 40.0588 36.3553 40.7789 36.184 41.1608C36.0127 41.5427 35.8406 41.9277 35.8015 42.0163L35.7303 42.1772L35.6666 42.099C35.6316 42.0559 35.5725 42.0075 35.5354 41.9915C35.4692 41.9628 30.9336 41.9277 21.332 41.8816C16.5814 41.8587 16.9327 41.8465 16.7991 42.0399C16.6732 42.222 16.7657 42.5426 16.9657 42.6177C17.0446 42.6472 19.0658 42.6665 26.2607 42.7059C35.0667 42.7543 35.4591 42.7541 35.5538 42.7027L35.6527 42.6491L35.7215 42.7422C35.8697 42.9427 36.1096 42.9333 36.6649 42.7055C37.1362 42.5121 37.7935 42.2476 38.2133 42.0823C38.3737 42.0192 38.5239 41.9586 38.5469 41.9478C38.5806 41.932 38.6024 41.9799 38.6588 42.1936C38.9278 43.2139 39.0124 43.5389 39.1802 44.1952C39.2842 44.602 39.3926 44.9928 39.421 45.0635C39.5454 45.3734 39.8801 45.3973 40.0388 45.1076C40.0727 45.0458 40.4502 44.2072 40.8778 43.2441C41.3053 42.281 41.7891 41.194 41.9529 40.8287C42.1167 40.4634 42.5403 39.5123 42.8942 38.7152C43.725 36.8442 44.1437 35.9122 44.1642 35.8879C44.1733 35.8773 44.5388 36.3719 44.9764 36.9871C45.414 37.6023 45.8057 38.1341 45.8469 38.1689C45.9551 38.2603 46.1761 38.2566 46.2891 38.1615L46.373 38.0909L46.3563 40.7732C46.3472 42.2484 46.3281 45.8671 46.3139 48.8146C46.2908 53.6141 46.2765 54.5461 46.2213 54.8682C46.0755 55.7196 45.8083 56.3329 45.3603 56.8443C45.0723 57.1729 44.8041 57.3711 44.4321 57.5302C44.0043 57.7131 43.8571 57.7365 43.1331 57.7365C42.4996 57.7365 42.4787 57.7345 42.2976 57.6584C42.1077 57.5784 41.6531 57.241 41.4357 57.0186C40.8301 56.3991 40.3292 55.4306 40.1162 54.4672C40.053 54.1814 40.0447 54.0872 40.0455 53.6605C40.0463 53.2394 40.0538 53.1546 40.1045 52.9991C40.1365 52.901 40.1626 52.7699 40.1626 52.7076L40.1626 52.5945L40.0234 52.5766C39.7976 52.5475 37.2796 52.5261 26.0087 52.4574C20.1423 52.4217 15.3325 52.3811 15.3203 52.3673C15.3082 52.3534 15.2952 45.7707 15.2915 37.739C15.2877 29.7073 15.2815 22.8981 15.2776 22.6075C15.2736 22.3169 15.2712 19.4433 15.2722 16.2218C15.2738 10.8201 15.2775 10.348 15.319 10.1531ZM16.8682 47.5C16.8933 47.605 16.957 47.6912 17.0436 47.7375C17.1488 47.7936 17.6226 47.7986 28.9571 47.8636C30.4158 47.8719 32.5104 47.8855 33.6117 47.8937C34.713 47.9019 37.0642 47.9165 38.8365 47.9262C41.9726 47.9434 42.0614 47.9423 42.1497 47.8863C42.2501 47.8226 42.3374 47.6645 42.3374 47.5465C42.3374 47.4266 42.2483 47.2677 42.1493 47.211C42.0662 47.1635 41.8265 47.1579 39.1813 47.1415C37.5986 47.1317 35.3548 47.117 34.1952 47.1088C33.0355 47.1005 30.8574 47.0869 29.3549 47.0785C26.498 47.0626 23.7315 47.0449 19.6081 47.0164C17.275 47.0002 17.1503 47.0021 17.0638 47.0541C16.9116 47.1456 16.8287 47.3345 16.8682 47.5ZM16.8952 37.2201C16.9213 37.2779 16.9807 37.3542 17.0274 37.3896C17.1092 37.4518 17.1486 37.4547 18.1546 37.4727C18.7279 37.483 20.315 37.495 21.6814 37.4994C24.1555 37.5075 24.1662 37.5072 24.2408 37.4452C24.3486 37.3555 24.418 37.1818 24.397 37.0542C24.3734 36.9114 24.2647 36.7745 24.148 36.7407C24.0918 36.7244 22.5906 36.7043 20.6026 36.6931C17.3086 36.6745 17.1507 36.6761 17.0638 36.7283C16.8837 36.8365 16.8139 37.0401 16.8952 37.2201ZM16.9104 32.091C16.9463 32.1517 17.0086 32.2074 17.0629 32.2273C17.1292 32.2516 19.0489 32.2642 23.9491 32.2726L30.7433 32.2842L30.8183 32.2219C30.9287 32.13 30.9955 31.9588 30.9734 31.8246C30.9472 31.666 30.813 31.5244 30.6662 31.5007C30.6014 31.4902 27.5071 31.4856 23.7899 31.4904L17.0313 31.4992L16.9406 31.612C16.8269 31.7532 16.8157 31.9308 16.9104 32.091ZM16.918 27.0731C16.9556 27.1239 17.0302 27.1801 17.0838 27.1979C17.1508 27.2201 17.8948 27.2274 19.4622 27.2211C21.6978 27.2121 21.7449 27.2107 21.8359 27.1506C22.0975 26.9781 22.053 26.5485 21.7622 26.4392C21.686 26.4105 21.1495 26.4063 19.3911 26.4203C16.9137 26.44 17.0298 26.4311 16.9052 26.6115C16.8227 26.7308 16.8288 26.9525 16.918 27.0731ZM16.8952 16.5655C16.9239 16.6318 16.9773 16.6873 17.0471 16.7234C17.1476 16.7754 17.2541 16.7791 18.6533 16.7795C19.6536 16.7798 20.1863 16.7691 20.2558 16.7471C20.5562 16.6522 20.6203 16.252 20.3686 16.0426C20.2948 15.9813 20.2683 15.9803 18.711 15.9803C17.2374 15.9803 17.1222 15.984 17.0409 16.0346C16.8673 16.1425 16.8071 16.3619 16.8952 16.5655ZM16.9528 11.4236C17.0418 11.5897 17.1076 11.6023 17.8841 11.6023C19.0881 11.6023 27.9615 11.5576 29.8721 11.542C30.8713 11.5337 33.0017 11.5194 34.6063 11.5101C37.8549 11.4912 37.6406 11.5065 37.7709 11.2853C37.8869 11.0886 37.7926 10.8074 37.5873 10.7374C37.5045 10.7091 35.2445 10.713 27.3445 10.7547C17.6755 10.8058 17.2027 10.8108 17.097 10.863C16.9123 10.9542 16.8439 11.2202 16.9528 11.4236ZM21.2652 16.5005C21.2857 16.5541 21.3419 16.6254 21.3902 16.6589C21.4777 16.7196 21.4961 16.7198 32.3063 16.7199C44.0769 16.72 43.2437 16.7324 43.3666 16.5545C43.4933 16.3713 43.4504 16.1024 43.2763 15.9885C43.1978 15.9371 42.7057 15.9347 32.3662 15.9349C21.8622 15.9351 21.5349 15.9368 21.4266 15.9913C21.2504 16.0801 21.1843 16.2886 21.2652 16.5005ZM23.6372 26.8822C23.6746 26.9815 23.8175 27.1019 23.9253 27.1249C23.9796 27.1366 25.574 27.1376 27.4684 27.1272C30.7399 27.1092 30.9176 27.1055 31.0067 27.0529C31.109 26.9925 31.1982 26.8344 31.1982 26.7137C31.1982 26.5956 31.1108 26.4376 31.0105 26.3742C30.9224 26.3187 30.8167 26.3173 27.4055 26.3283C24.148 26.3388 23.8851 26.3434 23.8054 26.3914C23.7581 26.4199 23.7004 26.4764 23.677 26.5169C23.6256 26.6064 23.6049 26.7964 23.6372 26.8822ZM36.9899 41.1061C37.4193 40.1504 37.915 39.0427 38.5461 37.6283C39.2521 36.0458 39.9728 34.434 40.1556 34.0283L40.3085 33.6891L40.5787 33.6886L40.8489 33.6882L40.8627 33.8165C40.8703 33.8871 40.8954 34.5086 40.9186 35.1978C40.9417 35.8869 40.9675 36.4915 40.9759 36.5414C41.015 36.7728 41.1548 36.9185 41.3382 36.9186C41.4118 36.9187 41.6961 36.7892 42.3726 36.4473C42.8857 36.188 43.316 35.9688 43.3288 35.96C43.3417 35.9513 43.1224 36.459 42.8415 37.0881C42.5606 37.7174 42.098 38.7552 41.8135 39.3946C41.5289 40.0339 41.1382 40.9102 40.9452 41.342C40.7522 41.7737 40.4236 42.5113 40.215 42.9811C40.0064 43.4509 39.8279 43.8245 39.8182 43.8114C39.8 43.7866 39.7419 43.5724 39.472 42.5346C39.1196 41.1797 39.0696 41.0374 38.9361 41.01C38.839 40.9901 38.4751 41.1258 36.9601 41.747C36.796 41.8143 36.6617 41.8619 36.6617 41.8529C36.6617 41.8438 36.8094 41.5077 36.9899 41.1061ZM38.3674 28.0842C38.7494 27.6923 39.0888 27.3292 39.1216 27.2775C39.196 27.1603 39.2041 26.8819 39.1376 26.7348C39.1135 26.6817 38.851 26.2196 38.5541 25.7079C38.2572 25.1962 38.0143 24.7661 38.0143 24.7522C38.0143 24.7382 38.077 24.6861 38.1536 24.6365C38.2302 24.5869 38.442 24.4476 38.6243 24.3269C38.8067 24.2062 39.0215 24.0643 39.1017 24.0115C40.0253 23.4033 40.0119 23.4139 40.0732 23.2501C40.1543 23.0335 40.1341 22.9629 39.7112 21.9824C39.4921 21.4744 39.3161 21.0558 39.32 21.0522C39.324 21.0486 39.8586 21.0117 40.5082 20.9703C41.4278 20.9117 41.7066 20.8846 41.768 20.848C41.8811 20.7804 42.0428 20.581 42.0684 20.4772C42.0805 20.4283 42.0786 19.916 42.0641 19.3387C42.0496 18.7614 42.045 18.2807 42.054 18.2705C42.0629 18.2603 42.2407 18.3344 42.4491 18.4351C43.8648 19.1191 44.1651 19.2611 44.2524 19.2879C44.3615 19.3214 44.552 19.2821 44.6778 19.2002C44.7178 19.1742 44.9201 18.901 45.1274 18.5931C45.9033 17.4408 46.0292 17.2604 46.051 17.2694C46.0633 17.2744 46.3441 17.6793 46.6751 18.1692C47.006 18.6591 47.3015 19.0907 47.3318 19.1284C47.4006 19.2141 47.7009 19.3231 47.7968 19.2972C47.8643 19.279 48.9748 18.7535 49.6953 18.3988C49.8838 18.306 50.0422 18.2347 50.0471 18.2404C50.0521 18.2461 50.0435 18.7297 50.0281 19.3152C50.0084 20.0625 50.0084 20.4084 50.028 20.4762C50.0608 20.5894 50.2498 20.8094 50.3516 20.8529C50.3906 20.8696 50.9097 20.9116 51.5053 20.9463C52.1009 20.9809 52.631 21.019 52.6834 21.031L52.7786 21.0526L52.3851 21.9684C52.0476 22.7535 51.9915 22.9043 51.9919 23.0251C51.9925 23.2216 52.0789 23.3822 52.2434 23.4925C52.4112 23.6051 53.3178 24.1995 53.7021 24.449C53.8626 24.5531 54.0202 24.6569 54.0524 24.6795C54.1099 24.72 54.101 24.7377 53.5405 25.7041C53.2268 26.2449 52.9588 26.7214 52.9449 26.7629C52.9001 26.8971 52.9161 27.1129 52.9798 27.2332C53.0124 27.2947 53.3494 27.6598 53.7286 28.0446C54.1079 28.4294 54.434 28.7609 54.4533 28.7814C54.4816 28.8114 54.3714 28.8863 53.883 29.169C52.4839 29.9791 52.5343 29.9379 52.5365 30.2711C52.5379 30.4888 52.5026 30.3813 53.1505 32.1427C53.2745 32.4801 53.3718 32.7605 53.3667 32.766C53.3615 32.7714 52.8042 32.8049 52.1281 32.8403C51.2649 32.8856 50.8732 32.917 50.8126 32.9458C50.6891 33.0046 50.6112 33.1465 50.5828 33.3648C50.5693 33.4679 50.5412 34.0804 50.5202 34.7259C50.4992 35.3714 50.4768 35.9055 50.4704 35.9128C50.4609 35.9237 49.5568 35.4758 48.3513 34.8629C48.2236 34.798 48.0822 34.7449 48.037 34.7449C47.8542 34.7449 47.8034 34.8043 46.9231 36.0473C46.2335 37.0212 46.0622 37.2465 46.0358 37.2148C46.0178 37.1931 45.6375 36.6591 45.1908 36.0281C44.366 34.8629 44.2673 34.7464 44.1034 34.7454C44.0604 34.7451 43.6252 34.9479 43.1221 35.2027C41.5445 36.0015 41.648 35.9528 41.647 35.8971C41.6465 35.8695 41.6241 35.2756 41.5971 34.5773C41.5521 33.4082 41.5438 33.2977 41.4923 33.1829C41.4283 33.0401 41.356 32.9735 41.2235 32.9353C41.1724 32.9205 40.6055 32.8849 39.9637 32.8561C39.3219 32.8273 38.7878 32.7948 38.7767 32.7839C38.7586 32.7658 38.9846 32.1128 39.4166 30.9354C39.5556 30.5565 39.5791 30.4655 39.5791 30.3074C39.5791 30.0883 39.5332 29.9724 39.414 29.8904C39.2905 29.8054 38.8591 29.5506 38.206 29.1768C37.8957 28.9992 37.6487 28.8411 37.6573 28.8254C37.6658 28.8097 37.9854 28.4761 38.3674 28.0842ZM38.9082 11.2843C38.9344 11.3418 38.9976 11.4166 39.0487 11.4504C39.1395 11.5104 39.1853 11.5119 41.1174 11.5199C43.3268 11.5289 43.2077 11.5399 43.3404 11.3155C43.4467 11.1357 43.3842 10.8882 43.2058 10.783C43.1282 10.7372 42.9284 10.7311 41.1439 10.7197C39.2702 10.7078 39.1634 10.71 39.0771 10.7622C38.8935 10.8734 38.8219 11.0949 38.9082 11.2843ZM40.5748 28.1629C40.8172 30.138 41.8134 31.8023 43.3383 32.7797C44.1648 33.3095 45.2707 33.6067 46.218 33.5536C46.5867 33.5329 47.0363 33.4756 47.0716 33.4448C47.0862 33.432 47.1958 33.3932 47.3151 33.3585C47.6613 33.2579 47.9744 33.124 48.3447 32.9182C48.9589 32.5768 49.3664 32.2371 49.8707 31.6457C50.6376 30.7465 51.1087 29.6863 51.3179 28.3894C51.3847 27.9753 51.3979 27.0012 51.3429 26.5508C51.0564 24.2072 49.6273 22.2383 47.6944 21.5243C46.9634 21.2543 46.7367 21.207 46.1036 21.1921C44.8786 21.1633 43.6805 21.6038 42.6874 22.4479C42.4293 22.6674 41.956 23.188 41.7465 23.4831C41.1596 24.3097 40.7591 25.3319 40.599 26.4118C40.5385 26.82 40.5255 27.7613 40.5748 28.1629ZM41.2503 26.9456C41.4001 24.8878 42.5566 23.1049 44.2205 22.3668C44.8085 22.1059 45.2886 22.0085 46.0373 21.9981C46.5099 21.9916 46.5601 21.9964 46.8462 22.0756C47.3351 22.2108 47.6909 22.3478 48.0175 22.5265C49.3875 23.2763 50.3652 24.7491 50.6266 26.4571C50.717 27.0479 50.7036 27.9155 50.5952 28.48C50.4351 29.3144 50.0875 30.1409 49.6302 30.7746C49.3143 31.2122 48.8206 31.7029 48.4199 31.9772C47.2826 32.756 45.8477 32.9626 44.5918 32.5285C42.75 31.8918 41.4096 30.0104 41.2525 27.8413C41.2216 27.4149 41.2214 27.3428 41.2503 26.9456ZM47.2981 12.4628C47.5842 9.99855 48.4238 8.03933 49.5851 7.12552C50.0376 6.76946 50.4134 6.63184 50.9306 6.63287C51.3324 6.63365 51.5768 6.69694 51.9251 6.89035C52.9525 7.46072 53.8201 8.87789 54.3109 10.7871C54.4648 11.386 54.5493 11.834 54.6158 12.4024C54.6458 12.6598 54.6762 12.9194 54.6833 12.9793L54.6961 13.0881L53.8543 13.1075C53.3913 13.1181 51.7082 13.1357 50.1141 13.1465L47.2156 13.1663L47.2297 13.0485C47.2374 12.9838 47.2682 12.7202 47.2981 12.4628ZM49.1025 36.1066C50.061 36.5913 50.6607 36.8864 50.7236 36.9042C50.8785 36.9481 51.0915 36.79 51.1408 36.5945C51.1537 36.5433 51.1857 35.8694 51.2119 35.0971L51.2595 33.6929L51.5054 33.6719C51.6407 33.6604 51.7666 33.6576 51.7852 33.6659C51.8205 33.6816 51.8648 33.7769 52.7275 35.696C53.0186 36.3436 53.4403 37.2811 53.6645 37.7793C55.1606 41.103 55.4843 41.8259 55.4795 41.8329C55.4765 41.8372 55.4215 41.8189 55.3572 41.7922C55.293 41.7654 55.1091 41.6915 54.9486 41.6278C54.7882 41.5642 54.3652 41.3956 54.0087 41.2534C53.5825 41.0833 53.3215 40.9948 53.2466 40.9948C53.1345 40.9948 53.1314 40.9975 53.0557 41.1684C53.0134 41.2638 52.9668 41.3895 52.9522 41.4476C52.9375 41.5058 52.8522 41.8318 52.7625 42.1723C52.6728 42.5127 52.563 42.9339 52.5186 43.1082C52.4742 43.2826 52.4113 43.5192 52.3789 43.6341L52.32 43.843L52.0061 43.1359C51.8335 42.7471 51.618 42.2659 51.5273 42.0666C51.4366 41.8673 51.1682 41.2695 50.9308 40.7381C50.6934 40.2067 50.389 39.5274 50.2542 39.2285C50.1195 38.9296 49.7788 38.1687 49.4972 37.5377C49.2155 36.9067 48.9405 36.2953 48.8859 36.179C48.8314 36.0628 48.7896 35.9645 48.793 35.9605C48.7965 35.9566 48.9357 36.0223 49.1025 36.1066Z" stroke="#EC6A2D" stroke-width="0.4" mask="url(#path-1-outside-1_1424_31882)"/>
</svg>
