<svg width="22" height="22" viewBox="0 0 22 22" fill="none" xmlns="http://www.w3.org/2000/svg">
<path d="M18.8366 2.12287C18.3074 1.63629 16.1647 0.0783852 11.3886 0.057044C11.3886 0.057044 5.75879 -0.284414 3.01432 2.23384C1.4863 3.76187 0.948502 5.99415 0.893015 8.7685C0.837528 11.5386 0.764968 16.733 5.7716 18.1415H5.77587L5.7716 20.2884C5.7716 20.2884 5.74172 21.1592 6.31366 21.3342C7.00512 21.5476 7.41487 20.886 8.07644 20.1732C8.43924 19.7805 8.93862 19.2086 9.3185 18.769C12.7416 19.0549 15.3751 18.3976 15.6739 18.2994C16.3653 18.0732 20.2793 17.5739 20.9153 12.3794C21.5726 7.0356 20.5952 3.65089 18.8366 2.12287ZM19.4171 12.0038C18.8793 16.3403 15.708 16.6135 15.1233 16.8013C14.8757 16.8824 12.5623 17.4586 9.65142 17.2665C9.65142 17.2665 7.48316 19.883 6.80878 20.5616C6.70207 20.6683 6.57829 20.711 6.4972 20.6897C6.38196 20.6598 6.34781 20.5232 6.35208 20.3226C6.35208 20.0324 6.36915 16.7501 6.36915 16.7501C6.36488 16.7501 6.36488 16.7501 6.36915 16.7501C2.1308 15.5763 2.37836 11.1544 2.42531 8.84106C2.47226 6.52768 2.90762 4.62832 4.20089 3.35212C6.51854 1.25215 11.3032 1.56373 11.3032 1.56373C15.341 1.5808 17.2745 2.79725 17.7226 3.20273C19.2122 4.4832 19.972 7.53498 19.4171 12.0038Z" fill="white"/>
<path d="M13.3554 8.92233C13.2145 8.92233 13.095 8.81135 13.0865 8.66623C13.0395 7.74856 12.6085 7.3004 11.7292 7.25345C11.5798 7.24491 11.4646 7.11686 11.4731 6.96748C11.4816 6.81809 11.6097 6.70285 11.7591 6.71138C12.92 6.77541 13.5688 7.44125 13.6286 8.63635C13.6371 8.78574 13.5219 8.91379 13.3725 8.91806C13.3639 8.92233 13.3597 8.92233 13.3554 8.92233Z" fill="white"/>
<path d="M14.7385 9.38303H14.7342C14.5848 9.37876 14.4653 9.25498 14.4696 9.10559C14.4909 8.18366 14.2263 7.43672 13.6629 6.82209C13.1037 6.20747 12.3312 5.87455 11.3111 5.80199C11.1617 5.78918 11.0507 5.66113 11.0635 5.51175C11.0763 5.36236 11.2044 5.25138 11.3537 5.26419C12.5062 5.34955 13.4153 5.75077 14.0641 6.45929C14.7171 7.17209 15.033 8.06415 15.0116 9.1184C15.0073 9.26779 14.8836 9.38303 14.7385 9.38303Z" fill="white"/>
<path d="M16.156 9.93818C16.0066 9.93818 15.8871 9.81867 15.8871 9.66928C15.8743 8.01748 15.4005 6.75835 14.4359 5.81507C13.4841 4.8846 12.2762 4.41083 10.8548 4.39802C10.7054 4.39802 10.5859 4.27424 10.5859 4.12486C10.5859 3.97547 10.7097 3.85596 10.8548 3.85596C12.4213 3.86876 13.753 4.39375 14.8072 5.42666C15.8657 6.45958 16.4078 7.88516 16.4249 9.66074C16.4291 9.8144 16.3096 9.93818 16.156 9.93818C16.1602 9.93818 16.1602 9.93818 16.156 9.93818Z" fill="white"/>
<path d="M11.7938 12.2643C11.7938 12.2643 12.1736 12.2984 12.3785 12.0466L12.7755 11.5472C12.9675 11.2997 13.4328 11.1418 13.8852 11.3936C14.137 11.5344 14.5937 11.8161 14.8754 12.0253C15.1785 12.2472 15.7931 12.7594 15.7974 12.7637C16.0919 13.0112 16.1602 13.374 15.9596 13.7624C15.9596 13.7624 15.9596 13.7667 15.9596 13.771C15.7547 14.1338 15.4772 14.4752 15.1315 14.7911C15.1273 14.7911 15.1273 14.7954 15.123 14.7954C14.837 15.0344 14.5553 15.171 14.2821 15.2008C14.248 15.2094 14.2096 15.2094 14.1584 15.2094C14.0389 15.2094 13.9193 15.1923 13.7998 15.1539L13.7913 15.1411C13.3645 15.0216 12.6559 14.7228 11.4779 14.0698C10.7096 13.6472 10.0737 13.2161 9.53161 12.785C9.24563 12.5588 8.95539 12.307 8.65662 12.0082C8.64808 11.9997 8.63528 11.9869 8.62674 11.9783C8.6182 11.9698 8.6054 11.957 8.59686 11.9484C8.58833 11.9399 8.57552 11.9271 8.56699 11.9186C8.55845 11.91 8.54564 11.8972 8.53711 11.8887C8.2426 11.5899 7.98651 11.2997 7.76029 11.0137C7.3292 10.4759 6.89811 9.83568 6.47555 9.0674C5.82252 7.8851 5.52374 7.17657 5.40423 6.75402L5.39142 6.74548C5.35301 6.62597 5.33594 6.50646 5.33594 6.38695C5.33594 6.33573 5.33594 6.29732 5.34447 6.26317C5.37862 5.98573 5.5152 5.7083 5.74996 5.42233C5.74996 5.41806 5.75422 5.41806 5.75422 5.41379C6.07007 5.0638 6.41153 4.79063 6.77433 4.58576C6.77433 4.58576 6.7786 4.58576 6.78287 4.58576C7.16701 4.38515 7.52981 4.45344 7.78163 4.74795C7.78163 4.74795 8.29809 5.36684 8.52004 5.66989C8.72918 5.95586 9.01088 6.40829 9.15173 6.66011C9.40356 7.11255 9.24563 7.57778 8.99808 7.76985L8.49869 8.1668C8.24687 8.37167 8.28101 8.75155 8.28101 8.75155C8.28101 8.75155 9.01942 11.56 11.7938 12.2643Z" fill="white"/>
</svg>
