<svg width="16" height="16" viewBox="0 0 16 16" fill="none" xmlns="http://www.w3.org/2000/svg">
<path d="M8.00065 1.3335C9.81199 1.3335 10.038 1.34016 10.7487 1.3735C11.4587 1.40683 11.942 1.51816 12.3673 1.6835C12.8073 1.85283 13.178 2.08216 13.5487 2.45216C13.8876 2.78543 14.15 3.18856 14.3173 3.6335C14.482 4.05816 14.594 4.54216 14.6273 5.25216C14.6587 5.96283 14.6673 6.18883 14.6673 8.00016C14.6673 9.8115 14.6607 10.0375 14.6273 10.7482C14.594 11.4582 14.482 11.9415 14.3173 12.3668C14.1504 12.812 13.8881 13.2152 13.5487 13.5482C13.2153 13.887 12.8122 14.1493 12.3673 14.3168C11.9427 14.4815 11.4587 14.5935 10.7487 14.6268C10.038 14.6582 9.81199 14.6668 8.00065 14.6668C6.18932 14.6668 5.96332 14.6602 5.25265 14.6268C4.54265 14.5935 4.05932 14.4815 3.63398 14.3168C3.18887 14.1498 2.78567 13.8875 2.45265 13.5482C2.11359 13.215 1.85127 12.8118 1.68398 12.3668C1.51865 11.9422 1.40732 11.4582 1.37398 10.7482C1.34265 10.0375 1.33398 9.8115 1.33398 8.00016C1.33398 6.18883 1.34065 5.96283 1.37398 5.25216C1.40732 4.5415 1.51865 4.05883 1.68398 3.6335C1.85081 3.18828 2.11319 2.78504 2.45265 2.45216C2.78577 2.11298 3.18894 1.85065 3.63398 1.6835C4.05932 1.51816 4.54198 1.40683 5.25265 1.3735C5.96332 1.34216 6.18932 1.3335 8.00065 1.3335ZM8.00065 4.66683C7.1166 4.66683 6.26875 5.01802 5.64363 5.64314C5.01851 6.26826 4.66732 7.11611 4.66732 8.00016C4.66732 8.88422 5.01851 9.73207 5.64363 10.3572C6.26875 10.9823 7.1166 11.3335 8.00065 11.3335C8.88471 11.3335 9.73255 10.9823 10.3577 10.3572C10.9828 9.73207 11.334 8.88422 11.334 8.00016C11.334 7.11611 10.9828 6.26826 10.3577 5.64314C9.73255 5.01802 8.88471 4.66683 8.00065 4.66683ZM12.334 4.50016C12.334 4.27915 12.2462 4.06719 12.0899 3.91091C11.9336 3.75463 11.7217 3.66683 11.5007 3.66683C11.2796 3.66683 11.0677 3.75463 10.9114 3.91091C10.7551 4.06719 10.6673 4.27915 10.6673 4.50016C10.6673 4.72118 10.7551 4.93314 10.9114 5.08942C11.0677 5.2457 11.2796 5.3335 11.5007 5.3335C11.7217 5.3335 11.9336 5.2457 12.0899 5.08942C12.2462 4.93314 12.334 4.72118 12.334 4.50016ZM8.00065 6.00016C8.53108 6.00016 9.03979 6.21088 9.41487 6.58595C9.78994 6.96102 10.0007 7.46973 10.0007 8.00016C10.0007 8.5306 9.78994 9.0393 9.41487 9.41438C9.03979 9.78945 8.53108 10.0002 8.00065 10.0002C7.47022 10.0002 6.96151 9.78945 6.58644 9.41438C6.21136 9.0393 6.00065 8.5306 6.00065 8.00016C6.00065 7.46973 6.21136 6.96102 6.58644 6.58595C6.96151 6.21088 7.47022 6.00016 8.00065 6.00016Z" fill="white"/>
</svg>
