<svg width="64" height="64" viewBox="0 0 64 64" fill="none" xmlns="http://www.w3.org/2000/svg">
<mask id="path-1-outside-1_1424_31885" maskUnits="userSpaceOnUse" x="1" y="9.5" width="62" height="45" fill="black">
<rect fill="white" x="1" y="9.5" width="62" height="45"/>
<path fill-rule="evenodd" clip-rule="evenodd" d="M7.66929 10.505C7.56744 10.5184 7.37303 10.7206 7.33783 10.8497C7.3201 10.9148 7.30308 16.7096 7.29058 26.9522C7.27299 41.3473 7.27546 42.965 7.31498 43.0727C7.39544 43.2922 7.62894 43.3852 7.81725 43.2727C8.02495 43.1487 8.00839 43.5176 8.02813 38.5817C8.03791 36.1416 8.04816 29.1835 8.05092 23.1191C8.0537 17.0548 8.06084 11.9261 8.06677 11.7221L8.07757 11.3511L10.5687 11.3715C14.7252 11.4056 17.3285 11.4247 22.3358 11.4578C31.4255 11.518 36.1905 11.5532 37.5494 11.5704C38.2995 11.5799 42.8316 11.6189 47.6208 11.6571C52.4101 11.6952 56.336 11.7356 56.3452 11.7467C56.3543 11.7578 56.2864 18.8634 56.1942 27.5369C56.102 36.2103 56.0338 43.3398 56.0426 43.3802C56.0694 43.5031 56.1988 43.651 56.3139 43.6907C56.4085 43.7232 56.4393 43.7191 56.5468 43.6593C56.7655 43.5377 56.7693 43.5193 56.7861 42.4726C56.7942 41.9653 56.8446 37.3078 56.898 32.1226C56.9515 26.9375 57.0225 20.1309 57.0558 16.9969C57.1151 11.4304 57.1153 11.2959 57.0634 11.1772C57.0342 11.1103 56.9592 11.0149 56.8967 10.9652L56.7831 10.8749L54.837 10.8548C53.7667 10.8438 50.2765 10.8138 47.081 10.7883C43.8856 10.7627 40.4402 10.7336 39.4245 10.7235C38.4088 10.7134 35.7305 10.6913 33.4726 10.6742C31.2147 10.6572 28.319 10.6353 27.0377 10.6254C25.7564 10.6155 21.3457 10.5858 17.2362 10.5592C13.1266 10.5327 9.31046 10.5073 8.75575 10.5028C8.20104 10.4983 7.71213 10.4993 7.66929 10.505ZM28.7375 20.5942C28.6705 20.6344 28.6442 20.7624 28.5842 21.3413C28.5665 21.5117 28.5351 21.7393 28.5145 21.8469C28.4939 21.9546 28.3772 22.8892 28.2552 23.9239L28.0334 25.8052L27.7202 25.9431C26.7837 26.3555 25.8696 26.8547 25.2867 27.2722L24.9306 27.5271L24.6413 27.2728C23.3284 26.1184 21.4024 24.454 21.3346 24.4152C21.2158 24.3472 21.0616 24.3807 20.8929 24.5112C20.8141 24.5721 20.0934 25.3114 19.2913 26.154C17.3541 28.1894 17.1123 28.4481 17.0579 28.5434C16.98 28.6799 17.0005 28.8094 17.1365 29.0402C17.286 29.294 18.735 31.6915 19.2293 32.5026C19.4222 32.8193 19.58 33.0863 19.58 33.0959C19.58 33.1335 18.5203 35.2247 18.4762 35.2742C18.4442 35.3101 18.2275 35.3642 17.7902 35.4457C13.9259 36.1652 13.6887 36.2143 13.6233 36.3076C13.5893 36.3562 13.5548 36.4401 13.5466 36.4939C13.5385 36.5477 13.5234 38.023 13.513 39.7724L13.4941 42.9529L13.562 43.0666C13.6827 43.2691 13.8848 43.3215 14.063 43.1968C14.247 43.068 14.2391 43.197 14.2613 39.9525C14.2724 38.3313 14.2887 36.9968 14.2974 36.9867C14.3115 36.9705 17.6185 36.3351 18.3868 36.201C18.7352 36.1401 18.8953 36.08 18.9767 35.9793C19.0316 35.9114 20.1577 33.6935 20.264 33.4438C20.3603 33.2177 20.387 33.0619 20.3523 32.9289C20.3346 32.861 20.2136 32.6298 20.0835 32.4151C18.4737 29.7592 17.9017 28.8037 17.9091 28.7834C17.927 28.7346 21.1559 25.3537 21.1843 25.3541C21.2004 25.3543 21.9815 26.0259 22.92 26.8466C23.8585 27.6673 24.6613 28.3571 24.704 28.3795C24.8001 28.4297 24.9904 28.4322 25.0684 28.3843C25.1005 28.3646 25.1987 28.2864 25.2867 28.2107C25.5996 27.9412 26.1982 27.5956 27.1581 27.1302C27.5056 26.9618 27.985 26.7478 28.2235 26.6548C28.462 26.5618 28.6725 26.4639 28.6914 26.4372C28.7103 26.4106 28.7324 26.3284 28.7405 26.2545C28.7486 26.1807 28.8795 25.0619 29.0314 23.7682L29.3075 21.4161L31.7523 21.4282C34.4616 21.4416 35.0067 21.4568 35.0067 21.5185C35.0067 21.5405 35.1154 22.5738 35.2482 23.8148C35.381 25.0557 35.4898 26.1188 35.4899 26.1772C35.49 26.2356 35.5028 26.3365 35.5186 26.4014C35.5459 26.5142 35.5585 26.5239 35.8096 26.624C36.9145 27.0642 38.5271 27.9363 38.956 28.3256C39.2398 28.5831 39.3992 28.6032 39.6376 28.4112C39.7079 28.3546 40.4983 27.6866 41.3941 26.9268C42.29 26.1671 43.0386 25.5385 43.0578 25.53C43.077 25.5215 43.3257 25.7657 43.6105 26.0727C45.3724 27.9722 46.3007 28.9804 46.3073 29.0019C46.316 29.0305 46.2884 29.0757 44.9077 31.2907C44.3318 32.2147 43.8415 33.0264 43.8182 33.0945C43.7799 33.2066 43.7806 33.2359 43.8262 33.4045C43.854 33.5068 44.0049 33.8548 44.1616 34.1778C45.1814 36.2787 45.1665 36.2509 45.3033 36.304C45.3357 36.3165 46.3658 36.5333 47.5924 36.7856L49.8226 37.2445L49.8131 40.1878C49.8062 42.345 49.8124 43.1615 49.8363 43.2449C49.9036 43.4789 50.1348 43.6052 50.3272 43.5129C50.4488 43.4545 50.5187 43.3419 50.5491 43.1555C50.5614 43.08 50.5739 41.6063 50.577 39.8807L50.5826 36.7432L50.5208 36.6284C50.4868 36.5653 50.4373 36.5062 50.4107 36.4973C50.3841 36.4883 49.3077 36.2661 48.0186 36.0034C46.7295 35.7408 45.6716 35.5224 45.6677 35.5179C45.6602 35.5095 45.0358 34.2311 44.7478 33.6347L44.58 33.2873L45.8855 31.1906C46.6035 30.0375 47.1989 29.0575 47.2087 29.013C47.2472 28.837 47.1262 28.6908 45.4191 26.8506C43.4578 24.7365 43.4953 24.776 43.3333 24.6512C43.17 24.5253 42.992 24.5189 42.8479 24.6337C42.7932 24.6774 41.9722 25.3717 41.0234 26.1768L39.2984 27.6405L39.0915 27.4804C38.5104 27.0304 37.6788 26.5489 36.6829 26.0857C36.3281 25.9207 36.2384 25.8661 36.2213 25.8049C36.2096 25.763 36.1098 24.8784 35.9996 23.8389C35.8894 22.7995 35.7875 21.8893 35.7733 21.8164C35.7591 21.7435 35.7269 21.4835 35.7019 21.2386C35.6421 20.6536 35.6447 20.6626 35.5219 20.6253C35.3637 20.577 28.816 20.547 28.7375 20.5942ZM31.1998 30.3124C30.1054 30.4166 29.2828 30.637 28.1173 31.1384C26.2284 31.9508 24.6895 33.1027 23.2875 34.7536C21.4899 36.8704 20.379 39.4477 20.1063 42.1342C20.0828 42.3658 20.0623 42.7068 20.0607 42.8922C20.0582 43.1812 20.0663 43.245 20.1175 43.3401C20.2545 43.5946 20.5895 43.5962 20.734 43.343C20.768 43.2836 20.788 43.133 20.8069 42.7971C20.8627 41.8052 20.9963 41.0237 21.2722 40.076C21.6676 38.7174 22.2708 37.4591 23.0911 36.2819C23.4516 35.7645 24.3542 34.7147 24.7791 34.3186C26.2309 32.9653 27.7546 32.0635 29.4484 31.555C31.161 31.041 32.8139 31.0342 34.5276 31.5342C38.3086 32.6373 41.525 35.9413 42.7379 39.9681C43.0438 40.9839 43.1948 41.8664 43.2419 42.9152C43.2676 43.4857 43.2871 43.5481 43.4766 43.6673C43.6656 43.7862 43.9131 43.6534 43.98 43.3972C44.019 43.2474 43.9847 42.4939 43.9108 41.8784C43.4184 37.7787 40.8243 33.8465 37.2653 31.805C35.8564 30.9968 34.5782 30.5342 33.2737 30.3604C32.8194 30.2999 31.622 30.2722 31.1998 30.3124ZM2.15914 46.203C2.02411 46.2605 1.98257 46.456 2.00632 46.9221C2.10189 48.7986 2.75041 50.8796 3.66652 52.2497C3.87142 52.5561 4.21123 52.9504 4.33715 53.0278C4.44624 53.0949 4.49226 53.0986 5.31812 53.1066C5.7947 53.1112 10.6592 53.1513 16.1282 53.1957C21.5971 53.2401 27.5675 53.2912 29.3957 53.3091C31.2239 53.327 38.7367 53.3816 46.0907 53.4304C59.3586 53.5184 59.4626 53.5186 59.585 53.4554C59.8392 53.3242 60.383 52.595 60.7524 51.8899C61.4682 50.5238 61.9811 48.6045 61.9994 47.2241C62.0061 46.7184 61.9635 46.6499 61.6325 46.6339C61.5123 46.6282 59.4324 46.6087 57.0104 46.5907C54.5884 46.5727 51.8078 46.5497 50.8312 46.5396C49.8546 46.5295 45.6676 46.4928 41.5269 46.458C37.3861 46.4232 33.0457 46.3867 31.8816 46.3767C30.7175 46.3667 24.2613 46.3233 17.5345 46.2803C10.8077 46.2372 4.61355 46.1949 3.76977 46.1862C2.78348 46.176 2.20832 46.182 2.15914 46.203ZM10.7729 47.0944C14.4683 47.1202 18.6744 47.1501 20.1198 47.1608C21.5652 47.1715 24.6846 47.1938 27.0519 47.2103C36.8686 47.2788 60.285 47.4745 60.7392 47.4919L61.2293 47.5107V47.6131C61.2293 47.8002 61.1186 48.4984 61.0183 48.9437C60.7737 50.0302 60.3307 51.1612 59.8584 51.9047C59.6761 52.1918 59.3572 52.6169 59.3078 52.6387C59.2831 52.6495 56.18 52.6365 52.412 52.6096C48.644 52.5828 43.4644 52.5459 40.9018 52.5276C38.3392 52.5093 34.408 52.4803 32.1657 52.4631C29.9234 52.4459 27.0405 52.4239 25.7592 52.4143C24.4779 52.4046 22.6945 52.3894 21.796 52.3806C20.8975 52.3717 19.1972 52.3564 18.0175 52.3466C16.8377 52.3367 13.3475 52.3077 10.2615 52.2821L4.65048 52.2355L4.45721 52.0014C3.82375 51.234 3.19807 49.7106 2.91695 48.2513C2.85493 47.9293 2.76121 47.233 2.76121 47.0942C2.76121 47.0352 2.29323 47.0352 10.7729 47.0944Z"/>
</mask>
<path fill-rule="evenodd" clip-rule="evenodd" d="M7.66929 10.505C7.56744 10.5184 7.37303 10.7206 7.33783 10.8497C7.3201 10.9148 7.30308 16.7096 7.29058 26.9522C7.27299 41.3473 7.27546 42.965 7.31498 43.0727C7.39544 43.2922 7.62894 43.3852 7.81725 43.2727C8.02495 43.1487 8.00839 43.5176 8.02813 38.5817C8.03791 36.1416 8.04816 29.1835 8.05092 23.1191C8.0537 17.0548 8.06084 11.9261 8.06677 11.7221L8.07757 11.3511L10.5687 11.3715C14.7252 11.4056 17.3285 11.4247 22.3358 11.4578C31.4255 11.518 36.1905 11.5532 37.5494 11.5704C38.2995 11.5799 42.8316 11.6189 47.6208 11.6571C52.4101 11.6952 56.336 11.7356 56.3452 11.7467C56.3543 11.7578 56.2864 18.8634 56.1942 27.5369C56.102 36.2103 56.0338 43.3398 56.0426 43.3802C56.0694 43.5031 56.1988 43.651 56.3139 43.6907C56.4085 43.7232 56.4393 43.7191 56.5468 43.6593C56.7655 43.5377 56.7693 43.5193 56.7861 42.4726C56.7942 41.9653 56.8446 37.3078 56.898 32.1226C56.9515 26.9375 57.0225 20.1309 57.0558 16.9969C57.1151 11.4304 57.1153 11.2959 57.0634 11.1772C57.0342 11.1103 56.9592 11.0149 56.8967 10.9652L56.7831 10.8749L54.837 10.8548C53.7667 10.8438 50.2765 10.8138 47.081 10.7883C43.8856 10.7627 40.4402 10.7336 39.4245 10.7235C38.4088 10.7134 35.7305 10.6913 33.4726 10.6742C31.2147 10.6572 28.319 10.6353 27.0377 10.6254C25.7564 10.6155 21.3457 10.5858 17.2362 10.5592C13.1266 10.5327 9.31046 10.5073 8.75575 10.5028C8.20104 10.4983 7.71213 10.4993 7.66929 10.505ZM28.7375 20.5942C28.6705 20.6344 28.6442 20.7624 28.5842 21.3413C28.5665 21.5117 28.5351 21.7393 28.5145 21.8469C28.4939 21.9546 28.3772 22.8892 28.2552 23.9239L28.0334 25.8052L27.7202 25.9431C26.7837 26.3555 25.8696 26.8547 25.2867 27.2722L24.9306 27.5271L24.6413 27.2728C23.3284 26.1184 21.4024 24.454 21.3346 24.4152C21.2158 24.3472 21.0616 24.3807 20.8929 24.5112C20.8141 24.5721 20.0934 25.3114 19.2913 26.154C17.3541 28.1894 17.1123 28.4481 17.0579 28.5434C16.98 28.6799 17.0005 28.8094 17.1365 29.0402C17.286 29.294 18.735 31.6915 19.2293 32.5026C19.4222 32.8193 19.58 33.0863 19.58 33.0959C19.58 33.1335 18.5203 35.2247 18.4762 35.2742C18.4442 35.3101 18.2275 35.3642 17.7902 35.4457C13.9259 36.1652 13.6887 36.2143 13.6233 36.3076C13.5893 36.3562 13.5548 36.4401 13.5466 36.4939C13.5385 36.5477 13.5234 38.023 13.513 39.7724L13.4941 42.9529L13.562 43.0666C13.6827 43.2691 13.8848 43.3215 14.063 43.1968C14.247 43.068 14.2391 43.197 14.2613 39.9525C14.2724 38.3313 14.2887 36.9968 14.2974 36.9867C14.3115 36.9705 17.6185 36.3351 18.3868 36.201C18.7352 36.1401 18.8953 36.08 18.9767 35.9793C19.0316 35.9114 20.1577 33.6935 20.264 33.4438C20.3603 33.2177 20.387 33.0619 20.3523 32.9289C20.3346 32.861 20.2136 32.6298 20.0835 32.4151C18.4737 29.7592 17.9017 28.8037 17.9091 28.7834C17.927 28.7346 21.1559 25.3537 21.1843 25.3541C21.2004 25.3543 21.9815 26.0259 22.92 26.8466C23.8585 27.6673 24.6613 28.3571 24.704 28.3795C24.8001 28.4297 24.9904 28.4322 25.0684 28.3843C25.1005 28.3646 25.1987 28.2864 25.2867 28.2107C25.5996 27.9412 26.1982 27.5956 27.1581 27.1302C27.5056 26.9618 27.985 26.7478 28.2235 26.6548C28.462 26.5618 28.6725 26.4639 28.6914 26.4372C28.7103 26.4106 28.7324 26.3284 28.7405 26.2545C28.7486 26.1807 28.8795 25.0619 29.0314 23.7682L29.3075 21.4161L31.7523 21.4282C34.4616 21.4416 35.0067 21.4568 35.0067 21.5185C35.0067 21.5405 35.1154 22.5738 35.2482 23.8148C35.381 25.0557 35.4898 26.1188 35.4899 26.1772C35.49 26.2356 35.5028 26.3365 35.5186 26.4014C35.5459 26.5142 35.5585 26.5239 35.8096 26.624C36.9145 27.0642 38.5271 27.9363 38.956 28.3256C39.2398 28.5831 39.3992 28.6032 39.6376 28.4112C39.7079 28.3546 40.4983 27.6866 41.3941 26.9268C42.29 26.1671 43.0386 25.5385 43.0578 25.53C43.077 25.5215 43.3257 25.7657 43.6105 26.0727C45.3724 27.9722 46.3007 28.9804 46.3073 29.0019C46.316 29.0305 46.2884 29.0757 44.9077 31.2907C44.3318 32.2147 43.8415 33.0264 43.8182 33.0945C43.7799 33.2066 43.7806 33.2359 43.8262 33.4045C43.854 33.5068 44.0049 33.8548 44.1616 34.1778C45.1814 36.2787 45.1665 36.2509 45.3033 36.304C45.3357 36.3165 46.3658 36.5333 47.5924 36.7856L49.8226 37.2445L49.8131 40.1878C49.8062 42.345 49.8124 43.1615 49.8363 43.2449C49.9036 43.4789 50.1348 43.6052 50.3272 43.5129C50.4488 43.4545 50.5187 43.3419 50.5491 43.1555C50.5614 43.08 50.5739 41.6063 50.577 39.8807L50.5826 36.7432L50.5208 36.6284C50.4868 36.5653 50.4373 36.5062 50.4107 36.4973C50.3841 36.4883 49.3077 36.2661 48.0186 36.0034C46.7295 35.7408 45.6716 35.5224 45.6677 35.5179C45.6602 35.5095 45.0358 34.2311 44.7478 33.6347L44.58 33.2873L45.8855 31.1906C46.6035 30.0375 47.1989 29.0575 47.2087 29.013C47.2472 28.837 47.1262 28.6908 45.4191 26.8506C43.4578 24.7365 43.4953 24.776 43.3333 24.6512C43.17 24.5253 42.992 24.5189 42.8479 24.6337C42.7932 24.6774 41.9722 25.3717 41.0234 26.1768L39.2984 27.6405L39.0915 27.4804C38.5104 27.0304 37.6788 26.5489 36.6829 26.0857C36.3281 25.9207 36.2384 25.8661 36.2213 25.8049C36.2096 25.763 36.1098 24.8784 35.9996 23.8389C35.8894 22.7995 35.7875 21.8893 35.7733 21.8164C35.7591 21.7435 35.7269 21.4835 35.7019 21.2386C35.6421 20.6536 35.6447 20.6626 35.5219 20.6253C35.3637 20.577 28.816 20.547 28.7375 20.5942ZM31.1998 30.3124C30.1054 30.4166 29.2828 30.637 28.1173 31.1384C26.2284 31.9508 24.6895 33.1027 23.2875 34.7536C21.4899 36.8704 20.379 39.4477 20.1063 42.1342C20.0828 42.3658 20.0623 42.7068 20.0607 42.8922C20.0582 43.1812 20.0663 43.245 20.1175 43.3401C20.2545 43.5946 20.5895 43.5962 20.734 43.343C20.768 43.2836 20.788 43.133 20.8069 42.7971C20.8627 41.8052 20.9963 41.0237 21.2722 40.076C21.6676 38.7174 22.2708 37.4591 23.0911 36.2819C23.4516 35.7645 24.3542 34.7147 24.7791 34.3186C26.2309 32.9653 27.7546 32.0635 29.4484 31.555C31.161 31.041 32.8139 31.0342 34.5276 31.5342C38.3086 32.6373 41.525 35.9413 42.7379 39.9681C43.0438 40.9839 43.1948 41.8664 43.2419 42.9152C43.2676 43.4857 43.2871 43.5481 43.4766 43.6673C43.6656 43.7862 43.9131 43.6534 43.98 43.3972C44.019 43.2474 43.9847 42.4939 43.9108 41.8784C43.4184 37.7787 40.8243 33.8465 37.2653 31.805C35.8564 30.9968 34.5782 30.5342 33.2737 30.3604C32.8194 30.2999 31.622 30.2722 31.1998 30.3124ZM2.15914 46.203C2.02411 46.2605 1.98257 46.456 2.00632 46.9221C2.10189 48.7986 2.75041 50.8796 3.66652 52.2497C3.87142 52.5561 4.21123 52.9504 4.33715 53.0278C4.44624 53.0949 4.49226 53.0986 5.31812 53.1066C5.7947 53.1112 10.6592 53.1513 16.1282 53.1957C21.5971 53.2401 27.5675 53.2912 29.3957 53.3091C31.2239 53.327 38.7367 53.3816 46.0907 53.4304C59.3586 53.5184 59.4626 53.5186 59.585 53.4554C59.8392 53.3242 60.383 52.595 60.7524 51.8899C61.4682 50.5238 61.9811 48.6045 61.9994 47.2241C62.0061 46.7184 61.9635 46.6499 61.6325 46.6339C61.5123 46.6282 59.4324 46.6087 57.0104 46.5907C54.5884 46.5727 51.8078 46.5497 50.8312 46.5396C49.8546 46.5295 45.6676 46.4928 41.5269 46.458C37.3861 46.4232 33.0457 46.3867 31.8816 46.3767C30.7175 46.3667 24.2613 46.3233 17.5345 46.2803C10.8077 46.2372 4.61355 46.1949 3.76977 46.1862C2.78348 46.176 2.20832 46.182 2.15914 46.203ZM10.7729 47.0944C14.4683 47.1202 18.6744 47.1501 20.1198 47.1608C21.5652 47.1715 24.6846 47.1938 27.0519 47.2103C36.8686 47.2788 60.285 47.4745 60.7392 47.4919L61.2293 47.5107V47.6131C61.2293 47.8002 61.1186 48.4984 61.0183 48.9437C60.7737 50.0302 60.3307 51.1612 59.8584 51.9047C59.6761 52.1918 59.3572 52.6169 59.3078 52.6387C59.2831 52.6495 56.18 52.6365 52.412 52.6096C48.644 52.5828 43.4644 52.5459 40.9018 52.5276C38.3392 52.5093 34.408 52.4803 32.1657 52.4631C29.9234 52.4459 27.0405 52.4239 25.7592 52.4143C24.4779 52.4046 22.6945 52.3894 21.796 52.3806C20.8975 52.3717 19.1972 52.3564 18.0175 52.3466C16.8377 52.3367 13.3475 52.3077 10.2615 52.2821L4.65048 52.2355L4.45721 52.0014C3.82375 51.234 3.19807 49.7106 2.91695 48.2513C2.85493 47.9293 2.76121 47.233 2.76121 47.0942C2.76121 47.0352 2.29323 47.0352 10.7729 47.0944Z" fill="#EC6A2D"/>
<path fill-rule="evenodd" clip-rule="evenodd" d="M7.66929 10.505C7.56744 10.5184 7.37303 10.7206 7.33783 10.8497C7.3201 10.9148 7.30308 16.7096 7.29058 26.9522C7.27299 41.3473 7.27546 42.965 7.31498 43.0727C7.39544 43.2922 7.62894 43.3852 7.81725 43.2727C8.02495 43.1487 8.00839 43.5176 8.02813 38.5817C8.03791 36.1416 8.04816 29.1835 8.05092 23.1191C8.0537 17.0548 8.06084 11.9261 8.06677 11.7221L8.07757 11.3511L10.5687 11.3715C14.7252 11.4056 17.3285 11.4247 22.3358 11.4578C31.4255 11.518 36.1905 11.5532 37.5494 11.5704C38.2995 11.5799 42.8316 11.6189 47.6208 11.6571C52.4101 11.6952 56.336 11.7356 56.3452 11.7467C56.3543 11.7578 56.2864 18.8634 56.1942 27.5369C56.102 36.2103 56.0338 43.3398 56.0426 43.3802C56.0694 43.5031 56.1988 43.651 56.3139 43.6907C56.4085 43.7232 56.4393 43.7191 56.5468 43.6593C56.7655 43.5377 56.7693 43.5193 56.7861 42.4726C56.7942 41.9653 56.8446 37.3078 56.898 32.1226C56.9515 26.9375 57.0225 20.1309 57.0558 16.9969C57.1151 11.4304 57.1153 11.2959 57.0634 11.1772C57.0342 11.1103 56.9592 11.0149 56.8967 10.9652L56.7831 10.8749L54.837 10.8548C53.7667 10.8438 50.2765 10.8138 47.081 10.7883C43.8856 10.7627 40.4402 10.7336 39.4245 10.7235C38.4088 10.7134 35.7305 10.6913 33.4726 10.6742C31.2147 10.6572 28.319 10.6353 27.0377 10.6254C25.7564 10.6155 21.3457 10.5858 17.2362 10.5592C13.1266 10.5327 9.31046 10.5073 8.75575 10.5028C8.20104 10.4983 7.71213 10.4993 7.66929 10.505ZM28.7375 20.5942C28.6705 20.6344 28.6442 20.7624 28.5842 21.3413C28.5665 21.5117 28.5351 21.7393 28.5145 21.8469C28.4939 21.9546 28.3772 22.8892 28.2552 23.9239L28.0334 25.8052L27.7202 25.9431C26.7837 26.3555 25.8696 26.8547 25.2867 27.2722L24.9306 27.5271L24.6413 27.2728C23.3284 26.1184 21.4024 24.454 21.3346 24.4152C21.2158 24.3472 21.0616 24.3807 20.8929 24.5112C20.8141 24.5721 20.0934 25.3114 19.2913 26.154C17.3541 28.1894 17.1123 28.4481 17.0579 28.5434C16.98 28.6799 17.0005 28.8094 17.1365 29.0402C17.286 29.294 18.735 31.6915 19.2293 32.5026C19.4222 32.8193 19.58 33.0863 19.58 33.0959C19.58 33.1335 18.5203 35.2247 18.4762 35.2742C18.4442 35.3101 18.2275 35.3642 17.7902 35.4457C13.9259 36.1652 13.6887 36.2143 13.6233 36.3076C13.5893 36.3562 13.5548 36.4401 13.5466 36.4939C13.5385 36.5477 13.5234 38.023 13.513 39.7724L13.4941 42.9529L13.562 43.0666C13.6827 43.2691 13.8848 43.3215 14.063 43.1968C14.247 43.068 14.2391 43.197 14.2613 39.9525C14.2724 38.3313 14.2887 36.9968 14.2974 36.9867C14.3115 36.9705 17.6185 36.3351 18.3868 36.201C18.7352 36.1401 18.8953 36.08 18.9767 35.9793C19.0316 35.9114 20.1577 33.6935 20.264 33.4438C20.3603 33.2177 20.387 33.0619 20.3523 32.9289C20.3346 32.861 20.2136 32.6298 20.0835 32.4151C18.4737 29.7592 17.9017 28.8037 17.9091 28.7834C17.927 28.7346 21.1559 25.3537 21.1843 25.3541C21.2004 25.3543 21.9815 26.0259 22.92 26.8466C23.8585 27.6673 24.6613 28.3571 24.704 28.3795C24.8001 28.4297 24.9904 28.4322 25.0684 28.3843C25.1005 28.3646 25.1987 28.2864 25.2867 28.2107C25.5996 27.9412 26.1982 27.5956 27.1581 27.1302C27.5056 26.9618 27.985 26.7478 28.2235 26.6548C28.462 26.5618 28.6725 26.4639 28.6914 26.4372C28.7103 26.4106 28.7324 26.3284 28.7405 26.2545C28.7486 26.1807 28.8795 25.0619 29.0314 23.7682L29.3075 21.4161L31.7523 21.4282C34.4616 21.4416 35.0067 21.4568 35.0067 21.5185C35.0067 21.5405 35.1154 22.5738 35.2482 23.8148C35.381 25.0557 35.4898 26.1188 35.4899 26.1772C35.49 26.2356 35.5028 26.3365 35.5186 26.4014C35.5459 26.5142 35.5585 26.5239 35.8096 26.624C36.9145 27.0642 38.5271 27.9363 38.956 28.3256C39.2398 28.5831 39.3992 28.6032 39.6376 28.4112C39.7079 28.3546 40.4983 27.6866 41.3941 26.9268C42.29 26.1671 43.0386 25.5385 43.0578 25.53C43.077 25.5215 43.3257 25.7657 43.6105 26.0727C45.3724 27.9722 46.3007 28.9804 46.3073 29.0019C46.316 29.0305 46.2884 29.0757 44.9077 31.2907C44.3318 32.2147 43.8415 33.0264 43.8182 33.0945C43.7799 33.2066 43.7806 33.2359 43.8262 33.4045C43.854 33.5068 44.0049 33.8548 44.1616 34.1778C45.1814 36.2787 45.1665 36.2509 45.3033 36.304C45.3357 36.3165 46.3658 36.5333 47.5924 36.7856L49.8226 37.2445L49.8131 40.1878C49.8062 42.345 49.8124 43.1615 49.8363 43.2449C49.9036 43.4789 50.1348 43.6052 50.3272 43.5129C50.4488 43.4545 50.5187 43.3419 50.5491 43.1555C50.5614 43.08 50.5739 41.6063 50.577 39.8807L50.5826 36.7432L50.5208 36.6284C50.4868 36.5653 50.4373 36.5062 50.4107 36.4973C50.3841 36.4883 49.3077 36.2661 48.0186 36.0034C46.7295 35.7408 45.6716 35.5224 45.6677 35.5179C45.6602 35.5095 45.0358 34.2311 44.7478 33.6347L44.58 33.2873L45.8855 31.1906C46.6035 30.0375 47.1989 29.0575 47.2087 29.013C47.2472 28.837 47.1262 28.6908 45.4191 26.8506C43.4578 24.7365 43.4953 24.776 43.3333 24.6512C43.17 24.5253 42.992 24.5189 42.8479 24.6337C42.7932 24.6774 41.9722 25.3717 41.0234 26.1768L39.2984 27.6405L39.0915 27.4804C38.5104 27.0304 37.6788 26.5489 36.6829 26.0857C36.3281 25.9207 36.2384 25.8661 36.2213 25.8049C36.2096 25.763 36.1098 24.8784 35.9996 23.8389C35.8894 22.7995 35.7875 21.8893 35.7733 21.8164C35.7591 21.7435 35.7269 21.4835 35.7019 21.2386C35.6421 20.6536 35.6447 20.6626 35.5219 20.6253C35.3637 20.577 28.816 20.547 28.7375 20.5942ZM31.1998 30.3124C30.1054 30.4166 29.2828 30.637 28.1173 31.1384C26.2284 31.9508 24.6895 33.1027 23.2875 34.7536C21.4899 36.8704 20.379 39.4477 20.1063 42.1342C20.0828 42.3658 20.0623 42.7068 20.0607 42.8922C20.0582 43.1812 20.0663 43.245 20.1175 43.3401C20.2545 43.5946 20.5895 43.5962 20.734 43.343C20.768 43.2836 20.788 43.133 20.8069 42.7971C20.8627 41.8052 20.9963 41.0237 21.2722 40.076C21.6676 38.7174 22.2708 37.4591 23.0911 36.2819C23.4516 35.7645 24.3542 34.7147 24.7791 34.3186C26.2309 32.9653 27.7546 32.0635 29.4484 31.555C31.161 31.041 32.8139 31.0342 34.5276 31.5342C38.3086 32.6373 41.525 35.9413 42.7379 39.9681C43.0438 40.9839 43.1948 41.8664 43.2419 42.9152C43.2676 43.4857 43.2871 43.5481 43.4766 43.6673C43.6656 43.7862 43.9131 43.6534 43.98 43.3972C44.019 43.2474 43.9847 42.4939 43.9108 41.8784C43.4184 37.7787 40.8243 33.8465 37.2653 31.805C35.8564 30.9968 34.5782 30.5342 33.2737 30.3604C32.8194 30.2999 31.622 30.2722 31.1998 30.3124ZM2.15914 46.203C2.02411 46.2605 1.98257 46.456 2.00632 46.9221C2.10189 48.7986 2.75041 50.8796 3.66652 52.2497C3.87142 52.5561 4.21123 52.9504 4.33715 53.0278C4.44624 53.0949 4.49226 53.0986 5.31812 53.1066C5.7947 53.1112 10.6592 53.1513 16.1282 53.1957C21.5971 53.2401 27.5675 53.2912 29.3957 53.3091C31.2239 53.327 38.7367 53.3816 46.0907 53.4304C59.3586 53.5184 59.4626 53.5186 59.585 53.4554C59.8392 53.3242 60.383 52.595 60.7524 51.8899C61.4682 50.5238 61.9811 48.6045 61.9994 47.2241C62.0061 46.7184 61.9635 46.6499 61.6325 46.6339C61.5123 46.6282 59.4324 46.6087 57.0104 46.5907C54.5884 46.5727 51.8078 46.5497 50.8312 46.5396C49.8546 46.5295 45.6676 46.4928 41.5269 46.458C37.3861 46.4232 33.0457 46.3867 31.8816 46.3767C30.7175 46.3667 24.2613 46.3233 17.5345 46.2803C10.8077 46.2372 4.61355 46.1949 3.76977 46.1862C2.78348 46.176 2.20832 46.182 2.15914 46.203ZM10.7729 47.0944C14.4683 47.1202 18.6744 47.1501 20.1198 47.1608C21.5652 47.1715 24.6846 47.1938 27.0519 47.2103C36.8686 47.2788 60.285 47.4745 60.7392 47.4919L61.2293 47.5107V47.6131C61.2293 47.8002 61.1186 48.4984 61.0183 48.9437C60.7737 50.0302 60.3307 51.1612 59.8584 51.9047C59.6761 52.1918 59.3572 52.6169 59.3078 52.6387C59.2831 52.6495 56.18 52.6365 52.412 52.6096C48.644 52.5828 43.4644 52.5459 40.9018 52.5276C38.3392 52.5093 34.408 52.4803 32.1657 52.4631C29.9234 52.4459 27.0405 52.4239 25.7592 52.4143C24.4779 52.4046 22.6945 52.3894 21.796 52.3806C20.8975 52.3717 19.1972 52.3564 18.0175 52.3466C16.8377 52.3367 13.3475 52.3077 10.2615 52.2821L4.65048 52.2355L4.45721 52.0014C3.82375 51.234 3.19807 49.7106 2.91695 48.2513C2.85493 47.9293 2.76121 47.233 2.76121 47.0942C2.76121 47.0352 2.29323 47.0352 10.7729 47.0944Z" stroke="#EC6A2D" stroke-width="0.8" mask="url(#path-1-outside-1_1424_31885)"/>
</svg>
