<svg width="20" height="21" viewBox="0 0 20 21" fill="none" xmlns="http://www.w3.org/2000/svg">
<path d="M6.66667 3.83341H17.5V5.50008H6.66667V3.83341ZM3.75 5.91675C3.41848 5.91675 3.10054 5.78505 2.86612 5.55063C2.6317 5.31621 2.5 4.99827 2.5 4.66675C2.5 4.33523 2.6317 4.01729 2.86612 3.78286C3.10054 3.54844 3.41848 3.41675 3.75 3.41675C4.08152 3.41675 4.39946 3.54844 4.63388 3.78286C4.8683 4.01729 5 4.33523 5 4.66675C5 4.99827 4.8683 5.31621 4.63388 5.55063C4.39946 5.78505 4.08152 5.91675 3.75 5.91675ZM3.75 11.7501C3.41848 11.7501 3.10054 11.6184 2.86612 11.384C2.6317 11.1495 2.5 10.8316 2.5 10.5001C2.5 10.1686 2.6317 9.85062 2.86612 9.6162C3.10054 9.38178 3.41848 9.25008 3.75 9.25008C4.08152 9.25008 4.39946 9.38178 4.63388 9.6162C4.8683 9.85062 5 10.1686 5 10.5001C5 10.8316 4.8683 11.1495 4.63388 11.384C4.39946 11.6184 4.08152 11.7501 3.75 11.7501ZM3.75 17.5001C3.41848 17.5001 3.10054 17.3684 2.86612 17.134C2.6317 16.8995 2.5 16.5816 2.5 16.2501C2.5 15.9186 2.6317 15.6006 2.86612 15.3662C3.10054 15.1318 3.41848 15.0001 3.75 15.0001C4.08152 15.0001 4.39946 15.1318 4.63388 15.3662C4.8683 15.6006 5 15.9186 5 16.2501C5 16.5816 4.8683 16.8995 4.63388 17.134C4.39946 17.3684 4.08152 17.5001 3.75 17.5001ZM6.66667 9.66675H17.5V11.3334H6.66667V9.66675ZM6.66667 15.5001H17.5V17.1667H6.66667V15.5001Z" fill="black"/>
</svg>
