<svg width="24" height="24" viewBox="0 0 24 24" fill="none" xmlns="http://www.w3.org/2000/svg">
<path d="M14.5 13.5V8C14.5 6.80653 14.0259 5.66193 13.182 4.81802C12.3381 3.97411 11.1935 3.5 10 3.5C8.80653 3.5 7.66193 3.97411 6.81802 4.81802C5.97411 5.66193 5.5 6.80653 5.5 8V13.5C5.5 15.3565 6.2375 17.137 7.55025 18.4497C8.86301 19.7625 10.6435 20.5 12.5 20.5C14.3565 20.5 16.137 19.7625 17.4497 18.4497C18.7625 17.137 19.5 15.3565 19.5 13.5V4.5H20.5V13.5C20.5 15.6217 19.6571 17.6566 18.1569 19.1569C16.6566 20.6571 14.6217 21.5 12.5 21.5C10.3783 21.5 8.34344 20.6571 6.84315 19.1569C5.34285 17.6566 4.5 15.6217 4.5 13.5V8C4.5 6.54131 5.07946 5.14236 6.11091 4.11091C7.14236 3.07946 8.54131 2.5 10 2.5C11.4587 2.5 12.8576 3.07946 13.8891 4.11091C14.9205 5.14236 15.5 6.54131 15.5 8V13.5C15.5 14.2956 15.1839 15.0587 14.6213 15.6213C14.0587 16.1839 13.2956 16.5 12.5 16.5C11.7044 16.5 10.9413 16.1839 10.3787 15.6213C9.81607 15.0587 9.5 14.2956 9.5 13.5V8.5H10.5V13.5C10.5 14.0304 10.7107 14.5391 11.0858 14.9142C11.4609 15.2893 11.9696 15.5 12.5 15.5C13.0304 15.5 13.5391 15.2893 13.9142 14.9142C14.2893 14.5391 14.5 14.0304 14.5 13.5Z" fill="#787878" stroke="white"/>
</svg>
