<svg width="154" height="47" viewBox="0 0 154 47" fill="none" xmlns="http://www.w3.org/2000/svg">
<g clip-path="url(#clip0_1321_18153)">
<path d="M111.818 10.126H101.696V16.3162H111.109H111.897C116.229 16.3162 119.144 18.7618 119.144 22.8122C119.144 26.9772 116.269 29.3081 111.897 29.3081H108.943V19.0292H101.656V35.5365H111.621C121.074 35.5365 126.588 30.0723 126.588 22.7357C126.627 15.3609 121.192 10.126 111.818 10.126Z" fill="#E86922"/>
<path d="M90.548 9.93506H83.5372L72.3516 35.5749H79.9925L86.9638 18.3033L89.8784 25.5635H87.0426L84.8764 31.0277H92.0053L93.8958 35.5749H101.694L90.548 9.93506Z" fill="#E86922"/>
<path d="M79.7182 10.126H59.5918V16.3162H77.0005L79.7182 10.126Z" fill="#E86922"/>
<path d="M75.8189 19.0674H59.5918V35.5747H66.8389V24.8755H73.2982L75.8189 19.0674Z" fill="#E86922"/>
<path d="M145.532 19.1058C146.281 20.2139 146.675 21.5131 146.675 22.8887C146.675 26.4806 144.114 29.4993 140.255 29.4993C136.434 29.4993 133.795 26.4041 133.795 22.8887C133.795 19.2968 136.355 16.2781 140.176 16.2781H151.952C149.628 12.5716 145.375 10.1643 140.255 10.1643C132.456 10.1643 126.627 15.8578 126.627 22.9269C126.627 30.0342 132.417 35.6895 140.215 35.6895C148.014 35.6895 153.843 29.996 153.843 22.9269C153.843 21.5895 153.646 20.3285 153.252 19.144H145.532V19.1058Z" fill="#E86922"/>
<path d="M31.6268 32.9H23.9071V20.252H29.5393V28.0854H31.8237C35.1715 28.0854 37.4165 26.2894 37.4165 23.0415C37.4165 19.9081 35.1715 17.9976 31.8237 17.9976H29.7756H29.5393H9.57051V13.2212H23.9071H31.7449C38.992 13.2212 43.1669 17.2716 43.1669 23.0033C43.1669 28.6968 38.9132 32.9 31.6268 32.9ZM20.2836 24.5317H15.2027V32.9H9.57051V20.252H22.1741L20.2836 24.5317ZM41.7884 -0.152832H6.7741C3.0718 -0.152832 0.0390625 2.78944 0.0390625 6.38131V40.3512C0.0390625 43.9813 3.0718 46.8854 6.7741 46.8854H41.7884C45.4907 46.8854 48.5235 43.9431 48.5235 40.3512V6.38131C48.5235 2.78944 45.4907 -0.152832 41.7884 -0.152832Z" fill="#E86922"/>
</g>
<defs>
<clipPath id="clip0_1321_18153">
<rect width="154" height="47" fill="white"/>
</clipPath>
</defs>
</svg>
