<svg width="66" height="64" viewBox="0 0 66 64" fill="none" xmlns="http://www.w3.org/2000/svg">
<mask id="path-1-outside-1_1269_30096" maskUnits="userSpaceOnUse" x="-0.5" y="5" width="67" height="54" fill="black">
<rect fill="white" x="-0.5" y="5" width="67" height="54"/>
<path fill-rule="evenodd" clip-rule="evenodd" d="M3.18085 6.04131C2.42188 6.1865 1.70322 6.57899 1.27342 7.08301C1.05105 7.34378 0.911237 7.58895 0.766714 7.97143L0.651663 8.27593L0.600226 23.1767C0.556035 35.973 0.529962 41.1997 0.500564 43.1486C0.492869 43.6602 0.561639 43.9169 0.844822 44.4329C1.51716 45.6582 2.98249 46.4939 4.45986 46.4945C4.6089 46.4946 4.74775 46.4855 4.76837 46.4743C4.81125 46.4509 26.0135 46.5156 27.9499 46.545L29.2237 46.5643L29.2504 50.3393C29.265 52.4155 29.2868 54.1497 29.2987 54.1929L29.3203 54.2716L27.6807 54.251C26.7789 54.2397 24.6934 54.2265 23.0462 54.2218C20.0681 54.2131 20.0507 54.2135 19.9457 54.2813C19.7084 54.4347 19.7096 54.4258 19.7096 56.0407C19.7096 57.3708 19.7157 57.5165 19.775 57.619C19.8109 57.6811 19.8828 57.7594 19.9349 57.7929C20.1784 57.9501 19.8453 57.9438 29.4702 57.9728C34.4462 57.9878 40.1311 58 42.1034 58C45.4874 58 45.6994 57.9966 45.8664 57.9398C45.9723 57.9038 46.0772 57.8377 46.1279 57.7752C46.2087 57.6752 46.2129 57.638 46.2252 56.9133C46.2322 56.4968 46.2261 55.8259 46.2116 55.4227C46.1823 54.6037 46.1664 54.5531 45.8948 54.4124C45.7665 54.346 45.7044 54.3444 42.4583 54.3243C40.6401 54.313 38.6229 54.3018 37.9758 54.2995L36.7991 54.2953L36.7959 52.1961C36.7941 51.0415 36.7807 49.3041 36.766 48.3351L36.7395 46.5733L37.367 46.5805C38.3851 46.5921 61.7134 46.6727 62.1627 46.6662C63.0375 46.6535 63.8225 46.3603 64.4718 45.8036C64.9524 45.3916 65.2386 44.9517 65.417 44.3509C65.5084 44.0429 65.5096 44.0224 65.4895 43.0992C65.4697 42.1951 65.4528 39.2964 65.4125 29.9438C65.4021 27.535 65.3853 24.7046 65.3751 23.6542C65.3649 22.6037 65.3478 18.9065 65.3369 15.4382C65.3155 8.59476 65.3221 8.80663 65.1102 8.11978C64.78 7.04923 63.7499 6.22177 62.5395 6.05478C62.3975 6.03522 51.2491 6.0174 32.8769 6.00743C6.67224 5.99317 3.41308 5.99689 3.18085 6.04131ZM33.3625 6.8857L62.4241 6.89304L62.6675 6.96598C63.3454 7.16916 63.886 7.63186 64.117 8.20671C64.2874 8.63045 64.3031 9.57702 64.3814 24.1152C64.4207 31.4141 64.449 37.3895 64.4442 37.394C64.4394 37.3984 60.453 37.3879 55.5854 37.3707C50.7179 37.3535 43.5416 37.3313 39.638 37.3214C35.7345 37.3115 31.5742 37.2961 30.3928 37.2871C29.2115 37.2782 24.1015 37.2614 19.0371 37.2499C13.9728 37.2383 9.8041 37.2245 9.77328 37.2193C9.74246 37.2141 7.87826 37.2087 5.63062 37.2073L1.54398 37.2048L1.5683 30.7259C1.58167 27.1624 1.60192 21.0313 1.61327 17.1011C1.62564 12.831 1.64898 9.78343 1.67129 9.52815C1.69183 9.2932 1.69732 8.95228 1.68354 8.77057C1.64226 8.22759 1.7925 7.85347 2.20313 7.47646C2.68067 7.03806 3.30916 6.82613 4.02072 6.86357C4.17481 6.87167 17.3786 6.88165 33.3625 6.8857ZM36.1873 9.0073C35.9066 9.12921 35.8319 9.45172 36.0368 9.65744C36.1004 9.72122 36.2138 9.78906 36.289 9.80819C36.3838 9.83233 39.8078 9.84 47.5011 9.83328C58.308 9.82386 58.5792 9.82212 58.6813 9.76113C58.9132 9.62256 58.9668 9.32843 58.7932 9.14663C58.5918 8.93561 59.489 8.95093 47.3809 8.95175C37.1339 8.95244 36.3042 8.95656 36.1873 9.0073ZM17.543 9.16978C15.9371 9.30058 14.7766 9.5594 13.4811 10.0755C10.6628 11.1985 8.35923 13.419 7.36023 15.9757C6.90798 17.1331 6.70197 18.1965 6.70197 19.3733C6.70197 22.0612 7.8551 24.5685 9.97873 26.4981C11.7664 28.1225 14.0353 29.1507 16.6091 29.503C17.3338 29.6022 18.7796 29.6256 19.5227 29.5501C22.0309 29.2955 24.1839 28.4491 26.0603 26.9801C28.4532 25.1066 29.9081 22.2357 29.9068 19.3898C29.9057 17.1051 28.9965 14.8175 27.3704 13.0083C25.1946 10.5873 21.7207 9.12187 18.234 9.15394C17.9259 9.1568 17.6149 9.16392 17.543 9.16978ZM18.0473 14.9195C18.0473 18.4254 18.059 19.8293 18.0889 19.9005C18.1253 19.9873 18.7786 20.7854 20.0833 22.337C20.4382 22.7592 21.5261 24.0592 23.3957 26.2956C23.7926 26.7704 24.1173 27.1714 24.1173 27.1867C24.1173 27.2209 23.6294 27.4787 23.1249 27.711C22.0874 28.1888 20.7222 28.5523 19.4854 28.6802C18.906 28.7401 17.5495 28.7309 16.9827 28.6632C14.5561 28.3733 12.4633 27.4703 10.7998 25.9952C9.11663 24.5026 8.10041 22.6842 7.77087 20.5752C7.69261 20.0742 7.68215 18.8125 7.75223 18.3195C8.05248 16.2068 9.04648 14.3632 10.6885 12.8739C12.4871 11.2424 14.7547 10.2907 17.3936 10.0597C17.4655 10.0534 17.642 10.0458 17.7858 10.0429L18.0473 10.0377V14.9195ZM20.1391 10.1688C21.7846 10.4254 23.3749 11.0365 24.7012 11.922C25.6555 12.559 26.5443 13.3978 27.1712 14.2527C27.5113 14.7167 27.4935 14.6855 27.4364 14.7177C27.3873 14.7455 24.3585 16.2463 20.9796 17.9171C20.0653 18.3692 19.2483 18.7745 19.164 18.8178L19.0106 18.8965L19.0266 14.5082C19.0353 12.0947 19.0479 10.1043 19.0546 10.0852C19.0698 10.0413 19.5671 10.0796 20.1391 10.1688ZM53.5338 14.3239C51.8902 14.3389 50.4709 14.36 50.3796 14.3708C50.173 14.3952 49.9839 14.5489 49.9469 14.7229C49.9157 14.8693 50.0099 15.056 50.1655 15.1561C50.2697 15.2232 50.2986 15.224 52.22 15.2117C57.2653 15.1796 58.4595 15.1602 58.5753 15.1087C58.937 14.9477 58.9427 14.4904 58.5848 14.3406C58.4347 14.2779 58.5324 14.2782 53.5338 14.3239ZM40.9828 14.3668C37.8 14.3926 36.4343 14.4144 36.3662 14.4405C36.0773 14.5512 35.9714 14.9011 36.1653 15.1042C36.2174 15.1587 36.3197 15.2207 36.3927 15.2419C36.4944 15.2715 37.8405 15.2712 42.1348 15.2405C47.3901 15.2029 47.7537 15.1967 47.8995 15.1412C48.0935 15.0675 48.1841 14.9492 48.1887 14.7635C48.1928 14.5925 48.0981 14.4611 47.9094 14.3763C47.7601 14.3091 48.0492 14.3095 40.9828 14.3668ZM28.0675 15.7263C28.3163 16.2168 28.5458 16.8724 28.6918 17.51C28.8551 18.2224 28.8801 18.4771 28.8779 19.4062C28.8762 20.1513 28.8626 20.37 28.7942 20.7563C28.4313 22.8069 27.438 24.5335 25.7812 25.9934C25.4516 26.2839 25.1277 26.5551 25.0614 26.5961L24.9409 26.6706L24.445 26.0793C24.1723 25.7541 23.445 24.8849 22.8286 24.1477C22.2123 23.4105 21.3459 22.3755 20.9034 21.8477C19.5049 20.1796 19.25 19.8684 19.2463 19.8242C19.2424 19.7784 27.8111 15.5083 27.9131 15.5053C27.9361 15.5046 28.0055 15.6041 28.0675 15.7263ZM36.4442 20.216C36.1913 20.2843 36.0391 20.4985 36.0861 20.7198C36.1119 20.8406 36.2611 20.9816 36.4187 21.0341C36.4915 21.0584 38.4803 21.0692 42.8815 21.0692C48.9763 21.0692 49.2446 21.0667 49.3694 21.0087C49.6095 20.8973 49.6971 20.6228 49.5571 20.4204C49.3989 20.1917 49.9318 20.2098 42.9126 20.1945C38.4642 20.1847 36.536 20.1912 36.4442 20.216ZM36.1555 25.8599C35.9142 25.9523 35.8088 26.265 35.9485 26.4735C35.984 26.5265 36.0806 26.5981 36.1633 26.6325C36.3083 26.6931 36.5848 26.6968 44.2326 26.742C52.9404 26.7934 52.3428 26.8042 52.5129 26.5935C52.6823 26.3839 52.5989 26.1057 52.3243 25.964C52.2108 25.9054 51.907 25.9009 45.1375 25.8582C36.1954 25.8019 36.3069 25.8019 36.1555 25.8599ZM37.9197 31.3758C36.6609 31.3876 36.1045 31.404 36.052 31.4308C36.0109 31.4518 35.9353 31.5086 35.8839 31.557C35.7607 31.6731 35.7531 31.9196 35.8686 32.0571C36.0366 32.2572 35.8047 32.247 40.0303 32.239C44.6087 32.2303 45.6758 32.2128 45.846 32.1435C46.08 32.0483 46.1649 31.8231 46.0519 31.5977C45.9159 31.3267 46.1156 31.3414 42.7132 31.3508C41.0629 31.3553 38.9059 31.3665 37.9197 31.3758ZM22.4551 38.1441C30.9401 38.1707 41.2611 38.2001 45.3906 38.2095C49.5201 38.2189 53.1369 38.2337 53.4279 38.2423C53.7189 38.251 56.1563 38.2608 58.8443 38.2642C61.5323 38.2675 63.8938 38.276 64.092 38.283L64.4525 38.2959L64.467 41.1503C64.483 44.3212 64.4902 44.2131 64.2349 44.6432C63.9411 45.1379 63.4461 45.51 62.8473 45.6864L62.5362 45.7781L59.6973 45.7725C56.8896 45.767 34.8568 45.6868 22.7913 45.6383C19.3603 45.6245 14.3613 45.6105 11.6824 45.6073C8.43129 45.6034 6.69641 45.5894 6.46492 45.5654C6.11185 45.5287 5.05984 45.5444 4.63707 45.5928C3.14148 45.7637 1.49957 44.5027 1.46909 43.1597C1.46565 43.0087 1.48306 42.5005 1.50778 42.0303C1.53875 41.4415 1.54069 41.1688 1.51402 41.1542C1.48731 41.1397 1.48773 41.0349 1.51533 40.8167C1.53733 40.6427 1.55534 39.9542 1.55534 39.2867V38.0729L4.29154 38.0844C5.79647 38.0907 13.97 38.1176 22.4551 38.1441ZM32.5968 39.7193C31.9879 39.8654 31.5456 40.2958 31.4349 40.8499C31.3589 41.2301 31.5169 41.6499 31.8542 41.9644C32.4308 42.5018 33.3804 42.5241 33.9915 42.0147C34.6111 41.4981 34.6439 40.6777 34.0668 40.1338C33.6717 39.7615 33.0967 39.5994 32.5968 39.7193ZM33.1714 40.6093C33.4309 40.7049 33.5593 41.0073 33.4368 41.2348C33.1959 41.6824 32.4719 41.5592 32.4194 41.0616C32.383 40.7173 32.7938 40.4703 33.1714 40.6093ZM35.7376 46.5651C35.7393 46.5697 35.7634 48.2701 35.791 50.3438C35.8254 52.9194 35.8545 54.1447 35.8827 54.2102L35.9241 54.3062L34.2916 54.2843C33.3938 54.2723 32.1199 54.2625 31.4607 54.2625H30.2621L30.2482 50.4097L30.2343 46.5569H32.9844C34.497 46.5569 35.7359 46.5606 35.7376 46.5651ZM35.3049 55.1698C40.2152 55.1959 44.4554 55.2173 44.7276 55.2174L45.2225 55.2174V56.1774V57.1374L36.6964 57.1158C29.3202 57.0972 20.7465 57.0613 20.7321 57.049C20.7296 57.0468 20.7192 56.603 20.709 56.0627L20.6905 55.0804L23.5339 55.1014C25.0977 55.1129 30.3947 55.1437 35.3049 55.1698Z"/>
</mask>
<path fill-rule="evenodd" clip-rule="evenodd" d="M3.18085 6.04131C2.42188 6.1865 1.70322 6.57899 1.27342 7.08301C1.05105 7.34378 0.911237 7.58895 0.766714 7.97143L0.651663 8.27593L0.600226 23.1767C0.556035 35.973 0.529962 41.1997 0.500564 43.1486C0.492869 43.6602 0.561639 43.9169 0.844822 44.4329C1.51716 45.6582 2.98249 46.4939 4.45986 46.4945C4.6089 46.4946 4.74775 46.4855 4.76837 46.4743C4.81125 46.4509 26.0135 46.5156 27.9499 46.545L29.2237 46.5643L29.2504 50.3393C29.265 52.4155 29.2868 54.1497 29.2987 54.1929L29.3203 54.2716L27.6807 54.251C26.7789 54.2397 24.6934 54.2265 23.0462 54.2218C20.0681 54.2131 20.0507 54.2135 19.9457 54.2813C19.7084 54.4347 19.7096 54.4258 19.7096 56.0407C19.7096 57.3708 19.7157 57.5165 19.775 57.619C19.8109 57.6811 19.8828 57.7594 19.9349 57.7929C20.1784 57.9501 19.8453 57.9438 29.4702 57.9728C34.4462 57.9878 40.1311 58 42.1034 58C45.4874 58 45.6994 57.9966 45.8664 57.9398C45.9723 57.9038 46.0772 57.8377 46.1279 57.7752C46.2087 57.6752 46.2129 57.638 46.2252 56.9133C46.2322 56.4968 46.2261 55.8259 46.2116 55.4227C46.1823 54.6037 46.1664 54.5531 45.8948 54.4124C45.7665 54.346 45.7044 54.3444 42.4583 54.3243C40.6401 54.313 38.6229 54.3018 37.9758 54.2995L36.7991 54.2953L36.7959 52.1961C36.7941 51.0415 36.7807 49.3041 36.766 48.3351L36.7395 46.5733L37.367 46.5805C38.3851 46.5921 61.7134 46.6727 62.1627 46.6662C63.0375 46.6535 63.8225 46.3603 64.4718 45.8036C64.9524 45.3916 65.2386 44.9517 65.417 44.3509C65.5084 44.0429 65.5096 44.0224 65.4895 43.0992C65.4697 42.1951 65.4528 39.2964 65.4125 29.9438C65.4021 27.535 65.3853 24.7046 65.3751 23.6542C65.3649 22.6037 65.3478 18.9065 65.3369 15.4382C65.3155 8.59476 65.3221 8.80663 65.1102 8.11978C64.78 7.04923 63.7499 6.22177 62.5395 6.05478C62.3975 6.03522 51.2491 6.0174 32.8769 6.00743C6.67224 5.99317 3.41308 5.99689 3.18085 6.04131ZM33.3625 6.8857L62.4241 6.89304L62.6675 6.96598C63.3454 7.16916 63.886 7.63186 64.117 8.20671C64.2874 8.63045 64.3031 9.57702 64.3814 24.1152C64.4207 31.4141 64.449 37.3895 64.4442 37.394C64.4394 37.3984 60.453 37.3879 55.5854 37.3707C50.7179 37.3535 43.5416 37.3313 39.638 37.3214C35.7345 37.3115 31.5742 37.2961 30.3928 37.2871C29.2115 37.2782 24.1015 37.2614 19.0371 37.2499C13.9728 37.2383 9.8041 37.2245 9.77328 37.2193C9.74246 37.2141 7.87826 37.2087 5.63062 37.2073L1.54398 37.2048L1.5683 30.7259C1.58167 27.1624 1.60192 21.0313 1.61327 17.1011C1.62564 12.831 1.64898 9.78343 1.67129 9.52815C1.69183 9.2932 1.69732 8.95228 1.68354 8.77057C1.64226 8.22759 1.7925 7.85347 2.20313 7.47646C2.68067 7.03806 3.30916 6.82613 4.02072 6.86357C4.17481 6.87167 17.3786 6.88165 33.3625 6.8857ZM36.1873 9.0073C35.9066 9.12921 35.8319 9.45172 36.0368 9.65744C36.1004 9.72122 36.2138 9.78906 36.289 9.80819C36.3838 9.83233 39.8078 9.84 47.5011 9.83328C58.308 9.82386 58.5792 9.82212 58.6813 9.76113C58.9132 9.62256 58.9668 9.32843 58.7932 9.14663C58.5918 8.93561 59.489 8.95093 47.3809 8.95175C37.1339 8.95244 36.3042 8.95656 36.1873 9.0073ZM17.543 9.16978C15.9371 9.30058 14.7766 9.5594 13.4811 10.0755C10.6628 11.1985 8.35923 13.419 7.36023 15.9757C6.90798 17.1331 6.70197 18.1965 6.70197 19.3733C6.70197 22.0612 7.8551 24.5685 9.97873 26.4981C11.7664 28.1225 14.0353 29.1507 16.6091 29.503C17.3338 29.6022 18.7796 29.6256 19.5227 29.5501C22.0309 29.2955 24.1839 28.4491 26.0603 26.9801C28.4532 25.1066 29.9081 22.2357 29.9068 19.3898C29.9057 17.1051 28.9965 14.8175 27.3704 13.0083C25.1946 10.5873 21.7207 9.12187 18.234 9.15394C17.9259 9.1568 17.6149 9.16392 17.543 9.16978ZM18.0473 14.9195C18.0473 18.4254 18.059 19.8293 18.0889 19.9005C18.1253 19.9873 18.7786 20.7854 20.0833 22.337C20.4382 22.7592 21.5261 24.0592 23.3957 26.2956C23.7926 26.7704 24.1173 27.1714 24.1173 27.1867C24.1173 27.2209 23.6294 27.4787 23.1249 27.711C22.0874 28.1888 20.7222 28.5523 19.4854 28.6802C18.906 28.7401 17.5495 28.7309 16.9827 28.6632C14.5561 28.3733 12.4633 27.4703 10.7998 25.9952C9.11663 24.5026 8.10041 22.6842 7.77087 20.5752C7.69261 20.0742 7.68215 18.8125 7.75223 18.3195C8.05248 16.2068 9.04648 14.3632 10.6885 12.8739C12.4871 11.2424 14.7547 10.2907 17.3936 10.0597C17.4655 10.0534 17.642 10.0458 17.7858 10.0429L18.0473 10.0377V14.9195ZM20.1391 10.1688C21.7846 10.4254 23.3749 11.0365 24.7012 11.922C25.6555 12.559 26.5443 13.3978 27.1712 14.2527C27.5113 14.7167 27.4935 14.6855 27.4364 14.7177C27.3873 14.7455 24.3585 16.2463 20.9796 17.9171C20.0653 18.3692 19.2483 18.7745 19.164 18.8178L19.0106 18.8965L19.0266 14.5082C19.0353 12.0947 19.0479 10.1043 19.0546 10.0852C19.0698 10.0413 19.5671 10.0796 20.1391 10.1688ZM53.5338 14.3239C51.8902 14.3389 50.4709 14.36 50.3796 14.3708C50.173 14.3952 49.9839 14.5489 49.9469 14.7229C49.9157 14.8693 50.0099 15.056 50.1655 15.1561C50.2697 15.2232 50.2986 15.224 52.22 15.2117C57.2653 15.1796 58.4595 15.1602 58.5753 15.1087C58.937 14.9477 58.9427 14.4904 58.5848 14.3406C58.4347 14.2779 58.5324 14.2782 53.5338 14.3239ZM40.9828 14.3668C37.8 14.3926 36.4343 14.4144 36.3662 14.4405C36.0773 14.5512 35.9714 14.9011 36.1653 15.1042C36.2174 15.1587 36.3197 15.2207 36.3927 15.2419C36.4944 15.2715 37.8405 15.2712 42.1348 15.2405C47.3901 15.2029 47.7537 15.1967 47.8995 15.1412C48.0935 15.0675 48.1841 14.9492 48.1887 14.7635C48.1928 14.5925 48.0981 14.4611 47.9094 14.3763C47.7601 14.3091 48.0492 14.3095 40.9828 14.3668ZM28.0675 15.7263C28.3163 16.2168 28.5458 16.8724 28.6918 17.51C28.8551 18.2224 28.8801 18.4771 28.8779 19.4062C28.8762 20.1513 28.8626 20.37 28.7942 20.7563C28.4313 22.8069 27.438 24.5335 25.7812 25.9934C25.4516 26.2839 25.1277 26.5551 25.0614 26.5961L24.9409 26.6706L24.445 26.0793C24.1723 25.7541 23.445 24.8849 22.8286 24.1477C22.2123 23.4105 21.3459 22.3755 20.9034 21.8477C19.5049 20.1796 19.25 19.8684 19.2463 19.8242C19.2424 19.7784 27.8111 15.5083 27.9131 15.5053C27.9361 15.5046 28.0055 15.6041 28.0675 15.7263ZM36.4442 20.216C36.1913 20.2843 36.0391 20.4985 36.0861 20.7198C36.1119 20.8406 36.2611 20.9816 36.4187 21.0341C36.4915 21.0584 38.4803 21.0692 42.8815 21.0692C48.9763 21.0692 49.2446 21.0667 49.3694 21.0087C49.6095 20.8973 49.6971 20.6228 49.5571 20.4204C49.3989 20.1917 49.9318 20.2098 42.9126 20.1945C38.4642 20.1847 36.536 20.1912 36.4442 20.216ZM36.1555 25.8599C35.9142 25.9523 35.8088 26.265 35.9485 26.4735C35.984 26.5265 36.0806 26.5981 36.1633 26.6325C36.3083 26.6931 36.5848 26.6968 44.2326 26.742C52.9404 26.7934 52.3428 26.8042 52.5129 26.5935C52.6823 26.3839 52.5989 26.1057 52.3243 25.964C52.2108 25.9054 51.907 25.9009 45.1375 25.8582C36.1954 25.8019 36.3069 25.8019 36.1555 25.8599ZM37.9197 31.3758C36.6609 31.3876 36.1045 31.404 36.052 31.4308C36.0109 31.4518 35.9353 31.5086 35.8839 31.557C35.7607 31.6731 35.7531 31.9196 35.8686 32.0571C36.0366 32.2572 35.8047 32.247 40.0303 32.239C44.6087 32.2303 45.6758 32.2128 45.846 32.1435C46.08 32.0483 46.1649 31.8231 46.0519 31.5977C45.9159 31.3267 46.1156 31.3414 42.7132 31.3508C41.0629 31.3553 38.9059 31.3665 37.9197 31.3758ZM22.4551 38.1441C30.9401 38.1707 41.2611 38.2001 45.3906 38.2095C49.5201 38.2189 53.1369 38.2337 53.4279 38.2423C53.7189 38.251 56.1563 38.2608 58.8443 38.2642C61.5323 38.2675 63.8938 38.276 64.092 38.283L64.4525 38.2959L64.467 41.1503C64.483 44.3212 64.4902 44.2131 64.2349 44.6432C63.9411 45.1379 63.4461 45.51 62.8473 45.6864L62.5362 45.7781L59.6973 45.7725C56.8896 45.767 34.8568 45.6868 22.7913 45.6383C19.3603 45.6245 14.3613 45.6105 11.6824 45.6073C8.43129 45.6034 6.69641 45.5894 6.46492 45.5654C6.11185 45.5287 5.05984 45.5444 4.63707 45.5928C3.14148 45.7637 1.49957 44.5027 1.46909 43.1597C1.46565 43.0087 1.48306 42.5005 1.50778 42.0303C1.53875 41.4415 1.54069 41.1688 1.51402 41.1542C1.48731 41.1397 1.48773 41.0349 1.51533 40.8167C1.53733 40.6427 1.55534 39.9542 1.55534 39.2867V38.0729L4.29154 38.0844C5.79647 38.0907 13.97 38.1176 22.4551 38.1441ZM32.5968 39.7193C31.9879 39.8654 31.5456 40.2958 31.4349 40.8499C31.3589 41.2301 31.5169 41.6499 31.8542 41.9644C32.4308 42.5018 33.3804 42.5241 33.9915 42.0147C34.6111 41.4981 34.6439 40.6777 34.0668 40.1338C33.6717 39.7615 33.0967 39.5994 32.5968 39.7193ZM33.1714 40.6093C33.4309 40.7049 33.5593 41.0073 33.4368 41.2348C33.1959 41.6824 32.4719 41.5592 32.4194 41.0616C32.383 40.7173 32.7938 40.4703 33.1714 40.6093ZM35.7376 46.5651C35.7393 46.5697 35.7634 48.2701 35.791 50.3438C35.8254 52.9194 35.8545 54.1447 35.8827 54.2102L35.9241 54.3062L34.2916 54.2843C33.3938 54.2723 32.1199 54.2625 31.4607 54.2625H30.2621L30.2482 50.4097L30.2343 46.5569H32.9844C34.497 46.5569 35.7359 46.5606 35.7376 46.5651ZM35.3049 55.1698C40.2152 55.1959 44.4554 55.2173 44.7276 55.2174L45.2225 55.2174V56.1774V57.1374L36.6964 57.1158C29.3202 57.0972 20.7465 57.0613 20.7321 57.049C20.7296 57.0468 20.7192 56.603 20.709 56.0627L20.6905 55.0804L23.5339 55.1014C25.0977 55.1129 30.3947 55.1437 35.3049 55.1698Z" fill="#EC6A2D"/>
<path fill-rule="evenodd" clip-rule="evenodd" d="M3.18085 6.04131C2.42188 6.1865 1.70322 6.57899 1.27342 7.08301C1.05105 7.34378 0.911237 7.58895 0.766714 7.97143L0.651663 8.27593L0.600226 23.1767C0.556035 35.973 0.529962 41.1997 0.500564 43.1486C0.492869 43.6602 0.561639 43.9169 0.844822 44.4329C1.51716 45.6582 2.98249 46.4939 4.45986 46.4945C4.6089 46.4946 4.74775 46.4855 4.76837 46.4743C4.81125 46.4509 26.0135 46.5156 27.9499 46.545L29.2237 46.5643L29.2504 50.3393C29.265 52.4155 29.2868 54.1497 29.2987 54.1929L29.3203 54.2716L27.6807 54.251C26.7789 54.2397 24.6934 54.2265 23.0462 54.2218C20.0681 54.2131 20.0507 54.2135 19.9457 54.2813C19.7084 54.4347 19.7096 54.4258 19.7096 56.0407C19.7096 57.3708 19.7157 57.5165 19.775 57.619C19.8109 57.6811 19.8828 57.7594 19.9349 57.7929C20.1784 57.9501 19.8453 57.9438 29.4702 57.9728C34.4462 57.9878 40.1311 58 42.1034 58C45.4874 58 45.6994 57.9966 45.8664 57.9398C45.9723 57.9038 46.0772 57.8377 46.1279 57.7752C46.2087 57.6752 46.2129 57.638 46.2252 56.9133C46.2322 56.4968 46.2261 55.8259 46.2116 55.4227C46.1823 54.6037 46.1664 54.5531 45.8948 54.4124C45.7665 54.346 45.7044 54.3444 42.4583 54.3243C40.6401 54.313 38.6229 54.3018 37.9758 54.2995L36.7991 54.2953L36.7959 52.1961C36.7941 51.0415 36.7807 49.3041 36.766 48.3351L36.7395 46.5733L37.367 46.5805C38.3851 46.5921 61.7134 46.6727 62.1627 46.6662C63.0375 46.6535 63.8225 46.3603 64.4718 45.8036C64.9524 45.3916 65.2386 44.9517 65.417 44.3509C65.5084 44.0429 65.5096 44.0224 65.4895 43.0992C65.4697 42.1951 65.4528 39.2964 65.4125 29.9438C65.4021 27.535 65.3853 24.7046 65.3751 23.6542C65.3649 22.6037 65.3478 18.9065 65.3369 15.4382C65.3155 8.59476 65.3221 8.80663 65.1102 8.11978C64.78 7.04923 63.7499 6.22177 62.5395 6.05478C62.3975 6.03522 51.2491 6.0174 32.8769 6.00743C6.67224 5.99317 3.41308 5.99689 3.18085 6.04131ZM33.3625 6.8857L62.4241 6.89304L62.6675 6.96598C63.3454 7.16916 63.886 7.63186 64.117 8.20671C64.2874 8.63045 64.3031 9.57702 64.3814 24.1152C64.4207 31.4141 64.449 37.3895 64.4442 37.394C64.4394 37.3984 60.453 37.3879 55.5854 37.3707C50.7179 37.3535 43.5416 37.3313 39.638 37.3214C35.7345 37.3115 31.5742 37.2961 30.3928 37.2871C29.2115 37.2782 24.1015 37.2614 19.0371 37.2499C13.9728 37.2383 9.8041 37.2245 9.77328 37.2193C9.74246 37.2141 7.87826 37.2087 5.63062 37.2073L1.54398 37.2048L1.5683 30.7259C1.58167 27.1624 1.60192 21.0313 1.61327 17.1011C1.62564 12.831 1.64898 9.78343 1.67129 9.52815C1.69183 9.2932 1.69732 8.95228 1.68354 8.77057C1.64226 8.22759 1.7925 7.85347 2.20313 7.47646C2.68067 7.03806 3.30916 6.82613 4.02072 6.86357C4.17481 6.87167 17.3786 6.88165 33.3625 6.8857ZM36.1873 9.0073C35.9066 9.12921 35.8319 9.45172 36.0368 9.65744C36.1004 9.72122 36.2138 9.78906 36.289 9.80819C36.3838 9.83233 39.8078 9.84 47.5011 9.83328C58.308 9.82386 58.5792 9.82212 58.6813 9.76113C58.9132 9.62256 58.9668 9.32843 58.7932 9.14663C58.5918 8.93561 59.489 8.95093 47.3809 8.95175C37.1339 8.95244 36.3042 8.95656 36.1873 9.0073ZM17.543 9.16978C15.9371 9.30058 14.7766 9.5594 13.4811 10.0755C10.6628 11.1985 8.35923 13.419 7.36023 15.9757C6.90798 17.1331 6.70197 18.1965 6.70197 19.3733C6.70197 22.0612 7.8551 24.5685 9.97873 26.4981C11.7664 28.1225 14.0353 29.1507 16.6091 29.503C17.3338 29.6022 18.7796 29.6256 19.5227 29.5501C22.0309 29.2955 24.1839 28.4491 26.0603 26.9801C28.4532 25.1066 29.9081 22.2357 29.9068 19.3898C29.9057 17.1051 28.9965 14.8175 27.3704 13.0083C25.1946 10.5873 21.7207 9.12187 18.234 9.15394C17.9259 9.1568 17.6149 9.16392 17.543 9.16978ZM18.0473 14.9195C18.0473 18.4254 18.059 19.8293 18.0889 19.9005C18.1253 19.9873 18.7786 20.7854 20.0833 22.337C20.4382 22.7592 21.5261 24.0592 23.3957 26.2956C23.7926 26.7704 24.1173 27.1714 24.1173 27.1867C24.1173 27.2209 23.6294 27.4787 23.1249 27.711C22.0874 28.1888 20.7222 28.5523 19.4854 28.6802C18.906 28.7401 17.5495 28.7309 16.9827 28.6632C14.5561 28.3733 12.4633 27.4703 10.7998 25.9952C9.11663 24.5026 8.10041 22.6842 7.77087 20.5752C7.69261 20.0742 7.68215 18.8125 7.75223 18.3195C8.05248 16.2068 9.04648 14.3632 10.6885 12.8739C12.4871 11.2424 14.7547 10.2907 17.3936 10.0597C17.4655 10.0534 17.642 10.0458 17.7858 10.0429L18.0473 10.0377V14.9195ZM20.1391 10.1688C21.7846 10.4254 23.3749 11.0365 24.7012 11.922C25.6555 12.559 26.5443 13.3978 27.1712 14.2527C27.5113 14.7167 27.4935 14.6855 27.4364 14.7177C27.3873 14.7455 24.3585 16.2463 20.9796 17.9171C20.0653 18.3692 19.2483 18.7745 19.164 18.8178L19.0106 18.8965L19.0266 14.5082C19.0353 12.0947 19.0479 10.1043 19.0546 10.0852C19.0698 10.0413 19.5671 10.0796 20.1391 10.1688ZM53.5338 14.3239C51.8902 14.3389 50.4709 14.36 50.3796 14.3708C50.173 14.3952 49.9839 14.5489 49.9469 14.7229C49.9157 14.8693 50.0099 15.056 50.1655 15.1561C50.2697 15.2232 50.2986 15.224 52.22 15.2117C57.2653 15.1796 58.4595 15.1602 58.5753 15.1087C58.937 14.9477 58.9427 14.4904 58.5848 14.3406C58.4347 14.2779 58.5324 14.2782 53.5338 14.3239ZM40.9828 14.3668C37.8 14.3926 36.4343 14.4144 36.3662 14.4405C36.0773 14.5512 35.9714 14.9011 36.1653 15.1042C36.2174 15.1587 36.3197 15.2207 36.3927 15.2419C36.4944 15.2715 37.8405 15.2712 42.1348 15.2405C47.3901 15.2029 47.7537 15.1967 47.8995 15.1412C48.0935 15.0675 48.1841 14.9492 48.1887 14.7635C48.1928 14.5925 48.0981 14.4611 47.9094 14.3763C47.7601 14.3091 48.0492 14.3095 40.9828 14.3668ZM28.0675 15.7263C28.3163 16.2168 28.5458 16.8724 28.6918 17.51C28.8551 18.2224 28.8801 18.4771 28.8779 19.4062C28.8762 20.1513 28.8626 20.37 28.7942 20.7563C28.4313 22.8069 27.438 24.5335 25.7812 25.9934C25.4516 26.2839 25.1277 26.5551 25.0614 26.5961L24.9409 26.6706L24.445 26.0793C24.1723 25.7541 23.445 24.8849 22.8286 24.1477C22.2123 23.4105 21.3459 22.3755 20.9034 21.8477C19.5049 20.1796 19.25 19.8684 19.2463 19.8242C19.2424 19.7784 27.8111 15.5083 27.9131 15.5053C27.9361 15.5046 28.0055 15.6041 28.0675 15.7263ZM36.4442 20.216C36.1913 20.2843 36.0391 20.4985 36.0861 20.7198C36.1119 20.8406 36.2611 20.9816 36.4187 21.0341C36.4915 21.0584 38.4803 21.0692 42.8815 21.0692C48.9763 21.0692 49.2446 21.0667 49.3694 21.0087C49.6095 20.8973 49.6971 20.6228 49.5571 20.4204C49.3989 20.1917 49.9318 20.2098 42.9126 20.1945C38.4642 20.1847 36.536 20.1912 36.4442 20.216ZM36.1555 25.8599C35.9142 25.9523 35.8088 26.265 35.9485 26.4735C35.984 26.5265 36.0806 26.5981 36.1633 26.6325C36.3083 26.6931 36.5848 26.6968 44.2326 26.742C52.9404 26.7934 52.3428 26.8042 52.5129 26.5935C52.6823 26.3839 52.5989 26.1057 52.3243 25.964C52.2108 25.9054 51.907 25.9009 45.1375 25.8582C36.1954 25.8019 36.3069 25.8019 36.1555 25.8599ZM37.9197 31.3758C36.6609 31.3876 36.1045 31.404 36.052 31.4308C36.0109 31.4518 35.9353 31.5086 35.8839 31.557C35.7607 31.6731 35.7531 31.9196 35.8686 32.0571C36.0366 32.2572 35.8047 32.247 40.0303 32.239C44.6087 32.2303 45.6758 32.2128 45.846 32.1435C46.08 32.0483 46.1649 31.8231 46.0519 31.5977C45.9159 31.3267 46.1156 31.3414 42.7132 31.3508C41.0629 31.3553 38.9059 31.3665 37.9197 31.3758ZM22.4551 38.1441C30.9401 38.1707 41.2611 38.2001 45.3906 38.2095C49.5201 38.2189 53.1369 38.2337 53.4279 38.2423C53.7189 38.251 56.1563 38.2608 58.8443 38.2642C61.5323 38.2675 63.8938 38.276 64.092 38.283L64.4525 38.2959L64.467 41.1503C64.483 44.3212 64.4902 44.2131 64.2349 44.6432C63.9411 45.1379 63.4461 45.51 62.8473 45.6864L62.5362 45.7781L59.6973 45.7725C56.8896 45.767 34.8568 45.6868 22.7913 45.6383C19.3603 45.6245 14.3613 45.6105 11.6824 45.6073C8.43129 45.6034 6.69641 45.5894 6.46492 45.5654C6.11185 45.5287 5.05984 45.5444 4.63707 45.5928C3.14148 45.7637 1.49957 44.5027 1.46909 43.1597C1.46565 43.0087 1.48306 42.5005 1.50778 42.0303C1.53875 41.4415 1.54069 41.1688 1.51402 41.1542C1.48731 41.1397 1.48773 41.0349 1.51533 40.8167C1.53733 40.6427 1.55534 39.9542 1.55534 39.2867V38.0729L4.29154 38.0844C5.79647 38.0907 13.97 38.1176 22.4551 38.1441ZM32.5968 39.7193C31.9879 39.8654 31.5456 40.2958 31.4349 40.8499C31.3589 41.2301 31.5169 41.6499 31.8542 41.9644C32.4308 42.5018 33.3804 42.5241 33.9915 42.0147C34.6111 41.4981 34.6439 40.6777 34.0668 40.1338C33.6717 39.7615 33.0967 39.5994 32.5968 39.7193ZM33.1714 40.6093C33.4309 40.7049 33.5593 41.0073 33.4368 41.2348C33.1959 41.6824 32.4719 41.5592 32.4194 41.0616C32.383 40.7173 32.7938 40.4703 33.1714 40.6093ZM35.7376 46.5651C35.7393 46.5697 35.7634 48.2701 35.791 50.3438C35.8254 52.9194 35.8545 54.1447 35.8827 54.2102L35.9241 54.3062L34.2916 54.2843C33.3938 54.2723 32.1199 54.2625 31.4607 54.2625H30.2621L30.2482 50.4097L30.2343 46.5569H32.9844C34.497 46.5569 35.7359 46.5606 35.7376 46.5651ZM35.3049 55.1698C40.2152 55.1959 44.4554 55.2173 44.7276 55.2174L45.2225 55.2174V56.1774V57.1374L36.6964 57.1158C29.3202 57.0972 20.7465 57.0613 20.7321 57.049C20.7296 57.0468 20.7192 56.603 20.709 56.0627L20.6905 55.0804L23.5339 55.1014C25.0977 55.1129 30.3947 55.1437 35.3049 55.1698Z" stroke="#EC6A2D" stroke-width="0.2" mask="url(#path-1-outside-1_1269_30096)"/>
</svg>
