<svg width="64" height="64" viewBox="0 0 64 64" fill="none" xmlns="http://www.w3.org/2000/svg">
<mask id="path-1-outside-1_1424_31852" maskUnits="userSpaceOnUse" x="5.5" y="5.5" width="53" height="53" fill="black">
<rect fill="white" x="5.5" y="5.5" width="53" height="53"/>
<path fill-rule="evenodd" clip-rule="evenodd" d="M22.7031 6.512C22.5444 6.54582 22.4493 6.61243 22.3666 6.74779C22.3026 6.85261 22.2937 6.93021 22.2706 7.58335C22.2566 7.97937 22.2004 11.6047 22.1457 15.6396C22.091 19.6745 22.0379 23.1276 22.0277 23.3131L22.0091 23.6504L21.2199 23.6724C20.7858 23.6845 18.7016 23.6944 16.5884 23.6944C14.4752 23.6944 12.7002 23.7037 12.6441 23.7152C12.5108 23.7424 12.385 23.8737 12.3475 24.0247C12.3311 24.0912 12.2575 28.3944 12.184 33.5874C12.1105 38.7804 12.0411 43.3902 12.0298 43.8313L12.0093 44.6335L9.36914 44.61C7.65896 44.5948 6.70781 44.5981 6.66883 44.6193C6.63575 44.6374 6.58291 44.7006 6.55138 44.7598C6.49729 44.8613 6.49464 45.2079 6.50447 50.9002C6.5104 54.3509 6.52755 56.9836 6.54453 57.0515C6.58849 57.2271 6.7695 57.3831 7.01148 57.4539C7.06783 57.4704 9.03294 57.469 11.5534 57.4507C16.5016 57.4149 16.2235 57.4297 16.4016 57.1917L16.4913 57.0719L16.5007 55.5467L16.5101 54.0215L20.5303 53.9819C22.7414 53.9601 24.5539 53.9459 24.5581 53.9503C24.5642 53.9567 24.6786 56.0061 24.7134 56.7324C24.7229 56.931 24.7976 57.0581 24.9473 57.1306C25.0462 57.1784 25.73 57.1836 32.0177 57.1834C38.8637 57.1833 38.9803 57.1822 39.0835 57.118C39.2785 56.9968 39.2811 56.981 39.3596 55.4248C39.3993 54.6366 39.4405 53.9819 39.451 53.9699C39.4616 53.9579 41.1445 53.9685 43.1908 53.9935C45.2371 54.0186 47.0478 54.0397 47.2146 54.0404L47.5178 54.0419V55.5576V57.0734L47.592 57.187C47.6328 57.2494 47.7249 57.3306 47.7968 57.3674C47.9226 57.4317 48.0148 57.435 50.2385 57.455C51.5096 57.4664 53.5542 57.4812 54.782 57.4879L57.0145 57.5L57.1718 57.4003C57.2584 57.3454 57.3601 57.2581 57.3979 57.2062C57.4659 57.1128 57.4668 57.085 57.4836 54.5658C57.493 53.1655 57.5004 50.4002 57.5 48.4208L57.4994 44.8217L57.401 44.7164L57.3027 44.6111L54.6475 44.6223L51.9923 44.6335L51.8529 34.3585C51.7234 24.8153 51.7094 24.0752 51.6562 23.9663C51.6247 23.9019 51.5573 23.818 51.5064 23.7801C51.414 23.7112 51.4038 23.7111 46.7323 23.7019L42.0508 23.6926L42.0315 23.6016C42.012 23.5098 41.9553 19.9071 41.865 13.016C41.7838 6.82075 41.7882 6.99151 41.705 6.81785C41.6658 6.7361 41.5921 6.63834 41.5412 6.6006L41.4486 6.53202L32.248 6.52858C27.1876 6.5267 22.9957 6.51671 22.9326 6.50635C22.8695 6.49602 22.7662 6.49856 22.7031 6.512ZM27.3251 7.44111C27.3342 7.44966 27.3496 8.61727 27.3595 10.0358C27.3794 12.899 27.3638 12.713 27.6017 12.926C27.6655 12.9831 27.7805 13.0472 27.8574 13.0685C28.014 13.1118 35.9197 13.1269 36.1668 13.0844C36.3457 13.0535 36.5874 12.8407 36.6359 12.6711C36.6586 12.5915 36.6791 11.6451 36.6939 9.99123L36.7167 7.43442L38.8177 7.42583L40.9188 7.41721L40.9414 9.19721C40.9539 10.1762 40.9925 13.0678 41.0272 15.6229C41.0619 18.178 41.1005 21.0359 41.1129 21.9737L41.1355 23.6788L32.0259 23.6663C27.0155 23.6595 22.9123 23.6503 22.9075 23.6458C22.9028 23.6413 22.9507 20.1273 23.014 15.8369C23.0774 11.5464 23.1292 7.89217 23.1292 7.71634L23.1293 7.39665L25.219 7.41106C26.3684 7.41901 27.3161 7.43252 27.3251 7.44111ZM35.8199 9.79818C35.8129 11.2049 35.7958 12.1604 35.7773 12.1804C35.746 12.2142 28.2956 12.2304 28.2663 12.1967C28.2584 12.1877 28.2422 11.1125 28.2302 9.80741L28.2084 7.43442L32.02 7.44191L35.8316 7.44939L35.8199 9.79818ZM17.3592 24.7709C17.3588 24.8865 17.337 26.1091 17.3107 27.4878C17.2442 30.9803 17.2442 30.9772 17.3354 31.1176C17.3768 31.1813 17.4801 31.2669 17.5707 31.3127C17.722 31.3892 17.7623 31.3939 18.2099 31.3877C19.1283 31.3749 26.2961 31.2491 26.6894 31.2388C27.0756 31.2287 27.0914 31.2253 27.2759 31.1128C27.6139 30.9068 27.594 31.1086 27.5556 28.2669C27.5374 26.9193 27.5175 25.5347 27.5115 25.19L27.5006 24.5634H29.5441H31.5877L31.5687 27.8805C31.5584 29.705 31.537 34.2109 31.5214 37.8936C31.5058 41.5764 31.4834 44.5994 31.4715 44.6115C31.4597 44.6236 27.2767 44.638 22.1759 44.6435L12.9018 44.6535L12.9012 44.5432C12.8988 44.1462 13.1678 25.8173 13.1839 25.2745L13.204 24.5986L13.6512 24.5894C13.8971 24.5843 14.8322 24.5757 15.7291 24.5704L17.3599 24.5606L17.3592 24.7709ZM26.6482 26.2261C26.6601 27.1406 26.6793 28.4416 26.691 29.1172L26.7122 30.3454L26.4696 30.3475C26.3362 30.3487 24.4126 30.3837 22.195 30.4253C19.9774 30.467 18.1568 30.496 18.1492 30.4899C18.1314 30.4755 18.2067 25.4357 18.2322 24.9394L18.2515 24.5634H22.4391H26.6267L26.6482 26.2261ZM36.5356 24.6386C36.5351 24.6799 36.5136 26.0674 36.4877 27.7218L36.4406 30.7298L36.5131 30.8802C36.5741 31.0067 36.6194 31.0474 36.7986 31.1369L37.0117 31.2432L41.6204 31.3288C45.864 31.4077 46.2412 31.4102 46.3826 31.3611C46.5775 31.2934 46.722 31.147 46.7514 30.9875C46.775 30.8599 46.7132 25.8777 46.6778 25.0561L46.6581 24.5963L48.7515 24.6049L50.845 24.6135L50.9809 34.6235C51.0557 40.129 51.111 44.6398 51.1038 44.6475C51.0832 44.6695 33.7363 44.6436 33.0945 44.6206L32.5208 44.6001L32.501 39.2525C32.4902 36.3113 32.4791 31.803 32.4765 29.2341L32.4716 24.5634H34.504H36.5364L36.5356 24.6386ZM45.8 24.6074C45.805 24.6147 45.8391 26.8581 45.8637 28.7996C45.8734 29.5671 45.8871 30.2665 45.894 30.3538L45.9066 30.5125L45.737 30.5118C45.1048 30.509 37.3468 30.3473 37.3364 30.3366C37.3181 30.318 37.3879 25.029 37.4098 24.7671L37.4278 24.553L41.6118 24.5772C43.9131 24.5905 45.7977 24.6041 45.8 24.6074ZM34.4712 45.5359H56.6471L56.6392 49.3293C56.6349 51.4157 56.6221 53.9095 56.6107 54.8711L56.59 56.6196L54.4551 56.6001C53.2808 56.5894 51.429 56.5716 50.3398 56.5605L48.3596 56.5404L48.379 55.0989C48.4007 53.4979 48.3985 53.4758 48.1954 53.2851C48.0872 53.1833 48.0719 53.1794 47.7106 53.1608C47.4182 53.1457 41.636 53.081 39.4047 53.0679C39.1703 53.0665 38.9159 53.0826 38.8394 53.1036C38.6022 53.1689 38.6041 53.1587 38.517 54.8247C38.4746 55.6349 38.4394 56.3015 38.4388 56.3059C38.4376 56.3143 25.5762 56.2754 25.5648 56.2669C25.5611 56.2643 25.5264 55.6159 25.4877 54.8261C25.4108 53.2597 25.4017 53.2031 25.2108 53.1063C25.0992 53.0498 25.1771 53.0498 19.4579 53.1078L16.0323 53.1425L15.8887 53.2162C15.6163 53.3559 15.6226 53.313 15.6226 55.0302V56.5376L11.5207 56.5609C9.2646 56.5737 7.41494 56.5799 7.41032 56.5747C7.4057 56.5695 7.39108 54.0713 7.3778 51.0232L7.35368 45.4811L9.82455 45.5085C11.1835 45.5235 22.2745 45.5359 34.4712 45.5359Z"/>
</mask>
<path fill-rule="evenodd" clip-rule="evenodd" d="M22.7031 6.512C22.5444 6.54582 22.4493 6.61243 22.3666 6.74779C22.3026 6.85261 22.2937 6.93021 22.2706 7.58335C22.2566 7.97937 22.2004 11.6047 22.1457 15.6396C22.091 19.6745 22.0379 23.1276 22.0277 23.3131L22.0091 23.6504L21.2199 23.6724C20.7858 23.6845 18.7016 23.6944 16.5884 23.6944C14.4752 23.6944 12.7002 23.7037 12.6441 23.7152C12.5108 23.7424 12.385 23.8737 12.3475 24.0247C12.3311 24.0912 12.2575 28.3944 12.184 33.5874C12.1105 38.7804 12.0411 43.3902 12.0298 43.8313L12.0093 44.6335L9.36914 44.61C7.65896 44.5948 6.70781 44.5981 6.66883 44.6193C6.63575 44.6374 6.58291 44.7006 6.55138 44.7598C6.49729 44.8613 6.49464 45.2079 6.50447 50.9002C6.5104 54.3509 6.52755 56.9836 6.54453 57.0515C6.58849 57.2271 6.7695 57.3831 7.01148 57.4539C7.06783 57.4704 9.03294 57.469 11.5534 57.4507C16.5016 57.4149 16.2235 57.4297 16.4016 57.1917L16.4913 57.0719L16.5007 55.5467L16.5101 54.0215L20.5303 53.9819C22.7414 53.9601 24.5539 53.9459 24.5581 53.9503C24.5642 53.9567 24.6786 56.0061 24.7134 56.7324C24.7229 56.931 24.7976 57.0581 24.9473 57.1306C25.0462 57.1784 25.73 57.1836 32.0177 57.1834C38.8637 57.1833 38.9803 57.1822 39.0835 57.118C39.2785 56.9968 39.2811 56.981 39.3596 55.4248C39.3993 54.6366 39.4405 53.9819 39.451 53.9699C39.4616 53.9579 41.1445 53.9685 43.1908 53.9935C45.2371 54.0186 47.0478 54.0397 47.2146 54.0404L47.5178 54.0419V55.5576V57.0734L47.592 57.187C47.6328 57.2494 47.7249 57.3306 47.7968 57.3674C47.9226 57.4317 48.0148 57.435 50.2385 57.455C51.5096 57.4664 53.5542 57.4812 54.782 57.4879L57.0145 57.5L57.1718 57.4003C57.2584 57.3454 57.3601 57.2581 57.3979 57.2062C57.4659 57.1128 57.4668 57.085 57.4836 54.5658C57.493 53.1655 57.5004 50.4002 57.5 48.4208L57.4994 44.8217L57.401 44.7164L57.3027 44.6111L54.6475 44.6223L51.9923 44.6335L51.8529 34.3585C51.7234 24.8153 51.7094 24.0752 51.6562 23.9663C51.6247 23.9019 51.5573 23.818 51.5064 23.7801C51.414 23.7112 51.4038 23.7111 46.7323 23.7019L42.0508 23.6926L42.0315 23.6016C42.012 23.5098 41.9553 19.9071 41.865 13.016C41.7838 6.82075 41.7882 6.99151 41.705 6.81785C41.6658 6.7361 41.5921 6.63834 41.5412 6.6006L41.4486 6.53202L32.248 6.52858C27.1876 6.5267 22.9957 6.51671 22.9326 6.50635C22.8695 6.49602 22.7662 6.49856 22.7031 6.512ZM27.3251 7.44111C27.3342 7.44966 27.3496 8.61727 27.3595 10.0358C27.3794 12.899 27.3638 12.713 27.6017 12.926C27.6655 12.9831 27.7805 13.0472 27.8574 13.0685C28.014 13.1118 35.9197 13.1269 36.1668 13.0844C36.3457 13.0535 36.5874 12.8407 36.6359 12.6711C36.6586 12.5915 36.6791 11.6451 36.6939 9.99123L36.7167 7.43442L38.8177 7.42583L40.9188 7.41721L40.9414 9.19721C40.9539 10.1762 40.9925 13.0678 41.0272 15.6229C41.0619 18.178 41.1005 21.0359 41.1129 21.9737L41.1355 23.6788L32.0259 23.6663C27.0155 23.6595 22.9123 23.6503 22.9075 23.6458C22.9028 23.6413 22.9507 20.1273 23.014 15.8369C23.0774 11.5464 23.1292 7.89217 23.1292 7.71634L23.1293 7.39665L25.219 7.41106C26.3684 7.41901 27.3161 7.43252 27.3251 7.44111ZM35.8199 9.79818C35.8129 11.2049 35.7958 12.1604 35.7773 12.1804C35.746 12.2142 28.2956 12.2304 28.2663 12.1967C28.2584 12.1877 28.2422 11.1125 28.2302 9.80741L28.2084 7.43442L32.02 7.44191L35.8316 7.44939L35.8199 9.79818ZM17.3592 24.7709C17.3588 24.8865 17.337 26.1091 17.3107 27.4878C17.2442 30.9803 17.2442 30.9772 17.3354 31.1176C17.3768 31.1813 17.4801 31.2669 17.5707 31.3127C17.722 31.3892 17.7623 31.3939 18.2099 31.3877C19.1283 31.3749 26.2961 31.2491 26.6894 31.2388C27.0756 31.2287 27.0914 31.2253 27.2759 31.1128C27.6139 30.9068 27.594 31.1086 27.5556 28.2669C27.5374 26.9193 27.5175 25.5347 27.5115 25.19L27.5006 24.5634H29.5441H31.5877L31.5687 27.8805C31.5584 29.705 31.537 34.2109 31.5214 37.8936C31.5058 41.5764 31.4834 44.5994 31.4715 44.6115C31.4597 44.6236 27.2767 44.638 22.1759 44.6435L12.9018 44.6535L12.9012 44.5432C12.8988 44.1462 13.1678 25.8173 13.1839 25.2745L13.204 24.5986L13.6512 24.5894C13.8971 24.5843 14.8322 24.5757 15.7291 24.5704L17.3599 24.5606L17.3592 24.7709ZM26.6482 26.2261C26.6601 27.1406 26.6793 28.4416 26.691 29.1172L26.7122 30.3454L26.4696 30.3475C26.3362 30.3487 24.4126 30.3837 22.195 30.4253C19.9774 30.467 18.1568 30.496 18.1492 30.4899C18.1314 30.4755 18.2067 25.4357 18.2322 24.9394L18.2515 24.5634H22.4391H26.6267L26.6482 26.2261ZM36.5356 24.6386C36.5351 24.6799 36.5136 26.0674 36.4877 27.7218L36.4406 30.7298L36.5131 30.8802C36.5741 31.0067 36.6194 31.0474 36.7986 31.1369L37.0117 31.2432L41.6204 31.3288C45.864 31.4077 46.2412 31.4102 46.3826 31.3611C46.5775 31.2934 46.722 31.147 46.7514 30.9875C46.775 30.8599 46.7132 25.8777 46.6778 25.0561L46.6581 24.5963L48.7515 24.6049L50.845 24.6135L50.9809 34.6235C51.0557 40.129 51.111 44.6398 51.1038 44.6475C51.0832 44.6695 33.7363 44.6436 33.0945 44.6206L32.5208 44.6001L32.501 39.2525C32.4902 36.3113 32.4791 31.803 32.4765 29.2341L32.4716 24.5634H34.504H36.5364L36.5356 24.6386ZM45.8 24.6074C45.805 24.6147 45.8391 26.8581 45.8637 28.7996C45.8734 29.5671 45.8871 30.2665 45.894 30.3538L45.9066 30.5125L45.737 30.5118C45.1048 30.509 37.3468 30.3473 37.3364 30.3366C37.3181 30.318 37.3879 25.029 37.4098 24.7671L37.4278 24.553L41.6118 24.5772C43.9131 24.5905 45.7977 24.6041 45.8 24.6074ZM34.4712 45.5359H56.6471L56.6392 49.3293C56.6349 51.4157 56.6221 53.9095 56.6107 54.8711L56.59 56.6196L54.4551 56.6001C53.2808 56.5894 51.429 56.5716 50.3398 56.5605L48.3596 56.5404L48.379 55.0989C48.4007 53.4979 48.3985 53.4758 48.1954 53.2851C48.0872 53.1833 48.0719 53.1794 47.7106 53.1608C47.4182 53.1457 41.636 53.081 39.4047 53.0679C39.1703 53.0665 38.9159 53.0826 38.8394 53.1036C38.6022 53.1689 38.6041 53.1587 38.517 54.8247C38.4746 55.6349 38.4394 56.3015 38.4388 56.3059C38.4376 56.3143 25.5762 56.2754 25.5648 56.2669C25.5611 56.2643 25.5264 55.6159 25.4877 54.8261C25.4108 53.2597 25.4017 53.2031 25.2108 53.1063C25.0992 53.0498 25.1771 53.0498 19.4579 53.1078L16.0323 53.1425L15.8887 53.2162C15.6163 53.3559 15.6226 53.313 15.6226 55.0302V56.5376L11.5207 56.5609C9.2646 56.5737 7.41494 56.5799 7.41032 56.5747C7.4057 56.5695 7.39108 54.0713 7.3778 51.0232L7.35368 45.4811L9.82455 45.5085C11.1835 45.5235 22.2745 45.5359 34.4712 45.5359Z" fill="#EC6A2D"/>
<path fill-rule="evenodd" clip-rule="evenodd" d="M22.7031 6.512C22.5444 6.54582 22.4493 6.61243 22.3666 6.74779C22.3026 6.85261 22.2937 6.93021 22.2706 7.58335C22.2566 7.97937 22.2004 11.6047 22.1457 15.6396C22.091 19.6745 22.0379 23.1276 22.0277 23.3131L22.0091 23.6504L21.2199 23.6724C20.7858 23.6845 18.7016 23.6944 16.5884 23.6944C14.4752 23.6944 12.7002 23.7037 12.6441 23.7152C12.5108 23.7424 12.385 23.8737 12.3475 24.0247C12.3311 24.0912 12.2575 28.3944 12.184 33.5874C12.1105 38.7804 12.0411 43.3902 12.0298 43.8313L12.0093 44.6335L9.36914 44.61C7.65896 44.5948 6.70781 44.5981 6.66883 44.6193C6.63575 44.6374 6.58291 44.7006 6.55138 44.7598C6.49729 44.8613 6.49464 45.2079 6.50447 50.9002C6.5104 54.3509 6.52755 56.9836 6.54453 57.0515C6.58849 57.2271 6.7695 57.3831 7.01148 57.4539C7.06783 57.4704 9.03294 57.469 11.5534 57.4507C16.5016 57.4149 16.2235 57.4297 16.4016 57.1917L16.4913 57.0719L16.5007 55.5467L16.5101 54.0215L20.5303 53.9819C22.7414 53.9601 24.5539 53.9459 24.5581 53.9503C24.5642 53.9567 24.6786 56.0061 24.7134 56.7324C24.7229 56.931 24.7976 57.0581 24.9473 57.1306C25.0462 57.1784 25.73 57.1836 32.0177 57.1834C38.8637 57.1833 38.9803 57.1822 39.0835 57.118C39.2785 56.9968 39.2811 56.981 39.3596 55.4248C39.3993 54.6366 39.4405 53.9819 39.451 53.9699C39.4616 53.9579 41.1445 53.9685 43.1908 53.9935C45.2371 54.0186 47.0478 54.0397 47.2146 54.0404L47.5178 54.0419V55.5576V57.0734L47.592 57.187C47.6328 57.2494 47.7249 57.3306 47.7968 57.3674C47.9226 57.4317 48.0148 57.435 50.2385 57.455C51.5096 57.4664 53.5542 57.4812 54.782 57.4879L57.0145 57.5L57.1718 57.4003C57.2584 57.3454 57.3601 57.2581 57.3979 57.2062C57.4659 57.1128 57.4668 57.085 57.4836 54.5658C57.493 53.1655 57.5004 50.4002 57.5 48.4208L57.4994 44.8217L57.401 44.7164L57.3027 44.6111L54.6475 44.6223L51.9923 44.6335L51.8529 34.3585C51.7234 24.8153 51.7094 24.0752 51.6562 23.9663C51.6247 23.9019 51.5573 23.818 51.5064 23.7801C51.414 23.7112 51.4038 23.7111 46.7323 23.7019L42.0508 23.6926L42.0315 23.6016C42.012 23.5098 41.9553 19.9071 41.865 13.016C41.7838 6.82075 41.7882 6.99151 41.705 6.81785C41.6658 6.7361 41.5921 6.63834 41.5412 6.6006L41.4486 6.53202L32.248 6.52858C27.1876 6.5267 22.9957 6.51671 22.9326 6.50635C22.8695 6.49602 22.7662 6.49856 22.7031 6.512ZM27.3251 7.44111C27.3342 7.44966 27.3496 8.61727 27.3595 10.0358C27.3794 12.899 27.3638 12.713 27.6017 12.926C27.6655 12.9831 27.7805 13.0472 27.8574 13.0685C28.014 13.1118 35.9197 13.1269 36.1668 13.0844C36.3457 13.0535 36.5874 12.8407 36.6359 12.6711C36.6586 12.5915 36.6791 11.6451 36.6939 9.99123L36.7167 7.43442L38.8177 7.42583L40.9188 7.41721L40.9414 9.19721C40.9539 10.1762 40.9925 13.0678 41.0272 15.6229C41.0619 18.178 41.1005 21.0359 41.1129 21.9737L41.1355 23.6788L32.0259 23.6663C27.0155 23.6595 22.9123 23.6503 22.9075 23.6458C22.9028 23.6413 22.9507 20.1273 23.014 15.8369C23.0774 11.5464 23.1292 7.89217 23.1292 7.71634L23.1293 7.39665L25.219 7.41106C26.3684 7.41901 27.3161 7.43252 27.3251 7.44111ZM35.8199 9.79818C35.8129 11.2049 35.7958 12.1604 35.7773 12.1804C35.746 12.2142 28.2956 12.2304 28.2663 12.1967C28.2584 12.1877 28.2422 11.1125 28.2302 9.80741L28.2084 7.43442L32.02 7.44191L35.8316 7.44939L35.8199 9.79818ZM17.3592 24.7709C17.3588 24.8865 17.337 26.1091 17.3107 27.4878C17.2442 30.9803 17.2442 30.9772 17.3354 31.1176C17.3768 31.1813 17.4801 31.2669 17.5707 31.3127C17.722 31.3892 17.7623 31.3939 18.2099 31.3877C19.1283 31.3749 26.2961 31.2491 26.6894 31.2388C27.0756 31.2287 27.0914 31.2253 27.2759 31.1128C27.6139 30.9068 27.594 31.1086 27.5556 28.2669C27.5374 26.9193 27.5175 25.5347 27.5115 25.19L27.5006 24.5634H29.5441H31.5877L31.5687 27.8805C31.5584 29.705 31.537 34.2109 31.5214 37.8936C31.5058 41.5764 31.4834 44.5994 31.4715 44.6115C31.4597 44.6236 27.2767 44.638 22.1759 44.6435L12.9018 44.6535L12.9012 44.5432C12.8988 44.1462 13.1678 25.8173 13.1839 25.2745L13.204 24.5986L13.6512 24.5894C13.8971 24.5843 14.8322 24.5757 15.7291 24.5704L17.3599 24.5606L17.3592 24.7709ZM26.6482 26.2261C26.6601 27.1406 26.6793 28.4416 26.691 29.1172L26.7122 30.3454L26.4696 30.3475C26.3362 30.3487 24.4126 30.3837 22.195 30.4253C19.9774 30.467 18.1568 30.496 18.1492 30.4899C18.1314 30.4755 18.2067 25.4357 18.2322 24.9394L18.2515 24.5634H22.4391H26.6267L26.6482 26.2261ZM36.5356 24.6386C36.5351 24.6799 36.5136 26.0674 36.4877 27.7218L36.4406 30.7298L36.5131 30.8802C36.5741 31.0067 36.6194 31.0474 36.7986 31.1369L37.0117 31.2432L41.6204 31.3288C45.864 31.4077 46.2412 31.4102 46.3826 31.3611C46.5775 31.2934 46.722 31.147 46.7514 30.9875C46.775 30.8599 46.7132 25.8777 46.6778 25.0561L46.6581 24.5963L48.7515 24.6049L50.845 24.6135L50.9809 34.6235C51.0557 40.129 51.111 44.6398 51.1038 44.6475C51.0832 44.6695 33.7363 44.6436 33.0945 44.6206L32.5208 44.6001L32.501 39.2525C32.4902 36.3113 32.4791 31.803 32.4765 29.2341L32.4716 24.5634H34.504H36.5364L36.5356 24.6386ZM45.8 24.6074C45.805 24.6147 45.8391 26.8581 45.8637 28.7996C45.8734 29.5671 45.8871 30.2665 45.894 30.3538L45.9066 30.5125L45.737 30.5118C45.1048 30.509 37.3468 30.3473 37.3364 30.3366C37.3181 30.318 37.3879 25.029 37.4098 24.7671L37.4278 24.553L41.6118 24.5772C43.9131 24.5905 45.7977 24.6041 45.8 24.6074ZM34.4712 45.5359H56.6471L56.6392 49.3293C56.6349 51.4157 56.6221 53.9095 56.6107 54.8711L56.59 56.6196L54.4551 56.6001C53.2808 56.5894 51.429 56.5716 50.3398 56.5605L48.3596 56.5404L48.379 55.0989C48.4007 53.4979 48.3985 53.4758 48.1954 53.2851C48.0872 53.1833 48.0719 53.1794 47.7106 53.1608C47.4182 53.1457 41.636 53.081 39.4047 53.0679C39.1703 53.0665 38.9159 53.0826 38.8394 53.1036C38.6022 53.1689 38.6041 53.1587 38.517 54.8247C38.4746 55.6349 38.4394 56.3015 38.4388 56.3059C38.4376 56.3143 25.5762 56.2754 25.5648 56.2669C25.5611 56.2643 25.5264 55.6159 25.4877 54.8261C25.4108 53.2597 25.4017 53.2031 25.2108 53.1063C25.0992 53.0498 25.1771 53.0498 19.4579 53.1078L16.0323 53.1425L15.8887 53.2162C15.6163 53.3559 15.6226 53.313 15.6226 55.0302V56.5376L11.5207 56.5609C9.2646 56.5737 7.41494 56.5799 7.41032 56.5747C7.4057 56.5695 7.39108 54.0713 7.3778 51.0232L7.35368 45.4811L9.82455 45.5085C11.1835 45.5235 22.2745 45.5359 34.4712 45.5359Z" stroke="#EC6A2D" stroke-width="0.6" mask="url(#path-1-outside-1_1424_31852)"/>
</svg>
