<svg width="72" height="72" viewBox="0 0 72 72" fill="none" xmlns="http://www.w3.org/2000/svg">
<g clip-path="url(#clip0_1425_17733)">
<path d="M49.3327 37.3333H46.666V29.6507L36.0953 39.1173L25.3327 29.6213V45.3333H38.666V48H23.9993C23.6457 48 23.3066 47.8595 23.0565 47.6095C22.8065 47.3594 22.666 47.0203 22.666 46.6667V25.3333C22.666 24.9797 22.8065 24.6406 23.0565 24.3905C23.3066 24.1405 23.6457 24 23.9993 24H47.9993C48.353 24 48.6921 24.1405 48.9422 24.3905C49.1922 24.6406 49.3327 24.9797 49.3327 25.3333V37.3333ZM26.014 26.6667L36.0807 35.5493L46.002 26.6667H26.014ZM47.9993 44H51.9993V46.6667H47.9993V50.6667H45.3327V46.6667H41.3327V44H45.3327V40H47.9993V44Z" fill="white"/>
</g>
<circle cx="36" cy="36" r="35.5" stroke="#D8D8D8" stroke-dasharray="1 1"/>
<defs>
<clipPath id="clip0_1425_17733">
<rect width="32" height="32" fill="white" transform="translate(20 20)"/>
</clipPath>
</defs>
</svg>
