<svg width="64" height="64" viewBox="0 0 64 64" fill="none" xmlns="http://www.w3.org/2000/svg">
<rect width="60" height="60" transform="translate(2 2)" fill="white"/>
<path fill-rule="evenodd" clip-rule="evenodd" d="M6.69318 9.53707C4.99263 9.7023 3.68496 10.537 3.3065 11.6986C3.18353 12.076 3.17221 12.6176 3.10981 21.1123C3.07344 26.0695 3.03384 32.7126 3.02181 35.8747L3 41.624L3.16855 42.1331C3.55545 43.3015 4.22227 44.0109 5.41583 44.5238C6.30261 44.9049 5.67653 44.8861 17.4737 44.887L28.2191 44.8879V47.8257V50.7635L24.5082 50.7211C20.3775 50.6739 20.4902 50.6646 20.1968 51.0743C20.0713 51.2496 20.0594 51.3828 20.0592 52.6239L20.059 53.9817L20.2691 54.1606C20.3989 54.2711 20.5804 54.3521 20.7439 54.3726C20.9692 54.4008 37.3895 54.5 41.8311 54.5C43.4807 54.5 43.6874 54.4608 43.9376 54.1002C44.0584 53.9261 44.0647 53.8146 44.0201 52.6269C43.9692 51.2697 43.9218 51.0719 43.6137 50.9316C43.5085 50.8836 42.2891 50.8533 39.5584 50.8308L35.6536 50.7987L35.6999 49.0014C35.7253 48.0128 35.7462 46.6825 35.7462 46.045V44.8859L46.64 44.8891C54.0645 44.8912 57.6396 44.872 57.8662 44.8288C59.4438 44.5278 60.7008 43.5401 60.9221 42.4276C60.9782 42.1452 61.0003 37.8893 61 27.4256C60.9994 11.273 61.0218 12.0923 60.5582 11.2743C60.1701 10.5894 59.7191 10.1636 59.0989 9.89664C58.0902 9.46239 60.328 9.49509 32.264 9.50455C18.3355 9.50928 6.82859 9.5239 6.69318 9.53707ZM57.9526 10.8743C58.3856 10.9775 58.8983 11.4032 59.1582 11.8753L59.3473 12.2189L59.3657 24.1716L59.3842 36.1244L41.0113 36.1642C30.9062 36.1862 18.5758 36.2041 13.6106 36.2041H4.58279L4.58272 34.4225C4.58244 28.2602 4.73734 12.4178 4.80044 12.1463C4.91208 11.6663 5.5637 11.1015 6.231 10.9065C6.38914 10.8603 13.8719 10.8345 32.0336 10.8174C53.3549 10.7974 57.6699 10.8069 57.9526 10.8743ZM34.92 12.1907C34.8332 12.2204 34.697 12.3332 34.6174 12.4414C34.4125 12.7197 34.4699 13.0626 34.7581 13.2819L34.9746 13.4466H44.8877C51.1572 13.4466 54.8671 13.4251 54.9812 13.3882C55.4679 13.2307 55.573 12.6042 55.1649 12.2937L54.9484 12.129L45.0131 12.1328C39.2841 12.135 35.011 12.1595 34.92 12.1907ZM18.1244 12.5251C17.2135 12.606 16.2748 12.7652 15.633 12.9476C13.9708 13.4202 12.5852 14.1693 11.3712 15.2517C9.71546 16.7277 8.7157 18.6124 8.52351 20.6197C8.17354 24.2752 10.4496 27.6853 14.3257 29.3131C15.1148 29.6444 16.0335 29.9035 17.1396 30.1067C17.7994 30.2279 20.0258 30.2108 20.7432 30.079C22.2725 29.7981 23.5446 29.3605 24.6396 28.7388C25.9681 27.9844 27.2265 26.8093 28.0608 25.544C28.8946 24.2795 29.4225 22.3196 29.3107 20.9027C29.181 19.258 28.6081 17.8134 27.5539 16.4723C25.6433 14.0421 22.6208 12.6161 19.1796 12.5214C18.754 12.5097 18.2792 12.5114 18.1244 12.5251ZM18.251 17.6537C18.2753 19.7958 18.3235 21.5253 18.3619 21.6343C18.3993 21.7402 18.7232 22.1579 19.0818 22.5625C19.4405 22.9671 20.3667 24.0124 21.1402 24.8852C21.9136 25.7581 22.7782 26.7323 23.0614 27.05C23.3445 27.3677 23.5763 27.6547 23.5763 27.6877C23.5763 27.7754 22.4408 28.2583 21.7473 28.4655C20.7608 28.7603 20.1175 28.8454 18.8792 28.8447C17.2893 28.8439 16.3319 28.6566 14.9273 28.0719C12.543 27.0794 10.889 25.2433 10.2317 22.8594C10.0735 22.2859 10.0552 20.505 10.2016 19.9445C10.8899 17.3095 12.8516 15.3151 15.6975 14.3569C16.3454 14.1388 17.511 13.8969 18.0255 13.8739L18.2079 13.8658L18.251 17.6537ZM20.7272 14.0194C21.3755 14.135 22.3278 14.4103 22.8376 14.6294C23.4521 14.8936 24.3466 15.4315 24.8905 15.8639C25.4103 16.2772 26.3198 17.2089 26.3198 17.3281C26.3198 17.3825 26.0756 17.5055 24.8425 18.0724C23.7959 18.5536 20.2077 20.2387 20.0704 20.3136C19.98 20.3629 19.8972 20.3943 19.8863 20.3834C19.8474 20.3445 19.7914 13.9339 19.8296 13.9013C19.8512 13.883 19.9354 13.8795 20.0166 13.8935C20.0979 13.9075 20.4177 13.9642 20.7272 14.0194ZM47.0967 16.8558C46.6502 17.0876 46.6357 17.6739 47.0702 17.9372C47.2642 18.0547 47.3716 18.058 51.1047 18.058H54.9399L55.1539 17.9047C55.4353 17.7031 55.5087 17.3924 55.3384 17.1233C55.0929 16.7352 55.1519 16.7404 51.0358 16.7407C47.4945 16.7409 47.3076 16.7464 47.0967 16.8558ZM34.9991 16.9147C34.5912 17.1265 34.5284 17.6676 34.8792 17.9481L35.054 18.0879H40.3653H45.6765L45.8818 17.8923C46.1767 17.6113 46.1722 17.2413 45.8706 16.9846L45.6541 16.8003L40.4363 16.8006C35.4321 16.8007 35.2096 16.8054 34.9991 16.9147ZM27.2485 18.9598C27.8316 20.4169 27.8217 22.3935 27.224 23.8372C26.8785 24.6717 26.2219 25.6261 25.5193 26.3151C24.8358 26.9854 25.164 27.2097 22.6281 24.3394C21.4029 22.9528 20.3883 21.7874 20.3734 21.7497C20.3585 21.7121 20.4795 21.6256 20.6423 21.5577C20.805 21.4898 21.4289 21.2038 22.0286 20.9221C22.6283 20.6405 23.578 20.1945 24.139 19.931C24.7 19.6675 25.3648 19.3552 25.6163 19.2371C26.678 18.7384 26.9916 18.6033 27.0531 18.6181C27.0889 18.6268 27.1768 18.7805 27.2485 18.9598ZM35.166 21.7152C34.834 21.7617 34.641 21.9089 34.5415 22.1914C34.4772 22.3741 34.4851 22.451 34.5869 22.6334C34.8191 23.05 34.4771 23.0287 40.9201 23.0287H46.7342L46.9734 22.8251C47.165 22.662 47.2126 22.5742 47.2126 22.384C47.2126 22.1092 47.0314 21.8786 46.7401 21.7826C46.5262 21.7121 35.6413 21.6488 35.166 21.7152ZM34.8158 26.6177C34.7103 26.6894 34.5879 26.8507 34.5439 26.9759C34.4769 27.1663 34.4839 27.2399 34.5869 27.4245C34.8183 27.8397 34.3688 27.8127 42.1503 27.8797C47.7798 27.9282 49.2326 27.9252 49.3764 27.8651C49.9813 27.6123 49.9768 26.8681 49.3692 26.652C49.1904 26.5884 47.7145 26.5636 42.0763 26.5297L35.0075 26.4871L34.8158 26.6177ZM34.9372 31.3503C34.5456 31.4886 34.3473 31.8889 34.5081 32.2164C34.7156 32.6392 34.5069 32.6187 39.2108 32.6799C41.5418 32.7102 43.5484 32.7199 43.6698 32.7014C43.9368 32.6608 44.2296 32.4253 44.2772 32.2126C44.3355 31.9534 44.1989 31.6566 43.9658 31.536C43.7874 31.4436 43.5446 31.42 42.4753 31.391C40.1209 31.3273 35.0794 31.3001 34.9372 31.3503ZM59.3985 39.9322C59.4122 41.6522 59.3945 42.3856 59.3368 42.4924C59.1999 42.746 58.7021 43.0878 58.1324 43.3194L57.5886 43.5404L55.5134 43.5567C54.3721 43.5656 42.8652 43.5521 29.9426 43.5267L6.44696 43.4806L5.97797 43.2558C5.71994 43.1322 5.38635 42.9125 5.23652 42.7676C4.94331 42.4841 4.606 41.9475 4.53749 41.6557C4.51413 41.5565 4.51849 40.5995 4.54705 39.5289L4.59904 37.5826L8.23129 37.5666C10.2291 37.5577 22.5546 37.544 35.6215 37.5361L59.3793 37.5217L59.3985 39.9322ZM31.6474 38.1827C30.1536 38.4993 29.5841 39.8981 30.5329 40.9199C31.172 41.6082 32.4355 41.7179 33.2904 41.1593C33.9589 40.7227 34.2101 39.8375 33.8572 39.1622C33.4829 38.4457 32.4876 38.0046 31.6474 38.1827ZM32.3038 39.56C32.4613 39.6318 32.494 39.9855 32.352 40.0822C32.1358 40.2295 31.9515 40.2255 31.7684 40.0696C31.4038 39.7592 31.8367 39.3471 32.3038 39.56ZM34.1282 47.8189C34.1282 49.431 34.1045 50.7596 34.0754 50.7715C34.0464 50.7833 33.0651 50.7823 31.8947 50.7691L29.7667 50.7451V47.8165V44.8879H31.9475H34.1282V47.8189ZM39.3866 52.1721L42.429 52.2084V52.6883V53.1682L36.5024 53.1303C33.2427 53.1095 28.5577 53.0754 26.0911 53.0548L21.6066 53.0172V52.5397V52.0621L28.9753 52.0989C33.0281 52.1191 37.7132 52.1521 39.3866 52.1721Z" fill="#EC6A2D"/>
</svg>
