<svg width="48" height="48" viewBox="0 0 48 48" fill="none" xmlns="http://www.w3.org/2000/svg">
<path d="M13 26.5C12.9994 25.3955 13.2804 24.309 13.8166 23.3433C14.3527 22.3776 15.1262 21.5646 16.064 20.981C16.3115 19.0511 17.2538 17.2775 18.7145 15.9922C20.1752 14.7068 22.0543 13.9978 24 13.9978C25.9457 13.9978 27.8248 14.7068 29.2855 15.9922C30.7462 17.2775 31.6885 19.0511 31.936 20.981C33.0992 21.7047 34.0041 22.7774 34.5213 24.046C35.0385 25.3146 35.1417 26.7141 34.8161 28.0449C34.4906 29.3756 33.7528 30.5694 32.7083 31.4559C31.6638 32.3423 30.366 32.8761 29 32.981L19 33C15.644 32.726 13 29.922 13 26.5ZM28.848 30.987C29.7938 30.9143 30.6925 30.5445 31.4156 29.9305C32.1387 29.3166 32.6493 28.4898 32.8745 27.5682C33.0996 26.6467 33.0278 25.6776 32.6692 24.7994C32.3107 23.9211 31.6837 23.1787 30.878 22.678L30.071 22.175L29.951 21.233C29.7641 19.7867 29.0569 18.4579 27.9616 17.4951C26.8663 16.5322 25.4578 16.0012 23.9995 16.0012C22.5412 16.0012 21.1327 16.5322 20.0374 17.4951C18.9421 18.4579 18.2349 19.7867 18.048 21.233L17.928 22.175L17.123 22.678C16.3173 23.1786 15.6904 23.921 15.3318 24.7992C14.9732 25.6773 14.9013 26.6463 15.1263 27.5678C15.3513 28.4893 15.8618 29.3161 16.5848 29.9302C17.3077 30.5442 18.2063 30.9141 19.152 30.987L19.325 31H28.675L28.848 30.987ZM25 24H28L24 29L20 24H23V20H25V24Z" fill="black"/>
<circle cx="24" cy="24" r="23.5" stroke="#D8D8D8" stroke-dasharray="1 1"/>
</svg>
