<svg width="20" height="20" viewBox="0 0 20 20" fill="none" xmlns="http://www.w3.org/2000/svg">
<path d="M0.833985 12.0834C0.833472 11.1629 1.06767 10.2575 1.51444 9.45278C1.96122 8.64803 2.60582 7.97049 3.38732 7.48419C3.59358 5.87594 4.37882 4.39795 5.59608 3.32683C6.81335 2.2557 8.37922 1.66486 10.0007 1.66486C11.6221 1.66486 13.188 2.2557 14.4052 3.32683C15.6225 4.39795 16.4077 5.87594 16.614 7.48419C17.5833 8.08727 18.3374 8.9812 18.7684 10.0383C19.1994 11.0955 19.2854 12.2618 19.0141 13.3707C18.7428 14.4797 18.128 15.4745 17.2576 16.2132C16.3872 16.952 15.3056 17.3968 14.1673 17.4842L5.83398 17.5C3.03732 17.2717 0.833985 14.935 0.833985 12.0834ZM14.0407 15.8225C14.8288 15.7619 15.5777 15.4538 16.1803 14.9421C16.7829 14.4305 17.2084 13.7415 17.396 12.9736C17.5837 12.2056 17.5238 11.3981 17.225 10.6662C16.9262 9.9343 16.4038 9.31557 15.7323 8.89836L15.0598 8.47919L14.9598 7.69419C14.804 6.48893 14.2147 5.38164 13.302 4.57927C12.3892 3.77689 11.2155 3.33435 10.0002 3.33435C8.78495 3.33435 7.61125 3.77689 6.6985 4.57927C5.78576 5.38164 5.19642 6.48893 5.04065 7.69419L4.94065 8.47919L4.26982 8.89836C3.5984 9.31552 3.07597 9.93419 2.77715 10.666C2.47833 11.3978 2.41839 12.2053 2.60591 12.9732C2.79342 13.7411 3.2188 14.4301 3.82128 14.9418C4.42376 15.4535 5.17253 15.7618 5.96065 15.8225L6.10482 15.8334H13.8965L14.0407 15.8225ZM10.834 10H13.334L10.0007 14.1667L6.66732 10H9.16732V6.66669H10.834V10Z" fill="white"/>
</svg>
