<svg width="16" height="16" viewBox="0 0 16 16" fill="none" xmlns="http://www.w3.org/2000/svg">
<path d="M8.00065 14.6666C4.31865 14.6666 1.33398 11.6819 1.33398 7.99992C1.33398 4.31792 4.31865 1.33325 8.00065 1.33325C11.6827 1.33325 14.6673 4.31792 14.6673 7.99992C14.6673 11.6819 11.6827 14.6666 8.00065 14.6666ZM8.00065 13.3333C9.41514 13.3333 10.7717 12.7713 11.7719 11.7712C12.7721 10.771 13.334 9.41441 13.334 7.99992C13.334 6.58543 12.7721 5.22888 11.7719 4.22868C10.7717 3.22849 9.41514 2.66659 8.00065 2.66659C6.58616 2.66659 5.22961 3.22849 4.22941 4.22868C3.22922 5.22888 2.66732 6.58543 2.66732 7.99992C2.66732 9.41441 3.22922 10.771 4.22941 11.7712C5.22961 12.7713 6.58616 13.3333 8.00065 13.3333ZM8.66732 7.99992H11.334V9.33325H7.33398V4.66659H8.66732V7.99992Z" fill="#747474"/>
</svg>
