<svg width="64" height="64" viewBox="0 0 64 64" fill="none" xmlns="http://www.w3.org/2000/svg">
<mask id="path-1-outside-1_1424_31858" maskUnits="userSpaceOnUse" x="2" y="3" width="60" height="58" fill="black">
<rect fill="white" x="2" y="3" width="60" height="58"/>
<path fill-rule="evenodd" clip-rule="evenodd" d="M28.761 4.08999C28.6229 4.20456 28.6159 4.22397 28.4516 4.95859C28.0864 6.59172 27.9273 7.23248 27.8742 7.28469C27.8096 7.34813 25.3497 8.99989 25.2812 9.0258C25.2345 9.04348 24.5446 8.73102 23.2047 8.08529C22.356 7.67629 22.2929 7.66215 22.1055 7.83911C22.0033 7.93566 22.024 7.90414 20.6663 10.0362C20.1452 10.8546 19.523 11.831 19.2836 12.2059C19.0443 12.5809 18.8329 12.9281 18.8138 12.9774C18.7575 13.1235 18.7728 13.2018 18.9081 13.46C19.0345 13.7012 19.0523 13.7179 20.0351 14.5093C20.5843 14.9516 21.105 15.374 21.1922 15.4478L21.3507 15.5821L21.3556 17.4928C21.3584 18.5436 21.3479 19.4335 21.3324 19.4703C21.317 19.5071 21.2575 19.5755 21.2004 19.6224C20.2936 20.3667 19.4978 21.0372 19.4255 21.1178C19.3086 21.2482 19.277 21.4119 19.3401 21.5608C19.367 21.6242 19.5422 21.9179 19.7297 22.2136C20.098 22.7948 22.3595 26.3525 22.8319 27.0939C22.9909 27.3435 23.1631 27.5787 23.2145 27.6165C23.3737 27.7337 23.5616 27.6658 24.7399 27.0658L25.8091 26.5213L26.5391 26.8637C28.5188 27.7924 28.5809 27.8244 28.6016 27.9293C28.6122 27.9828 28.6997 28.62 28.796 29.3454C28.9612 30.5898 28.9772 30.6765 29.0805 30.8807C29.2705 31.2561 28.9305 31.2244 32.661 31.2142L35.8917 31.2053L35.9944 31.1083C36.1859 30.9274 36.2205 30.7815 36.4277 29.2778C36.5354 28.4966 36.6258 27.8551 36.6286 27.8521C36.6485 27.8314 39.5489 26.4879 39.5739 26.4879C39.5914 26.4879 40.1017 26.7405 40.7081 27.0491C41.9205 27.6664 42.1065 27.7341 42.2663 27.6165C42.3177 27.5787 42.4898 27.3435 42.6489 27.0939C43.1213 26.3525 45.3828 22.7948 45.7511 22.2136C46.1516 21.5817 46.197 21.4856 46.1679 21.3326C46.1333 21.1507 46.1496 21.1654 44.1191 19.4887L43.8539 19.2697L43.8627 17.4441L43.8716 15.6185L44.1803 15.3697C44.3501 15.2328 44.8749 14.8107 45.3466 14.4317C46.1887 13.755 46.2063 13.7382 46.3204 13.506C46.4788 13.1837 46.4643 13.109 46.1456 12.6049C46.0051 12.3824 45.4061 11.4396 44.8146 10.5097C44.2231 9.57971 43.6172 8.62511 43.4681 8.38829C43.0089 7.65914 42.9975 7.65654 42.1142 8.07884C41.3923 8.424 39.9849 9.07246 39.9578 9.07246C39.9128 9.07246 37.3024 7.29271 37.2857 7.25064C37.2755 7.22507 37.1201 6.5479 36.9404 5.74581C36.7394 4.84862 36.5901 4.25491 36.5526 4.2029C36.5191 4.1564 36.4387 4.09174 36.374 4.05925C36.2642 4.00402 36.0115 4.0001 32.5629 4.00007L28.8694 4L28.761 4.08999ZM35.8532 4.89478C35.8579 4.89854 36.0012 5.51562 36.1716 6.26607C36.3677 7.12998 36.5069 7.67118 36.5508 7.74125C36.6348 7.87526 36.6205 7.86495 38.2563 8.96831C39.5691 9.85379 39.7418 9.95051 40.0121 9.95132C40.0897 9.95156 40.3069 9.86965 40.6296 9.71842C40.9034 9.59012 41.4708 9.32382 41.8906 9.12664C42.3104 8.92945 42.6654 8.76825 42.6796 8.76845C42.6937 8.76862 42.8848 9.05397 43.1042 9.40251C43.3236 9.75106 43.8231 10.5384 44.2142 11.1522C45.3429 12.9234 45.4754 13.1359 45.4797 13.1817C45.4835 13.222 45.2333 13.4301 43.9404 14.4616C43.3172 14.9588 43.1734 15.0977 43.0775 15.2951C43.0055 15.4432 43.0031 15.4954 42.9795 17.4445L42.9553 19.4422L43.0419 19.6088C43.152 19.8205 43.3113 19.9702 44.3004 20.7911C44.7437 21.1592 45.1115 21.4805 45.1175 21.5053C45.1236 21.5301 45.0988 21.5923 45.0624 21.6435C45.0013 21.7296 44.6522 22.2776 42.6281 25.465C42.2236 26.102 41.8764 26.6232 41.8565 26.6232C41.8367 26.6232 41.5564 26.4882 41.2338 26.3232C40.9111 26.1582 40.431 25.915 40.1669 25.7827L39.6867 25.5422L39.4294 25.6302C39.2879 25.6787 38.4852 26.0375 37.6457 26.4276C36.1267 27.1333 35.9543 27.2301 35.8432 27.439C35.8173 27.4877 35.708 28.1649 35.6003 28.9438L35.4046 30.3599L32.6076 30.356C31.02 30.3538 29.807 30.3391 29.8023 30.3222C29.7977 30.3057 29.7157 29.6988 29.62 28.9734C29.5243 28.2481 29.4313 27.6013 29.4133 27.5362C29.3472 27.2967 29.1322 27.139 28.4136 26.8028C26.8213 26.0578 26.3929 25.8471 26.3745 25.7997C26.3528 25.744 26.3389 25.7371 26.0171 25.6218L25.7941 25.5419L25.3139 25.7825C25.0497 25.9149 24.5696 26.1582 24.247 26.3232C23.9243 26.4882 23.6441 26.6232 23.6243 26.6232C23.6044 26.6232 23.2572 26.102 22.8526 25.465C20.8286 22.2776 20.4795 21.7296 20.4184 21.6435C20.382 21.5923 20.3572 21.5301 20.3632 21.5053C20.3693 21.4805 20.7781 21.1237 21.2716 20.7124C21.7652 20.3011 22.1897 19.9355 22.215 19.8999C22.2528 19.8467 22.257 19.4437 22.2386 17.6201L22.2163 15.4049L22.1022 15.1954C22.0349 15.0717 21.9246 14.9354 21.833 14.8624C21.6263 14.698 19.7643 13.1952 19.7296 13.1648C19.7146 13.1517 19.9152 12.8059 20.1755 12.3963C20.4358 11.9868 21.0655 10.9955 21.5749 10.1935C22.0843 9.39156 22.5189 8.73514 22.5408 8.73484C22.5772 8.73433 23.6369 9.22427 24.6756 9.72181C25.0658 9.90871 25.1157 9.92423 25.2825 9.9106C25.3848 9.90222 25.5362 9.85826 25.6291 9.80997C25.8693 9.68505 28.4149 7.97221 28.5497 7.84476C28.6126 7.78534 28.6775 7.71233 28.694 7.68251C28.7105 7.65271 28.8637 7.02119 29.0345 6.27913C29.2054 5.53709 29.3527 4.9097 29.3619 4.88494C29.3758 4.84764 29.9344 4.84402 32.6117 4.86394C34.3899 4.87716 35.8486 4.89103 35.8532 4.89478ZM32.1204 9.64788C30.8879 9.72492 29.4223 10.1971 28.3839 10.8517C27.6823 11.294 26.8223 12.0525 26.348 12.6472C25.6208 13.559 25.0293 14.7933 24.7868 15.9047C24.4501 17.4483 24.5898 19.0952 25.1808 20.546C26.1525 22.9317 28.2009 24.6882 30.7508 25.3224C32.5895 25.7796 34.545 25.5629 36.2866 24.7087C38.6739 23.5379 40.2787 21.3303 40.6842 18.6594C40.7675 18.111 40.7687 17.0831 40.6868 16.5459C40.5703 15.7826 40.3798 15.1151 40.0846 14.4371C38.7439 11.3567 35.546 9.43372 32.1204 9.64788ZM33.4535 10.5623C34.2484 10.6477 35.0808 10.8848 35.8203 11.2365C37.9798 12.2636 39.4761 14.315 39.7917 16.6812C39.8616 17.2059 39.8442 18.2949 39.7583 18.7609C39.6239 19.49 39.4445 20.0335 39.1219 20.6891C38.0606 22.846 35.9901 24.3075 33.5636 24.6125C32.9622 24.6881 32.0153 24.6663 31.4337 24.5635C30.0273 24.315 28.7492 23.6773 27.7356 22.7182C25.8022 20.8887 25.0617 18.2529 25.7639 15.7005C25.8779 15.2861 26.0452 14.8689 26.2956 14.3749C27.1424 12.7041 28.7323 11.3856 30.5622 10.8366C31.4693 10.5645 32.5336 10.4636 33.4535 10.5623ZM58.3492 20.7577C57.8006 20.8597 57.1054 21.1338 56.615 21.4414C56.3649 21.5982 56.6123 21.361 50.7493 27.0634C49.2682 28.5038 47.4082 30.3125 46.6158 31.0826C44.2384 33.3934 44.1405 33.4924 44.1134 33.6147C44.042 33.9376 44.3235 34.2166 44.6494 34.1461C44.73 34.1286 44.9719 33.9163 45.5841 33.3256C47.1238 31.8401 54.2234 24.9292 55.5566 23.6183C56.6333 22.5596 56.9297 22.2868 57.1346 22.1663C58.1971 21.5408 59.2722 21.4146 59.7805 21.8556C60.0095 22.0543 60.0964 22.2735 60.0954 22.6498C60.0936 23.2991 59.7677 23.9579 59.0073 24.8492C58.8485 25.0354 57.8699 26.3058 56.8327 27.6724C55.7955 29.0389 53.4959 32.0668 51.7225 34.401C49.9491 36.7351 46.9058 40.7411 44.9597 43.3031L41.4212 47.9614H28.3616C15.3505 47.9614 15.3015 47.9616 15.1596 48.0293C15.0813 48.0667 14.9959 48.139 14.9699 48.1899C14.9439 48.2409 14.8973 48.3206 14.8662 48.3671C14.8352 48.4136 14.7209 48.6191 14.6122 48.8237C14.5035 49.0283 13.6505 50.6337 12.7167 52.3913C11.7828 54.1489 10.9413 55.7315 10.8466 55.9082C10.7519 56.0849 10.6091 56.3512 10.5293 56.5C10.4496 56.6488 10.2911 56.9455 10.177 57.1594C10.063 57.3733 9.75062 57.9592 9.48275 58.4613C8.95792 59.4452 8.9089 59.5851 9.01689 59.7909C9.0844 59.9196 9.23066 60 9.39744 60C9.57475 60 9.7085 59.9192 9.80355 59.7546C9.90258 59.5832 9.84701 59.6874 11.7306 56.1436C12.5557 54.5913 13.3326 53.131 13.4571 52.8985C13.5816 52.6661 14.1161 51.6617 14.6449 50.6667L15.6062 48.8575L28.661 48.8406L41.7159 48.8237L41.9035 48.684C42.0067 48.6072 42.2001 48.4018 42.3333 48.2275C42.7685 47.6579 52.4149 34.9613 53.4933 33.5386C56.9083 29.0333 59.6427 25.4544 59.9067 25.1445C60.2299 24.7651 60.5765 24.2247 60.7335 23.8555C61.3303 22.4521 60.9004 21.2042 59.6878 20.8196C59.3359 20.708 58.7599 20.6813 58.3492 20.7577ZM11.8583 33.4409C11.7189 33.5105 11.869 33.2723 9.74043 36.8019C9.56659 37.0902 8.94159 38.125 8.35155 39.1014C7.76155 40.0779 7.15964 41.0746 7.01399 41.3164C6.69069 41.8532 4.07758 46.1794 3.62335 46.9299C3.00864 47.9457 3 47.9624 3 48.1335C3 48.5078 3.42611 48.6909 3.71346 48.4401C3.77009 48.3907 4.30645 47.5361 4.90534 46.5411C6.32073 44.1894 6.44014 43.9913 7.64797 41.9928C8.20999 41.0628 8.83477 40.028 9.03641 39.6932C9.23807 39.3585 10.0102 38.0802 10.7523 36.8527C11.4944 35.6251 12.139 34.5559 12.1848 34.4767L12.268 34.3326L26.1145 34.3391C33.7301 34.3427 40.3779 34.3559 40.8873 34.3684C41.8971 34.3932 42.0739 34.4208 42.5795 34.633C43.7199 35.1114 44.2207 36.1332 43.8069 37.1372C43.4548 37.9914 42.4803 38.7054 41.2992 38.9745C40.991 39.0448 40.9627 39.045 31.0245 39.0657L21.0589 39.0864L20.9347 39.1621C20.8029 39.2423 20.7002 39.4122 20.7002 39.5496C20.7002 39.6677 20.8356 39.8519 20.9753 39.9237C21.0901 39.9828 21.4736 39.9844 31.0081 39.9646C36.4605 39.9533 40.9833 39.9359 41.0588 39.9259C41.2981 39.8942 42.0098 39.7051 42.2687 39.6044C43.7773 39.0175 44.7783 37.8345 44.8405 36.5652C44.9204 34.9361 43.5464 33.6636 41.5198 33.4896C41.225 33.4643 36.627 33.4489 26.6517 33.4398C18.7089 33.4325 12.1562 33.4172 12.0902 33.4058C12.0103 33.392 11.9327 33.4038 11.8583 33.4409Z"/>
</mask>
<path fill-rule="evenodd" clip-rule="evenodd" d="M28.761 4.08999C28.6229 4.20456 28.6159 4.22397 28.4516 4.95859C28.0864 6.59172 27.9273 7.23248 27.8742 7.28469C27.8096 7.34813 25.3497 8.99989 25.2812 9.0258C25.2345 9.04348 24.5446 8.73102 23.2047 8.08529C22.356 7.67629 22.2929 7.66215 22.1055 7.83911C22.0033 7.93566 22.024 7.90414 20.6663 10.0362C20.1452 10.8546 19.523 11.831 19.2836 12.2059C19.0443 12.5809 18.8329 12.9281 18.8138 12.9774C18.7575 13.1235 18.7728 13.2018 18.9081 13.46C19.0345 13.7012 19.0523 13.7179 20.0351 14.5093C20.5843 14.9516 21.105 15.374 21.1922 15.4478L21.3507 15.5821L21.3556 17.4928C21.3584 18.5436 21.3479 19.4335 21.3324 19.4703C21.317 19.5071 21.2575 19.5755 21.2004 19.6224C20.2936 20.3667 19.4978 21.0372 19.4255 21.1178C19.3086 21.2482 19.277 21.4119 19.3401 21.5608C19.367 21.6242 19.5422 21.9179 19.7297 22.2136C20.098 22.7948 22.3595 26.3525 22.8319 27.0939C22.9909 27.3435 23.1631 27.5787 23.2145 27.6165C23.3737 27.7337 23.5616 27.6658 24.7399 27.0658L25.8091 26.5213L26.5391 26.8637C28.5188 27.7924 28.5809 27.8244 28.6016 27.9293C28.6122 27.9828 28.6997 28.62 28.796 29.3454C28.9612 30.5898 28.9772 30.6765 29.0805 30.8807C29.2705 31.2561 28.9305 31.2244 32.661 31.2142L35.8917 31.2053L35.9944 31.1083C36.1859 30.9274 36.2205 30.7815 36.4277 29.2778C36.5354 28.4966 36.6258 27.8551 36.6286 27.8521C36.6485 27.8314 39.5489 26.4879 39.5739 26.4879C39.5914 26.4879 40.1017 26.7405 40.7081 27.0491C41.9205 27.6664 42.1065 27.7341 42.2663 27.6165C42.3177 27.5787 42.4898 27.3435 42.6489 27.0939C43.1213 26.3525 45.3828 22.7948 45.7511 22.2136C46.1516 21.5817 46.197 21.4856 46.1679 21.3326C46.1333 21.1507 46.1496 21.1654 44.1191 19.4887L43.8539 19.2697L43.8627 17.4441L43.8716 15.6185L44.1803 15.3697C44.3501 15.2328 44.8749 14.8107 45.3466 14.4317C46.1887 13.755 46.2063 13.7382 46.3204 13.506C46.4788 13.1837 46.4643 13.109 46.1456 12.6049C46.0051 12.3824 45.4061 11.4396 44.8146 10.5097C44.2231 9.57971 43.6172 8.62511 43.4681 8.38829C43.0089 7.65914 42.9975 7.65654 42.1142 8.07884C41.3923 8.424 39.9849 9.07246 39.9578 9.07246C39.9128 9.07246 37.3024 7.29271 37.2857 7.25064C37.2755 7.22507 37.1201 6.5479 36.9404 5.74581C36.7394 4.84862 36.5901 4.25491 36.5526 4.2029C36.5191 4.1564 36.4387 4.09174 36.374 4.05925C36.2642 4.00402 36.0115 4.0001 32.5629 4.00007L28.8694 4L28.761 4.08999ZM35.8532 4.89478C35.8579 4.89854 36.0012 5.51562 36.1716 6.26607C36.3677 7.12998 36.5069 7.67118 36.5508 7.74125C36.6348 7.87526 36.6205 7.86495 38.2563 8.96831C39.5691 9.85379 39.7418 9.95051 40.0121 9.95132C40.0897 9.95156 40.3069 9.86965 40.6296 9.71842C40.9034 9.59012 41.4708 9.32382 41.8906 9.12664C42.3104 8.92945 42.6654 8.76825 42.6796 8.76845C42.6937 8.76862 42.8848 9.05397 43.1042 9.40251C43.3236 9.75106 43.8231 10.5384 44.2142 11.1522C45.3429 12.9234 45.4754 13.1359 45.4797 13.1817C45.4835 13.222 45.2333 13.4301 43.9404 14.4616C43.3172 14.9588 43.1734 15.0977 43.0775 15.2951C43.0055 15.4432 43.0031 15.4954 42.9795 17.4445L42.9553 19.4422L43.0419 19.6088C43.152 19.8205 43.3113 19.9702 44.3004 20.7911C44.7437 21.1592 45.1115 21.4805 45.1175 21.5053C45.1236 21.5301 45.0988 21.5923 45.0624 21.6435C45.0013 21.7296 44.6522 22.2776 42.6281 25.465C42.2236 26.102 41.8764 26.6232 41.8565 26.6232C41.8367 26.6232 41.5564 26.4882 41.2338 26.3232C40.9111 26.1582 40.431 25.915 40.1669 25.7827L39.6867 25.5422L39.4294 25.6302C39.2879 25.6787 38.4852 26.0375 37.6457 26.4276C36.1267 27.1333 35.9543 27.2301 35.8432 27.439C35.8173 27.4877 35.708 28.1649 35.6003 28.9438L35.4046 30.3599L32.6076 30.356C31.02 30.3538 29.807 30.3391 29.8023 30.3222C29.7977 30.3057 29.7157 29.6988 29.62 28.9734C29.5243 28.2481 29.4313 27.6013 29.4133 27.5362C29.3472 27.2967 29.1322 27.139 28.4136 26.8028C26.8213 26.0578 26.3929 25.8471 26.3745 25.7997C26.3528 25.744 26.3389 25.7371 26.0171 25.6218L25.7941 25.5419L25.3139 25.7825C25.0497 25.9149 24.5696 26.1582 24.247 26.3232C23.9243 26.4882 23.6441 26.6232 23.6243 26.6232C23.6044 26.6232 23.2572 26.102 22.8526 25.465C20.8286 22.2776 20.4795 21.7296 20.4184 21.6435C20.382 21.5923 20.3572 21.5301 20.3632 21.5053C20.3693 21.4805 20.7781 21.1237 21.2716 20.7124C21.7652 20.3011 22.1897 19.9355 22.215 19.8999C22.2528 19.8467 22.257 19.4437 22.2386 17.6201L22.2163 15.4049L22.1022 15.1954C22.0349 15.0717 21.9246 14.9354 21.833 14.8624C21.6263 14.698 19.7643 13.1952 19.7296 13.1648C19.7146 13.1517 19.9152 12.8059 20.1755 12.3963C20.4358 11.9868 21.0655 10.9955 21.5749 10.1935C22.0843 9.39156 22.5189 8.73514 22.5408 8.73484C22.5772 8.73433 23.6369 9.22427 24.6756 9.72181C25.0658 9.90871 25.1157 9.92423 25.2825 9.9106C25.3848 9.90222 25.5362 9.85826 25.6291 9.80997C25.8693 9.68505 28.4149 7.97221 28.5497 7.84476C28.6126 7.78534 28.6775 7.71233 28.694 7.68251C28.7105 7.65271 28.8637 7.02119 29.0345 6.27913C29.2054 5.53709 29.3527 4.9097 29.3619 4.88494C29.3758 4.84764 29.9344 4.84402 32.6117 4.86394C34.3899 4.87716 35.8486 4.89103 35.8532 4.89478ZM32.1204 9.64788C30.8879 9.72492 29.4223 10.1971 28.3839 10.8517C27.6823 11.294 26.8223 12.0525 26.348 12.6472C25.6208 13.559 25.0293 14.7933 24.7868 15.9047C24.4501 17.4483 24.5898 19.0952 25.1808 20.546C26.1525 22.9317 28.2009 24.6882 30.7508 25.3224C32.5895 25.7796 34.545 25.5629 36.2866 24.7087C38.6739 23.5379 40.2787 21.3303 40.6842 18.6594C40.7675 18.111 40.7687 17.0831 40.6868 16.5459C40.5703 15.7826 40.3798 15.1151 40.0846 14.4371C38.7439 11.3567 35.546 9.43372 32.1204 9.64788ZM33.4535 10.5623C34.2484 10.6477 35.0808 10.8848 35.8203 11.2365C37.9798 12.2636 39.4761 14.315 39.7917 16.6812C39.8616 17.2059 39.8442 18.2949 39.7583 18.7609C39.6239 19.49 39.4445 20.0335 39.1219 20.6891C38.0606 22.846 35.9901 24.3075 33.5636 24.6125C32.9622 24.6881 32.0153 24.6663 31.4337 24.5635C30.0273 24.315 28.7492 23.6773 27.7356 22.7182C25.8022 20.8887 25.0617 18.2529 25.7639 15.7005C25.8779 15.2861 26.0452 14.8689 26.2956 14.3749C27.1424 12.7041 28.7323 11.3856 30.5622 10.8366C31.4693 10.5645 32.5336 10.4636 33.4535 10.5623ZM58.3492 20.7577C57.8006 20.8597 57.1054 21.1338 56.615 21.4414C56.3649 21.5982 56.6123 21.361 50.7493 27.0634C49.2682 28.5038 47.4082 30.3125 46.6158 31.0826C44.2384 33.3934 44.1405 33.4924 44.1134 33.6147C44.042 33.9376 44.3235 34.2166 44.6494 34.1461C44.73 34.1286 44.9719 33.9163 45.5841 33.3256C47.1238 31.8401 54.2234 24.9292 55.5566 23.6183C56.6333 22.5596 56.9297 22.2868 57.1346 22.1663C58.1971 21.5408 59.2722 21.4146 59.7805 21.8556C60.0095 22.0543 60.0964 22.2735 60.0954 22.6498C60.0936 23.2991 59.7677 23.9579 59.0073 24.8492C58.8485 25.0354 57.8699 26.3058 56.8327 27.6724C55.7955 29.0389 53.4959 32.0668 51.7225 34.401C49.9491 36.7351 46.9058 40.7411 44.9597 43.3031L41.4212 47.9614H28.3616C15.3505 47.9614 15.3015 47.9616 15.1596 48.0293C15.0813 48.0667 14.9959 48.139 14.9699 48.1899C14.9439 48.2409 14.8973 48.3206 14.8662 48.3671C14.8352 48.4136 14.7209 48.6191 14.6122 48.8237C14.5035 49.0283 13.6505 50.6337 12.7167 52.3913C11.7828 54.1489 10.9413 55.7315 10.8466 55.9082C10.7519 56.0849 10.6091 56.3512 10.5293 56.5C10.4496 56.6488 10.2911 56.9455 10.177 57.1594C10.063 57.3733 9.75062 57.9592 9.48275 58.4613C8.95792 59.4452 8.9089 59.5851 9.01689 59.7909C9.0844 59.9196 9.23066 60 9.39744 60C9.57475 60 9.7085 59.9192 9.80355 59.7546C9.90258 59.5832 9.84701 59.6874 11.7306 56.1436C12.5557 54.5913 13.3326 53.131 13.4571 52.8985C13.5816 52.6661 14.1161 51.6617 14.6449 50.6667L15.6062 48.8575L28.661 48.8406L41.7159 48.8237L41.9035 48.684C42.0067 48.6072 42.2001 48.4018 42.3333 48.2275C42.7685 47.6579 52.4149 34.9613 53.4933 33.5386C56.9083 29.0333 59.6427 25.4544 59.9067 25.1445C60.2299 24.7651 60.5765 24.2247 60.7335 23.8555C61.3303 22.4521 60.9004 21.2042 59.6878 20.8196C59.3359 20.708 58.7599 20.6813 58.3492 20.7577ZM11.8583 33.4409C11.7189 33.5105 11.869 33.2723 9.74043 36.8019C9.56659 37.0902 8.94159 38.125 8.35155 39.1014C7.76155 40.0779 7.15964 41.0746 7.01399 41.3164C6.69069 41.8532 4.07758 46.1794 3.62335 46.9299C3.00864 47.9457 3 47.9624 3 48.1335C3 48.5078 3.42611 48.6909 3.71346 48.4401C3.77009 48.3907 4.30645 47.5361 4.90534 46.5411C6.32073 44.1894 6.44014 43.9913 7.64797 41.9928C8.20999 41.0628 8.83477 40.028 9.03641 39.6932C9.23807 39.3585 10.0102 38.0802 10.7523 36.8527C11.4944 35.6251 12.139 34.5559 12.1848 34.4767L12.268 34.3326L26.1145 34.3391C33.7301 34.3427 40.3779 34.3559 40.8873 34.3684C41.8971 34.3932 42.0739 34.4208 42.5795 34.633C43.7199 35.1114 44.2207 36.1332 43.8069 37.1372C43.4548 37.9914 42.4803 38.7054 41.2992 38.9745C40.991 39.0448 40.9627 39.045 31.0245 39.0657L21.0589 39.0864L20.9347 39.1621C20.8029 39.2423 20.7002 39.4122 20.7002 39.5496C20.7002 39.6677 20.8356 39.8519 20.9753 39.9237C21.0901 39.9828 21.4736 39.9844 31.0081 39.9646C36.4605 39.9533 40.9833 39.9359 41.0588 39.9259C41.2981 39.8942 42.0098 39.7051 42.2687 39.6044C43.7773 39.0175 44.7783 37.8345 44.8405 36.5652C44.9204 34.9361 43.5464 33.6636 41.5198 33.4896C41.225 33.4643 36.627 33.4489 26.6517 33.4398C18.7089 33.4325 12.1562 33.4172 12.0902 33.4058C12.0103 33.392 11.9327 33.4038 11.8583 33.4409Z" fill="#EC6A2D"/>
<path fill-rule="evenodd" clip-rule="evenodd" d="M28.761 4.08999C28.6229 4.20456 28.6159 4.22397 28.4516 4.95859C28.0864 6.59172 27.9273 7.23248 27.8742 7.28469C27.8096 7.34813 25.3497 8.99989 25.2812 9.0258C25.2345 9.04348 24.5446 8.73102 23.2047 8.08529C22.356 7.67629 22.2929 7.66215 22.1055 7.83911C22.0033 7.93566 22.024 7.90414 20.6663 10.0362C20.1452 10.8546 19.523 11.831 19.2836 12.2059C19.0443 12.5809 18.8329 12.9281 18.8138 12.9774C18.7575 13.1235 18.7728 13.2018 18.9081 13.46C19.0345 13.7012 19.0523 13.7179 20.0351 14.5093C20.5843 14.9516 21.105 15.374 21.1922 15.4478L21.3507 15.5821L21.3556 17.4928C21.3584 18.5436 21.3479 19.4335 21.3324 19.4703C21.317 19.5071 21.2575 19.5755 21.2004 19.6224C20.2936 20.3667 19.4978 21.0372 19.4255 21.1178C19.3086 21.2482 19.277 21.4119 19.3401 21.5608C19.367 21.6242 19.5422 21.9179 19.7297 22.2136C20.098 22.7948 22.3595 26.3525 22.8319 27.0939C22.9909 27.3435 23.1631 27.5787 23.2145 27.6165C23.3737 27.7337 23.5616 27.6658 24.7399 27.0658L25.8091 26.5213L26.5391 26.8637C28.5188 27.7924 28.5809 27.8244 28.6016 27.9293C28.6122 27.9828 28.6997 28.62 28.796 29.3454C28.9612 30.5898 28.9772 30.6765 29.0805 30.8807C29.2705 31.2561 28.9305 31.2244 32.661 31.2142L35.8917 31.2053L35.9944 31.1083C36.1859 30.9274 36.2205 30.7815 36.4277 29.2778C36.5354 28.4966 36.6258 27.8551 36.6286 27.8521C36.6485 27.8314 39.5489 26.4879 39.5739 26.4879C39.5914 26.4879 40.1017 26.7405 40.7081 27.0491C41.9205 27.6664 42.1065 27.7341 42.2663 27.6165C42.3177 27.5787 42.4898 27.3435 42.6489 27.0939C43.1213 26.3525 45.3828 22.7948 45.7511 22.2136C46.1516 21.5817 46.197 21.4856 46.1679 21.3326C46.1333 21.1507 46.1496 21.1654 44.1191 19.4887L43.8539 19.2697L43.8627 17.4441L43.8716 15.6185L44.1803 15.3697C44.3501 15.2328 44.8749 14.8107 45.3466 14.4317C46.1887 13.755 46.2063 13.7382 46.3204 13.506C46.4788 13.1837 46.4643 13.109 46.1456 12.6049C46.0051 12.3824 45.4061 11.4396 44.8146 10.5097C44.2231 9.57971 43.6172 8.62511 43.4681 8.38829C43.0089 7.65914 42.9975 7.65654 42.1142 8.07884C41.3923 8.424 39.9849 9.07246 39.9578 9.07246C39.9128 9.07246 37.3024 7.29271 37.2857 7.25064C37.2755 7.22507 37.1201 6.5479 36.9404 5.74581C36.7394 4.84862 36.5901 4.25491 36.5526 4.2029C36.5191 4.1564 36.4387 4.09174 36.374 4.05925C36.2642 4.00402 36.0115 4.0001 32.5629 4.00007L28.8694 4L28.761 4.08999ZM35.8532 4.89478C35.8579 4.89854 36.0012 5.51562 36.1716 6.26607C36.3677 7.12998 36.5069 7.67118 36.5508 7.74125C36.6348 7.87526 36.6205 7.86495 38.2563 8.96831C39.5691 9.85379 39.7418 9.95051 40.0121 9.95132C40.0897 9.95156 40.3069 9.86965 40.6296 9.71842C40.9034 9.59012 41.4708 9.32382 41.8906 9.12664C42.3104 8.92945 42.6654 8.76825 42.6796 8.76845C42.6937 8.76862 42.8848 9.05397 43.1042 9.40251C43.3236 9.75106 43.8231 10.5384 44.2142 11.1522C45.3429 12.9234 45.4754 13.1359 45.4797 13.1817C45.4835 13.222 45.2333 13.4301 43.9404 14.4616C43.3172 14.9588 43.1734 15.0977 43.0775 15.2951C43.0055 15.4432 43.0031 15.4954 42.9795 17.4445L42.9553 19.4422L43.0419 19.6088C43.152 19.8205 43.3113 19.9702 44.3004 20.7911C44.7437 21.1592 45.1115 21.4805 45.1175 21.5053C45.1236 21.5301 45.0988 21.5923 45.0624 21.6435C45.0013 21.7296 44.6522 22.2776 42.6281 25.465C42.2236 26.102 41.8764 26.6232 41.8565 26.6232C41.8367 26.6232 41.5564 26.4882 41.2338 26.3232C40.9111 26.1582 40.431 25.915 40.1669 25.7827L39.6867 25.5422L39.4294 25.6302C39.2879 25.6787 38.4852 26.0375 37.6457 26.4276C36.1267 27.1333 35.9543 27.2301 35.8432 27.439C35.8173 27.4877 35.708 28.1649 35.6003 28.9438L35.4046 30.3599L32.6076 30.356C31.02 30.3538 29.807 30.3391 29.8023 30.3222C29.7977 30.3057 29.7157 29.6988 29.62 28.9734C29.5243 28.2481 29.4313 27.6013 29.4133 27.5362C29.3472 27.2967 29.1322 27.139 28.4136 26.8028C26.8213 26.0578 26.3929 25.8471 26.3745 25.7997C26.3528 25.744 26.3389 25.7371 26.0171 25.6218L25.7941 25.5419L25.3139 25.7825C25.0497 25.9149 24.5696 26.1582 24.247 26.3232C23.9243 26.4882 23.6441 26.6232 23.6243 26.6232C23.6044 26.6232 23.2572 26.102 22.8526 25.465C20.8286 22.2776 20.4795 21.7296 20.4184 21.6435C20.382 21.5923 20.3572 21.5301 20.3632 21.5053C20.3693 21.4805 20.7781 21.1237 21.2716 20.7124C21.7652 20.3011 22.1897 19.9355 22.215 19.8999C22.2528 19.8467 22.257 19.4437 22.2386 17.6201L22.2163 15.4049L22.1022 15.1954C22.0349 15.0717 21.9246 14.9354 21.833 14.8624C21.6263 14.698 19.7643 13.1952 19.7296 13.1648C19.7146 13.1517 19.9152 12.8059 20.1755 12.3963C20.4358 11.9868 21.0655 10.9955 21.5749 10.1935C22.0843 9.39156 22.5189 8.73514 22.5408 8.73484C22.5772 8.73433 23.6369 9.22427 24.6756 9.72181C25.0658 9.90871 25.1157 9.92423 25.2825 9.9106C25.3848 9.90222 25.5362 9.85826 25.6291 9.80997C25.8693 9.68505 28.4149 7.97221 28.5497 7.84476C28.6126 7.78534 28.6775 7.71233 28.694 7.68251C28.7105 7.65271 28.8637 7.02119 29.0345 6.27913C29.2054 5.53709 29.3527 4.9097 29.3619 4.88494C29.3758 4.84764 29.9344 4.84402 32.6117 4.86394C34.3899 4.87716 35.8486 4.89103 35.8532 4.89478ZM32.1204 9.64788C30.8879 9.72492 29.4223 10.1971 28.3839 10.8517C27.6823 11.294 26.8223 12.0525 26.348 12.6472C25.6208 13.559 25.0293 14.7933 24.7868 15.9047C24.4501 17.4483 24.5898 19.0952 25.1808 20.546C26.1525 22.9317 28.2009 24.6882 30.7508 25.3224C32.5895 25.7796 34.545 25.5629 36.2866 24.7087C38.6739 23.5379 40.2787 21.3303 40.6842 18.6594C40.7675 18.111 40.7687 17.0831 40.6868 16.5459C40.5703 15.7826 40.3798 15.1151 40.0846 14.4371C38.7439 11.3567 35.546 9.43372 32.1204 9.64788ZM33.4535 10.5623C34.2484 10.6477 35.0808 10.8848 35.8203 11.2365C37.9798 12.2636 39.4761 14.315 39.7917 16.6812C39.8616 17.2059 39.8442 18.2949 39.7583 18.7609C39.6239 19.49 39.4445 20.0335 39.1219 20.6891C38.0606 22.846 35.9901 24.3075 33.5636 24.6125C32.9622 24.6881 32.0153 24.6663 31.4337 24.5635C30.0273 24.315 28.7492 23.6773 27.7356 22.7182C25.8022 20.8887 25.0617 18.2529 25.7639 15.7005C25.8779 15.2861 26.0452 14.8689 26.2956 14.3749C27.1424 12.7041 28.7323 11.3856 30.5622 10.8366C31.4693 10.5645 32.5336 10.4636 33.4535 10.5623ZM58.3492 20.7577C57.8006 20.8597 57.1054 21.1338 56.615 21.4414C56.3649 21.5982 56.6123 21.361 50.7493 27.0634C49.2682 28.5038 47.4082 30.3125 46.6158 31.0826C44.2384 33.3934 44.1405 33.4924 44.1134 33.6147C44.042 33.9376 44.3235 34.2166 44.6494 34.1461C44.73 34.1286 44.9719 33.9163 45.5841 33.3256C47.1238 31.8401 54.2234 24.9292 55.5566 23.6183C56.6333 22.5596 56.9297 22.2868 57.1346 22.1663C58.1971 21.5408 59.2722 21.4146 59.7805 21.8556C60.0095 22.0543 60.0964 22.2735 60.0954 22.6498C60.0936 23.2991 59.7677 23.9579 59.0073 24.8492C58.8485 25.0354 57.8699 26.3058 56.8327 27.6724C55.7955 29.0389 53.4959 32.0668 51.7225 34.401C49.9491 36.7351 46.9058 40.7411 44.9597 43.3031L41.4212 47.9614H28.3616C15.3505 47.9614 15.3015 47.9616 15.1596 48.0293C15.0813 48.0667 14.9959 48.139 14.9699 48.1899C14.9439 48.2409 14.8973 48.3206 14.8662 48.3671C14.8352 48.4136 14.7209 48.6191 14.6122 48.8237C14.5035 49.0283 13.6505 50.6337 12.7167 52.3913C11.7828 54.1489 10.9413 55.7315 10.8466 55.9082C10.7519 56.0849 10.6091 56.3512 10.5293 56.5C10.4496 56.6488 10.2911 56.9455 10.177 57.1594C10.063 57.3733 9.75062 57.9592 9.48275 58.4613C8.95792 59.4452 8.9089 59.5851 9.01689 59.7909C9.0844 59.9196 9.23066 60 9.39744 60C9.57475 60 9.7085 59.9192 9.80355 59.7546C9.90258 59.5832 9.84701 59.6874 11.7306 56.1436C12.5557 54.5913 13.3326 53.131 13.4571 52.8985C13.5816 52.6661 14.1161 51.6617 14.6449 50.6667L15.6062 48.8575L28.661 48.8406L41.7159 48.8237L41.9035 48.684C42.0067 48.6072 42.2001 48.4018 42.3333 48.2275C42.7685 47.6579 52.4149 34.9613 53.4933 33.5386C56.9083 29.0333 59.6427 25.4544 59.9067 25.1445C60.2299 24.7651 60.5765 24.2247 60.7335 23.8555C61.3303 22.4521 60.9004 21.2042 59.6878 20.8196C59.3359 20.708 58.7599 20.6813 58.3492 20.7577ZM11.8583 33.4409C11.7189 33.5105 11.869 33.2723 9.74043 36.8019C9.56659 37.0902 8.94159 38.125 8.35155 39.1014C7.76155 40.0779 7.15964 41.0746 7.01399 41.3164C6.69069 41.8532 4.07758 46.1794 3.62335 46.9299C3.00864 47.9457 3 47.9624 3 48.1335C3 48.5078 3.42611 48.6909 3.71346 48.4401C3.77009 48.3907 4.30645 47.5361 4.90534 46.5411C6.32073 44.1894 6.44014 43.9913 7.64797 41.9928C8.20999 41.0628 8.83477 40.028 9.03641 39.6932C9.23807 39.3585 10.0102 38.0802 10.7523 36.8527C11.4944 35.6251 12.139 34.5559 12.1848 34.4767L12.268 34.3326L26.1145 34.3391C33.7301 34.3427 40.3779 34.3559 40.8873 34.3684C41.8971 34.3932 42.0739 34.4208 42.5795 34.633C43.7199 35.1114 44.2207 36.1332 43.8069 37.1372C43.4548 37.9914 42.4803 38.7054 41.2992 38.9745C40.991 39.0448 40.9627 39.045 31.0245 39.0657L21.0589 39.0864L20.9347 39.1621C20.8029 39.2423 20.7002 39.4122 20.7002 39.5496C20.7002 39.6677 20.8356 39.8519 20.9753 39.9237C21.0901 39.9828 21.4736 39.9844 31.0081 39.9646C36.4605 39.9533 40.9833 39.9359 41.0588 39.9259C41.2981 39.8942 42.0098 39.7051 42.2687 39.6044C43.7773 39.0175 44.7783 37.8345 44.8405 36.5652C44.9204 34.9361 43.5464 33.6636 41.5198 33.4896C41.225 33.4643 36.627 33.4489 26.6517 33.4398C18.7089 33.4325 12.1562 33.4172 12.0902 33.4058C12.0103 33.392 11.9327 33.4038 11.8583 33.4409Z" stroke="#EC6A2D" stroke-width="0.25" mask="url(#path-1-outside-1_1424_31858)"/>
</svg>
