<svg width="56" height="56" viewBox="0 0 56 56" fill="none" xmlns="http://www.w3.org/2000/svg">
<path class="video-play-bg" d="M44.924 19.8309C44.5177 18.3706 43.3208 17.2207 41.8006 16.8304C39.0459 16.1211 27.999 16.1211 27.999 16.1211C27.999 16.1211 16.9522 16.1211 14.1974 16.8304C12.6773 17.2207 11.48 18.3706 11.074 19.8309C10.3359 22.4776 10.3359 28 10.3359 28C10.3359 28 10.3359 33.522 11.074 36.169C11.48 37.6294 12.6773 38.7791 14.1972 39.1698C16.9521 39.8788 27.9989 39.8788 27.9989 39.8788C27.9989 39.8788 39.0458 39.8788 41.8005 39.1698C43.3206 38.7793 44.5175 37.6294 44.9238 36.1692C45.6621 33.5222 45.6621 28.0001 45.6621 28.0001C45.6621 28.0001 45.6621 22.4777 44.9238 19.831" fill="#D8D8D8"/>
<path d="M24.3857 33.0137L33.6187 28.0002L24.3857 22.9861V33.0137Z" fill="white"/>
</svg>
