<svg width="16" height="16" viewBox="0 0 16 16" fill="none" xmlns="http://www.w3.org/2000/svg">
<path d="M2.15142 7.45704L10.0936 4.19205C10.8776 3.85195 13.5364 2.76362 13.5364 2.76362C13.5364 2.76362 14.7635 2.28747 14.6613 3.44382C14.6272 3.91997 14.3545 5.58647 14.0818 7.38902L13.2296 12.7286C13.2296 12.7286 13.1614 13.5109 12.582 13.6469C12.0025 13.783 11.0481 13.1708 10.8776 13.0347C10.7413 12.9327 8.32112 11.4022 7.43487 10.654C7.19626 10.4499 6.92357 10.0418 7.46896 9.56567C8.69608 8.44334 10.1618 7.04891 11.0481 6.16465C11.4571 5.75652 11.8661 4.80423 10.1618 5.96058L5.35557 9.19156C5.35557 9.19156 4.81019 9.53166 3.78758 9.22557C2.76498 8.91948 1.57194 8.51136 1.57194 8.51136C1.57194 8.51136 0.753859 8.0012 2.15142 7.45704Z" fill="white"/>
</svg>
