<svg width="64" height="64" viewBox="0 0 64 64" fill="none" xmlns="http://www.w3.org/2000/svg">
<mask id="path-1-outside-1_1440_31982" maskUnits="userSpaceOnUse" x="2" y="9" width="60" height="46" fill="black">
<rect fill="white" x="2" y="9" width="60" height="46"/>
<path fill-rule="evenodd" clip-rule="evenodd" d="M27.6023 10.0245C15.5751 10.0386 14.3606 10.0444 14.2141 10.0887C13.5117 10.3014 13.0957 10.6084 12.8109 11.124C12.7398 11.2529 12.652 11.4648 12.6158 11.5948C12.5506 11.8293 12.5502 11.8703 12.5685 16.3719C12.5787 18.8693 12.596 22.2603 12.6069 23.9074L12.6267 26.9023L12.4613 26.9229C11.9839 26.9827 11.2838 27.2177 10.8082 27.4779C9.00972 28.4619 8.09585 30.4498 8.56458 32.3584C8.75601 33.1379 9.16152 33.8446 9.74828 34.4212C10.2042 34.8693 10.6204 35.1542 11.1706 35.395C12.1637 35.8295 13.1568 35.9332 14.2296 35.7142C14.6171 35.6351 14.9054 35.5376 15.3026 35.3511C16.6169 34.7342 17.5164 33.6316 17.8472 32.2317C17.9482 31.8042 17.9476 30.9178 17.846 30.4766C17.6434 29.5969 17.2513 28.8918 16.6198 28.2717C15.8362 27.5021 14.8695 27.0408 13.7663 26.9099L13.4665 26.8743L13.4452 22.0104C13.4334 19.3352 13.4215 15.9362 13.4188 14.4572L13.4139 11.7679L13.5008 11.5891C13.6144 11.355 13.7697 11.1799 13.9807 11.0479C14.2784 10.8617 14.4251 10.8384 15.2879 10.8404C18.1763 10.8472 24.1328 10.8418 24.1499 10.8323C24.1917 10.8091 57.2923 10.8044 58.2129 10.8274C59.2385 10.8531 59.3373 10.8676 59.5869 11.0294C59.7863 11.1588 59.9742 11.376 60.0533 11.5687C60.1573 11.822 60.177 12.5932 60.1602 15.7645C60.1524 17.2429 60.1306 23.7622 60.1117 30.252C60.0826 40.253 60.0704 42.0751 60.0318 42.2061C59.9104 42.618 59.3847 42.9723 58.8249 43.0194C58.7098 43.0291 54.8167 43.0446 50.1735 43.0538C45.5304 43.063 41.5937 43.0768 41.4254 43.0844C41.257 43.092 37.8423 43.1054 33.8371 43.1141C29.832 43.1228 25.9062 43.1386 25.1131 43.1492L23.6712 43.1683V41.7839V40.3995L23.5469 40.0668C23.4785 39.8837 23.3707 39.6472 23.3074 39.5412C22.8664 38.8026 22.0582 38.3014 20.9039 38.0506L20.594 37.9833L13.5214 37.9739L6.44871 37.9645L6.11038 38.0293C5.16774 38.2096 4.51299 38.5188 3.96764 39.0409C3.63808 39.3565 3.42255 39.6758 3.28789 40.048C3.18192 40.341 3.20573 39.5019 3.07803 47.4435C2.98752 53.0722 2.98282 53.6661 3.0279 53.7678C3.12308 53.9825 3.40737 54.0654 3.62319 53.9414C3.83399 53.8203 3.82007 54.0321 3.88844 49.9072C4.05583 39.8083 4.04201 40.4122 4.10942 40.245C4.38752 39.5551 5.08416 39.069 6.12649 38.8375C6.41643 38.7731 6.41768 38.7731 13.2475 38.7632C18.0454 38.7562 20.171 38.7631 20.3894 38.7864C21.0301 38.8549 21.6724 39.081 22.0679 39.3773C22.3933 39.6211 22.6434 39.9692 22.7595 40.3395C22.805 40.4849 22.8134 41.2132 22.8372 47.0847C22.8666 54.3303 22.8496 53.8176 23.0651 53.9414C23.2011 54.0195 23.368 54.0195 23.504 53.9414C23.7269 53.8133 23.7132 54.1797 23.6971 48.8067L23.6826 43.9597L26.9877 43.9396C28.8055 43.9285 30.9706 43.9194 31.7991 43.9194L33.3055 43.9194L33.3092 44.8078C33.3112 45.2964 33.3167 45.7303 33.3213 45.7721C33.326 45.8139 33.339 46.4904 33.3501 47.2755C33.3613 48.0606 33.3799 49.2121 33.3915 49.8344L33.4125 50.9657H30.9086C28.1825 50.9657 28.3013 50.9584 28.1529 51.1363C28.0541 51.2546 28.0602 51.4793 28.1655 51.5973C28.2094 51.6465 28.2855 51.7024 28.3347 51.7214C28.401 51.7472 30.9209 51.7541 38.1563 51.7482C47.3921 51.7406 47.8931 51.7375 47.9754 51.6866C48.1766 51.5624 48.2348 51.3023 48.101 51.1252C47.9536 50.93 48.0331 50.9353 45.2591 50.9353C43.8771 50.9353 42.745 50.9319 42.7432 50.9277C42.7328 50.9038 42.6589 43.9021 42.6689 43.8921C42.6755 43.8853 46.2662 43.8685 50.6483 43.8546C55.6906 43.8385 58.7263 43.8178 58.9171 43.7981C59.4963 43.7381 59.9772 43.5239 60.3618 43.1544C60.6252 42.9014 60.7752 42.661 60.8196 42.4208C60.9309 41.8179 60.9352 41.4134 60.9746 27.5944C60.9886 22.7 61 17.1441 60.9999 15.2482C60.9997 11.371 61.0152 11.6302 60.7531 11.1193C60.5045 10.6346 59.9893 10.242 59.4212 10.1044C58.9101 9.98065 60.8284 9.98548 27.6023 10.0245ZM19.9368 17.0316C19.8766 17.0595 19.1829 17.6347 18.3951 18.3098C17.362 19.1952 16.9495 19.5673 16.915 19.6452C16.849 19.7941 16.885 19.9434 17.0167 20.0676C17.1095 20.155 17.1453 20.1684 17.2852 20.1684C17.4862 20.1684 17.4611 20.187 18.693 19.1272C19.2069 18.685 19.6297 18.325 19.6325 18.3271C19.6353 18.3292 19.6544 22.233 19.6748 27.0022C19.7096 35.1376 19.7154 35.6798 19.768 35.7769C19.7988 35.8338 19.874 35.9065 19.9351 35.9383C20.0436 35.9947 20.1855 35.9957 25.8623 35.979C29.0611 35.9695 32.6063 35.955 33.7405 35.9468C37.4486 35.9198 49.6097 35.8923 49.6097 35.9109C49.6097 35.9209 49.1096 36.3539 48.4983 36.8732C47.8871 37.3925 47.3724 37.8432 47.3545 37.8748C47.3366 37.9063 47.3219 37.994 47.3219 38.0697C47.3219 38.3201 47.5641 38.4939 47.8349 38.4378C47.9039 38.4235 48.3239 38.088 49.2149 37.3355C50.8237 35.9766 50.9828 35.8303 51.0121 35.6816C51.0568 35.4541 51.1143 35.5104 48.788 33.5029C48.0032 32.8256 47.9423 32.7795 47.8051 32.7576C47.4818 32.7062 47.2292 33.02 47.3695 33.2987C47.405 33.3691 47.7637 33.6985 48.391 34.2366L49.3578 35.0659L48.5734 35.0817C48.1421 35.0904 45.9062 35.1007 43.6049 35.1047C41.3036 35.1087 39.4114 35.117 39.4 35.1231C39.3886 35.1292 35.9718 35.1428 31.8072 35.1534C27.6425 35.1639 23.405 35.1812 22.3904 35.192L20.5457 35.2114V34.0318V32.8521L20.6222 32.7745C20.6642 32.7318 20.9424 32.3689 21.2403 31.968C22.5516 30.2035 23.764 28.5733 24.2558 27.9133C24.5484 27.5208 25.0462 26.8511 25.362 26.4251C25.6779 25.9991 25.9459 25.6402 25.9577 25.6275C25.9789 25.6045 26.1598 25.6621 27.6506 26.1664C28.0759 26.3102 28.7139 26.5236 29.0683 26.6406C29.4228 26.7575 29.7708 26.8742 29.8417 26.8998C29.9125 26.9254 30.1663 27.0125 30.4055 27.0935C30.6448 27.1744 31.0073 27.2972 31.2111 27.3665C33.4632 28.1318 33.4037 28.1138 33.5528 28.0717C33.649 28.0446 33.9948 27.756 35.0942 26.7854C35.8737 26.0972 37.1568 24.9644 37.9454 24.2681C38.734 23.5718 40.6915 21.8449 42.2953 20.4306C44.3984 18.5761 45.2323 17.8222 45.2862 17.7267C45.3513 17.6115 45.3566 17.5788 45.3269 17.4747C45.269 17.2723 45.0622 17.1425 44.8555 17.1791C44.797 17.1894 44.6787 17.2546 44.5927 17.324C44.5067 17.3934 42.8494 18.8511 40.9098 20.5633C38.9703 22.2755 37.1364 23.8942 36.8347 24.1604C36.5329 24.4266 35.6248 25.2284 34.8166 25.9422L33.3472 27.24L32.6255 26.9974C32.2286 26.864 31.8458 26.7367 31.775 26.7145C31.5914 26.657 30.1983 26.181 29.7789 26.0324C29.5849 25.9637 29.3384 25.8814 29.2312 25.8494C29.1239 25.8175 28.6881 25.6735 28.2628 25.5294C27.8375 25.3854 27.2502 25.1873 26.9578 25.0893C26.6654 24.9912 26.3213 24.8758 26.1932 24.8328C26.065 24.7898 25.9222 24.7546 25.8758 24.7546C25.6531 24.7546 25.4363 24.9344 25.0856 25.4096C24.9508 25.5923 24.6113 26.0492 24.3312 26.4251C23.8687 27.0457 21.665 30.0072 20.8813 31.0614C20.7056 31.2978 20.558 31.4879 20.5534 31.4838C20.5488 31.4797 20.5381 29.694 20.5297 27.5156C20.5212 25.3373 20.506 22.3592 20.4957 20.8978L20.4771 18.2408L20.565 18.3162C20.6134 18.3577 21.0457 18.7386 21.5257 19.1626C22.0057 19.5866 22.4465 19.9682 22.5052 20.0105C22.6949 20.1472 22.9775 20.1013 23.1089 19.9123C23.1772 19.814 23.176 19.618 23.1062 19.5067C23.0224 19.3729 20.4311 17.0947 20.293 17.0333C20.1454 16.9678 20.075 16.9674 19.9368 17.0316ZM14.0462 27.7596C14.8027 27.9212 15.4475 28.2696 16.0125 28.822C16.527 29.3251 16.8529 29.9107 17.0195 30.6316C17.1027 30.9914 17.0975 31.7232 17.0091 32.1047C16.7889 33.0551 16.2091 33.8685 15.3687 34.406C14.1865 35.1621 12.5602 35.2304 11.3162 34.5761C10.9155 34.3654 10.7076 34.2142 10.376 33.8923C9.91718 33.4469 9.57927 32.8794 9.4074 32.2655C9.29714 31.8717 9.26721 31.1381 9.34444 30.7227C9.62867 29.1939 10.9508 27.9506 12.5225 27.7342C12.6554 27.7159 12.8004 27.6949 12.8447 27.6876C13.0299 27.6571 13.7755 27.7017 14.0462 27.7596ZM19.9036 42.9996C19.8428 43.0294 19.763 43.0924 19.7263 43.1395L19.6596 43.2253L19.6513 48.4343C19.6419 54.3074 19.6199 53.8044 19.8905 53.9172C20.1302 54.0171 20.3767 53.9066 20.4498 53.6663C20.4697 53.6009 20.4813 51.6736 20.4813 48.4193C20.4813 43.7859 20.4762 43.2655 20.4302 43.1741C20.3344 42.9839 20.0964 42.9051 19.9036 42.9996ZM6.73265 43.3422C6.6586 43.4077 6.62509 43.469 6.61249 43.5623C6.57853 43.8135 6.476 53.5603 6.50616 53.6671C6.59477 53.9806 7.01968 54.0582 7.22948 53.7991C7.33706 53.6662 7.31812 54.3145 7.39619 48.0956C7.43299 45.1623 7.44298 43.4556 7.42355 43.4149C7.37934 43.3221 7.19706 43.2512 7.00344 43.2514C6.86138 43.2515 6.81949 43.2655 6.73265 43.3422ZM41.8235 46.4023C41.8352 47.7846 41.854 49.3701 41.8654 49.9255L41.8862 50.9353L40.1333 50.9354C39.1692 50.9354 37.4578 50.9445 36.3302 50.9555L34.2799 50.9756L34.264 50.8416C34.2553 50.7679 34.2458 50.3112 34.2429 49.8268C34.24 49.3423 34.2318 48.8845 34.2247 48.8093C34.2175 48.7341 34.2034 48.0303 34.1933 47.2451C34.1833 46.46 34.1657 45.3907 34.1542 44.8689L34.1335 43.9202L35.1775 43.9118C35.7517 43.9072 37.4772 43.9001 39.0119 43.8962L41.8022 43.889L41.8235 46.4023Z"/>
</mask>
<path fill-rule="evenodd" clip-rule="evenodd" d="M27.6023 10.0245C15.5751 10.0386 14.3606 10.0444 14.2141 10.0887C13.5117 10.3014 13.0957 10.6084 12.8109 11.124C12.7398 11.2529 12.652 11.4648 12.6158 11.5948C12.5506 11.8293 12.5502 11.8703 12.5685 16.3719C12.5787 18.8693 12.596 22.2603 12.6069 23.9074L12.6267 26.9023L12.4613 26.9229C11.9839 26.9827 11.2838 27.2177 10.8082 27.4779C9.00972 28.4619 8.09585 30.4498 8.56458 32.3584C8.75601 33.1379 9.16152 33.8446 9.74828 34.4212C10.2042 34.8693 10.6204 35.1542 11.1706 35.395C12.1637 35.8295 13.1568 35.9332 14.2296 35.7142C14.6171 35.6351 14.9054 35.5376 15.3026 35.3511C16.6169 34.7342 17.5164 33.6316 17.8472 32.2317C17.9482 31.8042 17.9476 30.9178 17.846 30.4766C17.6434 29.5969 17.2513 28.8918 16.6198 28.2717C15.8362 27.5021 14.8695 27.0408 13.7663 26.9099L13.4665 26.8743L13.4452 22.0104C13.4334 19.3352 13.4215 15.9362 13.4188 14.4572L13.4139 11.7679L13.5008 11.5891C13.6144 11.355 13.7697 11.1799 13.9807 11.0479C14.2784 10.8617 14.4251 10.8384 15.2879 10.8404C18.1763 10.8472 24.1328 10.8418 24.1499 10.8323C24.1917 10.8091 57.2923 10.8044 58.2129 10.8274C59.2385 10.8531 59.3373 10.8676 59.5869 11.0294C59.7863 11.1588 59.9742 11.376 60.0533 11.5687C60.1573 11.822 60.177 12.5932 60.1602 15.7645C60.1524 17.2429 60.1306 23.7622 60.1117 30.252C60.0826 40.253 60.0704 42.0751 60.0318 42.2061C59.9104 42.618 59.3847 42.9723 58.8249 43.0194C58.7098 43.0291 54.8167 43.0446 50.1735 43.0538C45.5304 43.063 41.5937 43.0768 41.4254 43.0844C41.257 43.092 37.8423 43.1054 33.8371 43.1141C29.832 43.1228 25.9062 43.1386 25.1131 43.1492L23.6712 43.1683V41.7839V40.3995L23.5469 40.0668C23.4785 39.8837 23.3707 39.6472 23.3074 39.5412C22.8664 38.8026 22.0582 38.3014 20.9039 38.0506L20.594 37.9833L13.5214 37.9739L6.44871 37.9645L6.11038 38.0293C5.16774 38.2096 4.51299 38.5188 3.96764 39.0409C3.63808 39.3565 3.42255 39.6758 3.28789 40.048C3.18192 40.341 3.20573 39.5019 3.07803 47.4435C2.98752 53.0722 2.98282 53.6661 3.0279 53.7678C3.12308 53.9825 3.40737 54.0654 3.62319 53.9414C3.83399 53.8203 3.82007 54.0321 3.88844 49.9072C4.05583 39.8083 4.04201 40.4122 4.10942 40.245C4.38752 39.5551 5.08416 39.069 6.12649 38.8375C6.41643 38.7731 6.41768 38.7731 13.2475 38.7632C18.0454 38.7562 20.171 38.7631 20.3894 38.7864C21.0301 38.8549 21.6724 39.081 22.0679 39.3773C22.3933 39.6211 22.6434 39.9692 22.7595 40.3395C22.805 40.4849 22.8134 41.2132 22.8372 47.0847C22.8666 54.3303 22.8496 53.8176 23.0651 53.9414C23.2011 54.0195 23.368 54.0195 23.504 53.9414C23.7269 53.8133 23.7132 54.1797 23.6971 48.8067L23.6826 43.9597L26.9877 43.9396C28.8055 43.9285 30.9706 43.9194 31.7991 43.9194L33.3055 43.9194L33.3092 44.8078C33.3112 45.2964 33.3167 45.7303 33.3213 45.7721C33.326 45.8139 33.339 46.4904 33.3501 47.2755C33.3613 48.0606 33.3799 49.2121 33.3915 49.8344L33.4125 50.9657H30.9086C28.1825 50.9657 28.3013 50.9584 28.1529 51.1363C28.0541 51.2546 28.0602 51.4793 28.1655 51.5973C28.2094 51.6465 28.2855 51.7024 28.3347 51.7214C28.401 51.7472 30.9209 51.7541 38.1563 51.7482C47.3921 51.7406 47.8931 51.7375 47.9754 51.6866C48.1766 51.5624 48.2348 51.3023 48.101 51.1252C47.9536 50.93 48.0331 50.9353 45.2591 50.9353C43.8771 50.9353 42.745 50.9319 42.7432 50.9277C42.7328 50.9038 42.6589 43.9021 42.6689 43.8921C42.6755 43.8853 46.2662 43.8685 50.6483 43.8546C55.6906 43.8385 58.7263 43.8178 58.9171 43.7981C59.4963 43.7381 59.9772 43.5239 60.3618 43.1544C60.6252 42.9014 60.7752 42.661 60.8196 42.4208C60.9309 41.8179 60.9352 41.4134 60.9746 27.5944C60.9886 22.7 61 17.1441 60.9999 15.2482C60.9997 11.371 61.0152 11.6302 60.7531 11.1193C60.5045 10.6346 59.9893 10.242 59.4212 10.1044C58.9101 9.98065 60.8284 9.98548 27.6023 10.0245ZM19.9368 17.0316C19.8766 17.0595 19.1829 17.6347 18.3951 18.3098C17.362 19.1952 16.9495 19.5673 16.915 19.6452C16.849 19.7941 16.885 19.9434 17.0167 20.0676C17.1095 20.155 17.1453 20.1684 17.2852 20.1684C17.4862 20.1684 17.4611 20.187 18.693 19.1272C19.2069 18.685 19.6297 18.325 19.6325 18.3271C19.6353 18.3292 19.6544 22.233 19.6748 27.0022C19.7096 35.1376 19.7154 35.6798 19.768 35.7769C19.7988 35.8338 19.874 35.9065 19.9351 35.9383C20.0436 35.9947 20.1855 35.9957 25.8623 35.979C29.0611 35.9695 32.6063 35.955 33.7405 35.9468C37.4486 35.9198 49.6097 35.8923 49.6097 35.9109C49.6097 35.9209 49.1096 36.3539 48.4983 36.8732C47.8871 37.3925 47.3724 37.8432 47.3545 37.8748C47.3366 37.9063 47.3219 37.994 47.3219 38.0697C47.3219 38.3201 47.5641 38.4939 47.8349 38.4378C47.9039 38.4235 48.3239 38.088 49.2149 37.3355C50.8237 35.9766 50.9828 35.8303 51.0121 35.6816C51.0568 35.4541 51.1143 35.5104 48.788 33.5029C48.0032 32.8256 47.9423 32.7795 47.8051 32.7576C47.4818 32.7062 47.2292 33.02 47.3695 33.2987C47.405 33.3691 47.7637 33.6985 48.391 34.2366L49.3578 35.0659L48.5734 35.0817C48.1421 35.0904 45.9062 35.1007 43.6049 35.1047C41.3036 35.1087 39.4114 35.117 39.4 35.1231C39.3886 35.1292 35.9718 35.1428 31.8072 35.1534C27.6425 35.1639 23.405 35.1812 22.3904 35.192L20.5457 35.2114V34.0318V32.8521L20.6222 32.7745C20.6642 32.7318 20.9424 32.3689 21.2403 31.968C22.5516 30.2035 23.764 28.5733 24.2558 27.9133C24.5484 27.5208 25.0462 26.8511 25.362 26.4251C25.6779 25.9991 25.9459 25.6402 25.9577 25.6275C25.9789 25.6045 26.1598 25.6621 27.6506 26.1664C28.0759 26.3102 28.7139 26.5236 29.0683 26.6406C29.4228 26.7575 29.7708 26.8742 29.8417 26.8998C29.9125 26.9254 30.1663 27.0125 30.4055 27.0935C30.6448 27.1744 31.0073 27.2972 31.2111 27.3665C33.4632 28.1318 33.4037 28.1138 33.5528 28.0717C33.649 28.0446 33.9948 27.756 35.0942 26.7854C35.8737 26.0972 37.1568 24.9644 37.9454 24.2681C38.734 23.5718 40.6915 21.8449 42.2953 20.4306C44.3984 18.5761 45.2323 17.8222 45.2862 17.7267C45.3513 17.6115 45.3566 17.5788 45.3269 17.4747C45.269 17.2723 45.0622 17.1425 44.8555 17.1791C44.797 17.1894 44.6787 17.2546 44.5927 17.324C44.5067 17.3934 42.8494 18.8511 40.9098 20.5633C38.9703 22.2755 37.1364 23.8942 36.8347 24.1604C36.5329 24.4266 35.6248 25.2284 34.8166 25.9422L33.3472 27.24L32.6255 26.9974C32.2286 26.864 31.8458 26.7367 31.775 26.7145C31.5914 26.657 30.1983 26.181 29.7789 26.0324C29.5849 25.9637 29.3384 25.8814 29.2312 25.8494C29.1239 25.8175 28.6881 25.6735 28.2628 25.5294C27.8375 25.3854 27.2502 25.1873 26.9578 25.0893C26.6654 24.9912 26.3213 24.8758 26.1932 24.8328C26.065 24.7898 25.9222 24.7546 25.8758 24.7546C25.6531 24.7546 25.4363 24.9344 25.0856 25.4096C24.9508 25.5923 24.6113 26.0492 24.3312 26.4251C23.8687 27.0457 21.665 30.0072 20.8813 31.0614C20.7056 31.2978 20.558 31.4879 20.5534 31.4838C20.5488 31.4797 20.5381 29.694 20.5297 27.5156C20.5212 25.3373 20.506 22.3592 20.4957 20.8978L20.4771 18.2408L20.565 18.3162C20.6134 18.3577 21.0457 18.7386 21.5257 19.1626C22.0057 19.5866 22.4465 19.9682 22.5052 20.0105C22.6949 20.1472 22.9775 20.1013 23.1089 19.9123C23.1772 19.814 23.176 19.618 23.1062 19.5067C23.0224 19.3729 20.4311 17.0947 20.293 17.0333C20.1454 16.9678 20.075 16.9674 19.9368 17.0316ZM14.0462 27.7596C14.8027 27.9212 15.4475 28.2696 16.0125 28.822C16.527 29.3251 16.8529 29.9107 17.0195 30.6316C17.1027 30.9914 17.0975 31.7232 17.0091 32.1047C16.7889 33.0551 16.2091 33.8685 15.3687 34.406C14.1865 35.1621 12.5602 35.2304 11.3162 34.5761C10.9155 34.3654 10.7076 34.2142 10.376 33.8923C9.91718 33.4469 9.57927 32.8794 9.4074 32.2655C9.29714 31.8717 9.26721 31.1381 9.34444 30.7227C9.62867 29.1939 10.9508 27.9506 12.5225 27.7342C12.6554 27.7159 12.8004 27.6949 12.8447 27.6876C13.0299 27.6571 13.7755 27.7017 14.0462 27.7596ZM19.9036 42.9996C19.8428 43.0294 19.763 43.0924 19.7263 43.1395L19.6596 43.2253L19.6513 48.4343C19.6419 54.3074 19.6199 53.8044 19.8905 53.9172C20.1302 54.0171 20.3767 53.9066 20.4498 53.6663C20.4697 53.6009 20.4813 51.6736 20.4813 48.4193C20.4813 43.7859 20.4762 43.2655 20.4302 43.1741C20.3344 42.9839 20.0964 42.9051 19.9036 42.9996ZM6.73265 43.3422C6.6586 43.4077 6.62509 43.469 6.61249 43.5623C6.57853 43.8135 6.476 53.5603 6.50616 53.6671C6.59477 53.9806 7.01968 54.0582 7.22948 53.7991C7.33706 53.6662 7.31812 54.3145 7.39619 48.0956C7.43299 45.1623 7.44298 43.4556 7.42355 43.4149C7.37934 43.3221 7.19706 43.2512 7.00344 43.2514C6.86138 43.2515 6.81949 43.2655 6.73265 43.3422ZM41.8235 46.4023C41.8352 47.7846 41.854 49.3701 41.8654 49.9255L41.8862 50.9353L40.1333 50.9354C39.1692 50.9354 37.4578 50.9445 36.3302 50.9555L34.2799 50.9756L34.264 50.8416C34.2553 50.7679 34.2458 50.3112 34.2429 49.8268C34.24 49.3423 34.2318 48.8845 34.2247 48.8093C34.2175 48.7341 34.2034 48.0303 34.1933 47.2451C34.1833 46.46 34.1657 45.3907 34.1542 44.8689L34.1335 43.9202L35.1775 43.9118C35.7517 43.9072 37.4772 43.9001 39.0119 43.8962L41.8022 43.889L41.8235 46.4023Z" fill="#EC6A2D"/>
<path fill-rule="evenodd" clip-rule="evenodd" d="M27.6023 10.0245C15.5751 10.0386 14.3606 10.0444 14.2141 10.0887C13.5117 10.3014 13.0957 10.6084 12.8109 11.124C12.7398 11.2529 12.652 11.4648 12.6158 11.5948C12.5506 11.8293 12.5502 11.8703 12.5685 16.3719C12.5787 18.8693 12.596 22.2603 12.6069 23.9074L12.6267 26.9023L12.4613 26.9229C11.9839 26.9827 11.2838 27.2177 10.8082 27.4779C9.00972 28.4619 8.09585 30.4498 8.56458 32.3584C8.75601 33.1379 9.16152 33.8446 9.74828 34.4212C10.2042 34.8693 10.6204 35.1542 11.1706 35.395C12.1637 35.8295 13.1568 35.9332 14.2296 35.7142C14.6171 35.6351 14.9054 35.5376 15.3026 35.3511C16.6169 34.7342 17.5164 33.6316 17.8472 32.2317C17.9482 31.8042 17.9476 30.9178 17.846 30.4766C17.6434 29.5969 17.2513 28.8918 16.6198 28.2717C15.8362 27.5021 14.8695 27.0408 13.7663 26.9099L13.4665 26.8743L13.4452 22.0104C13.4334 19.3352 13.4215 15.9362 13.4188 14.4572L13.4139 11.7679L13.5008 11.5891C13.6144 11.355 13.7697 11.1799 13.9807 11.0479C14.2784 10.8617 14.4251 10.8384 15.2879 10.8404C18.1763 10.8472 24.1328 10.8418 24.1499 10.8323C24.1917 10.8091 57.2923 10.8044 58.2129 10.8274C59.2385 10.8531 59.3373 10.8676 59.5869 11.0294C59.7863 11.1588 59.9742 11.376 60.0533 11.5687C60.1573 11.822 60.177 12.5932 60.1602 15.7645C60.1524 17.2429 60.1306 23.7622 60.1117 30.252C60.0826 40.253 60.0704 42.0751 60.0318 42.2061C59.9104 42.618 59.3847 42.9723 58.8249 43.0194C58.7098 43.0291 54.8167 43.0446 50.1735 43.0538C45.5304 43.063 41.5937 43.0768 41.4254 43.0844C41.257 43.092 37.8423 43.1054 33.8371 43.1141C29.832 43.1228 25.9062 43.1386 25.1131 43.1492L23.6712 43.1683V41.7839V40.3995L23.5469 40.0668C23.4785 39.8837 23.3707 39.6472 23.3074 39.5412C22.8664 38.8026 22.0582 38.3014 20.9039 38.0506L20.594 37.9833L13.5214 37.9739L6.44871 37.9645L6.11038 38.0293C5.16774 38.2096 4.51299 38.5188 3.96764 39.0409C3.63808 39.3565 3.42255 39.6758 3.28789 40.048C3.18192 40.341 3.20573 39.5019 3.07803 47.4435C2.98752 53.0722 2.98282 53.6661 3.0279 53.7678C3.12308 53.9825 3.40737 54.0654 3.62319 53.9414C3.83399 53.8203 3.82007 54.0321 3.88844 49.9072C4.05583 39.8083 4.04201 40.4122 4.10942 40.245C4.38752 39.5551 5.08416 39.069 6.12649 38.8375C6.41643 38.7731 6.41768 38.7731 13.2475 38.7632C18.0454 38.7562 20.171 38.7631 20.3894 38.7864C21.0301 38.8549 21.6724 39.081 22.0679 39.3773C22.3933 39.6211 22.6434 39.9692 22.7595 40.3395C22.805 40.4849 22.8134 41.2132 22.8372 47.0847C22.8666 54.3303 22.8496 53.8176 23.0651 53.9414C23.2011 54.0195 23.368 54.0195 23.504 53.9414C23.7269 53.8133 23.7132 54.1797 23.6971 48.8067L23.6826 43.9597L26.9877 43.9396C28.8055 43.9285 30.9706 43.9194 31.7991 43.9194L33.3055 43.9194L33.3092 44.8078C33.3112 45.2964 33.3167 45.7303 33.3213 45.7721C33.326 45.8139 33.339 46.4904 33.3501 47.2755C33.3613 48.0606 33.3799 49.2121 33.3915 49.8344L33.4125 50.9657H30.9086C28.1825 50.9657 28.3013 50.9584 28.1529 51.1363C28.0541 51.2546 28.0602 51.4793 28.1655 51.5973C28.2094 51.6465 28.2855 51.7024 28.3347 51.7214C28.401 51.7472 30.9209 51.7541 38.1563 51.7482C47.3921 51.7406 47.8931 51.7375 47.9754 51.6866C48.1766 51.5624 48.2348 51.3023 48.101 51.1252C47.9536 50.93 48.0331 50.9353 45.2591 50.9353C43.8771 50.9353 42.745 50.9319 42.7432 50.9277C42.7328 50.9038 42.6589 43.9021 42.6689 43.8921C42.6755 43.8853 46.2662 43.8685 50.6483 43.8546C55.6906 43.8385 58.7263 43.8178 58.9171 43.7981C59.4963 43.7381 59.9772 43.5239 60.3618 43.1544C60.6252 42.9014 60.7752 42.661 60.8196 42.4208C60.9309 41.8179 60.9352 41.4134 60.9746 27.5944C60.9886 22.7 61 17.1441 60.9999 15.2482C60.9997 11.371 61.0152 11.6302 60.7531 11.1193C60.5045 10.6346 59.9893 10.242 59.4212 10.1044C58.9101 9.98065 60.8284 9.98548 27.6023 10.0245ZM19.9368 17.0316C19.8766 17.0595 19.1829 17.6347 18.3951 18.3098C17.362 19.1952 16.9495 19.5673 16.915 19.6452C16.849 19.7941 16.885 19.9434 17.0167 20.0676C17.1095 20.155 17.1453 20.1684 17.2852 20.1684C17.4862 20.1684 17.4611 20.187 18.693 19.1272C19.2069 18.685 19.6297 18.325 19.6325 18.3271C19.6353 18.3292 19.6544 22.233 19.6748 27.0022C19.7096 35.1376 19.7154 35.6798 19.768 35.7769C19.7988 35.8338 19.874 35.9065 19.9351 35.9383C20.0436 35.9947 20.1855 35.9957 25.8623 35.979C29.0611 35.9695 32.6063 35.955 33.7405 35.9468C37.4486 35.9198 49.6097 35.8923 49.6097 35.9109C49.6097 35.9209 49.1096 36.3539 48.4983 36.8732C47.8871 37.3925 47.3724 37.8432 47.3545 37.8748C47.3366 37.9063 47.3219 37.994 47.3219 38.0697C47.3219 38.3201 47.5641 38.4939 47.8349 38.4378C47.9039 38.4235 48.3239 38.088 49.2149 37.3355C50.8237 35.9766 50.9828 35.8303 51.0121 35.6816C51.0568 35.4541 51.1143 35.5104 48.788 33.5029C48.0032 32.8256 47.9423 32.7795 47.8051 32.7576C47.4818 32.7062 47.2292 33.02 47.3695 33.2987C47.405 33.3691 47.7637 33.6985 48.391 34.2366L49.3578 35.0659L48.5734 35.0817C48.1421 35.0904 45.9062 35.1007 43.6049 35.1047C41.3036 35.1087 39.4114 35.117 39.4 35.1231C39.3886 35.1292 35.9718 35.1428 31.8072 35.1534C27.6425 35.1639 23.405 35.1812 22.3904 35.192L20.5457 35.2114V34.0318V32.8521L20.6222 32.7745C20.6642 32.7318 20.9424 32.3689 21.2403 31.968C22.5516 30.2035 23.764 28.5733 24.2558 27.9133C24.5484 27.5208 25.0462 26.8511 25.362 26.4251C25.6779 25.9991 25.9459 25.6402 25.9577 25.6275C25.9789 25.6045 26.1598 25.6621 27.6506 26.1664C28.0759 26.3102 28.7139 26.5236 29.0683 26.6406C29.4228 26.7575 29.7708 26.8742 29.8417 26.8998C29.9125 26.9254 30.1663 27.0125 30.4055 27.0935C30.6448 27.1744 31.0073 27.2972 31.2111 27.3665C33.4632 28.1318 33.4037 28.1138 33.5528 28.0717C33.649 28.0446 33.9948 27.756 35.0942 26.7854C35.8737 26.0972 37.1568 24.9644 37.9454 24.2681C38.734 23.5718 40.6915 21.8449 42.2953 20.4306C44.3984 18.5761 45.2323 17.8222 45.2862 17.7267C45.3513 17.6115 45.3566 17.5788 45.3269 17.4747C45.269 17.2723 45.0622 17.1425 44.8555 17.1791C44.797 17.1894 44.6787 17.2546 44.5927 17.324C44.5067 17.3934 42.8494 18.8511 40.9098 20.5633C38.9703 22.2755 37.1364 23.8942 36.8347 24.1604C36.5329 24.4266 35.6248 25.2284 34.8166 25.9422L33.3472 27.24L32.6255 26.9974C32.2286 26.864 31.8458 26.7367 31.775 26.7145C31.5914 26.657 30.1983 26.181 29.7789 26.0324C29.5849 25.9637 29.3384 25.8814 29.2312 25.8494C29.1239 25.8175 28.6881 25.6735 28.2628 25.5294C27.8375 25.3854 27.2502 25.1873 26.9578 25.0893C26.6654 24.9912 26.3213 24.8758 26.1932 24.8328C26.065 24.7898 25.9222 24.7546 25.8758 24.7546C25.6531 24.7546 25.4363 24.9344 25.0856 25.4096C24.9508 25.5923 24.6113 26.0492 24.3312 26.4251C23.8687 27.0457 21.665 30.0072 20.8813 31.0614C20.7056 31.2978 20.558 31.4879 20.5534 31.4838C20.5488 31.4797 20.5381 29.694 20.5297 27.5156C20.5212 25.3373 20.506 22.3592 20.4957 20.8978L20.4771 18.2408L20.565 18.3162C20.6134 18.3577 21.0457 18.7386 21.5257 19.1626C22.0057 19.5866 22.4465 19.9682 22.5052 20.0105C22.6949 20.1472 22.9775 20.1013 23.1089 19.9123C23.1772 19.814 23.176 19.618 23.1062 19.5067C23.0224 19.3729 20.4311 17.0947 20.293 17.0333C20.1454 16.9678 20.075 16.9674 19.9368 17.0316ZM14.0462 27.7596C14.8027 27.9212 15.4475 28.2696 16.0125 28.822C16.527 29.3251 16.8529 29.9107 17.0195 30.6316C17.1027 30.9914 17.0975 31.7232 17.0091 32.1047C16.7889 33.0551 16.2091 33.8685 15.3687 34.406C14.1865 35.1621 12.5602 35.2304 11.3162 34.5761C10.9155 34.3654 10.7076 34.2142 10.376 33.8923C9.91718 33.4469 9.57927 32.8794 9.4074 32.2655C9.29714 31.8717 9.26721 31.1381 9.34444 30.7227C9.62867 29.1939 10.9508 27.9506 12.5225 27.7342C12.6554 27.7159 12.8004 27.6949 12.8447 27.6876C13.0299 27.6571 13.7755 27.7017 14.0462 27.7596ZM19.9036 42.9996C19.8428 43.0294 19.763 43.0924 19.7263 43.1395L19.6596 43.2253L19.6513 48.4343C19.6419 54.3074 19.6199 53.8044 19.8905 53.9172C20.1302 54.0171 20.3767 53.9066 20.4498 53.6663C20.4697 53.6009 20.4813 51.6736 20.4813 48.4193C20.4813 43.7859 20.4762 43.2655 20.4302 43.1741C20.3344 42.9839 20.0964 42.9051 19.9036 42.9996ZM6.73265 43.3422C6.6586 43.4077 6.62509 43.469 6.61249 43.5623C6.57853 43.8135 6.476 53.5603 6.50616 53.6671C6.59477 53.9806 7.01968 54.0582 7.22948 53.7991C7.33706 53.6662 7.31812 54.3145 7.39619 48.0956C7.43299 45.1623 7.44298 43.4556 7.42355 43.4149C7.37934 43.3221 7.19706 43.2512 7.00344 43.2514C6.86138 43.2515 6.81949 43.2655 6.73265 43.3422ZM41.8235 46.4023C41.8352 47.7846 41.854 49.3701 41.8654 49.9255L41.8862 50.9353L40.1333 50.9354C39.1692 50.9354 37.4578 50.9445 36.3302 50.9555L34.2799 50.9756L34.264 50.8416C34.2553 50.7679 34.2458 50.3112 34.2429 49.8268C34.24 49.3423 34.2318 48.8845 34.2247 48.8093C34.2175 48.7341 34.2034 48.0303 34.1933 47.2451C34.1833 46.46 34.1657 45.3907 34.1542 44.8689L34.1335 43.9202L35.1775 43.9118C35.7517 43.9072 37.4772 43.9001 39.0119 43.8962L41.8022 43.889L41.8235 46.4023Z" stroke="#EC6A2D" stroke-width="0.6" mask="url(#path-1-outside-1_1440_31982)"/>
</svg>
