<svg width="16" height="16" viewBox="0 0 16 16" fill="none" xmlns="http://www.w3.org/2000/svg">
<path d="M14.3627 4.33184C14.6673 5.51984 14.6673 7.99984 14.6673 7.99984C14.6673 7.99984 14.6673 10.4798 14.3627 11.6678C14.1933 12.3245 13.698 12.8412 13.0707 13.0158C11.9313 13.3332 8.00065 13.3332 8.00065 13.3332C8.00065 13.3332 4.07198 13.3332 2.93065 13.0158C2.30065 12.8385 1.80598 12.3225 1.63865 11.6678C1.33398 10.4798 1.33398 7.99984 1.33398 7.99984C1.33398 7.99984 1.33398 5.51984 1.63865 4.33184C1.80798 3.67517 2.30332 3.1585 2.93065 2.98384C4.07198 2.6665 8.00065 2.6665 8.00065 2.6665C8.00065 2.6665 11.9313 2.6665 13.0707 2.98384C13.7007 3.16117 14.1953 3.67717 14.3627 4.33184ZM6.66732 10.3332L10.6673 7.99984L6.66732 5.6665V10.3332Z" fill="white"/>
</svg>
