<svg width="64" height="64" viewBox="0 0 64 64" fill="none" xmlns="http://www.w3.org/2000/svg">
<mask id="path-1-outside-1_1424_31888" maskUnits="userSpaceOnUse" x="3" y="4.5" width="58" height="55" fill="black">
<rect fill="white" x="3" y="4.5" width="58" height="55"/>
<path fill-rule="evenodd" clip-rule="evenodd" d="M4.05062 28.8356C4.09265 28.9223 5.17394 29.9963 9.10576 33.8565L9.81859 34.5563L9.81859 37.2829C9.81863 43.0768 9.85639 57.514 9.87241 57.863C9.88215 58.0746 9.90747 58.2508 9.93216 58.2788C10.0549 58.4178 9.96973 58.4147 14.8518 58.4602C19.9705 58.508 19.6808 58.5165 19.8628 58.3133L19.9543 58.2111L19.9339 51.6927C19.9227 48.1076 19.9054 42.9185 19.8955 40.1613C19.8578 29.7367 19.865 24.9413 19.9184 24.8773C19.9454 24.845 20.2423 24.5247 20.5782 24.1656L21.189 23.5128L21.3327 23.6639C21.4117 23.7471 21.6478 23.9877 21.8574 24.1986L22.2383 24.5822L22.2617 26.4389C22.2745 27.46 22.2888 32.23 22.2935 37.0387C22.3091 53.1668 22.3317 58.136 22.3899 58.2018C22.5224 58.3518 22.3907 58.3468 27.3179 58.3927C32.4386 58.4405 32.1469 58.4491 32.3296 58.245L32.4217 58.1422L32.4007 51.9958C32.3891 48.6153 32.3703 43.1986 32.3589 39.9588L32.338 34.0681L32.5655 33.8929C32.6906 33.7965 33.1162 33.4664 33.5114 33.1594C33.9066 32.8524 34.2443 32.6008 34.2618 32.6004C34.2801 32.6 34.284 33.2536 34.2708 34.144C34.2539 35.2957 34.194 53.5472 34.194 57.5544L34.194 58.0855L34.3292 58.2127L34.4645 58.3398L35.2274 58.3501C35.647 58.3558 37.8413 58.3958 40.1037 58.439C44.0135 58.5137 44.2234 58.5148 44.3429 58.4592C44.4121 58.427 44.4991 58.3518 44.5362 58.2921C44.6009 58.1881 44.6035 58.0668 44.5994 55.3923C44.597 53.8571 44.5849 46.2967 44.5724 38.5916L44.5498 24.5822L45.5455 23.8118C46.0931 23.3881 46.5485 23.0483 46.5575 23.0567C46.5775 23.0755 46.602 32.3073 46.6212 47.11L46.6357 58.2614L46.7198 58.3459C46.766 58.3924 46.8362 58.4478 46.8757 58.4692C46.9291 58.4981 48.162 58.5051 51.6897 58.4967C56.9469 58.4841 56.5664 58.5016 56.7002 58.2663C56.7571 58.1663 56.7629 57.4175 56.7855 47.1938C56.7988 41.1629 56.8131 33.5094 56.8173 30.1859C56.8215 26.8625 56.8335 23.4163 56.844 22.5276L56.863 20.912L57.6876 21.7415C58.1411 22.1978 58.5148 22.5679 58.518 22.5639C58.5212 22.56 58.5342 22.3061 58.547 21.9997C58.5597 21.6934 58.5781 21.3744 58.5877 21.2908C58.5974 21.2073 58.9128 17.8273 59.2887 13.7798C59.6646 9.73224 59.982 6.32009 59.994 6.19722C60.0071 6.06364 59.9982 5.90477 59.972 5.80211C59.936 5.66087 59.9053 5.61776 59.799 5.55879C59.6924 5.49971 59.6346 5.4907 59.4698 5.50754C58.9763 5.55798 43.7394 6.43747 43.355 6.43771C43.1179 6.43787 42.816 6.44756 42.6842 6.45924L42.4446 6.4805L43.259 7.29528C45.9703 10.0074 46.6473 10.6898 46.6516 10.7142C46.657 10.7456 46.2524 11.0801 45.593 11.5893C45.342 11.7831 45.1155 11.9603 45.0898 11.9831C45.0007 12.0617 44.6409 12.3391 42.9778 13.611C42.059 14.3136 41.1375 15.0198 40.93 15.1802C40.7226 15.3407 40.1163 15.806 39.5828 16.2144C39.0493 16.6227 37.9015 17.502 37.0321 18.1684C33.5543 20.834 32.1695 21.8939 32.1049 21.9395C32.0772 21.9591 31.6641 21.5614 30.845 20.7267C28.2786 18.1114 25.6745 15.4554 23.6698 13.4084C22.5242 12.2387 21.554 11.2573 21.5137 11.2275C21.3897 11.1358 21.1817 11.0884 21.0176 11.1145C20.8866 11.1353 20.8159 11.1856 20.5037 11.4802C20.3046 11.6681 19.4963 12.4823 18.7074 13.2896C17.9186 14.0969 17.0777 14.9552 16.8388 15.1969C16.6 15.4387 15.8092 16.2441 15.0817 16.9867C14.3541 17.7294 13.5785 18.5193 13.358 18.7421C13.1375 18.9649 12.6606 19.451 12.2982 19.8224C11.9359 20.1937 11.452 20.6878 11.223 20.9202C10.1029 22.0571 7.69871 24.5066 6.94944 25.2742C6.7229 25.5063 6.43859 25.7949 6.31759 25.9156C6.07628 26.1564 4.59209 27.6703 4.30196 27.9717C4.01915 28.2655 3.99849 28.3037 4.00007 28.5309C4.00086 28.6428 4.02361 28.7799 4.05062 28.8356ZM6.27721 27.2507C6.94754 26.5683 7.51344 25.9925 7.53478 25.9712C7.55612 25.9499 7.8479 25.6515 8.18316 25.308C8.51842 24.9645 8.89175 24.5847 9.01275 24.464C9.13378 24.3434 9.43236 24.0395 9.67633 23.7889C9.92026 23.5382 10.3 23.1509 10.5202 22.9281C10.7404 22.7053 11.3223 22.1128 11.8131 21.6115C12.753 20.6518 13.1917 20.205 13.9014 19.4848C14.1392 19.2434 14.6303 18.7421 14.9926 18.3708C15.355 17.9995 15.8319 17.5134 16.0524 17.2906C16.2729 17.0678 17.0486 16.2778 17.7761 15.5352C18.5036 14.7925 19.2944 13.9866 19.5332 13.7444C19.7721 13.5021 20.1454 13.1223 20.3627 12.9005C21.1728 12.0735 21.1223 12.1162 21.2008 12.1932C21.2386 12.2303 22.5125 13.5295 24.0315 15.0803C32.4365 23.6613 31.617 22.8388 31.8171 22.8946C32.1846 22.9971 32.2674 22.9686 32.8012 22.5548C32.9942 22.4053 33.6776 21.8804 34.3197 21.3886C35.5493 20.4468 37.2231 19.1639 39.8163 17.1758C40.6759 16.5168 41.8156 15.6435 42.3491 15.2349C42.8826 14.8264 43.6181 14.2624 43.9837 13.9816C44.9546 13.2359 46.7561 11.8558 47.1092 11.5872C47.2771 11.4595 47.5577 11.2297 47.7326 11.0766L48.0506 10.7983L46.3036 9.04862C45.3427 8.08629 44.5692 7.29514 44.5845 7.29059C44.6525 7.27023 58.9793 6.44006 58.9958 6.45552C59.018 6.47642 57.7515 20.2209 57.7149 20.3562C57.6903 20.4472 57.6404 20.4021 56.4857 19.2437C55.8238 18.5797 54.9768 17.7319 54.6035 17.3597C54.2303 16.9874 53.861 16.6184 53.783 16.5395C53.705 16.4605 53.6294 16.396 53.615 16.396C53.6007 16.396 53.4364 16.5249 53.25 16.6825C53.0637 16.8401 52.8222 17.0331 52.7136 17.1114C52.6049 17.1898 52.1522 17.5372 51.7077 17.8834C51.2631 18.2297 50.0007 19.2101 48.9023 20.0622C47.8039 20.9143 46.0356 22.2875 44.9727 23.1137C43.9098 23.94 42.931 24.6995 42.7976 24.8016C42.6643 24.9037 41.3625 25.9139 39.9047 27.0465C38.4469 28.1791 36.6789 29.5519 35.9756 30.0973C35.2723 30.6426 34.5272 31.2209 34.3197 31.3823C32.0554 33.1442 32.1505 33.0722 32.0867 33.0722C32.0579 33.0722 31.9855 33.038 31.9257 32.9963C31.8291 32.9289 23.6547 24.7168 22.8425 23.8713C22.6652 23.6867 22.3313 23.3534 22.1005 23.1306C21.8697 22.9078 21.6297 22.6692 21.5671 22.6002C21.5046 22.5313 21.3988 22.4432 21.3321 22.4045C21.2109 22.3341 21.2108 22.3341 21.0742 22.4005C20.8961 22.487 20.845 22.5386 19.246 24.2446C17.9439 25.6339 17.5952 26.0051 15.7258 27.9917C15.2716 28.4744 14.2865 29.5226 13.5368 30.321C10.486 33.5696 10.411 33.6461 10.2793 33.6461C10.2133 33.6461 10.0378 33.4938 9.54962 33.0131C9.19611 32.665 8.43582 31.9169 7.86012 31.3506C5.35475 28.8862 5.03818 28.5688 5.04806 28.5312C5.05377 28.5093 5.60691 27.9331 6.27721 27.2507ZM11.822 33.4753C12.4095 32.8522 14.038 31.1212 15.4409 29.6287C16.8438 28.1362 18.1937 26.7003 18.4407 26.4379L18.8898 25.9609L18.9118 29.5756C18.9238 31.5637 18.946 38.6863 18.9609 45.4036L18.9881 57.6169L17.2505 57.595C16.2947 57.583 14.4673 57.5633 13.1896 57.5514C11.9118 57.5394 10.8529 57.5169 10.8365 57.5015C10.82 57.486 10.8023 53.0123 10.797 47.5599C10.7918 42.1074 10.7832 37.5476 10.7779 37.4269C10.7726 37.3063 10.765 36.6227 10.7611 35.9079L10.7539 34.6082L11.822 33.4753ZM23.3369 25.6824C23.4004 25.7491 25.2306 27.5926 27.4041 29.779C29.5776 31.9655 31.3663 33.7718 31.3789 33.7931C31.3916 33.8144 31.4138 39.1682 31.4284 45.6906L31.4548 57.5494L29.7169 57.5275C28.761 57.5155 26.9335 57.4958 25.6557 57.4838C24.378 57.4719 23.3191 57.4494 23.3026 57.4339C23.2861 57.4185 23.2684 52.9448 23.2632 47.4923C23.2579 42.0399 23.2491 37.4801 23.2435 37.3594C23.2379 37.2388 23.2306 34.5348 23.2274 31.3506L23.2215 25.5612L23.3369 25.6824ZM31.2239 19.8372C31.2907 19.9541 31.4818 20.0756 31.599 20.0756C31.6345 20.0756 31.7197 20.0535 31.7883 20.0266C31.8946 19.9849 33.3895 18.8583 36.8525 16.2104C37.2674 15.8931 38.3312 15.0817 39.2165 14.4074C40.1018 13.7329 40.8509 13.1455 40.8813 13.102C40.9116 13.0584 40.9445 12.9653 40.9543 12.8949C40.9771 12.7312 40.8591 12.5564 40.6656 12.4673C40.4619 12.3735 40.3179 12.4287 39.8605 12.7757C39.0318 13.4046 33.901 17.3154 32.1642 18.6422C31.6999 18.9969 31.2836 19.3376 31.2391 19.3994C31.1412 19.5354 31.1361 19.6832 31.2239 19.8372ZM35.2051 38.7869L35.2284 31.8256L39.3995 28.5871C41.6935 26.806 43.5744 25.352 43.5792 25.3562C43.5934 25.3684 43.6669 57.5853 43.6528 57.5985C43.6434 57.6074 35.2446 57.4575 35.1498 57.4468C35.1419 57.4459 35.146 54.8134 35.1587 51.5967C35.1715 48.38 35.1923 42.6156 35.2051 38.7869ZM41.7115 11.8043C41.7861 11.9438 41.9813 12.0754 42.1119 12.0741C42.2602 12.0727 42.4311 11.9812 42.9922 11.6024C43.4186 11.3147 43.5315 11.221 43.5918 11.105C43.71 10.878 43.5995 10.6243 43.3384 10.5227C43.1523 10.4503 43.0086 10.5069 42.468 10.8655C41.8493 11.2759 41.7305 11.3771 41.6843 11.5334C41.6396 11.6846 41.6378 11.6664 41.7115 11.8043ZM49.0727 21.0714C49.9134 20.4216 50.8623 19.6958 51.1814 19.4585C51.5005 19.2213 51.8846 18.9289 52.035 18.8088C52.2908 18.6045 52.6532 18.3245 53.2837 17.8439C53.4293 17.7329 53.5634 17.6468 53.5816 17.6525C53.5998 17.6582 54.1241 18.1715 54.7467 18.7932L55.8786 19.9236L55.8588 35.7053C55.841 49.8467 55.8153 57.5443 55.7858 57.5735C55.7801 57.5791 53.9306 57.593 51.6759 57.6043L47.5764 57.6249L47.5673 49.0028C47.5623 44.2607 47.5551 36.302 47.5512 31.3168L47.5441 22.2529L49.0727 21.0714Z"/>
</mask>
<path fill-rule="evenodd" clip-rule="evenodd" d="M4.05062 28.8356C4.09265 28.9223 5.17394 29.9963 9.10576 33.8565L9.81859 34.5563L9.81859 37.2829C9.81863 43.0768 9.85639 57.514 9.87241 57.863C9.88215 58.0746 9.90747 58.2508 9.93216 58.2788C10.0549 58.4178 9.96973 58.4147 14.8518 58.4602C19.9705 58.508 19.6808 58.5165 19.8628 58.3133L19.9543 58.2111L19.9339 51.6927C19.9227 48.1076 19.9054 42.9185 19.8955 40.1613C19.8578 29.7367 19.865 24.9413 19.9184 24.8773C19.9454 24.845 20.2423 24.5247 20.5782 24.1656L21.189 23.5128L21.3327 23.6639C21.4117 23.7471 21.6478 23.9877 21.8574 24.1986L22.2383 24.5822L22.2617 26.4389C22.2745 27.46 22.2888 32.23 22.2935 37.0387C22.3091 53.1668 22.3317 58.136 22.3899 58.2018C22.5224 58.3518 22.3907 58.3468 27.3179 58.3927C32.4386 58.4405 32.1469 58.4491 32.3296 58.245L32.4217 58.1422L32.4007 51.9958C32.3891 48.6153 32.3703 43.1986 32.3589 39.9588L32.338 34.0681L32.5655 33.8929C32.6906 33.7965 33.1162 33.4664 33.5114 33.1594C33.9066 32.8524 34.2443 32.6008 34.2618 32.6004C34.2801 32.6 34.284 33.2536 34.2708 34.144C34.2539 35.2957 34.194 53.5472 34.194 57.5544L34.194 58.0855L34.3292 58.2127L34.4645 58.3398L35.2274 58.3501C35.647 58.3558 37.8413 58.3958 40.1037 58.439C44.0135 58.5137 44.2234 58.5148 44.3429 58.4592C44.4121 58.427 44.4991 58.3518 44.5362 58.2921C44.6009 58.1881 44.6035 58.0668 44.5994 55.3923C44.597 53.8571 44.5849 46.2967 44.5724 38.5916L44.5498 24.5822L45.5455 23.8118C46.0931 23.3881 46.5485 23.0483 46.5575 23.0567C46.5775 23.0755 46.602 32.3073 46.6212 47.11L46.6357 58.2614L46.7198 58.3459C46.766 58.3924 46.8362 58.4478 46.8757 58.4692C46.9291 58.4981 48.162 58.5051 51.6897 58.4967C56.9469 58.4841 56.5664 58.5016 56.7002 58.2663C56.7571 58.1663 56.7629 57.4175 56.7855 47.1938C56.7988 41.1629 56.8131 33.5094 56.8173 30.1859C56.8215 26.8625 56.8335 23.4163 56.844 22.5276L56.863 20.912L57.6876 21.7415C58.1411 22.1978 58.5148 22.5679 58.518 22.5639C58.5212 22.56 58.5342 22.3061 58.547 21.9997C58.5597 21.6934 58.5781 21.3744 58.5877 21.2908C58.5974 21.2073 58.9128 17.8273 59.2887 13.7798C59.6646 9.73224 59.982 6.32009 59.994 6.19722C60.0071 6.06364 59.9982 5.90477 59.972 5.80211C59.936 5.66087 59.9053 5.61776 59.799 5.55879C59.6924 5.49971 59.6346 5.4907 59.4698 5.50754C58.9763 5.55798 43.7394 6.43747 43.355 6.43771C43.1179 6.43787 42.816 6.44756 42.6842 6.45924L42.4446 6.4805L43.259 7.29528C45.9703 10.0074 46.6473 10.6898 46.6516 10.7142C46.657 10.7456 46.2524 11.0801 45.593 11.5893C45.342 11.7831 45.1155 11.9603 45.0898 11.9831C45.0007 12.0617 44.6409 12.3391 42.9778 13.611C42.059 14.3136 41.1375 15.0198 40.93 15.1802C40.7226 15.3407 40.1163 15.806 39.5828 16.2144C39.0493 16.6227 37.9015 17.502 37.0321 18.1684C33.5543 20.834 32.1695 21.8939 32.1049 21.9395C32.0772 21.9591 31.6641 21.5614 30.845 20.7267C28.2786 18.1114 25.6745 15.4554 23.6698 13.4084C22.5242 12.2387 21.554 11.2573 21.5137 11.2275C21.3897 11.1358 21.1817 11.0884 21.0176 11.1145C20.8866 11.1353 20.8159 11.1856 20.5037 11.4802C20.3046 11.6681 19.4963 12.4823 18.7074 13.2896C17.9186 14.0969 17.0777 14.9552 16.8388 15.1969C16.6 15.4387 15.8092 16.2441 15.0817 16.9867C14.3541 17.7294 13.5785 18.5193 13.358 18.7421C13.1375 18.9649 12.6606 19.451 12.2982 19.8224C11.9359 20.1937 11.452 20.6878 11.223 20.9202C10.1029 22.0571 7.69871 24.5066 6.94944 25.2742C6.7229 25.5063 6.43859 25.7949 6.31759 25.9156C6.07628 26.1564 4.59209 27.6703 4.30196 27.9717C4.01915 28.2655 3.99849 28.3037 4.00007 28.5309C4.00086 28.6428 4.02361 28.7799 4.05062 28.8356ZM6.27721 27.2507C6.94754 26.5683 7.51344 25.9925 7.53478 25.9712C7.55612 25.9499 7.8479 25.6515 8.18316 25.308C8.51842 24.9645 8.89175 24.5847 9.01275 24.464C9.13378 24.3434 9.43236 24.0395 9.67633 23.7889C9.92026 23.5382 10.3 23.1509 10.5202 22.9281C10.7404 22.7053 11.3223 22.1128 11.8131 21.6115C12.753 20.6518 13.1917 20.205 13.9014 19.4848C14.1392 19.2434 14.6303 18.7421 14.9926 18.3708C15.355 17.9995 15.8319 17.5134 16.0524 17.2906C16.2729 17.0678 17.0486 16.2778 17.7761 15.5352C18.5036 14.7925 19.2944 13.9866 19.5332 13.7444C19.7721 13.5021 20.1454 13.1223 20.3627 12.9005C21.1728 12.0735 21.1223 12.1162 21.2008 12.1932C21.2386 12.2303 22.5125 13.5295 24.0315 15.0803C32.4365 23.6613 31.617 22.8388 31.8171 22.8946C32.1846 22.9971 32.2674 22.9686 32.8012 22.5548C32.9942 22.4053 33.6776 21.8804 34.3197 21.3886C35.5493 20.4468 37.2231 19.1639 39.8163 17.1758C40.6759 16.5168 41.8156 15.6435 42.3491 15.2349C42.8826 14.8264 43.6181 14.2624 43.9837 13.9816C44.9546 13.2359 46.7561 11.8558 47.1092 11.5872C47.2771 11.4595 47.5577 11.2297 47.7326 11.0766L48.0506 10.7983L46.3036 9.04862C45.3427 8.08629 44.5692 7.29514 44.5845 7.29059C44.6525 7.27023 58.9793 6.44006 58.9958 6.45552C59.018 6.47642 57.7515 20.2209 57.7149 20.3562C57.6903 20.4472 57.6404 20.4021 56.4857 19.2437C55.8238 18.5797 54.9768 17.7319 54.6035 17.3597C54.2303 16.9874 53.861 16.6184 53.783 16.5395C53.705 16.4605 53.6294 16.396 53.615 16.396C53.6007 16.396 53.4364 16.5249 53.25 16.6825C53.0637 16.8401 52.8222 17.0331 52.7136 17.1114C52.6049 17.1898 52.1522 17.5372 51.7077 17.8834C51.2631 18.2297 50.0007 19.2101 48.9023 20.0622C47.8039 20.9143 46.0356 22.2875 44.9727 23.1137C43.9098 23.94 42.931 24.6995 42.7976 24.8016C42.6643 24.9037 41.3625 25.9139 39.9047 27.0465C38.4469 28.1791 36.6789 29.5519 35.9756 30.0973C35.2723 30.6426 34.5272 31.2209 34.3197 31.3823C32.0554 33.1442 32.1505 33.0722 32.0867 33.0722C32.0579 33.0722 31.9855 33.038 31.9257 32.9963C31.8291 32.9289 23.6547 24.7168 22.8425 23.8713C22.6652 23.6867 22.3313 23.3534 22.1005 23.1306C21.8697 22.9078 21.6297 22.6692 21.5671 22.6002C21.5046 22.5313 21.3988 22.4432 21.3321 22.4045C21.2109 22.3341 21.2108 22.3341 21.0742 22.4005C20.8961 22.487 20.845 22.5386 19.246 24.2446C17.9439 25.6339 17.5952 26.0051 15.7258 27.9917C15.2716 28.4744 14.2865 29.5226 13.5368 30.321C10.486 33.5696 10.411 33.6461 10.2793 33.6461C10.2133 33.6461 10.0378 33.4938 9.54962 33.0131C9.19611 32.665 8.43582 31.9169 7.86012 31.3506C5.35475 28.8862 5.03818 28.5688 5.04806 28.5312C5.05377 28.5093 5.60691 27.9331 6.27721 27.2507ZM11.822 33.4753C12.4095 32.8522 14.038 31.1212 15.4409 29.6287C16.8438 28.1362 18.1937 26.7003 18.4407 26.4379L18.8898 25.9609L18.9118 29.5756C18.9238 31.5637 18.946 38.6863 18.9609 45.4036L18.9881 57.6169L17.2505 57.595C16.2947 57.583 14.4673 57.5633 13.1896 57.5514C11.9118 57.5394 10.8529 57.5169 10.8365 57.5015C10.82 57.486 10.8023 53.0123 10.797 47.5599C10.7918 42.1074 10.7832 37.5476 10.7779 37.4269C10.7726 37.3063 10.765 36.6227 10.7611 35.9079L10.7539 34.6082L11.822 33.4753ZM23.3369 25.6824C23.4004 25.7491 25.2306 27.5926 27.4041 29.779C29.5776 31.9655 31.3663 33.7718 31.3789 33.7931C31.3916 33.8144 31.4138 39.1682 31.4284 45.6906L31.4548 57.5494L29.7169 57.5275C28.761 57.5155 26.9335 57.4958 25.6557 57.4838C24.378 57.4719 23.3191 57.4494 23.3026 57.4339C23.2861 57.4185 23.2684 52.9448 23.2632 47.4923C23.2579 42.0399 23.2491 37.4801 23.2435 37.3594C23.2379 37.2388 23.2306 34.5348 23.2274 31.3506L23.2215 25.5612L23.3369 25.6824ZM31.2239 19.8372C31.2907 19.9541 31.4818 20.0756 31.599 20.0756C31.6345 20.0756 31.7197 20.0535 31.7883 20.0266C31.8946 19.9849 33.3895 18.8583 36.8525 16.2104C37.2674 15.8931 38.3312 15.0817 39.2165 14.4074C40.1018 13.7329 40.8509 13.1455 40.8813 13.102C40.9116 13.0584 40.9445 12.9653 40.9543 12.8949C40.9771 12.7312 40.8591 12.5564 40.6656 12.4673C40.4619 12.3735 40.3179 12.4287 39.8605 12.7757C39.0318 13.4046 33.901 17.3154 32.1642 18.6422C31.6999 18.9969 31.2836 19.3376 31.2391 19.3994C31.1412 19.5354 31.1361 19.6832 31.2239 19.8372ZM35.2051 38.7869L35.2284 31.8256L39.3995 28.5871C41.6935 26.806 43.5744 25.352 43.5792 25.3562C43.5934 25.3684 43.6669 57.5853 43.6528 57.5985C43.6434 57.6074 35.2446 57.4575 35.1498 57.4468C35.1419 57.4459 35.146 54.8134 35.1587 51.5967C35.1715 48.38 35.1923 42.6156 35.2051 38.7869ZM41.7115 11.8043C41.7861 11.9438 41.9813 12.0754 42.1119 12.0741C42.2602 12.0727 42.4311 11.9812 42.9922 11.6024C43.4186 11.3147 43.5315 11.221 43.5918 11.105C43.71 10.878 43.5995 10.6243 43.3384 10.5227C43.1523 10.4503 43.0086 10.5069 42.468 10.8655C41.8493 11.2759 41.7305 11.3771 41.6843 11.5334C41.6396 11.6846 41.6378 11.6664 41.7115 11.8043ZM49.0727 21.0714C49.9134 20.4216 50.8623 19.6958 51.1814 19.4585C51.5005 19.2213 51.8846 18.9289 52.035 18.8088C52.2908 18.6045 52.6532 18.3245 53.2837 17.8439C53.4293 17.7329 53.5634 17.6468 53.5816 17.6525C53.5998 17.6582 54.1241 18.1715 54.7467 18.7932L55.8786 19.9236L55.8588 35.7053C55.841 49.8467 55.8153 57.5443 55.7858 57.5735C55.7801 57.5791 53.9306 57.593 51.6759 57.6043L47.5764 57.6249L47.5673 49.0028C47.5623 44.2607 47.5551 36.302 47.5512 31.3168L47.5441 22.2529L49.0727 21.0714Z" fill="#EC6A2D"/>
<path fill-rule="evenodd" clip-rule="evenodd" d="M4.05062 28.8356C4.09265 28.9223 5.17394 29.9963 9.10576 33.8565L9.81859 34.5563L9.81859 37.2829C9.81863 43.0768 9.85639 57.514 9.87241 57.863C9.88215 58.0746 9.90747 58.2508 9.93216 58.2788C10.0549 58.4178 9.96973 58.4147 14.8518 58.4602C19.9705 58.508 19.6808 58.5165 19.8628 58.3133L19.9543 58.2111L19.9339 51.6927C19.9227 48.1076 19.9054 42.9185 19.8955 40.1613C19.8578 29.7367 19.865 24.9413 19.9184 24.8773C19.9454 24.845 20.2423 24.5247 20.5782 24.1656L21.189 23.5128L21.3327 23.6639C21.4117 23.7471 21.6478 23.9877 21.8574 24.1986L22.2383 24.5822L22.2617 26.4389C22.2745 27.46 22.2888 32.23 22.2935 37.0387C22.3091 53.1668 22.3317 58.136 22.3899 58.2018C22.5224 58.3518 22.3907 58.3468 27.3179 58.3927C32.4386 58.4405 32.1469 58.4491 32.3296 58.245L32.4217 58.1422L32.4007 51.9958C32.3891 48.6153 32.3703 43.1986 32.3589 39.9588L32.338 34.0681L32.5655 33.8929C32.6906 33.7965 33.1162 33.4664 33.5114 33.1594C33.9066 32.8524 34.2443 32.6008 34.2618 32.6004C34.2801 32.6 34.284 33.2536 34.2708 34.144C34.2539 35.2957 34.194 53.5472 34.194 57.5544L34.194 58.0855L34.3292 58.2127L34.4645 58.3398L35.2274 58.3501C35.647 58.3558 37.8413 58.3958 40.1037 58.439C44.0135 58.5137 44.2234 58.5148 44.3429 58.4592C44.4121 58.427 44.4991 58.3518 44.5362 58.2921C44.6009 58.1881 44.6035 58.0668 44.5994 55.3923C44.597 53.8571 44.5849 46.2967 44.5724 38.5916L44.5498 24.5822L45.5455 23.8118C46.0931 23.3881 46.5485 23.0483 46.5575 23.0567C46.5775 23.0755 46.602 32.3073 46.6212 47.11L46.6357 58.2614L46.7198 58.3459C46.766 58.3924 46.8362 58.4478 46.8757 58.4692C46.9291 58.4981 48.162 58.5051 51.6897 58.4967C56.9469 58.4841 56.5664 58.5016 56.7002 58.2663C56.7571 58.1663 56.7629 57.4175 56.7855 47.1938C56.7988 41.1629 56.8131 33.5094 56.8173 30.1859C56.8215 26.8625 56.8335 23.4163 56.844 22.5276L56.863 20.912L57.6876 21.7415C58.1411 22.1978 58.5148 22.5679 58.518 22.5639C58.5212 22.56 58.5342 22.3061 58.547 21.9997C58.5597 21.6934 58.5781 21.3744 58.5877 21.2908C58.5974 21.2073 58.9128 17.8273 59.2887 13.7798C59.6646 9.73224 59.982 6.32009 59.994 6.19722C60.0071 6.06364 59.9982 5.90477 59.972 5.80211C59.936 5.66087 59.9053 5.61776 59.799 5.55879C59.6924 5.49971 59.6346 5.4907 59.4698 5.50754C58.9763 5.55798 43.7394 6.43747 43.355 6.43771C43.1179 6.43787 42.816 6.44756 42.6842 6.45924L42.4446 6.4805L43.259 7.29528C45.9703 10.0074 46.6473 10.6898 46.6516 10.7142C46.657 10.7456 46.2524 11.0801 45.593 11.5893C45.342 11.7831 45.1155 11.9603 45.0898 11.9831C45.0007 12.0617 44.6409 12.3391 42.9778 13.611C42.059 14.3136 41.1375 15.0198 40.93 15.1802C40.7226 15.3407 40.1163 15.806 39.5828 16.2144C39.0493 16.6227 37.9015 17.502 37.0321 18.1684C33.5543 20.834 32.1695 21.8939 32.1049 21.9395C32.0772 21.9591 31.6641 21.5614 30.845 20.7267C28.2786 18.1114 25.6745 15.4554 23.6698 13.4084C22.5242 12.2387 21.554 11.2573 21.5137 11.2275C21.3897 11.1358 21.1817 11.0884 21.0176 11.1145C20.8866 11.1353 20.8159 11.1856 20.5037 11.4802C20.3046 11.6681 19.4963 12.4823 18.7074 13.2896C17.9186 14.0969 17.0777 14.9552 16.8388 15.1969C16.6 15.4387 15.8092 16.2441 15.0817 16.9867C14.3541 17.7294 13.5785 18.5193 13.358 18.7421C13.1375 18.9649 12.6606 19.451 12.2982 19.8224C11.9359 20.1937 11.452 20.6878 11.223 20.9202C10.1029 22.0571 7.69871 24.5066 6.94944 25.2742C6.7229 25.5063 6.43859 25.7949 6.31759 25.9156C6.07628 26.1564 4.59209 27.6703 4.30196 27.9717C4.01915 28.2655 3.99849 28.3037 4.00007 28.5309C4.00086 28.6428 4.02361 28.7799 4.05062 28.8356ZM6.27721 27.2507C6.94754 26.5683 7.51344 25.9925 7.53478 25.9712C7.55612 25.9499 7.8479 25.6515 8.18316 25.308C8.51842 24.9645 8.89175 24.5847 9.01275 24.464C9.13378 24.3434 9.43236 24.0395 9.67633 23.7889C9.92026 23.5382 10.3 23.1509 10.5202 22.9281C10.7404 22.7053 11.3223 22.1128 11.8131 21.6115C12.753 20.6518 13.1917 20.205 13.9014 19.4848C14.1392 19.2434 14.6303 18.7421 14.9926 18.3708C15.355 17.9995 15.8319 17.5134 16.0524 17.2906C16.2729 17.0678 17.0486 16.2778 17.7761 15.5352C18.5036 14.7925 19.2944 13.9866 19.5332 13.7444C19.7721 13.5021 20.1454 13.1223 20.3627 12.9005C21.1728 12.0735 21.1223 12.1162 21.2008 12.1932C21.2386 12.2303 22.5125 13.5295 24.0315 15.0803C32.4365 23.6613 31.617 22.8388 31.8171 22.8946C32.1846 22.9971 32.2674 22.9686 32.8012 22.5548C32.9942 22.4053 33.6776 21.8804 34.3197 21.3886C35.5493 20.4468 37.2231 19.1639 39.8163 17.1758C40.6759 16.5168 41.8156 15.6435 42.3491 15.2349C42.8826 14.8264 43.6181 14.2624 43.9837 13.9816C44.9546 13.2359 46.7561 11.8558 47.1092 11.5872C47.2771 11.4595 47.5577 11.2297 47.7326 11.0766L48.0506 10.7983L46.3036 9.04862C45.3427 8.08629 44.5692 7.29514 44.5845 7.29059C44.6525 7.27023 58.9793 6.44006 58.9958 6.45552C59.018 6.47642 57.7515 20.2209 57.7149 20.3562C57.6903 20.4472 57.6404 20.4021 56.4857 19.2437C55.8238 18.5797 54.9768 17.7319 54.6035 17.3597C54.2303 16.9874 53.861 16.6184 53.783 16.5395C53.705 16.4605 53.6294 16.396 53.615 16.396C53.6007 16.396 53.4364 16.5249 53.25 16.6825C53.0637 16.8401 52.8222 17.0331 52.7136 17.1114C52.6049 17.1898 52.1522 17.5372 51.7077 17.8834C51.2631 18.2297 50.0007 19.2101 48.9023 20.0622C47.8039 20.9143 46.0356 22.2875 44.9727 23.1137C43.9098 23.94 42.931 24.6995 42.7976 24.8016C42.6643 24.9037 41.3625 25.9139 39.9047 27.0465C38.4469 28.1791 36.6789 29.5519 35.9756 30.0973C35.2723 30.6426 34.5272 31.2209 34.3197 31.3823C32.0554 33.1442 32.1505 33.0722 32.0867 33.0722C32.0579 33.0722 31.9855 33.038 31.9257 32.9963C31.8291 32.9289 23.6547 24.7168 22.8425 23.8713C22.6652 23.6867 22.3313 23.3534 22.1005 23.1306C21.8697 22.9078 21.6297 22.6692 21.5671 22.6002C21.5046 22.5313 21.3988 22.4432 21.3321 22.4045C21.2109 22.3341 21.2108 22.3341 21.0742 22.4005C20.8961 22.487 20.845 22.5386 19.246 24.2446C17.9439 25.6339 17.5952 26.0051 15.7258 27.9917C15.2716 28.4744 14.2865 29.5226 13.5368 30.321C10.486 33.5696 10.411 33.6461 10.2793 33.6461C10.2133 33.6461 10.0378 33.4938 9.54962 33.0131C9.19611 32.665 8.43582 31.9169 7.86012 31.3506C5.35475 28.8862 5.03818 28.5688 5.04806 28.5312C5.05377 28.5093 5.60691 27.9331 6.27721 27.2507ZM11.822 33.4753C12.4095 32.8522 14.038 31.1212 15.4409 29.6287C16.8438 28.1362 18.1937 26.7003 18.4407 26.4379L18.8898 25.9609L18.9118 29.5756C18.9238 31.5637 18.946 38.6863 18.9609 45.4036L18.9881 57.6169L17.2505 57.595C16.2947 57.583 14.4673 57.5633 13.1896 57.5514C11.9118 57.5394 10.8529 57.5169 10.8365 57.5015C10.82 57.486 10.8023 53.0123 10.797 47.5599C10.7918 42.1074 10.7832 37.5476 10.7779 37.4269C10.7726 37.3063 10.765 36.6227 10.7611 35.9079L10.7539 34.6082L11.822 33.4753ZM23.3369 25.6824C23.4004 25.7491 25.2306 27.5926 27.4041 29.779C29.5776 31.9655 31.3663 33.7718 31.3789 33.7931C31.3916 33.8144 31.4138 39.1682 31.4284 45.6906L31.4548 57.5494L29.7169 57.5275C28.761 57.5155 26.9335 57.4958 25.6557 57.4838C24.378 57.4719 23.3191 57.4494 23.3026 57.4339C23.2861 57.4185 23.2684 52.9448 23.2632 47.4923C23.2579 42.0399 23.2491 37.4801 23.2435 37.3594C23.2379 37.2388 23.2306 34.5348 23.2274 31.3506L23.2215 25.5612L23.3369 25.6824ZM31.2239 19.8372C31.2907 19.9541 31.4818 20.0756 31.599 20.0756C31.6345 20.0756 31.7197 20.0535 31.7883 20.0266C31.8946 19.9849 33.3895 18.8583 36.8525 16.2104C37.2674 15.8931 38.3312 15.0817 39.2165 14.4074C40.1018 13.7329 40.8509 13.1455 40.8813 13.102C40.9116 13.0584 40.9445 12.9653 40.9543 12.8949C40.9771 12.7312 40.8591 12.5564 40.6656 12.4673C40.4619 12.3735 40.3179 12.4287 39.8605 12.7757C39.0318 13.4046 33.901 17.3154 32.1642 18.6422C31.6999 18.9969 31.2836 19.3376 31.2391 19.3994C31.1412 19.5354 31.1361 19.6832 31.2239 19.8372ZM35.2051 38.7869L35.2284 31.8256L39.3995 28.5871C41.6935 26.806 43.5744 25.352 43.5792 25.3562C43.5934 25.3684 43.6669 57.5853 43.6528 57.5985C43.6434 57.6074 35.2446 57.4575 35.1498 57.4468C35.1419 57.4459 35.146 54.8134 35.1587 51.5967C35.1715 48.38 35.1923 42.6156 35.2051 38.7869ZM41.7115 11.8043C41.7861 11.9438 41.9813 12.0754 42.1119 12.0741C42.2602 12.0727 42.4311 11.9812 42.9922 11.6024C43.4186 11.3147 43.5315 11.221 43.5918 11.105C43.71 10.878 43.5995 10.6243 43.3384 10.5227C43.1523 10.4503 43.0086 10.5069 42.468 10.8655C41.8493 11.2759 41.7305 11.3771 41.6843 11.5334C41.6396 11.6846 41.6378 11.6664 41.7115 11.8043ZM49.0727 21.0714C49.9134 20.4216 50.8623 19.6958 51.1814 19.4585C51.5005 19.2213 51.8846 18.9289 52.035 18.8088C52.2908 18.6045 52.6532 18.3245 53.2837 17.8439C53.4293 17.7329 53.5634 17.6468 53.5816 17.6525C53.5998 17.6582 54.1241 18.1715 54.7467 18.7932L55.8786 19.9236L55.8588 35.7053C55.841 49.8467 55.8153 57.5443 55.7858 57.5735C55.7801 57.5791 53.9306 57.593 51.6759 57.6043L47.5764 57.6249L47.5673 49.0028C47.5623 44.2607 47.5551 36.302 47.5512 31.3168L47.5441 22.2529L49.0727 21.0714Z" stroke="#EC6A2D" stroke-width="0.2" mask="url(#path-1-outside-1_1424_31888)"/>
</svg>
