<svg width="64" height="64" viewBox="0 0 64 64" fill="none" xmlns="http://www.w3.org/2000/svg">
<mask id="path-1-outside-1_1424_31873" maskUnits="userSpaceOnUse" x="1.25" y="6.75" width="61" height="50" fill="black">
<rect fill="white" x="1.25" y="6.75" width="61" height="50"/>
<path fill-rule="evenodd" clip-rule="evenodd" d="M23.7303 7.79377C23.0991 7.94109 22.5305 8.27531 22.1371 8.73034C21.9276 8.97262 21.6809 9.4507 21.5985 9.77392C21.5339 10.0271 21.5334 10.0835 21.5348 15.8879L21.5362 21.7465L13.3904 21.7349L5.24465 21.7232L4.99037 21.7908C4.37777 21.9536 3.62573 22.4018 3.13789 22.8949C2.84191 23.194 2.54723 23.5978 2.43697 23.8552L2.36027 24.0342L2.29984 30.9039C2.2666 34.6823 2.2447 38.1322 2.25112 38.5703C2.2624 39.3379 2.26583 39.3748 2.34549 39.5852C2.46672 39.9053 2.58308 40.0921 2.79719 40.31C3.45718 40.9818 4.45711 41.1199 5.2958 40.6551C5.39592 40.5996 5.48489 40.5541 5.49347 40.5541C5.50205 40.5541 5.50682 43.6145 5.50402 47.355L5.49893 54.1558L5.57338 54.3799C5.95245 55.5215 6.9904 56.2472 8.24836 56.25C9.44682 56.2527 10.5233 55.5601 10.9205 54.5307C11.1234 54.0049 11.1065 54.8376 11.1591 42.8386C11.1693 40.5324 11.1831 38.6285 11.19 38.6078C11.1994 38.5793 11.3696 38.5703 11.8992 38.5703H12.596L12.6147 39.1188C12.6249 39.4205 12.648 41.0201 12.666 42.6733C12.7575 51.0635 12.7971 53.8737 12.8267 54.0797C13.0647 55.738 14.9614 56.7163 16.5627 56.0067C17.3955 55.6376 17.9426 54.9659 18.1344 54.0771L18.2018 53.765L18.1684 49.5417C18.1501 47.2189 18.1272 44.4528 18.1176 43.3947C18.108 42.3366 18.0866 39.5908 18.07 37.2928C18.0535 34.9948 18.0327 32.2827 18.0238 31.266C18.015 30.2492 18.0038 28.714 17.9991 27.8543L17.9905 26.2912L19.7623 26.2835L21.5341 26.2757L21.5139 31.8895C21.4951 37.1402 21.4974 37.5197 21.5489 37.7587C21.6997 38.4584 22.172 38.8911 22.9612 39.0526L23.2594 39.1136L41.7622 39.0934C59.6762 39.0738 60.2724 39.0714 60.5006 39.0171C60.7825 38.95 60.9705 38.8508 61.1938 38.6513C61.4459 38.426 61.592 38.1789 61.7426 37.7227C61.7573 37.6781 61.7494 35.994 61.7251 33.9803C61.7007 31.9667 61.6594 28.5133 61.6331 26.3063C61.4442 10.4009 61.4469 10.704 61.4892 10.4469C61.5688 9.96332 61.4668 9.43934 61.2119 9.02245C61.1442 8.91163 60.9671 8.70792 60.8028 8.55176C60.5524 8.31379 60.4713 8.25746 60.2051 8.13665C59.6623 7.89029 60.0814 7.90871 54.3847 7.88064C45.0326 7.8345 41.8128 7.81986 34.3123 7.78941C30.2128 7.77276 26.2018 7.75596 25.399 7.75205C24.1418 7.74595 23.9104 7.75172 23.7303 7.79377ZM33.1203 8.58726C35.0608 8.59601 41.3829 8.62255 47.1694 8.6463C58.5333 8.69292 59.3521 8.70058 59.5974 8.76265C60.0563 8.87874 60.4301 9.21675 60.6022 9.67115C60.6605 9.82487 60.6691 9.90988 60.6653 10.2963C60.6629 10.5423 60.6471 10.9346 60.6301 11.168C60.6131 11.4015 60.6084 11.7912 60.6197 12.034L60.6401 12.4755L59.8009 12.4849L58.9617 12.4942L58.7808 12.5796C58.6812 12.6266 58.576 12.6993 58.547 12.7411C58.518 12.783 58.369 13.2962 58.2158 13.8816C58.0626 14.467 57.9317 14.9502 57.925 14.9553C57.708 15.121 55.764 16.3404 55.7196 16.3386C55.662 16.3363 53.1833 15.5439 52.9524 15.454C52.8188 15.402 52.6427 15.4387 52.5343 15.5413C52.4839 15.589 52.2985 15.923 52.1055 16.3142C51.6572 17.2225 51.2 18.1406 50.9486 18.6373C50.7373 19.0549 50.7062 19.1886 50.7832 19.3484C50.8061 19.396 51.2676 19.7486 51.9513 20.2409C52.5729 20.6885 53.0866 21.0588 53.0929 21.0637C53.0992 21.0686 53.0419 21.5141 52.9655 22.0536L52.8267 23.0345L52.3978 23.2096C52.162 23.3058 51.6224 23.5268 51.1988 23.7007C50.7752 23.8745 50.3854 24.0258 50.3326 24.0367C50.2003 24.0642 50.0528 24.2123 50.0267 24.3438C50.0019 24.4688 49.9998 24.4612 50.6927 26.7327C50.9744 27.6565 51.1965 28.329 51.2566 28.4409C51.371 28.6538 51.4951 28.741 51.6829 28.7404C51.7528 28.7402 52.3607 28.6528 53.0337 28.5462C53.9935 28.3941 54.2656 28.3602 54.2956 28.3889C54.3165 28.409 54.6262 28.8215 54.9836 29.3057L55.6335 30.1859L55.4817 30.508C55.3982 30.6852 55.1911 31.1209 55.0214 31.4764C54.8517 31.8318 54.6833 32.2007 54.6473 32.2962C54.5266 32.6155 54.4806 32.5644 55.9235 33.712C57.3007 34.8075 57.3694 34.8578 57.5516 34.9042C57.7774 34.9617 57.8628 34.9145 58.5644 34.3447C58.9228 34.0536 59.3754 33.6879 59.5701 33.5321L59.9242 33.2487L60.4045 33.4029L60.8847 33.5572L60.8851 34.6585C60.8852 35.2642 60.9003 35.9559 60.9186 36.1956C60.9563 36.6895 60.913 37.5075 60.8362 37.7519C60.7782 37.9367 60.6083 38.1244 60.4255 38.2057L60.2824 38.2693L42.2832 38.2869C31.7847 38.2972 24.0059 38.2933 23.6165 38.2775C23.0353 38.254 22.9326 38.2423 22.8219 38.1876C22.6731 38.114 22.5195 37.9671 22.4361 37.8188C22.3791 37.7174 22.3766 37.5048 22.3671 31.9949L22.3574 26.2762H25.6124H28.8674L29.2174 26.203C29.6429 26.114 29.882 26.0248 30.1735 25.8465C31.2134 25.2104 31.5623 23.9951 31.0019 22.9611C30.8968 22.7671 30.8031 22.6529 30.5639 22.4273C30.3053 22.1833 30.2144 22.1192 29.9577 21.9997C29.4534 21.7649 29.3735 21.7542 28.1141 21.7532C27.511 21.7528 25.977 21.749 24.7052 21.7448L22.3928 21.7373L22.3935 15.8683L22.3941 9.99936L22.471 9.79349C22.5825 9.49462 22.7286 9.2839 22.9815 9.05717C23.2216 8.84186 23.427 8.72373 23.7572 8.61092L23.9662 8.53953L26.7792 8.55546C28.3263 8.56424 31.1798 8.57854 33.1203 8.58726ZM10.5369 12.8291C10.4932 12.8351 10.3524 12.8548 10.2242 12.8727C9.10945 13.0284 8.00927 13.8041 7.47849 14.8088C7.02466 15.6678 6.96814 16.6998 7.32446 17.6219C7.78941 18.8251 8.95819 19.718 10.3135 19.9054C10.7236 19.9621 11.4016 19.9272 11.7924 19.8292C12.4154 19.6729 13.0468 19.3314 13.4972 18.9069C14.5213 17.9419 14.8739 16.5212 14.41 15.2296C14.0109 14.1184 12.9997 13.234 11.7988 12.9459C11.3594 12.8405 10.8166 12.7903 10.5369 12.8291ZM60.645 14.6209C60.6572 15.3524 60.6624 16.118 60.6567 16.3221L60.6464 16.6932L60.2967 16.7776C59.3133 17.0149 58.4182 17.4537 57.6064 18.0965C56.9246 18.6365 56.2976 19.3918 55.8692 20.1893C55.0183 21.7736 54.8111 23.6104 55.2875 25.346C55.7387 26.9895 56.8133 28.4303 58.2784 29.3559C58.8757 29.7333 59.8439 30.1153 60.5701 30.26L60.8116 30.3081L60.8323 30.6715C60.8437 30.8714 60.853 31.4111 60.853 31.8709V32.7068L60.405 32.5575C60.1587 32.4754 59.9175 32.4082 59.8691 32.4082C59.7005 32.4082 59.4506 32.5781 58.5645 33.2949C58.074 33.6917 57.6589 34.0164 57.6419 34.0164C57.5998 34.0164 55.5448 32.3802 55.5448 32.3467C55.5448 32.3319 55.7289 31.9306 55.9539 31.4548C56.5491 30.1959 56.5097 30.294 56.4885 30.1245C56.4783 30.0432 56.4484 29.9372 56.422 29.889C56.3956 29.8407 56.0547 29.37 55.6644 28.8428C55.274 28.3157 54.9227 27.8351 54.8837 27.7748C54.8447 27.7146 54.7656 27.6442 54.7079 27.6183C54.4832 27.5174 54.3848 27.5239 53.146 27.7205C52.4901 27.8246 51.9454 27.9021 51.9355 27.8928C51.9188 27.877 51.7817 27.4341 51.1809 25.4561C51.0514 25.0299 50.954 24.6761 50.9646 24.6701C50.9751 24.664 51.3841 24.4943 51.8736 24.293C52.3631 24.0917 52.8937 23.8733 53.0526 23.8078C53.3485 23.686 53.4927 23.5757 53.5863 23.3999C53.6391 23.3008 53.9626 21.1933 53.9684 20.9107C53.9724 20.7164 53.9333 20.6699 53.5135 20.3697C52.3529 19.5396 51.7222 19.0764 51.7092 19.0443C51.7009 19.024 51.7436 18.9081 51.804 18.7868C51.8643 18.6654 52.028 18.3362 52.1678 18.0551C52.3075 17.7741 52.4794 17.4292 52.5497 17.2886C52.6201 17.1481 52.7563 16.8754 52.8525 16.6826L53.0274 16.3322L54.3894 16.766C55.8362 17.2269 55.814 17.2224 56.0545 17.1073C56.1459 17.0635 56.9608 16.5446 58.403 15.6116C58.4977 15.5503 58.6032 15.4642 58.6374 15.4203C58.6895 15.3534 58.8543 14.7659 59.2158 13.3584C59.2331 13.2909 59.2337 13.2908 59.928 13.2908H60.623L60.645 14.6209ZM11.5858 13.7074C12.4538 13.9189 13.2292 14.5695 13.567 15.3695C13.8194 15.9674 13.8273 16.7319 13.5874 17.3419C13.3821 17.8639 12.9734 18.3618 12.4999 18.6669C10.9138 19.689 8.69656 18.9876 8.09353 17.273C7.52223 15.6486 8.59997 13.9352 10.3621 13.6667C10.7253 13.6113 11.2653 13.6293 11.5858 13.7074ZM60.7535 23.5078C60.7913 26.7878 60.816 29.4774 60.8084 29.4846C60.8007 29.4918 60.6539 29.4632 60.482 29.421C58.5651 28.9506 57.0163 27.578 56.281 25.698C56.1812 25.4428 56.067 25.0417 55.9877 24.6681C55.8895 24.2049 55.8645 23.1145 55.9403 22.5995C56.1084 21.4574 56.6094 20.3479 57.3473 19.4829C57.6273 19.1548 58.2189 18.6259 58.5578 18.4008C58.8846 18.1837 59.3461 17.9405 59.7087 17.7942C59.999 17.677 60.6391 17.4964 60.6656 17.524C60.6761 17.5351 60.7157 20.2278 60.7535 23.5078ZM24.8239 22.5514C27.2558 22.5524 29.1164 22.5649 29.2051 22.5808C29.7921 22.6861 30.2982 23.1848 30.4044 23.7627C30.513 24.3536 30.1621 24.977 29.5646 25.2547C29.115 25.4636 29.8104 25.4427 22.1067 25.4792C16.9855 25.5034 17.3292 25.4883 17.2032 25.6953C17.1489 25.7846 17.1454 25.8937 17.1486 27.4086C17.1505 28.2985 17.1654 30.1087 17.1818 31.4313C17.1982 32.7539 17.2112 34.4041 17.2105 35.0985C17.2099 35.7928 17.2237 38.0315 17.2412 40.0732C17.2586 42.115 17.2807 44.8946 17.2902 46.2503C17.3102 49.1145 17.334 51.2772 17.3566 52.2771C17.3753 53.1025 17.3326 53.9033 17.2572 54.1407C17.0652 54.7457 16.5397 55.2354 15.9184 55.3884C15.6529 55.4538 15.1674 55.4469 14.9187 55.3742C14.39 55.2198 13.9715 54.8439 13.7538 54.3279C13.6727 54.1355 13.6683 54.0987 13.665 53.5696C13.6631 53.2638 13.6516 52.6957 13.6395 52.3071C13.6273 51.9186 13.5898 49.2674 13.5562 46.4156C13.4616 38.4069 13.458 38.1705 13.4261 38.0717C13.4096 38.0207 13.3551 37.9418 13.3049 37.8964C13.168 37.7724 12.8851 37.7487 11.8181 37.7718C11.014 37.7893 10.8999 37.7981 10.7062 37.8576C10.3512 37.9668 10.3579 37.9463 10.3344 38.9975C10.3236 39.4817 10.3065 42.4614 10.2963 45.6191C10.271 53.4552 10.2668 53.8451 10.2059 54.0577C10.1118 54.386 9.96572 54.6207 9.69459 54.8789C9.27378 55.2796 8.85756 55.4422 8.24836 55.4435C7.70992 55.4447 7.27951 55.2885 6.90601 54.9561C6.66129 54.7384 6.50453 54.5124 6.40628 54.2356L6.33858 54.0449L6.34681 40.5438C6.35135 33.1182 6.35517 26.7857 6.35533 26.4716C6.35552 25.9625 6.34874 25.8876 6.29277 25.7822C6.20933 25.625 6.09027 25.5466 5.93484 25.5466C5.78103 25.5466 5.63838 25.6225 5.55888 25.7468C5.50075 25.8375 5.49846 26.0425 5.48276 32.4834C5.46483 39.84 5.48336 39.2524 5.25784 39.6097C5.1247 39.8207 4.84721 40.024 4.59973 40.0921C4.18903 40.205 3.69124 40.0735 3.41424 39.779C3.13478 39.482 3.05195 39.1491 3.08351 38.45C3.09209 38.2599 3.12207 34.9933 3.15016 31.1908C3.17918 27.2592 3.21383 24.2292 3.23048 24.1659C3.30025 23.9005 3.7886 23.3505 4.24014 23.0288C4.35559 22.9465 4.57875 22.8188 4.73609 22.7449C5.26757 22.4953 4.46019 22.516 12.9844 22.5338C17.1713 22.5425 22.4991 22.5505 24.8239 22.5514Z"/>
</mask>
<path fill-rule="evenodd" clip-rule="evenodd" d="M23.7303 7.79377C23.0991 7.94109 22.5305 8.27531 22.1371 8.73034C21.9276 8.97262 21.6809 9.4507 21.5985 9.77392C21.5339 10.0271 21.5334 10.0835 21.5348 15.8879L21.5362 21.7465L13.3904 21.7349L5.24465 21.7232L4.99037 21.7908C4.37777 21.9536 3.62573 22.4018 3.13789 22.8949C2.84191 23.194 2.54723 23.5978 2.43697 23.8552L2.36027 24.0342L2.29984 30.9039C2.2666 34.6823 2.2447 38.1322 2.25112 38.5703C2.2624 39.3379 2.26583 39.3748 2.34549 39.5852C2.46672 39.9053 2.58308 40.0921 2.79719 40.31C3.45718 40.9818 4.45711 41.1199 5.2958 40.6551C5.39592 40.5996 5.48489 40.5541 5.49347 40.5541C5.50205 40.5541 5.50682 43.6145 5.50402 47.355L5.49893 54.1558L5.57338 54.3799C5.95245 55.5215 6.9904 56.2472 8.24836 56.25C9.44682 56.2527 10.5233 55.5601 10.9205 54.5307C11.1234 54.0049 11.1065 54.8376 11.1591 42.8386C11.1693 40.5324 11.1831 38.6285 11.19 38.6078C11.1994 38.5793 11.3696 38.5703 11.8992 38.5703H12.596L12.6147 39.1188C12.6249 39.4205 12.648 41.0201 12.666 42.6733C12.7575 51.0635 12.7971 53.8737 12.8267 54.0797C13.0647 55.738 14.9614 56.7163 16.5627 56.0067C17.3955 55.6376 17.9426 54.9659 18.1344 54.0771L18.2018 53.765L18.1684 49.5417C18.1501 47.2189 18.1272 44.4528 18.1176 43.3947C18.108 42.3366 18.0866 39.5908 18.07 37.2928C18.0535 34.9948 18.0327 32.2827 18.0238 31.266C18.015 30.2492 18.0038 28.714 17.9991 27.8543L17.9905 26.2912L19.7623 26.2835L21.5341 26.2757L21.5139 31.8895C21.4951 37.1402 21.4974 37.5197 21.5489 37.7587C21.6997 38.4584 22.172 38.8911 22.9612 39.0526L23.2594 39.1136L41.7622 39.0934C59.6762 39.0738 60.2724 39.0714 60.5006 39.0171C60.7825 38.95 60.9705 38.8508 61.1938 38.6513C61.4459 38.426 61.592 38.1789 61.7426 37.7227C61.7573 37.6781 61.7494 35.994 61.7251 33.9803C61.7007 31.9667 61.6594 28.5133 61.6331 26.3063C61.4442 10.4009 61.4469 10.704 61.4892 10.4469C61.5688 9.96332 61.4668 9.43934 61.2119 9.02245C61.1442 8.91163 60.9671 8.70792 60.8028 8.55176C60.5524 8.31379 60.4713 8.25746 60.2051 8.13665C59.6623 7.89029 60.0814 7.90871 54.3847 7.88064C45.0326 7.8345 41.8128 7.81986 34.3123 7.78941C30.2128 7.77276 26.2018 7.75596 25.399 7.75205C24.1418 7.74595 23.9104 7.75172 23.7303 7.79377ZM33.1203 8.58726C35.0608 8.59601 41.3829 8.62255 47.1694 8.6463C58.5333 8.69292 59.3521 8.70058 59.5974 8.76265C60.0563 8.87874 60.4301 9.21675 60.6022 9.67115C60.6605 9.82487 60.6691 9.90988 60.6653 10.2963C60.6629 10.5423 60.6471 10.9346 60.6301 11.168C60.6131 11.4015 60.6084 11.7912 60.6197 12.034L60.6401 12.4755L59.8009 12.4849L58.9617 12.4942L58.7808 12.5796C58.6812 12.6266 58.576 12.6993 58.547 12.7411C58.518 12.783 58.369 13.2962 58.2158 13.8816C58.0626 14.467 57.9317 14.9502 57.925 14.9553C57.708 15.121 55.764 16.3404 55.7196 16.3386C55.662 16.3363 53.1833 15.5439 52.9524 15.454C52.8188 15.402 52.6427 15.4387 52.5343 15.5413C52.4839 15.589 52.2985 15.923 52.1055 16.3142C51.6572 17.2225 51.2 18.1406 50.9486 18.6373C50.7373 19.0549 50.7062 19.1886 50.7832 19.3484C50.8061 19.396 51.2676 19.7486 51.9513 20.2409C52.5729 20.6885 53.0866 21.0588 53.0929 21.0637C53.0992 21.0686 53.0419 21.5141 52.9655 22.0536L52.8267 23.0345L52.3978 23.2096C52.162 23.3058 51.6224 23.5268 51.1988 23.7007C50.7752 23.8745 50.3854 24.0258 50.3326 24.0367C50.2003 24.0642 50.0528 24.2123 50.0267 24.3438C50.0019 24.4688 49.9998 24.4612 50.6927 26.7327C50.9744 27.6565 51.1965 28.329 51.2566 28.4409C51.371 28.6538 51.4951 28.741 51.6829 28.7404C51.7528 28.7402 52.3607 28.6528 53.0337 28.5462C53.9935 28.3941 54.2656 28.3602 54.2956 28.3889C54.3165 28.409 54.6262 28.8215 54.9836 29.3057L55.6335 30.1859L55.4817 30.508C55.3982 30.6852 55.1911 31.1209 55.0214 31.4764C54.8517 31.8318 54.6833 32.2007 54.6473 32.2962C54.5266 32.6155 54.4806 32.5644 55.9235 33.712C57.3007 34.8075 57.3694 34.8578 57.5516 34.9042C57.7774 34.9617 57.8628 34.9145 58.5644 34.3447C58.9228 34.0536 59.3754 33.6879 59.5701 33.5321L59.9242 33.2487L60.4045 33.4029L60.8847 33.5572L60.8851 34.6585C60.8852 35.2642 60.9003 35.9559 60.9186 36.1956C60.9563 36.6895 60.913 37.5075 60.8362 37.7519C60.7782 37.9367 60.6083 38.1244 60.4255 38.2057L60.2824 38.2693L42.2832 38.2869C31.7847 38.2972 24.0059 38.2933 23.6165 38.2775C23.0353 38.254 22.9326 38.2423 22.8219 38.1876C22.6731 38.114 22.5195 37.9671 22.4361 37.8188C22.3791 37.7174 22.3766 37.5048 22.3671 31.9949L22.3574 26.2762H25.6124H28.8674L29.2174 26.203C29.6429 26.114 29.882 26.0248 30.1735 25.8465C31.2134 25.2104 31.5623 23.9951 31.0019 22.9611C30.8968 22.7671 30.8031 22.6529 30.5639 22.4273C30.3053 22.1833 30.2144 22.1192 29.9577 21.9997C29.4534 21.7649 29.3735 21.7542 28.1141 21.7532C27.511 21.7528 25.977 21.749 24.7052 21.7448L22.3928 21.7373L22.3935 15.8683L22.3941 9.99936L22.471 9.79349C22.5825 9.49462 22.7286 9.2839 22.9815 9.05717C23.2216 8.84186 23.427 8.72373 23.7572 8.61092L23.9662 8.53953L26.7792 8.55546C28.3263 8.56424 31.1798 8.57854 33.1203 8.58726ZM10.5369 12.8291C10.4932 12.8351 10.3524 12.8548 10.2242 12.8727C9.10945 13.0284 8.00927 13.8041 7.47849 14.8088C7.02466 15.6678 6.96814 16.6998 7.32446 17.6219C7.78941 18.8251 8.95819 19.718 10.3135 19.9054C10.7236 19.9621 11.4016 19.9272 11.7924 19.8292C12.4154 19.6729 13.0468 19.3314 13.4972 18.9069C14.5213 17.9419 14.8739 16.5212 14.41 15.2296C14.0109 14.1184 12.9997 13.234 11.7988 12.9459C11.3594 12.8405 10.8166 12.7903 10.5369 12.8291ZM60.645 14.6209C60.6572 15.3524 60.6624 16.118 60.6567 16.3221L60.6464 16.6932L60.2967 16.7776C59.3133 17.0149 58.4182 17.4537 57.6064 18.0965C56.9246 18.6365 56.2976 19.3918 55.8692 20.1893C55.0183 21.7736 54.8111 23.6104 55.2875 25.346C55.7387 26.9895 56.8133 28.4303 58.2784 29.3559C58.8757 29.7333 59.8439 30.1153 60.5701 30.26L60.8116 30.3081L60.8323 30.6715C60.8437 30.8714 60.853 31.4111 60.853 31.8709V32.7068L60.405 32.5575C60.1587 32.4754 59.9175 32.4082 59.8691 32.4082C59.7005 32.4082 59.4506 32.5781 58.5645 33.2949C58.074 33.6917 57.6589 34.0164 57.6419 34.0164C57.5998 34.0164 55.5448 32.3802 55.5448 32.3467C55.5448 32.3319 55.7289 31.9306 55.9539 31.4548C56.5491 30.1959 56.5097 30.294 56.4885 30.1245C56.4783 30.0432 56.4484 29.9372 56.422 29.889C56.3956 29.8407 56.0547 29.37 55.6644 28.8428C55.274 28.3157 54.9227 27.8351 54.8837 27.7748C54.8447 27.7146 54.7656 27.6442 54.7079 27.6183C54.4832 27.5174 54.3848 27.5239 53.146 27.7205C52.4901 27.8246 51.9454 27.9021 51.9355 27.8928C51.9188 27.877 51.7817 27.4341 51.1809 25.4561C51.0514 25.0299 50.954 24.6761 50.9646 24.6701C50.9751 24.664 51.3841 24.4943 51.8736 24.293C52.3631 24.0917 52.8937 23.8733 53.0526 23.8078C53.3485 23.686 53.4927 23.5757 53.5863 23.3999C53.6391 23.3008 53.9626 21.1933 53.9684 20.9107C53.9724 20.7164 53.9333 20.6699 53.5135 20.3697C52.3529 19.5396 51.7222 19.0764 51.7092 19.0443C51.7009 19.024 51.7436 18.9081 51.804 18.7868C51.8643 18.6654 52.028 18.3362 52.1678 18.0551C52.3075 17.7741 52.4794 17.4292 52.5497 17.2886C52.6201 17.1481 52.7563 16.8754 52.8525 16.6826L53.0274 16.3322L54.3894 16.766C55.8362 17.2269 55.814 17.2224 56.0545 17.1073C56.1459 17.0635 56.9608 16.5446 58.403 15.6116C58.4977 15.5503 58.6032 15.4642 58.6374 15.4203C58.6895 15.3534 58.8543 14.7659 59.2158 13.3584C59.2331 13.2909 59.2337 13.2908 59.928 13.2908H60.623L60.645 14.6209ZM11.5858 13.7074C12.4538 13.9189 13.2292 14.5695 13.567 15.3695C13.8194 15.9674 13.8273 16.7319 13.5874 17.3419C13.3821 17.8639 12.9734 18.3618 12.4999 18.6669C10.9138 19.689 8.69656 18.9876 8.09353 17.273C7.52223 15.6486 8.59997 13.9352 10.3621 13.6667C10.7253 13.6113 11.2653 13.6293 11.5858 13.7074ZM60.7535 23.5078C60.7913 26.7878 60.816 29.4774 60.8084 29.4846C60.8007 29.4918 60.6539 29.4632 60.482 29.421C58.5651 28.9506 57.0163 27.578 56.281 25.698C56.1812 25.4428 56.067 25.0417 55.9877 24.6681C55.8895 24.2049 55.8645 23.1145 55.9403 22.5995C56.1084 21.4574 56.6094 20.3479 57.3473 19.4829C57.6273 19.1548 58.2189 18.6259 58.5578 18.4008C58.8846 18.1837 59.3461 17.9405 59.7087 17.7942C59.999 17.677 60.6391 17.4964 60.6656 17.524C60.6761 17.5351 60.7157 20.2278 60.7535 23.5078ZM24.8239 22.5514C27.2558 22.5524 29.1164 22.5649 29.2051 22.5808C29.7921 22.6861 30.2982 23.1848 30.4044 23.7627C30.513 24.3536 30.1621 24.977 29.5646 25.2547C29.115 25.4636 29.8104 25.4427 22.1067 25.4792C16.9855 25.5034 17.3292 25.4883 17.2032 25.6953C17.1489 25.7846 17.1454 25.8937 17.1486 27.4086C17.1505 28.2985 17.1654 30.1087 17.1818 31.4313C17.1982 32.7539 17.2112 34.4041 17.2105 35.0985C17.2099 35.7928 17.2237 38.0315 17.2412 40.0732C17.2586 42.115 17.2807 44.8946 17.2902 46.2503C17.3102 49.1145 17.334 51.2772 17.3566 52.2771C17.3753 53.1025 17.3326 53.9033 17.2572 54.1407C17.0652 54.7457 16.5397 55.2354 15.9184 55.3884C15.6529 55.4538 15.1674 55.4469 14.9187 55.3742C14.39 55.2198 13.9715 54.8439 13.7538 54.3279C13.6727 54.1355 13.6683 54.0987 13.665 53.5696C13.6631 53.2638 13.6516 52.6957 13.6395 52.3071C13.6273 51.9186 13.5898 49.2674 13.5562 46.4156C13.4616 38.4069 13.458 38.1705 13.4261 38.0717C13.4096 38.0207 13.3551 37.9418 13.3049 37.8964C13.168 37.7724 12.8851 37.7487 11.8181 37.7718C11.014 37.7893 10.8999 37.7981 10.7062 37.8576C10.3512 37.9668 10.3579 37.9463 10.3344 38.9975C10.3236 39.4817 10.3065 42.4614 10.2963 45.6191C10.271 53.4552 10.2668 53.8451 10.2059 54.0577C10.1118 54.386 9.96572 54.6207 9.69459 54.8789C9.27378 55.2796 8.85756 55.4422 8.24836 55.4435C7.70992 55.4447 7.27951 55.2885 6.90601 54.9561C6.66129 54.7384 6.50453 54.5124 6.40628 54.2356L6.33858 54.0449L6.34681 40.5438C6.35135 33.1182 6.35517 26.7857 6.35533 26.4716C6.35552 25.9625 6.34874 25.8876 6.29277 25.7822C6.20933 25.625 6.09027 25.5466 5.93484 25.5466C5.78103 25.5466 5.63838 25.6225 5.55888 25.7468C5.50075 25.8375 5.49846 26.0425 5.48276 32.4834C5.46483 39.84 5.48336 39.2524 5.25784 39.6097C5.1247 39.8207 4.84721 40.024 4.59973 40.0921C4.18903 40.205 3.69124 40.0735 3.41424 39.779C3.13478 39.482 3.05195 39.1491 3.08351 38.45C3.09209 38.2599 3.12207 34.9933 3.15016 31.1908C3.17918 27.2592 3.21383 24.2292 3.23048 24.1659C3.30025 23.9005 3.7886 23.3505 4.24014 23.0288C4.35559 22.9465 4.57875 22.8188 4.73609 22.7449C5.26757 22.4953 4.46019 22.516 12.9844 22.5338C17.1713 22.5425 22.4991 22.5505 24.8239 22.5514Z" fill="#EC6A2D"/>
<path fill-rule="evenodd" clip-rule="evenodd" d="M23.7303 7.79377C23.0991 7.94109 22.5305 8.27531 22.1371 8.73034C21.9276 8.97262 21.6809 9.4507 21.5985 9.77392C21.5339 10.0271 21.5334 10.0835 21.5348 15.8879L21.5362 21.7465L13.3904 21.7349L5.24465 21.7232L4.99037 21.7908C4.37777 21.9536 3.62573 22.4018 3.13789 22.8949C2.84191 23.194 2.54723 23.5978 2.43697 23.8552L2.36027 24.0342L2.29984 30.9039C2.2666 34.6823 2.2447 38.1322 2.25112 38.5703C2.2624 39.3379 2.26583 39.3748 2.34549 39.5852C2.46672 39.9053 2.58308 40.0921 2.79719 40.31C3.45718 40.9818 4.45711 41.1199 5.2958 40.6551C5.39592 40.5996 5.48489 40.5541 5.49347 40.5541C5.50205 40.5541 5.50682 43.6145 5.50402 47.355L5.49893 54.1558L5.57338 54.3799C5.95245 55.5215 6.9904 56.2472 8.24836 56.25C9.44682 56.2527 10.5233 55.5601 10.9205 54.5307C11.1234 54.0049 11.1065 54.8376 11.1591 42.8386C11.1693 40.5324 11.1831 38.6285 11.19 38.6078C11.1994 38.5793 11.3696 38.5703 11.8992 38.5703H12.596L12.6147 39.1188C12.6249 39.4205 12.648 41.0201 12.666 42.6733C12.7575 51.0635 12.7971 53.8737 12.8267 54.0797C13.0647 55.738 14.9614 56.7163 16.5627 56.0067C17.3955 55.6376 17.9426 54.9659 18.1344 54.0771L18.2018 53.765L18.1684 49.5417C18.1501 47.2189 18.1272 44.4528 18.1176 43.3947C18.108 42.3366 18.0866 39.5908 18.07 37.2928C18.0535 34.9948 18.0327 32.2827 18.0238 31.266C18.015 30.2492 18.0038 28.714 17.9991 27.8543L17.9905 26.2912L19.7623 26.2835L21.5341 26.2757L21.5139 31.8895C21.4951 37.1402 21.4974 37.5197 21.5489 37.7587C21.6997 38.4584 22.172 38.8911 22.9612 39.0526L23.2594 39.1136L41.7622 39.0934C59.6762 39.0738 60.2724 39.0714 60.5006 39.0171C60.7825 38.95 60.9705 38.8508 61.1938 38.6513C61.4459 38.426 61.592 38.1789 61.7426 37.7227C61.7573 37.6781 61.7494 35.994 61.7251 33.9803C61.7007 31.9667 61.6594 28.5133 61.6331 26.3063C61.4442 10.4009 61.4469 10.704 61.4892 10.4469C61.5688 9.96332 61.4668 9.43934 61.2119 9.02245C61.1442 8.91163 60.9671 8.70792 60.8028 8.55176C60.5524 8.31379 60.4713 8.25746 60.2051 8.13665C59.6623 7.89029 60.0814 7.90871 54.3847 7.88064C45.0326 7.8345 41.8128 7.81986 34.3123 7.78941C30.2128 7.77276 26.2018 7.75596 25.399 7.75205C24.1418 7.74595 23.9104 7.75172 23.7303 7.79377ZM33.1203 8.58726C35.0608 8.59601 41.3829 8.62255 47.1694 8.6463C58.5333 8.69292 59.3521 8.70058 59.5974 8.76265C60.0563 8.87874 60.4301 9.21675 60.6022 9.67115C60.6605 9.82487 60.6691 9.90988 60.6653 10.2963C60.6629 10.5423 60.6471 10.9346 60.6301 11.168C60.6131 11.4015 60.6084 11.7912 60.6197 12.034L60.6401 12.4755L59.8009 12.4849L58.9617 12.4942L58.7808 12.5796C58.6812 12.6266 58.576 12.6993 58.547 12.7411C58.518 12.783 58.369 13.2962 58.2158 13.8816C58.0626 14.467 57.9317 14.9502 57.925 14.9553C57.708 15.121 55.764 16.3404 55.7196 16.3386C55.662 16.3363 53.1833 15.5439 52.9524 15.454C52.8188 15.402 52.6427 15.4387 52.5343 15.5413C52.4839 15.589 52.2985 15.923 52.1055 16.3142C51.6572 17.2225 51.2 18.1406 50.9486 18.6373C50.7373 19.0549 50.7062 19.1886 50.7832 19.3484C50.8061 19.396 51.2676 19.7486 51.9513 20.2409C52.5729 20.6885 53.0866 21.0588 53.0929 21.0637C53.0992 21.0686 53.0419 21.5141 52.9655 22.0536L52.8267 23.0345L52.3978 23.2096C52.162 23.3058 51.6224 23.5268 51.1988 23.7007C50.7752 23.8745 50.3854 24.0258 50.3326 24.0367C50.2003 24.0642 50.0528 24.2123 50.0267 24.3438C50.0019 24.4688 49.9998 24.4612 50.6927 26.7327C50.9744 27.6565 51.1965 28.329 51.2566 28.4409C51.371 28.6538 51.4951 28.741 51.6829 28.7404C51.7528 28.7402 52.3607 28.6528 53.0337 28.5462C53.9935 28.3941 54.2656 28.3602 54.2956 28.3889C54.3165 28.409 54.6262 28.8215 54.9836 29.3057L55.6335 30.1859L55.4817 30.508C55.3982 30.6852 55.1911 31.1209 55.0214 31.4764C54.8517 31.8318 54.6833 32.2007 54.6473 32.2962C54.5266 32.6155 54.4806 32.5644 55.9235 33.712C57.3007 34.8075 57.3694 34.8578 57.5516 34.9042C57.7774 34.9617 57.8628 34.9145 58.5644 34.3447C58.9228 34.0536 59.3754 33.6879 59.5701 33.5321L59.9242 33.2487L60.4045 33.4029L60.8847 33.5572L60.8851 34.6585C60.8852 35.2642 60.9003 35.9559 60.9186 36.1956C60.9563 36.6895 60.913 37.5075 60.8362 37.7519C60.7782 37.9367 60.6083 38.1244 60.4255 38.2057L60.2824 38.2693L42.2832 38.2869C31.7847 38.2972 24.0059 38.2933 23.6165 38.2775C23.0353 38.254 22.9326 38.2423 22.8219 38.1876C22.6731 38.114 22.5195 37.9671 22.4361 37.8188C22.3791 37.7174 22.3766 37.5048 22.3671 31.9949L22.3574 26.2762H25.6124H28.8674L29.2174 26.203C29.6429 26.114 29.882 26.0248 30.1735 25.8465C31.2134 25.2104 31.5623 23.9951 31.0019 22.9611C30.8968 22.7671 30.8031 22.6529 30.5639 22.4273C30.3053 22.1833 30.2144 22.1192 29.9577 21.9997C29.4534 21.7649 29.3735 21.7542 28.1141 21.7532C27.511 21.7528 25.977 21.749 24.7052 21.7448L22.3928 21.7373L22.3935 15.8683L22.3941 9.99936L22.471 9.79349C22.5825 9.49462 22.7286 9.2839 22.9815 9.05717C23.2216 8.84186 23.427 8.72373 23.7572 8.61092L23.9662 8.53953L26.7792 8.55546C28.3263 8.56424 31.1798 8.57854 33.1203 8.58726ZM10.5369 12.8291C10.4932 12.8351 10.3524 12.8548 10.2242 12.8727C9.10945 13.0284 8.00927 13.8041 7.47849 14.8088C7.02466 15.6678 6.96814 16.6998 7.32446 17.6219C7.78941 18.8251 8.95819 19.718 10.3135 19.9054C10.7236 19.9621 11.4016 19.9272 11.7924 19.8292C12.4154 19.6729 13.0468 19.3314 13.4972 18.9069C14.5213 17.9419 14.8739 16.5212 14.41 15.2296C14.0109 14.1184 12.9997 13.234 11.7988 12.9459C11.3594 12.8405 10.8166 12.7903 10.5369 12.8291ZM60.645 14.6209C60.6572 15.3524 60.6624 16.118 60.6567 16.3221L60.6464 16.6932L60.2967 16.7776C59.3133 17.0149 58.4182 17.4537 57.6064 18.0965C56.9246 18.6365 56.2976 19.3918 55.8692 20.1893C55.0183 21.7736 54.8111 23.6104 55.2875 25.346C55.7387 26.9895 56.8133 28.4303 58.2784 29.3559C58.8757 29.7333 59.8439 30.1153 60.5701 30.26L60.8116 30.3081L60.8323 30.6715C60.8437 30.8714 60.853 31.4111 60.853 31.8709V32.7068L60.405 32.5575C60.1587 32.4754 59.9175 32.4082 59.8691 32.4082C59.7005 32.4082 59.4506 32.5781 58.5645 33.2949C58.074 33.6917 57.6589 34.0164 57.6419 34.0164C57.5998 34.0164 55.5448 32.3802 55.5448 32.3467C55.5448 32.3319 55.7289 31.9306 55.9539 31.4548C56.5491 30.1959 56.5097 30.294 56.4885 30.1245C56.4783 30.0432 56.4484 29.9372 56.422 29.889C56.3956 29.8407 56.0547 29.37 55.6644 28.8428C55.274 28.3157 54.9227 27.8351 54.8837 27.7748C54.8447 27.7146 54.7656 27.6442 54.7079 27.6183C54.4832 27.5174 54.3848 27.5239 53.146 27.7205C52.4901 27.8246 51.9454 27.9021 51.9355 27.8928C51.9188 27.877 51.7817 27.4341 51.1809 25.4561C51.0514 25.0299 50.954 24.6761 50.9646 24.6701C50.9751 24.664 51.3841 24.4943 51.8736 24.293C52.3631 24.0917 52.8937 23.8733 53.0526 23.8078C53.3485 23.686 53.4927 23.5757 53.5863 23.3999C53.6391 23.3008 53.9626 21.1933 53.9684 20.9107C53.9724 20.7164 53.9333 20.6699 53.5135 20.3697C52.3529 19.5396 51.7222 19.0764 51.7092 19.0443C51.7009 19.024 51.7436 18.9081 51.804 18.7868C51.8643 18.6654 52.028 18.3362 52.1678 18.0551C52.3075 17.7741 52.4794 17.4292 52.5497 17.2886C52.6201 17.1481 52.7563 16.8754 52.8525 16.6826L53.0274 16.3322L54.3894 16.766C55.8362 17.2269 55.814 17.2224 56.0545 17.1073C56.1459 17.0635 56.9608 16.5446 58.403 15.6116C58.4977 15.5503 58.6032 15.4642 58.6374 15.4203C58.6895 15.3534 58.8543 14.7659 59.2158 13.3584C59.2331 13.2909 59.2337 13.2908 59.928 13.2908H60.623L60.645 14.6209ZM11.5858 13.7074C12.4538 13.9189 13.2292 14.5695 13.567 15.3695C13.8194 15.9674 13.8273 16.7319 13.5874 17.3419C13.3821 17.8639 12.9734 18.3618 12.4999 18.6669C10.9138 19.689 8.69656 18.9876 8.09353 17.273C7.52223 15.6486 8.59997 13.9352 10.3621 13.6667C10.7253 13.6113 11.2653 13.6293 11.5858 13.7074ZM60.7535 23.5078C60.7913 26.7878 60.816 29.4774 60.8084 29.4846C60.8007 29.4918 60.6539 29.4632 60.482 29.421C58.5651 28.9506 57.0163 27.578 56.281 25.698C56.1812 25.4428 56.067 25.0417 55.9877 24.6681C55.8895 24.2049 55.8645 23.1145 55.9403 22.5995C56.1084 21.4574 56.6094 20.3479 57.3473 19.4829C57.6273 19.1548 58.2189 18.6259 58.5578 18.4008C58.8846 18.1837 59.3461 17.9405 59.7087 17.7942C59.999 17.677 60.6391 17.4964 60.6656 17.524C60.6761 17.5351 60.7157 20.2278 60.7535 23.5078ZM24.8239 22.5514C27.2558 22.5524 29.1164 22.5649 29.2051 22.5808C29.7921 22.6861 30.2982 23.1848 30.4044 23.7627C30.513 24.3536 30.1621 24.977 29.5646 25.2547C29.115 25.4636 29.8104 25.4427 22.1067 25.4792C16.9855 25.5034 17.3292 25.4883 17.2032 25.6953C17.1489 25.7846 17.1454 25.8937 17.1486 27.4086C17.1505 28.2985 17.1654 30.1087 17.1818 31.4313C17.1982 32.7539 17.2112 34.4041 17.2105 35.0985C17.2099 35.7928 17.2237 38.0315 17.2412 40.0732C17.2586 42.115 17.2807 44.8946 17.2902 46.2503C17.3102 49.1145 17.334 51.2772 17.3566 52.2771C17.3753 53.1025 17.3326 53.9033 17.2572 54.1407C17.0652 54.7457 16.5397 55.2354 15.9184 55.3884C15.6529 55.4538 15.1674 55.4469 14.9187 55.3742C14.39 55.2198 13.9715 54.8439 13.7538 54.3279C13.6727 54.1355 13.6683 54.0987 13.665 53.5696C13.6631 53.2638 13.6516 52.6957 13.6395 52.3071C13.6273 51.9186 13.5898 49.2674 13.5562 46.4156C13.4616 38.4069 13.458 38.1705 13.4261 38.0717C13.4096 38.0207 13.3551 37.9418 13.3049 37.8964C13.168 37.7724 12.8851 37.7487 11.8181 37.7718C11.014 37.7893 10.8999 37.7981 10.7062 37.8576C10.3512 37.9668 10.3579 37.9463 10.3344 38.9975C10.3236 39.4817 10.3065 42.4614 10.2963 45.6191C10.271 53.4552 10.2668 53.8451 10.2059 54.0577C10.1118 54.386 9.96572 54.6207 9.69459 54.8789C9.27378 55.2796 8.85756 55.4422 8.24836 55.4435C7.70992 55.4447 7.27951 55.2885 6.90601 54.9561C6.66129 54.7384 6.50453 54.5124 6.40628 54.2356L6.33858 54.0449L6.34681 40.5438C6.35135 33.1182 6.35517 26.7857 6.35533 26.4716C6.35552 25.9625 6.34874 25.8876 6.29277 25.7822C6.20933 25.625 6.09027 25.5466 5.93484 25.5466C5.78103 25.5466 5.63838 25.6225 5.55888 25.7468C5.50075 25.8375 5.49846 26.0425 5.48276 32.4834C5.46483 39.84 5.48336 39.2524 5.25784 39.6097C5.1247 39.8207 4.84721 40.024 4.59973 40.0921C4.18903 40.205 3.69124 40.0735 3.41424 39.779C3.13478 39.482 3.05195 39.1491 3.08351 38.45C3.09209 38.2599 3.12207 34.9933 3.15016 31.1908C3.17918 27.2592 3.21383 24.2292 3.23048 24.1659C3.30025 23.9005 3.7886 23.3505 4.24014 23.0288C4.35559 22.9465 4.57875 22.8188 4.73609 22.7449C5.26757 22.4953 4.46019 22.516 12.9844 22.5338C17.1713 22.5425 22.4991 22.5505 24.8239 22.5514Z" stroke="#EC6A2D" stroke-width="0.6" mask="url(#path-1-outside-1_1424_31873)"/>
</svg>
