<svg width="20" height="17" viewBox="0 0 20 17" fill="none" xmlns="http://www.w3.org/2000/svg">
<path d="M17.841 4.5415C17.841 4.7165 17.841 4.8915 17.841 5.0415C17.841 10.2165 13.891 16.1915 6.69102 16.1915C4.46602 16.1915 2.41602 15.5415 0.666016 14.4415C0.966016 14.4665 1.29102 14.4915 1.59102 14.4915C3.41602 14.4915 5.11601 13.8665 6.46601 12.8165C4.74101 12.7915 3.29102 11.6415 2.81602 10.0915C3.06602 10.1415 3.29102 10.1665 3.56602 10.1665C3.91602 10.1665 4.26602 10.1165 4.59102 10.0165C2.79102 9.6665 1.44102 8.0915 1.44102 6.1915C1.44102 6.1665 1.44102 6.1665 1.44102 6.1415C1.96602 6.4415 2.56602 6.6165 3.21602 6.6415C2.16602 5.9415 1.46602 4.7415 1.46602 3.3665C1.46602 2.6415 1.66602 1.9665 1.99102 1.3915C3.91602 3.7665 6.81602 5.3165 10.066 5.4915C9.99101 5.2165 9.96601 4.8915 9.96601 4.5915C9.96601 2.4165 11.716 0.666504 13.891 0.666504C15.016 0.666504 16.041 1.1415 16.741 1.8915C17.641 1.7165 18.466 1.3915 19.241 0.941504C18.941 1.8665 18.316 2.6165 17.516 3.1165C18.316 3.0165 19.066 2.8165 19.766 2.4915C19.266 3.2915 18.616 3.9915 17.841 4.5415Z" fill="white"/>
</svg>
