<svg width="64" height="64" viewBox="0 0 64 64" fill="none" xmlns="http://www.w3.org/2000/svg">
<mask id="path-1-outside-1_1424_31864" maskUnits="userSpaceOnUse" x="1" y="10.5" width="62" height="43" fill="black">
<rect fill="white" x="1" y="10.5" width="62" height="43"/>
<path fill-rule="evenodd" clip-rule="evenodd" d="M12.4595 11.5178C12.0916 11.5502 11.8578 11.5892 11.626 11.6567C11.4698 11.7023 11.4319 11.7249 11.4168 11.7819C11.3999 11.8452 11.4414 22.7225 11.4784 27.9435C11.4868 29.1288 11.507 33.3875 11.5232 37.4071C11.5604 46.6203 11.5582 46.497 11.6859 46.6102C11.7541 46.6706 11.7605 46.6711 12.0708 46.6374C12.2443 46.6186 12.5708 46.5735 12.7962 46.5371C13.9618 46.3492 14.7876 46.2906 16.2659 46.2908C17.5234 46.291 17.8716 46.3075 18.9157 46.4164C21.5547 46.6917 24.2165 47.4137 26.4992 48.4733C28.0976 49.2153 29.406 50.0513 30.5838 51.0829L30.7741 51.2497L30.3202 51.0451C25.8581 49.0336 16.2625 47.8168 10.3807 48.5167C9.44836 48.6276 8.42748 48.8303 7.87562 49.0142C7.73633 49.0606 7.61503 49.0916 7.60607 49.0831C7.59307 49.0709 7.40046 16.8972 7.39543 13.9L7.39411 13.1195H7.4951C7.76553 13.1195 8.88317 13.2845 9.28266 13.3834C9.61554 13.4658 10.1698 13.6648 10.383 13.7784C10.5615 13.8735 10.6901 13.8874 10.8174 13.8253C10.9026 13.7837 10.9955 13.6352 10.9955 13.5408C10.9955 13.4448 10.8656 13.3014 10.6869 13.2003C10.4854 13.0863 9.83927 12.8204 9.56082 12.737C8.95315 12.555 8.06682 12.417 7.28865 12.3831L6.87574 12.3652L6.76161 12.4639L6.64747 12.5626V15.2933C6.64747 18.8367 6.68856 28.1505 6.70609 28.579C6.71356 28.7613 6.72662 31.0989 6.73511 33.7736C6.74363 36.4483 6.75689 38.8853 6.76462 39.1893C6.77235 39.4932 6.78629 41.8556 6.79563 44.4391C6.80494 47.0226 6.82444 49.3043 6.83891 49.5094C6.86485 49.8769 6.86658 49.8836 6.95445 49.9584C7.09042 50.0742 7.22379 50.0619 7.59667 49.8992C9.85461 48.9137 15.4869 48.7645 21.2288 49.538C24.582 49.9898 27.4128 50.6585 29.5303 51.4991C30.1683 51.7524 30.1615 51.7453 29.7639 51.7456C29.0654 51.7463 2.93989 51.2007 2.9234 51.1851C2.907 51.1696 2.77179 22.4934 2.76915 18.473L2.7679 16.5733H4.20378C5.58265 16.5733 5.64423 16.5711 5.75462 16.518C5.89791 16.449 5.93012 16.3933 5.93012 16.2146C5.93012 16.0973 5.91697 16.0618 5.85261 16.0055C5.70027 15.8723 5.64736 15.8687 3.89517 15.87C2.99335 15.8706 2.21963 15.8801 2.17583 15.891C2.08957 15.9125 2.03915 15.9813 2.00498 16.1243C1.98618 16.2029 2.02284 27.129 2.07742 37.7248C2.08673 39.5333 2.10222 43.3505 2.11185 46.2075C2.12172 49.1335 2.1409 51.4455 2.15574 51.5015C2.17026 51.5561 2.22144 51.6521 2.26946 51.7146C2.43917 51.9357 2.02925 51.91 7.02685 52.0128C9.49143 52.0635 15.7901 52.194 21.0239 52.3029C27.2865 52.4332 31.0554 52.5005 32.0477 52.5C32.9181 52.4995 38.4953 52.4047 45.2383 52.2757C51.6638 52.1529 57.9158 52.0333 59.1316 52.0101C61.6224 51.9625 61.5145 51.9732 61.6785 51.7579C61.7605 51.65 61.7779 51.5983 61.797 51.4063C61.8094 51.2824 61.8274 49.4403 61.8371 47.3128C61.8468 45.1852 61.8626 42.3565 61.8722 41.0267C61.9481 30.4663 62.0186 16.2465 61.9956 16.1496C61.9615 16.0065 61.9059 15.9475 61.7868 15.928C61.6361 15.9034 58.6331 15.8986 58.4728 15.9228C58.3063 15.9479 58.2373 15.976 58.1434 16.0566C58.0479 16.1387 58.0481 16.3995 58.1438 16.4843C58.3049 16.6271 58.3223 16.6286 59.8382 16.6286H61.2494L61.2302 19.6887C61.2197 21.3718 61.1781 28.4622 61.1378 35.4453C61.0974 42.4283 61.0562 48.8393 61.0462 49.692L61.0279 51.2423L60.1895 51.2609C59.7285 51.2712 56.0704 51.3413 52.0605 51.4166C39.4329 51.654 37.4554 51.6915 36.0737 51.7198C35.3329 51.735 34.5292 51.7469 34.2877 51.7464L33.8485 51.7455L34.0681 51.6474C34.1888 51.5934 34.5446 51.4527 34.8586 51.3347C36.8136 50.5999 39.679 49.9539 42.8227 49.5391C47.5064 48.9212 52.3984 48.9205 55.091 49.5374C55.5772 49.6488 55.8451 49.7335 56.3291 49.9289C56.7802 50.111 56.8681 50.1178 57.0067 49.9812C57.0787 49.9103 57.0851 49.8817 57.11 49.521C57.1246 49.3095 57.1441 47.7687 57.1533 46.097C57.1625 44.4253 57.177 42.3178 57.1855 41.4136C57.2006 39.8124 57.2409 34.1348 57.2719 29.2559C57.2803 27.9262 57.2937 26.2974 57.3016 25.6363C57.3095 24.9752 57.3228 22.9423 57.3312 21.1186C57.3396 19.295 57.3525 17.6537 57.3599 17.4713C57.3674 17.289 57.377 16.1319 57.3813 14.9001C57.3886 12.7842 57.3861 12.6563 57.3364 12.5847C57.3075 12.5431 57.2417 12.4838 57.1902 12.4531C57.1049 12.4021 57.0658 12.3987 56.7453 12.4145C55.9357 12.4543 55.0231 12.6005 54.4175 12.7873C54.0098 12.9131 53.4976 13.1262 53.2665 13.2664C52.9943 13.4315 52.9453 13.6324 53.1338 13.8103C53.2575 13.927 53.4014 13.9228 53.6632 13.795C53.989 13.6359 54.6222 13.4293 55.0091 13.356C55.3492 13.2916 56.0261 13.1989 56.4305 13.1613L56.6135 13.1444V13.8296C56.6135 14.2065 56.5937 17.1508 56.5695 20.3726C56.5128 27.9101 56.3816 45.9948 56.3735 47.3956C56.3701 47.9883 56.3626 48.6241 56.357 48.8085L56.3467 49.1437L56.1946 49.0891C55.7268 48.9212 54.7432 48.707 53.9491 48.6C52.6187 48.4208 51.4098 48.3494 49.7035 48.3494C43.7865 48.3494 36.9101 49.5214 33.4678 51.1164L33.175 51.2521L33.38 51.0705C35.9669 48.7791 39.9256 47.1281 44.2721 46.5279C45.4982 46.3586 46.6596 46.292 48.0345 46.3122C49.3173 46.331 50.2286 46.4088 51.3253 46.5931C51.5364 46.6286 51.8212 46.6664 51.958 46.6771C52.2001 46.6959 52.2092 46.6944 52.291 46.6229C52.3624 46.5604 52.3725 46.5347 52.3581 46.4511C52.3488 46.397 52.353 46.2579 52.3673 46.142C52.3817 46.0261 52.401 44.4205 52.4101 42.5741C52.4193 40.7276 52.4333 38.7195 52.4412 38.1117C52.4491 37.5038 52.4623 35.5081 52.4705 33.6769C52.4787 31.8456 52.4919 29.8376 52.5 29.2145C52.5312 26.7831 52.6115 11.8859 52.5937 11.8196C52.5782 11.7617 52.5399 11.739 52.3762 11.6901C51.9014 11.5483 51.2733 11.504 50.0402 11.5255C49.0607 11.5425 48.3432 11.5952 47.3172 11.7254C41.8354 12.4212 35.6603 14.6084 33.014 16.7916C32.6784 17.0684 32.4338 17.3128 32.2021 17.6026C32.0958 17.7356 32.0011 17.8442 31.9917 17.8441C31.9822 17.844 31.9248 17.7711 31.8641 17.6821C31.7335 17.4908 31.3834 17.1242 31.0961 16.8781C28.857 14.9596 23.8156 12.9795 18.7547 12.0309C17.5398 11.8032 16.518 11.6604 15.3582 11.5564C14.7949 11.5059 12.8842 11.4805 12.4595 11.5178ZM14.4359 12.2352C18.1601 12.4165 22.7451 13.5032 26.5285 15.1011C27.0485 15.3208 28.0671 15.8122 28.5781 16.0899C30.1075 16.9212 31.1012 17.7392 31.4362 18.4427C31.4858 18.5467 31.5568 18.6629 31.5941 18.7009L31.6619 18.77L31.6218 32.3092C31.5997 39.7557 31.5811 47.0025 31.5804 48.4132L31.5793 50.9781L31.1467 50.5961C30.6223 50.133 30.3122 49.8863 29.7929 49.5191C26.6383 47.2886 22.2474 45.8595 17.7086 45.586C17.0999 45.5494 15.4138 45.549 14.8452 45.5855C14.2166 45.6258 13.3687 45.7167 12.8217 45.8024L12.3493 45.8763L12.3313 44.0249C12.3213 43.0066 12.2993 39.0463 12.2822 35.2242C12.2652 31.4022 12.2332 24.6816 12.2111 20.2897C12.1891 15.8978 12.1805 12.2952 12.192 12.2839C12.2528 12.2246 13.6117 12.1951 14.4359 12.2352ZM51.2407 12.2648C51.5467 12.281 51.8067 12.3032 51.8186 12.3142C51.8415 12.3353 51.6449 44.7082 51.6173 45.4618L51.6011 45.9042L51.1281 45.8301C49.3313 45.549 47.2702 45.4979 45.253 45.6845C42.0888 45.9773 38.7652 46.9287 36.2201 48.2702C34.8026 49.0174 33.8184 49.6915 32.725 50.664L32.3336 51.0122L32.3523 46.6342C32.3626 44.2264 32.385 36.9594 32.4019 30.4855L32.4329 18.7147L32.5054 18.5628C32.6955 18.1648 32.8937 17.9071 33.2824 17.5521C35.823 15.2329 42.818 12.8364 48.5198 12.332C49.5586 12.2401 50.3865 12.2197 51.2407 12.2648Z"/>
</mask>
<path fill-rule="evenodd" clip-rule="evenodd" d="M12.4595 11.5178C12.0916 11.5502 11.8578 11.5892 11.626 11.6567C11.4698 11.7023 11.4319 11.7249 11.4168 11.7819C11.3999 11.8452 11.4414 22.7225 11.4784 27.9435C11.4868 29.1288 11.507 33.3875 11.5232 37.4071C11.5604 46.6203 11.5582 46.497 11.6859 46.6102C11.7541 46.6706 11.7605 46.6711 12.0708 46.6374C12.2443 46.6186 12.5708 46.5735 12.7962 46.5371C13.9618 46.3492 14.7876 46.2906 16.2659 46.2908C17.5234 46.291 17.8716 46.3075 18.9157 46.4164C21.5547 46.6917 24.2165 47.4137 26.4992 48.4733C28.0976 49.2153 29.406 50.0513 30.5838 51.0829L30.7741 51.2497L30.3202 51.0451C25.8581 49.0336 16.2625 47.8168 10.3807 48.5167C9.44836 48.6276 8.42748 48.8303 7.87562 49.0142C7.73633 49.0606 7.61503 49.0916 7.60607 49.0831C7.59307 49.0709 7.40046 16.8972 7.39543 13.9L7.39411 13.1195H7.4951C7.76553 13.1195 8.88317 13.2845 9.28266 13.3834C9.61554 13.4658 10.1698 13.6648 10.383 13.7784C10.5615 13.8735 10.6901 13.8874 10.8174 13.8253C10.9026 13.7837 10.9955 13.6352 10.9955 13.5408C10.9955 13.4448 10.8656 13.3014 10.6869 13.2003C10.4854 13.0863 9.83927 12.8204 9.56082 12.737C8.95315 12.555 8.06682 12.417 7.28865 12.3831L6.87574 12.3652L6.76161 12.4639L6.64747 12.5626V15.2933C6.64747 18.8367 6.68856 28.1505 6.70609 28.579C6.71356 28.7613 6.72662 31.0989 6.73511 33.7736C6.74363 36.4483 6.75689 38.8853 6.76462 39.1893C6.77235 39.4932 6.78629 41.8556 6.79563 44.4391C6.80494 47.0226 6.82444 49.3043 6.83891 49.5094C6.86485 49.8769 6.86658 49.8836 6.95445 49.9584C7.09042 50.0742 7.22379 50.0619 7.59667 49.8992C9.85461 48.9137 15.4869 48.7645 21.2288 49.538C24.582 49.9898 27.4128 50.6585 29.5303 51.4991C30.1683 51.7524 30.1615 51.7453 29.7639 51.7456C29.0654 51.7463 2.93989 51.2007 2.9234 51.1851C2.907 51.1696 2.77179 22.4934 2.76915 18.473L2.7679 16.5733H4.20378C5.58265 16.5733 5.64423 16.5711 5.75462 16.518C5.89791 16.449 5.93012 16.3933 5.93012 16.2146C5.93012 16.0973 5.91697 16.0618 5.85261 16.0055C5.70027 15.8723 5.64736 15.8687 3.89517 15.87C2.99335 15.8706 2.21963 15.8801 2.17583 15.891C2.08957 15.9125 2.03915 15.9813 2.00498 16.1243C1.98618 16.2029 2.02284 27.129 2.07742 37.7248C2.08673 39.5333 2.10222 43.3505 2.11185 46.2075C2.12172 49.1335 2.1409 51.4455 2.15574 51.5015C2.17026 51.5561 2.22144 51.6521 2.26946 51.7146C2.43917 51.9357 2.02925 51.91 7.02685 52.0128C9.49143 52.0635 15.7901 52.194 21.0239 52.3029C27.2865 52.4332 31.0554 52.5005 32.0477 52.5C32.9181 52.4995 38.4953 52.4047 45.2383 52.2757C51.6638 52.1529 57.9158 52.0333 59.1316 52.0101C61.6224 51.9625 61.5145 51.9732 61.6785 51.7579C61.7605 51.65 61.7779 51.5983 61.797 51.4063C61.8094 51.2824 61.8274 49.4403 61.8371 47.3128C61.8468 45.1852 61.8626 42.3565 61.8722 41.0267C61.9481 30.4663 62.0186 16.2465 61.9956 16.1496C61.9615 16.0065 61.9059 15.9475 61.7868 15.928C61.6361 15.9034 58.6331 15.8986 58.4728 15.9228C58.3063 15.9479 58.2373 15.976 58.1434 16.0566C58.0479 16.1387 58.0481 16.3995 58.1438 16.4843C58.3049 16.6271 58.3223 16.6286 59.8382 16.6286H61.2494L61.2302 19.6887C61.2197 21.3718 61.1781 28.4622 61.1378 35.4453C61.0974 42.4283 61.0562 48.8393 61.0462 49.692L61.0279 51.2423L60.1895 51.2609C59.7285 51.2712 56.0704 51.3413 52.0605 51.4166C39.4329 51.654 37.4554 51.6915 36.0737 51.7198C35.3329 51.735 34.5292 51.7469 34.2877 51.7464L33.8485 51.7455L34.0681 51.6474C34.1888 51.5934 34.5446 51.4527 34.8586 51.3347C36.8136 50.5999 39.679 49.9539 42.8227 49.5391C47.5064 48.9212 52.3984 48.9205 55.091 49.5374C55.5772 49.6488 55.8451 49.7335 56.3291 49.9289C56.7802 50.111 56.8681 50.1178 57.0067 49.9812C57.0787 49.9103 57.0851 49.8817 57.11 49.521C57.1246 49.3095 57.1441 47.7687 57.1533 46.097C57.1625 44.4253 57.177 42.3178 57.1855 41.4136C57.2006 39.8124 57.2409 34.1348 57.2719 29.2559C57.2803 27.9262 57.2937 26.2974 57.3016 25.6363C57.3095 24.9752 57.3228 22.9423 57.3312 21.1186C57.3396 19.295 57.3525 17.6537 57.3599 17.4713C57.3674 17.289 57.377 16.1319 57.3813 14.9001C57.3886 12.7842 57.3861 12.6563 57.3364 12.5847C57.3075 12.5431 57.2417 12.4838 57.1902 12.4531C57.1049 12.4021 57.0658 12.3987 56.7453 12.4145C55.9357 12.4543 55.0231 12.6005 54.4175 12.7873C54.0098 12.9131 53.4976 13.1262 53.2665 13.2664C52.9943 13.4315 52.9453 13.6324 53.1338 13.8103C53.2575 13.927 53.4014 13.9228 53.6632 13.795C53.989 13.6359 54.6222 13.4293 55.0091 13.356C55.3492 13.2916 56.0261 13.1989 56.4305 13.1613L56.6135 13.1444V13.8296C56.6135 14.2065 56.5937 17.1508 56.5695 20.3726C56.5128 27.9101 56.3816 45.9948 56.3735 47.3956C56.3701 47.9883 56.3626 48.6241 56.357 48.8085L56.3467 49.1437L56.1946 49.0891C55.7268 48.9212 54.7432 48.707 53.9491 48.6C52.6187 48.4208 51.4098 48.3494 49.7035 48.3494C43.7865 48.3494 36.9101 49.5214 33.4678 51.1164L33.175 51.2521L33.38 51.0705C35.9669 48.7791 39.9256 47.1281 44.2721 46.5279C45.4982 46.3586 46.6596 46.292 48.0345 46.3122C49.3173 46.331 50.2286 46.4088 51.3253 46.5931C51.5364 46.6286 51.8212 46.6664 51.958 46.6771C52.2001 46.6959 52.2092 46.6944 52.291 46.6229C52.3624 46.5604 52.3725 46.5347 52.3581 46.4511C52.3488 46.397 52.353 46.2579 52.3673 46.142C52.3817 46.0261 52.401 44.4205 52.4101 42.5741C52.4193 40.7276 52.4333 38.7195 52.4412 38.1117C52.4491 37.5038 52.4623 35.5081 52.4705 33.6769C52.4787 31.8456 52.4919 29.8376 52.5 29.2145C52.5312 26.7831 52.6115 11.8859 52.5937 11.8196C52.5782 11.7617 52.5399 11.739 52.3762 11.6901C51.9014 11.5483 51.2733 11.504 50.0402 11.5255C49.0607 11.5425 48.3432 11.5952 47.3172 11.7254C41.8354 12.4212 35.6603 14.6084 33.014 16.7916C32.6784 17.0684 32.4338 17.3128 32.2021 17.6026C32.0958 17.7356 32.0011 17.8442 31.9917 17.8441C31.9822 17.844 31.9248 17.7711 31.8641 17.6821C31.7335 17.4908 31.3834 17.1242 31.0961 16.8781C28.857 14.9596 23.8156 12.9795 18.7547 12.0309C17.5398 11.8032 16.518 11.6604 15.3582 11.5564C14.7949 11.5059 12.8842 11.4805 12.4595 11.5178ZM14.4359 12.2352C18.1601 12.4165 22.7451 13.5032 26.5285 15.1011C27.0485 15.3208 28.0671 15.8122 28.5781 16.0899C30.1075 16.9212 31.1012 17.7392 31.4362 18.4427C31.4858 18.5467 31.5568 18.6629 31.5941 18.7009L31.6619 18.77L31.6218 32.3092C31.5997 39.7557 31.5811 47.0025 31.5804 48.4132L31.5793 50.9781L31.1467 50.5961C30.6223 50.133 30.3122 49.8863 29.7929 49.5191C26.6383 47.2886 22.2474 45.8595 17.7086 45.586C17.0999 45.5494 15.4138 45.549 14.8452 45.5855C14.2166 45.6258 13.3687 45.7167 12.8217 45.8024L12.3493 45.8763L12.3313 44.0249C12.3213 43.0066 12.2993 39.0463 12.2822 35.2242C12.2652 31.4022 12.2332 24.6816 12.2111 20.2897C12.1891 15.8978 12.1805 12.2952 12.192 12.2839C12.2528 12.2246 13.6117 12.1951 14.4359 12.2352ZM51.2407 12.2648C51.5467 12.281 51.8067 12.3032 51.8186 12.3142C51.8415 12.3353 51.6449 44.7082 51.6173 45.4618L51.6011 45.9042L51.1281 45.8301C49.3313 45.549 47.2702 45.4979 45.253 45.6845C42.0888 45.9773 38.7652 46.9287 36.2201 48.2702C34.8026 49.0174 33.8184 49.6915 32.725 50.664L32.3336 51.0122L32.3523 46.6342C32.3626 44.2264 32.385 36.9594 32.4019 30.4855L32.4329 18.7147L32.5054 18.5628C32.6955 18.1648 32.8937 17.9071 33.2824 17.5521C35.823 15.2329 42.818 12.8364 48.5198 12.332C49.5586 12.2401 50.3865 12.2197 51.2407 12.2648Z" fill="#EC6A2D"/>
<path fill-rule="evenodd" clip-rule="evenodd" d="M12.4595 11.5178C12.0916 11.5502 11.8578 11.5892 11.626 11.6567C11.4698 11.7023 11.4319 11.7249 11.4168 11.7819C11.3999 11.8452 11.4414 22.7225 11.4784 27.9435C11.4868 29.1288 11.507 33.3875 11.5232 37.4071C11.5604 46.6203 11.5582 46.497 11.6859 46.6102C11.7541 46.6706 11.7605 46.6711 12.0708 46.6374C12.2443 46.6186 12.5708 46.5735 12.7962 46.5371C13.9618 46.3492 14.7876 46.2906 16.2659 46.2908C17.5234 46.291 17.8716 46.3075 18.9157 46.4164C21.5547 46.6917 24.2165 47.4137 26.4992 48.4733C28.0976 49.2153 29.406 50.0513 30.5838 51.0829L30.7741 51.2497L30.3202 51.0451C25.8581 49.0336 16.2625 47.8168 10.3807 48.5167C9.44836 48.6276 8.42748 48.8303 7.87562 49.0142C7.73633 49.0606 7.61503 49.0916 7.60607 49.0831C7.59307 49.0709 7.40046 16.8972 7.39543 13.9L7.39411 13.1195H7.4951C7.76553 13.1195 8.88317 13.2845 9.28266 13.3834C9.61554 13.4658 10.1698 13.6648 10.383 13.7784C10.5615 13.8735 10.6901 13.8874 10.8174 13.8253C10.9026 13.7837 10.9955 13.6352 10.9955 13.5408C10.9955 13.4448 10.8656 13.3014 10.6869 13.2003C10.4854 13.0863 9.83927 12.8204 9.56082 12.737C8.95315 12.555 8.06682 12.417 7.28865 12.3831L6.87574 12.3652L6.76161 12.4639L6.64747 12.5626V15.2933C6.64747 18.8367 6.68856 28.1505 6.70609 28.579C6.71356 28.7613 6.72662 31.0989 6.73511 33.7736C6.74363 36.4483 6.75689 38.8853 6.76462 39.1893C6.77235 39.4932 6.78629 41.8556 6.79563 44.4391C6.80494 47.0226 6.82444 49.3043 6.83891 49.5094C6.86485 49.8769 6.86658 49.8836 6.95445 49.9584C7.09042 50.0742 7.22379 50.0619 7.59667 49.8992C9.85461 48.9137 15.4869 48.7645 21.2288 49.538C24.582 49.9898 27.4128 50.6585 29.5303 51.4991C30.1683 51.7524 30.1615 51.7453 29.7639 51.7456C29.0654 51.7463 2.93989 51.2007 2.9234 51.1851C2.907 51.1696 2.77179 22.4934 2.76915 18.473L2.7679 16.5733H4.20378C5.58265 16.5733 5.64423 16.5711 5.75462 16.518C5.89791 16.449 5.93012 16.3933 5.93012 16.2146C5.93012 16.0973 5.91697 16.0618 5.85261 16.0055C5.70027 15.8723 5.64736 15.8687 3.89517 15.87C2.99335 15.8706 2.21963 15.8801 2.17583 15.891C2.08957 15.9125 2.03915 15.9813 2.00498 16.1243C1.98618 16.2029 2.02284 27.129 2.07742 37.7248C2.08673 39.5333 2.10222 43.3505 2.11185 46.2075C2.12172 49.1335 2.1409 51.4455 2.15574 51.5015C2.17026 51.5561 2.22144 51.6521 2.26946 51.7146C2.43917 51.9357 2.02925 51.91 7.02685 52.0128C9.49143 52.0635 15.7901 52.194 21.0239 52.3029C27.2865 52.4332 31.0554 52.5005 32.0477 52.5C32.9181 52.4995 38.4953 52.4047 45.2383 52.2757C51.6638 52.1529 57.9158 52.0333 59.1316 52.0101C61.6224 51.9625 61.5145 51.9732 61.6785 51.7579C61.7605 51.65 61.7779 51.5983 61.797 51.4063C61.8094 51.2824 61.8274 49.4403 61.8371 47.3128C61.8468 45.1852 61.8626 42.3565 61.8722 41.0267C61.9481 30.4663 62.0186 16.2465 61.9956 16.1496C61.9615 16.0065 61.9059 15.9475 61.7868 15.928C61.6361 15.9034 58.6331 15.8986 58.4728 15.9228C58.3063 15.9479 58.2373 15.976 58.1434 16.0566C58.0479 16.1387 58.0481 16.3995 58.1438 16.4843C58.3049 16.6271 58.3223 16.6286 59.8382 16.6286H61.2494L61.2302 19.6887C61.2197 21.3718 61.1781 28.4622 61.1378 35.4453C61.0974 42.4283 61.0562 48.8393 61.0462 49.692L61.0279 51.2423L60.1895 51.2609C59.7285 51.2712 56.0704 51.3413 52.0605 51.4166C39.4329 51.654 37.4554 51.6915 36.0737 51.7198C35.3329 51.735 34.5292 51.7469 34.2877 51.7464L33.8485 51.7455L34.0681 51.6474C34.1888 51.5934 34.5446 51.4527 34.8586 51.3347C36.8136 50.5999 39.679 49.9539 42.8227 49.5391C47.5064 48.9212 52.3984 48.9205 55.091 49.5374C55.5772 49.6488 55.8451 49.7335 56.3291 49.9289C56.7802 50.111 56.8681 50.1178 57.0067 49.9812C57.0787 49.9103 57.0851 49.8817 57.11 49.521C57.1246 49.3095 57.1441 47.7687 57.1533 46.097C57.1625 44.4253 57.177 42.3178 57.1855 41.4136C57.2006 39.8124 57.2409 34.1348 57.2719 29.2559C57.2803 27.9262 57.2937 26.2974 57.3016 25.6363C57.3095 24.9752 57.3228 22.9423 57.3312 21.1186C57.3396 19.295 57.3525 17.6537 57.3599 17.4713C57.3674 17.289 57.377 16.1319 57.3813 14.9001C57.3886 12.7842 57.3861 12.6563 57.3364 12.5847C57.3075 12.5431 57.2417 12.4838 57.1902 12.4531C57.1049 12.4021 57.0658 12.3987 56.7453 12.4145C55.9357 12.4543 55.0231 12.6005 54.4175 12.7873C54.0098 12.9131 53.4976 13.1262 53.2665 13.2664C52.9943 13.4315 52.9453 13.6324 53.1338 13.8103C53.2575 13.927 53.4014 13.9228 53.6632 13.795C53.989 13.6359 54.6222 13.4293 55.0091 13.356C55.3492 13.2916 56.0261 13.1989 56.4305 13.1613L56.6135 13.1444V13.8296C56.6135 14.2065 56.5937 17.1508 56.5695 20.3726C56.5128 27.9101 56.3816 45.9948 56.3735 47.3956C56.3701 47.9883 56.3626 48.6241 56.357 48.8085L56.3467 49.1437L56.1946 49.0891C55.7268 48.9212 54.7432 48.707 53.9491 48.6C52.6187 48.4208 51.4098 48.3494 49.7035 48.3494C43.7865 48.3494 36.9101 49.5214 33.4678 51.1164L33.175 51.2521L33.38 51.0705C35.9669 48.7791 39.9256 47.1281 44.2721 46.5279C45.4982 46.3586 46.6596 46.292 48.0345 46.3122C49.3173 46.331 50.2286 46.4088 51.3253 46.5931C51.5364 46.6286 51.8212 46.6664 51.958 46.6771C52.2001 46.6959 52.2092 46.6944 52.291 46.6229C52.3624 46.5604 52.3725 46.5347 52.3581 46.4511C52.3488 46.397 52.353 46.2579 52.3673 46.142C52.3817 46.0261 52.401 44.4205 52.4101 42.5741C52.4193 40.7276 52.4333 38.7195 52.4412 38.1117C52.4491 37.5038 52.4623 35.5081 52.4705 33.6769C52.4787 31.8456 52.4919 29.8376 52.5 29.2145C52.5312 26.7831 52.6115 11.8859 52.5937 11.8196C52.5782 11.7617 52.5399 11.739 52.3762 11.6901C51.9014 11.5483 51.2733 11.504 50.0402 11.5255C49.0607 11.5425 48.3432 11.5952 47.3172 11.7254C41.8354 12.4212 35.6603 14.6084 33.014 16.7916C32.6784 17.0684 32.4338 17.3128 32.2021 17.6026C32.0958 17.7356 32.0011 17.8442 31.9917 17.8441C31.9822 17.844 31.9248 17.7711 31.8641 17.6821C31.7335 17.4908 31.3834 17.1242 31.0961 16.8781C28.857 14.9596 23.8156 12.9795 18.7547 12.0309C17.5398 11.8032 16.518 11.6604 15.3582 11.5564C14.7949 11.5059 12.8842 11.4805 12.4595 11.5178ZM14.4359 12.2352C18.1601 12.4165 22.7451 13.5032 26.5285 15.1011C27.0485 15.3208 28.0671 15.8122 28.5781 16.0899C30.1075 16.9212 31.1012 17.7392 31.4362 18.4427C31.4858 18.5467 31.5568 18.6629 31.5941 18.7009L31.6619 18.77L31.6218 32.3092C31.5997 39.7557 31.5811 47.0025 31.5804 48.4132L31.5793 50.9781L31.1467 50.5961C30.6223 50.133 30.3122 49.8863 29.7929 49.5191C26.6383 47.2886 22.2474 45.8595 17.7086 45.586C17.0999 45.5494 15.4138 45.549 14.8452 45.5855C14.2166 45.6258 13.3687 45.7167 12.8217 45.8024L12.3493 45.8763L12.3313 44.0249C12.3213 43.0066 12.2993 39.0463 12.2822 35.2242C12.2652 31.4022 12.2332 24.6816 12.2111 20.2897C12.1891 15.8978 12.1805 12.2952 12.192 12.2839C12.2528 12.2246 13.6117 12.1951 14.4359 12.2352ZM51.2407 12.2648C51.5467 12.281 51.8067 12.3032 51.8186 12.3142C51.8415 12.3353 51.6449 44.7082 51.6173 45.4618L51.6011 45.9042L51.1281 45.8301C49.3313 45.549 47.2702 45.4979 45.253 45.6845C42.0888 45.9773 38.7652 46.9287 36.2201 48.2702C34.8026 49.0174 33.8184 49.6915 32.725 50.664L32.3336 51.0122L32.3523 46.6342C32.3626 44.2264 32.385 36.9594 32.4019 30.4855L32.4329 18.7147L32.5054 18.5628C32.6955 18.1648 32.8937 17.9071 33.2824 17.5521C35.823 15.2329 42.818 12.8364 48.5198 12.332C49.5586 12.2401 50.3865 12.2197 51.2407 12.2648Z" stroke="#EC6A2D" stroke-width="0.2" mask="url(#path-1-outside-1_1424_31864)"/>
</svg>
