<svg width="66" height="64" viewBox="0 0 66 64" fill="none" xmlns="http://www.w3.org/2000/svg">
<mask id="path-1-outside-1_1424_31846" maskUnits="userSpaceOnUse" x="0" y="9.5" width="66" height="45" fill="black">
<rect fill="white" y="9.5" width="66" height="45"/>
<path fill-rule="evenodd" clip-rule="evenodd" d="M32.7209 10.5354C32.6708 10.5526 32.62 10.5904 32.608 10.6196C32.5761 10.6974 32.541 14.0252 32.5695 14.2715C32.591 14.457 32.6052 14.4877 32.6911 14.5351C32.8221 14.6075 33.1779 14.6075 33.3089 14.5351C33.3948 14.4877 33.409 14.457 33.4305 14.2715C33.4589 14.0261 33.424 10.6975 33.3922 10.62C33.3477 10.5119 32.9399 10.4605 32.7209 10.5354ZM21.0989 13.5434C20.903 13.6668 20.8403 13.8829 20.9454 14.0728C20.9865 14.1471 21.6642 14.7731 23.4275 16.3659C23.6796 16.5936 23.7817 16.6649 23.8803 16.6822C24.0577 16.7133 24.1712 16.6793 24.3041 16.555C24.3959 16.4693 24.4183 16.423 24.4183 16.3194C24.4183 16.2485 24.4043 16.156 24.3872 16.1139C24.3435 16.0065 21.6562 13.569 21.5219 13.5149C21.3637 13.4512 21.2312 13.4601 21.0989 13.5434ZM44.4707 13.5162C44.3393 13.5714 41.6543 16.012 41.6128 16.1139C41.5957 16.156 41.5817 16.2485 41.5817 16.3194C41.5817 16.423 41.6041 16.4693 41.6959 16.555C41.8288 16.6793 41.9423 16.7133 42.1197 16.6822C42.2183 16.6649 42.3204 16.5936 42.5725 16.3659C44.3359 14.7731 45.0135 14.1471 45.0546 14.0728C45.1597 13.8829 45.097 13.6668 44.9011 13.5434C44.7711 13.4616 44.6229 13.4522 44.4707 13.5162ZM32.2307 16.3004C32.1743 16.3076 31.9358 16.3293 31.7008 16.3486C30.6303 16.4366 29.487 16.6962 28.2647 17.1287C28.1331 17.1753 27.776 17.3261 27.4713 17.4637C25.9977 18.1294 24.7572 18.9879 23.6728 20.0927C20.2592 23.5699 19.3955 28.5716 21.4629 32.8897C22.5817 35.2263 24.5233 37.1823 26.9243 38.3915L27.2732 38.5673L27.4001 38.8069C27.6071 39.1976 27.8457 39.7854 28.0244 40.3448C28.2458 41.0378 28.3561 41.5772 28.4708 42.5285L28.4938 42.7196L28.3183 42.5662C28.0478 42.3297 27.8151 42.2415 27.4612 42.2415C27.2575 42.2415 27.1196 42.2598 26.9997 42.3026C26.4102 42.5133 25.8077 43.1101 25.319 43.9674L25.1554 44.2544L25.1146 43.931C24.958 42.6908 24.5447 41.8061 23.899 41.3292C23.1705 40.7911 22.2248 40.8224 21.262 41.4165C20.9404 41.615 20.3031 42.1969 19.9993 42.5694C19.8666 42.7322 19.7545 42.8616 19.7501 42.857C19.7458 42.8523 19.7104 42.7336 19.6716 42.593C19.4997 41.9709 19.2279 41.3647 18.9486 40.9803C18.6272 40.538 18.1731 40.2291 17.7243 40.1472C16.5914 39.9407 15.4359 41.0101 14.6457 42.9963C14.5505 43.2357 14.4624 43.4694 14.45 43.5155C14.4182 43.634 14.3782 43.6196 14.3502 43.4796C14.2926 43.1915 14.0826 42.5165 13.9381 42.1551C13.433 40.8915 12.8105 40.0995 12.0364 39.7355C11.5712 39.5167 11.1218 39.4947 10.6362 39.6667C9.60197 40.0331 8.76969 41.4061 8.41685 43.3278C8.37489 43.5563 8.33469 43.7626 8.32747 43.7864C8.32029 43.8101 8.24966 43.7383 8.17051 43.6266C7.99077 43.373 7.50637 42.9177 7.24701 42.7585C6.6148 42.3704 5.78553 42.1564 5.48213 42.303C5.25483 42.4129 5.24857 42.7499 5.47153 42.8719C5.52165 42.8993 5.6742 42.9377 5.81059 42.9573C6.8477 43.1063 7.68241 43.8831 7.9944 44.9895C8.07146 45.2628 8.08455 45.3754 8.08527 45.772C8.08599 46.1777 8.07457 46.275 7.9933 46.5548C7.74187 47.4204 7.15387 48.0598 6.37817 48.3112C6.16062 48.3816 6.02858 48.4012 5.68231 48.4144C5.30129 48.4288 5.23503 48.4232 5.07154 48.3623C4.3091 48.0787 3.20111 46.9374 2.47923 45.6921C2.11668 45.0667 1.88535 44.5051 1.79912 44.0408L1.7476 43.7633L1.92419 43.4018C3.54923 40.0752 5.83018 37.2925 8.18784 35.7602C11.1584 33.8295 14.3273 33.6 17.2725 35.102C17.5556 35.2464 17.6795 35.2924 17.7852 35.2924C18.0382 35.2924 18.1926 35.1216 18.1467 34.8926C18.1173 34.7464 17.9827 34.6548 17.3776 34.3689C16.0247 33.7297 14.7457 33.4334 13.3408 33.4337C11.9308 33.4341 10.6694 33.7168 9.32353 34.3341C8.00253 34.9399 6.98607 35.6366 5.78334 36.7606C4.8705 37.6137 4.07019 38.5351 3.29845 39.6216C2.61476 40.5841 2.23436 41.2062 1.56937 42.4492C1.32023 42.9149 1.08791 43.3356 1.05307 43.3842C0.997748 43.4614 0.99197 43.518 1.00739 43.8315C1.0343 44.3783 1.22344 44.947 1.63341 45.7142C2.42121 47.1883 3.63437 48.4869 4.6523 48.9456C4.9157 49.0643 4.97037 49.0767 5.3361 49.1007C5.90191 49.138 6.34217 49.077 6.81296 48.8963C7.32769 48.6988 7.92106 48.241 8.22555 47.8066C8.29721 47.7044 8.36064 47.6253 8.36645 47.6309C8.3723 47.6365 8.41777 47.8407 8.46755 48.0846C8.70018 49.2253 9.06331 50.1819 9.54959 50.9353C10.0422 51.6986 10.6213 52.1615 11.2707 52.3113C11.5765 52.3818 11.987 52.3365 12.3493 52.1924C12.5832 52.0994 12.6459 52.0891 13.0609 52.0745C13.542 52.0577 13.7756 52.0844 14.1614 52.2C14.5451 52.3151 14.7111 52.4098 15.2384 52.8143C15.3512 52.9009 15.5435 53.016 15.6657 53.07C15.8755 53.1629 15.911 53.1684 16.2983 53.1684H16.7085L16.9991 53.0339C17.1658 52.9568 17.4019 52.8096 17.5526 52.6888C17.9351 52.3822 18.1691 52.3722 18.3464 52.6549C18.4771 52.8633 18.8743 53.1935 19.1487 53.3217C19.4715 53.4726 19.7114 53.5159 20.1104 53.4951C20.6241 53.4683 20.9497 53.3456 21.6266 52.9235C22.3587 52.4671 22.631 52.3742 23.2388 52.3735C23.84 52.3728 24.1518 52.4891 24.6447 52.8978C25.003 53.1949 25.2139 53.2897 25.553 53.3061C25.8572 53.3208 26.1449 53.2471 26.4222 53.0835C27.6586 52.3542 28.7928 49.9036 29.1556 47.1778C29.2357 46.5755 29.2571 45.242 29.1945 44.7496C29.1659 44.5246 29.1562 44.3283 29.1722 44.3001C29.2388 44.1829 29.2816 43.5332 29.2614 42.9444C29.2206 41.7498 28.9528 40.5099 28.4909 39.3761C28.417 39.1948 28.3615 39.0418 28.3674 39.036C28.3734 39.0303 28.5451 39.0825 28.7489 39.152C30.564 39.7716 32.6791 39.9716 34.6924 39.7141C35.5156 39.6088 36.5173 39.3713 37.3344 39.0877C37.49 39.0337 37.625 38.9967 37.6345 39.0056C37.6439 39.0144 37.5832 39.1925 37.4996 39.4015C37.0345 40.5637 36.7794 41.7513 36.7386 42.9444C36.7184 43.5332 36.7612 44.1829 36.8278 44.3001C36.8438 44.3283 36.8342 44.5247 36.8056 44.7496C36.7431 45.2422 36.7628 46.5402 36.8422 47.1618C37.0797 49.0224 37.7491 50.9383 38.5557 52.0661C39.1857 52.9471 39.7823 53.3382 40.447 53.3061C40.7861 53.2897 40.997 53.1949 41.3553 52.8978C41.8482 52.4891 42.16 52.3728 42.7612 52.3735C43.369 52.3742 43.6413 52.4671 44.3734 52.9235C45.0503 53.3456 45.3759 53.4683 45.8896 53.4951C46.2886 53.5159 46.5286 53.4726 46.8513 53.3217C47.1257 53.1935 47.5229 52.8633 47.6536 52.6549C47.8309 52.3722 48.0649 52.3822 48.4474 52.6888C48.5981 52.8096 48.8342 52.9568 49.0009 53.0339L49.2915 53.1684H49.7017C50.089 53.1684 50.1245 53.1629 50.3343 53.07C50.4565 53.016 50.6488 52.9009 50.7616 52.8143C51.2889 52.4098 51.4549 52.3151 51.8386 52.2C52.2244 52.0844 52.458 52.0577 52.9391 52.0745C53.3541 52.0891 53.4169 52.0994 53.6507 52.1924C54.013 52.3365 54.4235 52.3818 54.7293 52.3113C55.3787 52.1615 55.9578 51.6986 56.4504 50.9353C56.9367 50.1819 57.2998 49.2253 57.5325 48.0846C57.5822 47.8407 57.6277 47.6365 57.6336 47.6309C57.6394 47.6253 57.7028 47.7044 57.7745 47.8066C58.0789 48.241 58.6723 48.6988 59.187 48.8963C59.6578 49.077 60.0981 49.138 60.6639 49.1007C61.0296 49.0767 61.0843 49.0643 61.3477 48.9456C62.3656 48.4869 63.5788 47.1883 64.3666 45.7142C64.7766 44.947 64.9657 44.3783 64.9926 43.8315C65.008 43.518 65.0023 43.4614 64.9469 43.3842C64.9121 43.3356 64.6798 42.9149 64.4306 42.4492C63.7656 41.2062 63.3853 40.5841 62.7016 39.6216C61.9298 38.5351 61.1295 37.6137 60.2167 36.7606C59.0139 35.6366 57.9975 34.9399 56.6765 34.3341C55.3306 33.7168 54.0692 33.4341 52.6592 33.4337C51.2543 33.4334 49.9753 33.7297 48.6224 34.3689C48.0173 34.6548 47.8827 34.7464 47.8533 34.8926C47.8074 35.1216 47.9618 35.2924 48.2148 35.2924C48.3205 35.2924 48.4444 35.2464 48.7275 35.102C50.9927 33.9468 53.4226 33.811 55.7704 34.7086C58.0123 35.5656 60.1369 37.3395 61.9724 39.8869C62.7673 40.9902 63.4773 42.1766 64.0758 43.4018L64.2524 43.7633L64.2009 44.0408C63.9198 45.5539 62.1324 47.9144 60.9285 48.3623C60.765 48.4232 60.6987 48.4288 60.3177 48.4144C59.9714 48.4012 59.8394 48.3816 59.6218 48.3112C58.8461 48.0598 58.2581 47.4204 58.0067 46.5548C57.9254 46.275 57.914 46.1777 57.9147 45.772C57.9155 45.3754 57.9285 45.2628 58.0056 44.9895C58.3176 43.8831 59.1523 43.1063 60.1894 42.9573C60.4695 42.9171 60.6026 42.8569 60.6567 42.7459C60.7383 42.5785 60.6669 42.3639 60.5067 42.2957C60.1922 42.1618 59.3728 42.378 58.753 42.7585C58.4936 42.9177 58.0092 43.373 57.8295 43.6266C57.7504 43.7383 57.6797 43.8101 57.6725 43.7864C57.6653 43.7626 57.6251 43.5563 57.5832 43.3278C57.2303 41.4061 56.398 40.0331 55.3638 39.6667C54.8782 39.4947 54.4288 39.5167 53.9636 39.7355C53.1895 40.0995 52.567 40.8915 52.0619 42.1551C51.9174 42.5165 51.7074 43.1915 51.6498 43.4796C51.6218 43.6196 51.5818 43.634 51.55 43.5155C51.5376 43.4694 51.4495 43.2357 51.3543 42.9963C51.0404 42.2072 50.6074 41.4597 50.2078 41.0168C49.4328 40.1581 48.6189 39.9133 47.827 40.3008C47.1786 40.618 46.6512 41.4248 46.3284 42.593C46.2896 42.7336 46.2542 42.8523 46.2499 42.857C46.2455 42.8616 46.1334 42.7322 46.0007 42.5694C45.6969 42.1969 45.0596 41.615 44.738 41.4165C43.7752 40.8224 42.8295 40.7911 42.101 41.3292C41.4553 41.8061 41.042 42.6908 40.8854 43.931L40.8446 44.2544L40.681 43.9674C40.1924 43.1101 39.5898 42.5133 39.0003 42.3026C38.8805 42.2598 38.7425 42.2415 38.5388 42.2415C38.1849 42.2415 37.9522 42.3297 37.6817 42.5662L37.5062 42.7196L37.5292 42.5285C37.6084 41.8722 37.6657 41.521 37.7554 41.1436C37.9561 40.2988 38.2801 39.4079 38.6167 38.7755L38.761 38.5044L39.1713 38.287C41.3479 37.1336 43.0818 35.4242 44.2101 33.3192C44.8947 32.042 45.2802 30.8141 45.4863 29.2538C45.5451 28.8083 45.5448 27.2992 45.4857 26.8576C45.3233 25.6429 44.9932 24.4143 44.6205 23.6382C44.5663 23.5253 44.5221 23.4092 44.5222 23.3801C44.5223 23.351 44.9185 22.9312 45.4026 22.4472C46.6226 21.2275 46.6608 21.1784 46.5753 20.9364C46.53 20.8081 45.9378 20.2676 43.9507 18.5411C43.5322 18.1775 43.4365 18.214 42.5922 19.0593C42.2548 19.3971 41.9625 19.6935 41.9426 19.7181C41.9136 19.7539 41.832 19.699 41.5304 19.4411C39.4946 17.7002 37.0565 16.6515 34.3676 16.3601C33.9337 16.313 32.4555 16.2718 32.2307 16.3004ZM34.4335 17.1259C36.1013 17.3354 37.6207 17.8275 39.009 18.6081C39.7483 19.0237 40.4926 19.5513 41.0449 20.0514L41.3458 20.3238L40.2954 21.3941C39.7176 21.9828 38.9127 22.8023 38.5067 23.2153C38.1006 23.6283 36.9919 24.7569 36.0429 25.7234C33.2587 28.559 33.0607 28.7586 33.0326 28.7586C33.0079 28.7586 32.501 28.1867 29.9466 25.2761C28.3019 23.402 28.4027 23.4925 28.0433 23.567C27.7376 23.6304 27.9378 23.4916 25.5003 25.3304C24.8984 25.7844 24.8545 25.827 24.7938 26.0164C24.7331 26.2057 24.7739 26.3473 24.9406 26.5259C25.3935 27.0111 32.3887 34.3142 32.5343 34.454C32.7455 34.6566 32.9025 34.7132 33.0999 34.6579C33.2132 34.6262 33.4145 34.4397 34.3906 33.4627C35.0267 32.826 36.0935 31.7588 36.7613 31.091C37.4291 30.4232 38.7443 29.1077 39.6841 28.1675C43.3926 24.4576 43.8556 23.9981 43.8843 23.9981C43.9539 23.9981 44.3563 25.1898 44.4867 25.7823C44.6995 26.749 44.785 28.079 44.6938 29.0055C44.3224 32.7767 42.0094 36.0313 38.4362 37.8105C37.1299 38.4609 35.5305 38.8982 33.9744 39.0305C33.4911 39.0716 32.4064 39.0716 31.923 39.0305C30.1796 38.8823 28.5389 38.4013 27.0642 37.606C26.1645 37.1207 25.4405 36.5984 24.6548 35.8676C24.0341 35.2902 23.6307 34.844 23.2184 34.2788C22.1187 32.7712 21.4209 31.0008 21.2226 29.2148C21.1548 28.6043 21.155 27.5036 21.223 26.898C21.7005 22.6493 24.7656 19.0523 29.1129 17.639C30.0319 17.3402 30.8206 17.1876 32.0598 17.0688C32.3756 17.0385 34.06 17.079 34.4335 17.1259ZM44.7064 20.3558C45.1471 20.7424 45.509 21.0678 45.5106 21.0789C45.5122 21.09 45.1555 21.4567 44.718 21.8936C44.2805 22.3306 43.6998 22.9126 43.4274 23.187C43.155 23.4614 42.3935 24.2234 41.735 24.8803C41.0766 25.5373 39.884 26.729 39.0847 27.5285C38.2854 28.3281 37.0702 29.5435 36.3841 30.2295C35.6981 30.9156 34.6528 31.9617 34.0611 32.5543C33.4694 33.1469 32.9741 33.628 32.9605 33.6234C32.8966 33.6019 25.8191 26.1753 25.8436 26.1554C25.9184 26.0947 27.6358 24.8067 27.842 24.6566C27.9721 24.5619 28.0833 24.49 28.089 24.4968C28.0947 24.5037 28.4223 24.8759 28.8168 25.324C29.2114 25.7721 29.894 26.5485 30.3337 27.0493C30.7735 27.5501 31.4753 28.3494 31.8934 28.8254C32.3115 29.3015 32.6964 29.7172 32.7488 29.7493C32.8806 29.83 33.094 29.8236 33.2651 29.7337C33.3516 29.6882 33.7395 29.32 34.2714 28.7783C34.7474 28.2935 35.7514 27.2713 36.5025 26.5066C41.2389 21.6848 41.4272 21.4926 42.0432 20.849C42.2689 20.6133 42.5164 20.3627 42.5933 20.2922C42.6702 20.2217 42.9141 19.9805 43.1353 19.7562L43.5376 19.3482L43.7214 19.5006C43.8225 19.5843 44.2658 19.9692 44.7064 20.3558ZM12.7959 24.0085C12.6696 24.0718 12.5545 24.2395 12.5545 24.3602C12.5545 24.4828 12.6563 24.6474 12.7743 24.7156C12.8593 24.7647 13.3778 24.8527 15.0529 25.1023C17.5182 25.4697 17.6525 25.4839 17.8053 25.3937C17.9453 25.3111 18.0378 25.1267 18.0096 24.9863C17.9833 24.8554 17.8546 24.706 17.7264 24.6574C17.6243 24.6188 13.1621 23.9501 13.0063 23.9501C12.9546 23.9501 12.86 23.9764 12.7959 24.0085ZM50.6109 24.2867C49.3997 24.4682 48.3703 24.6257 48.3233 24.6368C48.1941 24.6671 48.018 24.8493 47.9918 24.9797C47.9622 25.1271 48.0514 25.3091 48.1947 25.3937C48.3475 25.4839 48.4818 25.4697 50.9471 25.1023C53.2851 24.7539 53.2838 24.7542 53.3906 24.5439C53.4619 24.4035 53.46 24.3098 53.3831 24.1758C53.3048 24.0394 53.1291 23.9492 52.9503 23.9534C52.8748 23.9553 51.8221 24.1052 50.6109 24.2867ZM11.5396 40.2892C11.8814 40.3853 12.3043 40.7539 12.641 41.2491C13.5274 42.553 14.0369 45.0373 13.8711 47.2473C13.8417 47.6387 13.8012 48.06 13.7811 48.1835C13.7274 48.5124 13.4984 49.3864 13.3794 49.7169C13.3226 49.8745 13.2814 50.0084 13.2879 50.0144C13.3049 50.0303 14.6746 50.0958 14.6886 50.0814C14.6951 50.0747 14.6798 49.9471 14.6546 49.7977C14.515 48.9711 14.4999 48.2849 14.5886 46.7944C14.6711 45.4085 15.0447 43.891 15.5876 42.7367C15.9169 42.0366 16.2468 41.5564 16.6358 41.2112C17.3024 40.6194 17.8353 40.6883 18.3552 41.4333C19.0348 42.4069 19.3512 44.3721 19.1702 46.4963C19.0647 47.7358 18.8386 48.7977 18.4515 49.8721C18.3639 50.1151 18.2998 50.3209 18.3089 50.3294C18.3181 50.338 18.4935 50.3532 18.6988 50.3633L19.0721 50.3817L19.1442 50.1936C19.7676 48.5669 20.09 46.3891 19.9745 44.5852C19.9337 43.9492 19.9346 43.9222 19.9988 43.8343C20.0353 43.7842 20.1394 43.6353 20.2299 43.5035C20.9429 42.4655 21.798 41.7723 22.5187 41.6481C23.3618 41.5027 24.0237 42.2325 24.2897 43.601C24.3579 43.9522 24.3669 44.1017 24.3662 44.8774C24.3657 45.6259 24.3539 45.8294 24.2872 46.2512C24.0896 47.4989 23.704 48.72 23.1704 49.787C23.0855 49.9566 23.0201 50.0984 23.0249 50.1019C23.0297 50.1054 23.3875 50.1172 23.82 50.1281L24.6064 50.1479L24.6145 49.6134C24.6247 48.948 24.6694 48.4968 24.7943 47.8008C25.149 45.8241 25.8991 44.1055 26.7639 43.288C27.3343 42.7488 27.7423 42.8062 28.0733 43.4724C28.3401 44.0095 28.4618 44.709 28.4622 45.7081C28.4628 47.142 28.1923 48.6037 27.667 50.0054C27.1985 51.2554 26.4879 52.2799 25.9026 52.5492C25.6134 52.6822 25.5117 52.6638 25.2298 52.4277C24.8892 52.1424 24.7057 52.0461 24.2132 51.8937C23.5627 51.6925 23.2241 51.6589 22.7065 51.7444C22.0038 51.8604 21.7773 51.9499 21.1927 52.3423C20.7927 52.6108 20.5369 52.7307 20.2412 52.7883C19.9135 52.8522 19.6333 52.8054 19.3666 52.6423C19.135 52.5006 19.0407 52.4093 18.8385 52.1312C18.6276 51.8411 18.4699 51.7683 18.0484 51.767C17.6103 51.7655 17.5081 51.8016 17.1516 52.0839C16.7464 52.4048 16.5627 52.4934 16.2983 52.4957C16.0502 52.4979 15.9209 52.445 15.5461 52.1885C14.867 51.7238 14.5588 51.5725 14.0549 51.4565C13.7804 51.3933 13.6525 51.3832 13.1693 51.3862L12.6046 51.3897L12.1912 51.5202C11.6581 51.6886 11.5202 51.6904 11.1849 51.5337C10.197 51.0718 9.3651 49.3042 9.07739 47.0557C8.99083 46.3789 8.99147 44.6586 9.07856 44.0307C9.25033 42.7923 9.63544 41.6406 10.0841 41.0235C10.5524 40.3795 11.0206 40.1432 11.5396 40.2892ZM55.1721 40.3413C55.3778 40.4326 55.7033 40.7286 55.9051 41.0075C56.3665 41.6456 56.748 42.7805 56.9215 44.0307C57.0082 44.6559 57.0092 46.3792 56.9234 47.05C56.6347 49.3046 55.804 51.0714 54.8151 51.5337C54.4798 51.6904 54.3419 51.6886 53.8088 51.5202L53.3954 51.3897L52.8307 51.3862C51.846 51.38 51.4301 51.5204 50.4539 52.1885C50.0791 52.445 49.9498 52.4979 49.7017 52.4957C49.4373 52.4934 49.2536 52.4048 48.8484 52.0839C48.4919 51.8016 48.3897 51.7655 47.9516 51.767C47.5301 51.7683 47.3724 51.8411 47.1615 52.1312C46.9593 52.4093 46.865 52.5006 46.6334 52.6423C46.3667 52.8054 46.0865 52.8522 45.7588 52.7883C45.4631 52.7307 45.2073 52.6108 44.8073 52.3423C44.2228 51.9499 43.9962 51.8604 43.2935 51.7444C42.7759 51.6589 42.4373 51.6925 41.7868 51.8937C41.2943 52.0461 41.1108 52.1424 40.7702 52.4277C40.4883 52.6638 40.3866 52.6822 40.0974 52.5492C39.3138 52.1887 38.4515 50.6837 37.9442 48.7913C37.4903 47.0978 37.4037 45.0462 37.7401 43.9523C37.892 43.458 38.0976 43.1118 38.3119 42.9898C38.5643 42.8459 38.8743 42.9459 39.2361 43.288C40.1009 44.1055 40.851 45.8241 41.2057 47.8008C41.3306 48.4968 41.3754 48.948 41.3855 49.6134L41.3936 50.1479L42.18 50.1281C42.6125 50.1172 42.9703 50.1054 42.9751 50.1019C42.98 50.0984 42.9145 49.9566 42.8296 49.787C42.2961 48.72 41.9104 47.4989 41.7128 46.2512C41.6461 45.8294 41.6343 45.6259 41.6338 44.8774C41.6331 44.1017 41.6421 43.9522 41.7104 43.601C41.9355 42.4427 42.4514 41.7289 43.1327 41.6334C43.8693 41.5302 44.9325 42.2841 45.7701 43.5035C45.8607 43.6353 45.9647 43.7842 46.0012 43.8343C46.0654 43.9222 46.0663 43.9492 46.0255 44.5852C45.9169 46.2762 46.1887 48.2745 46.7448 49.8742L46.9213 50.3821L47.2979 50.3635C47.505 50.3533 47.682 50.338 47.6911 50.3294C47.7002 50.3209 47.6361 50.1151 47.5485 49.8721C47.1614 48.7977 46.9353 47.7358 46.8298 46.4963C46.6488 44.3721 46.9652 42.4069 47.6448 41.4333C48.1647 40.6883 48.6976 40.6194 49.3642 41.2112C49.7532 41.5564 50.0831 42.0366 50.4124 42.7367C50.9553 43.891 51.3289 45.4085 51.4114 46.7944C51.5001 48.2849 51.485 48.9711 51.3454 49.7977C51.3202 49.9471 51.3049 50.0747 51.3114 50.0814C51.3254 50.0958 52.6951 50.0303 52.7121 50.0144C52.7186 50.0084 52.6774 49.8745 52.6206 49.7169C52.5016 49.3864 52.2726 48.5124 52.2189 48.1835C52.1988 48.06 52.1583 47.6387 52.1289 47.2473C51.9823 45.2937 52.3412 43.1953 53.0674 41.7603C53.4574 40.9895 53.9816 40.4306 54.447 40.2893C54.6511 40.2273 54.9664 40.2499 55.1721 40.3413Z"/>
</mask>
<path fill-rule="evenodd" clip-rule="evenodd" d="M32.7209 10.5354C32.6708 10.5526 32.62 10.5904 32.608 10.6196C32.5761 10.6974 32.541 14.0252 32.5695 14.2715C32.591 14.457 32.6052 14.4877 32.6911 14.5351C32.8221 14.6075 33.1779 14.6075 33.3089 14.5351C33.3948 14.4877 33.409 14.457 33.4305 14.2715C33.4589 14.0261 33.424 10.6975 33.3922 10.62C33.3477 10.5119 32.9399 10.4605 32.7209 10.5354ZM21.0989 13.5434C20.903 13.6668 20.8403 13.8829 20.9454 14.0728C20.9865 14.1471 21.6642 14.7731 23.4275 16.3659C23.6796 16.5936 23.7817 16.6649 23.8803 16.6822C24.0577 16.7133 24.1712 16.6793 24.3041 16.555C24.3959 16.4693 24.4183 16.423 24.4183 16.3194C24.4183 16.2485 24.4043 16.156 24.3872 16.1139C24.3435 16.0065 21.6562 13.569 21.5219 13.5149C21.3637 13.4512 21.2312 13.4601 21.0989 13.5434ZM44.4707 13.5162C44.3393 13.5714 41.6543 16.012 41.6128 16.1139C41.5957 16.156 41.5817 16.2485 41.5817 16.3194C41.5817 16.423 41.6041 16.4693 41.6959 16.555C41.8288 16.6793 41.9423 16.7133 42.1197 16.6822C42.2183 16.6649 42.3204 16.5936 42.5725 16.3659C44.3359 14.7731 45.0135 14.1471 45.0546 14.0728C45.1597 13.8829 45.097 13.6668 44.9011 13.5434C44.7711 13.4616 44.6229 13.4522 44.4707 13.5162ZM32.2307 16.3004C32.1743 16.3076 31.9358 16.3293 31.7008 16.3486C30.6303 16.4366 29.487 16.6962 28.2647 17.1287C28.1331 17.1753 27.776 17.3261 27.4713 17.4637C25.9977 18.1294 24.7572 18.9879 23.6728 20.0927C20.2592 23.5699 19.3955 28.5716 21.4629 32.8897C22.5817 35.2263 24.5233 37.1823 26.9243 38.3915L27.2732 38.5673L27.4001 38.8069C27.6071 39.1976 27.8457 39.7854 28.0244 40.3448C28.2458 41.0378 28.3561 41.5772 28.4708 42.5285L28.4938 42.7196L28.3183 42.5662C28.0478 42.3297 27.8151 42.2415 27.4612 42.2415C27.2575 42.2415 27.1196 42.2598 26.9997 42.3026C26.4102 42.5133 25.8077 43.1101 25.319 43.9674L25.1554 44.2544L25.1146 43.931C24.958 42.6908 24.5447 41.8061 23.899 41.3292C23.1705 40.7911 22.2248 40.8224 21.262 41.4165C20.9404 41.615 20.3031 42.1969 19.9993 42.5694C19.8666 42.7322 19.7545 42.8616 19.7501 42.857C19.7458 42.8523 19.7104 42.7336 19.6716 42.593C19.4997 41.9709 19.2279 41.3647 18.9486 40.9803C18.6272 40.538 18.1731 40.2291 17.7243 40.1472C16.5914 39.9407 15.4359 41.0101 14.6457 42.9963C14.5505 43.2357 14.4624 43.4694 14.45 43.5155C14.4182 43.634 14.3782 43.6196 14.3502 43.4796C14.2926 43.1915 14.0826 42.5165 13.9381 42.1551C13.433 40.8915 12.8105 40.0995 12.0364 39.7355C11.5712 39.5167 11.1218 39.4947 10.6362 39.6667C9.60197 40.0331 8.76969 41.4061 8.41685 43.3278C8.37489 43.5563 8.33469 43.7626 8.32747 43.7864C8.32029 43.8101 8.24966 43.7383 8.17051 43.6266C7.99077 43.373 7.50637 42.9177 7.24701 42.7585C6.6148 42.3704 5.78553 42.1564 5.48213 42.303C5.25483 42.4129 5.24857 42.7499 5.47153 42.8719C5.52165 42.8993 5.6742 42.9377 5.81059 42.9573C6.8477 43.1063 7.68241 43.8831 7.9944 44.9895C8.07146 45.2628 8.08455 45.3754 8.08527 45.772C8.08599 46.1777 8.07457 46.275 7.9933 46.5548C7.74187 47.4204 7.15387 48.0598 6.37817 48.3112C6.16062 48.3816 6.02858 48.4012 5.68231 48.4144C5.30129 48.4288 5.23503 48.4232 5.07154 48.3623C4.3091 48.0787 3.20111 46.9374 2.47923 45.6921C2.11668 45.0667 1.88535 44.5051 1.79912 44.0408L1.7476 43.7633L1.92419 43.4018C3.54923 40.0752 5.83018 37.2925 8.18784 35.7602C11.1584 33.8295 14.3273 33.6 17.2725 35.102C17.5556 35.2464 17.6795 35.2924 17.7852 35.2924C18.0382 35.2924 18.1926 35.1216 18.1467 34.8926C18.1173 34.7464 17.9827 34.6548 17.3776 34.3689C16.0247 33.7297 14.7457 33.4334 13.3408 33.4337C11.9308 33.4341 10.6694 33.7168 9.32353 34.3341C8.00253 34.9399 6.98607 35.6366 5.78334 36.7606C4.8705 37.6137 4.07019 38.5351 3.29845 39.6216C2.61476 40.5841 2.23436 41.2062 1.56937 42.4492C1.32023 42.9149 1.08791 43.3356 1.05307 43.3842C0.997748 43.4614 0.99197 43.518 1.00739 43.8315C1.0343 44.3783 1.22344 44.947 1.63341 45.7142C2.42121 47.1883 3.63437 48.4869 4.6523 48.9456C4.9157 49.0643 4.97037 49.0767 5.3361 49.1007C5.90191 49.138 6.34217 49.077 6.81296 48.8963C7.32769 48.6988 7.92106 48.241 8.22555 47.8066C8.29721 47.7044 8.36064 47.6253 8.36645 47.6309C8.3723 47.6365 8.41777 47.8407 8.46755 48.0846C8.70018 49.2253 9.06331 50.1819 9.54959 50.9353C10.0422 51.6986 10.6213 52.1615 11.2707 52.3113C11.5765 52.3818 11.987 52.3365 12.3493 52.1924C12.5832 52.0994 12.6459 52.0891 13.0609 52.0745C13.542 52.0577 13.7756 52.0844 14.1614 52.2C14.5451 52.3151 14.7111 52.4098 15.2384 52.8143C15.3512 52.9009 15.5435 53.016 15.6657 53.07C15.8755 53.1629 15.911 53.1684 16.2983 53.1684H16.7085L16.9991 53.0339C17.1658 52.9568 17.4019 52.8096 17.5526 52.6888C17.9351 52.3822 18.1691 52.3722 18.3464 52.6549C18.4771 52.8633 18.8743 53.1935 19.1487 53.3217C19.4715 53.4726 19.7114 53.5159 20.1104 53.4951C20.6241 53.4683 20.9497 53.3456 21.6266 52.9235C22.3587 52.4671 22.631 52.3742 23.2388 52.3735C23.84 52.3728 24.1518 52.4891 24.6447 52.8978C25.003 53.1949 25.2139 53.2897 25.553 53.3061C25.8572 53.3208 26.1449 53.2471 26.4222 53.0835C27.6586 52.3542 28.7928 49.9036 29.1556 47.1778C29.2357 46.5755 29.2571 45.242 29.1945 44.7496C29.1659 44.5246 29.1562 44.3283 29.1722 44.3001C29.2388 44.1829 29.2816 43.5332 29.2614 42.9444C29.2206 41.7498 28.9528 40.5099 28.4909 39.3761C28.417 39.1948 28.3615 39.0418 28.3674 39.036C28.3734 39.0303 28.5451 39.0825 28.7489 39.152C30.564 39.7716 32.6791 39.9716 34.6924 39.7141C35.5156 39.6088 36.5173 39.3713 37.3344 39.0877C37.49 39.0337 37.625 38.9967 37.6345 39.0056C37.6439 39.0144 37.5832 39.1925 37.4996 39.4015C37.0345 40.5637 36.7794 41.7513 36.7386 42.9444C36.7184 43.5332 36.7612 44.1829 36.8278 44.3001C36.8438 44.3283 36.8342 44.5247 36.8056 44.7496C36.7431 45.2422 36.7628 46.5402 36.8422 47.1618C37.0797 49.0224 37.7491 50.9383 38.5557 52.0661C39.1857 52.9471 39.7823 53.3382 40.447 53.3061C40.7861 53.2897 40.997 53.1949 41.3553 52.8978C41.8482 52.4891 42.16 52.3728 42.7612 52.3735C43.369 52.3742 43.6413 52.4671 44.3734 52.9235C45.0503 53.3456 45.3759 53.4683 45.8896 53.4951C46.2886 53.5159 46.5286 53.4726 46.8513 53.3217C47.1257 53.1935 47.5229 52.8633 47.6536 52.6549C47.8309 52.3722 48.0649 52.3822 48.4474 52.6888C48.5981 52.8096 48.8342 52.9568 49.0009 53.0339L49.2915 53.1684H49.7017C50.089 53.1684 50.1245 53.1629 50.3343 53.07C50.4565 53.016 50.6488 52.9009 50.7616 52.8143C51.2889 52.4098 51.4549 52.3151 51.8386 52.2C52.2244 52.0844 52.458 52.0577 52.9391 52.0745C53.3541 52.0891 53.4169 52.0994 53.6507 52.1924C54.013 52.3365 54.4235 52.3818 54.7293 52.3113C55.3787 52.1615 55.9578 51.6986 56.4504 50.9353C56.9367 50.1819 57.2998 49.2253 57.5325 48.0846C57.5822 47.8407 57.6277 47.6365 57.6336 47.6309C57.6394 47.6253 57.7028 47.7044 57.7745 47.8066C58.0789 48.241 58.6723 48.6988 59.187 48.8963C59.6578 49.077 60.0981 49.138 60.6639 49.1007C61.0296 49.0767 61.0843 49.0643 61.3477 48.9456C62.3656 48.4869 63.5788 47.1883 64.3666 45.7142C64.7766 44.947 64.9657 44.3783 64.9926 43.8315C65.008 43.518 65.0023 43.4614 64.9469 43.3842C64.9121 43.3356 64.6798 42.9149 64.4306 42.4492C63.7656 41.2062 63.3853 40.5841 62.7016 39.6216C61.9298 38.5351 61.1295 37.6137 60.2167 36.7606C59.0139 35.6366 57.9975 34.9399 56.6765 34.3341C55.3306 33.7168 54.0692 33.4341 52.6592 33.4337C51.2543 33.4334 49.9753 33.7297 48.6224 34.3689C48.0173 34.6548 47.8827 34.7464 47.8533 34.8926C47.8074 35.1216 47.9618 35.2924 48.2148 35.2924C48.3205 35.2924 48.4444 35.2464 48.7275 35.102C50.9927 33.9468 53.4226 33.811 55.7704 34.7086C58.0123 35.5656 60.1369 37.3395 61.9724 39.8869C62.7673 40.9902 63.4773 42.1766 64.0758 43.4018L64.2524 43.7633L64.2009 44.0408C63.9198 45.5539 62.1324 47.9144 60.9285 48.3623C60.765 48.4232 60.6987 48.4288 60.3177 48.4144C59.9714 48.4012 59.8394 48.3816 59.6218 48.3112C58.8461 48.0598 58.2581 47.4204 58.0067 46.5548C57.9254 46.275 57.914 46.1777 57.9147 45.772C57.9155 45.3754 57.9285 45.2628 58.0056 44.9895C58.3176 43.8831 59.1523 43.1063 60.1894 42.9573C60.4695 42.9171 60.6026 42.8569 60.6567 42.7459C60.7383 42.5785 60.6669 42.3639 60.5067 42.2957C60.1922 42.1618 59.3728 42.378 58.753 42.7585C58.4936 42.9177 58.0092 43.373 57.8295 43.6266C57.7504 43.7383 57.6797 43.8101 57.6725 43.7864C57.6653 43.7626 57.6251 43.5563 57.5832 43.3278C57.2303 41.4061 56.398 40.0331 55.3638 39.6667C54.8782 39.4947 54.4288 39.5167 53.9636 39.7355C53.1895 40.0995 52.567 40.8915 52.0619 42.1551C51.9174 42.5165 51.7074 43.1915 51.6498 43.4796C51.6218 43.6196 51.5818 43.634 51.55 43.5155C51.5376 43.4694 51.4495 43.2357 51.3543 42.9963C51.0404 42.2072 50.6074 41.4597 50.2078 41.0168C49.4328 40.1581 48.6189 39.9133 47.827 40.3008C47.1786 40.618 46.6512 41.4248 46.3284 42.593C46.2896 42.7336 46.2542 42.8523 46.2499 42.857C46.2455 42.8616 46.1334 42.7322 46.0007 42.5694C45.6969 42.1969 45.0596 41.615 44.738 41.4165C43.7752 40.8224 42.8295 40.7911 42.101 41.3292C41.4553 41.8061 41.042 42.6908 40.8854 43.931L40.8446 44.2544L40.681 43.9674C40.1924 43.1101 39.5898 42.5133 39.0003 42.3026C38.8805 42.2598 38.7425 42.2415 38.5388 42.2415C38.1849 42.2415 37.9522 42.3297 37.6817 42.5662L37.5062 42.7196L37.5292 42.5285C37.6084 41.8722 37.6657 41.521 37.7554 41.1436C37.9561 40.2988 38.2801 39.4079 38.6167 38.7755L38.761 38.5044L39.1713 38.287C41.3479 37.1336 43.0818 35.4242 44.2101 33.3192C44.8947 32.042 45.2802 30.8141 45.4863 29.2538C45.5451 28.8083 45.5448 27.2992 45.4857 26.8576C45.3233 25.6429 44.9932 24.4143 44.6205 23.6382C44.5663 23.5253 44.5221 23.4092 44.5222 23.3801C44.5223 23.351 44.9185 22.9312 45.4026 22.4472C46.6226 21.2275 46.6608 21.1784 46.5753 20.9364C46.53 20.8081 45.9378 20.2676 43.9507 18.5411C43.5322 18.1775 43.4365 18.214 42.5922 19.0593C42.2548 19.3971 41.9625 19.6935 41.9426 19.7181C41.9136 19.7539 41.832 19.699 41.5304 19.4411C39.4946 17.7002 37.0565 16.6515 34.3676 16.3601C33.9337 16.313 32.4555 16.2718 32.2307 16.3004ZM34.4335 17.1259C36.1013 17.3354 37.6207 17.8275 39.009 18.6081C39.7483 19.0237 40.4926 19.5513 41.0449 20.0514L41.3458 20.3238L40.2954 21.3941C39.7176 21.9828 38.9127 22.8023 38.5067 23.2153C38.1006 23.6283 36.9919 24.7569 36.0429 25.7234C33.2587 28.559 33.0607 28.7586 33.0326 28.7586C33.0079 28.7586 32.501 28.1867 29.9466 25.2761C28.3019 23.402 28.4027 23.4925 28.0433 23.567C27.7376 23.6304 27.9378 23.4916 25.5003 25.3304C24.8984 25.7844 24.8545 25.827 24.7938 26.0164C24.7331 26.2057 24.7739 26.3473 24.9406 26.5259C25.3935 27.0111 32.3887 34.3142 32.5343 34.454C32.7455 34.6566 32.9025 34.7132 33.0999 34.6579C33.2132 34.6262 33.4145 34.4397 34.3906 33.4627C35.0267 32.826 36.0935 31.7588 36.7613 31.091C37.4291 30.4232 38.7443 29.1077 39.6841 28.1675C43.3926 24.4576 43.8556 23.9981 43.8843 23.9981C43.9539 23.9981 44.3563 25.1898 44.4867 25.7823C44.6995 26.749 44.785 28.079 44.6938 29.0055C44.3224 32.7767 42.0094 36.0313 38.4362 37.8105C37.1299 38.4609 35.5305 38.8982 33.9744 39.0305C33.4911 39.0716 32.4064 39.0716 31.923 39.0305C30.1796 38.8823 28.5389 38.4013 27.0642 37.606C26.1645 37.1207 25.4405 36.5984 24.6548 35.8676C24.0341 35.2902 23.6307 34.844 23.2184 34.2788C22.1187 32.7712 21.4209 31.0008 21.2226 29.2148C21.1548 28.6043 21.155 27.5036 21.223 26.898C21.7005 22.6493 24.7656 19.0523 29.1129 17.639C30.0319 17.3402 30.8206 17.1876 32.0598 17.0688C32.3756 17.0385 34.06 17.079 34.4335 17.1259ZM44.7064 20.3558C45.1471 20.7424 45.509 21.0678 45.5106 21.0789C45.5122 21.09 45.1555 21.4567 44.718 21.8936C44.2805 22.3306 43.6998 22.9126 43.4274 23.187C43.155 23.4614 42.3935 24.2234 41.735 24.8803C41.0766 25.5373 39.884 26.729 39.0847 27.5285C38.2854 28.3281 37.0702 29.5435 36.3841 30.2295C35.6981 30.9156 34.6528 31.9617 34.0611 32.5543C33.4694 33.1469 32.9741 33.628 32.9605 33.6234C32.8966 33.6019 25.8191 26.1753 25.8436 26.1554C25.9184 26.0947 27.6358 24.8067 27.842 24.6566C27.9721 24.5619 28.0833 24.49 28.089 24.4968C28.0947 24.5037 28.4223 24.8759 28.8168 25.324C29.2114 25.7721 29.894 26.5485 30.3337 27.0493C30.7735 27.5501 31.4753 28.3494 31.8934 28.8254C32.3115 29.3015 32.6964 29.7172 32.7488 29.7493C32.8806 29.83 33.094 29.8236 33.2651 29.7337C33.3516 29.6882 33.7395 29.32 34.2714 28.7783C34.7474 28.2935 35.7514 27.2713 36.5025 26.5066C41.2389 21.6848 41.4272 21.4926 42.0432 20.849C42.2689 20.6133 42.5164 20.3627 42.5933 20.2922C42.6702 20.2217 42.9141 19.9805 43.1353 19.7562L43.5376 19.3482L43.7214 19.5006C43.8225 19.5843 44.2658 19.9692 44.7064 20.3558ZM12.7959 24.0085C12.6696 24.0718 12.5545 24.2395 12.5545 24.3602C12.5545 24.4828 12.6563 24.6474 12.7743 24.7156C12.8593 24.7647 13.3778 24.8527 15.0529 25.1023C17.5182 25.4697 17.6525 25.4839 17.8053 25.3937C17.9453 25.3111 18.0378 25.1267 18.0096 24.9863C17.9833 24.8554 17.8546 24.706 17.7264 24.6574C17.6243 24.6188 13.1621 23.9501 13.0063 23.9501C12.9546 23.9501 12.86 23.9764 12.7959 24.0085ZM50.6109 24.2867C49.3997 24.4682 48.3703 24.6257 48.3233 24.6368C48.1941 24.6671 48.018 24.8493 47.9918 24.9797C47.9622 25.1271 48.0514 25.3091 48.1947 25.3937C48.3475 25.4839 48.4818 25.4697 50.9471 25.1023C53.2851 24.7539 53.2838 24.7542 53.3906 24.5439C53.4619 24.4035 53.46 24.3098 53.3831 24.1758C53.3048 24.0394 53.1291 23.9492 52.9503 23.9534C52.8748 23.9553 51.8221 24.1052 50.6109 24.2867ZM11.5396 40.2892C11.8814 40.3853 12.3043 40.7539 12.641 41.2491C13.5274 42.553 14.0369 45.0373 13.8711 47.2473C13.8417 47.6387 13.8012 48.06 13.7811 48.1835C13.7274 48.5124 13.4984 49.3864 13.3794 49.7169C13.3226 49.8745 13.2814 50.0084 13.2879 50.0144C13.3049 50.0303 14.6746 50.0958 14.6886 50.0814C14.6951 50.0747 14.6798 49.9471 14.6546 49.7977C14.515 48.9711 14.4999 48.2849 14.5886 46.7944C14.6711 45.4085 15.0447 43.891 15.5876 42.7367C15.9169 42.0366 16.2468 41.5564 16.6358 41.2112C17.3024 40.6194 17.8353 40.6883 18.3552 41.4333C19.0348 42.4069 19.3512 44.3721 19.1702 46.4963C19.0647 47.7358 18.8386 48.7977 18.4515 49.8721C18.3639 50.1151 18.2998 50.3209 18.3089 50.3294C18.3181 50.338 18.4935 50.3532 18.6988 50.3633L19.0721 50.3817L19.1442 50.1936C19.7676 48.5669 20.09 46.3891 19.9745 44.5852C19.9337 43.9492 19.9346 43.9222 19.9988 43.8343C20.0353 43.7842 20.1394 43.6353 20.2299 43.5035C20.9429 42.4655 21.798 41.7723 22.5187 41.6481C23.3618 41.5027 24.0237 42.2325 24.2897 43.601C24.3579 43.9522 24.3669 44.1017 24.3662 44.8774C24.3657 45.6259 24.3539 45.8294 24.2872 46.2512C24.0896 47.4989 23.704 48.72 23.1704 49.787C23.0855 49.9566 23.0201 50.0984 23.0249 50.1019C23.0297 50.1054 23.3875 50.1172 23.82 50.1281L24.6064 50.1479L24.6145 49.6134C24.6247 48.948 24.6694 48.4968 24.7943 47.8008C25.149 45.8241 25.8991 44.1055 26.7639 43.288C27.3343 42.7488 27.7423 42.8062 28.0733 43.4724C28.3401 44.0095 28.4618 44.709 28.4622 45.7081C28.4628 47.142 28.1923 48.6037 27.667 50.0054C27.1985 51.2554 26.4879 52.2799 25.9026 52.5492C25.6134 52.6822 25.5117 52.6638 25.2298 52.4277C24.8892 52.1424 24.7057 52.0461 24.2132 51.8937C23.5627 51.6925 23.2241 51.6589 22.7065 51.7444C22.0038 51.8604 21.7773 51.9499 21.1927 52.3423C20.7927 52.6108 20.5369 52.7307 20.2412 52.7883C19.9135 52.8522 19.6333 52.8054 19.3666 52.6423C19.135 52.5006 19.0407 52.4093 18.8385 52.1312C18.6276 51.8411 18.4699 51.7683 18.0484 51.767C17.6103 51.7655 17.5081 51.8016 17.1516 52.0839C16.7464 52.4048 16.5627 52.4934 16.2983 52.4957C16.0502 52.4979 15.9209 52.445 15.5461 52.1885C14.867 51.7238 14.5588 51.5725 14.0549 51.4565C13.7804 51.3933 13.6525 51.3832 13.1693 51.3862L12.6046 51.3897L12.1912 51.5202C11.6581 51.6886 11.5202 51.6904 11.1849 51.5337C10.197 51.0718 9.3651 49.3042 9.07739 47.0557C8.99083 46.3789 8.99147 44.6586 9.07856 44.0307C9.25033 42.7923 9.63544 41.6406 10.0841 41.0235C10.5524 40.3795 11.0206 40.1432 11.5396 40.2892ZM55.1721 40.3413C55.3778 40.4326 55.7033 40.7286 55.9051 41.0075C56.3665 41.6456 56.748 42.7805 56.9215 44.0307C57.0082 44.6559 57.0092 46.3792 56.9234 47.05C56.6347 49.3046 55.804 51.0714 54.8151 51.5337C54.4798 51.6904 54.3419 51.6886 53.8088 51.5202L53.3954 51.3897L52.8307 51.3862C51.846 51.38 51.4301 51.5204 50.4539 52.1885C50.0791 52.445 49.9498 52.4979 49.7017 52.4957C49.4373 52.4934 49.2536 52.4048 48.8484 52.0839C48.4919 51.8016 48.3897 51.7655 47.9516 51.767C47.5301 51.7683 47.3724 51.8411 47.1615 52.1312C46.9593 52.4093 46.865 52.5006 46.6334 52.6423C46.3667 52.8054 46.0865 52.8522 45.7588 52.7883C45.4631 52.7307 45.2073 52.6108 44.8073 52.3423C44.2228 51.9499 43.9962 51.8604 43.2935 51.7444C42.7759 51.6589 42.4373 51.6925 41.7868 51.8937C41.2943 52.0461 41.1108 52.1424 40.7702 52.4277C40.4883 52.6638 40.3866 52.6822 40.0974 52.5492C39.3138 52.1887 38.4515 50.6837 37.9442 48.7913C37.4903 47.0978 37.4037 45.0462 37.7401 43.9523C37.892 43.458 38.0976 43.1118 38.3119 42.9898C38.5643 42.8459 38.8743 42.9459 39.2361 43.288C40.1009 44.1055 40.851 45.8241 41.2057 47.8008C41.3306 48.4968 41.3754 48.948 41.3855 49.6134L41.3936 50.1479L42.18 50.1281C42.6125 50.1172 42.9703 50.1054 42.9751 50.1019C42.98 50.0984 42.9145 49.9566 42.8296 49.787C42.2961 48.72 41.9104 47.4989 41.7128 46.2512C41.6461 45.8294 41.6343 45.6259 41.6338 44.8774C41.6331 44.1017 41.6421 43.9522 41.7104 43.601C41.9355 42.4427 42.4514 41.7289 43.1327 41.6334C43.8693 41.5302 44.9325 42.2841 45.7701 43.5035C45.8607 43.6353 45.9647 43.7842 46.0012 43.8343C46.0654 43.9222 46.0663 43.9492 46.0255 44.5852C45.9169 46.2762 46.1887 48.2745 46.7448 49.8742L46.9213 50.3821L47.2979 50.3635C47.505 50.3533 47.682 50.338 47.6911 50.3294C47.7002 50.3209 47.6361 50.1151 47.5485 49.8721C47.1614 48.7977 46.9353 47.7358 46.8298 46.4963C46.6488 44.3721 46.9652 42.4069 47.6448 41.4333C48.1647 40.6883 48.6976 40.6194 49.3642 41.2112C49.7532 41.5564 50.0831 42.0366 50.4124 42.7367C50.9553 43.891 51.3289 45.4085 51.4114 46.7944C51.5001 48.2849 51.485 48.9711 51.3454 49.7977C51.3202 49.9471 51.3049 50.0747 51.3114 50.0814C51.3254 50.0958 52.6951 50.0303 52.7121 50.0144C52.7186 50.0084 52.6774 49.8745 52.6206 49.7169C52.5016 49.3864 52.2726 48.5124 52.2189 48.1835C52.1988 48.06 52.1583 47.6387 52.1289 47.2473C51.9823 45.2937 52.3412 43.1953 53.0674 41.7603C53.4574 40.9895 53.9816 40.4306 54.447 40.2893C54.6511 40.2273 54.9664 40.2499 55.1721 40.3413Z" fill="#EC6A2D"/>
<path fill-rule="evenodd" clip-rule="evenodd" d="M32.7209 10.5354C32.6708 10.5526 32.62 10.5904 32.608 10.6196C32.5761 10.6974 32.541 14.0252 32.5695 14.2715C32.591 14.457 32.6052 14.4877 32.6911 14.5351C32.8221 14.6075 33.1779 14.6075 33.3089 14.5351C33.3948 14.4877 33.409 14.457 33.4305 14.2715C33.4589 14.0261 33.424 10.6975 33.3922 10.62C33.3477 10.5119 32.9399 10.4605 32.7209 10.5354ZM21.0989 13.5434C20.903 13.6668 20.8403 13.8829 20.9454 14.0728C20.9865 14.1471 21.6642 14.7731 23.4275 16.3659C23.6796 16.5936 23.7817 16.6649 23.8803 16.6822C24.0577 16.7133 24.1712 16.6793 24.3041 16.555C24.3959 16.4693 24.4183 16.423 24.4183 16.3194C24.4183 16.2485 24.4043 16.156 24.3872 16.1139C24.3435 16.0065 21.6562 13.569 21.5219 13.5149C21.3637 13.4512 21.2312 13.4601 21.0989 13.5434ZM44.4707 13.5162C44.3393 13.5714 41.6543 16.012 41.6128 16.1139C41.5957 16.156 41.5817 16.2485 41.5817 16.3194C41.5817 16.423 41.6041 16.4693 41.6959 16.555C41.8288 16.6793 41.9423 16.7133 42.1197 16.6822C42.2183 16.6649 42.3204 16.5936 42.5725 16.3659C44.3359 14.7731 45.0135 14.1471 45.0546 14.0728C45.1597 13.8829 45.097 13.6668 44.9011 13.5434C44.7711 13.4616 44.6229 13.4522 44.4707 13.5162ZM32.2307 16.3004C32.1743 16.3076 31.9358 16.3293 31.7008 16.3486C30.6303 16.4366 29.487 16.6962 28.2647 17.1287C28.1331 17.1753 27.776 17.3261 27.4713 17.4637C25.9977 18.1294 24.7572 18.9879 23.6728 20.0927C20.2592 23.5699 19.3955 28.5716 21.4629 32.8897C22.5817 35.2263 24.5233 37.1823 26.9243 38.3915L27.2732 38.5673L27.4001 38.8069C27.6071 39.1976 27.8457 39.7854 28.0244 40.3448C28.2458 41.0378 28.3561 41.5772 28.4708 42.5285L28.4938 42.7196L28.3183 42.5662C28.0478 42.3297 27.8151 42.2415 27.4612 42.2415C27.2575 42.2415 27.1196 42.2598 26.9997 42.3026C26.4102 42.5133 25.8077 43.1101 25.319 43.9674L25.1554 44.2544L25.1146 43.931C24.958 42.6908 24.5447 41.8061 23.899 41.3292C23.1705 40.7911 22.2248 40.8224 21.262 41.4165C20.9404 41.615 20.3031 42.1969 19.9993 42.5694C19.8666 42.7322 19.7545 42.8616 19.7501 42.857C19.7458 42.8523 19.7104 42.7336 19.6716 42.593C19.4997 41.9709 19.2279 41.3647 18.9486 40.9803C18.6272 40.538 18.1731 40.2291 17.7243 40.1472C16.5914 39.9407 15.4359 41.0101 14.6457 42.9963C14.5505 43.2357 14.4624 43.4694 14.45 43.5155C14.4182 43.634 14.3782 43.6196 14.3502 43.4796C14.2926 43.1915 14.0826 42.5165 13.9381 42.1551C13.433 40.8915 12.8105 40.0995 12.0364 39.7355C11.5712 39.5167 11.1218 39.4947 10.6362 39.6667C9.60197 40.0331 8.76969 41.4061 8.41685 43.3278C8.37489 43.5563 8.33469 43.7626 8.32747 43.7864C8.32029 43.8101 8.24966 43.7383 8.17051 43.6266C7.99077 43.373 7.50637 42.9177 7.24701 42.7585C6.6148 42.3704 5.78553 42.1564 5.48213 42.303C5.25483 42.4129 5.24857 42.7499 5.47153 42.8719C5.52165 42.8993 5.6742 42.9377 5.81059 42.9573C6.8477 43.1063 7.68241 43.8831 7.9944 44.9895C8.07146 45.2628 8.08455 45.3754 8.08527 45.772C8.08599 46.1777 8.07457 46.275 7.9933 46.5548C7.74187 47.4204 7.15387 48.0598 6.37817 48.3112C6.16062 48.3816 6.02858 48.4012 5.68231 48.4144C5.30129 48.4288 5.23503 48.4232 5.07154 48.3623C4.3091 48.0787 3.20111 46.9374 2.47923 45.6921C2.11668 45.0667 1.88535 44.5051 1.79912 44.0408L1.7476 43.7633L1.92419 43.4018C3.54923 40.0752 5.83018 37.2925 8.18784 35.7602C11.1584 33.8295 14.3273 33.6 17.2725 35.102C17.5556 35.2464 17.6795 35.2924 17.7852 35.2924C18.0382 35.2924 18.1926 35.1216 18.1467 34.8926C18.1173 34.7464 17.9827 34.6548 17.3776 34.3689C16.0247 33.7297 14.7457 33.4334 13.3408 33.4337C11.9308 33.4341 10.6694 33.7168 9.32353 34.3341C8.00253 34.9399 6.98607 35.6366 5.78334 36.7606C4.8705 37.6137 4.07019 38.5351 3.29845 39.6216C2.61476 40.5841 2.23436 41.2062 1.56937 42.4492C1.32023 42.9149 1.08791 43.3356 1.05307 43.3842C0.997748 43.4614 0.99197 43.518 1.00739 43.8315C1.0343 44.3783 1.22344 44.947 1.63341 45.7142C2.42121 47.1883 3.63437 48.4869 4.6523 48.9456C4.9157 49.0643 4.97037 49.0767 5.3361 49.1007C5.90191 49.138 6.34217 49.077 6.81296 48.8963C7.32769 48.6988 7.92106 48.241 8.22555 47.8066C8.29721 47.7044 8.36064 47.6253 8.36645 47.6309C8.3723 47.6365 8.41777 47.8407 8.46755 48.0846C8.70018 49.2253 9.06331 50.1819 9.54959 50.9353C10.0422 51.6986 10.6213 52.1615 11.2707 52.3113C11.5765 52.3818 11.987 52.3365 12.3493 52.1924C12.5832 52.0994 12.6459 52.0891 13.0609 52.0745C13.542 52.0577 13.7756 52.0844 14.1614 52.2C14.5451 52.3151 14.7111 52.4098 15.2384 52.8143C15.3512 52.9009 15.5435 53.016 15.6657 53.07C15.8755 53.1629 15.911 53.1684 16.2983 53.1684H16.7085L16.9991 53.0339C17.1658 52.9568 17.4019 52.8096 17.5526 52.6888C17.9351 52.3822 18.1691 52.3722 18.3464 52.6549C18.4771 52.8633 18.8743 53.1935 19.1487 53.3217C19.4715 53.4726 19.7114 53.5159 20.1104 53.4951C20.6241 53.4683 20.9497 53.3456 21.6266 52.9235C22.3587 52.4671 22.631 52.3742 23.2388 52.3735C23.84 52.3728 24.1518 52.4891 24.6447 52.8978C25.003 53.1949 25.2139 53.2897 25.553 53.3061C25.8572 53.3208 26.1449 53.2471 26.4222 53.0835C27.6586 52.3542 28.7928 49.9036 29.1556 47.1778C29.2357 46.5755 29.2571 45.242 29.1945 44.7496C29.1659 44.5246 29.1562 44.3283 29.1722 44.3001C29.2388 44.1829 29.2816 43.5332 29.2614 42.9444C29.2206 41.7498 28.9528 40.5099 28.4909 39.3761C28.417 39.1948 28.3615 39.0418 28.3674 39.036C28.3734 39.0303 28.5451 39.0825 28.7489 39.152C30.564 39.7716 32.6791 39.9716 34.6924 39.7141C35.5156 39.6088 36.5173 39.3713 37.3344 39.0877C37.49 39.0337 37.625 38.9967 37.6345 39.0056C37.6439 39.0144 37.5832 39.1925 37.4996 39.4015C37.0345 40.5637 36.7794 41.7513 36.7386 42.9444C36.7184 43.5332 36.7612 44.1829 36.8278 44.3001C36.8438 44.3283 36.8342 44.5247 36.8056 44.7496C36.7431 45.2422 36.7628 46.5402 36.8422 47.1618C37.0797 49.0224 37.7491 50.9383 38.5557 52.0661C39.1857 52.9471 39.7823 53.3382 40.447 53.3061C40.7861 53.2897 40.997 53.1949 41.3553 52.8978C41.8482 52.4891 42.16 52.3728 42.7612 52.3735C43.369 52.3742 43.6413 52.4671 44.3734 52.9235C45.0503 53.3456 45.3759 53.4683 45.8896 53.4951C46.2886 53.5159 46.5286 53.4726 46.8513 53.3217C47.1257 53.1935 47.5229 52.8633 47.6536 52.6549C47.8309 52.3722 48.0649 52.3822 48.4474 52.6888C48.5981 52.8096 48.8342 52.9568 49.0009 53.0339L49.2915 53.1684H49.7017C50.089 53.1684 50.1245 53.1629 50.3343 53.07C50.4565 53.016 50.6488 52.9009 50.7616 52.8143C51.2889 52.4098 51.4549 52.3151 51.8386 52.2C52.2244 52.0844 52.458 52.0577 52.9391 52.0745C53.3541 52.0891 53.4169 52.0994 53.6507 52.1924C54.013 52.3365 54.4235 52.3818 54.7293 52.3113C55.3787 52.1615 55.9578 51.6986 56.4504 50.9353C56.9367 50.1819 57.2998 49.2253 57.5325 48.0846C57.5822 47.8407 57.6277 47.6365 57.6336 47.6309C57.6394 47.6253 57.7028 47.7044 57.7745 47.8066C58.0789 48.241 58.6723 48.6988 59.187 48.8963C59.6578 49.077 60.0981 49.138 60.6639 49.1007C61.0296 49.0767 61.0843 49.0643 61.3477 48.9456C62.3656 48.4869 63.5788 47.1883 64.3666 45.7142C64.7766 44.947 64.9657 44.3783 64.9926 43.8315C65.008 43.518 65.0023 43.4614 64.9469 43.3842C64.9121 43.3356 64.6798 42.9149 64.4306 42.4492C63.7656 41.2062 63.3853 40.5841 62.7016 39.6216C61.9298 38.5351 61.1295 37.6137 60.2167 36.7606C59.0139 35.6366 57.9975 34.9399 56.6765 34.3341C55.3306 33.7168 54.0692 33.4341 52.6592 33.4337C51.2543 33.4334 49.9753 33.7297 48.6224 34.3689C48.0173 34.6548 47.8827 34.7464 47.8533 34.8926C47.8074 35.1216 47.9618 35.2924 48.2148 35.2924C48.3205 35.2924 48.4444 35.2464 48.7275 35.102C50.9927 33.9468 53.4226 33.811 55.7704 34.7086C58.0123 35.5656 60.1369 37.3395 61.9724 39.8869C62.7673 40.9902 63.4773 42.1766 64.0758 43.4018L64.2524 43.7633L64.2009 44.0408C63.9198 45.5539 62.1324 47.9144 60.9285 48.3623C60.765 48.4232 60.6987 48.4288 60.3177 48.4144C59.9714 48.4012 59.8394 48.3816 59.6218 48.3112C58.8461 48.0598 58.2581 47.4204 58.0067 46.5548C57.9254 46.275 57.914 46.1777 57.9147 45.772C57.9155 45.3754 57.9285 45.2628 58.0056 44.9895C58.3176 43.8831 59.1523 43.1063 60.1894 42.9573C60.4695 42.9171 60.6026 42.8569 60.6567 42.7459C60.7383 42.5785 60.6669 42.3639 60.5067 42.2957C60.1922 42.1618 59.3728 42.378 58.753 42.7585C58.4936 42.9177 58.0092 43.373 57.8295 43.6266C57.7504 43.7383 57.6797 43.8101 57.6725 43.7864C57.6653 43.7626 57.6251 43.5563 57.5832 43.3278C57.2303 41.4061 56.398 40.0331 55.3638 39.6667C54.8782 39.4947 54.4288 39.5167 53.9636 39.7355C53.1895 40.0995 52.567 40.8915 52.0619 42.1551C51.9174 42.5165 51.7074 43.1915 51.6498 43.4796C51.6218 43.6196 51.5818 43.634 51.55 43.5155C51.5376 43.4694 51.4495 43.2357 51.3543 42.9963C51.0404 42.2072 50.6074 41.4597 50.2078 41.0168C49.4328 40.1581 48.6189 39.9133 47.827 40.3008C47.1786 40.618 46.6512 41.4248 46.3284 42.593C46.2896 42.7336 46.2542 42.8523 46.2499 42.857C46.2455 42.8616 46.1334 42.7322 46.0007 42.5694C45.6969 42.1969 45.0596 41.615 44.738 41.4165C43.7752 40.8224 42.8295 40.7911 42.101 41.3292C41.4553 41.8061 41.042 42.6908 40.8854 43.931L40.8446 44.2544L40.681 43.9674C40.1924 43.1101 39.5898 42.5133 39.0003 42.3026C38.8805 42.2598 38.7425 42.2415 38.5388 42.2415C38.1849 42.2415 37.9522 42.3297 37.6817 42.5662L37.5062 42.7196L37.5292 42.5285C37.6084 41.8722 37.6657 41.521 37.7554 41.1436C37.9561 40.2988 38.2801 39.4079 38.6167 38.7755L38.761 38.5044L39.1713 38.287C41.3479 37.1336 43.0818 35.4242 44.2101 33.3192C44.8947 32.042 45.2802 30.8141 45.4863 29.2538C45.5451 28.8083 45.5448 27.2992 45.4857 26.8576C45.3233 25.6429 44.9932 24.4143 44.6205 23.6382C44.5663 23.5253 44.5221 23.4092 44.5222 23.3801C44.5223 23.351 44.9185 22.9312 45.4026 22.4472C46.6226 21.2275 46.6608 21.1784 46.5753 20.9364C46.53 20.8081 45.9378 20.2676 43.9507 18.5411C43.5322 18.1775 43.4365 18.214 42.5922 19.0593C42.2548 19.3971 41.9625 19.6935 41.9426 19.7181C41.9136 19.7539 41.832 19.699 41.5304 19.4411C39.4946 17.7002 37.0565 16.6515 34.3676 16.3601C33.9337 16.313 32.4555 16.2718 32.2307 16.3004ZM34.4335 17.1259C36.1013 17.3354 37.6207 17.8275 39.009 18.6081C39.7483 19.0237 40.4926 19.5513 41.0449 20.0514L41.3458 20.3238L40.2954 21.3941C39.7176 21.9828 38.9127 22.8023 38.5067 23.2153C38.1006 23.6283 36.9919 24.7569 36.0429 25.7234C33.2587 28.559 33.0607 28.7586 33.0326 28.7586C33.0079 28.7586 32.501 28.1867 29.9466 25.2761C28.3019 23.402 28.4027 23.4925 28.0433 23.567C27.7376 23.6304 27.9378 23.4916 25.5003 25.3304C24.8984 25.7844 24.8545 25.827 24.7938 26.0164C24.7331 26.2057 24.7739 26.3473 24.9406 26.5259C25.3935 27.0111 32.3887 34.3142 32.5343 34.454C32.7455 34.6566 32.9025 34.7132 33.0999 34.6579C33.2132 34.6262 33.4145 34.4397 34.3906 33.4627C35.0267 32.826 36.0935 31.7588 36.7613 31.091C37.4291 30.4232 38.7443 29.1077 39.6841 28.1675C43.3926 24.4576 43.8556 23.9981 43.8843 23.9981C43.9539 23.9981 44.3563 25.1898 44.4867 25.7823C44.6995 26.749 44.785 28.079 44.6938 29.0055C44.3224 32.7767 42.0094 36.0313 38.4362 37.8105C37.1299 38.4609 35.5305 38.8982 33.9744 39.0305C33.4911 39.0716 32.4064 39.0716 31.923 39.0305C30.1796 38.8823 28.5389 38.4013 27.0642 37.606C26.1645 37.1207 25.4405 36.5984 24.6548 35.8676C24.0341 35.2902 23.6307 34.844 23.2184 34.2788C22.1187 32.7712 21.4209 31.0008 21.2226 29.2148C21.1548 28.6043 21.155 27.5036 21.223 26.898C21.7005 22.6493 24.7656 19.0523 29.1129 17.639C30.0319 17.3402 30.8206 17.1876 32.0598 17.0688C32.3756 17.0385 34.06 17.079 34.4335 17.1259ZM44.7064 20.3558C45.1471 20.7424 45.509 21.0678 45.5106 21.0789C45.5122 21.09 45.1555 21.4567 44.718 21.8936C44.2805 22.3306 43.6998 22.9126 43.4274 23.187C43.155 23.4614 42.3935 24.2234 41.735 24.8803C41.0766 25.5373 39.884 26.729 39.0847 27.5285C38.2854 28.3281 37.0702 29.5435 36.3841 30.2295C35.6981 30.9156 34.6528 31.9617 34.0611 32.5543C33.4694 33.1469 32.9741 33.628 32.9605 33.6234C32.8966 33.6019 25.8191 26.1753 25.8436 26.1554C25.9184 26.0947 27.6358 24.8067 27.842 24.6566C27.9721 24.5619 28.0833 24.49 28.089 24.4968C28.0947 24.5037 28.4223 24.8759 28.8168 25.324C29.2114 25.7721 29.894 26.5485 30.3337 27.0493C30.7735 27.5501 31.4753 28.3494 31.8934 28.8254C32.3115 29.3015 32.6964 29.7172 32.7488 29.7493C32.8806 29.83 33.094 29.8236 33.2651 29.7337C33.3516 29.6882 33.7395 29.32 34.2714 28.7783C34.7474 28.2935 35.7514 27.2713 36.5025 26.5066C41.2389 21.6848 41.4272 21.4926 42.0432 20.849C42.2689 20.6133 42.5164 20.3627 42.5933 20.2922C42.6702 20.2217 42.9141 19.9805 43.1353 19.7562L43.5376 19.3482L43.7214 19.5006C43.8225 19.5843 44.2658 19.9692 44.7064 20.3558ZM12.7959 24.0085C12.6696 24.0718 12.5545 24.2395 12.5545 24.3602C12.5545 24.4828 12.6563 24.6474 12.7743 24.7156C12.8593 24.7647 13.3778 24.8527 15.0529 25.1023C17.5182 25.4697 17.6525 25.4839 17.8053 25.3937C17.9453 25.3111 18.0378 25.1267 18.0096 24.9863C17.9833 24.8554 17.8546 24.706 17.7264 24.6574C17.6243 24.6188 13.1621 23.9501 13.0063 23.9501C12.9546 23.9501 12.86 23.9764 12.7959 24.0085ZM50.6109 24.2867C49.3997 24.4682 48.3703 24.6257 48.3233 24.6368C48.1941 24.6671 48.018 24.8493 47.9918 24.9797C47.9622 25.1271 48.0514 25.3091 48.1947 25.3937C48.3475 25.4839 48.4818 25.4697 50.9471 25.1023C53.2851 24.7539 53.2838 24.7542 53.3906 24.5439C53.4619 24.4035 53.46 24.3098 53.3831 24.1758C53.3048 24.0394 53.1291 23.9492 52.9503 23.9534C52.8748 23.9553 51.8221 24.1052 50.6109 24.2867ZM11.5396 40.2892C11.8814 40.3853 12.3043 40.7539 12.641 41.2491C13.5274 42.553 14.0369 45.0373 13.8711 47.2473C13.8417 47.6387 13.8012 48.06 13.7811 48.1835C13.7274 48.5124 13.4984 49.3864 13.3794 49.7169C13.3226 49.8745 13.2814 50.0084 13.2879 50.0144C13.3049 50.0303 14.6746 50.0958 14.6886 50.0814C14.6951 50.0747 14.6798 49.9471 14.6546 49.7977C14.515 48.9711 14.4999 48.2849 14.5886 46.7944C14.6711 45.4085 15.0447 43.891 15.5876 42.7367C15.9169 42.0366 16.2468 41.5564 16.6358 41.2112C17.3024 40.6194 17.8353 40.6883 18.3552 41.4333C19.0348 42.4069 19.3512 44.3721 19.1702 46.4963C19.0647 47.7358 18.8386 48.7977 18.4515 49.8721C18.3639 50.1151 18.2998 50.3209 18.3089 50.3294C18.3181 50.338 18.4935 50.3532 18.6988 50.3633L19.0721 50.3817L19.1442 50.1936C19.7676 48.5669 20.09 46.3891 19.9745 44.5852C19.9337 43.9492 19.9346 43.9222 19.9988 43.8343C20.0353 43.7842 20.1394 43.6353 20.2299 43.5035C20.9429 42.4655 21.798 41.7723 22.5187 41.6481C23.3618 41.5027 24.0237 42.2325 24.2897 43.601C24.3579 43.9522 24.3669 44.1017 24.3662 44.8774C24.3657 45.6259 24.3539 45.8294 24.2872 46.2512C24.0896 47.4989 23.704 48.72 23.1704 49.787C23.0855 49.9566 23.0201 50.0984 23.0249 50.1019C23.0297 50.1054 23.3875 50.1172 23.82 50.1281L24.6064 50.1479L24.6145 49.6134C24.6247 48.948 24.6694 48.4968 24.7943 47.8008C25.149 45.8241 25.8991 44.1055 26.7639 43.288C27.3343 42.7488 27.7423 42.8062 28.0733 43.4724C28.3401 44.0095 28.4618 44.709 28.4622 45.7081C28.4628 47.142 28.1923 48.6037 27.667 50.0054C27.1985 51.2554 26.4879 52.2799 25.9026 52.5492C25.6134 52.6822 25.5117 52.6638 25.2298 52.4277C24.8892 52.1424 24.7057 52.0461 24.2132 51.8937C23.5627 51.6925 23.2241 51.6589 22.7065 51.7444C22.0038 51.8604 21.7773 51.9499 21.1927 52.3423C20.7927 52.6108 20.5369 52.7307 20.2412 52.7883C19.9135 52.8522 19.6333 52.8054 19.3666 52.6423C19.135 52.5006 19.0407 52.4093 18.8385 52.1312C18.6276 51.8411 18.4699 51.7683 18.0484 51.767C17.6103 51.7655 17.5081 51.8016 17.1516 52.0839C16.7464 52.4048 16.5627 52.4934 16.2983 52.4957C16.0502 52.4979 15.9209 52.445 15.5461 52.1885C14.867 51.7238 14.5588 51.5725 14.0549 51.4565C13.7804 51.3933 13.6525 51.3832 13.1693 51.3862L12.6046 51.3897L12.1912 51.5202C11.6581 51.6886 11.5202 51.6904 11.1849 51.5337C10.197 51.0718 9.3651 49.3042 9.07739 47.0557C8.99083 46.3789 8.99147 44.6586 9.07856 44.0307C9.25033 42.7923 9.63544 41.6406 10.0841 41.0235C10.5524 40.3795 11.0206 40.1432 11.5396 40.2892ZM55.1721 40.3413C55.3778 40.4326 55.7033 40.7286 55.9051 41.0075C56.3665 41.6456 56.748 42.7805 56.9215 44.0307C57.0082 44.6559 57.0092 46.3792 56.9234 47.05C56.6347 49.3046 55.804 51.0714 54.8151 51.5337C54.4798 51.6904 54.3419 51.6886 53.8088 51.5202L53.3954 51.3897L52.8307 51.3862C51.846 51.38 51.4301 51.5204 50.4539 52.1885C50.0791 52.445 49.9498 52.4979 49.7017 52.4957C49.4373 52.4934 49.2536 52.4048 48.8484 52.0839C48.4919 51.8016 48.3897 51.7655 47.9516 51.767C47.5301 51.7683 47.3724 51.8411 47.1615 52.1312C46.9593 52.4093 46.865 52.5006 46.6334 52.6423C46.3667 52.8054 46.0865 52.8522 45.7588 52.7883C45.4631 52.7307 45.2073 52.6108 44.8073 52.3423C44.2228 51.9499 43.9962 51.8604 43.2935 51.7444C42.7759 51.6589 42.4373 51.6925 41.7868 51.8937C41.2943 52.0461 41.1108 52.1424 40.7702 52.4277C40.4883 52.6638 40.3866 52.6822 40.0974 52.5492C39.3138 52.1887 38.4515 50.6837 37.9442 48.7913C37.4903 47.0978 37.4037 45.0462 37.7401 43.9523C37.892 43.458 38.0976 43.1118 38.3119 42.9898C38.5643 42.8459 38.8743 42.9459 39.2361 43.288C40.1009 44.1055 40.851 45.8241 41.2057 47.8008C41.3306 48.4968 41.3754 48.948 41.3855 49.6134L41.3936 50.1479L42.18 50.1281C42.6125 50.1172 42.9703 50.1054 42.9751 50.1019C42.98 50.0984 42.9145 49.9566 42.8296 49.787C42.2961 48.72 41.9104 47.4989 41.7128 46.2512C41.6461 45.8294 41.6343 45.6259 41.6338 44.8774C41.6331 44.1017 41.6421 43.9522 41.7104 43.601C41.9355 42.4427 42.4514 41.7289 43.1327 41.6334C43.8693 41.5302 44.9325 42.2841 45.7701 43.5035C45.8607 43.6353 45.9647 43.7842 46.0012 43.8343C46.0654 43.9222 46.0663 43.9492 46.0255 44.5852C45.9169 46.2762 46.1887 48.2745 46.7448 49.8742L46.9213 50.3821L47.2979 50.3635C47.505 50.3533 47.682 50.338 47.6911 50.3294C47.7002 50.3209 47.6361 50.1151 47.5485 49.8721C47.1614 48.7977 46.9353 47.7358 46.8298 46.4963C46.6488 44.3721 46.9652 42.4069 47.6448 41.4333C48.1647 40.6883 48.6976 40.6194 49.3642 41.2112C49.7532 41.5564 50.0831 42.0366 50.4124 42.7367C50.9553 43.891 51.3289 45.4085 51.4114 46.7944C51.5001 48.2849 51.485 48.9711 51.3454 49.7977C51.3202 49.9471 51.3049 50.0747 51.3114 50.0814C51.3254 50.0958 52.6951 50.0303 52.7121 50.0144C52.7186 50.0084 52.6774 49.8745 52.6206 49.7169C52.5016 49.3864 52.2726 48.5124 52.2189 48.1835C52.1988 48.06 52.1583 47.6387 52.1289 47.2473C51.9823 45.2937 52.3412 43.1953 53.0674 41.7603C53.4574 40.9895 53.9816 40.4306 54.447 40.2893C54.6511 40.2273 54.9664 40.2499 55.1721 40.3413Z" stroke="#EC6A2D" stroke-width="0.2" mask="url(#path-1-outside-1_1424_31846)"/>
</svg>
