<svg width="20" height="21" viewBox="0 0 20 21" fill="none" xmlns="http://www.w3.org/2000/svg">
<path d="M5.87497 12.2675L4.1083 14.0359L6.46497 16.3925L15.8925 6.9642L13.5358 4.60837L11.7666 6.37504L12.9458 7.55337L11.7666 8.73337L10.5883 7.5542L9.40997 8.73337L10.5883 9.9117L9.40997 11.09L8.23163 9.9117L7.05247 11.09L8.23163 12.2684L7.05247 13.4475L5.87497 12.2667V12.2675ZM14.125 2.84004L17.66 6.37504C17.8162 6.53131 17.904 6.74323 17.904 6.9642C17.904 7.18517 17.8162 7.3971 17.66 7.55337L7.0533 18.16C6.89703 18.3163 6.6851 18.404 6.46413 18.404C6.24316 18.404 6.03124 18.3163 5.87497 18.16L2.33997 14.625C2.18374 14.4688 2.09598 14.2568 2.09598 14.0359C2.09598 13.8149 2.18374 13.603 2.33997 13.4467L12.9466 2.84004C13.1029 2.68381 13.3148 2.59605 13.5358 2.59605C13.7568 2.59605 13.9687 2.68381 14.125 2.84004ZM11.7666 15.8025L12.9458 14.6242L14.8141 16.4934H15.9925V15.315L14.1241 13.4459L15.3025 12.2675L17.5 14.4642V18H13.965L11.7675 15.8025H11.7666ZM4.69663 8.7317L2.33913 6.37504C2.26165 6.29764 2.20019 6.20574 2.15825 6.10457C2.11631 6.00341 2.09473 5.89497 2.09473 5.78545C2.09473 5.67594 2.11631 5.5675 2.15825 5.46634C2.20019 5.36517 2.26165 5.27326 2.33913 5.19587L4.69663 2.8392C4.85291 2.68298 5.06483 2.59521 5.2858 2.59521C5.50677 2.59521 5.71869 2.68298 5.87497 2.8392L8.2333 5.19587L7.0533 6.37504L5.2858 4.6067L4.10747 5.78587L5.87497 7.55254L4.69663 8.7317Z" fill="black"/>
</svg>
