<svg width="20" height="21" viewBox="0 0 20 21" fill="none" xmlns="http://www.w3.org/2000/svg">
<path d="M14.1667 16.3333H15.8333V12.1667H8.33333V4.66667H4.16667V6.33333H5.83333V8H4.16667V9.66667H6.66667V11.3333H4.16667V13H5.83333V14.6667H4.16667V16.3333H5.83333V14.6667H7.5V16.3333H9.16667V13.8333H10.8333V16.3333H12.5V14.6667H14.1667V16.3333ZM10 10.5H16.6667C16.8877 10.5 17.0996 10.5878 17.2559 10.7441C17.4122 10.9004 17.5 11.1123 17.5 11.3333V17.1667C17.5 17.3877 17.4122 17.5996 17.2559 17.7559C17.0996 17.9122 16.8877 18 16.6667 18H3.33333C3.11232 18 2.90036 17.9122 2.74408 17.7559C2.5878 17.5996 2.5 17.3877 2.5 17.1667V3.83333C2.5 3.61232 2.5878 3.40036 2.74408 3.24408C2.90036 3.0878 3.11232 3 3.33333 3H9.16667C9.38768 3 9.59964 3.0878 9.75592 3.24408C9.9122 3.40036 10 3.61232 10 3.83333V10.5Z" fill="black"/>
</svg>
