<svg width="128" height="12" viewBox="0 0 128 12" fill="none" xmlns="http://www.w3.org/2000/svg">
<path d="M0 0.0897019H3.73837V11.9131H0V0.0897019Z" fill="white"/>
<path d="M6.94289 0.0890671H12.8925L20.3296 9.07634L20.237 0.0890671H23.7738V11.9125H17.7762L10.4416 3.01431L10.5342 11.9125H6.94289V0.0890671Z" fill="white"/>
<path d="M42.3367 7.46182C42.3185 9.18134 42.2623 9.7667 42.0062 10.298C41.5269 11.3097 40.532 11.7884 38.6165 11.9125C37.8613 11.9825 36.3887 12 33.9394 12C30.4027 12 29.2607 11.8409 28.2658 11.2206C27.0511 10.4761 26.7007 9.23542 26.7007 5.72482C26.7007 2.60552 27.0693 1.48887 28.3534 0.779428C29.459 0.159068 30.6374 0 34.0816 0C38.6678 0 39.661 0.0890755 40.7121 0.585364C41.7037 1.06256 42.1665 2.10923 42.1665 3.84624V4.23595H38.6C38.5256 2.94274 38.2496 2.83616 35.0087 2.83616C31.9513 2.83616 31.3993 2.90615 30.9382 3.29745C30.4771 3.68876 30.4044 4.16596 30.4044 6.07953C30.4044 8.91569 30.6804 9.12884 34.2716 9.12884C37.0531 9.12884 37.458 9.11135 37.9736 8.8982C38.4893 8.68505 38.7107 8.31283 38.7107 7.4666L42.3367 7.46182Z" fill="white"/>
<path d="M45.2817 0.0890671H55.8705C58.0437 0.0890671 59.0023 0.265631 59.7014 0.833499C60.4004 1.40137 60.7459 2.39235 60.7459 3.98779C60.7459 6.1861 60.1939 7.0546 58.6288 7.39182C60.1575 7.63997 60.612 8.26033 60.5806 10.0498V11.9125H56.7794V10.4411C56.7612 9.1686 56.3927 8.89819 54.7169 8.93318H49.0019V11.9125H45.2817V0.0890671ZM54.8392 6.04453C56.6439 6.04453 56.9877 5.83138 56.9877 4.66224C56.9877 3.90031 56.9133 3.58058 56.6753 3.33244C56.3977 3.0493 56.0853 2.99522 54.9615 2.99522H48.9953V6.04453H54.8392Z" fill="white"/>
<path d="M77.3801 0.0890671V2.76457H67.4524V4.80381H76.8082V7.14368H67.4524V9.23541H77.509V11.9125H63.7686V0.0890671H77.3801Z" fill="white"/>
<path d="M86.3624 0.0890671H91.3717L98.0964 11.9125H94.0077L92.7914 9.80168H84.875L83.6967 11.9125H79.4575L86.3624 0.0890671ZM91.4857 7.33774L88.8414 2.623L86.217 7.33774H91.4857Z" fill="white"/>
<path d="M102.679 3.01431H97.209V0.0890671H111.888V3.01431H106.418V11.9125H102.679V3.01431Z" fill="white"/>
<path d="M127.871 0.0890671V2.76457H117.943V4.80381H127.301V7.14368H117.943V9.23541H128V11.9125H114.261V0.0890671H127.871Z" fill="white"/>
</svg>
