<svg width="115" height="115" viewBox="0 0 115 115" fill="none" xmlns="http://www.w3.org/2000/svg">
<path d="M100.517 63.9147C100.085 64.6229 99.4436 64.9359 98.5942 64.8535C97.9253 64.7887 97.4011 64.5021 97.0215 63.9938C96.6515 63.4971 96.5074 62.824 96.5893 61.9746L96.9934 57.7861L104.956 58.558L104.583 62.428C104.502 63.2668 104.232 63.8944 103.774 64.3108C103.315 64.7378 102.751 64.9189 102.082 64.8541C101.382 64.7862 100.86 64.473 100.517 63.9147ZM102.913 62.0733L103.082 60.3214L101.649 60.1825L101.48 61.9343C101.423 62.5183 101.634 62.8334 102.112 62.8797C102.59 62.9261 102.857 62.6572 102.913 62.0733ZM98.3483 61.904C98.2909 62.4986 98.517 62.8206 99.0266 62.87C99.2496 62.8916 99.4325 62.829 99.5752 62.682C99.718 62.5351 99.8027 62.3237 99.8293 62.0476L100.024 60.025L98.5433 59.8814L98.3483 61.904Z" fill="#EC6A2D"/>
<path d="M98.3693 72.4084C97.8035 73.0152 97.113 73.1927 96.2976 72.941C95.6555 72.7428 95.1995 72.3564 94.9296 71.7819C94.6668 71.2208 94.6607 70.5323 94.9112 69.7166L96.1467 65.6941L103.791 68.0538L102.649 71.7705C102.402 72.576 102.012 73.1366 101.48 73.4524C100.945 73.7783 100.356 73.8422 99.7138 73.644C99.0411 73.4363 98.5929 73.0245 98.3693 72.4084ZM101.085 71.0867L101.602 69.4042L100.226 68.9795L99.7091 70.6619C99.5369 71.2227 99.6801 71.5739 100.139 71.7155C100.597 71.8571 100.913 71.6475 101.085 71.0867ZM96.6481 70.0016C96.4727 70.5726 96.6296 70.9336 97.1188 71.0847C97.3329 71.1507 97.5245 71.1262 97.6938 71.011C97.8631 70.8958 97.9885 70.7056 98.0699 70.4405L98.6665 68.4981L97.2447 68.0592L96.6481 70.0016Z" fill="#EC6A2D"/>
<path d="M95.7137 76.263C94.7044 76.0132 93.9001 76.4235 93.3008 77.4939C92.9152 78.1826 92.8558 78.8346 93.1226 79.4498L91.473 80.4309C90.864 79.1825 90.9346 77.8881 91.685 76.5479C92.3312 75.3938 93.1982 74.6639 94.2863 74.3582C95.3743 74.0525 96.4482 74.1978 97.5079 74.7941C98.5584 75.3852 99.2394 76.2213 99.551 77.3023C99.8718 78.3886 99.73 79.4716 99.1256 80.5512C98.5524 81.575 97.7275 82.2185 96.6511 82.4818C95.5694 82.7544 94.508 82.5977 93.4668 82.0118C93.2344 81.8811 93.0011 81.7192 92.7669 81.5262L95.7137 76.263ZM97.1237 77.0197L95.1305 80.5797C95.6619 80.7441 96.135 80.7288 96.5498 80.5338C96.9594 80.3481 97.2788 80.0505 97.5081 79.641C97.779 79.1571 97.8776 78.6862 97.8038 78.2285C97.7393 77.7761 97.5126 77.3731 97.1237 77.0197Z" fill="#EC6A2D"/>
<path d="M92.4601 89.7917C91.7333 90.5869 90.8119 90.9861 89.6961 90.9894C88.581 91.0079 87.5875 90.6166 86.7155 89.8155C85.8436 89.0145 85.3643 88.0528 85.2777 86.9302C85.1916 85.8228 85.5121 84.8715 86.2389 84.0763C86.9946 83.2496 87.8642 82.8753 88.8478 82.9533L85.7962 80.1498L87.1887 78.6263L95.4365 86.2035L94.0439 87.727L93.3488 87.0883C93.512 88.0639 93.2158 88.965 92.4601 89.7917ZM89.4755 84.3773C88.8885 84.4029 88.3791 84.6519 87.9473 85.1243C87.5155 85.5967 87.3124 86.1271 87.3381 86.7156C87.3644 87.3192 87.6211 87.8447 88.1081 88.2921C88.5951 88.7395 89.1357 88.9465 89.7299 88.913C90.3248 88.8946 90.8381 88.6492 91.2699 88.1768C91.7017 87.7044 91.9009 87.1704 91.8673 86.5747C91.8417 85.9862 91.5853 85.4682 91.0983 85.0208C90.6113 84.5734 90.0704 84.3589 89.4755 84.3773Z" fill="#EC6A2D"/>
<path d="M76.7447 92.0975L78.7012 90.7354L81.5042 91.7474L81.5507 88.7517L83.5073 87.3896L83.4274 92.4165L87.9575 94.0392L86.0009 95.4013L83.3901 94.47L83.3484 97.2479L81.4049 98.6008L81.48 93.7917L76.7447 92.0975Z" fill="#EC6A2D"/>
<path d="M65.1406 100.39C64.3319 100.205 63.8318 99.6963 63.6406 98.8647C63.4899 98.2098 63.5954 97.6216 63.9571 97.1C64.3107 96.5913 64.9032 96.2409 65.7346 96.0487L69.8345 95.1009L71.6278 102.897L67.8397 103.773C67.0186 103.963 66.3381 103.907 65.7979 103.605C65.2474 103.305 64.8968 102.828 64.7462 102.173C64.5884 101.487 64.7199 100.892 65.1406 100.39ZM67.6465 102.077L69.3613 101.681L69.0385 100.277L67.3238 100.674C66.7522 100.806 66.5202 101.106 66.6278 101.573C66.7354 102.041 67.075 102.209 67.6465 102.077ZM66.3594 97.6942C65.7774 97.8288 65.5438 98.1455 65.6586 98.6445C65.7088 98.8628 65.8262 99.0163 66.0107 99.105C66.1953 99.1937 66.4227 99.2068 66.6929 99.1444L68.6727 98.6867L68.3392 97.2366L66.3594 97.6942Z" fill="#EC6A2D"/>
<path d="M56.4824 101.04C55.7262 100.697 55.3366 100.1 55.3136 99.2467C55.2955 98.5749 55.5153 98.0194 55.973 97.5802C56.4203 97.1519 57.0704 96.9263 57.9234 96.9031L62.1299 96.7892L62.3455 104.786L58.4589 104.892C57.6165 104.914 56.9605 104.724 56.4908 104.321C56.0104 103.918 55.7612 103.38 55.7431 102.708C55.7241 102.005 55.9705 101.448 56.4824 101.04ZM58.6051 103.191L60.3645 103.143L60.3257 101.704L58.5663 101.752C57.9799 101.767 57.6931 102.015 57.706 102.495C57.719 102.975 58.0187 103.207 58.6051 103.191ZM58.2103 98.64C57.6132 98.6562 57.3216 98.9202 57.3354 99.432C57.3414 99.6559 57.4261 99.8297 57.5895 99.9533C57.7529 100.077 57.9732 100.135 58.2504 100.127L60.2817 100.072L60.2416 98.585L58.2103 98.64Z" fill="#EC6A2D"/>
<path d="M51.8372 99.7241C51.7482 98.6873 51.1009 98.0561 49.8952 97.8303C49.1193 97.685 48.4834 97.8372 47.9873 98.2869L46.5275 97.0369C47.5124 96.0602 48.7598 95.7131 50.2695 95.9958C51.5696 96.2393 52.5395 96.8278 53.1793 97.7616C53.8191 98.6953 54.0277 99.7598 53.805 100.955C53.5842 102.14 53.0126 103.053 52.0903 103.694C51.1659 104.346 50.0957 104.558 48.8795 104.33C47.7262 104.114 46.8516 103.538 46.2557 102.602C45.6493 101.664 45.4555 100.607 45.6743 99.4328C45.7231 99.1706 45.8011 98.8977 45.9082 98.6139L51.8372 99.7241ZM51.5756 101.303L47.5653 100.552C47.581 101.108 47.7479 101.552 48.066 101.883C48.3736 102.212 48.7581 102.419 49.2194 102.506C49.7646 102.608 50.2418 102.551 50.651 102.334C51.0583 102.128 51.3665 101.785 51.5756 101.303Z" fill="#EC6A2D"/>
<path d="M37.9978 100.914C37.014 100.475 36.3429 99.7256 35.9846 98.6663C35.6123 97.6124 35.6663 96.5444 36.1468 95.4623C36.6273 94.3801 37.3848 93.6202 38.4195 93.1825C39.4401 92.7503 40.4422 92.7536 41.4261 93.1927C42.4488 93.6491 43.0799 94.357 43.3191 95.3165L45.0008 91.529L46.8856 92.3701L42.3406 102.606L40.4557 101.765L40.8388 100.903C39.9676 101.366 39.0206 101.37 37.9978 100.914ZM42.1714 96.3636C41.9603 95.8139 41.5626 95.4086 40.9781 95.1478C40.3937 94.887 39.8271 94.8619 39.2784 95.0726C38.7156 95.2887 38.3 95.699 38.0317 96.3034C37.7633 96.9078 37.7395 97.4871 37.9603 98.0412C38.1671 98.6006 38.5627 99.0108 39.1471 99.2716C39.7315 99.5324 40.3003 99.5526 40.8533 99.3322C41.402 99.1215 41.8106 98.7139 42.0789 98.1095C42.3473 97.5051 42.3781 96.9231 42.1714 96.3636Z" fill="#EC6A2D"/>
<path d="M30.8864 86.693L32.7919 88.1257L32.7162 91.1115L35.567 90.2122L37.4725 91.6449L32.6882 93.1523L32.5779 97.9738L30.6725 96.5411L30.7322 93.7635L28.0892 94.5988L26.1965 93.1757L30.7731 91.7324L30.8864 86.693Z" fill="#EC6A2D"/>
<path d="M19.3903 78.3206C19.3081 77.4939 19.6301 76.8564 20.3562 76.4081C20.928 76.0551 21.5182 75.9665 22.1269 76.1422C22.721 76.3145 23.2413 76.7642 23.688 77.4913L25.8905 81.0769L19.0833 85.2795L17.0483 81.9666C16.6072 81.2486 16.4436 80.5849 16.5575 79.9755C16.6658 79.3571 17.0059 78.8713 17.5777 78.5183C18.1767 78.1485 18.781 78.0826 19.3903 78.3206ZM18.5919 81.2392L19.5131 82.7389L20.7384 81.9824L19.8172 80.4828C19.5101 79.9829 19.1524 79.859 18.7439 80.1112C18.3355 80.3633 18.2848 80.7393 18.5919 81.2392ZM22.3296 78.612C22.017 78.103 21.6428 77.983 21.2072 78.252C21.0165 78.3696 20.9087 78.5303 20.8835 78.7338C20.8583 78.9374 20.9183 79.1574 21.0635 79.3937L22.127 81.1251L23.3932 80.3434L22.3296 78.612Z" fill="#EC6A2D"/>
<path d="M16.0286 70.3324C16.1125 69.506 16.5549 68.9456 17.3558 68.6512C17.9866 68.4193 18.5828 68.4502 19.1445 68.7437C19.6925 69.031 20.113 69.5753 20.4062 70.3767L21.8516 74.3286L14.3429 77.0889L13.0074 73.4375C12.7179 72.6461 12.6896 71.9632 12.9225 71.389C13.1517 70.8047 13.5817 70.3966 14.2125 70.1647C14.8732 69.9218 15.4786 69.9777 16.0286 70.3324ZM14.6652 73.0326L15.2697 74.6855L16.6213 74.1887L16.0167 72.5358C15.8152 71.9848 15.4892 71.7921 15.0387 71.9577C14.5881 72.1234 14.4636 72.4817 14.6652 73.0326ZM18.8517 71.2038C18.6465 70.6428 18.3036 70.4507 17.8231 70.6273C17.6128 70.7046 17.4751 70.8405 17.4099 71.0349C17.3448 71.2293 17.3598 71.4568 17.4551 71.7172L18.1531 73.6256L19.5497 73.1122L18.8517 71.2038Z" fill="#EC6A2D"/>
<path d="M15.8341 65.6763C16.7888 65.2627 17.1816 64.4484 17.0125 63.2334C16.9037 62.4516 16.5572 61.897 15.9731 61.5694L16.6944 59.7883C17.9336 60.4119 18.659 61.4844 18.8709 63.0057C19.0532 64.3157 18.8034 65.4224 18.1215 66.3256C17.4395 67.2288 16.4964 67.7647 15.2921 67.9332C14.0984 68.1002 13.051 67.8483 12.1499 67.1773C11.2382 66.5079 10.697 65.5604 10.5264 64.3349C10.3646 63.1727 10.6329 62.1605 11.3314 61.298C12.0283 60.425 12.9683 59.9057 14.1515 59.7402C14.4156 59.7032 14.6992 59.6905 15.0023 59.7019L15.8341 65.6763ZM14.2539 65.9297L13.6913 61.8887C13.1688 62.0803 12.8012 62.3794 12.5886 62.7862C12.3745 63.1823 12.2998 63.6128 12.3645 64.0777C12.441 64.627 12.6469 65.0614 12.9821 65.3807C13.3067 65.7014 13.7307 65.8844 14.2539 65.9297Z" fill="#EC6A2D"/>
<path d="M10.268 52.7283C10.3715 51.6559 10.8683 50.7825 11.7585 50.1079C12.6391 49.4216 13.6687 49.1356 14.8471 49.2499C16.0256 49.3641 16.9867 49.8431 17.7305 50.6868C18.4647 51.5189 18.7801 52.4711 18.6766 53.5434C18.5691 54.6583 18.0986 55.4807 17.2652 56.0108L21.3899 56.4106L21.1917 58.4651L10.044 57.3844L10.2421 55.3299L11.1817 55.421C10.4651 54.7407 10.1605 53.8431 10.268 52.7283ZM15.9078 55.2522C16.3618 54.8783 16.6195 54.3728 16.6809 53.7358C16.7424 53.0987 16.586 52.5531 16.2119 52.0989C15.8282 51.633 15.3072 51.3682 14.649 51.3044C13.9907 51.2405 13.4341 51.4009 12.9791 51.7855C12.5145 52.1584 12.2514 52.6634 12.19 53.3004C12.1285 53.9374 12.2902 54.4836 12.6749 54.9388C13.049 55.3931 13.5652 55.6521 14.2235 55.7159C14.8817 55.7797 15.4432 55.6251 15.9078 55.2522Z" fill="#EC6A2D"/>
<path d="M21.3871 41.5652L20.6443 43.8305L17.7961 44.7113L19.5626 47.1297L18.8198 49.395L15.857 45.3358L11.2616 46.7695L12.0044 44.5042L14.6505 43.6747L13.0114 41.433L13.7492 39.1829L16.5846 43.0654L21.3871 41.5652Z" fill="#EC6A2D"/>
<path d="M25.683 27.8495C26.4398 27.5104 27.1447 27.6155 27.7977 28.1648C28.3119 28.5974 28.5817 29.131 28.6069 29.7656C28.6309 30.3851 28.369 31.0221 27.8213 31.6764L25.1203 34.9032L18.9985 29.7532L21.494 26.7718C22.0349 26.1256 22.6117 25.7605 23.2244 25.6766C23.844 25.5845 24.4109 25.7548 24.9251 26.1874C25.4639 26.6406 25.7165 27.1946 25.683 27.8495ZM22.6686 28.0108L21.5389 29.3604L22.6409 30.2874L23.7705 28.9378C24.1471 28.4879 24.1517 28.1085 23.7844 27.7995C23.4171 27.4905 23.0452 27.5609 22.6686 28.0108ZM26.3326 30.7377C26.716 30.2797 26.7119 29.8859 26.3201 29.5563C26.1486 29.4121 25.9626 29.3601 25.762 29.4004C25.5613 29.4407 25.372 29.5672 25.194 29.7798L23.8897 31.338L25.0284 32.2959L26.3326 30.7377Z" fill="#EC6A2D"/>
<path d="M32.2497 22.0333C33.0587 21.8513 33.7287 22.0943 34.2596 22.7624C34.6776 23.2885 34.836 23.8651 34.7347 24.492C34.6351 25.1039 34.2519 25.6761 33.5851 26.2086L30.297 28.8346L25.3201 22.5711L28.3582 20.1449C29.0166 19.619 29.6545 19.3759 30.2717 19.4153C30.8972 19.4482 31.419 19.7276 31.837 20.2538C32.275 20.8049 32.4126 21.3981 32.2497 22.0333ZM29.2632 21.5926L27.888 22.6909L28.7838 23.8183L30.1591 22.72C30.6175 22.3539 30.6974 21.9829 30.3988 21.6071C30.1002 21.2313 29.7217 21.2265 29.2632 21.5926ZM32.3126 24.993C32.7794 24.6202 32.8535 24.2334 32.535 23.8326C32.3956 23.6572 32.2236 23.5693 32.0189 23.5689C31.8143 23.5686 31.6036 23.6549 31.3869 23.828L29.7991 25.096L30.7248 26.261L32.3126 24.993Z" fill="#EC6A2D"/>
<path d="M36.4663 20.418C37.1616 21.1912 38.0576 21.303 39.1543 20.7536C39.8601 20.4001 40.2752 19.8939 40.3996 19.235L42.3157 19.3489C42.1191 20.7239 41.3341 21.7554 39.9608 22.4434C38.7782 23.0358 37.6509 23.1532 36.5787 22.7955C35.5066 22.4378 34.6993 21.7148 34.1568 20.6265C33.6191 19.5478 33.5247 18.4736 33.8736 17.4041C34.2177 16.325 34.9429 15.5084 36.0492 14.9542C37.0982 14.4287 38.1421 14.3591 39.1809 14.7454C40.2292 15.127 41.0198 15.8523 41.5527 16.9215C41.6717 17.1602 41.7739 17.4251 41.8595 17.7163L36.4663 20.418ZM35.724 19.0004L39.3719 17.173C39.0243 16.7386 38.6241 16.4858 38.1714 16.4143C37.7281 16.3381 37.2967 16.4051 36.8771 16.6153C36.3812 16.8637 36.0353 17.198 35.8395 17.6182C35.639 18.0289 35.6005 18.4896 35.724 19.0004Z" fill="#EC6A2D"/>
<path d="M46.9365 11.0021C47.9862 10.7595 48.972 10.9531 49.894 11.583C50.824 12.2 51.4217 13.0855 51.6871 14.2394C51.9525 15.3932 51.8031 16.4569 51.2389 17.4303C50.6828 18.3909 49.8799 18.9925 48.8302 19.2352C47.739 19.4874 46.8099 19.3026 46.043 18.6807L46.9719 22.7192L44.9609 23.1841L42.4504 12.2691L44.4613 11.8042L44.6729 12.7242C45.0908 11.8284 45.8453 11.2544 46.9365 11.0021ZM46.3318 17.1524C46.8303 17.4641 47.3914 17.5479 48.0149 17.4037C48.6385 17.2596 49.1063 16.938 49.4184 16.4388C49.7384 15.9269 49.8243 15.3487 49.6761 14.7042C49.5278 14.0597 49.1992 13.5828 48.6903 13.2735C48.1893 12.9514 47.6271 12.8624 47.0035 13.0066C46.38 13.1507 45.9134 13.4775 45.6037 13.987C45.2916 14.4861 45.2097 15.058 45.358 15.7025C45.5062 16.347 45.8308 16.8303 46.3318 17.1524Z" fill="#EC6A2D"/>
<path d="M60.9525 18.0045L58.5686 18.0229L56.8219 15.6044L55.0967 18.0498L52.7128 18.0682L55.6092 13.9657L52.7791 10.0675L55.1631 10.049L56.7964 12.2925L58.395 10.024L60.7629 10.0057L57.9931 13.9313L60.9525 18.0045Z" fill="#EC6A2D"/>
<path d="M75.3579 17.7029C75.9205 18.314 76.0463 19.0168 75.7353 19.8115C75.4903 20.4372 75.0717 20.8628 74.4794 21.0883C73.901 21.3078 73.2147 21.2613 72.4206 20.9489L68.5048 19.4083L71.4208 11.9587L75.0389 13.3822C75.8231 13.6907 76.3528 14.1226 76.6279 14.6779C76.9131 15.2371 76.9331 15.8296 76.6882 16.4553C76.4316 17.1109 75.9881 17.5267 75.3579 17.7029ZM74.242 14.8912L72.6042 14.2468L72.0793 15.5878L73.7171 16.2321C74.2631 16.4469 74.6235 16.3308 74.7985 15.8838C74.9735 15.4368 74.788 15.106 74.242 14.8912ZM72.833 19.237C73.3888 19.4557 73.7601 19.3267 73.9467 18.8499C74.0284 18.6413 74.0181 18.4481 73.9158 18.2704C73.8136 18.0926 73.6335 17.9529 73.3754 17.8514L71.4844 17.1075L70.9421 18.4931L72.833 19.237Z" fill="#EC6A2D"/>
<path d="M82.841 22.03C83.2709 22.7409 83.2547 23.4549 82.7921 24.172C82.4279 24.7367 81.9332 25.0707 81.3081 25.174C80.6978 25.2741 80.0346 25.092 79.3185 24.6279L75.7875 22.3389L80.1238 15.616L83.3862 17.7309C84.0933 18.1893 84.5266 18.718 84.686 19.3171C84.8543 19.922 84.7564 20.5068 84.3921 21.0715C84.0105 21.6631 83.4935 21.9826 82.841 22.03ZM82.3059 19.0517L80.829 18.0944L80.0485 19.3045L81.5253 20.2618C82.0176 20.581 82.3938 20.5388 82.654 20.1355C82.9142 19.7321 82.7981 19.3708 82.3059 19.0517ZM80.0624 23.0317C80.5637 23.3566 80.953 23.304 81.2306 22.8737C81.352 22.6855 81.3802 22.494 81.3154 22.2994C81.2505 22.1048 81.1017 21.9321 80.869 21.7813L79.1639 20.6759L78.3574 21.9264L80.0624 23.0317Z" fill="#EC6A2D"/>
<path d="M85.8987 25.6897C85.3865 26.5959 85.5635 27.4833 86.4298 28.3517C86.9873 28.9106 87.5974 29.1447 88.2603 29.0541L88.7575 30.9118C87.394 31.1611 86.1699 30.7419 85.0852 29.6544C84.1511 28.718 83.684 27.6834 83.684 26.5506C83.684 25.4178 84.1134 24.4209 84.9722 23.56C85.8234 22.7066 86.8102 22.2762 87.9326 22.2686C89.0626 22.2535 90.0645 22.684 90.9383 23.56C91.7669 24.3907 92.1624 25.3611 92.1247 26.4713C92.0946 27.589 91.6577 28.5707 90.814 29.4166C90.6257 29.6054 90.4072 29.7866 90.1586 29.9603L85.8987 25.6897ZM87.0061 24.5342L89.8875 27.4228C90.1888 26.9546 90.3018 26.4939 90.2264 26.0408C90.1586 25.5953 89.959 25.2063 89.6276 24.874C89.2358 24.4813 88.8102 24.2586 88.3507 24.2057C87.8987 24.1453 87.4505 24.2548 87.0061 24.5342Z" fill="#EC6A2D"/>
<path d="M98.0834 32.59C98.6473 33.5079 98.778 34.5053 98.4755 35.5821C98.1877 36.6624 97.54 37.5135 96.5326 38.1355C95.5251 38.7575 94.471 38.957 93.3701 38.7341C92.2839 38.5146 91.4589 37.9459 90.895 37.0279C90.3088 36.0736 90.1878 35.1329 90.5321 34.2057L87.006 36.3827L85.9257 34.624L95.4558 28.7404L96.5361 30.4991L95.7329 30.995C96.7137 31.104 97.4972 31.6356 98.0834 32.59ZM92.0704 33.9894C91.9342 34.5624 92.0336 35.1216 92.3686 35.6669C92.7035 36.2122 93.1569 36.5528 93.7286 36.6888C94.315 36.8282 94.8895 36.7242 95.4523 36.3768C96.015 36.0294 96.3617 35.5646 96.4923 34.9825C96.6376 34.4039 96.5428 33.8419 96.2078 33.2966C95.8728 32.7513 95.415 32.4135 94.8342 32.2831C94.2625 32.1472 93.6952 32.2529 93.1325 32.6004C92.5698 32.9478 92.2158 33.4108 92.0704 33.9894Z" fill="#EC6A2D"/>
<path d="M95.9728 48.3397L95.2045 46.0829L96.9487 43.6598L94.0856 42.7961L93.3173 40.5393L98.1212 41.9903L100.928 38.0707L101.696 40.3275L100.082 42.5876L102.738 43.3871L103.501 45.6287L98.9046 44.2419L95.9728 48.3397Z" fill="#EC6A2D"/>
</svg>
