<svg width="315" height="97" viewBox="0 0 315 97" fill="none" xmlns="http://www.w3.org/2000/svg">
<path d="M228.637 21.6831H207.932V34.327H227.187H228.798C237.66 34.327 243.621 39.3221 243.621 47.5953C243.621 56.1026 237.74 60.8636 228.798 60.8636H222.756V39.8685H207.852V73.5855H228.234C247.569 73.5855 258.848 62.4246 258.848 47.4392C258.928 32.3758 247.811 21.6831 228.637 21.6831Z" fill="white" opacity="0.5"/>
<path d="M185.134 21.2925H170.794L147.914 73.6632H163.543L177.803 38.3852L183.764 53.2144H177.964L173.533 64.3754H188.115L191.982 73.6632H207.933L185.134 21.2925Z" fill="white" opacity="0.5"/>
<path d="M162.978 21.6831H121.811V34.327H157.419L162.978 21.6831Z" fill="white" opacity="0.5"/>
<path d="M155.002 39.9463H121.811V73.6634H136.634V51.8097H149.846L155.002 39.9463Z" fill="white" opacity="0.5"/>
<path d="M297.6 40.0246C299.13 42.2881 299.936 44.9417 299.936 47.7515C299.936 55.0881 294.699 61.2539 286.804 61.2539C278.99 61.2539 273.592 54.932 273.592 47.7515C273.592 40.4149 278.829 34.249 286.643 34.249H310.731C305.978 26.6783 297.277 21.7612 286.804 21.7612C270.853 21.7612 258.93 33.3905 258.93 47.8295C258.93 62.3466 270.772 73.8978 286.724 73.8978C302.675 73.8978 314.598 62.2685 314.598 47.8295C314.598 45.0978 314.196 42.5222 313.39 40.1027H297.6V40.0246Z" fill="white" opacity="0.5"/>
<path d="M64.6112 68.2002H48.821V42.366H60.3414V58.366H65.014C71.8619 58.366 76.454 54.6977 76.454 48.0636C76.454 41.6636 71.8619 37.7612 65.014 37.7612H60.8248H60.3414H19.4961V28.0051H48.821H64.8529C79.6765 28.0051 88.2161 36.2782 88.2161 47.9856C88.2161 59.6148 79.5153 68.2002 64.6112 68.2002ZM41.4092 51.1075H31.0166V68.2002H19.4961V42.366H45.2762L41.4092 51.1075ZM85.3964 0.687988H13.7762C6.20333 0.687988 0 6.69774 0 14.0343V83.4197C0 90.8343 6.20333 96.766 13.7762 96.766H85.3964C92.9693 96.766 99.1726 90.7563 99.1726 83.4197V14.0343C99.1726 6.69774 92.9693 0.687988 85.3964 0.687988Z" fill="white" opacity="0.5"/>
</svg>
