{
    "asset" : {
        "generator" : "Khronos glTF Blender I/O v1.7.33",
        "version" : "2.0"
    },
    "extensionsUsed" : [
        "KHR_materials_clearcoat"
    ],
    "scene" : 0,
    "scenes" : [
        {
            "name" : "Scene",
            "nodes" : [
                0
            ]
        }
    ],
    "nodes" : [
        {
            "mesh" : 0,
            "name" : "\u00c1\u00ee\u00e1\u00fb\u00f8\u00ea\u00e0-\u00c2\u00fb\u00f2\u00ff\u00ed\u00f3\u00f2\u00fc4.001",
            "rotation" : [
                0.6497560143470764,
                0.18055357038974762,
                -0.08333910256624222,
                0.7336702942848206
            ],
            "scale" : [
                1.9762310981750488,
                1.9762312173843384,
                1.9762310981750488
            ],
            "translation" : [
                0.6440666317939758,
                -0.4831305742263794,
                -0.34150129556655884
            ]
        }
    ],
    "materials" : [
        {
            "doubleSided" : true,
            "emissiveFactor" : [
                0.05040528252720833,
                0.03073444589972496,
                0
            ],
            "extensions" : {
                "KHR_materials_clearcoat" : {
                    "clearcoatFactor" : 1,
                    "clearcoatRoughnessFactor" : 0
                }
            },
            "name" : "default.004",
            "pbrMetallicRoughness" : {
                "baseColorFactor" : [
                    1,
                    0.17301398515701294,
                    0,
                    1
                ],
                "roughnessFactor" : 0.30000004172325134
            }
        }
    ],
    "meshes" : [
        {
            "name" : "\u00c1\u00ee\u00e1\u00fb\u00f8\u00ea\u00e0-\u00c2\u00fb\u00f2\u00ff\u00ed\u00f3\u00f2\u00fc4.001",
            "primitives" : [
                {
                    "attributes" : {
                        "POSITION" : 0,
                        "NORMAL" : 1,
                        "TEXCOORD_0" : 2
                    },
                    "indices" : 3,
                    "material" : 0
                }
            ]
        }
    ],
    "accessors" : [
        {
            "bufferView" : 0,
            "componentType" : 5126,
            "count" : 7287,
            "max" : [
                1.100000023841858,
                3.1399998664855957,
                0.790906548500061
            ],
            "min" : [
                -1.100000023841858,
                -3.1399998664855957,
                -2.690000057220459
            ],
            "type" : "VEC3"
        },
        {
            "bufferView" : 1,
            "componentType" : 5126,
            "count" : 7287,
            "type" : "VEC3"
        },
        {
            "bufferView" : 2,
            "componentType" : 5126,
            "count" : 7287,
            "type" : "VEC2"
        },
        {
            "bufferView" : 3,
            "componentType" : 5123,
            "count" : 16422,
            "type" : "SCALAR"
        }
    ],
    "bufferViews" : [
        {
            "buffer" : 0,
            "byteLength" : 87444,
            "byteOffset" : 0
        },
        {
            "buffer" : 0,
            "byteLength" : 87444,
            "byteOffset" : 87444
        },
        {
            "buffer" : 0,
            "byteLength" : 58296,
            "byteOffset" : 174888
        },
        {
            "buffer" : 0,
            "byteLength" : 32844,
            "byteOffset" : 233184
        }
    ],
    "buffers" : [
        {
            "byteLength" : 266028,
            "uri" : "data:application/octet-stream;base64,"
        }
    ]
}
