{
    "asset" : {
        "generator" : "Khronos glTF Blender I/O v1.7.33",
        "version" : "2.0"
    },
    "extensionsUsed" : [
        "KHR_materials_clearcoat"
    ],
    "scene" : 0,
    "scenes" : [
        {
            "name" : "Scene",
            "nodes" : [
                0
            ]
        }
    ],
    "nodes" : [
        {
            "mesh" : 0,
            "name" : "\u00c1\u00ee\u00e1\u00fb\u00f8\u00ea\u00e0-\u00c2\u00fb\u00f2\u00ff\u00ed\u00f3\u00f2\u00fc2",
            "rotation" : [
                0.7028012871742249,
                -0.3201754689216614,
                0.5419798493385315,
                0.33138468861579895
            ]
        }
    ],
    "materials" : [
        {
            "doubleSided" : true,
            "extensions" : {
                "KHR_materials_clearcoat" : {
                    "clearcoatFactor" : 1,
                    "clearcoatRoughnessFactor" : 0.22090910375118256
                }
            },
            "name" : "default.003",
            "pbrMetallicRoughness" : {
                "baseColorFactor" : [
                    1,
                    0.33023330569267273,
                    0,
                    1
                ],
                "metallicFactor" : 0.8454545736312866,
                "roughnessFactor" : 0.2499999701976776
            }
        }
    ],
    "meshes" : [
        {
            "name" : "\u00c1\u00ee\u00e1\u00fb\u00f8\u00ea\u00e0-\u00c2\u00fb\u00f2\u00ff\u00ed\u00f3\u00f2\u00fc2",
            "primitives" : [
                {
                    "attributes" : {
                        "POSITION" : 0,
                        "NORMAL" : 1,
                        "TEXCOORD_0" : 2
                    },
                    "indices" : 3,
                    "material" : 0
                }
            ]
        }
    ],
    "accessors" : [
        {
            "bufferView" : 0,
            "componentType" : 5126,
            "count" : 9744,
            "max" : [
                2.5999999046325684,
                1.3250000476837158,
                0.40243637561798096
            ],
            "min" : [
                -2.5999999046325684,
                -1.3250000476837158,
                -3.5225636959075928
            ],
            "type" : "VEC3"
        },
        {
            "bufferView" : 1,
            "componentType" : 5126,
            "count" : 9744,
            "type" : "VEC3"
        },
        {
            "bufferView" : 2,
            "componentType" : 5126,
            "count" : 9744,
            "type" : "VEC2"
        },
        {
            "bufferView" : 3,
            "componentType" : 5123,
            "count" : 25176,
            "type" : "SCALAR"
        }
    ],
    "bufferViews" : [
        {
            "buffer" : 0,
            "byteLength" : 116928,
            "byteOffset" : 0
        },
        {
            "buffer" : 0,
            "byteLength" : 116928,
            "byteOffset" : 116928
        },
        {
            "buffer" : 0,
            "byteLength" : 77952,
            "byteOffset" : 233856
        },
        {
            "buffer" : 0,
            "byteLength" : 50352,
            "byteOffset" : 311808
        }
    ],
    "buffers" : [
        {
            "byteLength" : 362160,
            "uri" : "data:application/octet-stream;base64,"
        }
    ]
}
