<svg width="48" height="48" viewBox="0 0 48 48" fill="none" xmlns="http://www.w3.org/2000/svg">
<path d="M31.2721 33.7287H23.6296V20.8221H29.2055V28.8156H31.4671C34.7815 28.8156 37.0041 26.9829 37.0041 23.6686C37.0041 20.4712 34.7815 18.5215 31.4671 18.5215H29.4395H29.2055H9.43622V13.6474H23.6296H31.3891C38.5638 13.6474 42.697 17.7807 42.697 23.6296C42.697 29.4395 38.4858 33.7287 31.2721 33.7287ZM20.0422 25.1893H15.0122V33.7287H9.43622V20.8221H21.9139L20.0422 25.1893ZM41.3322 0H6.66775C3.00244 0 0 3.00243 0 6.66775V41.3322C0 45.0366 3.00244 48 6.66775 48H41.3322C44.9976 48 48 44.9976 48 41.3322V6.66775C48 3.00243 44.9976 0 41.3322 0Z" fill="#EC6A2D"/>
</svg>
